<svg xmlns="http://www.w3.org/2000/svg" width="349" height="255" viewBox="0 0 349 255">
    <defs>
        <linearGradient id="a" x1="50%" x2="50%" y1="100%" y2="0%">
            <stop offset="0%" stop-color="gray" stop-opacity=".25"/>
            <stop offset="54%" stop-color="gray" stop-opacity=".12"/>
            <stop offset="100%" stop-color="gray" stop-opacity=".1"/>
        </linearGradient>
        <linearGradient id="b" x1="50%" x2="50%" y1="100.002%" y2=".004%">
            <stop offset="0%" stop-color="gray" stop-opacity=".25"/>
            <stop offset="54%" stop-color="gray" stop-opacity=".12"/>
            <stop offset="100%" stop-color="gray" stop-opacity=".1"/>
        </linearGradient>
    </defs>
    <g fill="none" fill-rule="evenodd" transform="translate(-29 -25)">
        <ellipse cx="203" cy="263.2" fill="#DEE3F3" fill-rule="nonzero" opacity=".5" rx="87.267" ry="14.933"/>
        <g opacity=".45">
            <path fill="#4A5974" fill-rule="nonzero" d="M181.972 112.67zM225.678 102.218c0 .046 0 .088.021.134l-.021-.134zM225.586 101.788c0 .046.025.095.036.141a1.65 1.65 0 0 0-.036-.141zM225.633 113.486c0 .077-.039.155-.06.23.024-.075.042-.153.06-.23zM225.693 113.13c0 .082-.021.166-.039.248.018-.082.032-.166.039-.247zM183.993 115.99zM183.172 115.416zM247.663 186.95zM245.788 184.678zM246.629 185.273zM246.215 184.945zM247.47 186.445zM247.761 187.41zM360.87 166.869H339.29a3.74 3.74 0 0 0 1.614-3.076v-9.888a3.75 3.75 0 0 0-3.753-3.746h-24.83a3.75 3.75 0 0 0 2.615-3.57v-9.89a3.74 3.74 0 0 0-1.614-3.076h23.84a3.75 3.75 0 0 0 3.752-3.746v-9.89a3.75 3.75 0 0 0-3.753-3.747h-26.534a3.75 3.75 0 0 0 2.614-3.57v-9.89a3.74 3.74 0 0 0-1.614-3.076h25.538a3.75 3.75 0 0 0 3.753-3.746v-9.891a3.742 3.742 0 0 0-1.103-2.66 3.756 3.756 0 0 0-2.667-1.093h-13.367a3.75 3.75 0 0 0 2.613-3.57v-9.88a3.75 3.75 0 0 0-3.753-3.746H286.4a3.75 3.75 0 0 0-3.753 3.746c0-.994-.396-1.947-1.1-2.65a3.756 3.756 0 0 0-2.653-1.096h-36.248a3.753 3.753 0 0 0-3.39 2.169c.048.24.072.485.072.73v9.898a3.716 3.716 0 0 1-.34 1.574c.17.853.63 1.622 1.306 2.172h9.309c.866 0 1.705.3 2.373.85h4.068a3.75 3.75 0 0 0-2.613 3.57 3.75 3.75 0 0 0-.095-.721V95.288a3.736 3.736 0 0 1-.122.934c.06.063.115.132.162.206.02-.156.03-.313.03-.47.003.217.025.433.065.646.05.12.079.246.085.376a3.753 3.753 0 0 0 1.468 2.054h-3.228l.082-.065c-.299 0-.604-.023-.902-.027a.835.835 0 0 1-.312-.064c-.35.105-.713.159-1.078.159l-22.243.677a3.74 3.74 0 0 0-1.613 3.076v9.887a3.75 3.75 0 0 0 2.614 3.57l21.242.176c.374 0 .745.056 1.102.166.237.02.472.06.702.122h.054a3.733 3.733 0 0 0-.648-.278h5.228a3.75 3.75 0 0 0-2.614 3.57c0-.218-.02-.435-.057-.65a.833.833 0 0 1-.082.102c.047.238.071.48.071.724v9.887c0 .46.068.339.068-.176a3.74 3.74 0 0 0 1.614 3.076l13.252.423c.454.001.905.085 1.329.247h3.19a3.764 3.764 0 0 0-1.298 1.584c.348.578.532 1.24.532 1.915v9.877c0 .517-.107 1.027-.315 1.5a3.762 3.762 0 0 0 2.078 1.647h-3.485a3.734 3.734 0 0 1-2.034.603h-13.15a3.737 3.737 0 0 0-1.72 3.147c0-1.32-.491 11.694-.491 11.694 0 1.167 20.456 1.692 20.456 1.692.52 0 1.033.108 1.508.318.214-.045.433-.063.651-.054h-.02 3.227a3.74 3.74 0 0 0-1.613 3.076c-.001-.18-.015-.358-.04-.535-.018.04-.038.081-.059.119.065.275.098.556.099.839v9.474a3.75 3.75 0 0 0 3.753 3.746h-5.764a3.735 3.735 0 0 1-1.732.423h-23.541a3.745 3.745 0 0 0-2.034 3.323v9.888c0 .993.395 1.946 1.1 2.648a3.756 3.756 0 0 0 2.653 1.097h36.254c.995 0 1.95-.394 2.654-1.097a3.742 3.742 0 0 0 1.099-2.648c0 .993.395 1.946 1.099 2.648a3.756 3.756 0 0 0 2.654 1.097h36.244c.995 0 1.95-.394 2.653-1.097a3.742 3.742 0 0 0 1.1-2.648V188a3.75 3.75 0 0 0-3.753-3.745h29.307c.996 0 1.95-.395 2.654-1.098a3.742 3.742 0 0 0 1.1-2.648v-9.878a3.742 3.742 0 0 0-1.093-2.658 3.756 3.756 0 0 0-2.657-1.104zm-89.781-67.165a3.74 3.74 0 0 0-1.614 3.075 3.74 3.74 0 0 0-1.614-3.075h3.228zm-4.228 16.536a3.75 3.75 0 0 0 2.614-3.57 3.75 3.75 0 0 0 2.614 3.57h-5.228zm13.168-33.926a3.75 3.75 0 0 0 2.613-3.57 3.75 3.75 0 0 0 2.614 3.57h-5.227zm11.526 105.68c0-.994-.395-1.947-1.1-2.65a3.756 3.756 0 0 0-2.653-1.096h7.51c-.997 0-1.951.397-2.655 1.1a3.742 3.742 0 0 0-1.095 2.652l-.007-.006zm3.977-21.132a3.74 3.74 0 0 0 1.613-3.076 3.74 3.74 0 0 0 1.614 3.076h-3.227zm1.613-12.967a3.75 3.75 0 0 0-2.603-3.566h5.237a3.75 3.75 0 0 0-2.627 3.576l-.007-.01zm-1.613-20.952a3.74 3.74 0 0 0 1.613-3.076 3.74 3.74 0 0 0 1.614 3.076h-3.227zm1.613-12.967a3.75 3.75 0 0 0-2.614-3.57h5.248a3.75 3.75 0 0 0-2.627 3.58l-.007-.01zm-1.613-20.953a3.74 3.74 0 0 0 1.613-3.075 3.74 3.74 0 0 0 1.614 3.075h-3.227zm1.613-12.966a3.75 3.75 0 0 0-2.614-3.57h5.248a3.75 3.75 0 0 0-2.627 3.58l-.007-.01zm25.348 81.482a3.74 3.74 0 0 0-1.613 3.075 3.74 3.74 0 0 0-1.614-3.075h3.227zm-5.37 16.712c.996 0 1.95-.394 2.654-1.097a3.742 3.742 0 0 0 1.1-2.649c0 .994.395 1.947 1.098 2.65a3.756 3.756 0 0 0 2.654 1.096h-7.506zM247.813 188.021zM225.726 112.67c0 .124 0 .247-.018.353.011-.11.018-.23.018-.353zM182.016 113.229zM140.014 135.321a.863.863 0 0 1-.166-.189.888.888 0 0 1-.11-.311 7.25 7.25 0 0 0 0 .771c.118.358.179.731.18 1.107.002-.366.06-.73.174-1.08a1.501 1.501 0 0 1-.082-.26s.004-.024.004-.038z"/>
            <path fill="#4A5974" fill-rule="nonzero" d="M191.387 65.114h-36.244a3.75 3.75 0 0 0-3.753 3.746 3.75 3.75 0 0 0-3.753-3.746h-36.244a3.75 3.75 0 0 0-3.753 3.746v9.888a3.75 3.75 0 0 0 2.61 3.566H82.154c-.996.001-1.95.397-2.654 1.101a3.742 3.742 0 0 0-1.095 2.652v9.887a3.74 3.74 0 0 0 1.613 3.076H54.473a3.75 3.75 0 0 0-3.753 3.746v9.888a3.75 3.75 0 0 0 3.753 3.745H81.01a3.75 3.75 0 0 0-2.607 3.577v9.888a3.74 3.74 0 0 0 1.613 3.075H56.175a3.75 3.75 0 0 0-3.753 3.746v9.888a3.75 3.75 0 0 0 3.753 3.746H81.01a3.75 3.75 0 0 0-2.607 3.576v9.888a3.75 3.75 0 0 0 3.753 3.746h21.578a3.74 3.74 0 0 0-1.614 3.075v9.888a3.75 3.75 0 0 0 3.743 3.75H76.563a3.75 3.75 0 0 0-3.753 3.745v9.888a3.75 3.75 0 0 0 3.753 3.745h36.24a3.75 3.75 0 0 0 3.753-3.745 3.75 3.75 0 0 0 3.753 3.745h36.247a3.75 3.75 0 0 0 3.753-3.745V188a3.745 3.745 0 0 0-2.034-3.322h-7.804a3.735 3.735 0 0 1-1.732-.423h-6.625c.996 0 1.951-.396 2.655-1.099a3.742 3.742 0 0 0 1.098-2.65c0 1.63.851-9.475.851-9.475a3.75 3.75 0 0 1 3.753-3.746l13.815-.423c.392-.273.73-.617.993-1.015a3.716 3.716 0 0 1-.298-1.452v-9.89a3.717 3.717 0 0 1 .62-2.062 3.761 3.761 0 0 0-1.424-1.691h-19.666c-.722 0-1.429-.21-2.034-.603h-5.17a3.75 3.75 0 0 0 2.614-3.57l-.132-9.813c0-.443-.024-.832-.04-1.18a3.753 3.753 0 0 0-1.442-1.97h3.228l-.071.054c1.83-.105 22.737-1.33 24.439-2.707a2.938 2.938 0 0 1-.024-.785 3.749 3.749 0 0 1-.047-.568v-9.87c0-.123 0-.245.017-.363a3.755 3.755 0 0 0-2.563-2.96h4.57a3.735 3.735 0 0 1 1.732-.424h10.364a3.742 3.742 0 0 0 2.034-3.323v-9.89a3.74 3.74 0 0 0-1.614-3.076l-10.774-.677c-1.824 0-3.034-.677-2.071 0h-3.228a3.737 3.737 0 0 0 1.614-3.046 3.756 3.756 0 0 1-.068-.676v-9.908-.024a3.755 3.755 0 0 0-2.546-2.876h3.926a3.733 3.733 0 0 1 2.373-.85h24.175a3.72 3.72 0 0 0 1.38-2.9v-9.883c.001-.997-.396-1.952-1.103-2.656a3.756 3.756 0 0 0-2.663-1.094zm-95.3 34.59a3.74 3.74 0 0 0-1.614 3.075 3.74 3.74 0 0 0-1.614-3.075h3.228zm-1.614 12.966a3.75 3.75 0 0 0 2.614 3.57h-5.228a3.75 3.75 0 0 0 2.61-3.57h.004zm3.312 20.953a3.74 3.74 0 0 0-1.614 3.076 3.74 3.74 0 0 0-1.613-3.076h3.227zm-4.227 16.533a3.75 3.75 0 0 0 2.613-3.57 3.75 3.75 0 0 0 2.614 3.57h-5.227zm46.278-50.452a3.74 3.74 0 0 0-1.613 3.075 3.74 3.74 0 0 0-1.614-3.075h3.227zM116.56 188a3.75 3.75 0 0 0-3.753-3.745h7.509c-.996-.001-1.951.393-2.656 1.096a3.742 3.742 0 0 0-1.1 2.65zm3.976-21.131a3.74 3.74 0 0 0 1.614-3.076 3.74 3.74 0 0 0 1.614 3.076h-3.228zm1.6-12.964a3.75 3.75 0 0 0-2.6-3.576h5.228a3.75 3.75 0 0 0-2.628 3.576zm-1.613-20.952a3.74 3.74 0 0 0 1.613-3.076 3.74 3.74 0 0 0 1.614 3.076h-3.227zm1.613-12.967a3.75 3.75 0 0 0-2.613-3.57h5.227a3.75 3.75 0 0 0-2.614 3.57zm-1.613-20.952a3.74 3.74 0 0 0 1.613-3.076 3.74 3.74 0 0 0 1.614 3.076h-3.227zm1.613-12.967a3.75 3.75 0 0 0-2.613-3.57h5.227a3.75 3.75 0 0 0-2.614 3.57zm13.46 30.17a3.75 3.75 0 0 0 2.613-3.57 3.75 3.75 0 0 0 2.614 3.57h-5.228zm13.18-33.923a3.75 3.75 0 0 0 2.614-3.57 3.75 3.75 0 0 0 2.614 3.57h-5.228zM183.206 100.01l.057-.05-.057.05zM182.961 100.248l-.056.064.056-.064zM182.643 100.65l.029-.04-.029.04zM182.142 113.75zM182.535 114.64zM182.311 114.217z"/>
            <path fill="#4A5974" fill-rule="nonzero" d="M182.077 101.93c0-.05.025-.096.036-.142a1.65 1.65 0 0 0-.036.141zM182.203 101.505c0-.039.028-.077.042-.116l-.042.116zM182 102.352c0-.046 0-.092.02-.134l-.02.134z"/>
            <path fill="#000" fill-rule="nonzero" d="M143.122 82.5h-26.367a8.691 8.691 0 1 1 0-17.383h26.367c4.8 0 8.692 3.892 8.692 8.692 0 4.8-3.892 8.691-8.692 8.691zM273.951 82.5h-26.367a8.691 8.691 0 0 1 0-17.383h26.367c4.8 0 8.691 3.892 8.691 8.692 0 4.8-3.89 8.691-8.691 8.691zM332.146 99.46H305.78a8.691 8.691 0 1 1 0-17.383h26.367c4.8 0 8.691 3.892 8.691 8.692 0 4.8-3.89 8.691-8.69 8.691zM260.78 116.416h-26.367a8.691 8.691 0 1 1 0-17.383h26.367c4.8 0 8.692 3.892 8.692 8.692 0 4.8-3.892 8.691-8.692 8.691zM332.146 133.799H305.78a8.691 8.691 0 1 1 0-17.383h26.367a8.691 8.691 0 0 1 0 17.383zM332.146 167.718H305.78a8.691 8.691 0 1 1 0-17.383h26.367c4.8 0 8.691 3.892 8.691 8.692 0 4.8-3.89 8.691-8.69 8.691z" opacity=".1"/>
            <path fill="#000" fill-rule="nonzero" d="M318.14 167.295h-38.284c-1.215 0-2.284.8-2.624 1.963.01.154 0 .308-.03.46a1.93 1.93 0 0 1-.079.26V181.95a2.73 2.73 0 0 0 2.733 2.728h38.284a2.73 2.73 0 0 0 2.733-2.728v-11.928a2.73 2.73 0 0 0-2.733-2.727z" opacity=".1"/>
            <path fill="#000" fill-rule="nonzero" d="M282.87 201.637h-26.367a8.691 8.691 0 1 1 0-17.383h26.367c4.8 0 8.692 3.892 8.692 8.692 0 4.8-3.891 8.691-8.692 8.691zM157.137 99.46H130.77a8.691 8.691 0 1 1 0-17.383h26.367c4.8 0 8.691 3.892 8.691 8.692 0 4.8-3.89 8.691-8.69 8.691z" opacity=".1"/>
            <path fill="#000" fill-rule="nonzero" d="M129.952 116.416h-26.367a8.691 8.691 0 0 1 0-17.383h26.367c4.8 0 8.69 3.892 8.69 8.692 0 4.8-3.89 8.691-8.69 8.691zM113.387 133.799H87.02a8.691 8.691 0 1 1 0-17.383h26.367a8.691 8.691 0 0 1 0 17.383z" opacity=".1"/>
            <path fill="#000" fill-rule="nonzero" d="M131.226 150.758H104.86a8.691 8.691 0 0 1 0-17.383h26.367c4.8 0 8.692 3.892 8.692 8.692 0 4.8-3.892 8.691-8.692 8.691z" opacity=".1"/>
            <path fill="#000" fill-rule="nonzero" d="M113.387 167.718H87.02a8.691 8.691 0 1 1 0-17.383h26.367c4.8 0 8.692 3.892 8.692 8.692 0 4.8-3.891 8.691-8.692 8.691z" opacity=".1"/>
            <path fill="#4A5974" fill-rule="nonzero" d="M93.596 184.694H67.229a8.691 8.691 0 1 1 0-17.383h26.367c4.8 0 8.691 3.892 8.691 8.692 0 4.8-3.891 8.691-8.691 8.691zM349.046 150.741h-26.367a8.691 8.691 0 0 1 0-17.383h26.367c4.8 0 8.691 3.892 8.691 8.692 0 4.8-3.891 8.691-8.691 8.691zM347.191 116.477h-26.367a8.691 8.691 0 1 1 0-17.383h26.367c4.8 0 8.692 3.892 8.692 8.692 0 4.8-3.891 8.691-8.692 8.691zM369.15 201.366h-26.368a8.691 8.691 0 0 1 0-17.383h26.367c4.8 0 8.692 3.892 8.692 8.692 0 4.8-3.892 8.691-8.692 8.691z"/>
            <path fill="#4A5974" fill-rule="nonzero" d="M64.217 201.674H37.85a8.691 8.691 0 1 1 0-17.383h26.367c4.8 0 8.691 3.892 8.691 8.692 0 4.8-3.891 8.691-8.691 8.691zM70.089 167.407H43.722a8.691 8.691 0 1 1 0-17.383h26.367a8.691 8.691 0 0 1 0 17.383zM70.089 133.762H43.722a8.691 8.691 0 0 1 0-17.383h26.367a8.691 8.691 0 0 1 0 17.383zM71.638 99.497H45.271a8.691 8.691 0 0 1 0-17.383h26.367c4.8 0 8.691 3.892 8.691 8.692 0 4.8-3.891 8.691-8.691 8.691z"/>
            <path fill="#000" fill-rule="nonzero" d="M71.638 99.497H45.271a8.691 8.691 0 0 1 0-17.383h26.367c4.8 0 8.691 3.892 8.691 8.692 0 4.8-3.891 8.691-8.691 8.691z" opacity=".1"/>
            <path fill="#4A5974" fill-rule="nonzero" d="M99.471 82.52H73.104a8.691 8.691 0 1 1 0-17.383l26.367.001a8.691 8.691 0 0 1 0 17.383z"/>
            <path fill="#000" fill-rule="nonzero" d="M137.6 184.674h-26.367a8.691 8.691 0 1 1 0-17.383H137.6c4.8 0 8.691 3.892 8.691 8.692 0 4.8-3.891 8.691-8.691 8.691z" opacity=".1"/>
            <path fill="#000" fill-rule="nonzero" d="M107.868 201.637H81.501a8.691 8.691 0 1 1 0-17.383h26.367c4.8 0 8.692 3.892 8.692 8.692 0 4.8-3.892 8.691-8.692 8.691z" opacity=".1"/>
        </g>
        <circle cx="304.733" cy="35" r="9.8" fill="#4A5974" fill-rule="nonzero" opacity=".5"/>
        <path fill="#DEE3F3" fill-rule="nonzero" d="M114.2 52.89h-2.313c.866-.042 1.547-.796 1.547-1.711s-.681-1.669-1.547-1.71H93.152a1.6 1.6 0 0 0-1.465.831 1.796 1.796 0 0 0 0 1.758 1.6 1.6 0 0 0 1.465.831h2.313c-.865.042-1.547.796-1.547 1.711s.682 1.669 1.547 1.71h-3.237a1.6 1.6 0 0 0-1.465.832 1.796 1.796 0 0 0 0 1.758 1.6 1.6 0 0 0 1.465.832h18.721c.866-.042 1.547-.796 1.547-1.711s-.681-1.669-1.547-1.71h3.238c.865-.042 1.546-.796 1.546-1.711s-.68-1.669-1.546-1.71h.013zM302.934 34.222h-1.799a1.252 1.252 0 0 0 1.194-1.245c0-.662-.525-1.21-1.194-1.244h-14.56a1.252 1.252 0 0 0-1.194 1.244c0 .663.525 1.21 1.194 1.245h1.802a1.264 1.264 0 0 0-1.145.602c-.24.395-.24.889 0 1.283.24.395.68.627 1.145.603h-2.516a1.252 1.252 0 0 0-1.194 1.244c0 .663.524 1.21 1.194 1.244h14.563c.466.024.906-.207 1.146-.602.24-.395.24-.889 0-1.283a1.264 1.264 0 0 0-1.146-.603h2.517c.465.024.906-.208 1.146-.603.24-.394.24-.888 0-1.283a1.264 1.264 0 0 0-1.146-.602h-.007zM160.867 30.49h-2.313a1.6 1.6 0 0 0 1.465-.832 1.796 1.796 0 0 0 0-1.758 1.6 1.6 0 0 0-1.465-.832h-18.735a1.6 1.6 0 0 0-1.465.832 1.796 1.796 0 0 0 0 1.758 1.6 1.6 0 0 0 1.465.831h2.313c-.866.042-1.547.796-1.547 1.711s.681 1.669 1.547 1.71h-3.238a1.6 1.6 0 0 0-1.464.832 1.796 1.796 0 0 0 0 1.758 1.6 1.6 0 0 0 1.464.832h18.722c.865-.042 1.547-.796 1.547-1.711s-.682-1.669-1.547-1.71h3.237c.866-.042 1.547-.796 1.547-1.711s-.681-1.669-1.547-1.71h.014z" opacity=".5"/>
        <path fill="url(#a)" fill-rule="nonzero" d="M217.234 206.553h6.414v-4.02h-52.496v4.02h6.414v4.023h-10.5v5.024h60.667v-5.024h-10.499z"/>
        <path fill="url(#b)" fill-rule="nonzero" d="M260.466 211.38c.465-6.312.3-11.744-.341-16.423-.728-5.385-2.077-9.765-3.787-13.328-3.415-7.125-8.281-10.99-12.553-13.09a23.734 23.734 0 0 0-9.186-2.49 4.117 4.117 0 0 0-4.075-3.52 4.117 4.117 0 0 0-4.09 3.502v-10.539h-22.422v-5.863h30.215c1.886 0 3.414-1.519 3.414-3.393v-30.73c0-1.875-1.528-3.394-3.414-3.394h-11.47V81.819a4.572 4.572 0 0 0 2.707-4.167v-.136-.135c0-2.53-2.064-4.581-4.61-4.581-2.546 0-4.61 2.05-4.61 4.58v.272a4.57 4.57 0 0 0 2.438 4.038v30.419h-42.521v-30.42a4.57 4.57 0 0 0 2.438-4.037v-.136-.135c0-2.53-2.064-4.581-4.61-4.581-2.546 0-4.61 2.05-4.61 4.58v.272a4.572 4.572 0 0 0 2.708 4.167v30.286H159.64c-1.886 0-3.415 1.52-3.415 3.393v30.728c0 1.874 1.53 3.393 3.415 3.393h30.214v5.863h-22.421v8.639a4.09 4.09 0 0 0-.892-1.476l-.099-.098a4.148 4.148 0 0 0-4.5-.89 4.102 4.102 0 0 0-2.548 3.79v.588s-4.241 0-9.312 2.493c-4.272 2.1-9.135 5.965-12.553 13.09-1.707 3.564-3.073 7.947-3.787 13.329-.635 4.676-.802 10.111-.341 16.422-9.47 7.804 2.39 19.158 2.39 19.158 9.715 0 9.5-16.026 9.39-18.76h.048s-.027-.136-.068-.388a59.645 59.645 0 0 1-.584-13.538c.27-3.45.936-7.102 2.302-10.386a18.437 18.437 0 0 1 4.671-6.803 16.007 16.007 0 0 1 7.854-3.756v2.636a4.11 4.11 0 0 0 3.452 4.047 4.131 4.131 0 0 0 4.584-2.72V202.4h58.984V181.3c.12.817.485 1.578 1.048 2.185l.113.119a4.148 4.148 0 0 0 4.519.901 4.102 4.102 0 0 0 2.543-3.82v-3.759a15.96 15.96 0 0 1 7.67 3.733 18.437 18.437 0 0 1 4.67 6.803c1.367 3.288 2.03 6.935 2.302 10.386.32 4.52.125 9.062-.584 13.538-.04.251-.068.387-.068.387h.048c-.11 2.735-.324 18.76 9.39 18.76 0 .004 11.86-11.343 2.391-19.154z"/>
        <path fill="url(#a)" fill-rule="nonzero" d="M169.178 219.852V225h7.063v34.001H168v7.931h22.36v-7.93h-3.528V225h8.235v-5.668h-25.889zM197.867 219.852V225h10.31v34.001h-8.02v7.931h21.766v-7.93h-3.438V225h4.582v-5.668h-25.2z"/>
        <path fill="#4A5974" fill-rule="nonzero" d="M168.837 114.8h53.393c7.163 0 12.97 5.807 12.97 12.97v11.393c0 7.163-5.807 12.97-12.97 12.97h-53.393c-7.163 0-12.97-5.807-12.97-12.97V127.77c0-7.163 5.807-12.97 12.97-12.97z"/>
        <path fill="#000" fill-rule="nonzero" d="M165.2 145.6h67.2v.933h-67.2z" opacity=".1"/>
        <path fill="#000" fill-rule="nonzero" d="M165.2 122.267h67.2v25.2h-67.2z" opacity=".3"/>
        <circle cx="178.733" cy="133.933" r="8.867" fill="#000" fill-rule="nonzero" opacity=".1"/>
        <circle cx="178.733" cy="132.067" r="8.867" fill="#DEE3F3" fill-rule="nonzero"/>
        <circle cx="214.2" cy="133.933" r="8.867" fill="#000" fill-rule="nonzero" opacity=".1"/>
        <circle cx="214.2" cy="132.067" r="8.867" fill="#DEE3F3" fill-rule="nonzero"/>
        <path fill="#4A5974" fill-rule="nonzero" d="M189.467 152.133h13.066v9.334h-13.066z"/>
        <path fill="#4A5974" fill-rule="nonzero" d="M168 156.8h57.867v44.8H168zM221.2 202.533v5.134h-6.162v5.133h-38.082v-5.133H170.8v-5.134z"/>
        <path fill="#000" fill-rule="nonzero" d="M221.2 202.533v5.134h-6.162v5.133h-38.082v-5.133H170.8v-5.134z" opacity=".3"/>
        <path fill="#4A5974" fill-rule="nonzero" d="M167.067 211.867H226.8v5.6h-59.733zM169.867 217.467h25.2v5.6h-25.2zM197.867 217.467h25.2v5.6h-25.2zM168 257.6h22.4v9.333H168zM177.333 231.125V257.6H187.6v-34.533h-10.267zM207.2 223.067V257.6h10.267v-34.533zM200.667 257.6h22.4v9.333h-22.4zM168.933 164.32V177.592c-.205 2.019-2.337 3.55-4.837 3.472-2.5-.078-4.482-1.736-4.496-3.762V164.32c-.001-1.531 1.137-2.912 2.883-3.498 1.746-.587 3.756-.262 5.092.821l.111.093c.725.628 1.164 1.437 1.243 2.294-.004.094.004.193.004.29zM235.2 166.181v12.965c.005 1.532-1.132 2.914-2.878 3.5-1.746.586-3.756.26-5.088-.827l-.127-.11c-.8-.698-1.243-1.616-1.24-2.57v-12.958c0-2.088 2.088-3.781 4.664-3.781 2.577 0 4.665 1.693 4.665 3.781h.004z"/>
        <path fill="#4A5974" fill-rule="nonzero" d="M160.533 168v10.179a15.507 15.507 0 0 0-7.526 3.518 17.297 17.297 0 0 0-4.49 6.395c-1.31 3.083-1.946 6.51-2.205 9.75a54.195 54.195 0 0 0 .626 13.091H135.62c-.481-6.084-.336-11.3.297-15.785.7-5.053 1.993-9.164 3.633-12.509 3.28-6.686 7.948-10.316 12.047-12.286 4.87-2.353 8.937-2.353 8.937-2.353z"/>
        <path fill="#4A5974" fill-rule="nonzero" d="M135.782 227.733s-10.015-10.501-2.019-17.733h9.932s1.055 17.733-7.913 17.733z"/>
        <path fill="#000" fill-rule="nonzero" d="M135.782 227.733s-10.015-10.501-2.019-17.733h9.932s1.055 17.733-7.913 17.733zM177.333 162.4h40.134v29.867h-40.134zM177.333 223.067H187.6v9.333h-10.267zM177.333 238H187.6v10.267h-10.267zM177.333 252.933H187.6v2.8h-10.267zM207.2 223.067h10.267v9.333H207.2zM207.2 238h10.267v10.267H207.2zM207.2 252.933h10.267v2.8H207.2zM160.533 168v9.71c-3.212.451-6.207 1.613-8.649 3.357l-1.617-10.844C155.859 168 160.533 168 160.533 168zM150.267 187.364c-1.358 3.026-2.018 6.39-2.287 9.57l-10.78-2.657c.726-4.96 2.067-8.994 3.767-12.277l9.3 5.364z" opacity=".3"/>
        <path fill="#4A5974" fill-rule="nonzero" d="M232.4 168v10.18c2.8.471 5.41 1.69 7.537 3.52a17.301 17.301 0 0 1 4.48 6.387c1.31 3.084 1.946 6.511 2.206 9.752a54.241 54.241 0 0 1-.626 13.094h11.317c.481-6.085.337-11.303-.296-15.788-.7-5.055-1.993-9.166-3.632-12.512-3.28-6.688-7.945-10.318-12.042-12.29C236.467 168 232.4 168 232.4 168z"/>
        <path fill="#4A5974" fill-rule="nonzero" d="M255.286 227.733s10.012-10.501 2.018-17.733h-9.933s-1.052 17.733 7.915 17.733z"/>
        <path fill="#000" fill-rule="nonzero" d="M255.286 227.733s10.012-10.501 2.018-17.733h-9.933s-1.052 17.733 7.915 17.733zM232.4 168v9.71c3.213.449 6.209 1.611 8.652 3.357l1.615-10.844C237.067 168 232.4 168 232.4 168zM245.467 187.364c1.358 3.026 2.017 6.39 2.286 9.57l10.78-2.657c-.726-4.96-2.066-8.994-3.766-12.277l-9.3 5.364z" opacity=".3"/>
        <path fill="#000" fill-rule="nonzero" d="M189.467 152.133h13.066V154h-13.066zM227.733 165.2v17.733c-1.203-.685-1.87-1.585-1.866-2.52V167.71c0-.931.666-1.828 1.866-2.51zM169.867 166.508v13.25c-.12.838-.778 1.629-1.867 2.242v-17.733c1.089.613 1.747 1.404 1.867 2.241zM170.8 202.533h50.4v.934h-50.4zM169.867 217.467h25.2v.933h-25.2zM197.867 217.467h25.2v.933h-25.2z" opacity=".1"/>
        <path fill="#4A5974" fill-rule="nonzero" d="M172.667 80.267h4.666V114.8h-4.666zM218.4 80.267h4.667V114.8H218.4z"/>
        <circle cx="175" cy="82.6" r="5.133" fill="#000" fill-rule="nonzero" opacity=".1"/>
        <circle cx="175" cy="82.6" r="5.133" fill="#4A5974" fill-rule="nonzero"/>
        <circle cx="220.733" cy="82.6" r="5.133" fill="#000" fill-rule="nonzero" opacity=".1"/>
        <circle cx="220.733" cy="82.6" r="5.133" fill="#4A5974" fill-rule="nonzero"/>
        <path stroke="#FC6681" stroke-width="2" d="M79.7 182.933s14.064 25.776 2.604 39.878 1.04 52.522 1.04 52.522"/>
        <path fill="#FC6681" fill-rule="nonzero" d="M84.933 176.865c0 4.892-3.72 8.868-3.72 8.868s-3.746-3.976-3.746-8.868S81.212 168 81.212 168s3.721 3.986 3.721 8.865z"/>
        <path stroke="#FFD037" stroke-width="2" d="M87.367 182.933s-14.065 25.776-2.604 39.878c11.46 14.102-1.04 52.522-1.04 52.522"/>
        <path fill="#FFD037" fill-rule="nonzero" d="M83.067 176.867c0 4.896 3.733 8.866 3.733 8.866s3.733-3.97 3.733-8.866c0-4.897-3.733-8.867-3.733-8.867s-3.733 3.987-3.733 8.867z"/>
        <path stroke="#FC6681" stroke-width="2" d="M92.766 182.933s14.065 25.776 2.604 39.878c-11.46 14.102 1.04 52.522 1.04 52.522"/>
        <path fill="#FC6681" fill-rule="nonzero" d="M97.067 176.867c0 4.896-3.735 8.866-3.735 8.866s-3.732-3.973-3.732-8.866c0-4.894 3.735-8.867 3.735-8.867s3.732 3.987 3.732 8.867zM95.154 196.68c-3.606 3.608-9.287 3.987-9.287 3.987s.172-5.47 3.779-9.081c3.606-3.61 9.287-3.986 9.287-3.986s-.172 5.474-3.779 9.08zM95.154 214.414c-3.606 3.607-9.287 3.986-9.287 3.986s.172-5.47 3.779-9.08c3.606-3.611 9.287-3.987 9.287-3.987s-.172 5.474-3.779 9.081zM76.1 223.566c3.352 3.618 3.233 8.834 3.233 8.834s-5.551-.625-8.9-4.233c-3.349-3.608-3.233-8.834-3.233-8.834s5.548.625 8.9 4.233zM76.429 184.995c3.611 2.763 4.771 8.091 4.771 8.091s-4.685.822-8.296-1.948c-3.61-2.77-4.77-8.09-4.77-8.09s4.68-.823 8.295 1.947z"/>
        <path stroke="#FFD037" stroke-width="2" d="M99.5 182.933s-14.064 25.776-2.604 39.878-1.04 52.522-1.04 52.522"/>
        <path fill="#FFD037" fill-rule="nonzero" d="M95.2 176.865c0 4.892 3.73 8.868 3.73 8.868s3.737-3.969 3.737-8.865c0-4.895-3.737-8.868-3.737-8.868s-3.73 3.986-3.73 8.865zM96.245 197.122c-3.608 3.608-3.845 9.145-3.845 9.145s5.614-.314 9.222-3.922c3.608-3.609 3.845-9.145 3.845-9.145s-5.614.314-9.222 3.922zM103.712 221.389c-3.608 3.608-3.845 9.144-3.845 9.144s5.613-.313 9.221-3.922c3.608-3.608 3.845-9.144 3.845-9.144s-5.613.313-9.221 3.922z"/>
        <path stroke="#FFD037" stroke-width="2" d="M93.333 215.6s8.156-12.793 19.6-13.067"/>
        <path stroke="#FC6681" stroke-width="2" d="M87.733 210s-8.158-12.807-19.6-13.067"/>
        <path stroke="#FFD037" stroke-width="2" d="M85.867 225.867s8.156-12.793 19.6-13.067"/>
        <circle cx="112.467" cy="203" r="2.333" fill="#FFD037" fill-rule="nonzero"/>
        <circle cx="69.533" cy="195.533" r="2.333" fill="#FC6681" fill-rule="nonzero"/>
        <path stroke="#FC6681" stroke-width="2" d="M92.4 230.533s-8.158-12.806-19.6-13.066"/>
        <circle cx="74.2" cy="217.933" r="2.333" fill="#FC6681" fill-rule="nonzero"/>
        <circle cx="105" cy="214.2" r="2.333" fill="#FFD037" fill-rule="nonzero"/>
        <path fill="#A8A8A8" fill-rule="nonzero" d="M135.333 260.204s-19.017-3.76-24.09-8.776c-5.073-5.015-27.894-13.787-30.43-7.52-2.537 6.268-34.23 27.576-12.677 31.346 21.553 3.77 50.714 5.012 57.054 2.507 6.34-2.504 10.143-17.557 10.143-17.557z"/>
        <path fill="#000" fill-rule="nonzero" d="M68.13 274.26c21.555 3.512 50.718 4.681 57.059 2.342 4.828-1.784 8.195-10.348 9.51-14.335l.634.123s-3.803 14.045-10.144 16.39c-6.34 2.346-35.51 1.17-57.059-2.341-6.221-1.015-8-3.395-7.33-6.409.522 1.964 2.7 3.477 7.33 4.23z" opacity=".2"/>
        <path fill="#FC6681" fill-rule="nonzero" d="M339.935 187.6s4.486 5.987-2.07 15.031c-6.554 9.045-11.956 16.675-9.772 22.302 0 0 9.887-16.791 17.937-17.025 8.05-.233 2.762-10.21-6.095-20.308z"/>
        <path fill="#000" fill-rule="nonzero" d="M339.806 187.6c.395.578.708 1.21.927 1.877 7.944 9.42 12.179 18.213 4.541 18.433-7.114.206-15.635 13.037-17.674 16.286.067.25.147.496.241.737 0 0 10.003-16.79 18.147-17.023 8.144-.233 2.777-10.213-6.182-20.31z" opacity=".1"/>
        <path fill="#FFD037" fill-rule="nonzero" d="M349.067 194.662c0 2.285-.419 4.138-.934 4.138-.515 0-.933-1.86-.933-4.138 0-2.277.521-1.21 1.036-1.21.516 0 .83-1.075.83 1.21z"/>
        <path fill="#FFD037" fill-rule="nonzero" d="M350.762 198.338c-1.824.986-3.417 1.583-3.553 1.342-.135-.242 1.232-1.255 3.046-2.241 1.814-.987 1.106-.269 1.242-.017.135.251 1.09-.07-.735.916z"/>
        <path fill="#FC6681" fill-rule="nonzero" d="M316.198 187.6s-4.485 5.987 2.07 15.031c6.554 9.045 11.956 16.675 9.773 22.302 0 0-9.888-16.791-17.938-17.025-8.05-.233-2.761-10.21 6.095-20.308z"/>
        <path fill="#000" fill-rule="nonzero" d="M316.328 187.6a7.445 7.445 0 0 0-.928 1.877c-7.943 9.42-12.178 18.213-4.541 18.433 7.114.206 15.635 13.037 17.674 16.286-.066.25-.147.496-.241.737 0 0-10.003-16.79-18.147-17.023-8.144-.233-2.777-10.213 6.183-20.31z" opacity=".1"/>
        <path fill="#FFD037" fill-rule="nonzero" d="M306.133 194.662c0 2.285.419 4.138.934 4.138.515 0 .933-1.86.933-4.138 0-2.277-.521-1.21-1.036-1.21-.516 0-.83-1.075-.83 1.21zM303.504 198.338c1.824.986 3.418 1.583 3.553 1.342.136-.242-1.231-1.255-3.045-2.241-1.814-.987-1.107-.269-1.242-.017-.136.251-1.09-.07.734.916z"/>
        <path fill="#A8A8A8" fill-rule="nonzero" d="M309.867 224.407s12.794-.395 16.647-3.152c3.853-2.757 19.677-6.047 20.634-1.628.956 4.42 19.225 21.985 4.782 22.102-14.443.117-33.558-2.258-37.408-4.612-3.85-2.354-4.655-12.71-4.655-12.71z"/>
        <path fill="#000" fill-rule="nonzero" d="M352.191 242.12c-14.443.114-33.558-2.188-37.408-4.47-2.931-1.74-4.114-7.973-4.488-10.85h-.428s.809 10.045 4.659 12.324c3.85 2.28 22.968 4.585 37.408 4.472 4.169-.033 5.608-1.475 5.53-3.614-.58 1.308-2.17 2.112-5.273 2.139z" opacity=".2"/>
    </g>
</svg>
