<svg width="154" height="32" viewBox="0 0 154 32" fill="none" xmlns="http://www.w3.org/2000/svg">
    <g clip-path="url(#clip0_13817_577003)">
        <path d="M24.4038 25.9454L17.3301 21.8601V30.0264L24.4038 25.9454Z" fill="#443D4E"/>
        <path d="M24.4038 6.05892L17.3301 1.97363V10.1399L24.4038 6.05892Z" fill="#00A971"/>
        <path d="M7.18165 16L13.8408 12.1565V0L0 7.9892V24.0108L13.8408 32V19.8435L7.18165 16Z" fill="#00A971"/>
        <path d="M13.8882 15.9999L27.7073 23.9805V8.02368L13.8882 15.9999Z" fill="#00A971"/>
        <path d="M116.66 1.31274H115.248C114.941 1.31274 114.682 1.56753 114.682 1.87847V8.45121H110.139V1.87847C110.139 1.57185 109.91 1.31274 109.573 1.31274H108.161C107.854 1.31274 107.595 1.56753 107.595 1.87847V17.6453C107.595 17.9519 107.85 18.211 108.161 18.211H109.573C109.906 18.211 110.139 17.9562 110.139 17.6453V10.9948H114.682V17.6453C114.682 17.9519 114.937 18.211 115.248 18.211H116.66C116.992 18.211 117.225 17.9562 117.225 17.6453V1.87847C117.225 1.57185 116.997 1.31274 116.66 1.31274Z" fill="#443D4E"/>
        <path d="M82.6083 16.2331C82.6083 15.9265 82.3535 15.6674 82.0426 15.6674H75.6642V11.0337H82.0426C82.3492 11.0337 82.6083 10.8005 82.6083 10.4679V9.05579C82.6083 8.74918 82.3535 8.49007 82.0426 8.49007H75.6642V3.85633H82.0383C82.3449 3.85633 82.604 3.62314 82.604 3.29061V1.87847C82.604 1.57185 82.3492 1.31274 82.0383 1.31274H75.0985H73.6863C73.3797 1.31274 73.1206 1.56753 73.1206 1.87847V17.6453C73.1206 17.9519 73.3754 18.211 73.6863 18.211H74.2996H82.0383C82.3449 18.211 82.604 17.9778 82.604 17.6453V16.2331H82.6083Z" fill="#443D4E"/>
        <path d="M129.321 16.2331C129.321 15.9265 129.067 15.6674 128.756 15.6674H122.377V11.0337H128.756C129.062 11.0337 129.321 10.8005 129.321 10.4679V9.05579C129.321 8.74918 129.067 8.49007 128.756 8.49007H122.377V3.85633H128.751C129.058 3.85633 129.317 3.62314 129.317 3.29061V1.87847C129.317 1.57185 129.062 1.31274 128.751 1.31274H121.812H120.399C120.093 1.31274 119.834 1.56753 119.834 1.87847V17.6453C119.834 17.9519 120.089 18.211 120.399 18.211H121.013H128.751C129.058 18.211 129.317 17.9778 129.317 17.6453V16.2331H129.321Z" fill="#443D4E"/>
        <path d="M153.388 16.2331C153.388 15.9265 153.134 15.6674 152.823 15.6674H146.444V11.0337H152.823C153.129 11.0337 153.388 10.8005 153.388 10.4679V9.05579C153.388 8.74918 153.134 8.49007 152.823 8.49007H146.444V3.85633H152.818C153.125 3.85633 153.384 3.62314 153.384 3.29061V1.87847C153.384 1.57185 153.129 1.31274 152.818 1.31274H145.878H144.466C144.16 1.31274 143.901 1.56753 143.901 1.87847V17.6453C143.901 17.9519 144.155 18.211 144.466 18.211H145.08H152.818C153.125 18.211 153.384 17.9778 153.384 17.6453V16.2331H153.388Z" fill="#443D4E"/>
        <path d="M87.2248 5.56224V6.52526C87.2248 7.2594 87.9373 7.69125 88.7492 8.02378L92.1263 9.44456C93.3959 10.0016 94.2812 10.9906 94.2812 12.515V14.3158C94.2812 15.8143 91.133 18.3277 89.4575 18.3277C88.3174 18.3277 86.59 17.5158 85.2469 16.7817C84.9403 16.6305 84.7374 16.2721 84.9187 15.8662L85.3506 15.0025C85.5276 14.6483 85.9077 14.5706 86.2402 14.7477C87.3328 15.3047 88.7795 15.9914 89.4618 15.9914C90.2218 15.9914 91.824 14.6958 91.824 13.9617V12.8432C91.824 11.9795 91.1633 11.5002 90.2521 11.1417L87.1039 9.82027C85.8861 9.31068 84.7676 8.26993 84.7676 6.84915V5.19948C84.7676 3.54982 88.0928 1.16602 89.6907 1.16602C90.7573 1.16602 92.4804 1.95198 93.6248 2.56089C93.9789 2.73795 94.0826 3.14388 93.9271 3.4505L93.5212 4.31419C93.3959 4.61649 92.99 4.72013 92.6315 4.56898C91.7679 4.16305 90.3212 3.50232 89.6863 3.50232C88.9522 3.50232 87.2248 4.72013 87.2248 5.55792V5.56224Z" fill="#443D4E"/>
        <path d="M136.68 11.3791H134.292V17.6453C134.292 17.9778 134.059 18.211 133.701 18.211H132.34C132.034 18.211 131.749 17.9821 131.749 17.6453V2.49601C131.749 1.90438 132.444 1.31274 133.005 1.31274H137.112C138.986 1.31274 141.474 4.23636 141.474 6.16241C141.474 7.445 140.347 9.37536 139.142 10.1225C140.118 10.6364 141.452 11.9967 141.452 13.2534V17.6453C141.452 17.9519 141.197 18.211 140.886 18.211H139.474C139.168 18.211 138.909 17.9562 138.909 17.6453V13.6377C138.909 12.7395 137.652 11.3791 136.676 11.3791H136.68ZM136.784 3.52381H134.292V9.17239H136.81C137.864 9.17239 139.094 7.29817 139.094 6.29628C139.094 5.29439 137.812 3.52381 136.784 3.52381Z" fill="#443D4E"/>
        <path d="M101.191 11.3791H98.8029V17.6453C98.8029 17.9778 98.5697 18.211 98.2112 18.211H96.8509C96.5443 18.211 96.2593 17.9821 96.2593 17.6453V2.49601C96.2593 1.90438 96.9546 1.31274 97.516 1.31274H101.623C103.497 1.31274 105.868 4.32705 105.868 6.25309C105.868 7.53569 104.918 9.26308 103.817 10.265C103.277 10.7573 102.417 11.3791 101.182 11.3791H101.191ZM101.295 3.52381H98.8029V9.17239H101.321C102.374 9.17239 103.458 7.29817 103.458 6.29628C103.458 5.29439 102.322 3.52381 101.295 3.52381Z" fill="#443D4E"/>
        <path d="M53.8818 18.3579C52.1933 18.3579 49.0278 16.2202 49.0278 14.3719V1.98646C49.0278 1.67985 49.3085 1.42506 49.6195 1.42506H50.9755C51.308 1.42506 51.5628 1.67985 51.5628 1.98646V14.0437C51.5628 14.9419 53.0915 16.0302 53.8861 16.0302C54.6807 16.0302 56.2181 14.8037 56.2181 13.9055V1.84827C56.2181 1.54166 56.447 1.28687 56.7579 1.28687H58.1614C58.4724 1.28687 58.7531 1.54166 58.7531 1.84827V14.2337C58.7531 16.0259 55.5747 18.3579 53.8861 18.3579H53.8818Z" fill="#443D4E"/>
        <path d="M68.5993 9.47901C69.7696 8.71031 70.9485 7.2118 70.9485 5.96807C70.9485 4.04203 68.3272 1.31274 66.453 1.31274H62.4325C61.8667 1.31274 61.1758 1.90438 61.1758 2.49601V17.6453C61.1758 17.9778 61.4565 18.211 61.7674 18.211H66.5437C68.4179 18.211 70.9485 15.0585 70.9485 13.1324C70.9485 11.8887 69.7696 10.2607 68.5993 9.48332V9.47901ZM63.715 3.52381H66.1204C67.1483 3.52381 68.4308 4.99641 68.4308 5.97239C68.4308 6.94837 67.2001 8.61099 66.1464 8.61099H63.715V3.52381ZM66.1204 16.0042H63.715V10.3557H66.1464C67.2001 10.3557 68.4308 12.1306 68.4308 13.1324C68.4308 14.1343 67.1483 16.0042 66.1204 16.0042Z" fill="#443D4E"/>
        <path d="M41.1769 9.85471L46.7693 3.3813C46.9723 3.1481 46.9636 2.80262 46.7088 2.5867L45.6422 1.66254C45.409 1.45957 45.0462 1.48548 44.8433 1.71868L39.9547 7.38022V1.87847C39.9547 1.57185 39.7258 1.31274 39.389 1.31274H37.9769C37.6702 1.31274 37.4111 1.56753 37.4111 1.87847V17.6453C37.4111 17.9519 37.6659 18.211 37.9769 18.211H39.389C39.7215 18.211 39.9547 17.9562 39.9547 17.6453V12.3292L44.8433 17.9907C45.0462 18.2239 45.4047 18.2499 45.6422 18.0469L46.7088 17.1227C46.9636 16.9025 46.968 16.5613 46.7693 16.3281L41.1769 9.85471Z" fill="#443D4E"/>
        <path d="M37.6011 30.2251V22.8923H42.4032V23.7042H38.5123V26.0664H42.3255V26.8783H38.5123V29.4046H42.4032V30.2165H37.6011V30.2251Z" fill="#85818C"/>
        <path d="M55.1946 30.2251L50.9193 24.3779V30.2251H50.0081V22.8923H50.9408L55.16 28.6186V22.8923H56.0712V30.2251H55.1902H55.1946Z" fill="#85818C"/>
        <path d="M65.7534 30.225V23.7084H63.4343V22.8965H68.9965V23.7084H66.6646V30.225H65.7534Z" fill="#85818C"/>
        <path d="M76.3552 30.2251V22.8923H81.1574V23.7042H77.2664V26.0664H81.0797V26.8783H77.2664V29.4046H81.1574V30.2165H76.3552V30.2251Z" fill="#85818C"/>
        <path d="M93.0074 30.2251L91.1504 27.3145H89.6778V30.2251H88.7666V22.8923H91.7118C93.0505 22.8923 94.0179 23.7517 94.0179 25.1034C94.0179 26.4551 93.1067 27.146 92.1048 27.2367L94.0827 30.2251H93.0074ZM93.0721 25.1034C93.0721 24.2656 92.4675 23.7085 91.5995 23.7085H89.6778V26.5112H91.5995C92.4675 26.5112 93.0721 25.9282 93.0721 25.1034Z" fill="#85818C"/>
        <path d="M101.61 30.2251V22.8923H104.555C106.027 22.8923 106.852 23.9029 106.852 25.1034C106.852 26.3039 106.019 27.3145 104.555 27.3145H102.521V30.2251H101.61ZM105.907 25.1034C105.907 24.2786 105.315 23.7085 104.443 23.7085H102.521V26.4983H104.443C105.311 26.4983 105.907 25.9282 105.907 25.1034Z" fill="#85818C"/>
        <path d="M118.456 30.2251L116.599 27.3145H115.127V30.2251H114.215V22.8923H117.161C118.499 22.8923 119.467 23.7517 119.467 25.1034C119.467 26.4551 118.555 27.146 117.554 27.2367L119.531 30.2251H118.456ZM118.521 25.1034C118.521 24.2656 117.916 23.7085 117.048 23.7085H115.127V26.5112H117.048C117.916 26.5112 118.521 25.9282 118.521 25.1034Z" fill="#85818C"/>
        <path d="M127.059 30.2251V22.8923H127.97V30.2251H127.059Z" fill="#85818C"/>
        <path d="M135.397 29.1929L135.946 28.489C136.417 29.0374 137.211 29.5427 138.243 29.5427C139.552 29.5427 139.971 28.8388 139.971 28.2688C139.971 26.3773 135.631 27.431 135.631 24.8183C135.631 23.6091 136.706 22.7756 138.157 22.7756C139.267 22.7756 140.135 23.16 140.752 23.8078L140.204 24.4771C139.655 23.8596 138.887 23.5961 138.084 23.5961C137.216 23.5961 136.576 24.0712 136.576 24.7621C136.576 26.4118 140.916 25.4661 140.916 28.204C140.916 29.2577 140.191 30.3589 138.213 30.3589C136.948 30.3589 136.002 29.8752 135.397 29.1929Z" fill="#85818C"/>
        <path d="M148.431 30.2251V22.8923H153.233V23.7042H149.342V26.0664H153.155V26.8783H149.342V29.4046H153.233V30.2165H148.431V30.2251Z" fill="#85818C"/>
    </g>
    <defs>
        <clipPath id="clip0_13817_577003">
            <rect width="154" height="32" fill="white"/>
        </clipPath>
    </defs>
</svg>
