<svg width="150" height="30" viewBox="0 0 150 30" fill="none" xmlns="http://www.w3.org/2000/svg">
    <path d="M20.5283 22.5293L25.3616 23.5944L27.9284 27.5726H20.5283V22.5293Z" fill="#119E8F"/>
    <path fill-rule="evenodd" clip-rule="evenodd" d="M35.7246 19.7734C35.7246 24.0806 32.2329 27.5722 27.9258 27.5722C23.6186 27.5722 20.127 24.0806 20.127 19.7734V11.9746H27.9258C32.2329 11.9746 35.7246 15.4662 35.7246 19.7734ZM27.9258 23.7986C30.1488 23.7986 31.9509 21.9965 31.9509 19.7734C31.9509 17.5504 30.1488 15.7482 27.9258 15.7482H23.9006V19.7734C23.9006 21.9965 25.7027 23.7986 27.9258 23.7986ZM20.127 14.9451L20.127 11.9746H19.499C19.8968 12.8851 20.1163 13.8895 20.1229 14.9451H20.127Z" fill="#FFA419"/>
    <path fill-rule="evenodd" clip-rule="evenodd" d="M20.1299 11.9786H24.7928C23.4407 6.49081 18.4851 2.4209 12.5787 2.4209C5.63168 2.4209 0 8.05132 0 14.9968C0 21.9423 5.63168 27.5727 12.5787 27.5727L27.9286 27.5727V27.5727C25.3335 27.5727 23.0344 26.3054 21.6167 24.356V24.3727C21.2088 23.8128 20.8736 23.1965 20.6251 22.5377H20.1259V22.5423H12.5787C8.41049 22.5423 5.03148 19.1641 5.03148 14.9968C5.03148 10.8295 8.41049 7.45126 12.5787 7.45126C15.674 7.45126 18.3341 9.31421 19.4985 11.9798H20.1299V11.9786Z" fill="#119E8F"/>
    <path d="M47.8242 5.36284V1.1604H44.937V12.5166H47.8242V8.58685L47.9204 8.45853L50.8236 12.5166H54.4647L49.9896 6.64603L54.4807 1.1604H50.9038L47.8242 5.36284Z" fill="#404F68"/>
    <path d="M58.7333 1.1604H55.8301V8.71517C55.8141 14.0404 64.8766 14.0404 64.8926 8.71517V1.1604H61.9894V8.71517C61.9734 10.5437 58.7333 10.5437 58.7333 8.71517V1.1604Z" fill="#404F68"/>
    <path d="M75.5346 4.62501C75.5987 2.45963 74.0108 1.1604 71.8454 1.1604H67.2901V12.5166H71.9256C74.4439 12.5166 75.6789 11.4099 75.9677 9.58132C76.112 8.71517 75.9195 7.25554 74.3637 6.46959C75.1817 6.05256 75.5185 5.13828 75.5346 4.62501ZM70.1773 5.60344V3.58242H71.8454C73.289 3.58242 73.2409 5.60344 71.8454 5.60344H70.1773ZM70.1773 9.99836V7.67258H71.8454C73.5456 7.67258 73.5777 9.99836 71.8454 9.99836H70.1773Z" fill="#404F68"/>
    <path d="M80.8999 3.8551H85.9044V1.1604H77.9967V12.5166H85.9044V9.80588H80.8999V8.10566H85.5034V5.61948H80.8999V3.8551Z" fill="#404F68"/>
    <path d="M87.5784 10.6239C88.6371 11.9873 90.0807 12.677 91.444 12.677C93.5292 12.677 95.839 11.474 95.9352 9.27657C96.0635 6.48563 94.0425 5.77988 92.0215 5.41096C91.1393 5.21848 90.5458 4.89769 90.5137 4.35233C90.5619 3.03706 92.5989 2.98894 93.7859 4.25609L95.6625 2.8125C94.4916 1.38496 93.1603 1 91.7809 1C89.6957 1 87.6747 2.17091 87.6747 4.40045C87.6747 6.56583 89.3428 7.7207 91.1714 8.00942C92.1017 8.13774 93.1443 8.50665 93.1122 9.14825C93.032 10.3673 90.5298 10.3031 89.3909 8.92369L87.5784 10.6239Z" fill="#404F68"/>
    <path d="M97.8749 12.5166H100.746V9.19637H102.43C105.173 9.19637 106.569 7.19139 106.569 5.17036C106.569 3.16538 105.189 1.1604 102.414 1.1604H97.8749V12.5166ZM100.746 6.64603V3.83906H102.414C104.147 3.82301 104.147 6.66207 102.414 6.64603H100.746Z" fill="#404F68"/>
    <path d="M111.375 8.23398H114.647V12.5166H117.534V1.1604H114.647V5.45908H111.375V1.1604H108.488V12.5166H111.375V8.23398Z" fill="#404F68"/>
    <path d="M122.928 3.8551H127.932V1.1604H120.024V12.5166H127.932V9.80588H122.928V8.10566H127.531V5.61948H122.928V3.8551Z" fill="#404F68"/>
    <path d="M136.198 12.5166H139.775L136.68 8.61893C138.059 8.18586 138.909 6.99891 138.909 4.89769C138.845 2.23507 137.033 1.1604 134.691 1.1604H130.151V12.5166H133.055V8.90765H133.568L136.198 12.5166ZM133.055 6.43751V3.83906H134.739C136.551 3.83906 136.551 6.43751 134.739 6.43751H133.055Z" fill="#404F68"/>
    <path d="M144.122 3.8551H149.126V1.1604H141.218V12.5166H149.126V9.80588H144.122V8.10566H148.725V5.61948H144.122V3.8551Z" fill="#404F68"/>
    <path d="M50.9996 25.2628C50.374 26.8347 47.8077 26.4498 47.8077 25.0864V21.1727C47.8077 19.7612 50.342 19.4404 51.1119 20.8519L53.4537 19.9055C52.5394 17.8845 50.8552 17.291 49.4598 17.291C47.1821 17.291 44.9365 18.6063 44.9365 21.1727V25.0864C44.9365 27.6688 47.1821 28.968 49.4116 28.968C50.8392 28.968 52.5555 28.2623 53.5018 26.4177L50.9996 25.2628Z" fill="#119E8F"/>
    <path d="M56.9212 28.8076H64.4278V25.9686H59.8083V17.4514H56.9212V28.8076Z" fill="#119E8F"/>
    <path d="M67.5773 25.0703C67.5773 27.6688 69.9351 28.968 72.293 28.968C74.6509 28.968 76.9927 27.6688 76.9927 25.0703V21.1887C76.9927 18.5902 74.6348 17.291 72.277 17.291C69.9191 17.291 67.5773 18.5742 67.5773 21.1887V25.0703ZM70.4484 21.1887C70.4484 20.3546 71.3466 19.9055 72.2449 19.9055C73.1752 19.9055 74.1215 20.3065 74.1215 21.1887V25.0703C74.1215 25.8884 73.2073 26.3054 72.293 26.3054C71.3787 26.3054 70.4484 25.9044 70.4484 25.0703V21.1887Z" fill="#119E8F"/>
    <path d="M83.7324 17.4514H80.8292V25.0062C80.8132 30.3314 89.8757 30.3314 89.8917 25.0062V17.4514H86.9885V25.0062C86.9725 26.8347 83.7324 26.8347 83.7324 25.0062V17.4514Z" fill="#119E8F"/>
    <path d="M93.9681 17.4514V28.8076H98.2186C100.496 28.8237 102.63 27.6848 102.63 25.0703V21.2529C102.63 18.6063 100.496 17.4514 98.2186 17.4514H93.9681ZM96.8553 26.1129V20.1301H98.3149C99.2773 20.1301 99.7424 20.5952 99.7424 21.3331V24.8779C99.7424 25.6157 99.2933 26.1129 98.3149 26.1129H96.8553Z" fill="#119E8F"/>
</svg>
