<svg width="273" height="30" viewBox="0 0 273 30" fill="none" xmlns="http://www.w3.org/2000/svg">
<path d="M3.25916 4.63721H21.3142V22.6594H3.25916V4.63721Z" fill="#D2E4F4"/>
<path d="M2.69702 13.8166V5.38904C2.69702 4.32297 3.12423 3.89655 4.19224 3.89655H21.1119C22.1237 3.89655 22.5396 4.30053 22.5509 5.31049C22.5621 10.9551 22.5621 16.5996 22.5509 22.2442C22.5509 23.2654 22.0899 23.7142 21.0556 23.7142C15.412 23.7255 9.77965 23.7142 4.13603 23.7142C3.1692 23.7142 2.69702 23.2317 2.69702 22.2779V13.8166V13.8166ZM12.6352 5.28805C9.97077 5.28805 7.30635 5.29927 4.65318 5.27683C4.24845 5.27683 4.06858 5.3666 4.06858 5.81547C4.07982 9.64211 4.07982 13.4575 4.07982 17.2842C4.07982 17.4525 4.00112 17.6769 4.21473 17.7555C4.3946 17.834 4.50703 17.6432 4.63069 17.5535C6.28331 16.2181 7.93592 14.8939 9.57729 13.5473C9.88083 13.3004 10.0832 13.3004 10.3642 13.5922C11.4772 14.7368 12.6352 15.8478 13.7594 16.9812C13.9955 17.228 14.1866 17.228 14.4452 17.026C15.0635 16.5323 15.7043 16.0722 16.3114 15.5672C16.6374 15.2979 16.8848 15.3091 17.2108 15.556C18.335 16.3976 19.4705 17.2168 20.6172 18.036C20.7521 18.137 20.887 18.339 21.0781 18.2492C21.2693 18.1594 21.2018 17.935 21.2018 17.7555C21.2018 13.7829 21.2018 9.81043 21.213 5.84914C21.213 5.38904 21.0781 5.2656 20.6284 5.2656C17.964 5.28805 15.2996 5.28805 12.6352 5.28805V5.28805Z" fill="#43AF5A"/>
<path d="M16.0639 8.02615C17.3343 8.01493 18.3349 9.0249 18.3349 10.3042C18.3349 11.5274 17.3006 12.5598 16.0752 12.5598C14.816 12.5598 13.8042 11.561 13.7817 10.293C13.7593 9.04734 14.7823 8.02615 16.0639 8.02615V8.02615Z" fill="#FED147"/>
<path d="M5.01288 17.5085H2.04492V24.41H8.95892V21.4586H5.01288V17.5085Z" fill="#446CA9"/>
<path d="M19.8302 17.531V21.4586H15.9066L15.8842 21.4362V24.41H22.7982V17.5085H19.8077L19.8302 17.531Z" fill="#446CA9"/>
<path d="M2.04492 10.6072H5.03537L5.01288 10.5735V6.65714H8.93643L8.95892 6.67958V3.69458H2.04492V10.6072Z" fill="#446CA9"/>
<path d="M15.8842 3.69452V6.65707H19.8302V10.6071H22.7982V3.69452H15.8842Z" fill="#33669A"/>
<path d="M11.5559 6.65707H15.8842V3.69452H8.95898V6.67952" fill="#76C4D5"/>
<path d="M13.276 21.4585H8.95898V24.4099H15.8842V21.4361" fill="#76C4D5"/>
<path d="M19.8079 17.5085H22.7983V10.6071H19.8303V14.9162" fill="#76C4D5"/>
<path d="M5.03537 10.6071H2.04492V17.5085H5.01288V13.1993" fill="#76C4D5"/>
<path d="M26.1709 13.8615H27.3176V22.9399H33.0287V23.9948H26.1709V13.8615V13.8615ZM34.389 21.8177V21.7841C34.389 20.1794 35.6931 19.3377 37.593 19.3377C38.5486 19.3377 39.2119 19.4724 39.8865 19.6519V19.4163C39.8865 18.0809 39.077 17.3851 37.6717 17.3851C36.7836 17.3851 36.0866 17.5983 35.4008 17.9238L35.0635 17.0148C35.8955 16.6333 36.6824 16.3752 37.7842 16.3752C38.8409 16.3752 39.6729 16.6669 40.2013 17.2056C40.7184 17.7218 40.9882 18.4512 40.9882 19.405V23.9723H39.8865V22.8614C39.3693 23.5235 38.5037 24.1294 37.1883 24.1294C35.783 24.1519 34.389 23.3551 34.389 21.8177V21.8177ZM39.8977 21.2454V20.5497C39.3468 20.3926 38.6273 20.2355 37.7055 20.2355C36.3114 20.2355 35.5132 20.8414 35.5132 21.7392V21.7729C35.5132 22.7155 36.3789 23.2653 37.4019 23.2653C38.7847 23.2541 39.8977 22.4237 39.8977 21.2454V21.2454ZM43.3491 16.5098H44.4621V17.8116C44.9567 17.0036 45.7325 16.3527 47.0253 16.3527C48.8353 16.3527 49.8921 17.5647 49.8921 19.3489V23.9948H48.7791V19.6295C48.7791 18.238 48.0259 17.3739 46.7105 17.3739C45.4177 17.3739 44.4621 18.3165 44.4621 19.7193V24.006H43.3491V16.5098V16.5098ZM51.837 20.2691V20.2355C51.837 17.7891 53.6245 16.3415 55.4233 16.3415C56.8173 16.3415 57.7167 17.0934 58.2901 17.935V13.4238H59.403V23.9835H58.2901V22.4798C57.683 23.3776 56.7948 24.1406 55.4233 24.1406C53.6245 24.1519 51.837 22.7267 51.837 20.2691V20.2691ZM58.335 20.2579V20.2242C58.335 18.5073 57.0197 17.3402 55.6256 17.3402C54.1754 17.3402 52.9837 18.4063 52.9837 20.2242V20.2579C52.9837 22.0197 54.1979 23.1531 55.6256 23.1531C57.0197 23.1531 58.335 21.9748 58.335 20.2579ZM61.2805 23.0297L61.8426 22.2329C62.6521 22.8389 63.5515 23.1868 64.4396 23.1868C65.339 23.1868 65.991 22.7267 65.991 21.9973V21.9636C65.991 21.2118 65.1029 20.92 64.1248 20.6507C62.9556 20.314 61.6403 19.91 61.6403 18.541V18.5073C61.6403 17.2168 62.7083 16.3639 64.1923 16.3639C65.1029 16.3639 66.1259 16.6782 66.8904 17.1944L66.3845 18.036C65.6875 17.5871 64.8893 17.3178 64.1698 17.3178C63.2816 17.3178 62.7195 17.7779 62.7195 18.4063V18.44C62.7195 19.1469 63.6526 19.4275 64.6532 19.7305C65.8111 20.0784 67.059 20.5272 67.059 21.8738V21.9075C67.059 23.3215 65.8898 24.1519 64.3946 24.1519C63.3041 24.1294 62.1237 23.7142 61.2805 23.0297V23.0297ZM68.6554 20.2804V20.2467C68.6554 18.137 70.3081 16.3415 72.5003 16.3415C73.9168 16.3415 74.805 16.9363 75.502 17.6769L74.76 18.4624C74.1642 17.8452 73.5009 17.329 72.4891 17.329C70.9713 17.329 69.8022 18.6195 69.8022 20.2242V20.2579C69.8022 21.8738 70.9938 23.1644 72.5565 23.1644C73.5121 23.1644 74.2541 22.6818 74.8499 22.0534L75.5582 22.7155C74.805 23.5571 73.9056 24.1631 72.5003 24.1631C70.3081 24.1631 68.6554 22.3788 68.6554 20.2804V20.2804ZM76.8398 21.8177V21.7841C76.8398 20.1794 78.1439 19.3377 80.0439 19.3377C80.9995 19.3377 81.6627 19.4724 82.3373 19.6519V19.4163C82.3373 18.0809 81.5278 17.3851 80.1226 17.3851C79.2344 17.3851 78.5374 17.5983 77.8516 17.9238L77.5144 17.0148C78.3463 16.6333 79.1332 16.3752 80.235 16.3752C81.2918 16.3752 82.1237 16.6669 82.6521 17.2056C83.1692 17.7218 83.439 18.4512 83.439 19.405V23.9723H82.326V22.8614C81.8089 23.5235 80.9545 24.1294 79.6279 24.1294C78.2226 24.1519 76.8398 23.3551 76.8398 21.8177V21.8177ZM82.3485 21.2454V20.5497C81.7977 20.3926 81.0782 20.2355 80.1563 20.2355C78.7622 20.2355 77.964 20.8414 77.964 21.7392V21.7729C77.964 22.7155 78.8297 23.2653 79.8527 23.2653C81.2243 23.2541 82.3485 22.4237 82.3485 21.2454V21.2454ZM85.7887 16.5098H86.9016V18.0135C87.5087 17.1158 88.3969 16.3527 89.7684 16.3527C91.5672 16.3527 93.3547 17.7667 93.3547 20.2355V20.2691C93.3547 22.7155 91.5897 24.1631 89.7684 24.1631C88.3744 24.1631 87.475 23.4112 86.9016 22.5696V26.3177H85.7887V16.5098ZM92.2192 20.2691V20.2355C92.2192 18.4736 91.0051 17.3402 89.5773 17.3402C88.1833 17.3402 86.8679 18.5073 86.8679 20.2242V20.2579C86.8679 21.9973 88.1833 23.1531 89.5773 23.1531C91.0276 23.1531 92.2192 22.0758 92.2192 20.2691ZM98.7285 23.198C99.7628 23.198 100.482 22.7828 101.089 22.1432L101.786 22.7604C101.033 23.602 100.123 24.1631 98.6948 24.1631C96.6375 24.1631 94.9511 22.5808 94.9511 20.2579C94.9511 18.0921 96.4688 16.3527 98.5486 16.3527C100.763 16.3527 102.045 18.1145 102.045 20.314C102.045 20.415 102.045 20.5272 102.034 20.7068H96.0866C96.244 22.2778 97.4019 23.198 98.7285 23.198V23.198ZM100.91 19.809C100.775 18.4512 99.9989 17.2954 98.5149 17.2954C97.2221 17.2954 96.244 18.3614 96.0753 19.809H100.91Z" fill="#333333"/>
<path d="M29.1612 10.1695C29.9369 10.1695 30.5665 9.86647 31.0611 9.24927L32.0729 10.2929C31.2747 11.1906 30.3304 11.6395 29.2399 11.6395C28.1494 11.6395 27.2613 11.2916 26.553 10.6071C25.8447 9.92258 25.4962 9.0585 25.4962 8.01487C25.4962 6.97125 25.856 6.09595 26.5755 5.40019C27.295 4.70444 28.1719 4.35657 29.2062 4.35657C30.3641 4.35657 31.3309 4.79422 32.1179 5.68074L31.1398 6.7917C30.6452 6.1745 30.0268 5.86029 29.2849 5.86029C28.689 5.86029 28.1831 6.05106 27.7672 6.44382C27.3512 6.82536 27.1376 7.35279 27.1376 8.00365C27.1376 8.65452 27.3399 9.18194 27.7334 9.58593C28.1157 9.96747 28.5991 10.1695 29.1612 10.1695V10.1695Z" fill="#333333"/>
<path d="M33.3097 11.561V4.51373H34.8836V10.1583H37.8965V11.561H33.3097Z" fill="#333333"/>
<path d="M44.7992 10.5847C44.091 11.2804 43.2028 11.6283 42.1686 11.6283C41.123 11.6283 40.2461 11.2804 39.5379 10.5847C38.8296 9.88891 38.4698 9.02484 38.4698 7.99243C38.4698 6.96003 38.8296 6.09595 39.5379 5.40019C40.2461 4.70444 41.1343 4.35657 42.1686 4.35657C43.2141 4.35657 44.091 4.70444 44.7992 5.40019C45.5075 6.09595 45.8673 6.96003 45.8673 7.99243C45.8673 9.02484 45.5075 9.88891 44.7992 10.5847ZM44.2596 7.99243C44.2596 7.36401 44.0573 6.82536 43.6525 6.38771C43.2478 5.93884 42.7532 5.72563 42.1686 5.72563C41.584 5.72563 41.0781 5.95006 40.6846 6.38771C40.2799 6.83659 40.0775 7.36401 40.0775 7.99243C40.0775 8.62085 40.2799 9.1595 40.6846 9.59715C41.0893 10.0348 41.584 10.2592 42.1686 10.2592C42.7532 10.2592 43.2591 10.0348 43.6525 9.59715C44.0573 9.1595 44.2596 8.62085 44.2596 7.99243V7.99243Z" fill="#333333"/>
<path d="M49.0716 9.74309C49.3302 10.0685 49.69 10.2368 50.1284 10.2368C50.5781 10.2368 50.9266 10.0685 51.1852 9.74309C51.4438 9.41766 51.5787 8.96879 51.5787 8.4077V4.51373H53.1526V8.45258C53.1526 9.47377 52.8715 10.2593 52.3094 10.8092C51.7473 11.359 51.0165 11.6284 50.1397 11.6284C49.2628 11.6284 48.532 11.3478 47.9587 10.7979C47.3853 10.2481 47.1042 9.46254 47.1042 8.45258V4.51373H48.6782V8.4077C48.6669 8.96879 48.8018 9.41766 49.0716 9.74309V9.74309Z" fill="#333333"/>
<path d="M60.1675 5.43392C60.8421 6.05112 61.1793 6.90398 61.1793 8.00371C61.1793 9.10345 60.8533 9.96753 60.19 10.6072C59.538 11.2468 58.5374 11.561 57.1883 11.561H54.7825V4.51373H57.2783C58.5374 4.51373 59.5042 4.82794 60.1675 5.43392V5.43392ZM59.0208 9.61965C59.403 9.26056 59.6054 8.73313 59.6054 8.03738C59.6054 7.34163 59.4143 6.8142 59.0208 6.44388C58.6386 6.07356 58.0427 5.88279 57.2333 5.88279H56.3564V10.1695H57.357C58.0765 10.1695 58.6273 9.98997 59.0208 9.61965Z" fill="#333333"/>
<path d="M70.1506 4.51373H71.7245V11.561H70.1506L66.7891 7.15086V11.561H65.2152V4.51373H66.688L70.1506 9.04734V4.51373Z" fill="#333333"/>
<path d="M78.4926 11.561L77.8293 10.0349H74.8726L74.2205 11.561H72.5454L75.5921 4.51373H77.121L80.1676 11.561H78.4926V11.561ZM76.3565 6.61221L75.4684 8.65458H77.2334L76.3565 6.61221V6.61221Z" fill="#333333"/>
<path d="M83.4615 5.87157V11.561H81.8876V5.87157H79.8865V4.51373H85.4627V5.87157H83.4615V5.87157Z" fill="#333333"/>
<path d="M86.6093 4.51373H88.1832V11.561H86.6093V4.51373Z" fill="#333333"/>
<path d="M92.5227 9.00245L94.3215 4.51373H96.0303L93.1972 11.561H91.8594L89.0264 4.51373H90.7352L92.5227 9.00245Z" fill="#333333"/>
<path d="M101.955 4.51373V5.91646H98.4361V7.36407H101.595V8.69946H98.4361V10.1583H102.056V11.5498H96.851V4.51373H101.955V4.51373Z" fill="#333333"/>
<path d="M144.72 13.7422C145.758 13.7422 146.576 13.3333 147.237 12.5154L148.558 13.8995C147.488 15.0948 146.261 15.6924 144.814 15.6924C143.367 15.6924 142.204 15.2521 141.26 14.3398C140.316 13.4276 139.876 12.2952 139.876 10.9112C139.876 9.52715 140.348 8.36329 141.291 7.45108C142.235 6.53887 143.399 6.06704 144.783 6.06704C146.324 6.06704 147.614 6.66469 148.621 7.82855L147.331 9.30696C146.67 8.48911 145.852 8.08019 144.877 8.08019C144.091 8.08019 143.43 8.33184 142.864 8.83513C142.298 9.33841 142.015 10.0304 142.015 10.9112C142.015 11.7919 142.267 12.484 142.801 13.0187C143.336 13.4591 143.965 13.7422 144.72 13.7422V13.7422ZM150.225 15.5666V6.22432H152.301V13.7107H156.296V15.5666H150.225ZM165.418 14.2769C164.474 15.1891 163.31 15.661 161.926 15.661C160.542 15.661 159.378 15.1891 158.435 14.2769C157.491 13.3647 157.019 12.2009 157.019 10.8483C157.019 9.49569 157.491 8.33184 158.435 7.41963C159.378 6.50742 160.542 6.03558 161.926 6.03558C163.31 6.03558 164.474 6.50742 165.418 7.41963C166.361 8.33184 166.833 9.49569 166.833 10.8483C166.833 12.2009 166.361 13.3647 165.418 14.2769ZM164.694 10.8483C164.694 10.0304 164.411 9.30696 163.908 8.7093C163.373 8.11165 162.713 7.82855 161.926 7.82855C161.14 7.82855 160.479 8.11165 159.945 8.7093C159.41 9.30696 159.127 9.99898 159.127 10.8483C159.127 11.6976 159.41 12.3896 159.945 12.9873C160.479 13.5849 161.14 13.868 161.926 13.868C162.713 13.868 163.373 13.5849 163.908 12.9873C164.443 12.3896 164.694 11.6976 164.694 10.8483ZM171.08 13.176C171.426 13.6164 171.898 13.8366 172.495 13.8366C173.093 13.8366 173.565 13.6164 173.879 13.176C174.225 12.7356 174.383 12.138 174.383 11.4145V6.22432H176.459V11.4459C176.459 12.7985 176.081 13.8366 175.326 14.56C174.571 15.2835 173.628 15.661 172.464 15.661C171.3 15.661 170.325 15.2835 169.57 14.56C168.815 13.8366 168.438 12.7985 168.438 11.4459V6.22432H170.514V11.383C170.545 12.138 170.734 12.7356 171.08 13.176V13.176ZM185.77 7.45108C186.65 8.26893 187.122 9.40133 187.122 10.8483C187.122 12.2952 186.682 13.4591 185.832 14.3084C184.952 15.1577 183.631 15.5666 181.869 15.5666H178.629V6.22432H181.932C183.599 6.22432 184.889 6.63324 185.77 7.45108ZM184.26 13.0187C184.763 12.5469 185.015 11.8234 185.015 10.9112C185.015 9.99898 184.763 9.2755 184.26 8.80367C183.756 8.30038 182.97 8.04874 181.901 8.04874H180.737V13.7422H182.058C183.001 13.7422 183.725 13.4905 184.26 13.0187ZM198.981 6.22432H201.088V15.5666H198.981L194.546 9.71588V15.5666H192.438V6.22432H194.42L198.981 12.2638V6.22432ZM210.022 15.5666L209.141 13.5535H205.209L204.328 15.5666H202.095L206.121 6.22432H208.134L212.161 15.5666H210.022V15.5666ZM207.222 9.02386L206.058 11.729H208.386L207.222 9.02386ZM216.627 8.04874V15.5666H214.52V8.04874H211.878V6.22432H219.27V8.04874H216.627ZM220.78 6.22432H222.856V15.5666H220.78V6.22432ZM228.612 12.1694L231.003 6.22432H233.267L229.493 15.5666H227.731L223.988 6.22432H226.253L228.612 12.1694ZM241.1 6.22432V8.08019H236.444V10.0304H240.628V11.7919H236.444V13.7422H241.257V15.5666H234.368V6.22432H241.1ZM142.329 23.5249C142.896 23.5249 143.367 23.3047 143.745 22.8328L144.5 23.6192C143.902 24.2798 143.21 24.6258 142.392 24.6258C141.575 24.6258 140.914 24.3742 140.411 23.8709C139.876 23.3676 139.624 22.707 139.624 21.9521C139.624 21.1657 139.876 20.5366 140.411 20.0018C140.945 19.4671 141.606 19.2155 142.361 19.2155C143.21 19.2155 143.934 19.53 144.531 20.1906L143.808 21.0084C143.43 20.5366 142.99 20.3164 142.424 20.3164C141.983 20.3164 141.606 20.4737 141.291 20.7568C140.977 21.0399 140.82 21.4173 140.82 21.9206C140.82 22.4239 140.977 22.8014 141.26 23.0845C141.543 23.399 141.921 23.5249 142.329 23.5249V23.5249ZM149.69 23.8394C149.155 24.3427 148.495 24.6258 147.74 24.6258C146.985 24.6258 146.324 24.3742 145.79 23.8394C145.255 23.3361 145.003 22.6756 145.003 21.9206C145.003 21.1657 145.255 20.5051 145.79 20.0018C146.324 19.4986 146.985 19.2155 147.74 19.2155C148.495 19.2155 149.155 19.4671 149.69 20.0018C150.225 20.5051 150.476 21.1657 150.476 21.9206C150.476 22.6756 150.225 23.3361 149.69 23.8394ZM149.313 21.9206C149.313 21.4488 149.155 21.0399 148.872 20.7253C148.558 20.4108 148.212 20.222 147.771 20.222C147.331 20.222 146.953 20.3793 146.67 20.7253C146.356 21.0399 146.23 21.4488 146.23 21.9206C146.23 22.3925 146.387 22.7699 146.67 23.1159C146.985 23.4305 147.331 23.6192 147.771 23.6192C148.212 23.6192 148.589 23.4619 148.872 23.1159C149.155 22.8014 149.313 22.3925 149.313 21.9206ZM156.17 21.2601L154.754 24.154H154.062L152.647 21.2601V24.5629H151.483V19.3413H153.056L154.408 22.2037L155.761 19.3413H157.334V24.5629H156.17V21.2601ZM162.241 19.8131C162.618 20.1277 162.807 20.5995 162.807 21.2601C162.807 21.9206 162.618 22.3925 162.241 22.6756C161.863 22.9901 161.297 23.1159 160.511 23.1159H159.819V24.5629H158.655V19.3413H160.511C161.297 19.3413 161.863 19.4986 162.241 19.8131V19.8131ZM161.391 21.8577C161.517 21.7004 161.612 21.4802 161.612 21.1657C161.612 20.8511 161.517 20.6624 161.329 20.5366C161.14 20.4108 160.857 20.3479 160.479 20.3479H159.819V22.1094H160.605C160.983 22.1094 161.234 22.015 161.391 21.8577ZM165.103 23.2103C165.292 23.4619 165.575 23.5878 165.89 23.5878C166.204 23.5878 166.487 23.4619 166.676 23.2103C166.865 22.9587 166.959 22.6441 166.959 22.2037V19.3098H168.123V22.2352C168.123 22.9901 167.903 23.5878 167.494 23.9967C167.085 24.4056 166.55 24.5943 165.89 24.5943C165.229 24.5943 164.694 24.3742 164.285 23.9652C163.876 23.5563 163.656 22.9587 163.656 22.2037V19.2784H164.82V22.2352C164.82 22.6441 164.915 22.9901 165.103 23.2103V23.2103ZM171.552 20.3479V24.5629H170.388V20.3479H168.909V19.3413H173.03V20.3479H171.552ZM173.911 19.3413H175.075V24.5943H173.911V19.3413ZM180.013 19.3413H181.177V24.5629H180.013L177.528 21.2915V24.5629H176.364V19.3413H177.434L180.013 22.707V19.3413ZM185.895 21.9206H187.059V23.7765C186.524 24.3427 185.832 24.6573 184.889 24.6573C184.134 24.6573 183.473 24.4056 182.939 23.9023C182.404 23.399 182.152 22.7385 182.152 21.9835C182.152 21.1972 182.404 20.568 182.939 20.0333C183.473 19.4986 184.102 19.2469 184.857 19.2469C185.612 19.2469 186.273 19.4986 186.808 20.0018L186.21 20.8826C185.99 20.6624 185.77 20.5366 185.549 20.4737C185.361 20.4108 185.14 20.3479 184.92 20.3479C184.48 20.3479 184.102 20.5051 183.788 20.7882C183.473 21.1028 183.316 21.4802 183.316 21.9835C183.316 22.4868 183.473 22.8643 183.756 23.1788C184.039 23.4619 184.385 23.6192 184.794 23.6192C185.203 23.6192 185.549 23.5563 185.801 23.399L185.895 21.9206V21.9206ZM193.665 19.3413V20.3479H191.243V21.4802H193.571V22.5183H191.243V24.5629H190.079V19.3413H193.665ZM199.075 23.8394C198.54 24.3427 197.88 24.6258 197.125 24.6258C196.339 24.6258 195.709 24.3742 195.175 23.8394C194.64 23.3361 194.388 22.6756 194.388 21.9206C194.388 21.1657 194.64 20.5051 195.175 20.0018C195.709 19.4986 196.37 19.2155 197.125 19.2155C197.911 19.2155 198.54 19.4671 199.075 20.0018C199.61 20.5051 199.862 21.1657 199.862 21.9206C199.862 22.6756 199.61 23.3361 199.075 23.8394ZM198.666 21.9206C198.666 21.4488 198.509 21.0399 198.226 20.7253C197.911 20.4108 197.565 20.222 197.125 20.222C196.685 20.222 196.307 20.3793 196.024 20.7253C195.709 21.0399 195.584 21.4488 195.584 21.9206C195.584 22.3925 195.741 22.7699 196.024 23.1159C196.339 23.4305 196.685 23.6192 197.125 23.6192C197.565 23.6192 197.943 23.4619 198.226 23.1159C198.54 22.8014 198.666 22.3925 198.666 21.9206ZM202.252 23.2103C202.441 23.4619 202.724 23.5878 203.039 23.5878C203.353 23.5878 203.636 23.4619 203.825 23.2103C204.014 22.9587 204.108 22.6441 204.108 22.2037V19.3098H205.272V22.2352C205.272 22.9901 205.052 23.5878 204.643 23.9967C204.234 24.4056 203.699 24.5943 203.039 24.5943C202.378 24.5943 201.843 24.3742 201.434 23.9652C201.025 23.5563 200.805 22.9587 200.805 22.2037V19.2784H201.969V22.2352C201.938 22.6441 202.063 22.9901 202.252 23.2103V23.2103ZM210.148 19.3413H211.311V24.5629H210.148L207.663 21.2915V24.5629H206.499V19.3413H207.568L210.148 22.707V19.3413ZM216.596 20.0333C217.099 20.5051 217.351 21.1342 217.351 21.9521C217.351 22.7699 217.099 23.399 216.627 23.8709C216.156 24.3427 215.401 24.5943 214.394 24.5943H212.601V19.3413H214.457C215.401 19.3413 216.124 19.5615 216.596 20.0333ZM215.747 23.1474C216.03 22.8643 216.187 22.4868 216.187 21.9835C216.187 21.4802 216.03 21.0713 215.747 20.7882C215.464 20.5051 215.023 20.3793 214.426 20.3793H213.765V23.5563H214.52C215.055 23.5249 215.464 23.399 215.747 23.1474V23.1474ZM221.943 24.5629L221.472 23.4305H219.27L218.798 24.5629H217.54L219.804 19.3098H220.937L223.202 24.5629H221.943ZM220.371 20.8826L219.71 22.3925H221.031L220.371 20.8826V20.8826ZM225.655 20.3479V24.5629H224.46V20.3479H222.981V19.3413H227.134V20.3479H225.655ZM227.983 19.3413H229.147V24.5943H227.983V19.3413ZM234.84 23.8394C234.305 24.3427 233.645 24.6258 232.89 24.6258C232.104 24.6258 231.474 24.3742 230.94 23.8394C230.405 23.3361 230.153 22.6756 230.153 21.9206C230.153 21.1657 230.405 20.5051 230.94 20.0018C231.474 19.4986 232.135 19.2155 232.89 19.2155C233.676 19.2155 234.305 19.4671 234.84 20.0018C235.375 20.5051 235.627 21.1657 235.627 21.9206C235.627 22.6756 235.375 23.3361 234.84 23.8394ZM234.463 21.9206C234.463 21.4488 234.305 21.0399 234.022 20.7253C233.708 20.4108 233.362 20.222 232.921 20.222C232.481 20.222 232.104 20.3793 231.82 20.7253C231.506 21.0399 231.38 21.4488 231.38 21.9206C231.38 22.3925 231.537 22.7699 231.82 23.1159C232.135 23.4305 232.481 23.6192 232.921 23.6192C233.362 23.6192 233.739 23.4619 234.022 23.1159C234.305 22.8014 234.463 22.3925 234.463 21.9206ZM240.282 19.3413H241.477V24.5629H240.282L237.797 21.2915V24.5629H236.633V19.3413H237.734L240.282 22.707V19.3413Z" fill="black"/>
<path d="M117.448 18.3663H114.586V25.0978H121.286V22.2038H117.448V18.3663ZM131.855 18.3977V22.2038H128.017V22.1724V25.0978H134.717V18.3663H131.823L131.855 18.3977ZM114.586 11.6662H117.48L117.448 11.6348V7.82866H121.286V4.93475H114.586V11.6662ZM128.017 4.93475V7.82866H131.855V11.6662H134.717V4.93475H128.017Z" fill="#446CA9"/>
<path d="M127.64 11.6662L123.802 7.82866H128.017V4.93475H121.286V7.82866L125.123 11.6662H127.64ZM124.18 18.3663H121.663L124.84 21.5433L125.469 22.2038H121.286V25.0978H128.017V22.1724L126.098 20.2851L124.18 18.3663ZM131.855 11.6662V15.8498L131.194 15.1893L128.017 12.0123V14.5601L129.905 16.4475L131.823 18.3663H134.717V11.6662H131.855ZM121.286 15.4724L117.48 11.6662H114.586V18.3663H117.448V14.1827L121.286 18.0203V15.4724Z" fill="#76C4D5"/>
<path d="M260.653 24.3111C260.632 24.2832 260.598 24.2553 260.563 24.2414C260.528 24.2205 260.486 24.2135 260.431 24.2135C260.382 24.2135 260.334 24.2205 260.299 24.2414C260.264 24.2553 260.229 24.2832 260.208 24.3111C260.181 24.339 260.167 24.3739 260.153 24.4157C260.139 24.4506 260.132 24.4924 260.125 24.5273H260.737C260.737 24.4855 260.73 24.4506 260.716 24.4157C260.695 24.3739 260.681 24.339 260.653 24.3111V24.3111ZM258.569 24.2274C258.52 24.2274 258.471 24.2344 258.43 24.2484C258.381 24.2623 258.346 24.2763 258.319 24.2972V25.141C258.339 25.1479 258.367 25.1479 258.402 25.1549H258.513C258.638 25.1549 258.735 25.1131 258.798 25.0224C258.861 24.9318 258.895 24.8202 258.895 24.6807C258.895 24.3809 258.791 24.2274 258.569 24.2274V24.2274ZM265.593 24.3111C265.572 24.2832 265.538 24.2553 265.503 24.2414C265.468 24.2205 265.427 24.2135 265.371 24.2135C265.322 24.2135 265.274 24.2205 265.239 24.2414C265.204 24.2553 265.169 24.2832 265.149 24.3111C265.121 24.339 265.107 24.3739 265.093 24.4157C265.079 24.4506 265.072 24.4924 265.065 24.5273H265.677C265.677 24.4855 265.67 24.4506 265.656 24.4157C265.635 24.3739 265.614 24.339 265.593 24.3111V24.3111ZM268.706 24.3111C268.685 24.2832 268.65 24.2553 268.616 24.2414C268.581 24.2205 268.539 24.2135 268.484 24.2135C268.435 24.2135 268.386 24.2205 268.352 24.2414C268.317 24.2553 268.282 24.2832 268.261 24.3111C268.234 24.339 268.22 24.3739 268.206 24.4157C268.192 24.4506 268.185 24.4924 268.178 24.5273H268.789C268.789 24.4855 268.782 24.4506 268.769 24.4157C268.755 24.3739 268.734 24.339 268.706 24.3111V24.3111Z" fill="white"/>
<path d="M253.059 6.75238V27.9931H271.874V6.75238H253.059ZM259.291 21.9263L256.13 17.9794C256.109 17.9585 256.095 17.9306 256.081 17.9097C255.956 17.7144 255.908 17.4704 255.963 17.2403L257.089 12.3241C257.151 12.0661 257.325 11.8499 257.561 11.7313L262.126 9.54171C262.23 9.4929 262.342 9.465 262.46 9.45803C262.606 9.45106 262.751 9.47895 262.883 9.54171L267.455 11.7313C267.692 11.8429 267.872 12.0661 267.928 12.3241L269.053 17.2472C269.116 17.5052 269.053 17.7772 268.887 17.9864L265.725 21.9333C265.559 22.1425 265.308 22.261 265.044 22.261H259.972C259.708 22.2541 259.451 22.1355 259.291 21.9263V21.9263ZM255.289 25.5036C255.254 25.4479 255.22 25.3921 255.178 25.3293C255.136 25.2596 255.095 25.1968 255.046 25.1341C254.997 25.0643 254.949 25.0016 254.893 24.9458C254.845 24.883 254.789 24.8342 254.74 24.7924V25.5036H254.282V23.1676L254.74 23.0909V24.4576C254.789 24.4088 254.831 24.353 254.879 24.3042C254.928 24.2484 254.977 24.1996 255.018 24.1438C255.067 24.0881 255.109 24.0392 255.143 23.9904C255.185 23.9416 255.22 23.8998 255.247 23.8649H255.796C255.685 23.9904 255.581 24.109 255.477 24.2275C255.373 24.3391 255.261 24.4576 255.136 24.5832C255.199 24.639 255.261 24.7087 255.331 24.7854C255.4 24.8621 255.463 24.9388 255.525 25.0225C255.588 25.1062 255.644 25.1898 255.692 25.2735C255.741 25.3572 255.789 25.4339 255.824 25.5036H255.289V25.5036ZM257.422 25.4479C257.346 25.4688 257.242 25.4897 257.117 25.5106C256.991 25.5315 256.859 25.5385 256.727 25.5385C256.588 25.5385 256.47 25.5176 256.38 25.4827C256.29 25.4479 256.22 25.3921 256.165 25.3293C256.109 25.2596 256.074 25.1829 256.053 25.0852C256.033 24.9946 256.019 24.89 256.019 24.7784V23.8719H256.477V24.7226C256.477 24.8691 256.498 24.9806 256.533 25.0434C256.568 25.1062 256.644 25.141 256.755 25.141H256.859C256.894 25.1341 256.929 25.1341 256.957 25.1271V23.8649H257.415V25.4479H257.422ZM259.312 25.0434C259.277 25.148 259.222 25.2387 259.145 25.3154C259.076 25.3921 258.986 25.4479 258.881 25.4897C258.777 25.5315 258.659 25.5455 258.52 25.5455C258.464 25.5455 258.409 25.5455 258.346 25.5385C258.284 25.5315 258.228 25.5315 258.166 25.5176C258.11 25.5106 258.055 25.4967 257.999 25.4897C257.943 25.4757 257.895 25.4618 257.86 25.4548V23.1746L258.319 23.0978V23.9137C258.367 23.8928 258.423 23.8719 258.478 23.8579C258.534 23.844 258.596 23.837 258.659 23.837C258.777 23.837 258.874 23.8579 258.965 23.8998C259.055 23.9416 259.125 23.9974 259.187 24.0671C259.25 24.1438 259.291 24.2345 259.326 24.3391C259.354 24.4437 259.375 24.5553 259.375 24.6878C259.368 24.8203 259.347 24.9388 259.312 25.0434V25.0434ZM261.167 24.7575C261.167 24.7854 261.16 24.8133 261.16 24.8412H260.111C260.118 24.9388 260.167 25.0085 260.243 25.0713C260.32 25.1271 260.424 25.155 260.556 25.155C260.639 25.155 260.723 25.148 260.806 25.1341C260.889 25.1201 260.959 25.0992 261.007 25.0783L261.07 25.4548C261.042 25.4688 261.014 25.4827 260.973 25.4897C260.931 25.5036 260.882 25.5106 260.834 25.5176C260.785 25.5246 260.73 25.5385 260.674 25.5455C260.618 25.5525 260.556 25.5525 260.5 25.5525C260.354 25.5525 260.229 25.5315 260.118 25.4897C260.014 25.4479 259.924 25.3851 259.847 25.3154C259.778 25.2387 259.722 25.148 259.687 25.0434C259.653 24.9388 259.639 24.8272 259.639 24.7087C259.639 24.5622 259.66 24.4367 259.701 24.3321C259.75 24.2206 259.805 24.1299 259.875 24.0602C259.944 23.9904 260.028 23.9346 260.125 23.8928C260.222 23.8579 260.32 23.837 260.417 23.837C260.646 23.837 260.834 23.9068 260.966 24.0532C261.098 24.1927 261.167 24.4019 261.167 24.6808C261.174 24.6947 261.174 24.7226 261.167 24.7575V24.7575ZM262.508 24.2833C262.467 24.2763 262.418 24.2624 262.362 24.2554C262.307 24.2415 262.244 24.2345 262.182 24.2345C262.154 24.2345 262.119 24.2345 262.077 24.2415C262.036 24.2484 262.008 24.2484 261.987 24.2554V25.5036H261.529V23.9556C261.612 23.9277 261.709 23.8998 261.82 23.8719C261.932 23.844 262.057 23.83 262.196 23.83C262.223 23.83 262.251 23.83 262.286 23.837C262.321 23.837 262.355 23.844 262.39 23.851C262.425 23.8579 262.46 23.8579 262.494 23.8719C262.529 23.8789 262.557 23.8858 262.585 23.8998L262.508 24.2833V24.2833ZM264.238 25.5036H263.78V24.639C263.78 24.4925 263.759 24.3809 263.724 24.3252C263.683 24.2624 263.613 24.2345 263.502 24.2345C263.467 24.2345 263.432 24.2345 263.398 24.2415C263.363 24.2415 263.328 24.2484 263.3 24.2484V25.5036H262.842V23.9277C262.918 23.9068 263.022 23.8858 263.148 23.8649C263.273 23.844 263.405 23.837 263.537 23.837C263.676 23.837 263.787 23.8579 263.877 23.8928C263.967 23.9277 264.044 23.9765 264.099 24.0462C264.155 24.116 264.19 24.1927 264.211 24.2833C264.231 24.374 264.245 24.4786 264.245 24.5901V25.5036H264.238ZM266.107 24.7575C266.107 24.7854 266.1 24.8133 266.1 24.8412H265.051C265.058 24.9388 265.107 25.0085 265.183 25.0713C265.26 25.1271 265.364 25.155 265.496 25.155C265.579 25.155 265.663 25.148 265.746 25.1341C265.829 25.1201 265.899 25.0992 265.948 25.0783L266.01 25.4548C265.982 25.4688 265.955 25.4827 265.913 25.4897C265.871 25.5036 265.823 25.5106 265.774 25.5176C265.725 25.5246 265.67 25.5385 265.614 25.5455C265.559 25.5525 265.496 25.5525 265.44 25.5525C265.294 25.5525 265.169 25.5315 265.058 25.4897C264.954 25.4479 264.864 25.3851 264.787 25.3154C264.718 25.2387 264.662 25.148 264.627 25.0434C264.593 24.9388 264.579 24.8272 264.579 24.7087C264.579 24.5622 264.6 24.4367 264.641 24.3321C264.69 24.2206 264.746 24.1299 264.815 24.0602C264.885 23.9904 264.968 23.9346 265.065 23.8928C265.162 23.8579 265.26 23.837 265.357 23.837C265.586 23.837 265.774 23.9068 265.906 24.0532C266.038 24.1927 266.107 24.4019 266.107 24.6808V24.7575V24.7575ZM267.344 25.5176C267.275 25.5315 267.191 25.5455 267.094 25.5455C266.969 25.5455 266.865 25.5315 266.781 25.4967C266.698 25.4618 266.635 25.413 266.58 25.3572C266.531 25.2944 266.497 25.2177 266.476 25.1341C266.455 25.0504 266.448 24.9528 266.448 24.8482V23.4744L266.906 23.3977V23.8789H267.462V24.2624H266.906V24.8342C266.906 24.9318 266.92 25.0085 266.955 25.0643C266.99 25.1201 267.059 25.148 267.164 25.148C267.212 25.148 267.261 25.141 267.316 25.1341C267.372 25.1271 267.421 25.1131 267.462 25.0922L267.525 25.4548C267.476 25.4827 267.414 25.5036 267.344 25.5176V25.5176ZM269.227 24.7575C269.227 24.7854 269.22 24.8133 269.22 24.8412H268.171C268.178 24.9388 268.227 25.0085 268.303 25.0713C268.379 25.1271 268.484 25.155 268.616 25.155C268.699 25.155 268.782 25.148 268.866 25.1341C268.949 25.1201 269.019 25.0992 269.067 25.0783L269.13 25.4548C269.102 25.4688 269.074 25.4827 269.033 25.4897C268.991 25.5036 268.942 25.5106 268.894 25.5176C268.845 25.5246 268.789 25.5385 268.734 25.5455C268.678 25.5525 268.616 25.5525 268.56 25.5525C268.414 25.5525 268.289 25.5315 268.178 25.4897C268.074 25.4479 267.983 25.3851 267.907 25.3154C267.837 25.2387 267.782 25.148 267.747 25.0434C267.712 24.9388 267.699 24.8272 267.699 24.7087C267.699 24.5622 267.719 24.4367 267.761 24.3321C267.81 24.2206 267.865 24.1299 267.935 24.0602C268.004 23.9904 268.088 23.9346 268.185 23.8928C268.282 23.8579 268.379 23.837 268.477 23.837C268.706 23.837 268.894 23.9068 269.026 24.0532C269.158 24.1927 269.227 24.4019 269.227 24.6808V24.7575V24.7575ZM270.561 25.4269C270.443 25.5106 270.269 25.5525 270.054 25.5525C269.908 25.5525 269.79 25.5385 269.693 25.5176C269.595 25.4897 269.533 25.4688 269.491 25.4548L269.568 25.0783C269.644 25.1062 269.727 25.1341 269.811 25.155C269.894 25.1689 269.978 25.1829 270.054 25.1829C270.137 25.1829 270.2 25.1759 270.235 25.155C270.269 25.1341 270.29 25.1062 270.29 25.0574C270.29 25.0225 270.269 24.9876 270.221 24.9597C270.172 24.9318 270.11 24.897 270.012 24.8621C269.943 24.8342 269.873 24.8063 269.811 24.7784C269.755 24.7505 269.707 24.7157 269.665 24.6738C269.623 24.632 269.588 24.5832 269.568 24.5274C269.547 24.4716 269.533 24.4019 269.533 24.3252C269.533 24.1717 269.588 24.0532 269.7 23.9625C269.811 23.8719 269.971 23.83 270.165 23.83C270.262 23.83 270.36 23.837 270.45 23.8579C270.54 23.8719 270.61 23.8928 270.665 23.9137L270.582 24.2763C270.526 24.2554 270.471 24.2415 270.408 24.2275C270.346 24.2136 270.276 24.2066 270.2 24.2066C270.054 24.2066 269.984 24.2484 269.984 24.3252C269.984 24.3461 269.984 24.36 269.991 24.374C269.998 24.3879 270.012 24.4019 270.026 24.4158C270.047 24.4298 270.068 24.4437 270.103 24.4576C270.137 24.4716 270.179 24.4855 270.228 24.5065C270.332 24.5413 270.415 24.5832 270.478 24.618C270.547 24.6529 270.596 24.6947 270.631 24.7366C270.672 24.7784 270.7 24.8272 270.714 24.876C270.728 24.9249 270.742 24.9876 270.742 25.0574C270.742 25.2177 270.679 25.3433 270.561 25.4269V25.4269Z" fill="white"/>
<path d="M267.942 4.98116C267.983 4.98116 268.018 4.98116 268.053 4.97419C268.088 4.97419 268.115 4.96722 268.136 4.96024V4.13739C268.108 4.11647 268.074 4.10252 268.025 4.08858C267.976 4.07463 267.935 4.06766 267.886 4.06766C267.671 4.06766 267.566 4.2141 267.566 4.50698C267.566 4.64644 267.601 4.75802 267.664 4.84867C267.719 4.93235 267.817 4.98116 267.942 4.98116V4.98116ZM258.916 4.24896C258.902 4.2141 258.888 4.17923 258.867 4.15134C258.847 4.12344 258.812 4.10252 258.777 4.0816C258.742 4.06068 258.701 4.05371 258.645 4.05371C258.596 4.05371 258.548 4.06068 258.513 4.0816C258.478 4.09555 258.444 4.12344 258.423 4.15134C258.395 4.17923 258.381 4.2141 258.367 4.24896C258.353 4.28383 258.346 4.32567 258.339 4.36054H258.937C258.93 4.32567 258.923 4.28383 258.916 4.24896V4.24896ZM266.371 4.24896C266.357 4.2141 266.344 4.17923 266.323 4.15134C266.302 4.12344 266.267 4.10252 266.232 4.0816C266.198 4.06068 266.156 4.05371 266.1 4.05371C266.052 4.05371 266.003 4.06068 265.968 4.0816C265.934 4.09555 265.899 4.12344 265.878 4.15134C265.85 4.17923 265.836 4.2141 265.822 4.24896C265.809 4.28383 265.802 4.32567 265.795 4.36054H266.392C266.385 4.32567 266.378 4.28383 266.371 4.24896V4.24896Z" fill="#326CE5"/>
<path d="M256.616 5.12752C256.686 5.20422 256.769 5.26001 256.873 5.30882C256.978 5.35066 257.103 5.37158 257.249 5.37158C257.346 5.37158 257.429 5.36461 257.513 5.34369C257.589 5.32974 257.659 5.30882 257.707 5.2879L257.645 4.91832C257.589 4.93924 257.533 4.96016 257.471 4.96713C257.408 4.97411 257.346 4.98108 257.297 4.98108C257.144 4.98108 257.033 4.93924 256.971 4.86253C256.908 4.78583 256.88 4.67425 256.88 4.52781C256.88 4.38835 256.915 4.28375 256.978 4.20007C257.04 4.11639 257.144 4.07455 257.276 4.07455C257.339 4.07455 257.394 4.08152 257.45 4.09547C257.499 4.10941 257.547 4.12336 257.589 4.13731L257.686 3.77469C257.617 3.7468 257.547 3.72588 257.478 3.71193C257.408 3.69799 257.332 3.69101 257.242 3.69101C257.11 3.69101 256.998 3.71193 256.894 3.76075C256.79 3.80259 256.707 3.86535 256.637 3.94205C256.568 4.01876 256.512 4.10941 256.477 4.21401C256.443 4.31861 256.422 4.42321 256.422 4.54176C256.422 4.66031 256.436 4.77188 256.47 4.87648C256.498 4.96016 256.547 5.05081 256.616 5.12752V5.12752ZM258.075 5.12752C258.145 5.20422 258.235 5.26001 258.339 5.30185C258.444 5.34369 258.569 5.36461 258.715 5.36461C258.77 5.36461 258.826 5.36461 258.888 5.35764C258.944 5.35066 259 5.34369 259.048 5.33672C259.097 5.32974 259.145 5.3158 259.187 5.30185C259.229 5.2879 259.264 5.27396 259.284 5.26698L259.222 4.8974C259.173 4.91832 259.104 4.93924 259.027 4.95319C258.944 4.96713 258.867 4.97411 258.784 4.97411C258.652 4.97411 258.548 4.94621 258.471 4.89043C258.395 4.83464 258.353 4.75793 258.339 4.66728H259.368C259.368 4.63939 259.375 4.61149 259.375 4.5836V4.49992C259.375 4.22796 259.312 4.02573 259.18 3.88627C259.048 3.7468 258.867 3.67707 258.638 3.67707C258.541 3.67707 258.444 3.69799 258.353 3.73285C258.263 3.76772 258.18 3.82351 258.11 3.89324C258.041 3.96297 257.985 4.05363 257.936 4.15823C257.895 4.26283 257.874 4.38835 257.874 4.53479C257.874 4.65333 257.888 4.76491 257.923 4.86253C257.95 4.96713 258.006 5.05779 258.075 5.12752V5.12752ZM258.36 4.24888C258.374 4.21401 258.395 4.17915 258.416 4.15125C258.444 4.12336 258.471 4.10244 258.506 4.08152C258.541 4.06757 258.59 4.05363 258.638 4.05363C258.694 4.05363 258.735 4.0606 258.77 4.08152C258.805 4.10244 258.833 4.12336 258.861 4.15125C258.881 4.17915 258.902 4.21401 258.909 4.24888C258.923 4.28375 258.93 4.32559 258.93 4.36045H258.332C258.339 4.32559 258.353 4.28375 258.36 4.24888V4.24888ZM260.181 4.09547C260.202 4.08849 260.229 4.08152 260.271 4.08152C260.313 4.07455 260.347 4.07455 260.375 4.07455C260.438 4.07455 260.5 4.08152 260.549 4.08849C260.605 4.10244 260.653 4.10941 260.695 4.12336L260.771 3.7468C260.743 3.73983 260.716 3.72588 260.681 3.71891L260.577 3.69799C260.542 3.69101 260.507 3.69101 260.473 3.68404C260.438 3.68404 260.41 3.67707 260.382 3.67707C260.243 3.67707 260.125 3.69101 260.014 3.71193C259.903 3.73983 259.805 3.76772 259.729 3.79561V5.3158H260.181V4.09547V4.09547ZM261.126 5.16936C261.174 5.23212 261.237 5.27396 261.32 5.30882C261.404 5.34369 261.501 5.35764 261.626 5.35764C261.723 5.35764 261.807 5.35066 261.876 5.32974C261.946 5.3158 262.001 5.29488 262.057 5.27396L261.994 4.91832C261.952 4.93227 261.904 4.94621 261.855 4.95319C261.807 4.96016 261.751 4.96713 261.702 4.96713C261.598 4.96713 261.536 4.93924 261.501 4.88345C261.466 4.82767 261.452 4.75096 261.452 4.65333V4.09547H261.994V3.71891H261.452V3.24472L261.001 3.32143V4.67425C261.001 4.77885 261.008 4.86951 261.028 4.96016C261.042 5.03687 261.077 5.11357 261.126 5.16936V5.16936ZM262.362 3.71891H262.814V5.32974H262.362V3.71891ZM262.585 3.52366C262.661 3.52366 262.724 3.50274 262.772 3.45392C262.828 3.40511 262.856 3.34235 262.856 3.25867C262.856 3.17499 262.828 3.11223 262.772 3.06342C262.717 3.0146 262.654 2.99368 262.585 2.99368C262.508 2.99368 262.446 3.0146 262.397 3.06342C262.342 3.11223 262.314 3.17499 262.314 3.25867C262.314 3.34235 262.342 3.40511 262.397 3.45392C262.453 3.50274 262.515 3.52366 262.585 3.52366ZM264.746 3.52366C264.822 3.52366 264.885 3.50274 264.933 3.45392C264.989 3.40511 265.017 3.34235 265.017 3.25867C265.017 3.17499 264.989 3.11223 264.933 3.06342C264.878 3.0146 264.815 2.99368 264.746 2.99368C264.676 2.99368 264.607 3.0146 264.558 3.06342C264.502 3.11223 264.475 3.17499 264.475 3.25867C264.475 3.34235 264.502 3.40511 264.558 3.45392C264.607 3.50274 264.669 3.52366 264.746 3.52366ZM264.516 3.71891H264.968V5.32974H264.516V3.71891ZM263.696 4.09547H264.259V3.71891H263.696V3.6422C263.696 3.60036 263.703 3.55852 263.71 3.52366C263.717 3.48879 263.738 3.45392 263.759 3.42603C263.78 3.39814 263.808 3.37722 263.849 3.36327C263.884 3.34932 263.933 3.34235 263.988 3.34235C264.03 3.34235 264.072 3.34235 264.106 3.34932C264.148 3.3563 264.183 3.36327 264.218 3.37722L264.294 3.02158C264.252 3.00763 264.211 2.98671 264.155 2.97276C264.099 2.95882 264.03 2.95184 263.947 2.95184C263.717 2.95184 263.544 3.0146 263.425 3.13315C263.307 3.25867 263.252 3.41906 263.252 3.62826V5.32277H263.703V4.09547H263.696ZM265.531 5.12752C265.6 5.20422 265.691 5.26001 265.795 5.30185C265.899 5.34369 266.024 5.36461 266.17 5.36461C266.226 5.36461 266.281 5.36461 266.344 5.35764C266.399 5.35066 266.455 5.34369 266.503 5.33672C266.552 5.32974 266.601 5.3158 266.642 5.30185C266.684 5.2879 266.719 5.27396 266.74 5.26698L266.677 4.8974C266.629 4.91832 266.559 4.93924 266.483 4.95319C266.399 4.96713 266.323 4.97411 266.239 4.97411C266.107 4.97411 266.003 4.94621 265.927 4.89043C265.85 4.83464 265.809 4.75793 265.795 4.66728H266.816C266.816 4.63939 266.823 4.61149 266.823 4.5836V4.49992C266.823 4.22796 266.754 4.02573 266.629 3.88627C266.497 3.7468 266.316 3.67707 266.087 3.67707C265.989 3.67707 265.892 3.69799 265.802 3.73285C265.711 3.76772 265.628 3.82351 265.559 3.89324C265.489 3.96297 265.433 4.05363 265.385 4.15823C265.343 4.26283 265.322 4.38835 265.322 4.53479C265.322 4.65333 265.336 4.76491 265.371 4.86253C265.406 4.96713 265.461 5.05779 265.531 5.12752V5.12752ZM265.816 4.24888C265.83 4.21401 265.85 4.17915 265.871 4.15125C265.899 4.12336 265.927 4.10244 265.962 4.08152C265.996 4.06757 266.045 4.05363 266.094 4.05363C266.149 4.05363 266.191 4.0606 266.226 4.08152C266.26 4.10244 266.288 4.12336 266.316 4.15125C266.337 4.17915 266.358 4.21401 266.365 4.24888C266.378 4.28375 266.385 4.32559 266.385 4.36045H265.788C265.795 4.32559 265.802 4.28375 265.816 4.24888V4.24888ZM267.323 5.14147C267.393 5.2112 267.483 5.26699 267.587 5.30882C267.692 5.35066 267.81 5.36461 267.942 5.36461C267.997 5.36461 268.053 5.36461 268.115 5.35764C268.178 5.35066 268.234 5.34369 268.289 5.33672C268.345 5.32974 268.4 5.3158 268.456 5.30882C268.511 5.29488 268.553 5.28791 268.595 5.27396V2.95184L268.143 3.02855V3.75377C268.095 3.73285 268.039 3.71194 267.99 3.70496C267.942 3.69102 267.886 3.68404 267.824 3.68404C267.712 3.68404 267.608 3.70496 267.518 3.73983C267.428 3.78167 267.358 3.83745 267.296 3.90719C267.233 3.98389 267.191 4.06757 267.157 4.17217C267.122 4.27677 267.108 4.39532 267.108 4.52781C267.108 4.65333 267.129 4.77188 267.164 4.87648C267.198 4.98108 267.247 5.07173 267.323 5.14147V5.14147ZM267.886 4.06757C267.935 4.06757 267.976 4.07455 268.025 4.08849C268.074 4.10244 268.108 4.11639 268.136 4.13731V4.96713C268.115 4.97411 268.088 4.97411 268.053 4.98108C268.018 4.98108 267.983 4.98805 267.942 4.98805C267.817 4.98805 267.726 4.94621 267.664 4.86253C267.601 4.77885 267.567 4.66728 267.567 4.52084C267.567 4.21401 267.671 4.06757 267.886 4.06757V4.06757Z" fill="white"/>
<path d="M264.134 18.4187C264.134 18.4187 264.141 18.4187 264.141 18.4118C264.141 18.4187 264.134 18.4187 264.134 18.4187ZM264.725 17.8539C264.919 17.6098 265.065 17.3379 265.169 17.045L263.752 16.8009C263.731 16.794 263.717 16.794 263.696 16.794C263.662 16.794 263.634 16.8009 263.606 16.8149C263.488 16.8707 263.439 17.0101 263.488 17.1287L264.037 18.4676C264.301 18.3141 264.537 18.1049 264.725 17.8539ZM260.98 18.4745L261.522 17.1496L261.515 17.1426C261.536 17.0938 261.543 17.045 261.529 16.9962C261.501 16.8846 261.411 16.8079 261.299 16.8079C261.285 16.8079 261.272 16.8079 261.258 16.8149L259.847 17.052C259.951 17.3448 260.104 17.6238 260.306 17.8678C260.493 18.1049 260.723 18.3072 260.98 18.4745ZM260.521 14.0534L261.695 14.8902C261.737 14.9181 261.786 14.9391 261.834 14.9391C261.959 14.9391 262.071 14.8414 262.071 14.7089H262.078L262.161 13.2724C262.064 13.2864 261.966 13.3003 261.869 13.3212C261.362 13.4328 260.889 13.6839 260.521 14.0534V14.0534ZM263.738 13.5235C263.46 13.391 263.161 13.3003 262.856 13.2585L262.939 14.695C262.939 14.7438 262.96 14.7926 262.988 14.8345C263.071 14.9321 263.21 14.953 263.314 14.8763H263.321L264.489 14.0465C264.266 13.8373 264.009 13.6629 263.738 13.5235V13.5235ZM263.773 15.6852C263.745 15.8107 263.822 15.9362 263.94 15.9711V15.9781L265.322 16.3756C265.35 16.0687 265.329 15.7619 265.26 15.4621C265.19 15.1552 265.072 14.8693 264.912 14.6043L263.849 15.5597C263.815 15.5876 263.787 15.6364 263.773 15.6852V15.6852ZM263.141 18.8581C263.238 18.8371 263.328 18.8092 263.419 18.7814L262.724 17.5262H262.717C262.696 17.4843 262.654 17.4494 262.613 17.4216C262.578 17.4076 262.543 17.4006 262.508 17.4006H262.501C262.418 17.4006 262.342 17.4494 262.3 17.5262L261.605 18.7814C262.098 18.9417 262.626 18.9696 263.141 18.8581ZM264.655 17.9515C264.655 17.9515 264.655 17.9446 264.655 17.9515C264.655 17.9446 264.655 17.9515 264.655 17.9515ZM260.09 14.5974C259.931 14.8623 259.812 15.1413 259.75 15.4411C259.68 15.748 259.66 16.0618 259.694 16.3756L261.07 15.9781V15.9711C261.119 15.9572 261.16 15.9293 261.195 15.8874C261.272 15.7898 261.265 15.6434 261.167 15.5597V15.5527L260.09 14.5974V14.5974ZM262.286 15.6294L262.015 15.9711L262.112 16.3965L262.508 16.5917L262.897 16.3965L262.995 15.9711L262.724 15.6294H262.286Z" fill="#326CE5"/>
<path d="M265.044 22.2541C265.308 22.2541 265.558 22.1355 265.725 21.9263L268.887 17.9794C269.053 17.7702 269.116 17.4983 269.053 17.2402L267.928 12.3241C267.865 12.066 267.692 11.8499 267.455 11.7313L262.883 9.5417C262.751 9.47894 262.606 9.45104 262.46 9.45802C262.341 9.46499 262.23 9.49288 262.126 9.5417L257.561 11.7313C257.325 11.8429 257.144 12.066 257.089 12.3241L255.963 17.2472C255.908 17.4773 255.956 17.7144 256.081 17.9167C256.095 17.9376 256.116 17.9655 256.13 17.9864L259.291 21.9333C259.458 22.1425 259.708 22.261 259.972 22.261L265.044 22.2541V22.2541ZM260.653 19.2695L260.702 19.1509C259.951 18.7046 259.395 18.0003 259.124 17.1775L259.006 17.1984C258.999 17.1984 258.999 17.1914 258.992 17.1914C258.958 17.1705 258.902 17.1356 258.847 17.1426C258.701 17.1635 258.555 17.2193 258.381 17.2821H258.374C258.346 17.296 258.319 17.303 258.291 17.317C258.235 17.3379 258.186 17.3588 258.124 17.3797C258.11 17.3867 258.089 17.3867 258.075 17.3937C258.068 17.3937 258.061 17.3937 258.054 17.4006C257.895 17.4355 257.735 17.3448 257.7 17.1984C257.665 17.052 257.77 16.8986 257.936 16.8637C257.943 16.8637 257.95 16.8637 257.957 16.8567C257.978 16.8497 257.992 16.8497 258.006 16.8428C258.068 16.8288 258.124 16.8288 258.18 16.8288C258.207 16.8288 258.235 16.8288 258.27 16.8218H258.277C258.464 16.8009 258.624 16.787 258.763 16.7451C258.805 16.7312 258.84 16.6824 258.867 16.6405L258.881 16.6266L258.992 16.5917C258.867 15.727 259.069 14.8484 259.548 14.1162L259.465 14.0395V14.0255C259.458 13.9837 259.451 13.9209 259.409 13.8791C259.305 13.7745 259.166 13.6908 259.006 13.5932C258.979 13.5792 258.951 13.5653 258.93 13.5514C258.881 13.5235 258.833 13.5025 258.784 13.4607C258.77 13.4537 258.756 13.4398 258.742 13.4258C258.735 13.4189 258.728 13.4189 258.728 13.4119C258.666 13.3631 258.624 13.2933 258.61 13.2166C258.596 13.1399 258.617 13.0632 258.659 13.0074C258.708 12.9447 258.784 12.9098 258.867 12.9098H258.874C258.944 12.9098 259.013 12.9377 259.069 12.9795C259.076 12.9865 259.083 12.9865 259.083 12.9935C259.097 13.0074 259.118 13.0214 259.124 13.0284C259.173 13.0702 259.208 13.112 259.243 13.1539C259.263 13.1748 259.277 13.1957 259.298 13.2166L259.305 13.2236C259.437 13.3561 259.548 13.4677 259.666 13.5514C259.722 13.5862 259.764 13.5792 259.805 13.5723H259.826C259.84 13.5862 259.896 13.6211 259.924 13.642C260.403 13.126 261.021 12.7773 261.709 12.6169C261.869 12.5821 262.036 12.5542 262.203 12.5402L262.209 12.4287C262.244 12.3938 262.286 12.345 262.3 12.2892C262.314 12.1427 262.293 11.9824 262.272 11.7941V11.7871C262.265 11.7592 262.265 11.7313 262.258 11.7034C262.244 11.6476 262.237 11.5919 262.237 11.5291V11.4524C262.237 11.285 262.362 11.1456 262.515 11.1456C262.668 11.1456 262.793 11.285 262.793 11.4524V11.5291C262.793 11.5919 262.779 11.6476 262.772 11.7034C262.765 11.7313 262.758 11.7592 262.758 11.7871V11.8011C262.738 11.9824 262.717 12.1427 262.731 12.2822C262.738 12.345 262.772 12.3729 262.807 12.4008L262.821 12.4147C262.821 12.4356 262.828 12.4984 262.828 12.5333C263.259 12.5751 263.676 12.6867 264.065 12.8819C264.454 13.0702 264.801 13.3212 265.093 13.635L265.197 13.5583H265.211C265.253 13.5583 265.315 13.5653 265.364 13.5374C265.482 13.4537 265.593 13.3422 265.725 13.2097L265.732 13.2027C265.753 13.1818 265.774 13.1609 265.788 13.1399C265.822 13.0981 265.864 13.0563 265.913 13.0144C265.927 13.0074 265.941 12.9935 265.954 12.9795C265.961 12.9726 265.968 12.9726 265.968 12.9656C266.1 12.861 266.288 12.868 266.378 12.9935C266.476 13.112 266.441 13.2933 266.309 13.3979C266.302 13.4049 266.295 13.4049 266.288 13.4119C266.274 13.4258 266.26 13.4328 266.246 13.4468C266.198 13.4816 266.149 13.5095 266.1 13.5374C266.073 13.5514 266.052 13.5653 266.024 13.5792C265.864 13.6769 265.725 13.7675 265.621 13.8652C265.579 13.914 265.572 13.9558 265.572 13.9976V14.0186C265.565 14.0255 265.552 14.0395 265.531 14.0534C265.51 14.0674 265.489 14.0883 265.475 14.1022C265.718 14.4649 265.892 14.8623 265.989 15.2877C266.087 15.7131 266.107 16.1385 266.045 16.5708L266.156 16.6057C266.156 16.6057 266.163 16.6126 266.163 16.6196C266.184 16.6545 266.219 16.7103 266.274 16.7242C266.413 16.7661 266.573 16.787 266.76 16.8009H266.767C266.795 16.8009 266.83 16.8079 266.858 16.8079C266.913 16.8079 266.969 16.8149 267.031 16.8218C267.045 16.8218 267.066 16.8288 267.08 16.8358C267.094 16.8358 267.101 16.8428 267.108 16.8428C267.268 16.8846 267.372 17.031 267.344 17.1775C267.309 17.3239 267.15 17.4146 266.99 17.3797C266.983 17.3797 266.976 17.3727 266.962 17.3727C266.948 17.3727 266.927 17.3658 266.92 17.3658C266.858 17.3518 266.809 17.3309 266.76 17.303C266.733 17.2891 266.705 17.2821 266.677 17.2681H266.67C266.496 17.2054 266.344 17.1496 266.205 17.1287H266.191C266.135 17.1287 266.107 17.1496 266.073 17.1775C266.066 17.1845 266.059 17.1845 266.059 17.1914C266.038 17.1845 265.982 17.1775 265.941 17.1705C265.809 17.5819 265.607 17.9655 265.336 18.3072C265.065 18.6489 264.739 18.9348 264.363 19.1579C264.37 19.1649 264.37 19.1788 264.377 19.1928C264.391 19.2207 264.398 19.2555 264.405 19.2625C264.405 19.2695 264.398 19.2765 264.398 19.2834C264.384 19.3253 264.363 19.3671 264.384 19.4229C264.44 19.5624 264.523 19.7018 264.627 19.8552C264.641 19.8831 264.662 19.9041 264.676 19.925C264.711 19.9738 264.739 20.0156 264.773 20.0714C264.78 20.0854 264.787 20.1063 264.801 20.1202C264.808 20.1272 264.808 20.1342 264.815 20.1411C264.884 20.2946 264.836 20.4689 264.697 20.5317C264.627 20.5665 264.551 20.5665 264.481 20.5386C264.412 20.5107 264.349 20.4549 264.315 20.3782C264.315 20.3713 264.308 20.3643 264.308 20.3573C264.301 20.3364 264.287 20.3225 264.287 20.3085C264.259 20.2527 264.245 20.1969 264.231 20.1411C264.224 20.1133 264.217 20.0854 264.204 20.0575V20.0505C264.141 19.8762 264.092 19.7227 264.016 19.5972C263.981 19.5414 263.94 19.5345 263.898 19.5205C263.891 19.5205 263.884 19.5135 263.877 19.5135C263.87 19.5066 263.863 19.4857 263.849 19.4647C263.835 19.4438 263.828 19.4229 263.821 19.4089C263.669 19.4647 263.509 19.5135 263.356 19.5484C262.668 19.7018 261.959 19.653 261.299 19.402L261.237 19.5135C261.195 19.5275 261.146 19.5345 261.119 19.5693C261.049 19.653 261.007 19.7716 260.966 19.8971C260.945 19.9529 260.931 20.0087 260.91 20.0575C260.903 20.0854 260.896 20.1133 260.882 20.1411C260.868 20.1969 260.855 20.2457 260.827 20.3085C260.82 20.3225 260.813 20.3364 260.806 20.3573C260.799 20.3643 260.799 20.3713 260.792 20.3782C260.736 20.4898 260.632 20.5595 260.521 20.5595C260.486 20.5595 260.445 20.5526 260.41 20.5317C260.278 20.4689 260.222 20.2876 260.292 20.1411C260.299 20.1342 260.299 20.1272 260.306 20.1133C260.313 20.0993 260.32 20.0784 260.327 20.0644C260.354 20.0087 260.389 19.9668 260.424 19.918C260.438 19.8971 260.459 19.8692 260.472 19.8483C260.584 19.6809 260.667 19.5345 260.723 19.402C260.688 19.3741 260.667 19.3113 260.653 19.2695V19.2695Z" fill="#326CE5"/>
<path d="M260.431 19.8692C260.417 19.8971 260.396 19.918 260.382 19.9389C260.347 19.9877 260.32 20.0295 260.285 20.0853C260.278 20.0993 260.271 20.1132 260.264 20.1341C260.257 20.1411 260.257 20.1551 260.25 20.162C260.181 20.3154 260.229 20.4898 260.368 20.5525C260.403 20.5665 260.438 20.5804 260.479 20.5804C260.591 20.5804 260.695 20.5107 260.75 20.3991C260.75 20.3922 260.757 20.3852 260.764 20.3782C260.771 20.3643 260.778 20.3433 260.785 20.3294C260.813 20.2736 260.827 20.2178 260.841 20.162C260.848 20.1341 260.855 20.1063 260.869 20.0784C260.889 20.0226 260.91 19.9668 260.924 19.918C260.966 19.7924 261.008 19.6739 261.077 19.5902C261.105 19.5554 261.146 19.5484 261.195 19.5344L261.258 19.4229C261.918 19.6739 262.626 19.7297 263.314 19.5693C263.474 19.5344 263.627 19.4856 263.78 19.4298C263.787 19.4438 263.801 19.4647 263.808 19.4856C263.822 19.5065 263.828 19.5275 263.835 19.5344C263.842 19.5344 263.849 19.5414 263.856 19.5414C263.898 19.5554 263.94 19.5693 263.974 19.6181C264.051 19.7436 264.099 19.897 264.162 20.0714V20.0784C264.169 20.1063 264.176 20.1341 264.19 20.162C264.204 20.2178 264.218 20.2666 264.245 20.3294C264.252 20.3433 264.259 20.3643 264.266 20.3782C264.266 20.3852 264.273 20.3922 264.273 20.3991C264.308 20.4758 264.37 20.5316 264.44 20.5595C264.509 20.5874 264.586 20.5874 264.655 20.5525C264.787 20.4898 264.843 20.3085 264.773 20.162C264.773 20.1551 264.766 20.1481 264.76 20.1411C264.753 20.1202 264.746 20.1062 264.732 20.0923C264.704 20.0365 264.669 19.9947 264.634 19.9459C264.621 19.9249 264.6 19.897 264.586 19.8761C264.482 19.7157 264.398 19.5763 264.343 19.4438C264.322 19.381 264.343 19.3392 264.357 19.3043C264.357 19.2973 264.363 19.2904 264.363 19.2834C264.357 19.2764 264.343 19.2416 264.336 19.2137C264.329 19.1997 264.329 19.1858 264.322 19.1788C264.697 18.9556 265.024 18.6697 265.295 18.3281C265.565 17.9864 265.767 17.6028 265.899 17.1914C265.934 17.1984 265.996 17.2053 266.017 17.2123C266.024 17.2053 266.031 17.2053 266.031 17.1984C266.066 17.1775 266.094 17.1496 266.149 17.1496H266.163C266.309 17.1705 266.455 17.2263 266.629 17.289H266.636C266.663 17.303 266.691 17.3099 266.719 17.3239C266.774 17.3448 266.823 17.3657 266.879 17.3867C266.893 17.3867 266.906 17.3936 266.92 17.3936C266.927 17.3936 266.941 17.4006 266.948 17.4006C267.108 17.4355 267.268 17.3448 267.303 17.1984C267.337 17.0519 267.233 16.8985 267.066 16.8637C267.059 16.8637 267.045 16.8567 267.038 16.8567C267.018 16.8497 267.004 16.8497 266.99 16.8427C266.927 16.8288 266.872 16.8288 266.816 16.8288C266.788 16.8288 266.761 16.8288 266.726 16.8218H266.719C266.531 16.8009 266.371 16.7869 266.233 16.7451C266.184 16.7242 266.142 16.6684 266.121 16.6405C266.121 16.6335 266.114 16.6335 266.114 16.6266L266.003 16.5917C266.059 16.1663 266.045 15.734 265.948 15.3086C265.85 14.8832 265.677 14.4857 265.433 14.1231C265.447 14.1092 265.468 14.0883 265.489 14.0743C265.51 14.0604 265.524 14.0464 265.531 14.0395V14.0185C265.531 13.9767 265.538 13.9279 265.579 13.886C265.684 13.7884 265.823 13.6978 265.982 13.6001C266.01 13.5862 266.038 13.5722 266.059 13.5583C266.107 13.5304 266.156 13.5095 266.205 13.4676C266.219 13.4607 266.233 13.4467 266.246 13.4328C266.253 13.4258 266.26 13.4188 266.267 13.4188C266.399 13.3142 266.427 13.1329 266.337 13.0144C266.239 12.8958 266.059 12.8819 265.927 12.9865C265.92 12.9935 265.913 12.9935 265.913 13.0004C265.899 13.0144 265.878 13.0283 265.871 13.0353C265.823 13.0771 265.788 13.119 265.746 13.1608C265.725 13.1817 265.711 13.2027 265.691 13.2236L265.684 13.2305C265.552 13.363 265.447 13.4746 265.322 13.5583C265.274 13.5862 265.211 13.5792 265.169 13.5792H265.156L265.051 13.6559C264.753 13.3421 264.405 13.0911 264.023 12.9028C263.634 12.7145 263.217 12.596 262.786 12.5541C262.786 12.5193 262.779 12.4565 262.779 12.4356L262.765 12.4216C262.731 12.3937 262.703 12.3659 262.689 12.3031C262.675 12.1567 262.696 12.0032 262.717 11.8219V11.808C262.724 11.7801 262.724 11.7522 262.731 11.7243C262.745 11.6685 262.752 11.6127 262.752 11.55V11.4733C262.752 11.3059 262.626 11.1664 262.474 11.1664C262.321 11.1664 262.196 11.3059 262.196 11.4733V11.55C262.196 11.6127 262.21 11.6685 262.217 11.7243C262.223 11.7522 262.23 11.7801 262.23 11.808V11.815C262.251 12.0032 262.272 12.1636 262.258 12.3101C262.244 12.3659 262.203 12.4147 262.168 12.4495L262.161 12.5611C261.994 12.5751 261.827 12.6029 261.668 12.6378C260.98 12.7912 260.361 13.1469 259.882 13.6629C259.854 13.642 259.799 13.6071 259.785 13.5932H259.764C259.722 13.6001 259.68 13.6071 259.625 13.5722C259.507 13.4886 259.389 13.377 259.264 13.2445L259.257 13.2375C259.236 13.2166 259.215 13.1957 259.201 13.1748C259.166 13.1329 259.132 13.0911 259.083 13.0492C259.069 13.0353 259.055 13.0283 259.041 13.0144C259.034 13.0074 259.027 13.0074 259.027 13.0004C258.972 12.9586 258.902 12.9307 258.833 12.9307H258.826C258.742 12.9307 258.666 12.9656 258.617 13.0283C258.569 13.0841 258.555 13.1608 258.569 13.2375C258.583 13.3142 258.624 13.384 258.687 13.4328C258.694 13.4397 258.701 13.4397 258.701 13.4467C258.715 13.4607 258.729 13.4676 258.742 13.4816C258.791 13.5165 258.84 13.5443 258.888 13.5722C258.916 13.5862 258.937 13.6001 258.965 13.6141C259.125 13.7117 259.264 13.8024 259.368 13.9C259.403 13.9418 259.416 14.0046 259.423 14.0464V14.0604L259.507 14.1371C259.02 14.8693 258.826 15.7479 258.951 16.6126L258.84 16.6475L258.826 16.6614C258.798 16.7033 258.756 16.7521 258.722 16.766C258.583 16.8079 258.423 16.8288 258.235 16.8427H258.228C258.2 16.8427 258.166 16.8497 258.138 16.8497C258.082 16.8497 258.027 16.8567 257.964 16.8637C257.95 16.8637 257.93 16.8706 257.916 16.8776C257.909 16.8776 257.902 16.8846 257.895 16.8846C257.735 16.9264 257.631 17.0729 257.659 17.2193C257.693 17.3657 257.853 17.4564 258.013 17.4215C258.02 17.4215 258.027 17.4215 258.034 17.4145C258.055 17.4076 258.068 17.4076 258.082 17.4006C258.145 17.3867 258.194 17.3657 258.249 17.3378C258.277 17.3239 258.305 17.3169 258.333 17.303H258.339C258.513 17.2402 258.666 17.1844 258.805 17.1635C258.861 17.1565 258.916 17.1914 258.951 17.2123C258.958 17.2123 258.958 17.2193 258.965 17.2193L259.083 17.1984C259.347 18.0282 259.91 18.7255 260.66 19.1718L260.611 19.2904C260.625 19.3322 260.646 19.395 260.639 19.4438C260.625 19.5554 260.535 19.6948 260.431 19.8692V19.8692ZM261.16 15.5596C261.258 15.6433 261.272 15.7898 261.188 15.8874C261.153 15.9292 261.112 15.9571 261.063 15.9711V15.978L259.687 16.3755C259.653 16.0617 259.673 15.7479 259.743 15.4411C259.812 15.1412 259.924 14.8553 260.083 14.5973L261.16 15.5596V15.5596ZM261.258 16.8148H261.306C261.417 16.8148 261.508 16.8915 261.536 17.0031C261.549 17.0519 261.543 17.1007 261.522 17.1496L261.529 17.1565L260.987 18.4815C260.73 18.3141 260.5 18.1119 260.313 17.8748C260.118 17.6307 259.965 17.3588 259.854 17.0589L261.258 16.8148ZM263.314 14.8832C263.21 14.9599 263.064 14.939 262.988 14.8414C262.953 14.7995 262.939 14.7507 262.939 14.7019L262.856 13.2654C263.161 13.3003 263.46 13.3909 263.738 13.5304C264.016 13.6629 264.266 13.8442 264.489 14.0604L263.314 14.8832V14.8832ZM262.078 14.7019C262.064 14.8344 261.959 14.939 261.834 14.939C261.786 14.939 261.737 14.9251 261.695 14.8902L260.521 14.0534C260.896 13.6838 261.362 13.4328 261.876 13.3142C261.966 13.2933 262.064 13.2794 262.168 13.2654L262.078 14.7019V14.7019ZM262.293 17.5191C262.335 17.4424 262.411 17.3936 262.494 17.3936H262.501C262.536 17.3936 262.571 17.4006 262.606 17.4145C262.654 17.4355 262.689 17.4703 262.71 17.5191H262.717L263.412 18.7743C263.321 18.8022 263.231 18.8301 263.134 18.8511C262.619 18.9696 262.091 18.9417 261.591 18.7743L262.293 17.5191V17.5191ZM262.897 16.3964L262.501 16.5847L262.105 16.3964L262.008 15.9711L262.279 15.6294H262.717L262.988 15.9711L262.897 16.3964V16.3964ZM263.488 17.1426C263.439 17.024 263.488 16.8846 263.606 16.8288C263.634 16.8148 263.669 16.8079 263.696 16.8079C263.71 16.8079 263.731 16.8079 263.752 16.8148L265.169 17.0589C265.065 17.3518 264.912 17.6237 264.725 17.8678C264.53 18.1119 264.301 18.3211 264.037 18.4884L263.488 17.1426V17.1426ZM264.655 17.9445C264.655 17.9445 264.655 17.9515 264.655 17.9445C264.655 17.9515 264.655 17.9445 264.655 17.9445ZM263.849 15.5527L264.912 14.5973C265.072 14.8623 265.19 15.1552 265.26 15.455C265.329 15.7549 265.35 16.0687 265.322 16.3685L263.94 15.9711V15.9641C263.815 15.9292 263.738 15.8037 263.773 15.6782C263.787 15.6363 263.815 15.5875 263.849 15.5527V15.5527ZM264.141 18.4117C264.141 18.4117 264.134 18.4117 264.134 18.4187C264.134 18.4187 264.141 18.4187 264.141 18.4117Z" fill="white"/>
<path d="M255.518 25.0294C255.456 24.9457 255.393 24.869 255.324 24.7923C255.254 24.7156 255.192 24.6459 255.129 24.5901C255.254 24.4646 255.366 24.353 255.47 24.2344C255.574 24.1159 255.685 23.9973 255.789 23.8718H255.241C255.213 23.9067 255.178 23.9485 255.136 23.9973C255.095 24.0462 255.053 24.095 255.011 24.1508C254.963 24.1996 254.921 24.2554 254.872 24.3111C254.824 24.3669 254.775 24.4157 254.733 24.4646V23.0978L254.275 23.1745V25.5036H254.733V24.7923C254.782 24.8341 254.838 24.883 254.886 24.9457C254.942 25.0085 254.99 25.0712 255.039 25.134C255.088 25.1968 255.129 25.2665 255.171 25.3293C255.213 25.392 255.254 25.4548 255.282 25.5036H255.81C255.776 25.4339 255.734 25.3572 255.678 25.2735C255.637 25.1968 255.574 25.1131 255.518 25.0294V25.0294ZM256.957 25.134C256.929 25.141 256.894 25.141 256.859 25.148H256.755C256.651 25.148 256.575 25.1131 256.533 25.0503C256.491 24.9876 256.477 24.876 256.477 24.7295V23.8788H256.019V24.7853C256.019 24.8969 256.033 25.0015 256.053 25.0922C256.074 25.1828 256.116 25.2665 256.165 25.3362C256.22 25.406 256.29 25.4548 256.38 25.4896C256.47 25.5245 256.589 25.5454 256.727 25.5454C256.866 25.5454 256.991 25.5385 257.117 25.5175C257.242 25.4966 257.339 25.4757 257.422 25.4548V23.8788H256.964V25.134H256.957ZM259.187 24.0741C259.125 23.9973 259.055 23.9416 258.965 23.9067C258.874 23.8649 258.777 23.8439 258.659 23.8439C258.597 23.8439 258.534 23.8509 258.478 23.8648C258.423 23.8788 258.367 23.8927 258.319 23.9206V23.1048L257.86 23.1815V25.4618C257.902 25.4757 257.95 25.4896 257.999 25.4966C258.055 25.5036 258.11 25.5175 258.166 25.5245C258.228 25.5315 258.284 25.5385 258.346 25.5454C258.409 25.5524 258.464 25.5524 258.52 25.5524C258.652 25.5524 258.777 25.5315 258.881 25.4966C258.986 25.4548 259.076 25.399 259.145 25.3223C259.215 25.2456 259.27 25.1549 259.312 25.0503C259.354 24.9457 259.368 24.8272 259.368 24.6947C259.368 24.5692 259.354 24.4506 259.319 24.346C259.291 24.2344 259.243 24.1438 259.187 24.0741V24.0741ZM258.805 25.0224C258.742 25.1061 258.645 25.1549 258.52 25.1549H258.409C258.374 25.148 258.346 25.148 258.326 25.141V24.2972C258.353 24.2763 258.395 24.2623 258.437 24.2484C258.485 24.2344 258.534 24.2275 258.576 24.2275C258.791 24.2275 258.902 24.3739 258.902 24.6738C258.895 24.8202 258.867 24.9388 258.805 25.0224V25.0224ZM260.424 23.83C260.327 23.83 260.229 23.8509 260.132 23.8858C260.042 23.9206 259.958 23.9764 259.882 24.0531C259.812 24.1229 259.75 24.2135 259.708 24.3251C259.667 24.4297 259.646 24.5622 259.646 24.7017C259.646 24.8202 259.66 24.9318 259.694 25.0364C259.729 25.141 259.785 25.2316 259.854 25.3083C259.924 25.385 260.014 25.4408 260.125 25.4827C260.236 25.5245 260.361 25.5454 260.507 25.5454C260.563 25.5454 260.625 25.5454 260.681 25.5385C260.737 25.5315 260.792 25.5245 260.841 25.5106C260.889 25.5036 260.938 25.4896 260.98 25.4827C261.021 25.4687 261.056 25.4548 261.077 25.4478L261.014 25.0712C260.966 25.0922 260.896 25.1131 260.813 25.127C260.73 25.141 260.653 25.148 260.563 25.148C260.431 25.148 260.327 25.1201 260.25 25.0643C260.174 25.0085 260.125 24.9318 260.118 24.8341H261.167C261.167 24.8063 261.174 24.7784 261.174 24.7505V24.6598C261.174 24.3879 261.105 24.1787 260.973 24.0322C260.841 23.8997 260.653 23.83 260.424 23.83V23.83ZM260.118 24.5273C260.125 24.4855 260.132 24.4506 260.146 24.4157C260.16 24.3739 260.181 24.339 260.202 24.3111C260.229 24.2833 260.257 24.2623 260.292 24.2414C260.327 24.2205 260.375 24.2135 260.424 24.2135C260.479 24.2135 260.521 24.2205 260.556 24.2414C260.591 24.2623 260.625 24.2833 260.646 24.3111C260.674 24.339 260.688 24.3739 260.702 24.4088C260.716 24.4436 260.723 24.4855 260.723 24.5203H260.118V24.5273ZM262.39 23.8579C262.355 23.8509 262.321 23.8509 262.286 23.8439C262.251 23.837 262.223 23.837 262.196 23.837C262.057 23.837 261.932 23.8509 261.82 23.8788C261.709 23.9067 261.612 23.9276 261.529 23.9625V25.5036H261.987V24.2554C262.008 24.2484 262.036 24.2414 262.078 24.2414C262.119 24.2344 262.154 24.2344 262.182 24.2344C262.244 24.2344 262.307 24.2414 262.362 24.2554C262.418 24.2623 262.467 24.2763 262.508 24.2833L262.585 23.8997C262.557 23.8927 262.529 23.8788 262.494 23.8718C262.46 23.8649 262.425 23.8648 262.39 23.8579V23.8579ZM264.092 24.0462C264.037 23.9764 263.967 23.9276 263.87 23.8927C263.78 23.8579 263.662 23.837 263.53 23.837C263.391 23.837 263.266 23.8439 263.141 23.8648C263.016 23.8858 262.918 23.9067 262.835 23.9276V25.5036H263.293V24.2484C263.321 24.2414 263.356 24.2414 263.391 24.2414C263.425 24.2344 263.46 24.2344 263.495 24.2344C263.599 24.2344 263.676 24.2623 263.717 24.3251C263.759 24.3879 263.773 24.4925 263.773 24.6389V25.5036H264.231V24.5831C264.231 24.4715 264.218 24.3669 264.197 24.2763C264.183 24.1856 264.141 24.1089 264.092 24.0462V24.0462ZM265.364 23.83C265.267 23.83 265.169 23.8509 265.072 23.8858C264.982 23.9206 264.898 23.9764 264.822 24.0531C264.753 24.1229 264.69 24.2135 264.648 24.3251C264.607 24.4297 264.586 24.5622 264.586 24.7017C264.586 24.8202 264.6 24.9318 264.634 25.0364C264.669 25.141 264.725 25.2316 264.794 25.3083C264.864 25.385 264.954 25.4408 265.065 25.4827C265.176 25.5245 265.301 25.5454 265.447 25.5454C265.503 25.5454 265.565 25.5454 265.621 25.5385C265.677 25.5315 265.732 25.5245 265.781 25.5106C265.83 25.5036 265.878 25.4896 265.92 25.4827C265.962 25.4687 265.996 25.4548 266.017 25.4478L265.955 25.0712C265.906 25.0922 265.836 25.1131 265.753 25.127C265.67 25.141 265.593 25.148 265.503 25.148C265.371 25.148 265.267 25.1201 265.19 25.0643C265.114 25.0085 265.065 24.9318 265.058 24.8341H266.107C266.107 24.8063 266.114 24.7784 266.114 24.7505V24.6598C266.114 24.3879 266.045 24.1787 265.913 24.0322C265.774 23.8997 265.593 23.83 265.364 23.83ZM265.058 24.5273C265.065 24.4855 265.072 24.4506 265.086 24.4157C265.1 24.3739 265.121 24.339 265.142 24.3111C265.169 24.2833 265.197 24.2623 265.232 24.2414C265.267 24.2205 265.315 24.2135 265.364 24.2135C265.42 24.2135 265.461 24.2205 265.496 24.2414C265.531 24.2623 265.565 24.2833 265.586 24.3111C265.614 24.339 265.628 24.3739 265.642 24.4088C265.656 24.4436 265.663 24.4855 265.663 24.5203H265.058V24.5273ZM267.323 25.141C267.275 25.148 267.219 25.1549 267.17 25.1549C267.066 25.1549 266.997 25.127 266.962 25.0712C266.927 25.0155 266.913 24.9388 266.913 24.8411V24.2693H267.469V23.8858H266.913V23.4046L266.455 23.4813V24.8551C266.455 24.9597 266.462 25.0573 266.483 25.141C266.503 25.2247 266.538 25.3014 266.587 25.3641C266.635 25.4269 266.705 25.4687 266.788 25.5036C266.872 25.5385 266.976 25.5524 267.101 25.5524C267.198 25.5524 267.282 25.5454 267.351 25.5245C267.421 25.5106 267.483 25.4896 267.539 25.4687L267.476 25.1061C267.421 25.1201 267.372 25.127 267.323 25.141V25.141ZM268.484 23.83C268.386 23.83 268.289 23.8509 268.192 23.8858C268.102 23.9206 268.018 23.9764 267.942 24.0531C267.872 24.1229 267.81 24.2135 267.768 24.3251C267.726 24.4297 267.705 24.5622 267.705 24.7017C267.705 24.8202 267.719 24.9318 267.754 25.0364C267.789 25.141 267.844 25.2316 267.914 25.3083C267.983 25.385 268.074 25.4408 268.185 25.4827C268.296 25.5245 268.421 25.5454 268.567 25.5454C268.623 25.5454 268.685 25.5454 268.741 25.5385C268.796 25.5315 268.852 25.5245 268.901 25.5106C268.949 25.5036 268.998 25.4896 269.04 25.4827C269.081 25.4687 269.116 25.4548 269.137 25.4478L269.074 25.0712C269.026 25.0922 268.956 25.1131 268.873 25.127C268.789 25.141 268.713 25.148 268.623 25.148C268.491 25.148 268.386 25.1201 268.31 25.0643C268.234 25.0085 268.185 24.9318 268.178 24.8341H269.227C269.227 24.8063 269.234 24.7784 269.234 24.7505V24.6598C269.234 24.3879 269.165 24.1787 269.033 24.0322C268.894 23.8997 268.713 23.83 268.484 23.83ZM268.171 24.5273C268.178 24.4855 268.185 24.4506 268.199 24.4157C268.213 24.3739 268.234 24.339 268.254 24.3111C268.282 24.2833 268.31 24.2623 268.345 24.2414C268.379 24.2205 268.428 24.2135 268.477 24.2135C268.532 24.2135 268.574 24.2205 268.609 24.2414C268.643 24.2623 268.678 24.2833 268.699 24.3111C268.727 24.339 268.741 24.3739 268.755 24.4088C268.769 24.4436 268.776 24.4855 268.776 24.5203H268.171V24.5273ZM270.638 24.7365C270.603 24.6947 270.547 24.6528 270.485 24.618C270.415 24.5831 270.332 24.5413 270.235 24.5064C270.186 24.4855 270.144 24.4715 270.11 24.4576C270.082 24.4436 270.054 24.4297 270.033 24.4157C270.012 24.4018 270.005 24.3879 269.998 24.3739C269.991 24.36 269.991 24.346 269.991 24.3251C269.991 24.2414 270.061 24.2065 270.207 24.2065C270.283 24.2065 270.353 24.2135 270.415 24.2275C270.478 24.2414 270.54 24.2554 270.589 24.2763L270.672 23.9137C270.617 23.8927 270.547 23.8718 270.457 23.8579C270.367 23.837 270.269 23.83 270.172 23.83C269.971 23.83 269.818 23.8718 269.707 23.9625C269.595 24.0531 269.54 24.1717 269.54 24.3251C269.54 24.4018 269.554 24.4715 269.575 24.5273C269.595 24.5831 269.63 24.6319 269.672 24.6738C269.714 24.7156 269.762 24.7505 269.818 24.7784C269.88 24.8063 269.943 24.8341 270.019 24.862C270.11 24.8969 270.179 24.9318 270.228 24.9597C270.276 24.9876 270.297 25.0155 270.297 25.0573C270.297 25.1061 270.276 25.134 270.242 25.1549C270.207 25.1758 270.144 25.1828 270.061 25.1828C269.978 25.1828 269.901 25.1758 269.818 25.1549C269.734 25.134 269.658 25.1131 269.575 25.0782L269.498 25.4548C269.533 25.4687 269.602 25.4896 269.7 25.5175C269.797 25.5454 269.915 25.5524 270.061 25.5524C270.283 25.5524 270.45 25.5106 270.568 25.4269C270.693 25.3432 270.749 25.2247 270.749 25.0573C270.749 24.9876 270.742 24.9318 270.721 24.876C270.7 24.8272 270.679 24.7784 270.638 24.7365V24.7365Z" fill="#326DE5"/>
<path d="M272.465 6.48743V4.68832C272.465 2.93801 271.04 1.50848 269.296 1.50848H255.713C253.976 1.50848 252.545 2.93801 252.545 4.68832V28.5161H272.465V6.48743ZM267.115 4.20018C267.15 4.09559 267.191 4.00493 267.254 3.9352C267.316 3.85849 267.393 3.80271 267.476 3.76784C267.566 3.726 267.664 3.71205 267.782 3.71205C267.844 3.71205 267.9 3.71903 267.949 3.73297C267.997 3.74692 268.046 3.76087 268.101 3.78179V3.04959L268.553 2.97288V5.295C268.511 5.30894 268.463 5.31592 268.414 5.32986C268.358 5.34381 268.303 5.35078 268.247 5.35776C268.192 5.36473 268.129 5.3717 268.074 5.37868C268.011 5.38565 267.955 5.38565 267.9 5.38565C267.768 5.38565 267.65 5.36473 267.546 5.32986C267.441 5.28802 267.358 5.23224 267.282 5.1625C267.212 5.09277 267.156 5.00212 267.122 4.89752C267.087 4.79292 267.066 4.68134 267.066 4.54885C267.066 4.42333 267.087 4.30478 267.115 4.20018V4.20018ZM265.378 4.17926C265.419 4.07467 265.482 3.98401 265.551 3.91428C265.621 3.84455 265.704 3.78876 265.795 3.75389C265.885 3.71903 265.982 3.69811 266.079 3.69811C266.309 3.69811 266.489 3.76784 266.621 3.90731C266.753 4.04677 266.816 4.249 266.816 4.52096V4.60464C266.816 4.6395 266.809 4.6674 266.809 4.68832H265.781C265.788 4.77897 265.836 4.85568 265.913 4.91146C265.989 4.96725 266.093 4.99514 266.225 4.99514C266.309 4.99514 266.392 4.98817 266.469 4.97422C266.552 4.96028 266.615 4.93936 266.663 4.91844L266.726 5.28802C266.698 5.30197 266.67 5.31592 266.628 5.32289C266.587 5.33684 266.545 5.34381 266.489 5.35776C266.441 5.36473 266.385 5.3717 266.33 5.37868C266.274 5.38565 266.218 5.38565 266.156 5.38565C266.01 5.38565 265.885 5.36473 265.781 5.32289C265.677 5.28105 265.586 5.21829 265.517 5.14856C265.447 5.07185 265.392 4.98817 265.364 4.88357C265.329 4.77897 265.315 4.67437 265.315 4.55582C265.315 4.40938 265.336 4.28386 265.378 4.17926V4.17926ZM264.593 3.07748C264.648 3.02867 264.711 3.00775 264.78 3.00775C264.857 3.00775 264.919 3.02867 264.968 3.07748C265.023 3.12629 265.051 3.18905 265.051 3.27273C265.051 3.35641 265.023 3.41917 264.968 3.46799C264.912 3.5168 264.85 3.53772 264.78 3.53772C264.704 3.53772 264.641 3.5168 264.593 3.46799C264.537 3.41917 264.509 3.35641 264.509 3.27273C264.509 3.18905 264.537 3.12629 264.593 3.07748V3.07748ZM265.009 3.73995V5.35078H264.558V3.73995H265.009ZM263.279 3.64929C263.279 3.44009 263.335 3.27971 263.453 3.15419C263.571 3.02867 263.745 2.97288 263.974 2.97288C264.058 2.97288 264.127 2.97985 264.183 2.9938C264.238 3.00775 264.287 3.02169 264.322 3.04261L264.245 3.39825C264.21 3.38431 264.176 3.37036 264.134 3.37036C264.092 3.36339 264.058 3.36339 264.016 3.36339C263.96 3.36339 263.912 3.37036 263.877 3.38431C263.842 3.39825 263.807 3.41917 263.787 3.44707C263.766 3.47496 263.752 3.50285 263.738 3.54469C263.731 3.57956 263.724 3.6214 263.724 3.66324V3.73995H264.287V4.1165H263.724V5.34381H263.272V3.64929H263.279ZM262.432 3.07748C262.487 3.02867 262.55 3.00775 262.619 3.00775C262.696 3.00775 262.758 3.02867 262.807 3.07748C262.863 3.12629 262.89 3.18905 262.89 3.27273C262.89 3.35641 262.863 3.41917 262.807 3.46799C262.751 3.5168 262.689 3.53772 262.619 3.53772C262.543 3.53772 262.48 3.5168 262.432 3.46799C262.376 3.41917 262.348 3.35641 262.348 3.27273C262.355 3.18905 262.376 3.12629 262.432 3.07748ZM262.849 3.73995V5.35078H262.397V3.73995H262.849V3.73995ZM261.028 3.33549L261.48 3.25879V3.73297H262.022V4.10953H261.48V4.67437C261.48 4.772 261.494 4.8487 261.528 4.90449C261.563 4.96028 261.633 4.98817 261.73 4.98817C261.779 4.98817 261.827 4.9812 261.883 4.97422C261.931 4.96725 261.98 4.9533 262.022 4.93936L262.084 5.295C262.029 5.31592 261.966 5.33684 261.904 5.35078C261.834 5.36473 261.758 5.37868 261.654 5.37868C261.528 5.37868 261.424 5.36473 261.348 5.32986C261.264 5.295 261.202 5.24618 261.153 5.1904C261.105 5.12764 261.07 5.0579 261.049 4.97422C261.028 4.89054 261.021 4.79292 261.021 4.68832V3.33549H261.028ZM259.764 3.82363C259.847 3.79573 259.937 3.76784 260.049 3.73995C260.16 3.71205 260.285 3.70508 260.417 3.70508C260.445 3.70508 260.472 3.70508 260.507 3.71205C260.542 3.71205 260.577 3.71903 260.611 3.726L260.716 3.74692C260.75 3.75389 260.778 3.76087 260.806 3.77481L260.729 4.15137C260.688 4.1444 260.639 4.13045 260.584 4.1165C260.528 4.10256 260.472 4.10256 260.41 4.10256C260.382 4.10256 260.347 4.10256 260.306 4.10953C260.264 4.11651 260.236 4.12348 260.215 4.12348V5.35078H259.764V3.82363V3.82363ZM257.971 4.17926C258.013 4.07467 258.075 3.98401 258.145 3.91428C258.214 3.84455 258.298 3.78876 258.388 3.75389C258.478 3.71903 258.576 3.69811 258.673 3.69811C258.902 3.69811 259.083 3.76784 259.215 3.90731C259.347 4.04677 259.409 4.249 259.409 4.52096V4.60464C259.409 4.6395 259.402 4.6674 259.402 4.68832H258.374C258.381 4.77897 258.43 4.85568 258.506 4.91146C258.582 4.96725 258.687 4.99514 258.819 4.99514C258.902 4.99514 258.985 4.98817 259.062 4.97422C259.145 4.96028 259.208 4.93936 259.256 4.91844L259.319 5.28802C259.291 5.30197 259.263 5.31592 259.222 5.32289C259.18 5.33684 259.138 5.34381 259.083 5.35776C259.034 5.36473 258.979 5.3717 258.923 5.37868C258.867 5.38565 258.812 5.38565 258.749 5.38565C258.603 5.38565 258.478 5.36473 258.374 5.32289C258.27 5.28105 258.179 5.21829 258.11 5.14856C258.041 5.07185 257.985 4.98817 257.957 4.88357C257.922 4.77897 257.909 4.67437 257.909 4.55582C257.909 4.40938 257.929 4.28386 257.971 4.17926V4.17926ZM256.512 4.21413C256.547 4.10953 256.602 4.01888 256.672 3.94217C256.741 3.86547 256.832 3.80271 256.929 3.76087C257.033 3.71903 257.144 3.69113 257.276 3.69113C257.36 3.69113 257.443 3.69811 257.512 3.71205C257.582 3.726 257.651 3.74692 257.721 3.77481L257.624 4.13742C257.582 4.12348 257.533 4.10953 257.485 4.09559C257.436 4.08164 257.38 4.07467 257.311 4.07467C257.179 4.07467 257.075 4.1165 257.012 4.20018C256.943 4.28386 256.915 4.39544 256.915 4.52793C256.915 4.67437 256.943 4.78594 257.005 4.86265C257.068 4.93936 257.172 4.9812 257.332 4.9812C257.387 4.9812 257.443 4.97422 257.506 4.96725C257.568 4.96028 257.624 4.93936 257.679 4.91844L257.742 5.28802C257.686 5.30894 257.624 5.32986 257.547 5.34381C257.471 5.35776 257.38 5.3717 257.283 5.3717C257.137 5.3717 257.012 5.35078 256.908 5.30894C256.811 5.28105 256.72 5.21829 256.658 5.14158C256.589 5.06574 256.54 4.97505 256.512 4.8766C256.477 4.772 256.463 4.66042 256.463 4.54188C256.456 4.42333 256.477 4.31873 256.512 4.21413V4.21413ZM271.874 27.9931H253.059V6.75242H271.874V27.9931V27.9931Z" fill="#326CE5"/>
<path d="M266.357 4.26282C266.344 4.22795 266.33 4.19309 266.309 4.16519C266.288 4.1373 266.253 4.11638 266.218 4.09546C266.184 4.07454 266.142 4.06757 266.086 4.06757C266.038 4.06757 265.989 4.07454 265.954 4.09546C265.92 4.10941 265.885 4.1373 265.864 4.16519C265.836 4.19309 265.822 4.22795 265.809 4.26282C265.795 4.29769 265.788 4.33953 265.781 4.37439H266.378C266.378 4.33953 266.371 4.30466 266.357 4.26282V4.26282ZM267.907 4.99502C267.949 4.99502 267.983 4.99502 268.018 4.98804C268.053 4.98804 268.081 4.98107 268.101 4.9741V4.15125C268.074 4.13033 268.039 4.11638 267.99 4.10243C267.942 4.08849 267.9 4.08151 267.851 4.08151C267.636 4.08151 267.532 4.22795 267.532 4.52083C267.532 4.6603 267.566 4.77187 267.629 4.86252C267.691 4.95318 267.782 4.99502 267.907 4.99502V4.99502ZM258.951 4.26282C258.937 4.22795 258.923 4.19309 258.902 4.16519C258.881 4.1373 258.846 4.11638 258.812 4.09546C258.777 4.07454 258.735 4.06757 258.68 4.06757C258.631 4.06757 258.582 4.07454 258.548 4.09546C258.513 4.10941 258.478 4.1373 258.457 4.16519C258.43 4.19309 258.416 4.22795 258.402 4.26282C258.388 4.29769 258.381 4.33953 258.374 4.37439H258.972C258.972 4.33953 258.965 4.30466 258.951 4.26282V4.26282Z" fill="#326CE5"/>
<path d="M256.658 5.14154C256.728 5.21825 256.811 5.27403 256.915 5.32285C257.019 5.36469 257.144 5.38561 257.29 5.38561C257.388 5.38561 257.471 5.37863 257.554 5.35771C257.631 5.34377 257.7 5.32285 257.749 5.30193L257.686 4.93234C257.631 4.95326 257.575 4.97418 257.513 4.98115C257.45 4.98813 257.388 4.9951 257.339 4.9951C257.186 4.9951 257.075 4.95326 257.012 4.87656C256.95 4.79985 256.922 4.68828 256.922 4.54184C256.922 4.40237 256.957 4.29777 257.019 4.21409C257.082 4.13041 257.186 4.08857 257.318 4.08857C257.381 4.08857 257.436 4.09554 257.492 4.10949C257.54 4.12344 257.589 4.13738 257.631 4.15133L257.728 3.78872C257.659 3.76082 257.589 3.7399 257.52 3.72596C257.45 3.71201 257.374 3.70504 257.283 3.70504C257.151 3.70504 257.04 3.72596 256.936 3.77477C256.832 3.81661 256.748 3.87937 256.679 3.95608C256.609 4.03278 256.554 4.12344 256.519 4.22804C256.484 4.33264 256.464 4.43724 256.464 4.55578C256.464 4.67433 256.477 4.7859 256.512 4.8905C256.54 4.98115 256.589 5.06483 256.658 5.14154V5.14154ZM258.11 5.14851C258.18 5.22522 258.27 5.28101 258.374 5.32285C258.478 5.36469 258.604 5.38561 258.749 5.38561C258.805 5.38561 258.861 5.38561 258.923 5.37863C258.979 5.37166 259.034 5.36469 259.083 5.35771C259.132 5.35074 259.18 5.33679 259.222 5.32285C259.264 5.3089 259.298 5.29495 259.319 5.28798L259.257 4.91839C259.208 4.93931 259.139 4.96023 259.062 4.97418C258.979 4.98813 258.902 4.9951 258.819 4.9951C258.687 4.9951 258.583 4.96721 258.506 4.91142C258.43 4.85564 258.388 4.77893 258.374 4.68828H259.403C259.403 4.66038 259.41 4.63249 259.41 4.6046V4.52092C259.41 4.24896 259.34 4.04673 259.215 3.90726C259.083 3.7678 258.902 3.69806 258.673 3.69806C258.576 3.69806 258.478 3.71898 258.388 3.75385C258.298 3.78872 258.214 3.8445 258.145 3.91424C258.075 3.98397 258.02 4.07462 257.971 4.17922C257.93 4.28382 257.909 4.40934 257.909 4.55578C257.909 4.67433 257.923 4.7859 257.957 4.88353C257.992 4.98813 258.041 5.07181 258.11 5.14851V5.14851ZM258.402 4.2629C258.416 4.22804 258.437 4.19317 258.458 4.16528C258.485 4.13738 258.513 4.11646 258.548 4.09554C258.583 4.0816 258.631 4.06765 258.68 4.06765C258.736 4.06765 258.777 4.07462 258.812 4.09554C258.847 4.11646 258.875 4.13738 258.902 4.16528C258.923 4.19317 258.944 4.22804 258.951 4.2629C258.965 4.29777 258.972 4.33961 258.972 4.37448H258.374C258.374 4.33961 258.388 4.30474 258.402 4.2629V4.2629ZM260.215 4.11646C260.236 4.10949 260.264 4.10252 260.306 4.10252C260.348 4.09554 260.382 4.09554 260.41 4.09554C260.473 4.09554 260.535 4.10252 260.584 4.10949C260.639 4.12344 260.688 4.13041 260.73 4.14436L260.806 3.7678C260.778 3.76082 260.75 3.74688 260.716 3.7399L260.612 3.71898C260.577 3.71201 260.542 3.71201 260.507 3.70504C260.473 3.70504 260.445 3.69806 260.417 3.69806C260.278 3.69806 260.16 3.71201 260.049 3.73293C259.938 3.76082 259.84 3.78872 259.764 3.81661V5.33679H260.215V4.11646V4.11646ZM261.16 5.19035C261.209 5.25311 261.272 5.29495 261.355 5.32982C261.438 5.36469 261.536 5.37863 261.661 5.37863C261.758 5.37863 261.841 5.37166 261.911 5.35074C261.98 5.33679 262.036 5.31587 262.091 5.29495L262.029 4.93931C261.987 4.95326 261.939 4.96721 261.89 4.97418C261.841 4.98115 261.786 4.98813 261.737 4.98813C261.633 4.98813 261.57 4.96023 261.536 4.90445C261.501 4.84866 261.487 4.77196 261.487 4.67433V4.10949H262.029V3.73293H261.487V3.25875L261.035 3.33545V4.68828C261.035 4.79288 261.042 4.88353 261.063 4.97418C261.077 5.05786 261.112 5.12759 261.16 5.19035V5.19035ZM262.397 3.7399H262.849V5.35074H262.397V3.7399ZM262.626 3.54465C262.703 3.54465 262.765 3.52373 262.814 3.47492C262.87 3.4261 262.897 3.36335 262.897 3.27967C262.897 3.19599 262.87 3.13323 262.814 3.08441C262.759 3.0356 262.696 3.01468 262.626 3.01468C262.55 3.01468 262.488 3.0356 262.439 3.08441C262.383 3.13323 262.356 3.19599 262.356 3.27967C262.356 3.36335 262.383 3.4261 262.439 3.47492C262.488 3.51676 262.55 3.54465 262.626 3.54465ZM263.731 4.11646H264.294V3.7399H263.731V3.6632C263.731 3.62136 263.738 3.57952 263.745 3.54465C263.752 3.50978 263.773 3.47492 263.794 3.44703C263.815 3.41913 263.842 3.39821 263.884 3.38427C263.919 3.37032 263.967 3.36335 264.023 3.36335C264.065 3.36335 264.106 3.36335 264.141 3.37032C264.183 3.37729 264.218 3.38427 264.252 3.39821L264.329 3.04257C264.287 3.02863 264.245 3.00771 264.19 2.99376C264.134 2.97981 264.065 2.97284 263.981 2.97284C263.752 2.97284 263.578 3.0356 263.46 3.15415C263.342 3.27967 263.287 3.44005 263.287 3.64925V5.34377H263.738V4.11646H263.731ZM264.78 3.54465C264.857 3.54465 264.919 3.52373 264.968 3.47492C265.024 3.4261 265.051 3.36335 265.051 3.27967C265.051 3.19599 265.024 3.13323 264.968 3.08441C264.912 3.0356 264.85 3.01468 264.78 3.01468C264.704 3.01468 264.641 3.0356 264.593 3.08441C264.537 3.13323 264.509 3.19599 264.509 3.27967C264.509 3.36335 264.537 3.4261 264.593 3.47492C264.641 3.51676 264.704 3.54465 264.78 3.54465ZM264.558 3.7399H265.01V5.35074H264.558V3.7399ZM265.517 5.14851C265.586 5.22522 265.677 5.28101 265.781 5.32285C265.885 5.36469 266.01 5.38561 266.156 5.38561C266.212 5.38561 266.267 5.38561 266.33 5.37863C266.385 5.37166 266.441 5.36469 266.49 5.35771C266.538 5.35074 266.587 5.33679 266.629 5.32285C266.67 5.3089 266.705 5.29495 266.726 5.28798L266.663 4.91839C266.615 4.93931 266.545 4.96023 266.469 4.97418C266.385 4.98813 266.309 4.9951 266.226 4.9951C266.094 4.9951 265.989 4.96721 265.913 4.91142C265.837 4.85564 265.795 4.77893 265.781 4.68828H266.809C266.809 4.66038 266.816 4.63249 266.816 4.6046V4.52092C266.816 4.24896 266.747 4.04673 266.622 3.90726C266.49 3.7678 266.309 3.69806 266.08 3.69806C265.982 3.69806 265.885 3.71898 265.795 3.75385C265.705 3.78872 265.621 3.8445 265.552 3.91424C265.482 3.98397 265.427 4.07462 265.378 4.17922C265.336 4.28382 265.315 4.40934 265.315 4.55578C265.315 4.67433 265.329 4.7859 265.364 4.88353C265.399 4.98813 265.447 5.07181 265.517 5.14851V5.14851ZM265.809 4.2629C265.823 4.22804 265.843 4.19317 265.864 4.16528C265.892 4.13738 265.92 4.11646 265.955 4.09554C265.989 4.0816 266.038 4.06765 266.087 4.06765C266.142 4.06765 266.184 4.07462 266.219 4.09554C266.253 4.11646 266.281 4.13738 266.309 4.16528C266.33 4.19317 266.351 4.22804 266.358 4.2629C266.372 4.29777 266.378 4.33961 266.378 4.37448H265.781C265.788 4.33961 265.795 4.30474 265.809 4.2629V4.2629ZM267.289 5.16246C267.358 5.23219 267.448 5.28798 267.553 5.32982C267.657 5.37166 267.775 5.38561 267.907 5.38561C267.963 5.38561 268.018 5.38561 268.081 5.37863C268.143 5.37166 268.199 5.36469 268.254 5.35771C268.31 5.35074 268.366 5.33679 268.421 5.32982C268.477 5.31587 268.518 5.3089 268.56 5.29495V2.97284L268.109 3.04955V3.77477C268.06 3.75385 268.004 3.73293 267.956 3.72596C267.907 3.71201 267.851 3.70504 267.789 3.70504C267.678 3.70504 267.574 3.72596 267.483 3.76082C267.393 3.80266 267.323 3.85845 267.261 3.92818C267.198 4.00489 267.157 4.08857 267.122 4.19317C267.087 4.29777 267.073 4.41632 267.073 4.54881C267.073 4.67433 267.094 4.79288 267.129 4.89747C267.164 5.00207 267.219 5.08575 267.289 5.16246V5.16246ZM267.851 4.08857C267.9 4.08857 267.942 4.09554 267.99 4.10949C268.039 4.12344 268.074 4.13738 268.102 4.1583V4.98813C268.081 4.9951 268.053 4.9951 268.018 5.00207C267.983 5.00207 267.949 5.00905 267.907 5.00905C267.782 5.00905 267.692 4.96721 267.629 4.88353C267.567 4.79985 267.532 4.68828 267.532 4.54184C267.532 4.23501 267.636 4.08857 267.851 4.08857V4.08857Z" fill="white"/>
</svg>
