<svg xmlns="http://www.w3.org/2000/svg" width="24" height="24" viewBox="0 0 24 24">
    <g fill="none" fill-rule="evenodd">
        <g>
            <g>
                <g>
                    <g>
                        <path fill="#B6C2CD" d="M19 3c1.105 0 2 .895 2 2v14c0 1.105-.895 2-2 2H5c-1.105 0-2-.895-2-2V5c0-1.105.895-2 2-2h14zm-6 4h-2v4H7v2h4v4h2v-4h4v-2h-4V7z" transform="translate(-262 -528) translate(166 204) translate(96 320) translate(0 4)"/>
                        <path fill="#324558" d="M11 11L11 7 13 7 13 11 17 11 17 13 13 13 13 17 11 17 11 13 7 13 7 11z" transform="translate(-262 -528) translate(166 204) translate(96 320) translate(0 4)"/>
                    </g>
                </g>
            </g>
        </g>
    </g>
</svg>
