<svg width="24" height="24" viewBox="0 0 24 24" fill="none" xmlns="http://www.w3.org/2000/svg">
<path fill-rule="evenodd" clip-rule="evenodd" d="M2.5 9.9C2.5 5.2611 6.29123 1.5 10.9673 1.5C15.3281 1.5 18.9164 4.77161 19.3808 8.9751L21.6776 12.5484C21.8457 12.81 21.7368 13.16 21.4498 13.28L19.4346 14.1226V17.35C19.4346 18.4546 18.5392 19.35 17.4346 19.35H15.2009V21.9474C15.2009 22.2432 14.9455 22.4744 14.6511 22.4449L9.24998 21.9037V11.9949L7.38677 9.57274C7.45974 9.39627 7.5 9.20284 7.5 9C7.5 8.17157 6.82842 7.5 6 7.5C5.17157 7.5 4.5 8.17157 4.5 9C4.5 9.82843 5.17157 10.5 6 10.5C6.067 10.5 6.13299 10.4956 6.19767 10.4871L7.74998 12.5051V21.7534L6.57553 21.6357C6.06441 21.5845 5.67524 21.1543 5.67524 20.6407V19.6022C5.67524 17.1013 4.89696 15.9865 4.11103 14.8607C3.3095 13.7125 2.5 12.5529 2.5 9.9ZM5.18939 5.75009L4.23907 4.79977C4.54527 4.40284 4.88635 4.0338 5.25777 3.69714L5.81071 4.25009H8.86458L11.037 7.015C11.1066 7.00512 11.1777 7 11.25 7C12.0784 7 12.75 7.67157 12.75 8.5C12.75 9.32843 12.0784 10 11.25 10C10.4216 10 9.75 9.32843 9.75 8.5C9.75 8.30263 9.78812 8.11416 9.8574 7.94156L8.13553 5.75009H5.18939Z" fill="#CCD3DB"/>
<path d="M4.23901 4.79977L5.18933 5.75009H8.13547L9.85734 7.94156C9.78806 8.11416 9.74994 8.30263 9.74994 8.5C9.74994 9.32843 10.4215 10 11.2499 10C12.0784 10 12.7499 9.32843 12.7499 8.5C12.7499 7.67157 12.0784 7 11.2499 7C11.1776 7 11.1065 7.00512 11.037 7.015L8.86452 4.25009H5.81065L5.25771 3.69714C4.88629 4.0338 4.54521 4.40284 4.23901 4.79977Z" fill="#324558"/>
<path d="M7.38671 9.57274C7.45968 9.39627 7.49994 9.20284 7.49994 9C7.49994 8.17157 6.82836 7.5 5.99994 7.5C5.17151 7.5 4.49994 8.17157 4.49994 9C4.49994 9.82843 5.17151 10.5 5.99994 10.5C6.06694 10.5 6.13293 10.4956 6.19761 10.4871L7.74992 12.5051V21.7534L9.24992 21.9037V11.9949L7.38671 9.57274Z" fill="#324558"/>
</svg>
