<svg width="20" height="20" viewBox="0 0 20 20" fill="none" xmlns="http://www.w3.org/2000/svg">
<path fill-rule="evenodd" clip-rule="evenodd" d="M17.5 4.16699H5.83333V15.8337C5.83333 14.9132 5.08714 14.167 4.16667 14.167C3.24619 14.167 2.5 14.9132 2.5 15.8337C2.5 16.7541 3.24619 17.5003 4.16667 17.5003H17.5V4.16699ZM11.6667 6.8444L8.9207 9.59037V14.167H14.4126V9.59037L11.6667 6.8444Z" fill="white" fill-opacity="0.4"/>
<path fill-rule="evenodd" clip-rule="evenodd" d="M5.83333 15.8333C5.83333 14.9129 5.08714 14.1667 4.16667 14.1667C3.24619 14.1667 2.5 14.9129 2.5 15.8333V4.16667C2.5 3.24619 3.24619 2.5 4.16667 2.5C5.08714 2.5 5.83333 3.24619 5.83333 4.16667V15.8333Z" fill="white" fill-opacity="0.9"/>
<path fill-rule="evenodd" clip-rule="evenodd" d="M8.92065 9.58972L11.6666 6.84375L14.4126 9.58972V14.1663H8.92065V9.58972Z" fill="white" fill-opacity="0.9"/>
</svg>
