<svg width="48" height="48" viewBox="0 0 48 48" fill="none" xmlns="http://www.w3.org/2000/svg">
<path fill-rule="evenodd" clip-rule="evenodd" d="M22.5143 45.2C32.7486 45.2 41.0286 36.92 41.0286 26.6857C41.0286 17.1714 33.8286 9.30286 24.5714 8.27429V6.11429H27.6571V2H17.3714V6.11429H20.4571V8.27429C11.2 9.30286 4 17.12 4 26.6857C4 36.92 12.28 45.2 22.5143 45.2ZM22.5143 12.6857C30.2143 12.6857 36.5143 18.9857 36.5143 26.6857C36.5143 34.3857 30.2143 40.6857 22.5143 40.6857C14.8143 40.6857 8.51429 34.3857 8.51429 26.6857C8.51429 18.9857 14.8143 12.6857 22.5143 12.6857ZM32.8 8.99431L35.7829 6.01145C38.6629 7.86288 41.1829 10.3315 43.0343 13.2629L40.0514 16.2457C38.3029 13.2629 35.7829 10.7429 32.8 8.99431Z" fill="#36435C"/>
<path fill-rule="evenodd" clip-rule="evenodd" d="M22.5139 37.4857C28.4954 37.4857 33.3139 32.6673 33.3139 26.6857C33.3139 20.7042 28.4954 15.8857 22.5139 15.8857V26.6857H11.7139C11.7139 32.6673 16.5323 37.4857 22.5139 37.4857Z" fill="#CCD3DB"/>
</svg>
