<svg width="40" height="40" viewBox="0 0 40 40" fill="none" xmlns="http://www.w3.org/2000/svg">
<path fill-rule="evenodd" clip-rule="evenodd" d="M20 8.33301C12.6362 8.33301 6.66667 14.3025 6.66667 21.6663V33.333H33.3333V21.6663C33.3333 14.3025 27.3638 8.33301 20 8.33301ZM21.25 14.9997V21.8747H25L18.75 29.9997V23.1247H15L21.25 14.9997Z" fill="white" fill-opacity="0.4"/>
<path d="M21.6667 5.91968V0.833008H18.3333V5.91968C18.8811 5.86238 19.4371 5.83301 20 5.83301C20.5629 5.83301 21.1189 5.86238 21.6667 5.91968Z" fill="white" fill-opacity="0.9"/>
<path d="M34.9755 7.38124L31.5358 10.821C30.7716 10.0085 29.9226 9.27674 29.0028 8.63988L32.6185 5.02422L34.9755 7.38124Z" fill="white" fill-opacity="0.9"/>
<path d="M10.9972 8.63986C10.0774 9.27672 9.2284 10.0085 8.46424 10.821L5.02452 7.38124L7.38154 5.02422L10.9972 8.63986Z" fill="white" fill-opacity="0.9"/>
<path d="M35.8333 33.333V36.6663H4.16667V33.333H35.8333Z" fill="white" fill-opacity="0.9"/>
<path d="M21.25 14.9997V21.8747H25L18.75 29.9997V23.1247H15L21.25 14.9997Z" fill="white" fill-opacity="0.9"/>
</svg>
