<svg xmlns="http://www.w3.org/2000/svg" width="150" height="123" viewBox="0 0 150 123">
    <g fill="none" fill-rule="evenodd" opacity=".9">
        <path fill="#FFF" fill-opacity=".1" d="M167.908 131.682L17.021 51.065C7.28 45.86 3.601 33.742 8.806 24a20 20 0 0 1 7.042-7.536l144.573-90.34c9.367-5.853 21.706-3.004 27.56 6.363a20 20 0 0 1 3.025 9.86l6.313 170.957c.408 11.038-8.21 20.317-19.248 20.724a20 20 0 0 1-10.163-2.346z"/>
        <path fill="#232D41" fill-opacity=".2" fill-rule="nonzero" d="M8.511 46.126l22.49-12.98c7.654-4.418 17.44-1.795 21.856 5.858A16 16 0 0 1 55 47.003v25.963c0 8.836-7.163 16-16 16a16 16 0 0 1-7.999-2.143L8.511 73.84C.858 69.423-1.765 59.638 2.653 51.985a16 16 0 0 1 5.858-5.859z"/>
    </g>
</svg>
