<svg width="16" height="16" viewBox="0 0 16 16" fill="none" xmlns="http://www.w3.org/2000/svg">
<path fill-rule="evenodd" clip-rule="evenodd" d="M4 1.33331C2.89543 1.33331 2 2.22874 2 3.33331V12C2 13.1045 2.89543 14 4 14H5.09595H11.1861H12C13.1046 14 14 13.1045 14 12V3.33331C14 2.22874 13.1046 1.33331 12 1.33331L4 1.33331Z" fill="#B6C2CD"/>
<path d="M4 3.4035H12.0026V4.631H4V3.4035Z" fill="#324558"/>
<path d="M4 5.85651H8.66927V7.08304H4V5.85651Z" fill="#324558"/>
<path fill-rule="evenodd" clip-rule="evenodd" d="M4 11.1187C4 9.76525 5.09759 8.66669 6.453 8.66669C7.80644 8.66669 8.90409 9.76525 8.90409 11.1187C8.90409 12.027 8.41191 12.8189 7.67947 13.2427V15.3989L6.45203 14.313L5.22456 15.398V13.2427C4.49312 12.8188 4 12.027 4 11.1187ZM5.2265 11.1285C5.2265 11.8052 5.77528 12.3541 6.453 12.3541C7.12975 12.3541 7.67856 11.8052 7.67856 11.1285C7.67856 10.4508 7.12975 9.90196 6.453 9.90196C5.77531 9.90196 5.2265 10.4507 5.2265 11.1285Z" fill="#324558"/>
</svg>
