<svg width="20" height="20" viewBox="0 0 20 20" fill="none" xmlns="http://www.w3.org/2000/svg">
<path d="M17.7867 3.875H11.9534V5.54167H17.7867V3.875Z" fill="#B6C2CD"/>
<path d="M17.7867 9.16614H10.2867V10.8328H17.7867V9.16614Z" fill="#B6C2CD"/>
<path d="M11.9534 14.4291H17.7867V16.0958H11.9534V14.4291Z" fill="#B6C2CD"/>
<path fill-rule="evenodd" clip-rule="evenodd" d="M5.08546 8.2227C5.43054 8.59206 5.99602 8.59206 6.34109 8.2227L9.48698 4.8554L8.57105 3.875L5.71328 6.9339L2.85551 3.875L1.93958 4.8554L5.08546 8.2227Z" fill="#324558"/>
<path fill-rule="evenodd" clip-rule="evenodd" d="M5.08558 11.7477C5.43066 11.3784 5.99614 11.3784 6.34122 11.7477L9.4871 15.115L8.57117 16.0954L5.7134 13.0365L2.85563 16.0954L1.9397 15.115L5.08558 11.7477Z" fill="#324558"/>
</svg>
