<svg width="16" height="16" viewBox="0 0 16 16" fill="none" xmlns="http://www.w3.org/2000/svg">
<path fill-rule="evenodd" clip-rule="evenodd" d="M14 8C14 11.3137 11.3137 14 8 14C4.68629 14 2 11.3137 2 8C2 4.68629 4.68629 2 8 2C11.3137 2 14 4.68629 14 8ZM8.87441 4.91314C8.87441 5.39606 8.48293 5.78754 8.00001 5.78754C7.51709 5.78754 7.12561 5.39606 7.12561 4.91314C7.12561 4.43022 7.51709 4.03874 8.00001 4.03874C8.48293 4.03874 8.87441 4.43022 8.87441 4.91314ZM8.66667 12V7.01058H7.33333V12H8.66667Z" fill="#326E93"/>
<path fill-rule="evenodd" clip-rule="evenodd" d="M7.99995 5.78756C8.48287 5.78756 8.87435 5.39608 8.87435 4.91316C8.87435 4.43024 8.48287 4.03876 7.99995 4.03876C7.51703 4.03876 7.12555 4.43024 7.12555 4.91316C7.12555 5.39608 7.51703 5.78756 7.99995 5.78756ZM8.66667 7.01054H7.33333V12H8.66667V7.01054Z" fill="#C7DEEF"/>
</svg>
