<svg xmlns="http://www.w3.org/2000/svg" width="32" height="32" viewBox="0 0 32 32">
    <g fill="none" fill-rule="evenodd">
        <path fill="#B6C2CD" d="M12 9.547V0C5.333.667 0 6.387 0 13.333 0 20.28 5.333 26 12 26.667V17.12c-1.333-.547-2.667-2.027-2.667-3.787 0-1.76 1.334-3.24 2.667-3.786z" transform="translate(2.667 2.667)"/>
        <path fill="#324558" d="M17.147 12h9.52c-.64-6.333-5.334-11.373-12-12v9.547c1.333.4 2.026 1.306 2.48 2.453zM14.667 17.12v9.547c6.666-.627 11.36-5.667 12-12h-9.52c-.454 1.146-1.147 2.053-2.48 2.453z" transform="translate(2.667 2.667)"/>
    </g>
</svg>
