<svg width="24" height="24" viewBox="0 0 24 24" fill="none" xmlns="http://www.w3.org/2000/svg">
<path d="M12 13.5C12.8284 13.5 13.5 12.8284 13.5 12C13.5 11.1716 12.8284 10.5 12 10.5C11.1716 10.5 10.5 11.1716 10.5 12C10.5 12.8284 11.1716 13.5 12 13.5Z" fill="white" fill-opacity="0.4"/>
<path fill-rule="evenodd" clip-rule="evenodd" d="M5 4C4.44772 4 4 4.44772 4 5V19C4 19.5523 4.44772 20 5 20H19C19.5523 20 20 19.5523 20 19V5C20 4.44772 19.5523 4 19 4H5ZM10.8503 9.00937L11.0507 8H12.9493L13.1497 9.00937C13.4838 9.13352 13.7927 9.30696 14.064 9.52578L15.0507 9.19141L16 10.8086L15.2105 11.4828C15.2385 11.6516 15.2566 11.8234 15.2566 12C15.2566 12.1766 15.2385 12.3484 15.2105 12.5172L16 13.1914L15.0507 14.8086L14.064 14.4742C13.7927 14.693 13.4838 14.8665 13.1497 14.9906L12.9493 16H11.0507L10.8503 14.9906C10.5162 14.8665 10.2073 14.693 9.936 14.4742L8.94931 14.8086L8 13.1914L8.78951 12.5172C8.76151 12.3484 8.74339 12.1766 8.74339 12C8.74339 11.8234 8.76151 11.6516 8.78951 11.4828L8 10.8086L8.94931 9.19141L9.936 9.52578C10.2073 9.30696 10.5162 9.13352 10.8503 9.00937Z" fill="white" fill-opacity="0.4"/>
<path d="M7 2H9V4H7V2Z" fill="white" fill-opacity="0.9"/>
<path d="M2 7H4V9H2V7Z" fill="white" fill-opacity="0.9"/>
<path d="M2 11H4V13H2V11Z" fill="white" fill-opacity="0.9"/>
<path d="M2 15H4V17H2V15Z" fill="white" fill-opacity="0.9"/>
<path d="M20 7H22V9H20V7Z" fill="white" fill-opacity="0.9"/>
<path d="M20 11H22V13H20V11Z" fill="white" fill-opacity="0.9"/>
<path d="M20 15H22V17H20V15Z" fill="white" fill-opacity="0.9"/>
<path d="M11 2H13V4H11V2Z" fill="white" fill-opacity="0.9"/>
<path d="M15 2H17V4H15V2Z" fill="white" fill-opacity="0.9"/>
<path d="M7 22V20H9V22H7Z" fill="white" fill-opacity="0.9"/>
<path d="M11 22V20H13V22H11Z" fill="white" fill-opacity="0.9"/>
<path d="M15 22V20H17V22H15Z" fill="white" fill-opacity="0.9"/>
<path fill-rule="evenodd" clip-rule="evenodd" d="M11.0507 8L10.8503 9.00938C10.5162 9.13352 10.2073 9.30696 9.936 9.52578L8.94931 9.19141L8 10.8086L8.78951 11.4828C8.76151 11.6516 8.74339 11.8234 8.74339 12C8.74339 12.1766 8.76151 12.3484 8.78951 12.5172L8 13.1914L8.94931 14.8086L9.936 14.4742C10.2073 14.693 10.5162 14.8665 10.8503 14.9906L11.0507 16H12.9493L13.1497 14.9906C13.4838 14.8665 13.7927 14.693 14.064 14.4742L15.0507 14.8086L16 13.1914L15.2105 12.5172C15.2385 12.3484 15.2566 12.1766 15.2566 12C15.2566 11.8234 15.2385 11.6516 15.2105 11.4828L16 10.8086L15.0507 9.19141L14.064 9.52578C13.7927 9.30696 13.4838 9.13352 13.1497 9.00938L12.9493 8H11.0507ZM13.5 12C13.5 12.8284 12.8284 13.5 12 13.5C11.1716 13.5 10.5 12.8284 10.5 12C10.5 11.1716 11.1716 10.5 12 10.5C12.8284 10.5 13.5 11.1716 13.5 12Z" fill="white" fill-opacity="0.9"/>
</svg>
