<svg width="24" height="24" viewBox="0 0 24 24" fill="none" xmlns="http://www.w3.org/2000/svg">
<path fill-rule="evenodd" clip-rule="evenodd" d="M5 4C4.44772 4 4 4.44772 4 5V19C4 19.5523 4.44772 20 5 20H19C19.5523 20 20 19.5523 20 19V5C20 4.44772 19.5523 4 19 4H5ZM7.25 9.5C7.66421 9.5 8 9.16421 8 8.75C8 8.33579 7.66421 8 7.25 8C6.83579 8 6.5 8.33579 6.5 8.75C6.5 9.16421 6.83579 9.5 7.25 9.5ZM13 13.8293C14.1652 13.4175 15 12.3062 15 11C15 9.34315 13.6569 8 12 8C10.3431 8 9 9.34315 9 11C9 12.3062 9.83481 13.4175 11 13.8293V16.5H13V13.8293ZM7.25 13.5C7.66421 13.5 8 13.1642 8 12.75C8 12.3358 7.66421 12 7.25 12C6.83579 12 6.5 12.3358 6.5 12.75C6.5 13.1642 6.83579 13.5 7.25 13.5ZM17.5 8.75C17.5 9.16421 17.1642 9.5 16.75 9.5C16.3358 9.5 16 9.16421 16 8.75C16 8.33579 16.3358 8 16.75 8C17.1642 8 17.5 8.33579 17.5 8.75ZM16.75 13.5C17.1642 13.5 17.5 13.1642 17.5 12.75C17.5 12.3358 17.1642 12 16.75 12C16.3358 12 16 12.3358 16 12.75C16 13.1642 16.3358 13.5 16.75 13.5Z" fill="#CCD3DB"/>
<path d="M7 2H9V4H7V2Z" fill="#324558"/>
<path d="M2 7H4V9H2V7Z" fill="#324558"/>
<path d="M4 11H2V13H4V11Z" fill="#324558"/>
<path d="M2 15H4V17H2V15Z" fill="#324558"/>
<path d="M22 7H20V9H22V7Z" fill="#324558"/>
<path d="M20 11H22V13H20V11Z" fill="#324558"/>
<path d="M22 15H20V17H22V15Z" fill="#324558"/>
<path d="M11 2H13V4H11V2Z" fill="#324558"/>
<path d="M17 2H15V4H17V2Z" fill="#324558"/>
<path d="M7 22V20H9V22H7Z" fill="#324558"/>
<path d="M13 22V20H11V22H13Z" fill="#324558"/>
<path d="M15 22V20H17V22H15Z" fill="#324558"/>
<path d="M8 8.75C8 9.16421 7.66421 9.5 7.25 9.5C6.83579 9.5 6.5 9.16421 6.5 8.75C6.5 8.33579 6.83579 8 7.25 8C7.66421 8 8 8.33579 8 8.75Z" fill="#324558"/>
<path d="M13 13.8293C14.1652 13.4175 15 12.3062 15 11C15 9.34315 13.6569 8 12 8C10.3431 8 9 9.34315 9 11C9 12.3062 9.83481 13.4175 11 13.8293V16.5H13V13.8293Z" fill="#324558"/>
<path d="M8 12.75C8 13.1642 7.66421 13.5 7.25 13.5C6.83579 13.5 6.5 13.1642 6.5 12.75C6.5 12.3358 6.83579 12 7.25 12C7.66421 12 8 12.3358 8 12.75Z" fill="#324558"/>
<path d="M17.5 8.75C17.5 9.16421 17.1642 9.5 16.75 9.5C16.3358 9.5 16 9.16421 16 8.75C16 8.33579 16.3358 8 16.75 8C17.1642 8 17.5 8.33579 17.5 8.75Z" fill="#324558"/>
<path d="M17.5 12.75C17.5 13.1642 17.1642 13.5 16.75 13.5C16.3358 13.5 16 13.1642 16 12.75C16 12.3358 16.3358 12 16.75 12C17.1642 12 17.5 12.3358 17.5 12.75Z" fill="#324558"/>
</svg>
