<svg xmlns="http://www.w3.org/2000/svg" width="257" height="180" viewBox="0 0 257 180">
    <g fill="none" fill-rule="nonzero">
        <path fill="#E3E9EF" d="M254.132 105.975c0 25.161-14.958 33.946-33.41 33.946-18.45 0-33.408-8.785-33.408-33.946 0-25.16 33.409-57.17 33.409-57.17s33.409 32.01 33.409 57.17z"/>
        <path fill="#242E42" d="M219.506 136.072l.342-21.057 14.24-26.05-14.186 22.747.153-9.469 9.814-18.847-9.773 16.342.277-17.03 10.509-15.004-10.466 12.327.173-31.225-1.086 41.336.089-1.705-10.685-16.355 10.514 19.629-.996 19.018-.03-.505-12.317-17.21 12.28 18.994-.124 2.378-.023.036.01.195-2.525 48.252h3.374l.405-24.923 12.25-18.948z"/>
        <path fill="#E3E9EF" d="M184.641 83.075c0 32.541-19.345 43.903-43.21 43.903-23.863 0-43.208-11.362-43.208-43.903 0-32.542 43.209-73.94 43.209-73.94s43.209 41.398 43.209 73.94z"/>
        <path fill="#242E42" d="M139.858 122l.442-27.234 18.417-33.692-18.347 29.42.199-12.246 12.692-24.376-12.64 21.136.358-22.025 13.592-19.406-13.536 15.943.224-40.385-1.405 53.463.116-2.206-13.82-21.152 13.598 25.386-1.288 24.597-.038-.653-15.93-22.259 15.882 24.566-.161 3.076-.03.046.014.253-3.267 62.405h4.365l.524-32.233 15.843-24.506z"/>
        <path fill="#36435C" d="M251.46 167.49c0 2.45-7.118 4.737-19.415 6.663-22.283 3.493-61.57 5.812-106.316 5.812C56.292 179.965 0 174.38 0 167.49c0-.952 1.08-1.885 3.128-2.776 2.308-1.01 5.85-1.972 10.458-2.871 9.5-1.854 23.533-3.438 40.651-4.615 19.87-1.364 43.9-2.176 69.823-2.207a1260 1260 0 0 1 15.26.07c15.267.162 29.715.596 42.846 1.25l1.751.09.596.031c.054.003.107.005.16.01a791.888 791.888 0 0 1 9.977.586c7.72.502 14.848 1.085 21.258 1.742 1.095.111 2.169.225 3.222.342 8.11.889 14.94 1.899 20.202 2.996 7.777 1.621 12.128 3.436 12.128 5.352z"/>
        <ellipse cx="182.414" cy="166.711" fill="#000" opacity=".1" rx="27.395" ry="6.348"/>
        <path fill="#000" d="M251.46 167.49c0 2.45-7.118 4.737-19.415 6.663-9.298-1.015-15.735-3.207-15.735-5.746 0-3.162 9.972-5.783 23.022-6.268 7.777 1.621 12.128 3.436 12.128 5.352zM136.31 164.596c0 4.182-29.817 7.572-66.596 7.572-36.434 0-66.035-3.325-66.587-7.454 7.072-3.087 25.69-5.738 51.11-7.486a576.91 576.91 0 0 1 15.477-.205c36.779 0 66.595 3.39 66.595 7.573z" opacity=".1"/>
        <path fill="#36435C" d="M13.586 0h110.473v165.486H13.586z"/>
        <path fill="#242E42" d="M20.268 57.464h103.791v50.782H20.268z"/>
        <path fill="#36435C" d="M62.141 58.577h102.677v48.332H62.141z"/>
        <path fill="#6C63FF" d="M68.433 65.705h22.941v8.241H68.433zM74.113 80.182h84.414v2.227H74.113zM74.113 85.973h84.414V88.2H74.113zM74.113 91.764h84.414v2.227H74.113zM74.113 97.555h84.414v2.227H74.113z"/>
        <path fill="#FFE1BE" d="M20.936 18.709h22.941v8.241H20.936zM26.616 33.186h84.414v2.227H26.616zM26.616 38.977h84.414v2.227H26.616zM26.616 44.768h84.414v2.227H26.616zM26.616 50.559h84.414v2.227H26.616zM21.827 113.368h22.941v8.241H21.827zM27.507 127.845h84.414v2.227H27.507zM27.507 133.636h84.414v2.227H27.507zM27.507 139.427h84.414v2.227H27.507zM27.507 145.218h84.414v2.227H27.507zM175.17 34.028s4.58 5.867 4.007 10.017c-.572 4.15 9.446-5.724 9.446-5.724s-3.435-7.156-1.575-10.59c1.86-3.435-11.878 6.297-11.878 6.297z"/>
        <path fill="#242E42" d="M191.199 152.81s6.01 6.584 5.009 8.015c-1.002 1.431-18.605 6.87-20.609 6.583-2.003-.286-3.005-1.717-2.29-2.146.716-.43 5.296-2.863 5.296-2.863l3.864-4.436s2.862-1.574 2.862-2.433c0-.859 5.868-2.72 5.868-2.72z"/>
        <path fill="#FFE1BE" d="M181.038 160.11s-2.29 3.72-2.72 3.864c-.429.143 2.147 5.295 2.147 5.295l6.01-1.86 3.292-2.72-.715-3.72-8.014-.86z"/>
        <path fill="#D0CDE1" d="M174.884 89.126l-2.862 12.737s-9.875 22.182-3.006 26.046l15.027 28.766 8.014-3.578-13.452-29.481 6.154-33.918-9.875-.572z"/>
        <path fill="#000" d="M174.884 89.126l-2.862 12.737s-9.875 22.182-3.006 26.046l15.027 28.766 8.014-3.578-13.452-29.481 6.154-33.918-9.875-.572z" opacity=".1"/>
        <path fill="#D0CDE1" d="M175.886 91.13h-1.452a80.91 80.91 0 0 0 .736 13.166c1.002 7.299 3.578 24.043 3.578 24.043s-.286 3.148.572 4.15c.859 1.002 1.002-.286 1.145 2.004.143 2.29 1.503 18.21 1.503 18.21s.93 3.256-.072 3.972c-1.002.716-3.005 4.58-1.574 5.152 1.431.572 11.306 1.288 11.735.859.43-.43 0-27.335 0-27.335s-.286-5.438-.572-5.724c-.286-.287-1.574-4.15-1.145-5.01.43-.858.143-3.434.143-3.863 0-.43-1.288 0-.143-1.86 1.145-1.861 1.288-16.745 1.288-16.745s6.154-9.445 4.293-11.878l-20.035.858z"/>
        <circle cx="179.177" cy="26.729" r="9.445" fill="#FFE1BE"/>
        <path fill="#242E42" d="M188.623 36.747s-5.725 1.43-8.015 4.866l-2.003.429v2.003s-3.721 11.879-2.863 17.03c.86 5.153 0 15.17-1.43 17.89-1.432 2.719-1.861 3.291-1.146 4.436.716 1.145 1.718 5.01 1.002 6.727-.715 1.717 0 3.434 6.583 3.864 6.584.429 15.886.429 15.886-1.86 0-2.29-.573-8.73 0-10.448.572-1.717.859-2.862.572-4.436-.286-1.575.573-19.178.573-19.178s.143-17.602-9.16-21.323z"/>
        <path fill="#FFE1BE" d="M175.17 80.968l-7.871 11.736s-8.3 7.585-5.295 11.02c3.005 3.434 10.876-10.019 10.876-10.019l8.587-9.731-6.297-3.006z"/>
        <path fill="#242E42" d="M180.179 164.69s-.286-1.861-1.288-1.861-7.728 4.58-7.728 4.58-8.873 1.001-5.438 2.862c3.434 1.86 24.472 2.146 24.615 1.43.143-.715.43-7.771-.573-7.75-1.001.023-9.016 1.597-9.016 1.597l-.572-.859zM179.849 21.85a2.37 2.37 0 0 1-1.08.243c-.386.022-.846-.002-1.052-.33a1.507 1.507 0 0 1-.131-.687 2.264 2.264 0 0 0-2.646-1.928c.04.473.185.931.422 1.343a2.872 2.872 0 0 1-2.525-.336l-.146 1.927c-.513.246-1.17.297-1.618-.054-.448-.351-.484-1.176.022-1.435-.625-.13-1.39-.41-1.436-1.048-.042-.582.575-1.007.689-1.58.093-.465-.163-.972.018-1.412.238-.578 1.1-.726 1.274-1.326.088-.306-.039-.633-.009-.95.08-.829 1.122-1.173 1.954-1.126.831.047 1.74.268 2.446-.173.342-.214.582-.557.883-.826a2.622 2.622 0 0 1 3.044-.265c.335.208.627.496 1 .623.763.259 1.56-.23 2.357-.344a1.959 1.959 0 0 1 1.643.476c.439.422.54 1.087.244 1.62.469-.08.965-.156 1.406.02.441.175.779.703.574 1.132a1.467 1.467 0 0 0-.178.364c-.041.25.2.462.442.534.242.071.505.058.743.145.98.359.745 1.927 1.518 2.63.264.193.544.365.836.513.79.547 1.09 1.573.719 2.46-.155.343-.414.67-.383 1.044.044.526.607.814 1.002 1.163.74.682.958 1.761.543 2.677-.364.758-1.15 1.333-1.23 2.17-.035.363.074.726.068 1.091a2.25 2.25 0 0 1-.967 1.699 5.03 5.03 0 0 1-1.856.772c-.312.075-.685.192-.76.504-.09.37.323.706.28 1.084a.629.629 0 0 1-.252.408c-.559.437-1.442.062-1.783-.559-.342-.62-.298-1.374-.245-2.08l.192-2.57c.06-.8.054-1.75-.598-2.217-.72-.516-1.77-.098-2.585-.447-.849-.363-1.154-1.427-1.12-2.35.035-.923.3-1.848.147-2.76-.188-1.128-1.193-1.887-2.207-1.155.892-.122 1.045.901.341 1.315z"/>
        <path fill="#000" d="M187.764 43.616s-5.725 2.29-5.725 7.156.287 11.306-.715 13.452c-1.002 2.147-1.86 2.863-1.288 4.58.572 1.717 1.574 1.431 0 2.72-1.574 1.287-1.431-.86-1.574 1.287-.144 2.147 1.43 2.433 0 3.435-1.432 1.002-5.152 5.009-3.578 6.297 1.574 1.288 5.724 5.438 7.155 3.864 1.432-1.574 2.147-5.582 4.15-5.295 2.004.286 2.29.429 2.004-1.002-.286-1.431-1.574-1.431.143-1.86 1.718-.43 2.433.572 1.86-.86-.572-1.43-1.001-2.003.144-3.577 1.145-1.574 1.717-2.004 1.574-3.578-.143-1.574 3.149-15.742 3.149-15.742s1.001-12.022-7.3-10.877z" opacity=".1"/>
        <path fill="#000" d="M186.19 43.33s-5.725 2.29-5.725 7.156c0 4.865.286 11.305-.715 13.452-1.002 2.147-1.86 2.862-1.288 4.58.572 1.717 1.574 1.43 0 2.719-1.575 1.288-1.432-.859-1.575 1.288-.143 2.147 1.431 2.433 0 3.435-1.43 1.001-5.152 5.008-3.577 6.296 1.574 1.289 5.724 5.439 7.155 3.865 1.431-1.575 2.147-5.582 4.15-5.296 2.004.287 2.29.43 2.004-1.001-.286-1.432-1.574-1.432.143-1.86 1.717-.43 2.433.572 1.86-.86-.572-1.43-1.001-2.003.144-3.577 1.145-1.575 1.717-2.004 1.574-3.578-.143-1.574 3.148-15.743 3.148-15.743s1.002-12.021-7.298-10.876z" opacity=".1"/>
        <path fill="#242E42" d="M186.905 42.9s-5.724 2.29-5.724 7.156.286 11.306-.716 13.453c-1.002 2.146-1.86 2.862-1.288 4.58.573 1.717 1.574 1.43 0 2.719-1.574 1.288-1.431-.86-1.574 1.288-.143 2.146 1.431 2.432 0 3.434-1.431 1.002-5.152 5.01-3.578 6.297 1.574 1.288 5.725 5.438 7.156 3.864 1.43-1.574 2.146-5.581 4.15-5.295 2.004.286 2.29.43 2.004-1.002-.287-1.43-1.575-1.43.143-1.86 1.717-.43 2.433.572 1.86-.859-.572-1.431-1.002-2.003.143-3.578 1.145-1.574 1.718-2.003 1.574-3.578-.143-1.574 3.149-15.742 3.149-15.742s1.002-12.021-7.299-10.876zM216.824 141.775c0 12.52 7.855 22.653 17.562 22.653"/>
        <path fill="#6C63FF" d="M234.386 164.428c0-12.662 8.766-22.908 19.599-22.908M223.187 142.91c0 11.893 5.009 21.518 11.2 21.518"/>
        <path fill="#242E42" d="M234.386 164.428c0-16.18 10.132-29.271 22.653-29.271"/>
        <path fill="#A8A8A8" d="M230.691 164.587s2.491-.076 3.242-.61c.75-.535 3.83-1.174 4.017-.316.186.857 3.743 4.263.931 4.286-2.812.022-6.533-.438-7.283-.895-.749-.456-.907-2.465-.907-2.465z"/>
        <path fill="#000" d="M238.931 167.648c-2.812.023-6.533-.438-7.282-.894-.571-.348-.798-1.595-.874-2.17l-.084.003s.158 2.01.907 2.465c.75.457 4.471.917 7.283.895.812-.007 1.092-.296 1.077-.723-.113.258-.423.42-1.027.424z" opacity=".2"/>
    </g>
</svg>
