<?xml version="1.0" encoding="UTF-8"?>
<svg width="34px" height="28px" viewBox="0 0 34 28" version="1.1" xmlns="http://www.w3.org/2000/svg" xmlns:xlink="http://www.w3.org/1999/xlink">
    <!-- Generator: Sketch 51.3 (57544) - http://www.bohemiancoding.com/sketch -->
    <title>Glyph/002.Object/055.Project/Black</title>
    <desc>Created with Sketch.</desc>
    <defs>
        <path d="M13,1.1449175e-15 L3.25000002,1.1449175e-15 C1.44625002,1.1449175e-15 3.80859374e-08,1.52968749 0,3.43749999 L0,24.0625 C0,25.9479687 1.467375,27.5 3.25000002,27.5 L29.25,27.5 C31.032625,27.5 32.5,25.9479687 32.5,24.0625 L32.5,6.87499998 C32.5,5.96331829 32.1575903,5.08897671 31.548097,4.44432041 C30.9386038,3.79966411 30.1119536,3.43749998 29.25,3.43749999 L16.25,3.43749999 L13,1.1449175e-15 Z" id="path-1"></path>
    </defs>
    <g id="工作台/租户" stroke="none" stroke-width="1" fill="none" fill-rule="evenodd">
        <g id="工作台/租户列表" transform="translate(-267.000000, -332.000000)">
            <g id="Group-9" transform="translate(240.000000, 304.000000)">
                <g id="Group-8" transform="translate(24.000000, 22.000000)">
                    <g id="logo/icon/workspace">
                        <g id="kubernetes-(1)" stroke-width="1" transform="translate(3.750000, 6.250000)">
                            <g id="logo/icon/ks">
                                <mask id="mask-2" fill="white">
                                    <use xlink:href="#path-1"></use>
                                </mask>
                                <use id="Mask" fill="#79879C" fill-rule="nonzero" xlink:href="#path-1"></use>
                                <g opacity="0.02" mask="url(#mask-2)">
                                    <g transform="translate(12.500000, 7.500000)">
                                        <polygon id="Fill-1" fill="#FFFFFF" points="19.8729808 20.6734236 14.2260953 17.4192842 14.2260953 23.9278486"></polygon>
                                        <g id="Group" stroke-width="1" fill="none" transform="translate(0.800781, 0.000000)">
                                            <path d="M17.9788462,3.96074833 L15.3347692,2.437042 C14.8562532,2.16128685 14.2447956,2.32565699 13.9690405,2.80417297 C13.8815323,2.95602536 13.8354703,3.12820964 13.8354703,3.30347183 L13.8354703,6.3508845 C13.8354703,6.90316925 14.2831856,7.3508845 14.8354703,7.3508845 C15.0107325,7.3508845 15.1829168,7.30482254 15.3347692,7.21731433 L17.9788462,5.69360799 C18.4573622,5.41785285 18.6217323,4.80639529 18.3459772,4.32787931 C18.2580578,4.17531344 18.131412,4.0486677 17.9788462,3.96074833 Z" id="Fill-2" fill="#FFFFFF"></path>
                                            <path d="M9.54963447,0.863900174 L1.00148039,5.79000892 C0.381892485,6.14706349 8.58363207e-05,6.80775775 8.58363207e-05,7.52286413 L8.58363207e-05,17.9779429 C8.58363207e-05,18.693077 0.381921849,19.3537925 1.00154764,19.7108369 L11.0489372,25.5004019 L11.0489372,15.8139468 L7.23605502,13.6167192 C6.75753753,13.3409667 6.59316403,12.72951 6.86891655,12.2509925 C6.95683694,12.0984229 7.08348545,11.9717744 7.23605502,11.883854 L11.0489372,9.68662642 L11.0489372,1.73032778 C11.0489372,1.17804303 10.6012219,0.730327777 10.0489372,0.730327777 C9.8736735,0.730327777 9.70148778,0.776390532 9.54963447,0.863900174 Z" id="Fill-3" fill="#FFFFFF"></path>
                                            <polygon id="Fill-4" fill="#FFFFFF" points="11.0874777 12.7503723 22.119734 19.1075814 22.119734 6.39316316"></polygon>
                                        </g>
                                    </g>
                                </g>
                            </g>
                        </g>
                        <g id="Glyph/002.Object/022.Enterprise/White" transform="translate(11.250000, 12.500000)" fill="#FFFFFF">
                            <polygon id="Combined-Shape" opacity="0.900000036" points="7.5 3 9 3 9 16.5 7.5 16.5 7.5 12.75 5.25 12.75 5.25 16.5 3.75 16.5 3.75 3 5.25 3 5.25 1.5 7.5 1.5"></polygon>
                            <path d="M11.625,9 C13.0747475,9 14.25,10.1752525 14.25,11.625 L14.25,16.5 L9,16.5 L9,11.625 C9,10.1752525 10.1752525,9 11.625,9 Z M11.625,12.75 C12.2463203,12.75 12.75,12.2463203 12.75,11.625 C12.75,11.0036797 12.2463203,10.5 11.625,10.5 C11.0036797,10.5 10.5,11.0036797 10.5,11.625 C10.5,12.2463203 11.0036797,12.75 11.625,12.75 Z" id="Combined-Shape" opacity="0.400000006"></path>
                            <polygon id="Rectangle-11" opacity="0.400000006" points="5.25 12.75 7.5 12.75 7.5 16.5 5.25 16.5"></polygon>
                        </g>
                    </g>
                </g>
            </g>
        </g>
    </g>
</svg>