<svg xmlns="http://www.w3.org/2000/svg" width="32" height="30" viewBox="0 0 32 30">
    <path fill="#FFF" fill-opacity=".8" fill-rule="nonzero" d="M27.573 10.451a4.43 4.43 0 0 0-4.376 3.782h-3.764a4.81 4.81 0 0 0-1.002-2.722l1.862-1.862a1.641 1.641 0 1 0-.688-.624l-1.813 1.812a4.815 4.815 0 0 0-2.743-1.181V5.294A2.658 2.658 0 0 0 14.711 0a2.656 2.656 0 0 0-.585 5.247v4.405a4.824 4.824 0 0 0-2.822 1.281l-.952-.952a2.939 2.939 0 0 0-2.273-4.809 2.946 2.946 0 0 0-2.942 2.943 2.946 2.946 0 0 0 2.942 2.943c.582 0 1.12-.168 1.577-.46l1.034 1.034a4.775 4.775 0 0 0-.91 2.6H5.287a2.66 2.66 0 0 0-5.286.41A2.66 2.66 0 0 0 2.657 17.3a2.66 2.66 0 0 0 2.608-2.14h4.559c.135.949.549 1.808 1.152 2.493L9.11 19.52a1.641 1.641 0 1 0 .663.646l1.877-1.877c.7.539 1.548.892 2.472.985v5.297a2.658 2.658 0 0 0-2.069 2.59 2.66 2.66 0 0 0 2.658 2.657 2.658 2.658 0 1 0 .339-5.294v-5.247a4.826 4.826 0 0 0 2.386-.895l1.805 1.805c-.214.35-.34.76-.34 1.198a2.302 2.302 0 1 0 2.305-2.3c-.496 0-.952.157-1.327.424l-1.74-1.74a4.82 4.82 0 0 0 1.255-2.608h3.77a4.425 4.425 0 0 0 4.413 4.138A4.427 4.427 0 0 0 32 14.875a4.43 4.43 0 0 0-4.427-4.424zM8.08 9.631a1.52 1.52 0 0 1-1.516-1.516A1.52 1.52 0 0 1 8.08 6.599a1.52 1.52 0 0 1 1.516 1.516A1.52 1.52 0 0 1 8.08 9.631zm13.127 10.88c.482 0 .874.392.874.873a.875.875 0 0 1-.874.874.875.875 0 0 1-.874-.874c0-.481.393-.873.874-.873zm6.367-3.496c-1.18 0-2.14-.96-2.14-2.14 0-1.181.96-2.14 2.14-2.14 1.181 0 2.14.959 2.14 2.14 0 1.18-.959 2.14-2.14 2.14z"/>
</svg>
