<svg width="40" height="40" viewBox="0 0 40 40" fill="none" xmlns="http://www.w3.org/2000/svg">
<g id="physical/disk_group_duotone">
<path id="UnionS" fill-rule="evenodd" clip-rule="evenodd" d="M10.0904 5C9.51576 5 8.98165 5.29603 8.67708 5.78333L5 11.6667V33.3333C5 34.2538 5.74619 35 6.66667 35H33.3333C34.2538 35 35 34.2538 35 33.3333V11.6667L31.3229 5.78333C31.0184 5.29603 30.4842 5 29.9096 5H10.0904ZM31.6667 15H8.33333V21.6667H31.6667V15ZM31.6667 25H8.33333V31.6667H31.6667V25Z" fill="#B6C2CD"/>
<g id="Union">
<path fill-rule="evenodd" clip-rule="evenodd" d="M8.3335 15H31.6668V21.6667H8.3335V15ZM10.0002 16.6667H13.3335V20H10.0002V16.6667ZM15.0002 16.6667H18.3335V20H15.0002V16.6667Z" fill="#324558"/>
<path fill-rule="evenodd" clip-rule="evenodd" d="M8.3335 25H31.6668V31.6667H8.3335V25ZM10.0002 26.6667H13.3335V30H10.0002V26.6667ZM15.0002 26.6667H18.3335V30H15.0002V26.6667Z" fill="#324558"/>
</g>
</g>
</svg>
