<svg width="48" height="48" viewBox="0 0 48 48" fill="none" xmlns="http://www.w3.org/2000/svg">
<path d="M28.3197 8.93272C29.1676 10.8827 29.8658 13.2827 30.3367 16H17.663C18.134 13.2827 18.8322 10.8827 19.68 8.93272C20.487 7.07666 21.3706 5.76402 22.1993 4.9578C23.0141 4.16519 23.6183 4 23.9999 4C24.3814 4 24.9857 4.16519 25.8004 4.9578C26.6292 5.76402 27.5128 7.07666 28.3197 8.93272Z" fill="#B6C2CD"/>
<path d="M18.5181 43.2394C12.7442 41.5975 8.03498 37.4264 5.66406 32H14.6214C15.3692 36.6357 16.7481 40.5662 18.5181 43.2394Z" fill="#B6C2CD"/>
<path d="M24.6861 43.8417C22.198 40.5221 22.4634 35.7924 25.4822 32.7736L26.2558 32H17.663C18.134 34.7173 18.8322 37.1173 19.68 39.0673C20.487 40.9233 21.3706 42.236 22.1993 43.0422C23.0141 43.8348 23.6183 44 23.9999 44C24.1796 44 24.4088 43.9633 24.6861 43.8417Z" fill="#B6C2CD"/>
<path d="M14.6214 16C15.3692 11.3643 16.7481 7.43381 18.5181 4.76057C12.7442 6.40254 8.03498 10.5736 5.66406 16H14.6214Z" fill="#B6C2CD"/>
<path d="M33.3784 16C32.6306 11.3643 31.2517 7.4338 29.4817 4.76057C35.2556 6.40254 39.9648 10.5736 42.3357 16H33.3784Z" fill="#B6C2CD"/>
<path d="M14.237 19C14.0818 20.6097 14 22.2829 14 24C14 25.7171 14.0818 27.3903 14.237 29H4.63009C4.21877 27.4019 4 25.7265 4 24C4 22.2735 4.21876 20.5981 4.63009 19H14.237Z" fill="#324558"/>
<path d="M30.8871 27.3689L29.2559 29H17.2517C17.0881 27.4064 17 25.7326 17 24C17 22.2674 17.0881 20.5936 17.2517 19H30.7483C30.9119 20.5936 31 22.2674 31 24C31 25.151 30.9611 26.2761 30.8871 27.3689Z" fill="#324558"/>
<path d="M34.7743 23.4816C37.2293 21.0267 40.8156 20.3926 43.855 21.5795C43.749 20.7008 43.586 19.8397 43.3699 19H33.763C33.9182 20.6097 34 22.2829 34 24C34 24.0856 33.9998 24.1711 33.9994 24.2566L34.7743 23.4816Z" fill="#324558"/>
<path d="M42.5176 31.2249L39.4201 34.3224L41.5414 36.4438L44.6389 33.3462C46.7772 31.208 46.7772 27.7412 44.6389 25.603C42.5007 23.4647 39.0339 23.4647 36.8956 25.603L33.7981 28.7005L35.9194 30.8218L39.0169 27.7243C39.9836 26.7576 41.5509 26.7576 42.5176 27.7243C43.4843 28.691 43.4843 30.2582 42.5176 31.2249Z" fill="#324558"/>
<path d="M27.6037 34.8949L30.7008 31.7978L32.8221 33.9191L29.725 37.0162C28.7583 37.9829 28.7583 39.5502 29.725 40.5169C30.6917 41.4835 32.259 41.4835 33.2257 40.5169L36.3228 37.4198L38.4441 39.5411L35.347 42.6382C33.2087 44.7764 29.7419 44.7764 27.6037 42.6382C25.4654 40.4999 25.4654 37.0331 27.6037 34.8949Z" fill="#324558"/>
<path d="M33.4112 34.5083L36.5085 31.411L38.8315 33.734L35.7342 36.8313L33.4112 34.5083Z" fill="#324558"/>
</svg>
