<svg width="32" height="32" viewBox="0 0 32 32" fill="none" xmlns="http://www.w3.org/2000/svg">
<path d="M2.66666 15.9631C2.66666 8.93574 8.10326 3.17812 15 2.66675V8.02504C11.0537 8.51714 7.99999 11.8835 7.99999 15.9631C7.99999 20.3814 11.5817 23.9631 16 23.9631C17.8487 23.9631 19.551 23.3361 20.9056 22.283L24.6946 26.0719C22.3602 28.0816 19.3219 29.2965 16 29.2965C8.63619 29.2965 2.66666 23.3269 2.66666 15.9631Z" fill="#CCD3DB"/>
<path fill-rule="evenodd" clip-rule="evenodd" d="M17 8.0619C20.6187 8.51315 23.4869 11.3813 23.9381 15H29.2964C28.8095 8.43341 23.5666 3.1905 17 2.70361V8.0619ZM22.3199 20.9057C23.18 19.7991 23.756 18.4607 23.9381 17H29.2964C29.0791 19.9301 27.915 22.5966 26.1088 24.6946L22.3199 20.9057Z" fill="#36435C"/>
</svg>
