<svg width="40" height="40" viewBox="0 0 40 40" fill="none" xmlns="http://www.w3.org/2000/svg">
<path fill-rule="evenodd" clip-rule="evenodd" d="M21.0416 3.33374C15.8989 3.33374 11.3031 5.66291 8.24683 9.32332C10.2802 11.7587 12.9968 13.6025 16.102 14.565C16.8416 14.7942 17.6406 14.7056 18.3375 14.3692C19.1552 13.9733 20.0718 13.7504 21.0416 13.7504C22.0114 13.7504 22.9281 13.9733 23.7458 14.3692C24.4427 14.7056 25.2416 14.7942 25.9812 14.565C29.0864 13.6025 31.802 11.7587 33.8364 9.32332C30.7802 5.66291 26.1843 3.33374 21.0416 3.33374Z" fill="#324558"/>
<path fill-rule="evenodd" clip-rule="evenodd" d="M25.9814 25.4346C25.2419 25.2054 24.4419 25.294 23.746 25.6315C22.9273 26.0263 22.0106 26.2502 21.0419 26.2502C20.0721 26.2502 19.1554 26.0263 18.3377 25.6315C17.6408 25.294 16.8419 25.2054 16.1023 25.4346C12.9971 26.3981 10.2804 28.2419 8.24707 30.6773C11.3033 34.3367 15.8992 36.6669 21.0419 36.6669C26.1835 36.6669 30.7794 34.3367 33.8367 30.6773C31.8023 28.2419 29.0856 26.3981 25.9814 25.4346Z" fill="#B6C2CD"/>
<path fill-rule="evenodd" clip-rule="evenodd" d="M7.22103 10.6888C5.42485 13.3478 4.375 16.5508 4.375 20.0002C4.375 22.9085 5.12396 25.6408 6.43333 28.021C8.80937 25.4179 11.8104 23.4939 15.1771 22.4502C15.1942 22.4448 15.2119 22.4414 15.2298 22.4379C15.2468 22.4347 15.264 22.4313 15.2812 22.4262C14.9656 21.6804 14.7917 20.8606 14.7917 20.0002C14.7917 18.5984 15.2539 17.3069 16.0338 16.2663C15.8916 16.2371 15.7498 16.2007 15.6087 16.157L15.6085 16.157C12.3183 15.1371 9.42665 13.2192 7.22103 10.6888ZM8.24767 9.32445C8.24776 9.32435 8.24784 9.32425 8.24792 9.32416C10.2823 11.7585 12.9979 13.6033 16.1021 14.5648C16.8417 14.7939 17.6406 14.7054 18.3375 14.3689C18.3382 14.3685 18.3389 14.3683 18.3396 14.3681C18.3389 14.3685 18.3381 14.3688 18.3374 14.3692C17.6405 14.7056 16.8415 14.7942 16.102 14.565C12.9972 13.6027 10.2809 11.7593 8.24767 9.32445Z" fill="#324558"/>
</svg>
