<svg width="223" height="204" viewBox="0 0 223 204" fill="none" xmlns="http://www.w3.org/2000/svg">
<path opacity="0.5" fill-rule="evenodd" clip-rule="evenodd" d="M111.832 120.042L115.285 125.829L150.422 157.797L32.4091 151.266L12.0023 113.922L111.832 120.042Z" fill="url(#paint0_linear_646_356235)"/>
<path d="M150.81 79.2846V113.708L120.79 96.4961L121.19 62.073L150.81 79.2846Z" fill="url(#paint1_linear_646_356235)"/>
<path d="M150.81 79.2846L180.83 62.073V96.4961L150.81 113.708V79.2846Z" fill="url(#paint2_linear_646_356235)"/>
<path d="M121.19 62.0732L150.81 44.8616L180.83 62.0732L150.81 79.2847L121.19 62.0732Z" fill="url(#paint3_linear_646_356235)"/>
<path d="M113.184 101.299V135.722L83.1643 118.511V84.0878L113.184 101.299Z" fill="url(#paint4_linear_646_356235)"/>
<path d="M113.184 101.299L142.804 84.0878V118.511L113.184 135.722V101.299Z" fill="url(#paint5_linear_646_356235)"/>
<path d="M83.1643 84.0879L112.784 66.8763L142.804 84.0879L113.184 101.299L83.1643 84.0879Z" fill="url(#paint6_linear_646_356235)"/>
<path d="M188.835 101.299V135.722L158.815 118.511V84.0878L188.835 101.299Z" fill="url(#paint7_linear_646_356235)"/>
<path d="M188.835 101.299L218.455 84.0878V118.511L188.835 135.722V101.299Z" fill="url(#paint8_linear_646_356235)"/>
<path d="M158.815 84.0879L188.835 66.8763L218.455 84.0879L188.835 101.299L158.815 84.0879Z" fill="url(#paint9_linear_646_356235)"/>
<path d="M150.81 123.314V157.737L120.79 140.526L121.19 106.103L150.81 123.314Z" fill="url(#paint10_linear_646_356235)"/>
<path d="M150.81 123.314L180.83 106.103V140.526L150.81 157.737V123.314Z" fill="url(#paint11_linear_646_356235)"/>
<path d="M121.19 106.103L150.81 88.891L180.83 106.103L150.81 123.314L121.19 106.103Z" fill="url(#paint12_linear_646_356235)"/>
<path d="M150.81 35.6554V70.0784L120.79 52.4667L121.19 18.0436L150.81 35.6554Z" fill="url(#paint13_linear_646_356235)"/>
<path d="M150.81 35.6554L180.83 18.0436V52.4667L150.81 70.0784V35.6554Z" fill="url(#paint14_linear_646_356235)"/>
<path d="M121.19 18.0436L150.81 0.832092L180.83 18.0436L150.81 35.6555L121.19 18.0436Z" fill="url(#paint15_linear_646_356235)" fill-opacity="0.9"/>
<path d="M113.184 57.2698V91.6929L83.1643 74.4814V40.0583L113.184 57.2698Z" fill="url(#paint16_linear_646_356235)"/>
<path d="M113.184 57.2698L142.804 40.0583V74.4814L113.184 91.6929V57.2698Z" fill="url(#paint17_linear_646_356235)"/>
<path d="M83.1643 40.0584L112.784 22.8468L142.804 40.0584L113.184 57.2699L83.1643 40.0584Z" fill="url(#paint18_linear_646_356235)"/>
<path d="M188.835 57.2697L213.251 81.6861L179.629 90.492L155.613 66.0756L188.835 57.2697Z" fill="url(#paint19_linear_646_356235)"/>
<path d="M188.835 57.2699L197.641 24.0476L222.057 48.464L213.251 81.6863L188.835 57.2699Z" fill="url(#paint20_linear_646_356235)"/>
<path d="M155.613 66.0758L164.419 32.8535L197.641 24.0476L188.835 57.2699L155.613 66.0758Z" fill="url(#paint21_linear_646_356235)"/>
<path d="M150.81 79.2846V113.708L120.79 96.4961L121.19 62.073L150.81 79.2846Z" fill="url(#paint22_linear_646_356235)"/>
<path d="M150.81 79.2846L180.83 62.073V96.4961L150.81 113.708V79.2846Z" fill="url(#paint23_linear_646_356235)"/>
<path d="M121.19 62.0732L150.81 44.8616L180.83 62.0732L150.81 79.2847L121.19 62.0732Z" fill="url(#paint24_linear_646_356235)"/>
<defs>
<linearGradient id="paint0_linear_646_356235" x1="47.8682" y1="169.252" x2="133.698" y2="125.35" gradientUnits="userSpaceOnUse">
<stop stop-color="#EEEEEE" stop-opacity="0.01"/>
<stop offset="1" stop-color="#31263D"/>
</linearGradient>
<linearGradient id="paint1_linear_646_356235" x1="116.597" y1="98.0908" x2="155.454" y2="77.8176" gradientUnits="userSpaceOnUse">
<stop stop-color="#97B5E1"/>
<stop offset="1" stop-color="#E8F1FF"/>
</linearGradient>
<linearGradient id="paint2_linear_646_356235" x1="154.177" y1="80.3693" x2="169.719" y2="90.5061" gradientUnits="userSpaceOnUse">
<stop stop-color="white"/>
<stop offset="1" stop-color="#C9D9F4"/>
</linearGradient>
<linearGradient id="paint3_linear_646_356235" x1="121.066" y1="62.1264" x2="180.759" y2="62.1264" gradientUnits="userSpaceOnUse">
<stop stop-color="white"/>
<stop offset="1" stop-color="#C9D9F4"/>
</linearGradient>
<linearGradient id="paint4_linear_646_356235" x1="96.69" y1="93.3885" x2="80.8533" y2="110.908" gradientUnits="userSpaceOnUse">
<stop stop-color="#611989"/>
<stop offset="0.484375" stop-color="#5D1C8D"/>
<stop offset="1" stop-color="#4F1B77"/>
</linearGradient>
<linearGradient id="paint5_linear_646_356235" x1="126.53" y1="93.3885" x2="110.673" y2="110.696" gradientUnits="userSpaceOnUse">
<stop stop-color="#611989"/>
<stop offset="1" stop-color="#46146C"/>
</linearGradient>
<linearGradient id="paint6_linear_646_356235" x1="99.8238" y1="113.925" x2="150.576" y2="71.8693" gradientUnits="userSpaceOnUse">
<stop stop-color="#4D5FFF"/>
<stop offset="1" stop-color="#FF6985"/>
</linearGradient>
<linearGradient id="paint7_linear_646_356235" x1="172.341" y1="93.3885" x2="156.504" y2="110.908" gradientUnits="userSpaceOnUse">
<stop stop-color="#611989"/>
<stop offset="1" stop-color="#46146C"/>
</linearGradient>
<linearGradient id="paint8_linear_646_356235" x1="86.1403" y1="263.5" x2="280.925" y2="275.789" gradientUnits="userSpaceOnUse">
<stop stop-color="#4D8BFF"/>
<stop offset="1" stop-color="#FF6985"/>
</linearGradient>
<linearGradient id="paint9_linear_646_356235" x1="175.474" y1="113.925" x2="226.227" y2="71.8692" gradientUnits="userSpaceOnUse">
<stop stop-color="#4D8BFF"/>
<stop offset="0.0625" stop-color="#585EF7"/>
<stop offset="1" stop-color="#FF6985"/>
</linearGradient>
<linearGradient id="paint10_linear_646_356235" x1="134.315" y1="115.403" x2="118.479" y2="132.923" gradientUnits="userSpaceOnUse">
<stop stop-color="#611989"/>
<stop offset="1" stop-color="#46146C"/>
</linearGradient>
<linearGradient id="paint11_linear_646_356235" x1="166.712" y1="194.631" x2="219.985" y2="169.583" gradientUnits="userSpaceOnUse">
<stop stop-color="#4D8BFF"/>
<stop offset="0.963496" stop-color="#F96A89"/>
<stop offset="0.991251" stop-color="#F96A89"/>
<stop offset="1" stop-color="#FF6985"/>
</linearGradient>
<linearGradient id="paint12_linear_646_356235" x1="137.849" y1="135.939" x2="188.602" y2="93.884" gradientUnits="userSpaceOnUse">
<stop stop-color="#4D74FF"/>
<stop offset="1" stop-color="#FF6985"/>
</linearGradient>
<linearGradient id="paint13_linear_646_356235" x1="134.315" y1="27.4164" x2="118.344" y2="44.9491" gradientUnits="userSpaceOnUse">
<stop stop-color="#611989"/>
<stop offset="1" stop-color="#46146C"/>
</linearGradient>
<linearGradient id="paint14_linear_646_356235" x1="166.712" y1="107.258" x2="220.134" y2="82.3333" gradientUnits="userSpaceOnUse">
<stop stop-color="#3C3496"/>
<stop offset="0.963496" stop-color="#F96A89"/>
<stop offset="1" stop-color="#F96A89"/>
<stop offset="1" stop-color="#FF6985"/>
</linearGradient>
<linearGradient id="paint15_linear_646_356235" x1="141.501" y1="46.0764" x2="215.002" y2="-7.56152" gradientUnits="userSpaceOnUse">
<stop stop-color="#4D8BFF"/>
<stop offset="1" stop-color="#FF6985"/>
</linearGradient>
<linearGradient id="paint16_linear_646_356235" x1="96.69" y1="49.359" x2="80.8533" y2="66.8786" gradientUnits="userSpaceOnUse">
<stop stop-color="#611989"/>
<stop offset="0.484375" stop-color="#5D1C8D"/>
<stop offset="1" stop-color="#4F1B77"/>
</linearGradient>
<linearGradient id="paint17_linear_646_356235" x1="126.53" y1="49.359" x2="110.673" y2="66.6668" gradientUnits="userSpaceOnUse">
<stop stop-color="#611989"/>
<stop offset="1" stop-color="#46146C"/>
</linearGradient>
<linearGradient id="paint18_linear_646_356235" x1="103.475" y1="67.571" x2="176.384" y2="13.7469" gradientUnits="userSpaceOnUse">
<stop stop-color="#4D8BFF"/>
<stop offset="1" stop-color="#FF6985"/>
</linearGradient>
<linearGradient id="paint19_linear_646_356235" x1="191.843" y1="32.2627" x2="122.095" y2="100.815" gradientUnits="userSpaceOnUse">
<stop stop-color="#5348C0"/>
<stop offset="1" stop-color="#C86DD7"/>
</linearGradient>
<linearGradient id="paint20_linear_646_356235" x1="200.149" y1="98.9346" x2="258.798" y2="66.5376" gradientUnits="userSpaceOnUse">
<stop stop-color="#FF6985"/>
<stop offset="1" stop-color="#4D8BFF"/>
</linearGradient>
<linearGradient id="paint21_linear_646_356235" x1="169.926" y1="78.6527" x2="220.401" y2="30.2796" gradientUnits="userSpaceOnUse">
<stop stop-color="#F25875"/>
<stop offset="1" stop-color="#2D6FEA"/>
</linearGradient>
<linearGradient id="paint22_linear_646_356235" x1="134.315" y1="71.3738" x2="118.479" y2="88.8933" gradientUnits="userSpaceOnUse">
<stop stop-color="#611989"/>
<stop offset="1" stop-color="#46146C"/>
</linearGradient>
<linearGradient id="paint23_linear_646_356235" x1="166.712" y1="150.601" x2="219.985" y2="125.553" gradientUnits="userSpaceOnUse">
<stop stop-color="#4D8BFF"/>
<stop offset="0.963496" stop-color="#F96A89"/>
<stop offset="0.991251" stop-color="#F96A89"/>
<stop offset="1" stop-color="#FF6985"/>
</linearGradient>
<linearGradient id="paint24_linear_646_356235" x1="141.501" y1="89.5858" x2="214.409" y2="35.7617" gradientUnits="userSpaceOnUse">
<stop stop-color="#4D8BFF"/>
<stop offset="1" stop-color="#FF6985"/>
</linearGradient>
</defs>
</svg>
