<svg width="40" height="40" viewBox="0 0 40 40" fill="none" xmlns="http://www.w3.org/2000/svg">
<path fill-rule="evenodd" clip-rule="evenodd" d="M18.3333 5H21.6666V8.33333H18.3333V5ZM18.3333 18.3333H21.6666V21.6667H18.3333V18.3333ZM21.6666 31.6667H18.3333V35H21.6666V31.6667Z" fill="#CCD3DB"/>
<path fill-rule="evenodd" clip-rule="evenodd" d="M6.36636 8.33398C5.6 8.33398 5 8.89273 5 9.58023V17.0877C5.00524 17.7765 5.61501 18.3326 6.36636 18.334H33.6336C34.4 18.334 35 17.7752 35 17.0877V9.58023C35 8.90023 34.3864 8.33398 33.6336 8.33398H6.36636ZM15 10.0007H11.6667V13.334H15V10.0007ZM6.66667 10.0007H10V13.334H6.66667V10.0007ZM6.36636 21.6673C5.6 21.6673 5 22.2261 5 22.9136V30.4211C5.00524 31.1098 5.61501 31.666 6.36636 31.6673H33.6336C34.4 31.6673 35 31.1086 35 30.4211V22.9136C35 22.2336 34.3864 21.6673 33.6336 21.6673H6.36636ZM15 23.334H11.6667V26.6673H15V23.334ZM6.66667 23.334H10V26.6673H6.66667V23.334Z" fill="#36435C"/>
<rect x="20" y="20" width="20" height="20" rx="10" fill="white"/>
<path fill-rule="evenodd" clip-rule="evenodd" d="M26.4336 31.1133V33.0846L25.6339 34.6839C24.8816 34.7295 24.2945 35.3526 24.2937 36.1063C24.2937 36.8942 24.9324 37.5329 25.7203 37.5329C26.5082 37.5329 27.1469 36.8942 27.1469 36.1063C27.1466 35.8269 27.0642 35.5536 26.91 35.3206L27.8602 33.4217V31.1133H26.4336ZM29.2867 31.1133V34.8734C28.8461 35.1278 28.5743 35.5975 28.5734 36.1063C28.5734 36.8942 29.2121 37.5329 30 37.5329C30.7879 37.5329 31.4266 36.8942 31.4266 36.1063C31.4262 35.597 31.1543 35.1266 30.7133 34.872V31.1133H29.2867ZM32.1399 31.1133V33.4217L33.09 35.322C32.9361 35.5546 32.8538 35.8273 32.8532 36.1063C32.8532 36.8942 33.4919 37.5329 34.2798 37.5329C35.0677 37.5329 35.7064 36.8942 35.7064 36.1063C35.7055 35.3526 35.1185 34.7295 34.3662 34.6839L33.5665 33.0846V31.1133H32.1399Z" fill="#324558"/>
<path fill-rule="evenodd" clip-rule="evenodd" d="M29.9999 22.5312C28.3658 22.5312 26.8335 23.3429 25.9041 24.6739C23.4268 24.7652 21.4404 26.8089 21.4404 29.3075C21.4404 31.3254 22.7384 33.0409 24.5416 33.6764L25.0069 32.7472V29.6851H34.993V32.7472L35.5377 33.8352C37.2674 33.4265 38.5594 31.8739 38.5594 30.0208C38.5594 27.9066 36.8782 26.1775 34.7826 26.1005C34.1649 23.9977 32.2461 22.5312 29.9999 22.5312Z" fill="#B6C2CD"/>
</svg>
