<svg width="94" height="20" viewBox="0 0 94 20" fill="none" xmlns="http://www.w3.org/2000/svg">
<path d="M9.625 1C6.84788 1 4.48282 2.76423 3.58945 5.23306C1.53599 5.68706 0 7.51832 0 9.70833C0 11.6483 1.20531 13.3068 2.90794 13.9758L3.20833 13.375V9.70833H16.0417V13.375L16.3421 13.9758C18.0447 13.3068 19.25 11.6483 19.25 9.70833C19.25 7.51832 17.714 5.68706 15.6606 5.23306C14.7672 2.76423 12.4021 1 9.625 1Z" fill="#00A971"/>
<path d="M6.64592 13.9501V11.082H5.27091V13.9501C5.27091 13.9889 5.26105 14.0271 5.24224 14.0611L4.34681 15.6786C4.27412 15.6699 4.20013 15.6654 4.12508 15.6654C3.11256 15.6654 2.29175 16.4862 2.29175 17.4987C2.29175 18.5112 3.11256 19.332 4.12508 19.332C5.1376 19.332 5.95842 18.5112 5.95842 17.4987C5.95842 17.0614 5.80529 16.6598 5.54972 16.3447L6.44522 14.727C6.57686 14.4892 6.64592 14.2219 6.64592 13.9501Z" fill="#242E42"/>
<path d="M12.6042 13.9501V11.082H13.9792V13.9501C13.9792 13.9889 13.9891 14.0271 14.0079 14.0611L14.9034 15.6786C14.976 15.6699 15.05 15.6654 15.1251 15.6654C16.1376 15.6654 16.9584 16.4862 16.9584 17.4987C16.9584 18.5112 16.1376 19.332 15.1251 19.332C14.1126 19.332 13.2917 18.5112 13.2917 17.4987C13.2917 17.0614 13.4449 16.6598 13.7004 16.3447L12.8049 14.727C12.6733 14.4892 12.6042 14.2219 12.6042 13.9501Z" fill="#242E42"/>
<path d="M9.62508 19.332C10.6376 19.332 11.4584 18.5112 11.4584 17.4987C11.4584 16.7293 10.9845 16.0706 10.3126 15.7986V11.082H8.93758V15.7986C8.2657 16.0706 7.79175 16.7293 7.79175 17.4987C7.79175 18.5112 8.61256 19.332 9.62508 19.332Z" fill="#242E42"/>
<g clip-path="url(#clip0_1988_464333)">
<path d="M32.4453 14.4453V16H26.4062V14.4453H32.4453ZM26.9609 4.625V16H25V4.625H26.9609ZM31.6562 9.375V10.9062H26.4062V9.375H31.6562ZM32.4062 4.625V6.1875H26.4062V4.625H32.4062Z" fill="#242E42"/>
<path d="M38.8594 14.25V4H40.75V16H39.0391L38.8594 14.25ZM33.3594 11.8672V11.7031C33.3594 11.0625 33.4349 10.4792 33.5859 9.95312C33.737 9.42188 33.9557 8.96615 34.2422 8.58594C34.5286 8.20052 34.8776 7.90625 35.2891 7.70312C35.7005 7.49479 36.1641 7.39062 36.6797 7.39062C37.1901 7.39062 37.638 7.48958 38.0234 7.6875C38.4089 7.88542 38.737 8.16927 39.0078 8.53906C39.2786 8.90365 39.4948 9.34115 39.6562 9.85156C39.8177 10.3568 39.9323 10.9193 40 11.5391V12.0625C39.9323 12.6667 39.8177 13.2188 39.6562 13.7188C39.4948 14.2188 39.2786 14.651 39.0078 15.0156C38.737 15.3802 38.4062 15.6615 38.0156 15.8594C37.6302 16.0573 37.1797 16.1562 36.6641 16.1562C36.1536 16.1562 35.6927 16.0495 35.2812 15.8359C34.875 15.6224 34.5286 15.3229 34.2422 14.9375C33.9557 14.5521 33.737 14.099 33.5859 13.5781C33.4349 13.0521 33.3594 12.4818 33.3594 11.8672ZM35.2422 11.7031V11.8672C35.2422 12.2526 35.276 12.612 35.3438 12.9453C35.4167 13.2786 35.5286 13.5729 35.6797 13.8281C35.8307 14.0781 36.026 14.276 36.2656 14.4219C36.5104 14.5625 36.8021 14.6328 37.1406 14.6328C37.5677 14.6328 37.9193 14.5391 38.1953 14.3516C38.4714 14.1641 38.6875 13.9115 38.8438 13.5938C39.0052 13.2708 39.1146 12.9115 39.1719 12.5156V11.1016C39.1406 10.7943 39.0755 10.5078 38.9766 10.2422C38.8828 9.97656 38.7552 9.74479 38.5938 9.54688C38.4323 9.34375 38.2318 9.1875 37.9922 9.07812C37.7578 8.96354 37.4792 8.90625 37.1562 8.90625C36.8125 8.90625 36.5208 8.97917 36.2812 9.125C36.0417 9.27083 35.8438 9.47135 35.6875 9.72656C35.5365 9.98177 35.4245 10.2786 35.3516 10.6172C35.2786 10.9557 35.2422 11.3177 35.2422 11.7031Z" fill="#242E42"/>
<path d="M48.1328 7.54688H49.8438V15.7656C49.8438 16.526 49.6823 17.1719 49.3594 17.7031C49.0365 18.2344 48.5859 18.638 48.0078 18.9141C47.4297 19.1953 46.7604 19.3359 46 19.3359C45.6771 19.3359 45.3177 19.2891 44.9219 19.1953C44.5312 19.1016 44.151 18.9505 43.7812 18.7422C43.4167 18.5391 43.112 18.2708 42.8672 17.9375L43.75 16.8281C44.0521 17.1875 44.3854 17.4505 44.75 17.6172C45.1146 17.7839 45.4974 17.8672 45.8984 17.8672C46.3307 17.8672 46.6979 17.7865 47 17.625C47.3073 17.4688 47.5443 17.237 47.7109 16.9297C47.8776 16.6224 47.9609 16.2474 47.9609 15.8047V9.46094L48.1328 7.54688ZM42.3906 11.8672V11.7031C42.3906 11.0625 42.4688 10.4792 42.625 9.95312C42.7812 9.42188 43.0052 8.96615 43.2969 8.58594C43.5885 8.20052 43.9427 7.90625 44.3594 7.70312C44.776 7.49479 45.2474 7.39062 45.7734 7.39062C46.3203 7.39062 46.7865 7.48958 47.1719 7.6875C47.5625 7.88542 47.888 8.16927 48.1484 8.53906C48.4089 8.90365 48.612 9.34115 48.7578 9.85156C48.9089 10.3568 49.0208 10.9193 49.0938 11.5391V12.0625C49.026 12.6667 48.9115 13.2188 48.75 13.7188C48.5885 14.2188 48.375 14.651 48.1094 15.0156C47.8438 15.3802 47.5156 15.6615 47.125 15.8594C46.7396 16.0573 46.2839 16.1562 45.7578 16.1562C45.2422 16.1562 44.776 16.0495 44.3594 15.8359C43.9479 15.6224 43.5938 15.3229 43.2969 14.9375C43.0052 14.5521 42.7812 14.099 42.625 13.5781C42.4688 13.0521 42.3906 12.4818 42.3906 11.8672ZM44.2734 11.7031V11.8672C44.2734 12.2526 44.3099 12.612 44.3828 12.9453C44.4609 13.2786 44.5781 13.5729 44.7344 13.8281C44.8958 14.0781 45.099 14.276 45.3438 14.4219C45.5938 14.5625 45.888 14.6328 46.2266 14.6328C46.6693 14.6328 47.0312 14.5391 47.3125 14.3516C47.599 14.1641 47.8177 13.9115 47.9688 13.5938C48.125 13.2708 48.2344 12.9115 48.2969 12.5156V11.1016C48.2656 10.7943 48.2005 10.5078 48.1016 10.2422C48.0078 9.97656 47.8802 9.74479 47.7188 9.54688C47.5573 9.34375 47.3542 9.1875 47.1094 9.07812C46.8646 8.96354 46.5755 8.90625 46.2422 8.90625C45.9036 8.90625 45.6094 8.97917 45.3594 9.125C45.1094 9.27083 44.9036 9.47135 44.7422 9.72656C44.5859 9.98177 44.4688 10.2786 44.3906 10.6172C44.3125 10.9557 44.2734 11.3177 44.2734 11.7031Z" fill="#242E42"/>
<path d="M55.5234 16.1562C54.8984 16.1562 54.3333 16.0547 53.8281 15.8516C53.3281 15.6432 52.901 15.3542 52.5469 14.9844C52.1979 14.6146 51.9297 14.1797 51.7422 13.6797C51.5547 13.1797 51.4609 12.6406 51.4609 12.0625V11.75C51.4609 11.0885 51.5573 10.4896 51.75 9.95312C51.9427 9.41667 52.2109 8.95833 52.5547 8.57812C52.8984 8.19271 53.3047 7.89844 53.7734 7.69531C54.2422 7.49219 54.75 7.39062 55.2969 7.39062C55.901 7.39062 56.4297 7.49219 56.8828 7.69531C57.3359 7.89844 57.7109 8.1849 58.0078 8.55469C58.3099 8.91927 58.5339 9.35417 58.6797 9.85938C58.8307 10.3646 58.9062 10.9219 58.9062 11.5312V12.3359H52.375V10.9844H57.0469V10.8359C57.0365 10.4974 56.9688 10.1797 56.8438 9.88281C56.724 9.58594 56.5391 9.34635 56.2891 9.16406C56.0391 8.98177 55.7057 8.89062 55.2891 8.89062C54.9766 8.89062 54.6979 8.95833 54.4531 9.09375C54.2135 9.22396 54.013 9.41406 53.8516 9.66406C53.6901 9.91406 53.5651 10.2161 53.4766 10.5703C53.3932 10.9193 53.3516 11.3125 53.3516 11.75V12.0625C53.3516 12.4323 53.401 12.776 53.5 13.0938C53.6042 13.4062 53.7552 13.6797 53.9531 13.9141C54.151 14.1484 54.3906 14.3333 54.6719 14.4688C54.9531 14.599 55.2734 14.6641 55.6328 14.6641C56.0859 14.6641 56.4896 14.5729 56.8438 14.3906C57.1979 14.2083 57.5052 13.9505 57.7656 13.6172L58.7578 14.5781C58.5755 14.8438 58.3385 15.099 58.0469 15.3438C57.7552 15.5833 57.3984 15.7786 56.9766 15.9297C56.5599 16.0807 56.0755 16.1562 55.5234 16.1562Z" fill="#242E42"/>
<path d="M63.4141 13.4453L65.6797 4.625H66.8672L66.7344 6.89844L64.3125 16H63.0781L63.4141 13.4453ZM61.7188 4.625L63.5547 13.375L63.7188 16H62.4062L59.7734 4.625H61.7188ZM69.4375 13.3516L71.25 4.625H73.2031L70.5703 16H69.2578L69.4375 13.3516ZM67.3281 4.625L69.5703 13.4688L69.8984 16H68.6641L66.2812 6.89844L66.1562 4.625H67.3281Z" fill="#242E42"/>
<path d="M76.4844 7.54688V16H74.5938V7.54688H76.4844ZM74.4688 5.32812C74.4688 5.04167 74.5625 4.80469 74.75 4.61719C74.9427 4.42448 75.2083 4.32812 75.5469 4.32812C75.8802 4.32812 76.1432 4.42448 76.3359 4.61719C76.5286 4.80469 76.625 5.04167 76.625 5.32812C76.625 5.60938 76.5286 5.84375 76.3359 6.03125C76.1432 6.21875 75.8802 6.3125 75.5469 6.3125C75.2083 6.3125 74.9427 6.21875 74.75 6.03125C74.5625 5.84375 74.4688 5.60938 74.4688 5.32812Z" fill="#242E42"/>
<path d="M85.0859 14.5V16H78.7891V14.5H85.0859ZM84.9141 8.71875L79.4297 16H78.2109V14.7891L83.6641 7.54688H84.9141V8.71875ZM84.1875 7.54688V9.04688H78.3047V7.54688H84.1875Z" fill="#242E42"/>
<path d="M90.1953 16.1562C89.5703 16.1562 89.0052 16.0547 88.5 15.8516C88 15.6432 87.5729 15.3542 87.2188 14.9844C86.8698 14.6146 86.6016 14.1797 86.4141 13.6797C86.2266 13.1797 86.1328 12.6406 86.1328 12.0625V11.75C86.1328 11.0885 86.2292 10.4896 86.4219 9.95312C86.6146 9.41667 86.8828 8.95833 87.2266 8.57812C87.5703 8.19271 87.9766 7.89844 88.4453 7.69531C88.9141 7.49219 89.4219 7.39062 89.9688 7.39062C90.5729 7.39062 91.1016 7.49219 91.5547 7.69531C92.0078 7.89844 92.3828 8.1849 92.6797 8.55469C92.9818 8.91927 93.2057 9.35417 93.3516 9.85938C93.5026 10.3646 93.5781 10.9219 93.5781 11.5312V12.3359H87.0469V10.9844H91.7188V10.8359C91.7083 10.4974 91.6406 10.1797 91.5156 9.88281C91.3958 9.58594 91.2109 9.34635 90.9609 9.16406C90.7109 8.98177 90.3776 8.89062 89.9609 8.89062C89.6484 8.89062 89.3698 8.95833 89.125 9.09375C88.8854 9.22396 88.6849 9.41406 88.5234 9.66406C88.362 9.91406 88.237 10.2161 88.1484 10.5703C88.0651 10.9193 88.0234 11.3125 88.0234 11.75V12.0625C88.0234 12.4323 88.0729 12.776 88.1719 13.0938C88.276 13.4062 88.4271 13.6797 88.625 13.9141C88.8229 14.1484 89.0625 14.3333 89.3438 14.4688C89.625 14.599 89.9453 14.6641 90.3047 14.6641C90.7578 14.6641 91.1615 14.5729 91.5156 14.3906C91.8698 14.2083 92.1771 13.9505 92.4375 13.6172L93.4297 14.5781C93.2474 14.8438 93.0104 15.099 92.7188 15.3438C92.4271 15.5833 92.0703 15.7786 91.6484 15.9297C91.2318 16.0807 90.7474 16.1562 90.1953 16.1562Z" fill="#242E42"/>
</g>
<defs>
<clipPath id="clip0_1988_464333">
<rect width="69" height="16" fill="white" transform="translate(25 4)"/>
</clipPath>
</defs>
</svg>
