<svg width="29" height="34" viewBox="0 0 29 34" fill="none" xmlns="http://www.w3.org/2000/svg">
<path fill-rule="evenodd" clip-rule="evenodd" d="M0.0494385 17.0002C0.0494385 18.4047 0.246314 19.7595 0.581206 21.0595H20.3459C22.5876 21.0595 24.4052 19.242 24.4052 17.0002C24.4052 14.7575 22.5876 12.9409 20.3459 12.9409H0.581206C0.246314 14.2399 0.0494385 15.5957 0.0494385 17.0002Z" fill="#343741"/>
<mask id="mask0" mask-type="alpha" maskUnits="userSpaceOnUse" x="1" y="0" width="28" height="10">
<path d="M1.71777 0.763184H28.9508V9.89659H1.71777V0.763184Z" fill="white"/>
</mask>
<g mask="url(#mask0)">
<path fill-rule="evenodd" clip-rule="evenodd" d="M27.3725 8.53774C27.9398 8.01511 28.4675 7.45391 28.9516 6.85212C25.9751 3.14294 21.4114 0.763184 16.2866 0.763184C9.87188 0.763184 4.35124 4.49469 1.71777 9.89659H23.9089C25.1937 9.89659 26.4287 9.40846 27.3725 8.53774Z" fill="#FEC514"/>
</g>
<mask id="mask1" mask-type="alpha" maskUnits="userSpaceOnUse" x="1" y="24" width="28" height="10">
<path d="M1.71765 24.104H28.9507V33.237H1.71765V24.104Z" fill="white"/>
</mask>
<g mask="url(#mask1)">
<path fill-rule="evenodd" clip-rule="evenodd" d="M23.9088 24.104H1.71765C4.35213 29.5049 9.87175 33.2374 16.2865 33.2374C21.4113 33.2374 25.975 30.8566 28.9514 27.1485C28.4674 26.5457 27.9397 25.9845 27.3724 25.4618C26.4286 24.5901 25.1936 24.104 23.9088 24.104Z" fill="#00BFB3"/>
</g>
</svg>
