<svg width="40" height="40" viewBox="0 0 40 40" fill="none" xmlns="http://www.w3.org/2000/svg">
    <path fill-rule="evenodd" clip-rule="evenodd" d="M8 5H31.9997C33.6569 5 35 6.34309 35 8V32C35 33.6568 33.6569 35 31.9998 35H8C6.34314 35 5 33.6569 5 32V7.99994C5 6.34309 6.34314 5 8 5ZM10.7914 26.3149H20.1341V24.2448H13.2711V20.9032H19.4379V18.8331H13.2711V16.109H19.8991V14.0316H10.7914V26.3149ZM26.8876 26.315H29.2416V20.7853C29.2416 20.0977 29.1977 19.5702 29.1117 19.2011C29.0261 18.8322 28.8717 18.5029 28.6508 18.2122C28.4308 17.9216 28.1049 17.6836 27.6746 17.4957C27.2446 17.3093 26.7706 17.216 26.2504 17.216C25.0719 17.216 24.0949 17.7179 23.3183 18.7238V17.4166H21.1316V26.315H23.4857V22.2847C23.4857 21.2915 23.5456 20.6093 23.6657 20.2403C23.7849 19.8714 24.0079 19.5754 24.3319 19.3524C24.6568 19.1281 25.0215 19.0167 25.429 19.0167C25.7192 19.0083 26.0048 19.0904 26.2462 19.2517C26.4763 19.4123 26.6485 19.6428 26.7372 19.9089C26.8372 20.191 26.8876 20.8129 26.8876 21.7739V26.315Z" fill="#36435C"/>
</svg>
