<?xml version="1.0" encoding="utf-8"?>
<!-- Generator: Adobe Illustrator 23.0.1, SVG Export Plug-In . SVG Version: 6.00 Build 0)  -->
<svg version="1.1" id="图层_1" xmlns="http://www.w3.org/2000/svg" xmlns:xlink="http://www.w3.org/1999/xlink" x="0px" y="0px"
	 viewBox="0 0 212 212" style="enable-background:new 0 0 212 212;" xml:space="preserve">
<style type="text/css">
	.st0{fill-rule:evenodd;clip-rule:evenodd;fill:#CA2621;}
	.st1{fill-rule:evenodd;clip-rule:evenodd;fill:#FFFFFF;}
</style>
<title>status/pipeline/error</title>
<desc>Created with Sketch.</desc>
<g>
	<g id="Group-15" transform="translate(394.000000, 188.000000)">
		<g id="Group-7" transform="translate(686.000000, 20.000000)">
			<g id="Group-5" transform="translate(12.000000, 12.000000)">
				<g transform="translate(0.000000, 4.000000)">
					<g>
						<path id="Combined-Shape" class="st0" d="M-949.5-206l51.6,51.6v72.9L-949.5-30h-72.9l-51.6-51.6v-72.9l51.6-51.6H-949.5z
							 M-972.2-118l33.9-33.9l-13.8-13.8l-33.9,33.9l-33.9-33.9l-13.8,13.8l33.9,33.9l-33.9,33.9l13.8,13.8l33.9-33.9l33.9,33.9
							l13.8-13.8L-972.2-118z"/>
						<polygon class="st1" points="-972.2,-118 -938.3,-84.1 -952.1,-70.3 -986,-104.2 -1019.9,-70.3 -1033.7,-84.1 -999.8,-118 
							-1033.7,-151.9 -1019.9,-165.7 -986,-131.8 -952.1,-165.7 -938.3,-151.9 						"/>
					</g>
				</g>
			</g>
		</g>
	</g>
</g>
</svg>
