<svg xmlns="http://www.w3.org/2000/svg" width="40" height="40" viewBox="0 0 40 40">
    <g fill="none" fill-rule="evenodd">
        <path fill="#FFF" d="M40 20.95c0-3.376-2.09-6.294-5.192-7.442.131-.714.197-1.438.196-2.164C35.004 5.082 29.943 0 23.706 0c-3.624 0-7.02 1.738-9.143 4.721a5.878 5.878 0 0 0-3.657-1.246c-3.298 0-6.008 2.689-6.008 6.033 0 .721.13 1.443.36 2.099C2.122 12.689 0 15.705 0 19.049a7.93 7.93 0 0 0 5.224 7.476c-.13.688-.195 1.41-.195 2.163 0 6.23 5.06 11.312 11.265 11.312 3.657 0 7.02-1.77 9.143-4.721a6.002 6.002 0 0 0 3.69 1.278c3.297 0 6.008-2.688 6.008-6.032 0-.722-.131-1.443-.36-2.099 3.07-1.115 5.225-4.13 5.225-7.475z"/>
        <path fill="#F4BD19" d="M15.38 17.726l8.98 4.092 9.08-7.921c.131-.658.198-1.327.196-1.997 0-5.565-4.539-10.082-10.131-10.082-3.356 0-6.48 1.637-8.355 4.386l-1.514 7.791 1.744 3.732z"/>
        <path fill="#3CBEB1" d="M6.56 26.097a10.3 10.3 0 0 0-.196 2.02c0 5.537 4.557 10.065 10.13 10.065a10.21 10.21 0 0 0 8.394-4.398l1.476-7.752-2-3.779-8.984-4.071-8.82 7.915z"/>
        <path fill="#E9478C" d="M5.764 11.246l6.429 1.481 1.443-7.172c-.893-.673-1.96-1.01-3.094-1.01-2.784 0-5.087 2.223-5.087 4.984 0 .572.103 1.178.309 1.717z"/>
        <path fill="#2C458F" d="M5.473 12.727c-2.7.884-4.564 3.534-4.564 6.413 0 2.814 1.703 5.333 4.275 6.315l8.452-7.787-1.542-3.37-6.621-1.57z"/>
        <path fill="#95C63D" d="M25.455 34.41a5.115 5.115 0 0 0 3.072 1.045c2.796 0 5.11-2.223 5.11-4.984 0-.606-.104-1.178-.311-1.717l-6.456-1.481-1.415 7.138z"/>
        <path fill="#176655" d="M27.192 25.702l6.505 1.57c2.653-.915 4.485-3.533 4.485-6.412 0-2.814-1.674-5.3-4.2-6.315l-8.527 7.722 1.737 3.435z"/>
    </g>
</svg>
