<svg width="17" height="16" viewBox="0 0 17 16" fill="none" xmlns="http://www.w3.org/2000/svg">
<path fill-rule="evenodd" clip-rule="evenodd" d="M8.89762 2L15.5643 13.5467H2.23096L8.89762 2ZM9.56429 12.0007C9.56429 12.3689 9.26581 12.6674 8.89762 12.6674C8.52943 12.6674 8.23096 12.3689 8.23096 12.0007C8.23096 11.6325 8.52943 11.334 8.89762 11.334C9.26581 11.334 9.56429 11.6325 9.56429 12.0007ZM9.56429 6H8.23096L8.36429 10.6667H9.43096L9.56429 6Z" fill="#F5A623"/>
<path fill-rule="evenodd" clip-rule="evenodd" d="M9.56429 6H8.23096L8.36429 10.6667H9.43096L9.56429 6ZM8.89762 12.6674C9.26581 12.6674 9.56429 12.3689 9.56429 12.0007C9.56429 11.6325 9.26581 11.334 8.89762 11.334C8.52943 11.334 8.23096 11.6325 8.23096 12.0007C8.23096 12.3689 8.52943 12.6674 8.89762 12.6674Z" fill="white"/>
</svg>
