<svg width="20" height="20" viewBox="0 0 20 20" fill="none" xmlns="http://www.w3.org/2000/svg">
<path d="M17.7866 3.875H11.9533V5.54167H17.7866V3.875Z" fill="#B6C2CD"/>
<path d="M17.7866 9.16614H10.2866V10.8328H17.7866V9.16614Z" fill="#B6C2CD"/>
<path d="M11.9533 14.4291H17.7866V16.0958H11.9533V14.4291Z" fill="#B6C2CD"/>
<path fill-rule="evenodd" clip-rule="evenodd" d="M5.08546 4.1523C5.43054 3.78294 5.99602 3.78294 6.34109 4.1523L9.48698 7.5196L8.57105 8.5L5.71328 5.4411L2.85551 8.5L1.93958 7.5196L5.08546 4.1523Z" fill="#324558"/>
<path fill-rule="evenodd" clip-rule="evenodd" d="M5.08558 15.8187C5.43066 16.188 5.99614 16.188 6.34122 15.8187L9.4871 12.4514L8.57117 11.471L5.7134 14.5299L2.85563 11.471L1.9397 12.4514L5.08558 15.8187Z" fill="#324558"/>
</svg>
