<svg xmlns="http://www.w3.org/2000/svg" width="24" height="24" viewBox="0 0 24 24">
    <path fill="currentColor" fill-rule="evenodd" d="M19 8.143a2.577 2.577 0 0 0-2.6-2.572 2.586 2.586 0 0 0-2.509 1.898 2.55 2.55 0 0 0 1.209 2.885v.386c-.026.669-.299 1.26-.819 1.774-.52.515-1.118.785-1.794.81-1.079.026-1.924.206-2.6.579v-6.12a2.55 2.55 0 0 0 1.209-2.886A2.586 2.586 0 0 0 8.587 3 2.566 2.566 0 0 0 6 5.571c.006.914.5 1.755 1.3 2.212v8.434c-.767.45-1.3 1.273-1.3 2.212A2.577 2.577 0 0 0 8.6 21c1.443 0 2.6-1.144 2.6-2.571 0-.682-.26-1.286-.689-1.749.117-.077.624-.527.767-.604.325-.142.728-.219 1.222-.219 1.365-.064 2.535-.578 3.575-1.607s1.56-2.546 1.625-3.883h-.026C18.467 9.904 19 9.081 19 8.143zM8.6 4.029c.858 0 1.56.707 1.56 1.542 0 .836-.715 1.543-1.56 1.543-.845 0-1.56-.707-1.56-1.543 0-.835.715-1.542 1.56-1.542zm0 15.955c-.858 0-1.56-.707-1.56-1.543 0-.835.715-1.542 1.56-1.542.845 0 1.56.707 1.56 1.542 0 .836-.715 1.543-1.56 1.543zM16.4 9.7c-.858 0-1.56-.708-1.56-1.543 0-.836.715-1.543 1.56-1.543.845 0 1.56.707 1.56 1.543 0 .835-.715 1.543-1.56 1.543z"/>
</svg>
