<svg width="30" height="32" viewBox="0 0 30 32" fill="none" xmlns="http://www.w3.org/2000/svg">
<path d="M29.5757 14.1054C29.5276 13.5687 29.4347 12.9495 29.2558 12.2649C29.0769 11.5837 28.812 10.8371 28.4301 10.0596C28.0413 9.28895 27.5356 8.48391 26.8819 7.70639C26.6274 7.4002 26.3487 7.10089 26.0459 6.80502C26.4966 5.01603 25.4989 3.46787 25.4989 3.46787C23.7787 3.36122 22.6847 4.00113 22.2788 4.297C22.2099 4.26948 22.1446 4.23851 22.0758 4.21099C21.7833 4.09058 21.4806 3.98049 21.171 3.88416C20.8613 3.78783 20.5448 3.69838 20.2214 3.61925C19.898 3.54356 19.5678 3.4782 19.234 3.42659C19.1756 3.41627 19.1171 3.40939 19.0586 3.40251C18.3086 1.00114 16.1515 0 16.1515 0C13.7501 1.52408 13.2926 3.65709 13.2926 3.65709C13.2926 3.65709 13.2822 3.70526 13.2685 3.78439C13.1343 3.82223 13.0036 3.86007 12.8694 3.90136C12.6836 3.9564 12.5047 4.02521 12.3189 4.09058C12.1366 4.16283 11.9543 4.23163 11.7719 4.31076C11.4107 4.46558 11.0494 4.64104 10.6985 4.83714C10.3579 5.02979 10.0242 5.23966 9.69739 5.46672C9.64922 5.44608 9.61482 5.42888 9.61482 5.42888C6.288 4.15939 3.33274 5.6869 3.33274 5.6869C3.06439 9.22702 4.66071 11.4564 4.97722 11.8589C4.8981 12.0791 4.82585 12.2993 4.75704 12.5229C4.50934 13.3245 4.327 14.1467 4.21347 14.9999C4.19627 15.1203 4.1825 15.2442 4.16874 15.3681C1.09651 16.8852 0.184814 19.9988 0.184814 19.9988C2.75132 22.9506 5.74098 23.1329 5.74098 23.1329C5.74442 23.1295 5.74786 23.1295 5.74786 23.126C6.12974 23.8038 6.57011 24.4506 7.06208 25.0526C7.2685 25.3038 7.48868 25.5481 7.7123 25.782C6.77653 28.4552 7.84304 30.6845 7.84304 30.6845C10.6985 30.7912 12.577 29.4357 12.9692 29.1226C13.2547 29.2189 13.5403 29.3049 13.8327 29.3806C14.71 29.6077 15.6079 29.7384 16.5058 29.7797C16.7295 29.79 16.9531 29.7934 17.1802 29.7934H17.2902L17.3625 29.79L17.5035 29.7866L17.6446 29.7797L17.648 29.7831C18.9932 31.7028 21.3602 31.9746 21.3602 31.9746C23.0425 30.1994 23.1388 28.4414 23.1388 28.0595C23.1388 28.0595 23.1388 28.0457 23.1388 28.0354C23.1388 28.0045 23.1388 27.9804 23.1388 27.9804C23.1388 27.9529 23.1354 27.9288 23.1354 27.8978C23.4898 27.6501 23.8269 27.3852 24.1434 27.0997C24.8177 26.4907 25.406 25.7958 25.8946 25.0492C25.9393 24.9804 25.984 24.9081 26.0287 24.8359C27.9347 24.946 29.2764 23.6559 29.2764 23.6559C28.9599 21.6708 27.828 20.704 27.5941 20.5183C27.5941 20.5183 27.5838 20.5114 27.57 20.5011C27.5563 20.4907 27.5494 20.4839 27.5494 20.4839C27.5356 20.477 27.5219 20.4667 27.5081 20.4563C27.5184 20.3359 27.5287 20.2189 27.5356 20.0985C27.5494 19.8852 27.5563 19.6719 27.5563 19.4586V19.3004V19.2212V19.18C27.5563 19.1249 27.5563 19.1456 27.5563 19.1249L27.5494 18.9907L27.5391 18.8118C27.5356 18.7499 27.5322 18.6949 27.5253 18.6398C27.5219 18.5848 27.515 18.5297 27.5081 18.4747L27.4874 18.3096L27.4634 18.1444C27.4324 17.9277 27.3877 17.7109 27.3395 17.4942C27.14 16.6375 26.8063 15.8256 26.3659 15.0963C25.9255 14.3669 25.3751 13.7201 24.7592 13.1765C24.14 12.6295 23.4485 12.1926 22.7226 11.8658C21.9966 11.5389 21.2329 11.3291 20.4726 11.2327C20.0941 11.1846 19.7123 11.1639 19.3373 11.1674L19.1962 11.1708H19.1618C19.1515 11.1708 19.1102 11.1708 19.1136 11.1708L19.0551 11.1743L18.9175 11.1846C18.8659 11.188 18.8109 11.1915 18.7627 11.1983C18.5701 11.2155 18.3774 11.2431 18.1916 11.2809C17.4382 11.422 16.726 11.6938 16.0964 12.0688C15.4703 12.4438 14.9233 12.9151 14.4795 13.4449C14.0357 13.9782 13.6916 14.5665 13.4543 15.1754C13.2169 15.7843 13.0861 16.4139 13.0483 17.0263C13.038 17.1777 13.0345 17.3325 13.038 17.4804C13.038 17.5183 13.038 17.5561 13.0414 17.594L13.0449 17.7178C13.0517 17.7901 13.0552 17.8657 13.0621 17.938C13.093 18.2476 13.1481 18.5435 13.2306 18.8325C13.3958 19.4036 13.6607 19.9231 13.9909 20.3634C14.3178 20.8038 14.71 21.1685 15.1263 21.454C15.5425 21.7396 15.9864 21.9426 16.4267 22.0699C16.8671 22.2006 17.304 22.2556 17.7168 22.2556C17.7685 22.2556 17.8201 22.2556 17.8717 22.2522C17.8992 22.2522 17.9267 22.2488 17.9542 22.2488C17.9818 22.2488 18.0093 22.2453 18.0368 22.2453C18.0815 22.2419 18.1228 22.235 18.1675 22.2316C18.1779 22.2316 18.1916 22.2281 18.2054 22.2281L18.2467 22.2212C18.2742 22.2178 18.2983 22.2144 18.3258 22.2109C18.3808 22.204 18.4256 22.1937 18.4772 22.1834C18.5253 22.1731 18.5735 22.1662 18.6217 22.1524C18.718 22.1318 18.8074 22.1043 18.8969 22.0733C19.0758 22.0148 19.2444 21.9426 19.4026 21.8634C19.5609 21.7809 19.7054 21.6914 19.8395 21.5985C19.8774 21.571 19.9152 21.5435 19.9531 21.5125C20.0976 21.399 20.1217 21.1891 20.0047 21.0481C19.9049 20.9242 19.7295 20.8933 19.5918 20.9689C19.5574 20.9861 19.523 21.0068 19.4886 21.024C19.3682 21.0825 19.2444 21.1341 19.1102 21.1788C18.976 21.2201 18.8384 21.2545 18.6939 21.282C18.6217 21.2923 18.5494 21.3027 18.4737 21.3095C18.4359 21.313 18.398 21.3164 18.3636 21.3164C18.3258 21.3164 18.2879 21.3199 18.2535 21.3199C18.2191 21.3199 18.1813 21.3199 18.1469 21.3164C18.1022 21.313 18.0574 21.313 18.0127 21.3095C18.0127 21.3095 17.9886 21.3095 18.0093 21.3095H17.9955L17.9646 21.3061C17.9439 21.3027 17.9233 21.3027 17.9061 21.2992C17.8648 21.2958 17.8269 21.2889 17.7857 21.2855C17.4623 21.2407 17.1354 21.1478 16.8224 21.0033C16.5058 20.8623 16.2031 20.6628 15.9313 20.4185C15.6595 20.1742 15.4221 19.8784 15.2364 19.5446C15.0506 19.2109 14.9198 18.8428 14.8579 18.454C14.827 18.2614 14.8132 18.0584 14.8201 17.8623C14.8235 17.8073 14.8235 17.7557 14.827 17.7006C14.827 17.7144 14.827 17.6937 14.827 17.6903V17.6696L14.8304 17.6284C14.8338 17.6008 14.8338 17.5768 14.8373 17.5492C14.8476 17.4426 14.8648 17.3359 14.882 17.2293C15.0299 16.383 15.4531 15.5573 16.1102 14.9311C16.2753 14.7763 16.4508 14.6284 16.64 14.5011C16.8292 14.3704 17.0288 14.2568 17.2352 14.1605C17.4451 14.0642 17.6618 13.985 17.8854 13.9265C18.109 13.8681 18.3396 13.8268 18.5701 13.8061C18.687 13.7958 18.804 13.7924 18.921 13.7924C18.9519 13.7924 18.976 13.7924 19.0001 13.7924L19.0964 13.7958L19.1549 13.7993C19.179 13.7993 19.1549 13.7993 19.1652 13.7993H19.1893L19.2857 13.8061C19.5368 13.8268 19.7879 13.8612 20.0356 13.9197C20.5311 14.0298 21.0127 14.2121 21.4634 14.4598C22.3613 14.9587 23.1285 15.7362 23.5964 16.6754C23.8338 17.1433 23.9989 17.6456 24.0815 18.1651C24.1021 18.2958 24.1159 18.4265 24.1262 18.5573L24.1331 18.657L24.1365 18.7568C24.14 18.7912 24.14 18.8222 24.14 18.8566C24.14 18.891 24.1434 18.9254 24.14 18.9495V19.0355L24.1365 19.1318C24.1331 19.1972 24.1297 19.3004 24.1262 19.3657C24.1159 19.5102 24.1021 19.6513 24.0849 19.7958C24.0677 19.9368 24.0437 20.0779 24.0196 20.219C23.9921 20.36 23.9611 20.4976 23.9267 20.6352C23.8579 20.9105 23.7684 21.1857 23.6618 21.4506C23.4519 21.9838 23.1698 22.4896 22.8327 22.9575C22.1549 23.8898 21.2294 24.6501 20.1767 25.1318C19.6503 25.3692 19.093 25.5446 18.5253 25.6375C18.2398 25.6857 17.9508 25.7132 17.6618 25.7235L17.6068 25.727H17.562H17.4691H17.3281H17.2558C17.2937 25.727 17.249 25.727 17.2524 25.727H17.2249C17.0701 25.7235 16.9152 25.7166 16.7604 25.7029C16.1412 25.6581 15.5322 25.5481 14.9405 25.376C14.3487 25.204 13.7742 24.9735 13.2306 24.6845C12.1435 24.1031 11.1733 23.3084 10.413 22.3485C10.0311 21.8703 9.69739 21.3577 9.42216 20.8176C9.14693 20.2774 8.93019 19.7098 8.76849 19.1318C8.61024 18.5504 8.51047 17.9586 8.47262 17.36L8.46574 17.2465L8.4623 17.219V17.1949V17.1467L8.45886 17.0469V17.0229V16.9885V16.9197L8.45542 16.782V16.7545C8.45542 16.758 8.45542 16.758 8.45542 16.7442V16.6891C8.45542 16.6169 8.45886 16.5447 8.45886 16.469C8.46918 16.1731 8.49327 15.8703 8.53455 15.5676C8.57239 15.2648 8.624 14.9587 8.68592 14.6559C8.74785 14.3531 8.82354 14.0538 8.90611 13.7614C9.07468 13.1731 9.28455 12.602 9.53569 12.0619C10.0345 10.9816 10.6882 10.0286 11.476 9.26487C11.6721 9.07221 11.8751 8.88987 12.0884 8.72129C12.2983 8.55272 12.5185 8.39446 12.7455 8.24652C12.9692 8.09859 13.2031 7.96098 13.4439 7.83712C13.5609 7.77176 13.6848 7.71671 13.8052 7.65822C13.8671 7.6307 13.929 7.60318 13.9909 7.57566C14.0529 7.54813 14.1148 7.52061 14.1767 7.49653C14.4244 7.38988 14.6825 7.30387 14.9405 7.2213C15.0059 7.20066 15.0712 7.18345 15.1366 7.16281C15.202 7.14217 15.2673 7.12841 15.3327 7.10777C15.4634 7.06992 15.5976 7.03896 15.7283 7.008C15.7937 6.9908 15.8625 6.97703 15.9279 6.96327C15.9932 6.94951 16.062 6.93575 16.1274 6.92199C16.1962 6.90823 16.2616 6.89791 16.3304 6.88414L16.4302 6.86694L16.5299 6.85318C16.5987 6.84286 16.6641 6.83254 16.7329 6.82222C16.8086 6.80846 16.8843 6.80502 16.96 6.79125C17.0219 6.78437 17.1251 6.77061 17.187 6.76373C17.2352 6.76029 17.2834 6.75341 17.3315 6.74997L17.4279 6.73965L17.476 6.73621L17.5311 6.73277C17.6068 6.72933 17.6824 6.72245 17.7616 6.71901L17.8751 6.71213C17.8751 6.71213 17.9164 6.71213 17.882 6.71213H17.9061L17.9542 6.70869C18.0196 6.70525 18.085 6.70181 18.1503 6.69837C18.4084 6.69148 18.6664 6.69148 18.9244 6.69837C19.437 6.71901 19.9393 6.77405 20.4278 6.86694C21.4049 7.04928 22.3235 7.36235 23.156 7.7752C23.9886 8.18116 24.7352 8.68345 25.382 9.22702C25.4232 9.26143 25.4611 9.29583 25.5024 9.33024C25.5402 9.36464 25.5815 9.39904 25.6193 9.43344C25.6985 9.50225 25.7742 9.5745 25.8498 9.64331C25.9255 9.71211 25.9978 9.78436 26.07 9.85661C26.1423 9.92886 26.2145 10.0011 26.2799 10.0734C26.5551 10.3658 26.8097 10.6582 27.0368 10.9541C27.4978 11.5458 27.8659 12.1444 28.1583 12.7087C28.1755 12.7431 28.1962 12.7775 28.2134 12.8153C28.2306 12.8497 28.2478 12.8841 28.265 12.922C28.2994 12.9908 28.3338 13.0596 28.3647 13.1284C28.3957 13.1972 28.4301 13.266 28.4576 13.3314C28.4886 13.4002 28.5161 13.4655 28.5436 13.5309C28.6537 13.7958 28.7535 14.047 28.8326 14.2843C28.9668 14.6662 29.0666 15.0137 29.1423 15.3164C29.1732 15.4369 29.2868 15.516 29.4106 15.5057C29.5379 15.4953 29.6377 15.3887 29.6411 15.2614C29.6205 14.9174 29.6136 14.5389 29.5757 14.1054Z" fill="url(#paint0_linear)"/>
<defs>
<linearGradient id="paint0_linear" x1="14.9008" y1="39.1587" x2="14.9008" y2="9.95143" gradientUnits="userSpaceOnUse">
<stop stop-color="#FFF100"/>
<stop offset="1" stop-color="#F05A28"/>
</linearGradient>
</defs>
</svg>
