<svg xmlns="http://www.w3.org/2000/svg" width="216" height="215" viewBox="100 100 216 215">
    <defs>
        <linearGradient id="a" x1="50%" x2="50%" y1="0%" y2="100%">
            <stop offset="0%" stop-color="#F5515F"/>
            <stop offset="100%" stop-color="#9F041B"/>
        </linearGradient>
    </defs>
    <g fill="none" fill-rule="evenodd">
        <path fill="none" d="M-294-544h1440v900H-294z"/>
        <g fill-rule="nonzero">
            <path fill="url(#a)" d="M10.387 2.783c0-.981.276-1.94.805-2.756a5.275 5.275 0 0 0-2.338.617 1.917 1.917 0 0 1-1.764 0A5.551 5.551 0 0 0 4.5.016C1.577.016 0 2.662 0 5.143c0 3.395 2.526 6.472 7.498 9.14.309.165.684.165.993 0 3.572-1.919 5.887-4.058 6.902-6.373a5.136 5.136 0 0 1-5.006-5.127z" transform="translate(100 100)"/>
            <path fill="#FF7E00" d="M111.423 100.016h-.22a5.12 5.12 0 0 0 1.543 7.078 5.043 5.043 0 0 0 2.658.805c.385-.882.595-1.83.595-2.79 0-2.502-1.72-5.093-4.576-5.093z"/>
            <path fill="url(#a)" d="M11.423.016h-.22a5.12 5.12 0 0 0 1.543 7.078 5.043 5.043 0 0 0 2.658.805c.385-.882.595-1.83.595-2.79 0-2.502-1.72-5.093-4.576-5.093z" transform="translate(100 100)"/>
        </g>
        <path fill="#FFF" d="M107.393 100.776l-.585 3.901 1.595 3.323-.905 3.274 1.983-3.375-.958-3.32c.503-2.754.753-4.132.751-4.135-.794.363-1.13.504-1.88.332z"/>
    </g>
</svg>
