<svg width="41" height="40" viewBox="0 0 41 40" fill="none" xmlns="http://www.w3.org/2000/svg">
<path d="M20.5002 33.3333C27.864 33.3333 33.8335 27.3637 33.8335 19.9999C33.8335 12.6361 27.864 6.66659 20.5002 6.66659C17.4942 6.66659 14.7205 7.66133 12.4904 9.33959L14.0435 10.8927L5.94642 13.0972L8.15095 5.0001L10.1147 6.96381C12.9632 4.69148 16.5731 3.33325 20.5002 3.33325C29.7049 3.33325 37.1668 10.7952 37.1668 19.9999C37.1668 29.2047 29.7049 36.6666 20.5002 36.6666C17.9371 36.6666 15.5092 36.088 13.3399 35.0544L15.0135 32.1556C16.6869 32.9121 18.5443 33.3333 20.5002 33.3333Z" fill="#324558"/>
<path d="M4.46519 15.4392L7.68622 16.3023C7.34803 17.4764 7.16683 18.717 7.16683 19.9999C7.16683 20.7085 7.2221 21.4041 7.32856 22.0828L4.0937 22.9496C3.92272 21.9922 3.8335 21.0065 3.8335 19.9999C3.8335 18.4186 4.05373 16.8887 4.46519 15.4392Z" fill="#324558"/>
<path d="M7.94719 24.5052L4.71772 25.3705C5.89807 28.8402 8.19045 31.7957 11.1702 33.8124L12.8423 30.9162C10.6122 29.3489 8.88417 27.1155 7.94719 24.5052Z" fill="#324558"/>
<path d="M21.7502 20.3155V14.9999H19.2502V21.351L23.7829 25.8838L25.5507 24.116L21.7502 20.3155Z" fill="#324558"/>
<path fill-rule="evenodd" clip-rule="evenodd" d="M20.4998 30.8334C26.4829 30.8334 31.3332 25.9832 31.3332 20.0001C31.3332 14.017 26.4829 9.16675 20.4998 9.16675C14.5168 9.16675 9.6665 14.017 9.6665 20.0001C9.6665 25.9832 14.5168 30.8334 20.4998 30.8334ZM21.7498 15.0001V20.3156L25.5504 24.1162L23.7826 25.884L19.2498 21.3512V15.0001H21.7498Z" fill="#B6C2CD"/>
</svg>
