<svg width="40" height="40" viewBox="0 0 40 40" fill="none" xmlns="http://www.w3.org/2000/svg">
<rect x="9.99414" y="9.99402" width="20.0119" height="20.0119" rx="1" fill="#CCD3DB"/>
<path fill-rule="evenodd" clip-rule="evenodd" d="M5 5.5C5 5.22386 5.22386 5 5.5 5H17.8333C18.1095 5 18.3333 5.22386 18.3333 5.5V6.66667H7.66667C7.11438 6.66667 6.66667 7.11438 6.66667 7.66667V18.3333H5.5C5.22386 18.3333 5 18.1095 5 17.8333V5.5ZM8.83333 8.33333H18.3333V10H11C10.4477 10 10 10.4477 10 11V18.3333H8.33333V8.83333C8.33333 8.55719 8.55719 8.33333 8.83333 8.33333ZM6.66667 21.6667H5.5C5.22386 21.6667 5 21.8905 5 22.1667V34.5C5 34.7761 5.22386 35 5.5 35H17.8333C18.1095 35 18.3333 34.7761 18.3333 34.5V33.3333H7.66667C7.11438 33.3333 6.66667 32.8856 6.66667 32.3333V21.6667ZM8.33333 21.6667V31.1667C8.33333 31.4428 8.55719 31.6667 8.83333 31.6667H18.3333V30H11C10.4477 30 10 29.5523 10 29V21.6667H8.33333ZM21.6667 33.3333V34.5C21.6667 34.7761 21.8905 35 22.1667 35H34.5C34.7761 35 35 34.7761 35 34.5V22.1667C35 21.8905 34.7761 21.6667 34.5 21.6667H33.3333V32.3333C33.3333 32.8856 32.8856 33.3333 32.3333 33.3333H21.6667ZM21.6667 31.6667H31.1667C31.4428 31.6667 31.6667 31.4428 31.6667 31.1667V21.6667H30V29C30 29.5523 29.5523 30 29 30H21.6667V31.6667ZM30 18.3333H31.6667V8.83333C31.6667 8.55719 31.4428 8.33333 31.1667 8.33333H21.6667V10H29C29.5523 10 30 10.4477 30 11V18.3333ZM33.3333 7.66667V18.3333H34.5C34.7761 18.3333 35 18.1095 35 17.8333V5.5C35 5.22386 34.7761 5 34.5 5H22.1667C21.8905 5 21.6667 5.22386 21.6667 5.5V6.66667H32.3333C32.8856 6.66667 33.3333 7.11438 33.3333 7.66667ZM20 13.3333C17.2386 13.3333 15 15.5719 15 18.3333C15 19.4366 15.3573 20.4564 15.9626 21.2833L20 27.619L24.0374 21.2833C24.6427 20.4564 25 19.4366 25 18.3333C25 15.5719 22.7614 13.3333 20 13.3333ZM20 20.4762C21.1835 20.4762 22.1429 19.5168 22.1429 18.3333C22.1429 17.1499 21.1835 16.1905 20 16.1905C18.8165 16.1905 17.8571 17.1499 17.8571 18.3333C17.8571 19.5168 18.8165 20.4762 20 20.4762Z" fill="#36435C"/>
</svg>
