<svg xmlns="http://www.w3.org/2000/svg" width="56" height="16" viewBox="0 0 56 16">
    <g fill="none" fill-rule="evenodd">
        <g fill="#329DCE">
            <path d="M0 13.833h10L3.75 15.5zM0 13l3.333-.625V5.5zM4.167 12.375L10 13 4.167.5z"/>
        </g>
        <path fill="#242E42" fill-rule="nonzero" d="M25.802 13H19.84v-1.805h1.668V4.626H19.84V2.821h5.96v1.805h-1.667v6.57h1.668V13zm8.675-2.434c0 .793-.356 1.433-1.067 1.918-.71.485-1.684.728-2.919.728a8.328 8.328 0 0 1-1.86-.191c-.555-.128-1.002-.27-1.339-.424v-2.024h.226c.123.087.265.181.427.284.162.102.39.213.687.331.255.105.544.195.868.27.324.076.67.113 1.04.113.482 0 .84-.053 1.072-.16.233-.107.349-.266.349-.475 0-.187-.068-.323-.205-.407-.137-.085-.397-.165-.78-.243-.182-.04-.429-.085-.741-.133a7.971 7.971 0 0 1-.851-.174c-.697-.183-1.215-.466-1.552-.852-.337-.385-.506-.864-.506-1.439 0-.738.35-1.352 1.05-1.842.699-.49 1.655-.735 2.867-.735.574 0 1.125.058 1.651.175.526.116.938.24 1.234.372V7.6h-.212a5.008 5.008 0 0 0-1.248-.612 4.42 4.42 0 0 0-1.418-.236c-.396 0-.73.055-1.001.164-.272.11-.407.264-.407.465 0 .182.061.321.184.417.123.096.413.191.869.287.25.05.52.1.81.147.289.048.58.108.871.181.647.169 1.126.434 1.436.796.31.363.465.815.465 1.357zm6.542 2.366a6.965 6.965 0 0 1-.841.16 8.574 8.574 0 0 1-1.087.058c-.957 0-1.67-.193-2.136-.58-.468-.388-.701-1.051-.701-1.99V6.991h-1.012V5.323h1.012V3.13h2.46v2.194h2.305v1.668h-2.304v2.72c0 .27.002.504.007.705.004.2.04.38.11.54.063.16.176.286.337.38.162.093.398.14.708.14.128 0 .295-.028.502-.082.208-.055.352-.105.434-.15h.206v1.688zm3.93.068h-2.46V5.323h2.46V13zm.069-8.77H42.42V2.362h2.598V4.23zM55.12 9.164c0 1.262-.368 2.257-1.104 2.984-.736.727-1.77 1.09-3.1 1.09s-2.364-.363-3.1-1.09c-.736-.727-1.104-1.722-1.104-2.984 0-1.271.37-2.27 1.11-2.994.741-.725 1.772-1.087 3.094-1.087 1.34 0 2.375.365 3.107 1.094.731.729 1.097 1.725 1.097 2.987zm-3.028 1.866c.16-.196.279-.432.359-.707.08-.276.12-.658.12-1.145 0-.451-.042-.83-.124-1.135-.082-.305-.196-.55-.342-.732a1.2 1.2 0 0 0-.526-.396 1.86 1.86 0 0 0-.663-.116 1.93 1.93 0 0 0-.632.096 1.278 1.278 0 0 0-.53.382c-.15.178-.27.422-.359.732-.089.31-.133.7-.133 1.169 0 .419.038.782.116 1.09.077.308.191.555.342.742a1.3 1.3 0 0 0 .523.39c.202.081.434.122.694.122.223 0 .436-.037.639-.112a1.17 1.17 0 0 0 .516-.38z"/>
    </g>
</svg>
