<svg xmlns="http://www.w3.org/2000/svg" width="150" height="32" viewBox="0 0 150 32">
    <g fill="none" fill-rule="evenodd">
        <g fill="#51B484">
            <path d="M25.75 25.202l-6.884-3.967v7.934zM26.25 5.885l-6.884-3.967v7.934zM15.97 0L2.5 7.762v15.563l13.47 7.761V19.278l-6.482-3.735 6.481-3.735zM16.016 15.543l13.449 7.75v-15.5z"/>
        </g>
        <g fill="#242E42">
            <path d="M113.539 7.324h-1.374c-.3 0-.55.25-.55.548v6.385h-4.423V7.872a.538.538 0 0 0-.55-.548h-1.374c-.3 0-.55.25-.55.548v15.315c0 .3.25.55.55.55h1.374c.325 0 .55-.25.55-.55v-6.46h4.423v6.46c0 .3.25.55.55.55h1.374c.325 0 .55-.25.55-.55V7.872a.538.538 0 0 0-.55-.548M80.4 21.815c0-.299-.25-.549-.55-.549h-6.205v-4.502h6.206c.3 0 .549-.224.549-.548v-1.372c0-.3-.25-.549-.55-.549h-6.205V9.793h6.205c.3 0 .55-.224.55-.549V7.873c0-.3-.25-.55-.55-.55h-6.754-1.375c-.3 0-.55.25-.55.55v15.314c0 .3.25.55.55.55H79.85c.3 0 .55-.225.55-.55v-1.372zM125.863 21.815c0-.299-.25-.549-.55-.549h-6.206v-4.502h6.206c.3 0 .55-.224.55-.548v-1.372c0-.3-.25-.549-.55-.549h-6.206V9.793h6.206c.3 0 .55-.224.55-.549V7.873c0-.3-.25-.55-.55-.55h-6.754-1.375c-.3 0-.55.25-.55.55v15.314c0 .3.25.55.55.55H125.314c.3 0 .55-.225.55-.55v-1.372zM149.284 21.815c0-.299-.25-.549-.55-.549h-6.205v-4.502h6.206c.3 0 .549-.224.549-.548v-1.372c0-.3-.25-.549-.55-.549h-6.205V9.793h6.205c.3 0 .55-.224.55-.549V7.873c0-.3-.25-.55-.55-.55h-6.754-1.375c-.3 0-.55.25-.55.55v15.314c0 .3.25.55.55.55H148.735c.3 0 .55-.225.55-.55v-1.372zM84.89 11.453v.937c0 .715.692 1.134 1.483 1.454l3.284 1.38c1.235.543 2.1 1.504 2.1 2.983v1.75c0 1.455-3.063 3.896-4.693 3.896-1.111 0-2.79-.79-4.1-1.504-.296-.148-.494-.494-.32-.888l.42-.838c.172-.345.542-.42.864-.246 1.061.542 2.47 1.208 3.136 1.208.74 0 2.297-1.258 2.297-1.973v-1.084c0-.838-.642-1.307-1.53-1.652l-3.064-1.282c-1.185-.493-2.272-1.503-2.272-2.884v-1.602c0-1.602 3.235-3.92 4.792-3.92 1.037 0 2.716.764 3.828 1.356a.641.641 0 0 1 .296.863l-.395.838c-.124.296-.519.395-.864.246-.84-.394-2.248-1.035-2.865-1.035-.717 0-2.396 1.184-2.396 1.997M133.124 9.469h-2.425v5.487h2.45c1.024 0 2.224-1.82 2.224-2.793 0-.948-1.25-2.694-2.25-2.694m-.1 7.632H130.7v6.087c0 .324-.224.548-.575.548H128.8c-.3 0-.575-.224-.575-.548V8.47c0-.573.675-1.147 1.225-1.147h3.999c1.824 0 4.243 2.84 4.243 4.71 0 1.247-1.095 3.122-2.27 3.845.95.499 2.25 1.821 2.25 3.043v4.266c0 .299-.25.548-.55.548h-1.374c-.3 0-.55-.25-.55-.548v-3.892c0-.873-1.224-2.195-2.174-2.195M98.585 9.469h-2.423v5.487h2.448c1.025 0 2.081-1.82 2.081-2.793 0-.948-1.106-2.694-2.106-2.694m-.1 7.632h-2.323v6.087c0 .324-.226.548-.576.548h-1.324c-.3 0-.575-.224-.575-.548V8.47c0-.573.675-1.147 1.225-1.147h3.998c1.824 0 4.134 2.927 4.134 4.798 0 1.247-.926 2.925-1.995 3.895-.526.477-1.361 1.084-2.563 1.084M52.442 23.881c-1.645 0-4.724-2.077-4.724-3.87V7.978c0-.299.273-.546.574-.546h1.32c.322 0 .57.247.57.546v11.71c0 .872 1.487 1.929 2.26 1.929.773 0 2.27-1.19 2.27-2.062V7.845a.53.53 0 0 1 .525-.546h1.368c.3 0 .574.247.574.546v12.033c0 1.739-3.093 4.003-4.737 4.003M64.351 21.591h-2.34v-5.488h2.365c1.025 0 2.225 1.725 2.225 2.698 0 .948-1.25 2.79-2.25 2.79zM62.011 9.47h2.34c1 0 2.25 1.429 2.25 2.377 0 .972-1.2 2.56-2.225 2.56h-2.364V9.47zm4.752 5.786c1.14-.748 2.286-2.202 2.286-3.41 0-1.87-2.549-4.521-4.373-4.521h-3.914c-.55 0-1.224.574-1.224 1.147V23.188c0 .324.275.548.575.548h4.648c1.824 0 4.288-3.064 4.288-4.935 0-1.206-1.147-2.789-2.286-3.546zM40.077 15.62l5.441-6.288a.537.537 0 0 0-.056-.774l-1.04-.897a.555.555 0 0 0-.776.057l-4.758 5.5V7.872c0-.3-.225-.55-.55-.55h-1.374c-.3 0-.55.25-.55.55v15.315c0 .299.25.548.55.548h1.374c.325 0 .55-.25.55-.548v-5.164l4.758 5.5a.556.556 0 0 0 .775.056l1.04-.896a.537.537 0 0 0 .057-.774l-5.44-6.29z"/>
        </g>
    </g>
</svg>
