<svg xmlns="http://www.w3.org/2000/svg" xmlns:xlink="http://www.w3.org/1999/xlink" width="94" height="20" viewBox="0 0 94 20">
    <defs>
        <path id="a" d="M0 .014h6.266v9.918H0z"/>
        <path id="c" d="M.044.05h6.208v6.825H.044z"/>
    </defs>
    <g fill="none" fill-rule="evenodd">
        <path fill="#316CE6" fill-rule="nonzero" d="M17.171 16.971L10.141 20l-7.112-2.829L0 10.141l2.829-7.112L9.859 0l7.112 2.829L20 9.859l-2.829 7.112zm-.368-7.409c-.1 0-1.266.035-2.575.092a4.24 4.24 0 0 0-1.011-2.417c.635-.58 1.265-1.165 1.889-1.757a.424.424 0 1 0-.601-.601l-1.754 1.89a4.24 4.24 0 0 0-2.424-1c.057-1.309.092-2.475.092-2.575a.427.427 0 0 0-.853 0c0 .1.035 1.266.09 2.575A4.23 4.23 0 0 0 7.23 6.776c-.578-.632-1.162-1.26-1.751-1.882a.424.424 0 1 0-.601.601c.072.07.918.868 1.884 1.748a4.23 4.23 0 0 0-1.007 2.43c-.854-.04-1.708-.07-2.562-.092a.427.427 0 1 0 0 .853c.1 0 1.258-.035 2.562-.09a4.25 4.25 0 0 0 1.007 2.429c-.63.575-1.256 1.157-1.875 1.745a.423.423 0 0 0 0 .6.423.423 0 0 0 .6 0c.071-.07.865-.914 1.746-1.876a4.236 4.236 0 0 0 2.434 1c-.038.854-.069 1.708-.09 2.561a.427.427 0 0 0 .852 0c0-.099-.033-1.26-.09-2.562a4.232 4.232 0 0 0 2.425-1.017c.578.633 1.162 1.26 1.751 1.882a.424.424 0 1 0 .601-.6c-.07-.071-.918-.872-1.882-1.754.58-.684.93-1.535.995-2.43 1.307.058 2.473.093 2.573.093a.427.427 0 0 0 0-.853zm-5.797 1.214c.142-.182.23-.4.256-.63.608.058 1.47.108 2.335.15a3.606 3.606 0 0 1-.83 2.029 59.126 59.126 0 0 0-1.76-1.549zm-.01-1.567c.595-.501 1.18-1.015 1.753-1.54.485.568.781 1.274.847 2.019-.78.033-1.558.083-2.335.15a1.282 1.282 0 0 0-.266-.63zm-.851-.471c.057-.605.107-1.468.15-2.333a3.6 3.6 0 0 1 2.024.835c-.526.575-1.041 1.16-1.545 1.754a1.238 1.238 0 0 0-.63-.256zm.715.582l.228.534c.012.091.013.182.001.274l-.218.538-.191.196-.534.227a1.083 1.083 0 0 1-.274.001l-.538-.22-.195-.19-.226-.534a1.078 1.078 0 0 1-.002-.274l.218-.538.19-.194.535-.227c.09-.011.181-.013.274-.001l.538.217.194.191zM7.663 7.246a3.6 3.6 0 0 1 2.025-.84c.042.865.092 1.728.15 2.333a1.27 1.27 0 0 0-.628.266 58.268 58.268 0 0 0-1.547-1.76zm1.074 2.61a56.731 56.731 0 0 0-2.345-.152 3.6 3.6 0 0 1 .84-2.028 60.998 60.998 0 0 0 1.761 1.548c-.14.183-.23.402-.256.631zm.27.934a58.72 58.72 0 0 0-1.768 1.553 3.59 3.59 0 0 1-.847-2.03 56.81 56.81 0 0 0 2.346-.15c.03.224.118.44.268.627zm.85.472c-.058.609-.11 1.478-.152 2.347a3.607 3.607 0 0 1-2.034-.835 63.67 63.67 0 0 0 1.555-1.769c.187.146.405.23.63.257zm2.481 1.495a3.596 3.596 0 0 1-2.024.852 56.739 56.739 0 0 0-.151-2.347 1.28 1.28 0 0 0 .627-.267c.504.598 1.02 1.185 1.548 1.762z"/>
        <g transform="translate(25.067 5)">
            <mask id="b" fill="#fff">
                <use xlink:href="#a"/>
            </mask>
            <path fill="#242E42" d="M1.998 5.47c-.127-.187-.085-.341-.085-.486-.004-1.516 0-3.032-.005-4.548 0-.411-.069-.463-.48-.4C1.121.085.817.155.51.18.124.21-.004.382 0 .762c.018 1.816.008 3.633.008 5.45 0 1.09.007 2.18-.004 3.27-.003.306.113.435.431.421a9.766 9.766 0 0 1 1.006.001c.35.02.484-.112.474-.456-.018-.69-.006-1.379-.003-2.068 0-.096-.036-.227.064-.277.134-.066.202.076.28.149.448.42.79.922 1.158 1.406.303.4.422 1.016.895 1.182.469.166 1.043.057 1.57.058.439.001.472-.05.26-.424A14.146 14.146 0 0 0 3.897 6.47c-.284-.287-.28-.452.005-.721.749-.708 1.412-1.494 2.095-2.262.064-.072.175-.147.128-.253-.05-.113-.183-.067-.28-.068-.464-.005-.928.011-1.392-.007-.302-.013-.5.102-.688.326-.56.667-1.113 1.343-1.767 1.984" mask="url(#b)"/>
        </g>
        <path fill="#242E42" d="M61.418 11.713c0 .95.009 1.9-.005 2.849-.004.326.12.456.444.435.238-.016.477-.003.716-.003.647-.001.648-.001.648-.648.001-1.35-.001-2.698.004-4.048 0-.179-.046-.388.164-.502.673-.363 1.611.053 1.756.797.064.329.085.67.09 1.006.01.974.013 1.948 0 2.923-.006.358.133.5.49.475a6.57 6.57 0 0 1 .867 0c.345.023.465-.118.461-.458-.013-1.187-.004-2.374-.007-3.56 0-.339-.054-.673-.13-1.002-.236-1.01-.874-1.607-1.9-1.776-1.113-.183-2.202-.007-3.287.227-.27.058-.314.24-.313.475.005.937.002 1.873.002 2.81M37.595 11.399c0-.937-.008-1.874.004-2.811.005-.339-.127-.48-.47-.46-.29.018-.583.02-.873 0-.361-.026-.49.115-.487.475.015 1.311.006 2.624.006 3.935 0 .864-.004.867-.893.842-.564-.016-.866-.25-.999-.789a3.788 3.788 0 0 1-.1-.929c.003-1.037-.006-2.074.003-3.111.003-.303-.11-.435-.423-.422-.34.015-.682.009-1.024.003-.252-.004-.376.106-.374.358.01 1.374-.037 2.75.041 4.121.082 1.445.821 2.16 2.28 2.346.965.124 1.913-.044 2.86-.22.34-.064.459-.232.454-.564-.014-.925-.005-1.85-.005-2.774M75.832 9.736c.031.922-.054 2.04.068 3.154.113 1.03.624 1.719 1.548 1.969.84.227 1.682.168 2.509-.092.109-.034.254-.069.256-.196.005-.411-.022-.847-.223-1.195-.154-.267-.49.03-.746.009-.038-.004-.077.007-.115.011-.954.11-1.372-.236-1.394-1.172a38.73 38.73 0 0 1-.003-1.452c.016-1.21-.177-1.042 1.113-1.061 1.296-.02 1.127.209 1.141-1.15.003-.29-.132-.397-.423-.391-.463.01-.927-.012-1.39.005-.339.012-.458-.127-.445-.442.016-.371-.005-.744.004-1.117.007-.29-.102-.414-.418-.35-.34.07-.682.136-1.027.165-.368.031-.466.213-.46.542.015.856.005 1.713.005 2.763M90.983 14.998c.755.002 1.366-.05 1.948-.302.72-.31 1.046-.864 1.068-1.588.02-.69-.18-1.3-.844-1.687a8.827 8.827 0 0 0-1.335-.612c-.236-.09-.473-.18-.67-.337-.32-.254-.265-.624.115-.784.175-.074.365-.094.556-.1.424-.013.833.069 1.232.192.262.08.375-.002.42-.247.05-.275.112-.549.178-.821.047-.194-.027-.297-.223-.349-.918-.243-1.845-.333-2.777-.11-.895.213-1.433.818-1.53 1.659-.099.866.294 1.583 1.116 1.98.43.207.883.366 1.318.564.295.134.652.263.576.668-.08.419-.482.385-.795.404-.588.036-1.161-.087-1.712-.274-.304-.102-.416-.022-.455.264-.033.241-.078.483-.151.715-.099.312.043.442.336.524.576.161 1.158.259 1.63.24M55.156 11.768c0 .928.009 1.856-.005 2.784-.004.317.104.466.453.446.301-.017.604-.002.906-.003.572-.002.581-.01.582-.54v-3.687c0-1.075.031-1.092 1.176-1.038.33.015.712.289.97.038.236-.23.172-.64.265-.966.1-.348-.047-.498-.409-.567-1.164-.223-2.292-.085-3.42.213-.38.1-.538.261-.527.65.027.89.009 1.78.009 2.67M44.276 12.42c-.377.982-1.27 1.094-2.07.933-.216-.044-.22-.222-.222-.387-.003-.46 0-.922 0-1.384 0-.473.003-.947-.001-1.421-.003-.229.1-.365.325-.451 1.06-.408 1.911.049 2.095 1.126.092.54.07 1.07-.127 1.585m2-1.966c-.382-1.959-1.876-2.85-3.87-2.303-.37.101-.43-.03-.427-.331.008-.761.003-1.522.001-2.283-.001-.559-.039-.588-.596-.5-.269.042-.536.1-.807.121-.36.03-.474.204-.47.542.014 1.409.006 2.818.006 4.227v4.266c-.015.262.048.458.364.523.93.193 1.866.337 2.818.264 1.59-.122 2.673-1.054 2.98-2.554a5.011 5.011 0 0 0 0-1.972"/>
        <g transform="translate(47.627 8.125)">
            <mask id="d" fill="#fff">
                <use xlink:href="#c"/>
            </mask>
            <path fill="#242E42" d="M2.017 2.523c.096-.531.587-.95 1.166-.975.58-.025 1.075.33 1.213.855.071.273-.004.422-.323.417-.293-.003-.585 0-.878 0v-.002c-.305 0-.61.002-.915-.001-.203-.002-.302-.08-.263-.294m.352 1.524c.572-.01 1.145-.002 1.717-.002v-.003c.573 0 1.146-.01 1.718.004.332.007.457-.126.448-.431-.012-.374-.008-.745-.068-1.117C5.97 1.159 5.16.318 3.86.1 2.446-.133 1.162.445.513 1.605c-.548.98-.566 2.017-.306 3.06.289 1.16 1.115 1.838 2.318 2.102.886.195 1.773.1 2.65-.08.698-.145.707-.168.584-.846-.028-.154-.063-.308-.08-.464-.027-.26-.13-.36-.423-.259-.42.146-.87.178-1.314.207-.848.056-1.596-.282-1.86-.826-.16-.332-.095-.446.287-.452" mask="url(#d)"/>
        </g>
        <path fill="#242E42" d="M84.928 10.918c-.295-.004-.591 0-.887 0v-.004c-.308 0-.617.003-.925 0-.23-.003-.319-.105-.272-.33.113-.546.602-.939 1.203-.95.591-.01 1.058.345 1.2.895.07.272-.025.393-.319.39m1.361-1.95c-1.085-1.198-4.14-1.349-5.147 1.063-.33.791-.369 1.609-.217 2.438.245 1.333 1.149 2.205 2.549 2.45.98.17 1.943.05 2.898-.186.3-.075.34-.25.288-.496a8.21 8.21 0 0 1-.135-.79c-.028-.262-.156-.293-.391-.219-.417.131-.853.178-1.289.213-.9.07-1.667-.261-1.949-.84-.163-.335-.1-.443.288-.448.579-.008 1.157-.002 1.735-.002v-.003c.579 0 1.157-.002 1.736 0 .23.002.427-.051.44-.301.052-1.038-.043-2.037-.806-2.879M72.39 10.925c-.295-.004-.591-.001-.887-.001v-.002c-.31 0-.618.002-.927 0-.226-.002-.327-.091-.28-.321.105-.528.616-.942 1.2-.956.592-.015 1.06.337 1.205.886.07.266-.01.397-.31.394m1.39-1.896c-1.476-1.555-4.291-1.02-5.17.965-.345.778-.353 1.592-.238 2.4.194 1.373 1.12 2.265 2.552 2.524.89.16 1.77.069 2.642-.124.622-.137.63-.158.518-.766-.032-.18-.072-.358-.096-.538-.034-.259-.173-.324-.429-.248-.42.125-.855.192-1.292.198-.757.011-1.482-.093-1.897-.802-.196-.334-.106-.472.294-.479.58-.01 1.159-.002 1.738-.002v-.004h1.739c.21 0 .409-.04.42-.278.046-1.022-.012-2.034-.782-2.846"/>
    </g>
</svg>
