<svg xmlns="http://www.w3.org/2000/svg" width="82" height="20" viewBox="0 0 82 20">
    <g fill="none" fill-rule="evenodd">
        <path fill="#FFF" d="M20 10.475a3.951 3.951 0 0 0-2.596-3.72c.066-.358.099-.72.098-1.083 0-3.131-2.53-5.672-5.649-5.672-1.812 0-3.51.869-4.571 2.36a2.939 2.939 0 0 0-1.829-.622 3.013 3.013 0 0 0-3.004 3.016c0 .36.065.721.18 1.05C1.06 6.343 0 7.851 0 9.523a3.965 3.965 0 0 0 2.612 3.738 5.802 5.802 0 0 0-.098 1.082C2.514 17.46 5.044 20 8.147 20c1.828 0 3.51-.885 4.571-2.36a3 3 0 0 0 1.845.639 3.013 3.013 0 0 0 3.004-3.017c0-.36-.065-.721-.18-1.049A4.01 4.01 0 0 0 20 10.475z"/>
        <path fill="#F4BD19" d="M7.69 8.863l4.49 2.046 4.54-3.96c.066-.33.099-.664.098-.999 0-2.782-2.27-5.04-5.066-5.04-1.677 0-3.24.817-4.177 2.192l-.757 3.895.872 1.866z"/>
        <path fill="#3CBEB1" d="M3.28 13.049a5.15 5.15 0 0 0-.098 1.01c0 2.768 2.278 5.032 5.065 5.032 1.689 0 3.246-.83 4.197-2.199l.738-3.876-1-1.89L7.69 9.092l-4.41 3.958z"/>
        <path fill="#E9478C" d="M2.882 5.623l3.214.74.722-3.585a2.537 2.537 0 0 0-1.547-.505c-1.392 0-2.544 1.11-2.544 2.491 0 .286.052.59.155.859z"/>
        <path fill="#2C458F" d="M2.736 6.364C1.386 6.805.455 8.13.455 9.57c0 1.407.851 2.667 2.137 3.157l4.226-3.893-.771-1.685-3.31-.785z"/>
        <path fill="#95C63D" d="M12.727 17.205c.449.337.984.522 1.537.522 1.398 0 2.554-1.11 2.554-2.491 0-.303-.052-.59-.155-.859l-3.228-.74-.708 3.568z"/>
        <path fill="#176655" d="M13.596 12.851l3.253.785c1.326-.458 2.242-1.766 2.242-3.206 0-1.407-.837-2.65-2.1-3.157l-4.264 3.86.869 1.718z"/>
        <path fill="#363E4A" fill-rule="nonzero" d="M28.98 4.004h1.624V12.6h5.404V14H28.98V4.004zm11.508 2.562c1.092 0 1.974.35 2.646 1.078.658.714.994 1.624.994 2.744 0 1.106-.336 2.016-.98 2.716-.672.728-1.568 1.092-2.66 1.092-1.106 0-1.988-.364-2.66-1.092-.658-.7-.98-1.61-.98-2.716 0-1.12.322-2.03.994-2.744.658-.728 1.54-1.078 2.646-1.078zm0 1.302c-.672 0-1.176.252-1.54.784-.308.448-.462 1.036-.462 1.736s.154 1.274.462 1.722c.364.518.868.784 1.54.784.658 0 1.176-.266 1.54-.784.308-.462.476-1.036.476-1.722 0-.7-.168-1.288-.476-1.736-.364-.532-.882-.784-1.54-.784zm8.05-1.302c.896 0 1.61.35 2.142 1.078v-.882h1.596v6.776c0 2.282-1.134 3.43-3.402 3.43-1.022 0-1.792-.196-2.324-.56-.532-.392-.868-.98-1.008-1.792h1.596c.084.406.252.686.518.854.252.154.658.238 1.218.238 1.204 0 1.806-.644 1.806-1.932v-1.064c-.532.742-1.246 1.12-2.142 1.12-.98 0-1.778-.336-2.38-.98-.616-.658-.91-1.54-.91-2.632s.294-1.974.91-2.646c.602-.672 1.4-1.008 2.38-1.008zm.252 1.288c-.602 0-1.064.21-1.4.63-.336.406-.504.98-.504 1.736 0 .686.126 1.218.392 1.61.308.462.798.7 1.498.7.616 0 1.092-.21 1.428-.602.322-.42.49-.98.49-1.708 0-.742-.168-1.316-.49-1.736-.336-.42-.812-.63-1.414-.63zm8.176-1.288c.896 0 1.61.35 2.142 1.078v-.882h1.596v6.776c0 2.282-1.134 3.43-3.402 3.43-1.022 0-1.792-.196-2.324-.56-.532-.392-.868-.98-1.008-1.792h1.596c.084.406.252.686.518.854.252.154.658.238 1.218.238 1.204 0 1.806-.644 1.806-1.932v-1.064c-.532.742-1.246 1.12-2.142 1.12-.98 0-1.778-.336-2.38-.98-.616-.658-.91-1.54-.91-2.632s.294-1.974.91-2.646c.602-.672 1.4-1.008 2.38-1.008zm.252 1.288c-.602 0-1.064.21-1.4.63-.336.406-.504.98-.504 1.736 0 .686.126 1.218.392 1.61.308.462.798.7 1.498.7.616 0 1.092-.21 1.428-.602.322-.42.49-.98.49-1.708 0-.742-.168-1.316-.49-1.736-.336-.42-.812-.63-1.414-.63zm6.244-4.046c.308 0 .574.098.784.294.196.196.308.448.308.756s-.112.574-.322.77c-.21.196-.462.294-.77.294s-.56-.098-.77-.294a1.034 1.034 0 0 1-.308-.77c0-.308.098-.56.308-.756.21-.196.462-.294.77-.294zm-.798 2.954h1.596V14h-1.596V6.762zm7.308-.196c1.806 0 2.716.98 2.716 2.968V14h-1.596V9.674c0-1.19-.546-1.778-1.638-1.778-.392 0-.742.14-1.036.42-.336.308-.532.756-.588 1.33V14h-1.596V6.762h1.596v.84c.28-.336.602-.602.952-.77a2.605 2.605 0 0 1 1.19-.266zm7.406 0c.896 0 1.61.35 2.142 1.078v-.882h1.596v6.776c0 2.282-1.134 3.43-3.402 3.43-1.022 0-1.792-.196-2.324-.56-.532-.392-.868-.98-1.008-1.792h1.596c.084.406.252.686.518.854.252.154.658.238 1.218.238 1.204 0 1.806-.644 1.806-1.932v-1.064c-.532.742-1.246 1.12-2.142 1.12-.98 0-1.778-.336-2.38-.98-.616-.658-.91-1.54-.91-2.632s.294-1.974.91-2.646c.602-.672 1.4-1.008 2.38-1.008zm.252 1.288c-.602 0-1.064.21-1.4.63-.336.406-.504.98-.504 1.736 0 .686.126 1.218.392 1.61.308.462.798.7 1.498.7.616 0 1.092-.21 1.428-.602.322-.42.49-.98.49-1.708 0-.742-.168-1.316-.49-1.736-.336-.42-.812-.63-1.414-.63z"/>
    </g>
</svg>
