<svg width="336" height="288" viewBox="0 0 336 288" fill="none" xmlns="http://www.w3.org/2000/svg">
<g filter="url(#filter0_d_10705_450594)">
<rect x="8" y="4" width="320" height="272" rx="4" fill="white"/>
<path d="M150.492 27.98C150.276 29.924 149.784 31.448 149.016 32.528L150.024 33.236C150.456 32.684 150.816 31.964 151.116 31.076H153.912C153.744 31.964 153.54 32.732 153.3 33.392L154.524 33.74C154.812 32.732 155.04 31.712 155.232 30.692V29.864H151.44C151.56 29.348 151.656 28.784 151.74 28.184L150.492 27.98ZM148.548 37.388L149.46 36.464C148.956 35.744 148.488 35.084 148.032 34.472C148.464 33.32 148.824 32.012 149.088 30.548V29.396H144.624V30.608H147.864C147.696 31.628 147.48 32.564 147.216 33.428C146.568 32.612 145.968 31.928 145.428 31.388L144.6 32.18C145.344 33.02 146.04 33.872 146.712 34.748C146.124 36.044 145.356 37.04 144.408 37.736L145.032 38.864C145.98 38.096 146.784 37.064 147.456 35.768C147.828 36.296 148.188 36.836 148.548 37.388ZM151.596 31.736C151.584 33.248 151.416 34.484 151.104 35.444C150.696 36.56 149.832 37.508 148.512 38.3L149.304 39.272C150.852 38.372 151.848 37.232 152.28 35.852C152.88 37.184 153.708 38.324 154.788 39.272L155.628 38.288C154.236 37.22 153.264 35.792 152.688 34.016C152.784 33.32 152.832 32.564 152.832 31.736H151.596ZM157.596 28.244L156.756 29.036C157.632 29.744 158.304 30.404 158.784 31.004L159.648 30.14C159.084 29.504 158.4 28.868 157.596 28.244ZM164.772 39.044H167.328L167.616 37.856C167.304 37.88 166.872 37.892 166.296 37.916C165.72 37.928 165.168 37.94 164.616 37.94C163.632 37.94 162.78 37.928 162.06 37.916C161.316 37.892 160.764 37.784 160.392 37.616C160.104 37.46 159.816 37.22 159.516 36.896C159.456 36.824 159.396 36.776 159.348 36.728V32.192H156.588V33.32H158.208V36.644C157.704 36.908 157.164 37.544 156.564 38.528L157.452 39.368C158.076 38.228 158.508 37.664 158.748 37.664C158.892 37.664 159.06 37.76 159.228 37.976C159.588 38.384 160.02 38.66 160.536 38.804C161.052 38.936 161.724 39.008 162.54 39.02C163.344 39.032 164.088 39.044 164.772 39.044ZM160.26 36.74C161.4 36.464 162.396 36.2 163.26 35.936L163.032 34.76C162.504 34.94 161.976 35.108 161.424 35.264V30.044C162.264 29.744 162.924 29.42 163.428 29.084L162.732 28.076C162.108 28.508 161.292 28.892 160.26 29.216V35.036C160.26 35.336 160.14 35.54 159.924 35.636L160.26 36.74ZM166.068 36.332C166.8 36.332 167.172 35.912 167.172 35.072V28.772H163.524V37.616H164.724V29.876H165.996V34.82C165.996 35.072 165.888 35.204 165.672 35.204L164.844 35.144L165.18 36.332H166.068ZM170.556 33.164V36.284H177.492V33.164H170.556ZM176.232 35.18H171.816V34.256H176.232V35.18ZM171.9 36.356L170.724 36.8C171.06 37.1 171.36 37.412 171.612 37.748H168.792V38.936H179.184V37.748H176.568C176.808 37.436 177.036 37.1 177.252 36.74L176.088 36.32C175.836 36.812 175.548 37.292 175.212 37.748H172.944C172.632 37.22 172.284 36.752 171.9 36.356ZM170.016 29.744L169.176 30.536C169.728 30.92 170.196 31.292 170.592 31.652C169.992 32.072 169.284 32.444 168.444 32.768L169.212 33.752C170.34 33.284 171.288 32.72 172.056 32.048V32.432H176.46V31.988C177.156 32.624 177.972 33.2 178.908 33.728L179.736 32.768C179.088 32.444 178.512 32.084 177.984 31.7C178.464 31.328 178.896 30.908 179.256 30.452L178.38 29.684C178.02 30.152 177.6 30.584 177.096 30.968C176.856 30.752 176.64 30.536 176.448 30.296C176.94 29.936 177.372 29.528 177.732 29.096L176.856 28.316C176.556 28.7 176.196 29.06 175.776 29.396C175.512 29 175.284 28.58 175.092 28.136L174.048 28.712C174.468 29.648 175.044 30.5 175.764 31.292H172.788C173.256 30.74 173.628 30.116 173.904 29.42V28.484H169.764V29.636H172.488C172.224 30.092 171.888 30.524 171.468 30.932C171.06 30.548 170.568 30.152 170.016 29.744ZM182.016 28.496V29.624H187.896V30.464H182.424V31.544H187.896V32.372H180.816V33.512H185.304V34.832C183.984 35.96 182.436 36.92 180.636 37.736L181.14 38.9C182.736 38.072 184.128 37.148 185.304 36.116V37.688C185.304 38 185.208 38.168 185.028 38.168C184.62 38.168 184.2 38.132 183.768 38.084L184.044 39.26H185.448C186.18 39.26 186.552 38.828 186.552 37.988V36.068C187.584 37.184 188.94 38.132 190.62 38.924L191.256 37.82C190.08 37.316 189.048 36.752 188.16 36.104C188.952 35.672 189.66 35.06 190.284 34.292L189.336 33.512H191.196V32.372H189.168V28.496H182.016ZM182.316 33.692L181.488 34.484C182.256 35.012 182.844 35.492 183.264 35.948L184.08 35.132C183.6 34.652 183.012 34.172 182.316 33.692ZM189.312 33.512C188.748 34.328 188.076 34.964 187.308 35.42C187.032 35.18 186.78 34.94 186.552 34.688V33.512H189.312Z" fill="#242E42"/>
<line opacity="0.6" x1="28" y1="55.5" x2="308" y2="55.5" stroke="url(#paint0_radial_10705_450594)"/>
<path d="M30.772 84.576H33.412V86.304H30.772V84.576ZM30.712 87.456H33.412V90.84H34.684V87.456H37.54V89.124C37.54 89.58 37.348 89.82 36.988 89.82C36.58 89.82 36.148 89.796 35.668 89.748L36.004 90.972H37.384C38.332 90.972 38.812 90.504 38.812 89.58V80.52H29.512V86.46C29.488 88.02 29.128 89.304 28.42 90.312L29.38 91.176C30.112 90.192 30.556 88.944 30.712 87.456ZM37.54 86.304H34.684V84.576H37.54V86.304ZM37.54 83.424H34.684V81.744H37.54V83.424ZM33.412 81.744V83.424H30.772V81.744H33.412ZM49.324 82.716V84.624H42.916V82.716H49.324ZM42.904 85.848H50.596V81.492H46.792C46.6 80.952 46.42 80.472 46.228 80.04L44.884 80.256C45.112 80.64 45.316 81.048 45.508 81.492H41.68V85.476C41.668 87.516 41.212 89.184 40.324 90.468L41.26 91.32C42.292 89.784 42.832 87.96 42.904 85.848ZM56.464 90.6H61.42V91.224H62.692V85.932H58.24C60.184 84.936 61.54 83.7 62.284 82.212V81.108H57.868C58.06 80.832 58.228 80.556 58.372 80.268L56.992 80.1C56.284 81.324 54.916 82.368 52.9 83.208L53.74 84.3C54.988 83.7 56.008 83.028 56.824 82.284H60.856C60.352 83.1 59.572 83.832 58.528 84.468C58.036 84.06 57.388 83.604 56.596 83.1L55.504 83.772C56.284 84.216 56.932 84.636 57.436 85.044C56.116 85.644 54.472 86.124 52.492 86.484L53.14 87.684C53.86 87.516 54.556 87.324 55.204 87.132V91.224H56.464V90.6ZM61.42 89.388H56.464V87.096H61.42V89.388ZM65.164 83.712V87.564H69.82V83.712H65.164ZM68.584 86.436H66.412V84.864H68.584V86.436ZM70.096 87.912C68.284 88.428 66.436 88.8 64.564 89.016L64.864 90.264C66.724 89.952 68.464 89.568 70.096 89.112V87.912ZM74.092 91.212C74.74 91.212 75.232 90.372 75.568 88.704L74.5 87.996C74.344 89.22 74.164 89.832 73.948 89.832C73.648 89.832 73.312 89.532 72.952 88.956C72.88 88.824 72.808 88.692 72.736 88.548C73.54 87.348 74.224 85.872 74.776 84.108L73.672 83.52C73.276 84.852 72.796 86.016 72.22 87.024C72.16 86.784 72.112 86.544 72.064 86.28C71.884 85.272 71.788 84.096 71.764 82.776H75.376V81.552H74.272C74.104 81.12 73.924 80.724 73.744 80.376L72.484 80.58C72.688 80.88 72.88 81.204 73.048 81.552H71.752V80.148H70.492V81.552H64.612V82.776H70.492C70.516 84.372 70.672 85.764 70.948 86.952C71.056 87.444 71.188 87.9 71.356 88.32C70.72 89.124 70 89.76 69.184 90.24L69.88 91.32C70.624 90.864 71.32 90.288 71.944 89.568C72.04 89.736 72.148 89.892 72.268 90.048C72.844 90.816 73.444 91.2 74.092 91.212ZM82.276 81.744H80.152V80.1H78.928V81.744H76.816V90.756H77.992V90.06H81.112V90.756H82.276V81.744ZM77.992 88.944V86.364H78.928V88.944H77.992ZM80.152 88.944V86.364H81.112V88.944H80.152ZM77.992 85.26V82.872H78.928V85.26H77.992ZM80.152 82.872H81.112V85.26H80.152V82.872ZM83.08 80.664V91.26H84.268V81.768H85.9C85.54 83.016 85.168 84.072 84.784 84.948C85.684 86.16 86.14 87.132 86.152 87.876C86.14 88.176 86.116 88.368 86.068 88.44C85.996 88.536 85.864 88.596 85.672 88.608C85.36 88.608 84.988 88.572 84.544 88.524L84.916 89.784C85.876 89.784 86.524 89.64 86.848 89.352C87.148 89.088 87.304 88.596 87.304 87.876C87.292 87.12 86.872 86.148 86.032 84.948C86.44 83.916 86.824 82.8 87.184 81.576V80.664H83.08ZM88.792 84.612V85.812H90.412C89.956 86.82 89.272 87.72 88.348 88.512L88.888 89.916C89.584 89.124 90.148 88.26 90.592 87.324V91.272H91.852V87.252C92.14 87.66 92.476 88.176 92.86 88.776L93.556 87.72C92.98 87.108 92.404 86.556 91.852 86.052V85.812H93.34V84.612H91.852V83.46H90.592V84.612H88.792ZM98.8 83.76H93.76V91.26H94.972V90.84H97.588V91.26H98.8V83.76ZM94.972 89.736V88.728H97.588V89.736H94.972ZM94.972 87.672V86.796H97.588V87.672H94.972ZM94.972 85.74V84.864H97.588V85.74H94.972ZM90.556 82.044H91.084C91.372 82.488 91.636 82.956 91.852 83.436L93.004 83.004C92.848 82.704 92.656 82.38 92.416 82.044H93.988V80.94H91.084C91.156 80.76 91.216 80.568 91.288 80.376L90.076 80.112C89.788 81 89.284 81.828 88.576 82.596L89.668 83.292C89.992 82.908 90.292 82.5 90.556 82.044ZM95.68 82.044H96.244C96.556 82.488 96.82 82.944 97.036 83.424L98.14 83.004C97.984 82.704 97.78 82.38 97.54 82.044H99.46V80.94H96.124C96.184 80.736 96.244 80.532 96.316 80.316L95.128 80.052C94.876 80.988 94.444 81.888 93.832 82.728L94.9 83.412C95.188 82.992 95.44 82.536 95.68 82.044Z" fill="#242E42"/>
<path d="M106.616 81.432L106.712 83.772L104.564 82.956L104.3 83.748L106.508 84.408L105.02 86.172L105.668 86.688L107.036 84.792L108.404 86.688L109.052 86.172L107.564 84.408L109.772 83.748L109.508 82.956L107.372 83.772L107.456 81.432H106.616Z" fill="#CA2621"/>
<rect x="28.5" y="100.5" width="279" height="31" rx="3.5" fill="white"/>
<path d="M40.744 113.796V117.636C40.744 119.316 41.488 120.168 43 120.168C43.84 120.168 44.512 119.784 45.016 119.04V120H45.976V113.796H45.016V117.576C44.944 118.104 44.74 118.536 44.404 118.872C44.08 119.184 43.708 119.352 43.3 119.352C42.736 119.352 42.328 119.196 42.076 118.908C41.824 118.62 41.704 118.176 41.704 117.588V113.796H40.744ZM49.6548 113.628C48.9588 113.628 48.3828 113.784 47.9508 114.096C47.4828 114.408 47.2548 114.816 47.2548 115.344C47.2548 115.872 47.4828 116.268 47.9628 116.556C48.2508 116.748 48.7668 116.928 49.4988 117.108C50.1708 117.276 50.6148 117.408 50.8188 117.504C51.2028 117.696 51.4068 117.96 51.4068 118.308C51.4068 119.004 50.8428 119.364 49.7388 119.364C49.2108 119.364 48.8148 119.268 48.5508 119.076C48.2868 118.86 48.1068 118.512 48.0348 118.02H47.0988C47.2428 119.448 48.1308 120.168 49.7628 120.168C51.5148 120.168 52.3908 119.52 52.3908 118.248C52.3908 117.708 52.1388 117.288 51.6468 116.976C51.3228 116.772 50.7948 116.58 50.0508 116.4C49.4268 116.232 48.9948 116.1 48.7668 115.992C48.4068 115.812 48.2388 115.584 48.2388 115.32C48.2388 115.044 48.3708 114.828 48.6348 114.672C48.8748 114.504 49.2108 114.432 49.6428 114.432C50.1348 114.432 50.5188 114.528 50.7828 114.72C51.0228 114.888 51.1788 115.176 51.2628 115.56H52.1988C52.0308 114.264 51.1908 113.628 49.6548 113.628ZM56.0734 113.628C55.1734 113.628 54.4654 113.952 53.9374 114.6C53.4094 115.212 53.1574 115.98 53.1574 116.892C53.1574 117.9 53.4214 118.692 53.9734 119.292C54.5014 119.868 55.2214 120.168 56.1094 120.168C56.9134 120.168 57.5734 119.928 58.0894 119.472C58.5094 119.088 58.7854 118.608 58.9294 118.008H57.9694C57.8134 118.44 57.6094 118.764 57.3454 118.98C57.0334 119.232 56.6134 119.364 56.1094 119.364C55.5214 119.364 55.0534 119.172 54.7174 118.788C54.3814 118.404 54.2014 117.864 54.1534 117.168H59.0494C59.0254 116.088 58.7854 115.236 58.3294 114.636C57.8254 113.964 57.0694 113.628 56.0734 113.628ZM56.0974 114.432C57.2734 114.432 57.9334 115.092 58.0534 116.424H54.1774C54.2374 115.812 54.4294 115.332 54.7654 114.972C55.1014 114.612 55.5454 114.432 56.0974 114.432ZM62.8977 113.628C62.4657 113.628 62.0937 113.76 61.7697 114.024C61.5057 114.228 61.2897 114.516 61.1217 114.876V113.796H60.1737V120H61.1217V116.712C61.1217 116.136 61.2777 115.644 61.6137 115.236C61.9377 114.804 62.3457 114.6 62.8257 114.6C63.1257 114.6 63.4377 114.636 63.7497 114.732V113.772C63.5217 113.676 63.2337 113.628 62.8977 113.628ZM69.1045 111.264C67.7245 111.264 66.5965 111.708 65.7085 112.608C64.8565 113.448 64.4365 114.492 64.4365 115.752C64.4365 117.096 64.8565 118.164 65.7085 118.98C66.5365 119.772 67.6645 120.168 69.1045 120.168C70.0525 120.168 70.9045 119.976 71.6725 119.604C72.4645 119.22 73.0645 118.668 73.4845 117.948H72.6445C72.3085 118.428 71.8645 118.8 71.3125 119.076C70.6885 119.376 69.9445 119.532 69.1045 119.532C67.9285 119.532 67.0045 119.208 66.3325 118.584C65.6125 117.924 65.2645 116.988 65.2645 115.776C65.2645 114.672 65.6125 113.748 66.3205 113.028C67.0405 112.296 67.9525 111.936 69.0565 111.936C70.0885 111.936 70.9285 112.236 71.5525 112.848C72.1285 113.412 72.4165 114.12 72.4165 114.972C72.4165 115.716 72.2005 116.364 71.7685 116.916C71.3965 117.384 71.0245 117.624 70.6525 117.624C70.4245 117.624 70.3165 117.516 70.3165 117.324C70.3165 117.18 70.3645 116.94 70.4605 116.592L71.3125 113.46H70.5325L70.3525 114.132C70.1605 113.532 69.7765 113.232 69.2005 113.232C68.4805 113.232 67.8685 113.544 67.3405 114.192C66.7885 114.84 66.5245 115.62 66.5245 116.508C66.5245 117.024 66.6805 117.456 66.9925 117.792C67.3045 118.128 67.7125 118.308 68.2165 118.308C68.8165 118.308 69.3205 118.032 69.7285 117.492C69.7765 118.02 70.0525 118.284 70.5565 118.284C71.1805 118.284 71.7565 117.948 72.2845 117.288C72.8125 116.592 73.0885 115.824 73.0885 114.96C73.0885 113.928 72.7525 113.076 72.0805 112.392C71.3485 111.636 70.3525 111.264 69.1045 111.264ZM69.3325 113.988C69.5725 113.988 69.7645 114.084 69.9205 114.276C70.0525 114.432 70.1245 114.624 70.1245 114.84C70.1245 114.912 70.0765 115.104 70.0045 115.416L69.7405 116.4C69.6445 116.712 69.4525 117 69.1645 117.24C68.8765 117.48 68.5765 117.6 68.2765 117.6C67.9765 117.6 67.7485 117.504 67.5925 117.312C67.4365 117.12 67.3645 116.868 67.3645 116.544C67.3645 115.836 67.5685 115.236 67.9765 114.732C68.3605 114.228 68.8165 113.988 69.3325 113.988ZM77.4133 113.628C76.5133 113.628 75.8053 113.952 75.2773 114.6C74.7493 115.212 74.4973 115.98 74.4973 116.892C74.4973 117.9 74.7613 118.692 75.3133 119.292C75.8413 119.868 76.5613 120.168 77.4493 120.168C78.2533 120.168 78.9133 119.928 79.4293 119.472C79.8493 119.088 80.1253 118.608 80.2693 118.008H79.3093C79.1533 118.44 78.9493 118.764 78.6853 118.98C78.3733 119.232 77.9533 119.364 77.4493 119.364C76.8613 119.364 76.3933 119.172 76.0573 118.788C75.7213 118.404 75.5413 117.864 75.4933 117.168H80.3893C80.3653 116.088 80.1253 115.236 79.6693 114.636C79.1653 113.964 78.4093 113.628 77.4133 113.628ZM77.4373 114.432C78.6133 114.432 79.2733 115.092 79.3933 116.424H75.5173C75.5773 115.812 75.7693 115.332 76.1053 114.972C76.4413 114.612 76.8853 114.432 77.4373 114.432ZM81.0935 113.796L83.2895 116.712L80.8295 120H81.9695L83.8295 117.42L85.6775 120H86.8175L84.3575 116.712L86.5535 113.796H85.4255L83.8295 116.004L82.2215 113.796H81.0935ZM90.319 113.628C89.575 113.628 88.987 113.772 88.531 114.06C88.027 114.372 87.703 114.864 87.571 115.512L88.519 115.584C88.615 115.188 88.819 114.888 89.143 114.696C89.431 114.504 89.803 114.42 90.259 114.42C91.339 114.42 91.879 114.936 91.879 115.98V116.304L90.391 116.328C89.455 116.34 88.735 116.52 88.231 116.856C87.655 117.216 87.379 117.744 87.379 118.452C87.379 118.956 87.571 119.376 87.955 119.7C88.327 120.012 88.819 120.168 89.443 120.168C90.019 120.168 90.535 120.036 90.991 119.784C91.375 119.568 91.699 119.292 91.939 118.956V120H92.839V116.016C92.839 115.296 92.647 114.732 92.287 114.324C91.855 113.856 91.207 113.628 90.319 113.628ZM91.879 117.024V117.552C91.879 118.032 91.651 118.464 91.207 118.836C90.751 119.22 90.235 119.412 89.647 119.412C89.263 119.412 88.951 119.316 88.711 119.136C88.471 118.944 88.363 118.716 88.363 118.428C88.363 117.528 89.059 117.072 90.451 117.048L91.879 117.024ZM97.0341 113.628C96.3381 113.628 95.7501 113.952 95.2821 114.624V113.796H94.3221V120H95.2821V116.22C95.2821 115.728 95.4261 115.308 95.7141 114.972C96.0021 114.612 96.3621 114.444 96.8061 114.444C97.7541 114.444 98.2341 114.984 98.2341 116.088V120H99.1941V116.112C99.1941 115.608 99.3261 115.212 99.6141 114.9C99.8781 114.588 100.226 114.444 100.634 114.444C101.162 114.444 101.546 114.576 101.786 114.864C102.014 115.128 102.134 115.536 102.134 116.088V120H103.094V115.932C103.094 115.224 102.89 114.66 102.506 114.24C102.098 113.832 101.582 113.628 100.934 113.628C100.502 113.628 100.142 113.724 99.8421 113.916C99.5061 114.096 99.2181 114.396 98.9781 114.804C98.6301 114.012 97.9821 113.628 97.0341 113.628ZM107.552 113.628C106.616 113.628 105.932 114.024 105.488 114.816V113.796H104.588V122.376H105.548V118.872C106.028 119.736 106.712 120.168 107.6 120.168C108.488 120.168 109.172 119.832 109.676 119.184C110.132 118.584 110.372 117.828 110.372 116.916C110.372 115.98 110.132 115.224 109.664 114.624C109.148 113.952 108.44 113.628 107.552 113.628ZM107.432 114.42C108.092 114.42 108.596 114.66 108.944 115.164C109.232 115.596 109.388 116.184 109.388 116.916C109.388 117.66 109.232 118.248 108.92 118.68C108.572 119.136 108.068 119.376 107.396 119.376C106.82 119.376 106.376 119.148 106.04 118.716C105.68 118.272 105.512 117.696 105.512 116.976V116.856C105.512 116.16 105.668 115.584 105.98 115.152C106.316 114.66 106.808 114.42 107.432 114.42ZM111.811 111.264V120H112.759V111.264H111.811ZM116.999 113.628C116.099 113.628 115.391 113.952 114.863 114.6C114.335 115.212 114.083 115.98 114.083 116.892C114.083 117.9 114.347 118.692 114.899 119.292C115.427 119.868 116.147 120.168 117.035 120.168C117.839 120.168 118.499 119.928 119.015 119.472C119.435 119.088 119.711 118.608 119.855 118.008H118.895C118.739 118.44 118.535 118.764 118.271 118.98C117.959 119.232 117.539 119.364 117.035 119.364C116.447 119.364 115.979 119.172 115.643 118.788C115.307 118.404 115.127 117.864 115.079 117.168H119.975C119.951 116.088 119.711 115.236 119.255 114.636C118.751 113.964 117.995 113.628 116.999 113.628ZM117.023 114.432C118.199 114.432 118.859 115.092 118.979 116.424H115.103C115.163 115.812 115.355 115.332 115.691 114.972C116.027 114.612 116.471 114.432 117.023 114.432ZM121.939 118.572C121.723 118.572 121.555 118.644 121.423 118.788C121.279 118.932 121.207 119.1 121.207 119.316C121.207 119.52 121.279 119.688 121.423 119.832C121.555 119.976 121.723 120.048 121.939 120.048C122.131 120.048 122.311 119.976 122.455 119.832C122.599 119.688 122.671 119.52 122.671 119.316C122.671 119.1 122.599 118.932 122.455 118.788C122.311 118.644 122.131 118.572 121.939 118.572ZM126.94 113.628C126.016 113.628 125.284 113.952 124.756 114.612C124.264 115.212 124.024 115.98 124.024 116.928C124.024 117.876 124.264 118.644 124.756 119.232C125.272 119.856 125.992 120.168 126.928 120.168C127.696 120.168 128.308 119.964 128.776 119.568C129.256 119.16 129.556 118.548 129.7 117.756H128.74C128.596 118.824 127.984 119.364 126.928 119.364C126.304 119.364 125.824 119.136 125.5 118.704C125.164 118.272 125.008 117.672 125.008 116.916C125.008 116.16 125.176 115.56 125.512 115.116C125.86 114.66 126.34 114.432 126.94 114.432C127.432 114.432 127.828 114.54 128.14 114.78C128.44 115.02 128.632 115.38 128.716 115.86H129.664C129.556 115.104 129.268 114.54 128.788 114.168C128.32 113.808 127.708 113.628 126.94 113.628ZM133.598 113.628C132.662 113.628 131.93 113.94 131.378 114.588C130.85 115.2 130.586 115.968 130.586 116.904C130.586 117.828 130.85 118.596 131.378 119.196C131.93 119.844 132.662 120.168 133.598 120.168C134.522 120.168 135.266 119.844 135.83 119.196C136.346 118.596 136.61 117.828 136.61 116.904C136.61 115.968 136.346 115.2 135.818 114.588C135.266 113.94 134.522 113.628 133.598 113.628ZM133.598 114.432C134.246 114.432 134.762 114.684 135.146 115.188C135.47 115.644 135.638 116.208 135.638 116.904C135.638 117.576 135.47 118.152 135.146 118.608C134.762 119.112 134.246 119.364 133.598 119.364C132.938 119.364 132.422 119.112 132.062 118.608C131.726 118.152 131.57 117.588 131.57 116.904C131.57 116.208 131.726 115.644 132.062 115.188C132.422 114.684 132.938 114.432 133.598 114.432ZM140.569 113.628C139.873 113.628 139.285 113.952 138.817 114.624V113.796H137.857V120H138.817V116.22C138.817 115.728 138.961 115.308 139.249 114.972C139.537 114.612 139.897 114.444 140.341 114.444C141.289 114.444 141.769 114.984 141.769 116.088V120H142.729V116.112C142.729 115.608 142.861 115.212 143.149 114.9C143.413 114.588 143.761 114.444 144.169 114.444C144.697 114.444 145.081 114.576 145.321 114.864C145.549 115.128 145.669 115.536 145.669 116.088V120H146.629V115.932C146.629 115.224 146.425 114.66 146.041 114.24C145.633 113.832 145.117 113.628 144.469 113.628C144.037 113.628 143.677 113.724 143.377 113.916C143.041 114.096 142.753 114.396 142.513 114.804C142.165 114.012 141.517 113.628 140.569 113.628Z" fill="#79879C"/>
<rect x="28.5" y="100.5" width="279" height="31" rx="3.5" stroke="#ABB4BE"/>
<path d="M39.112 149.024H34.624C34.516 148.664 34.408 148.352 34.3 148.064L32.968 148.28C33.088 148.508 33.208 148.76 33.316 149.024H28.888V151.676H30.112V150.152H37.888V151.676H39.112V149.024ZM33.412 155.54V157.688H30.988V155.948H29.764V159.26H30.988V158.84H37.18V159.272H38.416V155.768H37.18V157.688H34.66V155.54H33.412ZM33.7 150.224L32.788 150.788C33.244 151.292 33.604 151.748 33.868 152.168L34.792 151.532C34.528 151.148 34.168 150.716 33.7 150.224ZM36.364 150.416C35.44 151.496 34.276 152.432 32.872 153.2V151.508H31.66V153.788C30.688 154.22 29.608 154.58 28.432 154.892L28.924 155.948C30.028 155.648 31.048 155.3 32.008 154.892C32.224 155.108 32.548 155.228 32.992 155.228H35.704C36.208 155.228 36.592 155.132 36.832 154.952C37.096 154.784 37.288 154.208 37.396 153.236L36.22 152.852C36.172 153.464 36.088 153.824 35.956 153.944C35.848 154.064 35.68 154.124 35.464 154.124H33.568C35.044 153.296 36.28 152.288 37.276 151.112L36.364 150.416ZM37.684 151.604L36.784 152.252C37.516 153.14 38.104 153.944 38.536 154.688L39.532 153.992C39.1 153.308 38.476 152.516 37.684 151.604ZM30.508 151.016C30.208 151.904 29.692 152.732 28.96 153.5L29.98 154.148C30.676 153.332 31.204 152.372 31.588 151.256L30.508 151.016ZM44.716 152.24H42.532C42.796 151.496 43 150.716 43.156 149.888H44.908V148.688H40.708V149.888H41.98C41.692 151.496 41.152 152.936 40.348 154.22L40.972 155.24C41.14 154.988 41.308 154.736 41.476 154.472V158.852H42.628V158.072H43.564V158.624H44.716V152.24ZM42.628 156.932V153.368H43.564V156.932H42.628ZM45.964 150.356L45.316 154.424H50.164C50.164 156.128 50.068 157.148 49.888 157.508C49.72 157.856 49.192 158.036 48.304 158.036C48.1 158.036 47.728 158 47.2 157.928L47.56 159.14C47.92 159.176 48.256 159.2 48.592 159.2C49.72 159.2 50.464 158.96 50.824 158.504C51.172 158.036 51.352 156.284 51.352 153.26H50.152L50.776 148.52H45.34V149.696H49.42L48.892 153.26H46.696L47.188 150.428L45.964 150.356ZM45.088 155.588V156.764H49.576V155.588H45.088Z" fill="#242E42"/>
<path d="M58.616 149.432L58.712 151.772L56.564 150.956L56.3 151.748L58.508 152.408L57.02 154.172L57.668 154.688L59.036 152.792L60.404 154.688L61.052 154.172L59.564 152.408L61.772 151.748L61.508 150.956L59.372 151.772L59.456 149.432H58.616Z" fill="#CA2621"/>
<rect x="28.5" y="168.5" width="279" height="31" rx="3.5" fill="white"/>
<path d="M40.864 179.432V188H41.848V184.496H44.356C46.324 184.496 47.32 183.644 47.32 181.952C47.32 180.272 46.336 179.432 44.368 179.432H40.864ZM41.848 180.284H44.308C44.992 180.284 45.496 180.416 45.832 180.704C46.168 180.956 46.336 181.376 46.336 181.952C46.336 182.528 46.168 182.948 45.844 183.224C45.508 183.5 45.004 183.644 44.308 183.644H41.848V180.284ZM51.1432 181.628C50.3992 181.628 49.8112 181.772 49.3552 182.06C48.8512 182.372 48.5272 182.864 48.3952 183.512L49.3432 183.584C49.4392 183.188 49.6432 182.888 49.9672 182.696C50.2552 182.504 50.6272 182.42 51.0832 182.42C52.1632 182.42 52.7032 182.936 52.7032 183.98V184.304L51.2152 184.328C50.2792 184.34 49.5592 184.52 49.0552 184.856C48.4792 185.216 48.2032 185.744 48.2032 186.452C48.2032 186.956 48.3952 187.376 48.7792 187.7C49.1512 188.012 49.6432 188.168 50.2672 188.168C50.8432 188.168 51.3592 188.036 51.8152 187.784C52.1992 187.568 52.5232 187.292 52.7632 186.956V188H53.6632V184.016C53.6632 183.296 53.4712 182.732 53.1112 182.324C52.6792 181.856 52.0312 181.628 51.1432 181.628ZM52.7032 185.024V185.552C52.7032 186.032 52.4752 186.464 52.0312 186.836C51.5752 187.22 51.0592 187.412 50.4712 187.412C50.0872 187.412 49.7752 187.316 49.5352 187.136C49.2952 186.944 49.1872 186.716 49.1872 186.428C49.1872 185.528 49.8832 185.072 51.2752 185.048L52.7032 185.024ZM57.3423 181.628C56.6463 181.628 56.0703 181.784 55.6383 182.096C55.1703 182.408 54.9423 182.816 54.9423 183.344C54.9423 183.872 55.1703 184.268 55.6503 184.556C55.9383 184.748 56.4543 184.928 57.1863 185.108C57.8583 185.276 58.3023 185.408 58.5063 185.504C58.8903 185.696 59.0943 185.96 59.0943 186.308C59.0943 187.004 58.5303 187.364 57.4263 187.364C56.8983 187.364 56.5023 187.268 56.2383 187.076C55.9743 186.86 55.7943 186.512 55.7223 186.02H54.7863C54.9303 187.448 55.8183 188.168 57.4503 188.168C59.2023 188.168 60.0783 187.52 60.0783 186.248C60.0783 185.708 59.8263 185.288 59.3343 184.976C59.0103 184.772 58.4823 184.58 57.7383 184.4C57.1143 184.232 56.6823 184.1 56.4543 183.992C56.0943 183.812 55.9263 183.584 55.9263 183.32C55.9263 183.044 56.0583 182.828 56.3223 182.672C56.5623 182.504 56.8983 182.432 57.3303 182.432C57.8223 182.432 58.2063 182.528 58.4703 182.72C58.7103 182.888 58.8663 183.176 58.9503 183.56H59.8863C59.7183 182.264 58.8783 181.628 57.3423 181.628ZM63.4009 181.628C62.7049 181.628 62.1289 181.784 61.6969 182.096C61.2289 182.408 61.0009 182.816 61.0009 183.344C61.0009 183.872 61.2289 184.268 61.7089 184.556C61.9969 184.748 62.5129 184.928 63.2449 185.108C63.9169 185.276 64.3609 185.408 64.5649 185.504C64.9489 185.696 65.1529 185.96 65.1529 186.308C65.1529 187.004 64.5889 187.364 63.4849 187.364C62.9569 187.364 62.5609 187.268 62.2969 187.076C62.0329 186.86 61.8529 186.512 61.7809 186.02H60.8449C60.9889 187.448 61.8769 188.168 63.5089 188.168C65.2609 188.168 66.1369 187.52 66.1369 186.248C66.1369 185.708 65.8849 185.288 65.3929 184.976C65.0689 184.772 64.5409 184.58 63.7969 184.4C63.1729 184.232 62.7409 184.1 62.5129 183.992C62.1529 183.812 61.9849 183.584 61.9849 183.32C61.9849 183.044 62.1169 182.828 62.3809 182.672C62.6209 182.504 62.9569 182.432 63.3889 182.432C63.8809 182.432 64.2649 182.528 64.5289 182.72C64.7689 182.888 64.9249 183.176 65.0089 183.56H65.9449C65.7769 182.264 64.9369 181.628 63.4009 181.628ZM66.5795 181.796L68.6915 188H69.5915L71.0555 183.008L72.4955 188H73.4075L75.5195 181.796H74.4635L72.9395 186.824L71.4995 181.796H70.5995L69.1595 186.824L67.6355 181.796H66.5795ZM79.0941 181.628C78.1581 181.628 77.4261 181.94 76.8741 182.588C76.3461 183.2 76.0821 183.968 76.0821 184.904C76.0821 185.828 76.3461 186.596 76.8741 187.196C77.4261 187.844 78.1581 188.168 79.0941 188.168C80.0181 188.168 80.7621 187.844 81.3261 187.196C81.8421 186.596 82.1061 185.828 82.1061 184.904C82.1061 183.968 81.8421 183.2 81.3141 182.588C80.7621 181.94 80.0181 181.628 79.0941 181.628ZM79.0941 182.432C79.7421 182.432 80.2581 182.684 80.6421 183.188C80.9661 183.644 81.1341 184.208 81.1341 184.904C81.1341 185.576 80.9661 186.152 80.6421 186.608C80.2581 187.112 79.7421 187.364 79.0941 187.364C78.4341 187.364 77.9181 187.112 77.5581 186.608C77.2221 186.152 77.0661 185.588 77.0661 184.904C77.0661 184.208 77.2221 183.644 77.5581 183.188C77.9181 182.684 78.4341 182.432 79.0941 182.432ZM86.0774 181.628C85.6454 181.628 85.2734 181.76 84.9494 182.024C84.6854 182.228 84.4694 182.516 84.3014 182.876V181.796H83.3534V188H84.3014V184.712C84.3014 184.136 84.4574 183.644 84.7934 183.236C85.1174 182.804 85.5254 182.6 86.0054 182.6C86.3054 182.6 86.6174 182.636 86.9294 182.732V181.772C86.7014 181.676 86.4134 181.628 86.0774 181.628ZM92.3202 179.264V182.936C91.8402 182.06 91.1562 181.628 90.2682 181.628C89.3802 181.628 88.6962 181.952 88.1922 182.624C87.7242 183.224 87.4962 183.968 87.4962 184.88C87.4962 185.816 87.7242 186.584 88.1922 187.184C88.6962 187.832 89.4042 188.168 90.3162 188.168C91.2522 188.168 91.9482 187.772 92.3802 186.98V188H93.2802V179.264H92.3202ZM90.4722 182.42C91.0242 182.42 91.4802 182.636 91.8282 183.092C92.1642 183.536 92.3442 184.124 92.3442 184.844V184.964C92.3442 185.66 92.1882 186.224 91.8882 186.656C91.5402 187.136 91.0602 187.376 90.4362 187.376C89.7642 187.376 89.2602 187.124 88.9242 186.644C88.6242 186.212 88.4802 185.624 88.4802 184.88C88.4802 184.136 88.6242 183.56 88.9362 183.14C89.2722 182.66 89.7882 182.42 90.4722 182.42Z" fill="#79879C"/>
<path fill-rule="evenodd" clip-rule="evenodd" d="M281.392 185.202L283.593 183.921C283.023 183.645 282.526 183.306 282.147 182.906L281.392 185.202ZM294.614 185.202L293.868 182.933C293.496 183.334 293.007 183.669 292.446 183.941L294.614 185.202ZM291.71 184.247L291.584 186.804L289.892 184.7C290.522 184.601 291.139 184.451 291.71 184.247ZM288.889 184.815L288 187.153L287.11 184.812C287.409 184.836 287.706 184.847 287.998 184.847C288.292 184.847 288.59 184.837 288.889 184.815ZM286.12 184.692L284.422 186.804L284.295 184.219C284.868 184.429 285.488 184.587 286.12 184.692Z" fill="#CCD3DB"/>
<path fill-rule="evenodd" clip-rule="evenodd" d="M281.356 181.029C283.021 182.827 285.468 183.114 288 183.114C290.533 183.114 292.91 182.881 294.641 181.029C294.641 183.675 291.059 184.847 287.998 184.847C284.938 184.847 281.356 183.568 281.356 181.029Z" fill="#36435C"/>
<rect x="28.5" y="168.5" width="279" height="31" rx="3.5" stroke="#ABB4BE"/>
<g filter="url(#filter1_d_10705_450594)">
<rect x="28" y="224" width="280" height="32" rx="16" fill="#242E42"/>
<path d="M158.556 239.164V242.284H165.492V239.164H158.556ZM164.232 241.18H159.816V240.256H164.232V241.18ZM159.9 242.356L158.724 242.8C159.06 243.1 159.36 243.412 159.612 243.748H156.792V244.936H167.184V243.748H164.568C164.808 243.436 165.036 243.1 165.252 242.74L164.088 242.32C163.836 242.812 163.548 243.292 163.212 243.748H160.944C160.632 243.22 160.284 242.752 159.9 242.356ZM158.016 235.744L157.176 236.536C157.728 236.92 158.196 237.292 158.592 237.652C157.992 238.072 157.284 238.444 156.444 238.768L157.212 239.752C158.34 239.284 159.288 238.72 160.056 238.048V238.432H164.46V237.988C165.156 238.624 165.972 239.2 166.908 239.728L167.736 238.768C167.088 238.444 166.512 238.084 165.984 237.7C166.464 237.328 166.896 236.908 167.256 236.452L166.38 235.684C166.02 236.152 165.6 236.584 165.096 236.968C164.856 236.752 164.64 236.536 164.448 236.296C164.94 235.936 165.372 235.528 165.732 235.096L164.856 234.316C164.556 234.7 164.196 235.06 163.776 235.396C163.512 235 163.284 234.58 163.092 234.136L162.048 234.712C162.468 235.648 163.044 236.5 163.764 237.292H160.788C161.256 236.74 161.628 236.116 161.904 235.42V234.484H157.764V235.636H160.488C160.224 236.092 159.888 236.524 159.468 236.932C159.06 236.548 158.568 236.152 158.016 235.744ZM170.016 234.496V235.624H175.896V236.464H170.424V237.544H175.896V238.372H168.816V239.512H173.304V240.832C171.984 241.96 170.436 242.92 168.636 243.736L169.14 244.9C170.736 244.072 172.128 243.148 173.304 242.116V243.688C173.304 244 173.208 244.168 173.028 244.168C172.62 244.168 172.2 244.132 171.768 244.084L172.044 245.26H173.448C174.18 245.26 174.552 244.828 174.552 243.988V242.068C175.584 243.184 176.94 244.132 178.62 244.924L179.256 243.82C178.08 243.316 177.048 242.752 176.16 242.104C176.952 241.672 177.66 241.06 178.284 240.292L177.336 239.512H179.196V238.372H177.168V234.496H170.016ZM170.316 239.692L169.488 240.484C170.256 241.012 170.844 241.492 171.264 241.948L172.08 241.132C171.6 240.652 171.012 240.172 170.316 239.692ZM177.312 239.512C176.748 240.328 176.076 240.964 175.308 241.42C175.032 241.18 174.78 240.94 174.552 240.688V239.512H177.312Z" fill="white"/>
</g>
</g>
<defs>
<filter id="filter0_d_10705_450594" x="0" y="0" width="336" height="288" filterUnits="userSpaceOnUse" color-interpolation-filters="sRGB">
<feFlood flood-opacity="0" result="BackgroundImageFix"/>
<feColorMatrix in="SourceAlpha" type="matrix" values="0 0 0 0 0 0 0 0 0 0 0 0 0 0 0 0 0 0 127 0" result="hardAlpha"/>
<feOffset dy="4"/>
<feGaussianBlur stdDeviation="4"/>
<feColorMatrix type="matrix" values="0 0 0 0 0.141176 0 0 0 0 0.180392 0 0 0 0 0.258824 0 0 0 0.2 0"/>
<feBlend mode="normal" in2="BackgroundImageFix" result="effect1_dropShadow_10705_450594"/>
<feBlend mode="normal" in="SourceGraphic" in2="effect1_dropShadow_10705_450594" result="shape"/>
</filter>
<filter id="filter1_d_10705_450594" x="12" y="216" width="312" height="64" filterUnits="userSpaceOnUse" color-interpolation-filters="sRGB">
<feFlood flood-opacity="0" result="BackgroundImageFix"/>
<feColorMatrix in="SourceAlpha" type="matrix" values="0 0 0 0 0 0 0 0 0 0 0 0 0 0 0 0 0 0 127 0" result="hardAlpha"/>
<feOffset dy="8"/>
<feGaussianBlur stdDeviation="8"/>
<feColorMatrix type="matrix" values="0 0 0 0 0.141176 0 0 0 0 0.180392 0 0 0 0 0.258824 0 0 0 0.28 0"/>
<feBlend mode="normal" in2="BackgroundImageFix" result="effect1_dropShadow_10705_450594"/>
<feBlend mode="normal" in="SourceGraphic" in2="effect1_dropShadow_10705_450594" result="shape"/>
</filter>
<radialGradient id="paint0_radial_10705_450594" cx="0" cy="0" r="1" gradientUnits="userSpaceOnUse" gradientTransform="translate(28 56) scale(280 2.0736e+06)">
<stop stop-color="#E2E6EA" stop-opacity="0.18"/>
<stop offset="0.499994" stop-color="#C1C9D1"/>
<stop offset="1" stop-color="#E2E6EA" stop-opacity="0.18"/>
</radialGradient>
</defs>
</svg>
