<?xml version="1.0" encoding="UTF-8"?><svg id="_图层_2" xmlns="http://www.w3.org/2000/svg" viewBox="0 0 377.66 74.1"><defs><style>.cls-1{fill:#00a971;}.cls-2{fill:#fff;}.cls-3{fill:#85818c;}</style></defs><g id="_图层_1-2"><g><g><g><g><polygon class="cls-2" points="56.51 60.08 40.13 50.62 40.13 69.53 56.51 60.08"/><polygon class="cls-1" points="56.51 14.03 40.13 4.57 40.13 23.48 56.51 14.03"/><polygon class="cls-1" points="16.63 37.05 32.05 28.15 32.05 0 0 18.5 0 55.6 32.05 74.1 32.05 45.95 16.63 37.05"/></g><polygon class="cls-1" points="32.16 37.05 64.16 55.53 64.16 18.58 32.16 37.05"/></g><g><path class="cls-2" d="M270.14,3.04h-3.27c-.71,0-1.31,.59-1.31,1.31v15.22h-10.52V4.35c0-.71-.53-1.31-1.31-1.31h-3.27c-.71,0-1.31,.59-1.31,1.31V40.86c0,.71,.59,1.31,1.31,1.31h3.27c.77,0,1.31-.59,1.31-1.31v-15.4h10.52v15.4c0,.71,.59,1.31,1.31,1.31h3.27c.77,0,1.31-.59,1.31-1.31V4.35c0-.71-.53-1.31-1.31-1.31Z"/><path class="cls-2" d="M191.29,37.59c0-.71-.59-1.31-1.31-1.31h-14.77s0-10.73,0-10.73h14.77c.71,0,1.31-.54,1.31-1.31v-3.27c0-.71-.59-1.31-1.31-1.31h-14.77s0-10.73,0-10.73h14.76c.71,0,1.31-.54,1.31-1.31v-3.27c0-.71-.59-1.31-1.31-1.31h-16.07s0,0,0,0h-3.27c-.71,0-1.31,.59-1.31,1.31V40.86c0,.71,.59,1.31,1.31,1.31h1.42s0,0,0,0h17.92c.71,0,1.31-.54,1.31-1.31v-3.27Z"/><path class="cls-2" d="M299.46,37.59c0-.71-.59-1.31-1.31-1.31h-14.77s0-10.73,0-10.73h14.77c.71,0,1.31-.54,1.31-1.31v-3.27c0-.71-.59-1.31-1.31-1.31h-14.77s0-10.73,0-10.73h14.76c.71,0,1.31-.54,1.31-1.31v-3.27c0-.71-.59-1.31-1.31-1.31h-16.07s0,0,0,0h-3.27c-.71,0-1.31,.59-1.31,1.31V40.86c0,.71,.59,1.31,1.31,1.31h1.42s0,0,0,0h17.92c.71,0,1.31-.54,1.31-1.31v-3.27Z"/><path class="cls-2" d="M355.19,37.59c0-.71-.59-1.31-1.31-1.31h-14.77s0-10.73,0-10.73h14.77c.71,0,1.31-.54,1.31-1.31v-3.27c0-.71-.59-1.31-1.31-1.31h-14.77s0-10.73,0-10.73h14.76c.71,0,1.31-.54,1.31-1.31v-3.27c0-.71-.59-1.31-1.31-1.31h-16.07s0,0,0,0h-3.27c-.71,0-1.31,.59-1.31,1.31V40.86c0,.71,.59,1.31,1.31,1.31h1.42s0,0,0,0h17.92c.71,0,1.31-.54,1.31-1.31v-3.27Z"/><path class="cls-2" d="M201.98,12.88v2.23c0,1.7,1.65,2.7,3.53,3.47l7.82,3.29c2.94,1.29,4.99,3.58,4.99,7.11v4.17c0,3.47-7.29,9.29-11.17,9.29-2.64,0-6.64-1.88-9.75-3.58-.71-.35-1.18-1.18-.76-2.12l1-2c.41-.82,1.29-1,2.06-.59,2.53,1.29,5.88,2.88,7.46,2.88,1.76,0,5.47-3,5.47-4.7v-2.59c0-2-1.53-3.11-3.64-3.94l-7.29-3.06c-2.82-1.18-5.41-3.59-5.41-6.88v-3.82c0-3.82,7.7-9.34,11.4-9.34,2.47,0,6.46,1.82,9.11,3.23,.82,.41,1.06,1.35,.7,2.06l-.94,2c-.29,.7-1.23,.94-2.06,.59-2-.94-5.35-2.47-6.82-2.47-1.7,0-5.7,2.82-5.7,4.76Z"/><path class="cls-2" d="M316.5,26.35h-5.53v14.51c0,.77-.54,1.31-1.37,1.31h-3.15c-.71,0-1.37-.53-1.37-1.31V5.78c0-1.37,1.61-2.74,2.91-2.74h9.51c4.34,0,10.1,6.77,10.1,11.23,0,2.97-2.61,7.44-5.4,9.17,2.26,1.19,5.35,4.34,5.35,7.25v10.17c0,.71-.59,1.31-1.31,1.31h-3.27c-.71,0-1.31-.59-1.31-1.31v-9.28c0-2.08-2.91-5.23-5.17-5.23Zm.24-18.19h-5.77v13.08h5.83c2.44,0,5.29-4.34,5.29-6.66s-2.97-6.42-5.35-6.42Z"/><path class="cls-2" d="M234.32,26.35h-5.53v14.51c0,.77-.54,1.31-1.37,1.31h-3.15c-.71,0-1.37-.53-1.37-1.31V5.78c0-1.37,1.61-2.74,2.91-2.74h9.51c4.34,0,9.83,6.98,9.83,11.44,0,2.97-2.2,6.97-4.75,9.29-1.25,1.14-3.24,2.58-6.1,2.58Zm.24-18.19h-5.77v13.08h5.83c2.44,0,4.95-4.34,4.95-6.66s-2.63-6.42-5.01-6.42Z"/><path class="cls-2" d="M124.77,42.51c-3.91,0-11.24-4.95-11.24-9.23V4.6c0-.71,.65-1.3,1.37-1.3h3.14c.77,0,1.36,.59,1.36,1.3v27.92c0,2.08,3.54,4.6,5.38,4.6s5.4-2.84,5.4-4.92V4.28c0-.71,.53-1.3,1.25-1.3h3.25c.72,0,1.37,.59,1.37,1.3v28.68c0,4.15-7.36,9.55-11.27,9.55Z"/><path class="cls-2" d="M158.85,21.95c2.71-1.78,5.44-5.25,5.44-8.13,0-4.46-6.07-10.78-10.41-10.78h-9.31c-1.31,0-2.91,1.37-2.91,2.74V40.86c0,.77,.65,1.31,1.37,1.31h11.06c4.34,0,10.2-7.3,10.2-11.76,0-2.88-2.73-6.65-5.44-8.45Zm-11.31-13.79h5.57c2.38,0,5.35,3.41,5.35,5.67s-2.85,6.11-5.29,6.11h-5.63V8.16Zm5.57,28.9h-5.57v-13.08h5.63c2.44,0,5.29,4.11,5.29,6.43s-2.97,6.65-5.35,6.65Z"/><path class="cls-2" d="M95.35,22.82l12.95-14.99c.47-.54,.45-1.34-.14-1.84l-2.47-2.14c-.54-.47-1.38-.41-1.85,.13l-11.32,13.11V4.35c0-.71-.53-1.31-1.31-1.31h-3.27c-.71,0-1.31,.59-1.31,1.31V40.86c0,.71,.59,1.31,1.31,1.31h3.27c.77,0,1.31-.59,1.31-1.31v-12.31l11.32,13.11c.47,.54,1.3,.6,1.85,.13l2.47-2.14c.59-.51,.6-1.3,.14-1.84l-12.95-14.99Z"/></g></g><g><path class="cls-3" d="M87.07,69.99v-16.98h11.12v1.88h-9.01v5.47h8.83v1.88h-8.83v5.85h9.01v1.88h-11.12Z"/><path class="cls-3" d="M127.81,69.99l-9.9-13.54v13.54h-2.11v-16.98h2.16l9.77,13.26v-13.26h2.11v16.98h-2.04Z"/><path class="cls-3" d="M152.26,69.99v-15.09h-5.37v-1.88h12.88v1.88h-5.4v15.09h-2.11Z"/><path class="cls-3" d="M176.81,69.99v-16.98h11.12v1.88h-9.01v5.47h8.83v1.88h-8.83v5.85h9.01v1.88h-11.12Z"/><path class="cls-3" d="M215.37,69.99l-4.3-6.74h-3.41v6.74h-2.11v-16.98h6.82c3.1,0,5.34,1.99,5.34,5.12s-2.11,4.73-4.43,4.94l4.58,6.92h-2.49Zm.15-11.86c0-1.94-1.4-3.23-3.41-3.23h-4.45v6.49h4.45c2.01,0,3.41-1.35,3.41-3.26Z"/><path class="cls-3" d="M235.29,69.99v-16.98h6.82c3.41,0,5.32,2.34,5.32,5.12s-1.93,5.12-5.32,5.12h-4.71v6.74h-2.11Zm9.95-11.86c0-1.91-1.37-3.23-3.38-3.23h-4.45v6.46h4.45c2.01,0,3.38-1.32,3.38-3.23Z"/><path class="cls-3" d="M274.3,69.99l-4.3-6.74h-3.41v6.74h-2.11v-16.98h6.82c3.1,0,5.34,1.99,5.34,5.12s-2.11,4.73-4.43,4.94l4.58,6.92h-2.49Zm.15-11.86c0-1.94-1.4-3.23-3.41-3.23h-4.45v6.49h4.45c2.01,0,3.41-1.35,3.41-3.26Z"/><path class="cls-3" d="M294.22,69.99v-16.98h2.11v16.98h-2.11Z"/><path class="cls-3" d="M313.53,67.6l1.27-1.63c1.09,1.27,2.93,2.44,5.32,2.44,3.03,0,4-1.63,4-2.95,0-4.38-10.05-1.94-10.05-7.99,0-2.8,2.49-4.73,5.85-4.73,2.57,0,4.58,.89,6.01,2.39l-1.27,1.55c-1.27-1.43-3.05-2.04-4.91-2.04-2.01,0-3.49,1.1-3.49,2.7,0,3.82,10.05,1.63,10.05,7.97,0,2.44-1.68,4.99-6.26,4.99-2.93,0-5.12-1.12-6.52-2.7Z"/><path class="cls-3" d="M343.71,69.99v-16.98h11.12v1.88h-9.01v5.47h8.83v1.88h-8.83v5.85h9.01v1.88h-11.12Z"/></g><path class="cls-2" d="M370.58,16.3c-3.9,0-7.07-3.17-7.07-7.07s3.17-7.07,7.07-7.07,7.07,3.14,7.07,7.07-3.14,7.07-7.07,7.07Zm0-13.08c-3.34,0-6.01,2.64-6.01,6.01s2.67,6.01,6.01,6.01,6.01-2.7,6.01-6.01-2.67-6.01-6.01-6.01Zm1.94,10.08l-2.1-3.2h-1.4v3.2h-1.13V5.19h3.3c1.37,0,2.64,.97,2.64,2.47,0,1.8-1.6,2.4-2.07,2.4l2.17,3.24h-1.4Zm-1.33-7.11h-2.17v2.87h2.17c.7,0,1.47-.57,1.47-1.4,0-.9-.77-1.47-1.47-1.47Z"/></g></g></svg>
