<svg width="16" height="16" viewBox="0 0 16 16" fill="none" xmlns="http://www.w3.org/2000/svg">
<rect x="0.000976562" width="16" height="16" rx="4" fill="#EFF4F9"/>
<path fill-rule="evenodd" clip-rule="evenodd" d="M2.66732 3.33325H13.334C14.0704 3.33325 14.6673 3.93021 14.6673 4.66659V11.3333C14.6673 12.0696 14.0704 12.6666 13.334 12.6666H2.66732C1.93094 12.6666 1.33398 12.0696 1.33398 11.3333V4.66659C1.33398 3.93021 1.93094 3.33325 2.66732 3.33325ZM12.672 9.02558C13.0544 9.02558 13.3643 8.71562 13.3643 8.33325C13.3643 7.95089 13.0544 7.64092 12.672 7.64092C12.2896 7.64092 11.9797 7.95089 11.9797 8.33325C11.9797 8.71562 12.2896 9.02558 12.672 9.02558Z" fill="#B6C2CD"/>
<path d="M12.1162 7.92148C12.0308 8.0366 11.9803 8.17912 11.9803 8.33344C11.9803 8.51053 12.0468 8.67209 12.1562 8.79452C11.6702 8.78806 11.246 8.46335 11.1129 7.99581L10.7707 6.79403L10.5369 8.15639C10.4727 8.5305 10.1837 8.82585 9.8111 8.89819C9.39505 8.97895 8.99018 8.76338 8.81458 8.39863L8.59773 10.5725C8.5567 10.9838 8.22382 11.3048 7.81131 11.331C7.34612 11.3605 6.94511 11.0073 6.91562 10.5421L6.59856 5.54035L6.29682 9.00013C6.26704 9.3416 6.01973 9.62456 5.68531 9.69977C5.26113 9.79516 4.83994 9.52864 4.74454 9.10446L4.47432 7.90292L4.23022 8.28894C4.02861 8.60775 3.67771 8.80103 3.3005 8.80103H2.66797L2.66797 7.93436H3.3005C3.38052 7.93436 3.45495 7.89337 3.49772 7.82574L3.80133 7.34561C4.04354 6.96258 4.5504 6.84842 4.93343 7.09064C5.11744 7.207 5.24767 7.39172 5.29544 7.60413L5.47787 8.41531L5.73536 5.4629C5.77694 4.98615 6.19713 4.63338 6.67388 4.67496C7.10071 4.71219 7.43625 5.05577 7.46336 5.48337L7.76296 10.2096L7.97485 8.08547C8.01969 7.63597 8.42043 7.30794 8.86992 7.35278C9.22943 7.38864 9.52281 7.65612 9.59167 8.01078C9.59654 8.03588 9.62084 8.05227 9.64593 8.0474C9.66483 8.04373 9.67948 8.02876 9.68273 8.00979L9.92999 6.56915C10.0093 6.10723 10.448 5.79704 10.9099 5.87632C11.2316 5.93153 11.4932 6.16639 11.5825 6.48034L11.9464 7.75851C11.9698 7.84071 12.0356 7.90209 12.1162 7.92148Z" fill="#324558"/>
</svg>
