<svg width="35" height="35" viewBox="0 0 35 35" fill="none" xmlns="http://www.w3.org/2000/svg">
<path fill-rule="evenodd" clip-rule="evenodd" d="M32.0989 26.6699C30.2134 26.6173 28.7507 26.8106 27.5247 27.3263C27.1717 27.4681 26.6052 27.4681 26.5587 27.9124C26.7474 28.0988 26.7701 28.4039 26.9355 28.6623C27.2182 29.1313 27.7139 29.763 28.1615 30.0907L29.6702 31.1689C30.5896 31.7308 31.627 32.059 32.5227 32.6215C33.0416 32.9497 33.56 33.3714 34.0789 33.7233C34.3431 33.9108 34.5032 34.2159 34.8335 34.3325V34.2616C34.6686 34.0515 34.6211 33.7469 34.4567 33.5116L33.7486 32.8326C33.0654 31.9188 32.2162 31.1216 31.2967 30.4662C30.5421 29.9505 28.8923 29.2479 28.5858 28.3813L28.5393 28.3288C29.0572 28.2763 29.6702 28.0941 30.1658 27.9533C30.968 27.7433 31.6983 27.7895 32.5227 27.5789L33.6551 27.2507V27.0406C33.2308 26.6189 32.9243 26.0565 32.4767 25.6584C31.2745 24.6275 29.9534 23.6197 28.5858 22.7763C27.855 22.3079 26.9117 22.0028 26.1339 21.6052C25.8501 21.4645 25.3793 21.3941 25.2144 21.1599C24.789 20.6452 24.5539 19.9651 24.2474 19.3554L22.3144 15.2786C21.89 14.3648 21.63 13.4511 21.1122 12.6077C18.6835 8.62432 16.0424 6.21122 11.9871 3.84432C11.1152 3.35225 10.0779 3.14061 8.97506 2.88328L7.20692 2.78875C6.82909 2.6249 6.45231 2.17957 6.12204 1.96845C4.77823 1.12505 1.31223 -0.702508 0.321412 1.70587C-0.315352 3.22884 1.26467 4.72817 1.80103 5.50173C2.20264 6.04054 2.72051 6.64972 3.00428 7.25891C3.16281 7.65698 3.21565 8.07921 3.38105 8.50091C3.75783 9.5318 4.11188 10.6803 4.60702 11.6414C4.87124 12.1334 5.14867 12.6497 5.47894 13.0945C5.66759 13.3571 5.99786 13.4694 6.06814 13.8911C5.73787 14.3601 5.71515 15.0623 5.5265 15.6489C4.6773 18.2967 5.00757 21.5769 6.20976 23.5262C6.58759 24.1118 7.47801 25.4011 8.68601 24.9085C9.74711 24.4868 9.51037 23.1513 9.81686 21.9797C9.8882 21.6987 9.84064 21.5112 9.98173 21.3232V21.3757L10.9488 23.3204C11.6796 24.4684 12.9531 25.6636 14.0137 26.4608C14.5791 26.8825 15.0272 27.6094 15.7343 27.8667V27.7958H15.6878C15.5462 27.5857 15.3337 27.4912 15.1451 27.3274C14.7207 26.9056 14.2494 26.3899 13.9191 25.9215C12.9293 24.6096 12.0574 23.1565 11.279 21.6572C10.9012 20.9309 10.5709 20.1342 10.2655 19.4079C10.1228 19.1265 10.1228 18.7042 9.88767 18.5645C9.53362 19.0792 9.01575 19.5256 8.75523 20.1579C8.30712 21.1651 8.26062 22.4071 8.09575 23.6959C8.00063 23.7195 8.04291 23.6959 8.00063 23.7484C7.24708 23.5614 6.98709 22.7873 6.70438 22.132C5.99733 20.4682 5.87896 17.7973 6.49195 15.8757C6.65682 15.3837 7.36492 13.8371 7.08221 13.3686C6.93953 12.9233 6.46922 12.666 6.20923 12.3141C5.90274 11.8688 5.57353 11.3068 5.36109 10.8148C4.79567 9.50187 4.51296 8.0498 3.89944 6.73743C3.61567 6.12824 3.12106 5.49542 2.71998 4.9335C2.27187 4.30069 1.77778 3.85535 1.42373 3.10595C1.30589 2.84337 1.14101 2.42639 1.32967 2.14491C1.37617 1.95743 1.47129 1.88233 1.65888 1.84031C1.96537 1.57773 2.83835 1.91069 3.14484 2.05038C4.01676 2.40224 4.74758 2.72993 5.47841 3.22148C5.80868 3.45571 6.16273 3.90104 6.58707 4.01868H7.08273C7.83734 4.18253 8.68548 4.07119 9.392 4.28126C10.6417 4.68038 11.7731 5.2654 12.7877 5.89875C15.8759 7.84341 18.423 10.6084 20.1435 13.9127C20.4263 14.4515 20.5441 14.9436 20.8041 15.506C21.2998 16.6545 21.9127 17.8256 22.4068 18.9511C22.9025 20.0523 23.3739 21.1777 24.0809 22.0915C24.435 22.5836 25.8491 22.8409 26.4853 23.0988C26.9572 23.3088 27.6875 23.4979 28.1129 23.7552C28.914 24.2473 29.7156 24.8097 30.4697 25.3486C30.8465 25.629 32.0259 26.2151 32.0962 26.6825L32.0989 26.6699ZM8.05506 6.30837C7.72931 6.30551 7.40458 6.34488 7.08908 6.42548V6.478H7.13558C7.32423 6.85296 7.65451 7.11081 7.89019 7.43904L8.43289 8.56393L8.47939 8.51141C8.80966 8.27719 8.97506 7.90223 8.97506 7.34031C8.83344 7.17646 8.81019 7.01208 8.69235 6.84823C8.55073 6.61401 8.24424 6.49638 8.05506 6.30942V6.30837Z" fill="#00678C"/>
</svg>
