<?xml version="1.0" encoding="UTF-8"?>
<svg width="61px" height="56px" viewBox="0 0 61 56" version="1.1" xmlns="http://www.w3.org/2000/svg" xmlns:xlink="http://www.w3.org/1999/xlink">
    <!-- Generator: Sketch 49.3 (51167) - http://www.bohemiancoding.com/sketch -->
    <title>undraw_no_data_qbuo</title>
    <desc>Created with Sketch.</desc>
    <defs>
        <linearGradient x1="49.9988159%" y1="100%" x2="49.9988159%" y2="0%" id="linearGradient-1">
            <stop stop-color="#808080" stop-opacity="0.25" offset="0%"></stop>
            <stop stop-color="#808080" stop-opacity="0.12" offset="54%"></stop>
            <stop stop-color="#808080" stop-opacity="0.1" offset="100%"></stop>
        </linearGradient>
        <linearGradient x1="54017%" y1="18020%" x2="54017%" y2="13075%" id="linearGradient-2">
            <stop stop-color="#808080" stop-opacity="0.25" offset="0%"></stop>
            <stop stop-color="#808080" stop-opacity="0.12" offset="54%"></stop>
            <stop stop-color="#808080" stop-opacity="0.1" offset="100%"></stop>
        </linearGradient>
        <linearGradient x1="54017%" y1="14086%" x2="54017%" y2="8243%" id="linearGradient-3">
            <stop stop-color="#808080" stop-opacity="0.25" offset="0%"></stop>
            <stop stop-color="#808080" stop-opacity="0.12" offset="54%"></stop>
            <stop stop-color="#808080" stop-opacity="0.1" offset="100%"></stop>
        </linearGradient>
        <linearGradient x1="47640%" y1="71053%" x2="47640%" y2="12712%" id="linearGradient-4">
            <stop stop-color="#808080" stop-opacity="0.25" offset="0%"></stop>
            <stop stop-color="#808080" stop-opacity="0.12" offset="54%"></stop>
            <stop stop-color="#808080" stop-opacity="0.1" offset="100%"></stop>
        </linearGradient>
        <linearGradient x1="47694%" y1="15613%" x2="47694%" y2="10668%" id="linearGradient-5">
            <stop stop-color="#808080" stop-opacity="0.25" offset="0%"></stop>
            <stop stop-color="#808080" stop-opacity="0.12" offset="54%"></stop>
            <stop stop-color="#808080" stop-opacity="0.1" offset="100%"></stop>
        </linearGradient>
        <linearGradient x1="66686%" y1="17639%" x2="66686%" y2="11795%" id="linearGradient-6">
            <stop stop-color="#808080" stop-opacity="0.25" offset="0%"></stop>
            <stop stop-color="#808080" stop-opacity="0.12" offset="54%"></stop>
            <stop stop-color="#808080" stop-opacity="0.1" offset="100%"></stop>
        </linearGradient>
    </defs>
    <g id="Guide" stroke="none" stroke-width="1" fill="none" fill-rule="evenodd">
        <g id="空状态" transform="translate(-677.000000, -319.000000)">
            <g id="Group-7" transform="translate(107.000000, 200.000000)">
                <g id="Group-20" transform="translate(1.000000, 97.000000)">
                    <g id="undraw_no_data_qbuo" transform="translate(569.000000, 20.000000)">
                        <rect id="Rectangle-path" fill="#E0E0E0" fill-rule="nonzero" transform="translate(25.703052, 28.579678) rotate(-12.110000) translate(-25.703052, -28.579678) " x="9.47567679" y="6.15870534" width="32.4547503" height="44.8419462"></rect>
                        <g id="Group" opacity="0.5" transform="translate(5.792574, 4.084507)" fill="url(#linearGradient-1)" fill-rule="nonzero">
                            <rect id="Rectangle-path" transform="translate(19.910919, 24.495457) rotate(-12.110000) translate(-19.910919, -24.495457) " x="4.23198202" y="2.83234517" width="31.3578745" height="43.3262228"></rect>
                        </g>
                        <rect id="Rectangle-path" fill="#FAFAFA" fill-rule="nonzero" transform="translate(25.669593, 28.423809) rotate(-12.110000) translate(-25.669593, -28.423809) " x="10.3898234" y="7.23932756" width="30.5595391" height="42.3689629"></rect>
                        <rect id="Rectangle-path" fill="url(#linearGradient-2)" fill-rule="nonzero" transform="translate(21.264364, 7.701773) rotate(-12.110000) translate(-21.264364, -7.701773) " x="13.6842615" y="5.86560132" width="15.1602049" height="3.67234315"></rect>
                        <path d="M20.1262228,2.39946223 C18.9818182,2.64527529 18.2577465,3.79413572 18.5095006,4.96527529 C18.7612548,6.13641485 19.8922919,6.88796415 21.0344686,6.64215109 C22.1766453,6.39633803 22.9029449,5.24747759 22.6511908,4.07633803 C22.3994366,2.90519846 21.2706274,2.15364917 20.1262228,2.39946223 Z M20.8443534,5.748758 C20.3496468,5.8667387 19.8327235,5.67375756 19.5363609,5.26044978 C19.2399983,4.84714199 19.2230825,4.29563022 19.4935582,3.86493655 C19.7640338,3.43424288 20.2681584,3.20994447 20.7691656,3.29738494 C21.2701729,3.38482541 21.6685146,3.76663067 21.7771063,4.26348271 C21.8511924,4.58419219 21.7944293,4.92120356 21.6193763,5.19995036 C21.4443233,5.47869715 21.1654119,5.67619934 20.8443534,5.748758 Z" id="Shape" fill="url(#linearGradient-3)" fill-rule="nonzero"></path>
                        <rect id="Rectangle-path" fill="#55BC8A" fill-rule="nonzero" transform="translate(21.214323, 7.468617) rotate(-12.110000) translate(-21.214323, -7.468617) " x="13.7938876" y="5.71339286" width="14.8408707" height="3.51044814"></rect>
                        <path d="M20.1262228,2.39946223 C19.00622,2.63985323 18.2931367,3.74264986 18.5334842,4.86266196 C18.7738318,5.98267406 19.8766007,6.6958002 20.9966221,6.4554961 C22.1166436,6.21519201 22.8298125,5.11245072 22.5895519,3.99241997 C22.4741627,3.45450659 22.1497989,2.98446981 21.6878268,2.68572696 C21.2258548,2.3869841 20.6641227,2.28401045 20.1262228,2.39946223 Z M20.81242,5.60023047 C20.3389796,5.70181774 19.8509643,5.50819493 19.5759522,5.10965499 C19.3009402,4.71111504 19.2930954,4.18615104 19.5560762,3.77957163 C19.819057,3.37299222 20.301069,3.16487387 20.7773334,3.25226929 C21.2535978,3.3396647 21.6303136,3.7053612 21.7318054,4.17882202 C21.8703643,4.82520138 21.4587714,5.46154126 20.81242,5.60023047 Z" id="Shape" fill="#55BC8A" fill-rule="nonzero"></path>
                        <rect id="Rectangle-path" fill="#E0E0E0" fill-rule="nonzero" x="19.1518822" y="8.6821767" width="32.4547503" height="44.8419462"></rect>
                        <g id="Group" opacity="0.5" transform="translate(19.679898, 9.431498)" fill="url(#linearGradient-4)" fill-rule="nonzero">
                            <rect id="Rectangle-path" x="0.020793854" y="0.00891165173" width="31.3578745" height="43.3262228"></rect>
                        </g>
                        <rect id="Rectangle-path" fill="#FFFFFF" fill-rule="nonzero" x="20.0994878" y="9.75974392" width="30.5595391" height="42.3689629"></rect>
                        <rect id="Rectangle-path" fill="url(#linearGradient-5)" fill-rule="nonzero" x="27.8392574" y="7.92245839" width="15.1602049" height="3.67234315"></rect>
                        <path d="M35.4193598,4.33774648 C34.2489629,4.33774648 33.299872,5.30911652 33.299872,6.50773367 C33.299872,7.70635083 34.2489629,8.67772087 35.4193598,8.67772087 C36.5897567,8.67772087 37.5388476,7.70635083 37.5388476,6.50773367 C37.5388476,5.30911652 36.5897567,4.33774648 35.4193598,4.33774648 Z M35.4193598,7.75982074 C34.9104085,7.77189889 34.4448147,7.4746146 34.2416212,7.00782804 C34.0384278,6.54104148 34.138094,5.99769794 34.4937311,5.63341843 C34.8493681,5.26913892 35.3901625,5.15645781 35.8616924,5.34838697 C36.3332223,5.54031612 36.6415981,5.99863913 36.6417414,6.50773367 C36.6466956,7.1887496 36.1003449,7.74572198 35.4193598,7.75387964 L35.4193598,7.75982074 Z" id="Shape" fill="url(#linearGradient-6)" fill-rule="nonzero"></path>
                        <rect id="Rectangle-path" fill="#55BC8A" fill-rule="nonzero" x="27.9989245" y="7.76501921" width="14.8408707" height="3.51044814"></rect>
                        <path d="M35.4193598,4.33774648 C34.5804295,4.33774648 33.8241057,4.8431059 33.5030609,5.61817644 C33.1820162,6.39324698 33.3594748,7.28539176 33.9526881,7.87860507 C34.5459015,8.47181838 35.4380462,8.64927701 36.2131168,8.32823228 C36.9881873,8.00718755 37.4935467,7.25086372 37.4935467,6.41193342 C37.4935467,5.2663916 36.5649016,4.33774648 35.4193598,4.33774648 Z M35.4193598,7.6090653 C34.7587832,7.60824369 34.2237157,7.07250932 34.2237169,6.4119322 C34.2237181,5.75135508 34.7587875,5.21562262 35.4193641,5.21480338 C36.0799407,5.21398415 36.6163373,5.74838778 36.617977,6.40896287 C36.6177802,6.72659079 36.4913633,7.03112042 36.2665576,7.2555083 C36.0417518,7.47989618 35.7369875,7.60574625 35.4193598,7.60535211 L35.4193598,7.6090653 Z" id="Shape" fill="#55BC8A" fill-rule="nonzero"></path>
                        <g id="Group" opacity="0.5" transform="translate(0.445583, 54.732394)"></g>
                        <path d="M57.2633035,57.3732138 C57.1038666,57.3038093 57.0217833,57.125909 57.0724456,56.9595647 C57.0763954,56.9472741 57.0788879,56.9345622 57.079872,56.9216901 C57.084422,56.8461698 57.0389613,56.7765853 56.9679746,56.7504144 C56.896988,56.7242434 56.817238,56.7476658 56.7716773,56.8080666 C56.7639549,56.8184118 56.7574743,56.8296282 56.7523688,56.8414853 C56.6829643,57.0009222 56.5050639,57.0830054 56.3387196,57.0323431 C56.3264291,57.0283934 56.3137171,57.0259008 56.3008451,57.0249168 C56.2253247,57.0203668 56.1557403,57.0658275 56.1295693,57.1368141 C56.1033983,57.2078007 56.1268208,57.2875507 56.1872215,57.3331114 C56.1975667,57.3408338 56.2087831,57.3473144 56.2206402,57.35242 C56.3800771,57.4218245 56.4621604,57.5997248 56.4114981,57.7660691 C56.4075483,57.7783597 56.4050558,57.7910716 56.4040717,57.8039437 C56.3995217,57.879464 56.4449824,57.9490485 56.515969,57.9752194 C56.5869557,58.0013904 56.6667057,57.977968 56.7122663,57.9175672 C56.7199887,57.907222 56.7264693,57.8960056 56.7315749,57.8841485 C56.8009794,57.7247116 56.9788797,57.6426284 57.1452241,57.6932907 C57.1575146,57.6972404 57.1702265,57.699733 57.1830986,57.700717 C57.2586189,57.705267 57.3282034,57.6598063 57.3543744,57.5888197 C57.3805454,57.5178331 57.3571229,57.4380831 57.2967222,57.3925224 C57.286377,57.3848 57.2751606,57.3783194 57.2633035,57.3732138 Z" id="Shape" fill="#4D8AF0" fill-rule="nonzero" opacity="0.5"></path>
                        <path d="M10.1496287,42.1446863 C9.9901918,42.0752818 9.90810851,41.8973815 9.95877081,41.7310371 C9.96272059,41.7187466 9.96521312,41.7060347 9.96619718,41.6931626 C9.97074719,41.6176423 9.9252865,41.5480578 9.85429985,41.5218868 C9.78331321,41.4957159 9.70356322,41.5191383 9.65800256,41.5795391 C9.65028016,41.5898842 9.64379957,41.6011006 9.63869398,41.6129577 C9.5692895,41.7723946 9.39138914,41.8544779 9.22504481,41.8038156 C9.21275427,41.7998658 9.20004235,41.7973733 9.18717029,41.7963892 C9.11164996,41.7918392 9.04206549,41.8372999 9.01589451,41.9082866 C8.98972353,41.9792732 9.01314599,42.0590232 9.07354673,42.1045839 C9.08389191,42.1123063 9.09510832,42.1187869 9.10696543,42.1238924 C9.26640231,42.1932969 9.3484856,42.3711973 9.2978233,42.5375416 C9.29387352,42.5498322 9.29138099,42.5625441 9.29039693,42.5754161 C9.28584692,42.6509365 9.33130761,42.7205209 9.40229426,42.7466919 C9.4732809,42.7728629 9.55303089,42.7494404 9.59859155,42.6890397 C9.60631395,42.6786945 9.61279454,42.6674781 9.61790013,42.655621 C9.68730461,42.4961841 9.86520497,42.4141008 10.0315493,42.4647631 C10.0438398,42.4687129 10.0565518,42.4712054 10.0694238,42.4721895 C10.1449442,42.4767395 10.2145286,42.4312788 10.2406996,42.3602922 C10.2668706,42.2893055 10.2434481,42.2095555 10.1830474,42.1639949 C10.1727022,42.1562725 10.1614858,42.1497919 10.1496287,42.1446863 Z" id="Shape" fill="#FDD835" fill-rule="nonzero" opacity="0.5"></path>
                        <path d="M49.3913444,5.06330346 C49.2319075,4.99389897 49.1498243,4.81599861 49.2004866,4.64965429 C49.2044363,4.63736375 49.2069289,4.62465182 49.2079129,4.61177977 C49.2124629,4.53625943 49.1670022,4.46667497 49.0960156,4.44050399 C49.025029,4.41433301 48.945279,4.43775546 48.8997183,4.49815621 C48.8919959,4.50850139 48.8855153,4.51971779 48.8804097,4.5315749 C48.8110052,4.69101178 48.6331049,4.77309507 48.4667606,4.72243278 C48.45447,4.718483 48.4417581,4.71599046 48.428886,4.7150064 C48.3533657,4.71045639 48.2837812,4.75591709 48.2576103,4.82690373 C48.2314393,4.89789037 48.2548617,4.97764037 48.3152625,5.02320102 C48.3256077,5.03092343 48.3368241,5.03740402 48.3486812,5.0425096 C48.5081181,5.11191409 48.5902013,5.28981445 48.5395391,5.45615877 C48.5355893,5.46844931 48.5330967,5.48116124 48.5321127,5.49403329 C48.5275627,5.56955363 48.5730234,5.63913809 48.64401,5.66530907 C48.7149966,5.69148005 48.7947466,5.6680576 48.8403073,5.60765685 C48.8480297,5.59731167 48.8545103,5.58609527 48.8596159,5.57423816 C48.9290204,5.41480128 49.1069207,5.33271799 49.273265,5.38338028 C49.2855556,5.38733006 49.2982675,5.3898226 49.3111396,5.39080666 C49.3866599,5.39535667 49.4562444,5.34989597 49.4824153,5.27890933 C49.5085863,5.20792269 49.4851639,5.12817269 49.4247631,5.08261204 C49.4144179,5.07488963 49.4032015,5.06840904 49.3913444,5.06330346 Z" id="Shape" fill="#FDD835" fill-rule="nonzero" opacity="0.5"></path>
                        <circle id="Oval" fill="#F55F44" fill-rule="nonzero" opacity="0.5" cx="60.3497055" cy="23.353726" r="1"></circle>
                        <circle id="Oval" fill="#F55F44" fill-rule="nonzero" opacity="0.5" cx="17.1348784" cy="55.4490397" r="1"></circle>
                        <circle id="Oval" fill="#F55F44" fill-rule="nonzero" opacity="0.5" cx="54.6068886" cy="35.4408963" r="1"></circle>
                        <circle id="Oval" fill="#4D8AF0" fill-rule="nonzero" opacity="0.5" cx="6.47134443" cy="7.1553137" r="1"></circle>
                        <circle id="Oval" fill="#47E6B1" fill-rule="nonzero" opacity="0.5" cx="0.559206146" cy="22.4098335" r="1"></circle>
                    </g>
                </g>
            </g>
        </g>
    </g>
</svg>