<?xml version="1.0" encoding="UTF-8"?>
<svg width="100px" height="100px" viewBox="0 0 100 100" version="1.1" xmlns="http://www.w3.org/2000/svg" xmlns:xlink="http://www.w3.org/1999/xlink">
    <!-- Generator: Sketch 51.1 (57501) - http://www.bohemiancoding.com/sketch -->
    <title>没有图片</title>
    <desc>Created with Sketch.</desc>
    <defs></defs>
    <g id="应用模板" stroke="none" stroke-width="1" fill="none" fill-rule="evenodd">
        <g id="没有图片" fill-rule="nonzero">
            <rect id="Rectangle-3" fill="#EFF4F8" x="0" y="0" width="100" height="100" rx="5"></rect>
            <polygon id="Shape" fill="#B5C2C9" points="16.2566489 64.2359505 16.2566489 73.0385638 83.2779255 73.0385638 83.2779255 55.4333372 70.9319008 32.5465426 60.349594 50.1517692 56.8221584 48.3912465 49.7672872 55.4333372 39.1849804 44.8702012 26.8389558 65.9964732 21.5478023 60.7149052"></polygon>
            <path d="M26.9614362,30.4521277 C26.9614361,32.3643537 27.9815966,34.1313235 29.6376329,35.0874365 C31.2936693,36.0435495 33.3339903,36.0435495 34.9900266,35.0874365 C36.646063,34.1313235 37.6662235,32.3643537 37.6662234,30.4521277 C37.6662235,28.5399016 36.646063,26.7729319 34.9900266,25.8168188 C33.3339903,24.8607058 31.2936693,24.8607058 29.6376329,25.8168188 C27.9815966,26.7729319 26.9614361,28.5399016 26.9614362,30.4521277 Z" id="Shape" fill="#B5C2C9"></path>
        </g>
    </g>
</svg>