<svg width="40" height="40" viewBox="0 0 40 40" fill="none" xmlns="http://www.w3.org/2000/svg">
<path fill-rule="evenodd" clip-rule="evenodd" d="M18.3333 5H21.6666V8.33333H18.3333V5ZM18.3333 18.3333H21.6666V21.6667H18.3333V18.3333ZM21.6666 31.6667H18.3333V35H21.6666V31.6667Z" fill="#CCD3DB"/>
<path fill-rule="evenodd" clip-rule="evenodd" d="M6.36636 8.33337C5.6 8.33337 5 8.89212 5 9.57962V17.0871C5.00524 17.7758 5.61501 18.332 6.36636 18.3334H33.6336C34.4 18.3334 35 17.7746 35 17.0871V9.57962C35 8.89962 34.3864 8.33337 33.6336 8.33337H6.36636ZM15 10H11.6667V13.3334H15V10ZM6.66667 10H10V13.3334H6.66667V10ZM6.36636 21.6667C5.6 21.6667 5 22.2255 5 22.913V30.4205C5.00524 31.1092 5.61501 31.6654 6.36636 31.6667H33.6336C34.4 31.6667 35 31.108 35 30.4205V22.913C35 22.233 34.3864 21.6667 33.6336 21.6667H6.36636ZM15 23.3334H11.6667V26.6667H15V23.3334ZM6.66667 23.3334H10V26.6667H6.66667V23.3334Z" fill="#36435C"/>
</svg>
