<svg width="40" height="40" viewBox="0 0 40 40" fill="none" xmlns="http://www.w3.org/2000/svg">
<path fill-rule="evenodd" clip-rule="evenodd" d="M10.0904 5C9.51576 5 8.98165 5.29603 8.67708 5.78333L5 11.6667V33.3333C5 34.2538 5.74619 35 6.66667 35H33.3333C34.2538 35 35 34.2538 35 33.3333V11.6667L31.3229 5.78333C31.0184 5.29603 30.4842 5 29.9096 5H10.0904ZM31.6667 15H8.33333V21.6667H31.6667V15ZM31.6667 25H8.33333V31.6667H31.6667V25Z" fill="white" fill-opacity="0.4"/>
<path fill-rule="evenodd" clip-rule="evenodd" d="M8.33333 15H31.6667V21.6667H8.33333V15ZM9.99999 16.6667H13.3333V20H9.99999V16.6667ZM15 16.6667H18.3333V20H15V16.6667Z" fill="white" fill-opacity="0.9"/>
<path fill-rule="evenodd" clip-rule="evenodd" d="M8.33333 25H31.6667V31.6667H8.33333V25ZM9.99999 26.6667H13.3333V30H9.99999V26.6667ZM15 26.6667H18.3333V30H15V26.6667Z" fill="white" fill-opacity="0.9"/>
</svg>
