<svg width="135" height="152" viewBox="0 0 135 152" fill="none" xmlns="http://www.w3.org/2000/svg">
<rect x="17.3794" y="58.1465" width="28.3873" height="28.3873" rx="14.1937" transform="rotate(-22.4435 17.3794 58.1465)" fill="#404E68"/>
<circle cx="35.9165" cy="65.8452" r="12.2241" fill="url(#paint0_linear_1115_130374)"/>
<path fill-rule="evenodd" clip-rule="evenodd" d="M41.6481 60.2044L44.4632 67.0198C44.7775 67.7805 44.4155 68.652 43.6548 68.9662L32.6352 73.518C31.8744 73.8322 31.003 73.4702 30.6887 72.7095L27.8736 65.8941L36.5803 67.4541L41.6481 60.2044Z" fill="url(#paint1_linear_1115_130374)"/>
<path fill-rule="evenodd" clip-rule="evenodd" d="M28.1782 62.7279L39.1978 58.1762C39.9586 57.8619 40.83 58.2239 41.1443 58.9846L41.174 59.0566L36.1062 66.3062L27.3995 64.7462L27.3697 64.6743C27.0555 63.9136 27.4175 63.0421 28.1782 62.7279Z" fill="url(#paint2_linear_1115_130374)"/>
<rect x="80.9702" y="49" width="28.2623" height="28.2623" rx="14.1312" fill="#404E68"/>
<circle cx="95.1014" cy="63.1312" r="12.2093" fill="url(#paint3_linear_1115_130374)"/>
<path d="M94.5714 61.8605C92.9344 61.0396 92.3352 59.9503 92.7311 58.6169C93.0798 57.442 94.2551 56.6729 95.4522 56.8538C96.0493 56.9439 96.5744 57.1883 96.9837 57.6548C97.6031 58.3613 97.7429 59.186 97.5538 60.1044L98.9676 60.4879C99.5697 58.8361 98.8633 56.9062 97.321 55.9153C95.7151 54.8839 93.6344 55.1015 92.2705 56.4453C91.5584 57.1471 91.1688 58.0033 91.0782 58.994C90.95 60.3957 91.5292 61.5267 92.5023 62.4944L90.9551 65.0888C90.9046 65.0926 90.861 65.0953 90.822 65.0976C90.7507 65.1019 90.6948 65.1053 90.6397 65.1131C89.6225 65.2574 88.9066 66.1617 89.0778 67.0842C89.2709 68.1265 90.2194 68.7663 91.1929 68.5113C92.2252 68.2409 92.7745 67.2447 92.3851 66.221C92.2441 65.8505 92.3315 65.613 92.508 65.3215C93.0053 64.4999 93.4953 63.6738 93.9944 62.8324C94.1851 62.5109 94.3772 62.187 94.5714 61.8605Z" fill="url(#paint4_linear_1115_130374)"/>
<path d="M98.0753 63.102C97.577 62.2234 97.0742 61.3368 96.5791 60.4633C96.6038 60.4012 96.628 60.3428 96.6511 60.2867C96.7002 60.1679 96.7451 60.0593 96.7824 59.9484C96.9802 59.3626 96.8608 58.828 96.485 58.3531C96.025 57.7718 95.2227 57.5607 94.5389 57.8222C93.8487 58.0862 93.4071 58.7638 93.4371 59.5134C93.4676 60.2713 93.9762 60.9478 94.764 61.0844C95.2358 61.166 95.4668 61.3901 95.6762 61.7761C96.1211 62.5972 96.5822 63.4094 97.0438 64.2224L97.0442 64.2231C97.2264 64.544 97.4087 64.8651 97.59 65.1869C99.1353 64.157 100.414 64.1897 101.368 65.2626C102.195 66.1923 102.213 67.6084 101.409 68.558C100.466 69.6713 99.1968 69.7155 97.7454 68.7754C97.3432 69.1119 96.9669 69.4268 96.5923 69.7403C98.0619 71.2071 100.16 71.4022 101.818 70.2604C103.434 69.148 103.997 67.0125 103.174 65.2095C102.493 63.717 100.594 62.3228 98.0753 63.102Z" fill="url(#paint5_linear_1115_130374)"/>
<path d="M94.7303 67.6039H97.7621C97.8044 67.6602 97.844 67.716 97.8825 67.7704C97.963 67.8839 98.0395 67.9917 98.1286 68.0873C98.7708 68.7739 99.8551 68.808 100.541 68.1708C101.253 67.5104 101.285 66.401 100.613 65.7115C99.9549 65.0368 98.8308 64.9724 98.2201 65.6867C97.8491 66.1209 97.469 66.1719 96.9765 66.1642C96.0765 66.1503 95.176 66.1529 94.2758 66.1556C93.9146 66.1567 93.5535 66.1578 93.1925 66.1578C93.2744 67.9318 92.6038 69.0372 91.2737 69.2996C89.9712 69.5566 88.7717 68.892 88.3494 67.6796C87.8697 66.3018 88.4629 65.2 90.1769 64.3255C90.048 63.8582 89.9176 63.3854 89.7886 62.917C87.9205 63.3241 86.5189 65.1366 86.6636 67.1757C86.7914 68.9757 88.2434 70.5743 90.0192 70.8606C90.9836 71.0163 91.8898 70.8547 92.7306 70.3777C93.8121 69.7641 94.4397 68.7991 94.7303 67.6039Z" fill="url(#paint6_linear_1115_130374)"/>
<rect x="52.9263" y="38.2188" width="29.2337" height="29.2337" rx="14.6168" transform="rotate(10.5597 52.9263 38.2188)" fill="#F5A623"/>
<circle cx="64.5628" cy="55.5522" r="12.9693" transform="rotate(10.5597 64.5628 55.5522)" fill="url(#paint7_linear_1115_130374)"/>
<path d="M63.3349 46.8115C63.5454 46.7668 63.7626 46.7639 63.9742 46.8032C64.1858 46.8428 64.3874 46.9237 64.5677 47.0413C64.7479 47.1589 64.9032 47.3108 65.0248 47.4884C65.1463 47.666 65.2317 47.8658 65.276 48.0765C65.3203 48.2871 65.3226 48.5043 65.283 48.7158L64.9824 50.3282L63.373 50.0282C63.1615 49.9885 62.9599 49.9076 62.7797 49.7901C62.5994 49.6725 62.4441 49.5206 62.3226 49.3431C62.201 49.1655 62.1157 48.9657 62.0713 48.7551C62.027 48.5446 62.0246 48.3273 62.0642 48.1158C62.1034 47.9042 62.1839 47.7024 62.3012 47.5219C62.4184 47.3414 62.57 47.1858 62.7473 47.0639C62.9247 46.942 63.1243 46.8562 63.3349 46.8115Z" fill="url(#paint8_linear_1115_130374)"/>
<path d="M58.8809 50.3034L63.1726 51.1035C63.3841 51.1431 63.5857 51.224 63.7659 51.3416C63.9462 51.4591 64.1015 51.611 64.223 51.7886C64.3446 51.9662 64.4299 52.166 64.4743 52.3765C64.5186 52.5871 64.521 52.8043 64.4814 53.0158C64.4422 53.2275 64.3617 53.4293 64.2444 53.6098C64.1272 53.7903 63.9756 53.9459 63.7983 54.0678C63.6209 54.1897 63.4213 54.2754 63.2107 54.3202C63.0002 54.3649 62.783 54.3677 62.5714 54.3285L58.2797 53.5285C58.0682 53.4888 57.8666 53.4079 57.6863 53.2903C57.5061 53.1727 57.3507 53.0208 57.2292 52.8432C57.1077 52.6656 57.0223 52.4658 56.978 52.2552C56.9337 52.0446 56.9313 51.8273 56.971 51.6158C57.0103 51.4042 57.0908 51.2024 57.208 51.022C57.3252 50.8415 57.4768 50.6859 57.6542 50.5641C57.8315 50.4422 58.0312 50.3565 58.2416 50.3117C58.4521 50.267 58.6694 50.2642 58.8809 50.3034Z" fill="url(#paint9_linear_1115_130374)"/>
<path d="M73.0574 53.9766C73.1017 54.1872 73.1041 54.4044 73.0645 54.6159C73.0253 54.8275 72.9448 55.0293 72.8276 55.2098C72.7104 55.3903 72.5588 55.546 72.3814 55.6678C72.2041 55.7897 72.0044 55.8755 71.7939 55.9202C71.5834 55.965 71.3661 55.9678 71.1545 55.9285L69.5452 55.6285L69.8458 54.0159C69.885 53.8043 69.9656 53.6025 70.0828 53.4221C70.2 53.2416 70.3516 53.086 70.529 52.9641C70.7063 52.8423 70.9059 52.7565 71.1164 52.7118C71.3269 52.6671 71.5441 52.6643 71.7557 52.7035C71.9672 52.7432 72.1689 52.8241 72.3491 52.9416C72.5293 53.0592 72.6847 53.2111 72.8062 53.3887C72.9277 53.5662 73.0131 53.766 73.0574 53.9766Z" fill="url(#paint10_linear_1115_130374)"/>
<path d="M69.5745 49.5159L68.7729 53.8159C68.7337 54.0275 68.6532 54.2293 68.536 54.4098C68.4188 54.5903 68.2672 54.7459 68.0898 54.8678C67.9124 54.9897 67.7128 55.0755 67.5023 55.1202C67.2918 55.1649 67.0745 55.1677 66.8629 55.1285C66.6514 55.0889 66.4497 55.008 66.2695 54.8904C66.0892 54.7728 65.9339 54.6209 65.8124 54.4433C65.6908 54.2656 65.6055 54.0658 65.5612 53.8552C65.5169 53.6446 65.5145 53.4274 65.5542 53.2158L66.3558 48.9158C66.395 48.7042 66.4755 48.5024 66.5927 48.3219C66.7099 48.1414 66.8615 47.9858 67.0389 47.8639C67.2162 47.742 67.4159 47.6562 67.6264 47.6115C67.8369 47.5668 68.0542 47.5639 68.2658 47.6032C68.4773 47.6428 68.6789 47.7237 68.8592 47.8413C69.0394 47.9589 69.1948 48.1108 69.3163 48.2884C69.4378 48.4661 69.5232 48.6659 69.5675 48.8765C69.6118 49.0871 69.6142 49.3043 69.5745 49.5159Z" fill="url(#paint11_linear_1115_130374)"/>
<path d="M65.2596 63.7288C65.4713 63.7681 65.6885 63.7653 65.899 63.7205C66.1095 63.6758 66.3092 63.59 66.4865 63.4681C66.6639 63.3462 66.8155 63.1906 66.9327 63.0101C67.0499 62.8296 67.1304 62.6278 67.1696 62.4162C67.2093 62.2047 67.2069 61.9874 67.1625 61.7769C67.1182 61.5663 67.0328 61.3665 66.9113 61.1889C66.7898 61.0114 66.6345 60.8595 66.4542 60.7419C66.274 60.6244 66.0724 60.5435 65.8608 60.5038L64.2515 60.2038L63.9509 61.8162C63.9112 62.0277 63.9136 62.245 63.9579 62.4556C64.0022 62.6662 64.0876 62.866 64.2091 63.0436C64.3306 63.2212 64.486 63.3731 64.6662 63.4907C64.8465 63.6083 65.0481 63.6892 65.2596 63.7288Z" fill="url(#paint12_linear_1115_130374)"/>
<path d="M66.0613 59.4285L70.3529 60.2286C70.5645 60.2678 70.7817 60.265 70.9922 60.2203C71.2027 60.1755 71.4023 60.0898 71.5797 59.9679C71.757 59.8461 71.9087 59.6905 72.0259 59.51C72.1431 59.3296 72.2236 59.1278 72.2629 58.9162C72.3025 58.7047 72.3002 58.4874 72.2559 58.2768C72.2116 58.0662 72.1262 57.8664 72.0047 57.6888C71.8831 57.5112 71.7278 57.3593 71.5476 57.2417C71.3673 57.1241 71.1657 57.0432 70.9541 57.0036L66.6625 56.2035C66.4509 56.1643 66.2336 56.1671 66.0231 56.2118C65.8126 56.2566 65.613 56.3423 65.4356 56.4642C65.2583 56.5861 65.1066 56.7417 64.9894 56.9222C64.8722 57.1027 64.7917 57.3045 64.7525 57.5162C64.7129 57.7277 64.7153 57.9449 64.7596 58.1555C64.8039 58.366 64.8893 58.5658 65.0108 58.7434C65.1324 58.921 65.2877 59.0729 65.4679 59.1904C65.6482 59.308 65.8498 59.3889 66.0613 59.4285Z" fill="url(#paint13_linear_1115_130374)"/>
<path fill-rule="evenodd" clip-rule="evenodd" d="M56.1765 56.5554C56.1322 56.3449 56.1297 56.1277 56.1693 55.9163C56.2085 55.7047 56.289 55.5029 56.4062 55.3224C56.5233 55.1418 56.675 54.9862 56.8523 54.8642C57.0297 54.7423 57.2294 54.6565 57.4399 54.6118C57.6504 54.567 57.8677 54.5642 58.0793 54.6035L59.6887 54.9035L59.3881 56.5161C59.3488 56.7277 59.2683 56.9295 59.1511 57.1099C59.0339 57.2904 58.8823 57.446 58.7049 57.5679C58.5276 57.6897 58.3279 57.7755 58.1174 57.8202C57.907 57.8649 57.6897 57.8677 57.4782 57.8285C57.2666 57.7888 57.065 57.7079 56.8848 57.5904C56.7045 57.4728 56.5492 57.3209 56.4277 57.1433C56.3062 56.9658 56.2208 56.766 56.1765 56.5554Z" fill="url(#paint14_linear_1115_130374)"/>
<path d="M59.6594 61.0161L60.4609 56.7164C60.5001 56.5048 60.5806 56.303 60.6978 56.1225C60.8151 55.942 60.9667 55.7864 61.144 55.6645C61.3214 55.5426 61.521 55.4568 61.7315 55.4121C61.9421 55.3674 62.1593 55.3646 62.3709 55.4038C62.5824 55.4434 62.7841 55.5244 62.9644 55.6419C63.1446 55.7595 63.2999 55.9114 63.4215 56.089C63.543 56.2667 63.6283 56.4665 63.6726 56.6771C63.7169 56.8877 63.7193 57.1049 63.6797 57.3165L62.8781 61.6162C62.8389 61.8278 62.7584 62.0296 62.6412 62.2101C62.524 62.3906 62.3724 62.5462 62.195 62.6681C62.0176 62.79 61.818 62.8758 61.6075 62.9205C61.397 62.9652 61.1797 62.9681 60.9681 62.9288C60.7566 62.8892 60.5549 62.8083 60.3747 62.6907C60.1944 62.5731 60.0391 62.4212 59.9176 62.2436C59.796 62.066 59.7107 61.8661 59.6664 61.6555C59.6221 61.4449 59.6197 61.2277 59.6594 61.0161Z" fill="url(#paint15_linear_1115_130374)"/>
<g filter="url(#filter0_d_1115_130374)">
<path d="M16 141.5V67.9999L93 67V145.5H20C17.7909 145.5 16 143.709 16 141.5Z" fill="white"/>
</g>
<path d="M89.9314 91.9876L93 67L16.5 75L16 95.5H85.9612C87.9818 95.5 89.6851 93.9931 89.9314 91.9876Z" fill="#DAE1ED"/>
<path d="M93 67L16 67.5L1.96999 89.4219C1.11801 90.7531 2.07402 92.5 3.65453 92.5H72.3406C74.3182 92.5 76.1687 91.5256 77.2877 89.8951L93 67Z" fill="white"/>
<path d="M93 145.5V67H120V140.5L93 145.5Z" fill="#DAE1ED"/>
<path d="M96.9429 90.6576L93 67H117L120 94H100.889C98.9332 94 97.2644 92.5863 96.9429 90.6576Z" fill="#C5CDDB"/>
<path d="M107.314 88.7024L93 67H120L133.037 87.4239C133.886 88.7553 132.93 90.5 131.351 90.5H110.653C109.309 90.5 108.055 89.8246 107.314 88.7024Z" fill="#DAE1ED"/>
<rect x="24" y="106.5" width="30.4541" height="11" rx="2" fill="#E3E9EF"/>
<rect x="24" y="121.5" width="30.4541" height="2" rx="1" fill="#EFF4F9"/>
<rect x="24" y="126.5" width="30.4541" height="2" rx="1" fill="#EFF4F9"/>
<rect x="24" y="131.5" width="15.227" height="2" rx="1" fill="#EFF4F9"/>
<circle cx="104.5" cy="128.117" r="21.5" fill="url(#paint16_linear_1115_130374)"/>
<circle cx="104.5" cy="128.116" r="18.2647" fill="url(#paint17_linear_1115_130374)"/>
<mask id="mask0_1115_130374" style="mask-type:alpha" maskUnits="userSpaceOnUse" x="83" y="106" width="43" height="44">
<circle cx="104.5" cy="128.117" r="21.5" fill="url(#paint18_linear_1115_130374)"/>
</mask>
<g mask="url(#mask0_1115_130374)">
<path d="M134.926 143.474L109.68 118.531L95.1641 135.799L118.516 158.184L134.926 143.474Z" fill="url(#paint19_linear_1115_130374)" fill-opacity="0.24"/>
</g>
<path fill-rule="evenodd" clip-rule="evenodd" d="M101.751 136.062C101.751 136.063 101.751 136.063 101.751 136.063C101.751 137.716 103.092 139.056 104.745 139.056C106.399 139.056 107.739 137.716 107.739 136.063C107.739 136.063 107.739 136.063 107.739 136.062H101.751Z" fill="white" fill-opacity="0.4"/>
<path fill-rule="evenodd" clip-rule="evenodd" d="M105.942 116.981C110.005 117.562 113.128 121.056 113.128 125.279V132.147C113.128 132.756 113.244 133.36 113.47 133.926L114.325 136.063H95.1641L96.019 133.926C96.2454 133.36 96.3616 132.756 96.3616 132.147V125.279C96.3616 121.056 99.4846 117.562 103.547 116.981V115.105H105.942V116.981Z" fill="white"/>
<rect x="33.8662" y="0.224609" width="32" height="32" rx="16" transform="rotate(14.2298 33.8662 0.224609)" fill="#55BC8A"/>
<circle cx="45.4421" cy="19.6672" r="13.6516" fill="url(#paint20_linear_1115_130374)"/>
<path d="M52.0982 15.1445C52.4809 15.8301 52.7501 16.5559 52.8982 17.3018C53.0973 18.3048 53.0728 19.3082 52.8253 20.2842C52.7837 20.4484 52.7352 20.6104 52.6812 20.7705C52.6775 20.7629 52.674 20.7553 52.6704 20.7477C52.6622 20.73 52.654 20.7124 52.644 20.6954C52.3626 20.2108 51.7963 20.0099 51.2879 20.1731C51.2922 20.1589 51.2966 20.1447 51.301 20.1305C51.3208 20.0663 51.3406 20.002 51.3571 19.9367C51.5515 19.1703 51.5704 18.3807 51.4135 17.5898C51.2951 16.9938 51.079 16.4121 50.7712 15.8607C49.9763 14.4374 48.6343 13.3091 46.9924 12.6834C46.6941 12.5698 46.3949 12.4747 46.1031 12.4007C45.8252 12.3302 45.5301 12.2731 45.2259 12.231C43.4784 11.9888 41.7529 12.3353 40.3674 13.2068C39.8323 13.5434 39.3635 13.9503 38.974 14.4162C38.4525 15.0398 38.0886 15.7484 37.8923 16.5222C37.6395 17.5193 37.6883 18.5815 38.0337 19.5944C38.1803 20.0246 38.379 20.4419 38.6247 20.8404C38.7122 20.9822 38.805 21.122 38.9044 21.2587C38.9693 21.348 39.0318 21.43 39.0952 21.5091C39.2201 21.6627 39.2652 21.8727 39.2151 22.0701C39.197 22.1416 39.1661 22.2015 39.1383 22.2508L38.5703 23.2912L38.4567 23.5062C38.4425 23.5622 38.4738 23.6187 38.5265 23.632C38.5426 23.6361 38.5619 23.6336 38.5978 23.623L38.5996 23.6225L40.3297 23.0991C40.342 23.0954 40.3539 23.0929 40.3658 23.0903C40.3724 23.0888 40.3791 23.0874 40.3858 23.0858C40.5305 23.0505 40.6651 23.0473 40.7948 23.0802C40.8779 23.1013 40.9558 23.1345 41.0261 23.1789C41.3735 23.3869 41.7418 23.5676 42.1219 23.721C42.14 23.7283 42.1581 23.7357 42.1762 23.7432C42.2155 23.7594 42.2549 23.7755 42.2947 23.7905C42.5731 23.8954 42.8598 23.9855 43.1468 24.0583C43.4389 24.1324 43.7474 24.1914 44.0634 24.2335C44.5843 24.3031 45.1014 24.3182 45.6087 24.2849C45.4555 24.716 45.5501 25.2149 45.8919 25.5512C45.9492 25.6077 46.0109 25.6568 46.0757 25.6988C45.3588 25.7731 44.625 25.7671 43.8855 25.6683C43.5094 25.6182 43.1414 25.5478 42.7916 25.4591C42.4486 25.3721 42.106 25.2645 41.7735 25.1392C41.2617 24.9464 40.7861 24.7252 40.3201 24.4499L37.6767 25.0567C37.6662 25.0607 37.6555 25.0637 37.6446 25.0668C37.6399 25.0681 37.6351 25.0695 37.6304 25.0709C37.6287 25.0714 37.6269 25.0719 37.6251 25.0723C37.6235 25.0727 37.6219 25.0731 37.6204 25.0736C37.5145 25.1041 37.4007 25.1106 37.2869 25.0817C36.9385 24.9934 36.7293 24.6333 36.8196 24.2773C36.823 24.2638 36.828 24.2514 36.833 24.239C36.8357 24.2321 36.8385 24.2253 36.8409 24.2184C36.8425 24.2141 36.844 24.2097 36.8455 24.2054C36.853 24.1837 36.8606 24.162 36.8707 24.142C36.8903 24.1024 36.9134 24.0655 36.9397 24.0314L37.1329 23.6654L37.8115 22.364C37.3448 21.7223 36.8575 20.7447 36.6109 20.0214C36.1749 18.7425 36.1145 17.3963 36.4361 16.128C36.6859 15.1429 37.1479 14.2423 37.8093 13.4513C38.2968 12.8684 38.8811 12.3605 39.5464 11.9421C41.2319 10.882 43.3191 10.4588 45.4235 10.7504C45.7852 10.8005 46.1373 10.8687 46.4702 10.9531C46.8195 11.0417 47.1766 11.1551 47.5316 11.2904C49.5092 12.0438 51.1311 13.4126 52.0982 15.1445Z" fill="url(#paint21_linear_1115_130374)"/>
<path d="M53.1228 24.3442C53.1279 24.353 53.1325 24.3619 53.1365 24.371C53.1955 24.5024 53.1484 24.6615 53.023 24.7381C52.8891 24.8198 52.7163 24.7761 52.6375 24.6404C52.6121 24.5917 52.5856 24.5432 52.5577 24.4952C52.1713 23.8299 51.6106 23.336 50.9689 23.0365C50.9464 23.0283 50.9244 23.0191 50.9024 23.0094C50.8807 22.9997 50.8592 22.9895 50.838 22.9784C50.6486 22.8801 50.4837 22.728 50.3674 22.528C50.0378 21.9603 50.2248 21.2229 50.7851 20.8809C51.3455 20.539 52.0669 20.722 52.3967 21.2896C52.5042 21.475 52.5565 21.6782 52.559 21.8801C52.5595 21.9234 52.5578 21.9665 52.5538 22.0095C52.5501 22.0486 52.5446 22.0873 52.5372 22.1257C52.4982 22.8314 52.6561 23.5541 53.0339 24.2046C53.0531 24.2377 53.0729 24.2703 53.093 24.3025C53.104 24.3153 53.114 24.3291 53.1228 24.3442Z" fill="url(#paint22_linear_1115_130374)"/>
<path d="M51.3273 27.8312C51.3362 27.827 51.345 27.8223 51.3536 27.817C51.3686 27.8078 51.3822 27.7974 51.3949 27.7861C51.4267 27.7653 51.4589 27.7448 51.4916 27.7248C52.1337 27.333 52.8443 27.1645 53.5363 27.197C53.5739 27.2041 53.6118 27.2093 53.6501 27.2126C53.6922 27.2162 53.7345 27.2176 53.777 27.2166C53.9751 27.2119 54.1751 27.1566 54.358 27.045C54.9183 26.703 55.1053 25.9656 54.7757 25.3979C54.446 24.8303 53.7245 24.6474 53.1642 24.9893C52.9667 25.1099 52.8158 25.2796 52.7173 25.4736C52.7063 25.4954 52.696 25.5174 52.6863 25.5396C52.6765 25.5621 52.6673 25.5847 52.659 25.6077C52.3585 26.2649 51.8681 26.8417 51.2114 27.2424C51.164 27.2713 51.1163 27.2991 51.0682 27.3255C50.9342 27.4073 50.8895 27.5836 50.9683 27.7193C51.0421 27.8463 51.1977 27.8927 51.3273 27.8312Z" fill="url(#paint23_linear_1115_130374)"/>
<path d="M47.965 26.0495C47.9599 26.0408 47.9554 26.0318 47.9513 26.0228C47.8923 25.8914 47.9395 25.7322 48.0648 25.6557C48.1988 25.574 48.3713 25.6178 48.4501 25.7534C48.4755 25.8022 48.5022 25.8506 48.5301 25.8986C48.9165 26.5639 49.4772 27.0578 50.1189 27.3573C50.1414 27.3655 50.1634 27.3746 50.1854 27.3844C50.2071 27.394 50.2286 27.4043 50.2499 27.4154C50.4392 27.5137 50.6041 27.6657 50.7204 27.8658C51.05 28.4335 50.863 29.1708 50.3027 29.5129C49.7424 29.8547 49.0209 29.6718 48.6912 29.1042C48.5836 28.9188 48.5314 28.7155 48.5288 28.5137C48.5283 28.4704 48.5301 28.4272 48.5341 28.3842C48.5377 28.3452 48.5432 28.3065 48.5506 28.268C48.5896 27.5624 48.4317 26.8397 48.0539 26.1892C48.0347 26.1561 48.0149 26.1235 47.9948 26.0913C47.9839 26.0785 47.9738 26.0647 47.965 26.0495Z" fill="url(#paint24_linear_1115_130374)"/>
<path d="M49.7608 22.5627C49.7519 22.5669 49.743 22.5716 49.7344 22.5769C49.7194 22.5861 49.7058 22.5965 49.6931 22.6078C49.6613 22.6286 49.6291 22.6491 49.5965 22.6691C48.9544 23.0609 48.2437 23.2294 47.5518 23.1969C47.5142 23.1898 47.4762 23.1846 47.438 23.1813C47.3958 23.1777 47.3535 23.1763 47.311 23.1773C47.1129 23.182 46.913 23.2373 46.73 23.3489C46.1697 23.6909 45.9827 24.4283 46.3123 24.996C46.642 25.5636 47.3635 25.7465 47.9239 25.4046C48.1214 25.284 48.2723 25.1143 48.3707 24.9203C48.3817 24.8985 48.392 24.8765 48.4017 24.8543C48.4115 24.8318 48.4207 24.8092 48.429 24.7862C48.7295 24.129 49.2199 23.5522 49.8766 23.1515C49.924 23.1226 49.9718 23.0948 50.0199 23.0684C50.1538 22.9866 50.1985 22.8103 50.1197 22.6746C50.046 22.5476 49.8903 22.5012 49.7608 22.5627Z" fill="url(#paint25_linear_1115_130374)"/>
<rect x="77.1177" y="17.9531" width="29.906" height="29.906" rx="14.953" transform="rotate(-3.68175 77.1177 17.9531)" fill="#329DCE"/>
<circle cx="93.0002" cy="31.9153" r="12.7582" transform="rotate(-17.9115 93.0002 31.9153)" fill="url(#paint26_linear_1115_130374)"/>
<path d="M92.5084 25.9852C88.9705 25.8356 83.6567 25.1899 83.6567 25.1899C83.3004 25.2088 83.3589 25.5466 83.3589 25.5466C83.674 26.8787 85.1632 28.7301 85.7343 29.0688C86.3033 29.4083 93.1831 29.3296 93.1831 29.3296C93.1831 29.3296 88.0563 29.8978 86.7867 29.9326C85.515 29.9682 86.1169 30.5668 86.1169 30.5668C86.7789 31.8009 88.3783 32.929 89.3075 32.7836C90.2346 32.6388 93.9342 31.3821 93.9342 31.3821C93.9342 31.3821 93.2206 31.7089 92.0684 32.2644C91.216 32.676 90.1273 33.1851 89.8691 33.393C89.2633 33.8821 90.8005 34.561 90.8005 34.561C93.0979 35.6209 93.8576 34.7581 93.8576 34.7581C94.4799 34.3058 95.0136 33.9503 95.4717 33.6684L95.6959 36.4685L97.4637 35.8971L97.7598 40.1407L100.182 32.9767L97.9361 33.7027L98.1363 32.7298C98.146 32.7384 98.1502 32.7441 98.1502 32.7441C98.1502 32.7441 98.906 29.6343 99.0883 28.1133L99.0939 28.088L99.0918 28.0887C99.1222 27.8254 99.1363 27.612 99.1236 27.4729C98.9892 25.8431 96.0484 26.1342 92.5084 25.9852Z" fill="url(#paint27_linear_1115_130374)"/>
<defs>
<filter id="filter0_d_1115_130374" x="14" y="67" width="81" height="84.5" filterUnits="userSpaceOnUse" color-interpolation-filters="sRGB">
<feFlood flood-opacity="0" result="BackgroundImageFix"/>
<feColorMatrix in="SourceAlpha" type="matrix" values="0 0 0 0 0 0 0 0 0 0 0 0 0 0 0 0 0 0 127 0" result="hardAlpha"/>
<feOffset dy="4"/>
<feGaussianBlur stdDeviation="1"/>
<feComposite in2="hardAlpha" operator="out"/>
<feColorMatrix type="matrix" values="0 0 0 0 0 0 0 0 0 0 0 0 0 0 0 0 0 0 0.02 0"/>
<feBlend mode="normal" in2="BackgroundImageFix" result="effect1_dropShadow_1115_130374"/>
<feBlend mode="normal" in="SourceGraphic" in2="effect1_dropShadow_1115_130374" result="shape"/>
</filter>
<linearGradient id="paint0_linear_1115_130374" x1="35.9165" y1="53.6211" x2="35.9165" y2="78.0692" gradientUnits="userSpaceOnUse">
<stop stop-color="#2B3E61"/>
<stop offset="1" stop-color="#1A2337"/>
</linearGradient>
<linearGradient id="paint1_linear_1115_130374" x1="33.5457" y1="60.1078" x2="39.517" y2="71.0785" gradientUnits="userSpaceOnUse">
<stop stop-color="white"/>
<stop offset="1" stop-color="white" stop-opacity="0.63"/>
</linearGradient>
<linearGradient id="paint2_linear_1115_130374" x1="33.5457" y1="60.1078" x2="39.517" y2="71.0785" gradientUnits="userSpaceOnUse">
<stop stop-color="white"/>
<stop offset="1" stop-color="white" stop-opacity="0.63"/>
</linearGradient>
<linearGradient id="paint3_linear_1115_130374" x1="95.1014" y1="50.9219" x2="95.1014" y2="75.3404" gradientUnits="userSpaceOnUse">
<stop stop-color="#2B3E61"/>
<stop offset="1" stop-color="#1A2337"/>
</linearGradient>
<linearGradient id="paint4_linear_1115_130374" x1="95.1013" y1="54.7657" x2="97.2221" y2="71.4211" gradientUnits="userSpaceOnUse">
<stop stop-color="white"/>
<stop offset="1" stop-color="white" stop-opacity="0.63"/>
</linearGradient>
<linearGradient id="paint5_linear_1115_130374" x1="95.1013" y1="54.7657" x2="97.2221" y2="71.4211" gradientUnits="userSpaceOnUse">
<stop stop-color="white"/>
<stop offset="1" stop-color="white" stop-opacity="0.63"/>
</linearGradient>
<linearGradient id="paint6_linear_1115_130374" x1="95.1013" y1="54.7657" x2="97.2221" y2="71.4211" gradientUnits="userSpaceOnUse">
<stop stop-color="white"/>
<stop offset="1" stop-color="white" stop-opacity="0.63"/>
</linearGradient>
<linearGradient id="paint7_linear_1115_130374" x1="64.5628" y1="42.5829" x2="64.5628" y2="68.5214" gradientUnits="userSpaceOnUse">
<stop stop-color="#EDA021"/>
<stop offset="1" stop-color="#E09B27"/>
</linearGradient>
<linearGradient id="paint8_linear_1115_130374" x1="66.2158" y1="46.6886" x2="65.375" y2="64.1557" gradientUnits="userSpaceOnUse">
<stop stop-color="white"/>
<stop offset="1" stop-color="white" stop-opacity="0.63"/>
</linearGradient>
<linearGradient id="paint9_linear_1115_130374" x1="66.2158" y1="46.6886" x2="65.375" y2="64.1557" gradientUnits="userSpaceOnUse">
<stop stop-color="white"/>
<stop offset="1" stop-color="white" stop-opacity="0.63"/>
</linearGradient>
<linearGradient id="paint10_linear_1115_130374" x1="66.2158" y1="46.6886" x2="65.375" y2="64.1557" gradientUnits="userSpaceOnUse">
<stop stop-color="white"/>
<stop offset="1" stop-color="white" stop-opacity="0.63"/>
</linearGradient>
<linearGradient id="paint11_linear_1115_130374" x1="66.2158" y1="46.6886" x2="65.375" y2="64.1557" gradientUnits="userSpaceOnUse">
<stop stop-color="white"/>
<stop offset="1" stop-color="white" stop-opacity="0.63"/>
</linearGradient>
<linearGradient id="paint12_linear_1115_130374" x1="66.2158" y1="46.6886" x2="65.375" y2="64.1557" gradientUnits="userSpaceOnUse">
<stop stop-color="white"/>
<stop offset="1" stop-color="white" stop-opacity="0.63"/>
</linearGradient>
<linearGradient id="paint13_linear_1115_130374" x1="66.2158" y1="46.6886" x2="65.375" y2="64.1557" gradientUnits="userSpaceOnUse">
<stop stop-color="white"/>
<stop offset="1" stop-color="white" stop-opacity="0.63"/>
</linearGradient>
<linearGradient id="paint14_linear_1115_130374" x1="66.2158" y1="46.6886" x2="65.375" y2="64.1557" gradientUnits="userSpaceOnUse">
<stop stop-color="white"/>
<stop offset="1" stop-color="white" stop-opacity="0.63"/>
</linearGradient>
<linearGradient id="paint15_linear_1115_130374" x1="66.2158" y1="46.6886" x2="65.375" y2="64.1557" gradientUnits="userSpaceOnUse">
<stop stop-color="white"/>
<stop offset="1" stop-color="white" stop-opacity="0.63"/>
</linearGradient>
<linearGradient id="paint16_linear_1115_130374" x1="104.5" y1="106.617" x2="104.5" y2="149.617" gradientUnits="userSpaceOnUse">
<stop offset="0.296875" stop-color="#7ED0A8"/>
<stop offset="1" stop-color="#43AB79"/>
</linearGradient>
<linearGradient id="paint17_linear_1115_130374" x1="104.5" y1="109.852" x2="104.5" y2="146.381" gradientUnits="userSpaceOnUse">
<stop stop-color="#6ECD9F"/>
<stop offset="1" stop-color="#42A474"/>
</linearGradient>
<linearGradient id="paint18_linear_1115_130374" x1="104.5" y1="106.617" x2="104.5" y2="149.617" gradientUnits="userSpaceOnUse">
<stop offset="0.296875" stop-color="#7ED0A8"/>
<stop offset="1" stop-color="#43AB79"/>
</linearGradient>
<linearGradient id="paint19_linear_1115_130374" x1="103.433" y1="129.461" x2="129.456" y2="146.492" gradientUnits="userSpaceOnUse">
<stop stop-color="#0F1D37"/>
<stop offset="0.50536" stop-color="#404E68" stop-opacity="0"/>
<stop offset="1" stop-color="#999DA3" stop-opacity="0"/>
</linearGradient>
<linearGradient id="paint20_linear_1115_130374" x1="45.4421" y1="6.01563" x2="45.4421" y2="33.3188" gradientUnits="userSpaceOnUse">
<stop stop-color="#40A674"/>
<stop offset="1" stop-color="#4BB682"/>
</linearGradient>
<linearGradient id="paint21_linear_1115_130374" x1="48.2987" y1="10.844" x2="45.847" y2="29.2788" gradientUnits="userSpaceOnUse">
<stop stop-color="white"/>
<stop offset="1" stop-color="white" stop-opacity="0.63"/>
</linearGradient>
<linearGradient id="paint22_linear_1115_130374" x1="48.2987" y1="10.844" x2="45.847" y2="29.2788" gradientUnits="userSpaceOnUse">
<stop stop-color="white"/>
<stop offset="1" stop-color="white" stop-opacity="0.63"/>
</linearGradient>
<linearGradient id="paint23_linear_1115_130374" x1="48.2987" y1="10.844" x2="45.847" y2="29.2788" gradientUnits="userSpaceOnUse">
<stop stop-color="white"/>
<stop offset="1" stop-color="white" stop-opacity="0.63"/>
</linearGradient>
<linearGradient id="paint24_linear_1115_130374" x1="48.2987" y1="10.844" x2="45.847" y2="29.2788" gradientUnits="userSpaceOnUse">
<stop stop-color="white"/>
<stop offset="1" stop-color="white" stop-opacity="0.63"/>
</linearGradient>
<linearGradient id="paint25_linear_1115_130374" x1="48.2987" y1="10.844" x2="45.847" y2="29.2788" gradientUnits="userSpaceOnUse">
<stop stop-color="white"/>
<stop offset="1" stop-color="white" stop-opacity="0.63"/>
</linearGradient>
<linearGradient id="paint26_linear_1115_130374" x1="93.0002" y1="19.1571" x2="93.0002" y2="44.6736" gradientUnits="userSpaceOnUse">
<stop stop-color="#3094C2"/>
<stop offset="1" stop-color="#2487B5"/>
</linearGradient>
<linearGradient id="paint27_linear_1115_130374" x1="89.9612" y1="22.5126" x2="99.1703" y2="39.9163" gradientUnits="userSpaceOnUse">
<stop stop-color="white"/>
<stop offset="1" stop-color="white" stop-opacity="0.63"/>
</linearGradient>
</defs>
</svg>
