<svg xmlns="http://www.w3.org/2000/svg" width="24" height="24" viewBox="0 0 24 24">
    <g fill="#FFF" fill-rule="evenodd">
        <path d="M6.655 11.21h4.009c.373 0 .7-.07.979-.21.28-.14.51-.33.687-.57.18-.241.311-.516.397-.827a3.676 3.676 0 0 0 0-1.932 2.346 2.346 0 0 0-.397-.815 1.943 1.943 0 0 0-.687-.56 2.16 2.16 0 0 0-.979-.209H6.655v5.123zm4.009-8.173c.824 0 1.55.14 2.18.42.629.279 1.153.667 1.573 1.163.42.497.737 1.08.955 1.746A6.86 6.86 0 0 1 15.7 8.51a7.41 7.41 0 0 1-.303 2.13 4.954 4.954 0 0 1-.933 1.77c-.419.504-.944.908-1.573 1.21-.63.303-1.371.454-2.226.454H6.655v6.791H3.602V3.037h7.062zM17.35 13.467V3.037h3.052v11.93z" opacity=".9"/>
        <path d="M20.402 18.095v2.77l-3.053-.001v-4.268z" opacity=".4"/>
    </g>
</svg>
