<svg width="40" height="40" viewBox="0 0 40 40" fill="none" xmlns="http://www.w3.org/2000/svg">
<g clip-path="url(#clip0_1316_134671)">
<path d="M38.5859 14.6875C37.8049 14.6875 37.1718 15.3206 37.1718 16.1016C37.1718 27.7384 27.7384 37.1718 16.1016 37.1718C15.3206 37.1718 14.6875 37.8049 14.6875 38.5859C14.6875 39.3669 15.3206 40 16.1016 40C29.3003 40 40 29.3003 40 16.1016C40 15.3206 39.3669 14.6875 38.5859 14.6875Z" fill="#005EB8"/>
<path d="M30.0509 23.75C31.4108 21.5316 32.726 18.5736 32.4672 14.4326C31.9312 5.85456 24.1618 -0.652893 16.8254 0.0523325C13.9533 0.32842 11.0043 2.6695 11.2663 6.86281C11.3801 8.68506 12.272 9.76056 13.7215 10.5874C15.1011 11.3745 16.8736 11.8731 18.883 12.4382C21.3101 13.1209 24.1256 13.8877 26.2895 15.4823C28.8828 17.3935 30.6557 19.6089 30.0509 23.75Z" fill="#003B5C"/>
<path d="M2.44913 8.75C1.08923 10.9684 -0.225941 13.9264 0.0328082 18.0674C0.568795 26.6454 8.33819 33.1529 15.6746 32.4477C18.5467 32.1716 21.4957 29.8305 21.2337 25.6372C21.1199 23.8149 20.2279 22.7394 18.7785 21.9126C17.3989 21.1255 15.6264 20.6269 13.617 20.0618C11.1899 19.3791 8.37444 18.6123 6.21059 17.0177C3.61717 15.1065 1.84433 12.8911 2.44913 8.75Z" fill="#005EB8"/>
</g>
<defs>
<clipPath id="clip0_1316_134671">
<rect width="40" height="40" fill="white"/>
</clipPath>
</defs>
</svg>
