<svg width="16" height="16" viewBox="0 0 16 16" fill="none" xmlns="http://www.w3.org/2000/svg">
<g clip-path="url(#clip0_2486_4637)">
<path fill-rule="evenodd" clip-rule="evenodd" d="M1.33333 0.5C0.873096 0.5 0.5 0.873096 0.5 1.33333V14.6667C0.5 15.1269 0.873096 15.5 1.33333 15.5H14.6667C15.1269 15.5 15.5 15.1269 15.5 14.6667V1.33333C15.5 0.873096 15.1269 0.5 14.6667 0.5H1.33333ZM13.8333 2.16667H6.01029V13.8333H13.8333V2.16667Z" fill="#B6C2CD"/>
<path fill-rule="evenodd" clip-rule="evenodd" d="M11.4242 5.01141C11.2292 4.81781 10.9145 4.81781 10.7196 5.01141L8.43208 7.28273C8.03353 7.67846 8.03353 8.32154 8.43208 8.71727L10.7196 10.9886C10.9145 11.1822 11.2292 11.1822 11.4242 10.9886L11.9109 10.5053C12.0054 10.4114 12.0586 10.2837 12.0586 10.1505C12.0586 10.0173 12.0054 9.88957 11.9109 9.7957L10.1024 8L11.9109 6.2043C12.0054 6.11043 12.0586 5.98272 12.0586 5.8495C12.0586 5.71627 12.0054 5.58856 11.9109 5.49469L11.4242 5.01141Z" fill="#324558"/>
</g>
<defs>
<clipPath id="clip0_2486_4637">
<rect width="16" height="16" fill="white"/>
</clipPath>
</defs>
</svg>
