<svg width="17" height="16" viewBox="0 0 17 16" fill="none" xmlns="http://www.w3.org/2000/svg">
<path fill-rule="evenodd" clip-rule="evenodd" d="M3.40477 2.66666C2.85249 2.66666 2.40477 3.11437 2.40477 3.66666V12.3333C2.40477 12.8856 2.85248 13.3333 3.40477 13.3333H13.5946C14.1469 13.3333 14.5946 12.8856 14.5946 12.3333V3.66666C14.5946 3.11437 14.1469 2.66666 13.5946 2.66666H3.40477ZM13.0102 5.28856H9.01122V6.28856H13.0102V5.28856ZM13.0102 7.49999H9.01122V8.49999H13.0102V7.49999ZM9.01122 9.71142H13.0102V10.7114H9.01122V9.71142Z" fill="#B6C2CD"/>
<path d="M4.87361 9.07243V11.5104L6.26325 10.8278L7.65289 11.5104V9.01758C6.81108 9.559 5.73613 9.58022 4.87361 9.07243Z" fill="#324558"/>
<path d="M6.21448 4.49515C4.98584 4.49515 3.98984 5.49115 3.98984 6.71979C3.98984 7.94842 4.98584 8.94443 6.21448 8.94443C7.44311 8.94443 8.43912 7.94842 8.43912 6.71979C8.43246 5.49392 7.44034 4.50181 6.21448 4.49515Z" fill="#324558"/>
</svg>
