<svg xmlns="http://www.w3.org/2000/svg" width="40" height="40" viewBox="0 0 40 40">
    <path fill="#242E42" fill-rule="nonzero" d="M26.386 16.953c.349.932.582 1.863.582 2.911 0 3.842-3.144 6.985-6.986 6.985-3.027 0-5.588-1.862-6.52-4.656L6.71 24.055c1.746 5.705 6.985 9.78 13.272 9.78 7.684 0 13.971-6.287 13.971-13.971 0-2.328-.582-4.54-1.513-6.403l-6.054 3.492zm-5.24-3.958c1.514.233 2.911.931 3.843 2.096l6.17-3.493A13.933 13.933 0 0 0 21.147 6.01v6.985zm-8.15 6.985c0-.116 0-.116 0 0 0-3.492 2.562-6.403 5.822-6.985V6.01C11.6 6.592 6.011 12.53 6.011 19.864c0 .699.117 1.28.117 1.863l6.869-1.747z"/>
</svg>
