<svg viewBox="0 0 48 48" fill="none" xmlns="http://www.w3.org/2000/svg">
<path fill-rule="evenodd" clip-rule="evenodd" d="M18 21V25L28.292 35.292L32.292 31.292L22 21H18ZM35.708 36.122L33.122 38.708C32.73 39.098 32.098 39.098 31.708 38.708L29.708 36.708L33.708 32.708L35.708 34.708C36.098 35.098 36.098 35.732 35.708 36.122Z" fill="#324558"/>
<path fill-rule="evenodd" clip-rule="evenodd" d="M6 11V27H14.344L14 26.656V17H23.656L33.656 27H42V11H6Z" fill="#B6C2CD"/>
<path d="M40 9H8C5.794 9 4 10.794 4 13V25C4 27.206 5.794 29 8 29H16.344L14 26.656V25H8V13H40V25H31.656L35.656 29H40C42.206 29 44 27.206 44 25V13C44 10.794 42.206 9 40 9Z" fill="#324558"/>
</svg>
