<svg width="41" height="40" viewBox="0 0 41 40" fill="none" xmlns="http://www.w3.org/2000/svg">
<path d="M12.6644 19.6335C12.1542 19.3439 11.5293 19.3439 11.0191 19.6335L4.97741 23.0626C4.45575 23.3586 4.13342 23.9122 4.13342 24.512V31.3211C4.13342 31.921 4.45575 32.4745 4.97741 32.7706L11.0191 36.1997C11.5293 36.4892 12.1542 36.4892 12.6644 36.1997L18.7061 32.7706C19.2278 32.4745 19.5501 31.921 19.5501 31.3211V24.512C19.5501 23.9122 19.2278 23.3586 18.7061 23.0626L12.6644 19.6335Z" fill="#CCD3DB"/>
<path d="M30.5811 19.6335C30.0709 19.3439 29.446 19.3439 28.9357 19.6335L22.8941 23.0626C22.3724 23.3586 22.0501 23.9122 22.0501 24.512V31.3211C22.0501 31.921 22.3724 32.4745 22.8941 32.7706L28.9357 36.1997C29.446 36.4892 30.0709 36.4892 30.5811 36.1997L36.6228 32.7706C37.1444 32.4745 37.4668 31.921 37.4668 31.3211V24.512C37.4668 23.9122 37.1444 23.3586 36.6228 23.0626L30.5811 19.6335Z" fill="#CCD3DB"/>
<path d="M19.9794 3.79769C20.4886 3.50958 21.1116 3.50958 21.6208 3.79769L27.8708 7.33387C28.3936 7.62965 28.7168 8.18382 28.7168 8.78445V15.7989C28.7168 16.3995 28.3936 16.9537 27.8708 17.2495L21.6208 20.7856C21.1116 21.0738 20.4886 21.0738 19.9794 20.7856L13.7294 17.2495C13.2066 16.9537 12.8834 16.3995 12.8834 15.7989V8.78445C12.8834 8.18382 13.2066 7.62965 13.7294 7.33387L19.9794 3.79769Z" fill="#36435C"/>
</svg>
