<svg xmlns="http://www.w3.org/2000/svg" width="133" height="103" viewBox="0 0 133 103">
    <g fill="none" fill-rule="evenodd">
        <path fill="#EFF4F9" d="M29.444 96.296h80.747s26.531-29.761 7.383-36.682c-19.149-6.921-13.381-10.843-2.077-31.376C126.802 7.705 112.037-.14 99.81 1.015c-12.227 1.153-22.147 6.69-33.452 25.839-11.305 19.148-19.38 18.38-31.145 18.302-11.766-.077-45.91 17.918-5.768 51.14z"/>
        <path fill="#36435C" d="M32.748 50.921s6.674-8.544 1.78-15.682c-4.895-7.137-4.038-7.283-4.14-11.796-.102-4.514-.98-9.192-4.697-10.714-3.716-1.523-1.5-4.764-6.785-5.215 0 0 2.872 7.191 1.585 10.755-1.287 3.563-1.132 10.178 1.168 13.084 2.3 2.906 5.596 7.068 4.993 11.962-.602 4.894 3.956 7.58 6.096 7.606z"/>
        <path fill="#FFF" d="M31.928 53.159c.539-2.002.798-4.084.673-6.15a16.267 16.267 0 0 0-.468-3.057l-.095-.375c-.03-.125-.075-.246-.113-.37l-.116-.368-.059-.185c-.02-.061-.045-.12-.068-.18l-.278-.722a6.78 6.78 0 0 0-.33-.693c-.123-.224-.262-.442-.398-.663a51.449 51.449 0 0 1-.403-.668c-.266-.446-.52-.9-.773-1.353a578.5 578.5 0 0 1-1.512-2.72c-.498-.91-.99-1.825-1.458-2.753a29.613 29.613 0 0 1-1.276-2.85l-.135-.368c-.045-.122-.082-.248-.123-.372-.04-.125-.083-.248-.118-.374l-.104-.378-.052-.189-.044-.191-.086-.383c-.027-.128-.046-.258-.07-.386-.021-.13-.048-.258-.061-.388a11.02 11.02 0 0 1-.011-3.134 10.38 10.38 0 0 1 .362-1.528c.155-.5.338-.986.482-1.478.073-.245.133-.494.18-.745.042-.25.068-.503.075-.757a5.492 5.492 0 0 0-.181-1.514c-.237-1-.719-1.922-1.236-2.816-.52-.894-1.084-1.764-1.646-2.635-.564-.87-1.125-1.744-1.698-2.607a125.256 125.256 0 0 0-1.758-2.567 89.465 89.465 0 0 1 1.812 2.53c.59.854 1.166 1.716 1.745 2.577.288.432.573.865.855 1.3.282.436.56.875.825 1.323.266.447.521.901.745 1.374.228.472.409.966.54 1.474a5.694 5.694 0 0 1 .204 1.564c-.005.265-.03.53-.074.79a7.487 7.487 0 0 1-.182.768c-.146.504-.328.99-.478 1.483-.154.49-.27.99-.35 1.497-.149 1.013-.12 2.05.023 3.067.14 1.018.43 2.01.79 2.975.369.965.788 1.91 1.256 2.831.462.926.95 1.84 1.445 2.751.496.91.997 1.818 1.501 2.725a72.842 72.842 0 0 0 1.158 2.02c.133.223.27.444.396.676.123.232.234.47.33.714l.274.734c.022.061.047.121.067.183l.057.188.114.374c.036.125.08.248.11.375l.091.38a16.25 16.25 0 0 1 .438 3.088 17.965 17.965 0 0 1-.144 3.113l-.053.386c-.018.128-.043.256-.064.384-.04.256-.094.51-.147.765a20.837 20.837 0 0 1-.386 1.508z"/>
        <path fill="#7EB8DC" d="M40.931 62.234s1.194-7.484-6.068-12.067c-7.262-4.584-12.217-6.963-13.45-13.316-1.231-6.353-3.261-10.12-7.038-11.98-3.777-1.861-3.577-3.344-6.488-4.757-2.91-1.413-7.983-2.077-7.983-2.077s8.385 6.114 8.992 12.326c.606 6.211 2.565 10.291 6.448 13.394 3.883 3.104 5.625 11.39 13.603 13.235 7.979 1.844 11.984 5.242 11.984 5.242z"/>
        <path fill="#FFF" d="M41.142 63.306a17.599 17.599 0 0 0-1.405-3.764 14.403 14.403 0 0 0-2.307-3.276c-.236-.238-.466-.48-.715-.705a11.98 11.98 0 0 0-.767-.646 18.42 18.42 0 0 0-1.667-1.121l-3.44-2.098c-1.145-.7-2.29-1.402-3.427-2.12a99.845 99.845 0 0 1-1.696-1.09 31.676 31.676 0 0 1-1.656-1.155 20.48 20.48 0 0 1-2.92-2.79c-.114-.124-.216-.259-.323-.388l-.319-.393-.303-.404c-.102-.134-.204-.268-.298-.408-.193-.276-.388-.55-.568-.836-.091-.141-.186-.28-.274-.424l-.262-.432c-.696-1.153-1.299-2.359-1.88-3.57-.572-1.215-1.159-2.428-1.616-3.697a20.915 20.915 0 0 1-.596-1.93c-.17-.652-.31-1.31-.491-1.953-.354-1.289-.945-2.504-1.68-3.62a15.867 15.867 0 0 0-2.614-3.032 21.124 21.124 0 0 0-3.23-2.383l-.428-.265-.44-.244-.44-.244c-.147-.08-.291-.166-.443-.237l-.903-.445-.226-.111-.23-.102-.46-.202-.461-.203c-.077-.034-.153-.069-.231-.1l-.234-.092-.938-.367c-.31-.128-.632-.229-.948-.34l-.952-.33.956.32c.317.108.639.206.95.331l.943.358.236.089c.078.031.154.065.232.098l.463.198.463.199.232.1.227.108.909.437c.153.07.298.154.447.233l.443.24.443.24.432.262c1.16.685 2.25 1.48 3.258 2.374a15.984 15.984 0 0 1 2.65 3.04c.749 1.12 1.353 2.347 1.712 3.651.184.65.324 1.307.495 1.954a21 21 0 0 0 .597 1.916c.455 1.26 1.042 2.467 1.616 3.68.583 1.209 1.185 2.408 1.879 3.555l.26.429c.088.143.181.282.271.423.178.283.372.556.563.83.094.14.195.273.295.407l.301.401.315.39c.107.13.208.263.32.387a20.337 20.337 0 0 0 2.892 2.772c.532.405 1.087.782 1.646 1.153.558.37 1.123.733 1.69 1.092 1.136.717 2.277 1.425 3.418 2.132l3.428 2.117c.577.348 1.134.728 1.669 1.136.266.208.522.426.77.656.248.227.48.472.714.714a14.462 14.462 0 0 1 2.285 3.313 17.614 17.614 0 0 1 1.368 3.782z"/>
        <path fill="#36435C" d="M25.905 58.347c-1.35-2.695-4.574-5.345-9.63-5.405-5.057-.06-7.739-3.515-9.104-6.487-1.365-2.973-5.29-6.676-5.29-6.676s.05.013.15.033c.019.005.04.009.063.013.477.097 1.769.325 3.983.471 2.876.19 4.628 3.323 7.193 3.587 2.564.262 4.655 1.065 6.816 2.569 2.16 1.504 3.785 2.224 8.22 2.12 4.436-.104 9.053 7.563 9.053 7.563a8.24 8.24 0 0 1-.063.767c-.888 6.805-10.046 4.132-11.39 1.445z"/>
        <path fill="#FFF" d="M37.297 56.902a40.89 40.89 0 0 1-3.678-.98 36.367 36.367 0 0 1-7.202-3.202c-.76-.433-1.52-.868-2.304-1.252a27.008 27.008 0 0 0-2.405-1.04 25.269 25.269 0 0 0-2.487-.816 20.114 20.114 0 0 0-1.278-.281c-.428-.081-.864-.158-1.291-.276a9.686 9.686 0 0 1-1.249-.436c-.204-.084-.403-.178-.604-.268l-.591-.29a14.841 14.841 0 0 1-2.228-1.414c-.7-.533-1.357-1.114-2.03-1.672a39.096 39.096 0 0 0-4.245-3.081A42.696 42.696 0 0 0 2.03 39.81c.02.005.04.01.064.014a42.265 42.265 0 0 1 3.653 2c1.494.92 2.926 1.939 4.283 3.052l1.014.836.507.416c.171.136.342.273.516.404.694.529 1.433.995 2.209 1.393l.588.287c.2.089.397.181.598.263.4.17.812.313 1.232.427.418.113.848.188 1.279.268.431.08.862.172 1.29.281.847.233 1.682.509 2.502.828.82.313 1.627.661 2.414 1.053.789.389 1.55.827 2.309 1.263.76.436 1.525.86 2.307 1.25a36.612 36.612 0 0 0 4.849 1.999c1.2.403 2.419.748 3.655 1.034a.192.192 0 0 1-.002.023z"/>
        <g>
            <path fill="#3B747A" d="M36.776 22.778h51.878a4.08 4.08 0 0 1 4.08 4.08v39.134a4.08 4.08 0 0 1-4.08 4.08H36.776a4.08 4.08 0 0 1-4.08-4.08V26.858a4.08 4.08 0 0 1 4.08-4.08z"/>
            <path fill="#FFD5C0" d="M68.036 17.68l-6.27 4.65s-.305.62-.083.969c.246.387 1.01.156 1.01.156l5.816-3.065c-.21-.687.783-1.953-.473-2.71z"/>
            <path fill="#404884" d="M67.74 17.818s.344 1.096.682 2.66l5.902-4.581s2.08-3.386.047-3.947c-1.36-.377-6.632 5.868-6.632 5.868z"/>
            <path fill="#FFD5C0" d="M68.147 7.447s-.095 4.319 2.11 3.34c0 0 1.49.571 1.72 3.416.218 2.691 5.024 1.11 4.771-.55-.253-1.66-2.277-2.098-3.58-2.828-1.304-.73-1.307-1.569-1.307-1.569s.296-1.547-.669-.82c0 0-1.62.867-3.045-.99z"/>
            <path fill="#353B6E" d="M71.733 13.075s-.791 1.836-1.307 3.324c-.516 1.488 2.119 3.084 2.019 4.31-.1 1.226-.29 10.563 1.295 23.549 0 0 6.859 1.84 12.199-2.834 0 0-2.48-15.65-7.874-20.332 0 0-.623-6.024-1.52-8.317-1.288-3.288-4.812.3-4.812.3z"/>
            <path fill="#C9E3F4" d="M28.081 69.087a4.062 4.062 0 0 0 4.061 4.062H84.06a4.062 4.062 0 0 0 4.062-4.062V30.852H28.08v38.235z"/>
            <path fill="#A7CDF2" d="M84.06 25.854H32.141a4.06 4.06 0 0 0-4.06 4.061v.938H88.12v-.938a4.062 4.062 0 0 0-4.06-4.061z"/>
            <g fill="#FFF">
                <path d="M32.463 29.63a.945.945 0 0 1-.687-.297 1.046 1.046 0 0 1 0-1.434.944.944 0 0 1 1.374 0c.38.403.38 1.032 0 1.434a.946.946 0 0 1-.687.297zM35.154 29.63a.945.945 0 0 1-.687-.297 1.046 1.046 0 0 1 0-1.434.944.944 0 0 1 1.375 0c.38.403.38 1.032 0 1.434a.946.946 0 0 1-.688.297zM37.846 29.63a.945.945 0 0 1-.687-.297 1.046 1.046 0 0 1 0-1.434.944.944 0 0 1 1.374 0c.38.403.38 1.032 0 1.434a.946.946 0 0 1-.687.297z"/>
            </g>
            <g fill="#A7CDF2">
                <path d="M31.491 33.39h17.021v12.766h-17.02zM31.597 50.001H81.66v1.077H31.597zM53.745 42.695H81.66v1.077H53.745zM53.745 38.081H81.66v1.077H53.745zM53.745 33.467H81.66v1.077H53.745zM31.597 53.77H81.66v1.076H31.597zM31.597 57.537H81.66v1.077H31.597zM31.597 61.305H81.66v1.077H31.597zM31.597 65.074H81.66v1.077H31.597z"/>
            </g>
            <path fill="#FFD5C0" d="M69.97 19.513l-4.414 5.851s.022.449.29.683c.346.301.956.405.956.405l5.143-6.062s-.294-.134-1.976-.877z"/>
            <path fill="#404884" d="M69.479 20.037s.35.165 2.202 1.057l3.058-4.65c.588-1.013.666-2.083.308-3.207-.25-.787-1.312-.996-1.885-.686-1.201.649-3.683 7.486-3.683 7.486z"/>
            <path fill="#36435C" d="M68.294 9.22s-1.866-.7-.622-2.1c0 0 .234-3.578 4.356-2.022 1.867.778 1.867 2.644 2.956 3.189 1.089.544 3.655.233 4.2 1.478.544 1.244.778 3.81 3.111 4.51 2.334.7 2.645 5.057-.466 4.746-3.112-.311-5.056.155-5.134-2.334-.078-2.49-.389-4.045-1.633-4.045-1.245 0-2.334-.233-2.723-1.478-.389-1.244-1.322-2.333-2.1-2.255-.778.078-2.1-1.4-2.1-1.4l.155 1.711z"/>
            <g transform="translate(52.3 23.055)">
                <ellipse cx="6.894" cy="7.194" fill="#F5A623" rx="6.894" ry="7.194"/>
                <path fill="#FAFCFB" d="M6.894 12.95a5.365 5.365 0 0 1-3.9-1.687 5.934 5.934 0 0 1 0-8.139 5.353 5.353 0 0 1 7.8 0 5.934 5.934 0 0 1 0 8.14 5.366 5.366 0 0 1-3.9 1.685z"/>
                <path fill="#F5A623" d="M6.894 11.51a4.024 4.024 0 0 1-2.925-1.264 4.45 4.45 0 0 1 0-6.104 4.015 4.015 0 0 1 5.85 0 4.45 4.45 0 0 1 0 6.104 4.024 4.024 0 0 1-2.925 1.264z"/>
                <path fill="#FAFCFB" d="M6.894 10.072a2.682 2.682 0 0 1-1.95-.843 2.967 2.967 0 0 1 0-4.07 2.676 2.676 0 0 1 3.9 0 2.967 2.967 0 0 1 0 4.07 2.682 2.682 0 0 1-1.95.843z"/>
                <path fill="#FF73B7" d="M6.894 8.356c-.298 0-.583-.123-.787-.34a1.198 1.198 0 0 1 0-1.643 1.08 1.08 0 0 1 1.574 0 1.198 1.198 0 0 1 0 1.643c-.204.217-.49.34-.787.34z"/>
            </g>
            <path fill="#FFD5C0" d="M61.839 22.287l-2.256.856s.311.466.933.155c.623-.31 1.011.623 1.867-.077.856-.7-.544-.934-.544-.934z"/>
            <g fill="#FFD5C0">
                <path d="M65.691 25.27l-1.4.855s-.078 1.478 1.478 1.244l1.507-1.43s-.496-.98-1.585-.67z"/>
                <path d="M64.291 26.125l-1.51 1.459a.215.215 0 0 0-.09.306c.205.332.325.391 1.29.335 1.321-.078 1.944-1.011 1.944-1.011s-.7-1.322-1.634-1.09z"/>
            </g>
            <path fill="#FFD5C0" d="M65.613 25.347l-2.566.389s0 .467.622.389a6.58 6.58 0 0 1 1.322 0l.622-.778z"/>
        </g>
        <g>
            <g transform="translate(-4.953 -15.943)">
                <path fill="#AC7DFD" d="M50.716 59.208a.784.784 0 0 1 1.07.29l7.846 13.657a.784.784 0 1 1-1.36.781l-7.845-13.658a.784.784 0 0 1 .289-1.07z"/>
                <path fill="#404884" d="M50.444 59.364a.784.784 0 0 1 1.07.29L59.36 73.31a.784.784 0 0 1-1.359.781l-7.846-13.658a.784.784 0 0 1 .29-1.07z"/>
                <ellipse cx="50.204" cy="58.591" fill="#F5A623" rx="6.133" ry="6.4" transform="rotate(-29.876 50.204 58.591)"/>
                <ellipse cx="50.204" cy="58.591" fill="#FAFCFB" rx="5.175" ry="5.401" transform="rotate(-29.876 50.204 58.591)"/>
                <path fill="#AC7DFD" d="M46.433 61.032a.274.274 0 0 1-.238-.137c-1.322-2.302-.6-5.207 1.611-6.477a.274.274 0 0 1 .274.475c-1.949 1.12-2.58 3.69-1.41 5.728a.274.274 0 0 1-.237.411z"/>
            </g>
            <path fill="#353B6E" d="M60.226 52.76s-1.61-1.71-.402-2.616c0 0 3.622-2.113 4.93 1.107 1.308 3.22-1.861 3.068-1.987 3.446-.125.377-2.54-1.937-2.54-1.937z"/>
            <path fill="#FFD5C0" d="M60.343 51.41s-1.613 4.533.71 4.216c1.363-.186 2.037-1.44 2.037-1.44s.637.122.787-.657c.1-.52-.59-.996-.833-.058 0 0-.275.003-.51-.614-.148-.386-.2-.885-.742-.766-.542.12-1.391-.39-1.45-.68z"/>
            <path fill="#FFD5C0" d="M60.664 55.416s1.246 1.788 1.005 2.822c-.24 1.033 3.864 1.449 2.975-.452-.888-1.9-1.547-2.332-2.334-4.127-.786-1.795-1.646 1.757-1.646 1.757zM49.558 49.4s-1.332.078-.627 1.802l1.254 1.253 1.097-.313-1.724-2.743z"/>
            <path fill="#404884" d="M75.71 95.345c.157.5.337 1.634-.805 2.562-1.514 1.23-.985 2.498-.985 2.498l5.103-2.643s-.612-2.81-1.575-3.384l-.026-.083c-.343-1.032-3.835-11.36-7.355-13.223 0 0 .684-8.477-3.208-12.63l-5.997 1.05s4.435 11.185 5.741 13.326c1.307 2.141 8.682 10.631 9.007 12.268.04.084.073.17.1.259z"/>
            <path fill="#808BD1" d="M54.295 102.243h5.851s.94-2.716.418-3.71l.036-.156c.32-1.394 2.586-11.688.59-15.046 0 0 2.665-2.298 5.12-14.576l-6.79-.026s-2.195 11.781-2.195 14.289c0 2.508 1.854 13.674 1.28 15.242 0 0-.005.043-.019.117-.083.447-.493 2.023-2.15 2.247-1.932.26-2.141 1.619-2.141 1.619z"/>
            <path fill="#329DCE" d="M49.645 52.116s4.676 5.642 4.963 5.825c.287.183 4.833 2.298 4.833 2.298l.003.015c.053.282.872 4.864-.343 10.278 0 0 4.798 1.123 9.143-.262 0 0-.69-2.743-.82-4.806-.234-3.762.393-7.21-3.098-7.94l-4.158-.573-4.698-1.36-4.78-4.65-1.045 1.175z"/>
            <path fill="#353B6E" d="M54.295 102.243h5.851s.94-2.716.418-3.71l-1.978-.156c-.083.447-.493 2.023-2.15 2.247-1.932.26-2.141 1.619-2.141 1.619zM73.92 100.405l5.103-2.643s-.612-2.81-1.575-3.385l-1.739.967c.158.5.338 1.635-.804 2.563-1.514 1.23-.985 2.498-.985 2.498z"/>
        </g>
        <g>
            <path fill="#353B6E" d="M116.808 88.253s-6.357-3.797-15.54 0l7.681 9.27 7.859-9.27z"/>
            <path fill="#36435C" d="M110.406 86.707c.655-7.538 5.548-12.686 9.801-18.365 2.744-3.664 6.338-9.043 9.801-16.335 3.547 6.795 2.983 10.272 1.854 12.185-1.648 2.792-4.55 2.343-5.916 5.297-1.987 4.302 2.396 9.086.53 10.86-1.582 1.506-5.371-1.332-7.152.442-1.365 1.36.026 3.861-1.5 5.033-1.165.894-2.347-.275-3.974.53-2.362 1.168-2.476 4.922-3.002 4.856-.388-.048-.647-2.132-.442-4.503z"/>
            <path fill="#808BD1" d="M109.188 92.137a68.108 68.108 0 0 0 3.007-49.586c1.375 6.121.279 9.855-.97 12.13-1.5 2.729-3.084 3.114-3.71 5.763-.943 3.999 2.116 5.46 1.885 9.889-.232 4.486-3.488 5.292-4.351 9.596-.515 2.568-.208 6.536 4.139 12.208z"/>
            <path fill="#7EB8DC" d="M107.934 91.122a60.988 60.988 0 0 0-6.622-39.203c1.327 4.872.788 8.31 0 10.595-1.26 3.653-3.292 4.762-2.914 7.594.39 2.918 2.755 3.29 3.179 6.887.297 2.522-.777 3.084 0 4.856.887 2.025 2.764 2.378 3.002 4.415.122 1.044-.325 1.348-.088 2.208.395 1.433 2.086 2.213 3.443 2.648z"/>
            <path fill="#404884" d="M116.808 88.252s-6.18 3.18-15.54 0l1.766 14.658h11.302l2.472-14.658z"/>
        </g>
        <g fill="#36435C">
            <path d="M132.449 32.932h-13.006s1.036-7.41 3.834-2.643c0 0 2.384-6.529 4.871.363 0 0 4.3-1.451 4.3 2.28z"/>
        </g>
        <g fill="#7EB8DC">
            <path d="M58.642 8.067h-17.43s1.39-9.93 5.139-3.541c0 0 3.194-8.75 6.527.486 0 0 5.764-1.945 5.764 3.055z"/>
        </g>
    </g>
</svg>
