<svg xmlns="http://www.w3.org/2000/svg" width="41" height="40" viewBox="0 0 41 40">
    <g fill="none">
        <path fill="#912626" d="M30.746 21.054c-1.707.89-10.554 4.527-12.437 5.51-1.884.981-2.93.972-4.418.26-1.488-.71-10.902-4.514-12.598-5.324C.446 21.095 0 20.753 0 20.43v-3.235s12.256-2.668 14.235-3.378c1.978-.71 2.665-.735 4.349-.118 1.684.617 11.752 2.433 13.416 3.043v3.188c0 .32-.384.67-1.254 1.124" transform="translate(4.5 6)"/>
        <path fill="#C6302B" d="M30.746 17.838c-1.708.89-10.554 4.528-12.438 5.51-1.883.982-2.93.972-4.417.26-1.488-.71-10.902-4.513-12.597-5.323-1.696-.811-1.732-1.369-.066-2.021 1.666-.653 11.028-4.326 13.007-5.036 1.979-.71 2.665-.735 4.349-.118 1.683.617 10.477 4.117 12.14 4.726 1.665.61 1.73 1.112.022 2.002" transform="translate(4.5 6)"/>
        <path fill="#912626" d="M30.746 15.82c-1.707.89-10.554 4.528-12.437 5.51-1.884.982-2.93.972-4.418.26-1.488-.71-10.902-4.513-12.598-5.324C.446 15.861 0 15.52 0 15.196v-3.234s12.256-2.668 14.235-3.378c1.978-.71 2.665-.736 4.349-.119 1.684.617 11.752 2.433 13.416 3.043v3.189c0 .32-.384.67-1.254 1.123" transform="translate(4.5 6)"/>
        <path fill="#C6302B" d="M30.746 12.605c-1.708.89-10.554 4.527-12.438 5.51-1.883.981-2.93.971-4.417.26-1.488-.71-10.902-4.514-12.597-5.324-1.696-.81-1.732-1.369-.066-2.021 1.666-.652 11.028-4.325 13.007-5.035 1.979-.71 2.665-.736 4.349-.119 1.683.617 10.477 4.117 12.14 4.726 1.665.61 1.73 1.113.022 2.003" transform="translate(4.5 6)"/>
        <path fill="#912626" d="M30.746 10.393c-1.707.89-10.554 4.527-12.437 5.51-1.884.981-2.93.972-4.418.26-1.488-.71-10.902-4.514-12.598-5.324C.446 10.434 0 10.092 0 9.769V6.534s12.256-2.668 14.235-3.377c1.978-.71 2.665-.736 4.349-.12C20.268 3.656 30.336 5.472 32 6.08v3.19c0 .319-.384.67-1.254 1.123" transform="translate(4.5 6)"/>
        <path fill="#C6302B" d="M30.746 7.177c-1.708.89-10.554 4.528-12.438 5.51-1.883.981-2.93.972-4.417.26-1.488-.71-10.902-4.513-12.597-5.324-1.696-.81-1.732-1.368-.066-2.02C2.894 4.95 12.256 1.276 14.235.566c1.979-.71 2.665-.735 4.349-.118 1.683.617 10.477 4.116 12.14 4.726 1.665.61 1.73 1.112.022 2.002" transform="translate(4.5 6)"/>
        <path fill="#FFF" d="M19.91 4.03l-2.75.286-.617 1.482-.994-1.654-3.177-.285 2.37-.855-.711-1.312 2.22.868 2.091-.685-.565 1.357 2.133.799m-3.531 7.19l-5.135-2.13 7.358-1.13-2.223 3.26M9.26 4.853c2.172 0 3.933.683 3.933 1.525 0 .842-1.76 1.524-3.933 1.524-2.172 0-3.932-.682-3.932-1.524s1.76-1.525 3.932-1.525" transform="translate(4.5 6)"/>
        <path fill="#621B1C" d="M23.162 4.436L27.516 6.157 23.166 7.876 23.162 4.436" transform="translate(4.5 6)"/>
        <path fill="#9A2928" d="M18.344 6.341L23.162 4.436 23.166 7.876 22.693 8.06 18.344 6.341" transform="translate(4.5 6)"/>
    </g>
</svg>
