<svg width="41" height="40" viewBox="0 0 41 40" fill="none" xmlns="http://www.w3.org/2000/svg">
<path d="M36.6293 28.1324C34.7614 29.1068 25.086 33.0848 23.026 34.1584C20.966 35.232 19.8219 35.2218 18.1943 34.4442C16.5667 33.6666 6.27054 29.5076 4.4147 28.6205C3.48678 28.177 3.00055 27.804 3.00055 27.4513V23.9132C3.00055 23.9132 16.4062 20.9949 18.5711 20.2182C20.7359 19.4415 21.4847 19.4137 23.3276 20.0883C25.1704 20.7629 36.1821 22.7496 38.0017 23.4168V26.9057C38.0017 27.2556 37.5823 27.6481 36.6312 28.1343L36.6293 28.1324Z" fill="#A41E11"/>
<path d="M36.6294 24.5933C34.7615 25.5676 25.0861 29.5456 23.0261 30.6192C20.9661 31.6928 19.822 31.6826 18.1944 30.905C16.5668 30.1274 6.27063 25.9684 4.41479 25.0813C2.55895 24.1943 2.52183 23.5846 4.34334 22.871L18.5702 17.3629C20.7341 16.5872 21.4839 16.5584 23.3267 17.233C25.1696 17.9076 34.7865 21.7353 36.6053 22.4126C38.424 23.09 38.4954 23.6282 36.6275 24.6025L36.6294 24.5933Z" fill="#D82C20"/>
<path d="M36.6293 22.3629C34.7614 23.3372 25.086 27.3152 23.026 28.3888C20.966 29.4624 19.8219 29.4522 18.1943 28.6746C16.5667 27.897 6.27054 23.7381 4.4147 22.851C3.48678 22.4075 3.00055 22.0344 3.00055 21.6818V18.1437C3.00055 18.1437 16.4062 15.2253 18.5711 14.4487C20.7359 13.672 21.4847 13.6442 23.3276 14.3188C25.1704 14.9934 36.1821 16.98 38.0017 17.6472V21.1362C38.0017 21.486 37.5823 21.8785 36.6312 22.3648L36.6293 22.3629Z" fill="#A41E11"/>
<path d="M36.6294 18.8246C34.7615 19.7989 25.0861 23.7769 23.0261 24.8505C20.9661 25.9241 19.822 25.9139 18.1944 25.1363C16.5668 24.3587 6.27063 20.1998 4.41479 19.3127C2.55895 18.4256 2.52183 17.8159 4.34334 17.1024L18.5702 11.5952C20.7341 10.8185 21.4839 10.7907 23.3267 11.4653C25.1696 12.1399 34.7865 15.9685 36.6071 16.6338C38.4277 17.2991 38.4973 17.8493 36.6294 18.8237V18.8246Z" fill="#D82C20"/>
<path d="M36.6293 16.3795C34.7614 17.3538 25.086 21.3318 23.026 22.4063C20.966 23.4808 19.8219 23.4697 18.1943 22.6921C16.5667 21.9145 6.27054 17.7556 4.4147 16.8685C3.48678 16.4249 3.00055 16.0519 3.00055 15.6993V12.1593C3.00055 12.1593 16.4062 9.24097 18.5711 8.4643C20.7359 7.68764 21.4847 7.6598 23.3276 8.33439C25.1704 9.00899 36.1821 10.9957 38.0017 11.6628V15.1518C38.0017 15.5017 37.5823 15.8942 36.6312 16.3804L36.6293 16.3795Z" fill="#A41E11"/>
<path d="M36.6294 12.8402C34.7615 13.8145 25.0861 17.7925 23.0261 18.8661C20.9661 19.9397 19.822 19.9295 18.1944 19.1519C16.5668 18.3743 6.27063 14.2154 4.41479 13.3283C2.55895 12.4412 2.52183 11.8316 4.34334 11.118L18.5702 5.61079C20.7341 4.83412 21.4839 4.80628 23.3267 5.48088C25.1696 6.15548 34.7865 9.98408 36.6071 10.6494C38.4277 11.3147 38.4973 11.865 36.6294 12.8393V12.8402Z" fill="#D82C20"/>
<path d="M21.3744 11.3812L20.2775 9.55787L16.7756 9.24237L19.3886 8.29961L18.6045 6.85205L21.0505 7.80781L23.3573 7.05248L22.7338 8.54829L25.0851 9.42981L22.0527 9.74531L21.3744 11.3812ZM15.5322 15.0113L23.6422 13.766L21.1925 17.3589L15.5322 15.0113Z" fill="white"/>
<path d="M13.346 13.7017C15.7403 13.7017 17.6812 12.9494 17.6812 12.0213C17.6812 11.0932 15.7403 10.3408 13.346 10.3408C10.9517 10.3408 9.01074 11.0932 9.01074 12.0213C9.01074 12.9494 10.9517 13.7017 13.346 13.7017Z" fill="white"/>
<path d="M33.4707 11.777L28.6733 13.6718L28.6696 9.87939L33.4707 11.777Z" fill="#7A0C00"/>
<path d="M28.6744 13.6719L28.1547 13.876L23.3611 11.9812L28.6716 9.88037L28.6744 13.6719Z" fill="#AD2115"/>
</svg>
