<svg width="16" height="16" viewBox="0 0 16 16" fill="none" xmlns="http://www.w3.org/2000/svg">
<path d="M7.99992 2.66659C6.89355 2.66659 5.86587 3.00347 5.01385 3.58025L4.32695 2.43543C5.38015 1.73884 6.64267 1.33325 7.99992 1.33325C11.6818 1.33325 14.6666 4.31802 14.6666 7.99992C14.6666 9.58891 14.1107 11.0481 13.1827 12.1935C13.1827 12.1935 13.1827 12.1935 13.1827 12.1935L10.9695 8.50475C10.8362 8.28258 10.9962 7.99992 11.2553 7.99992H13.3333C13.3333 5.0544 10.9454 2.66659 7.99992 2.66659Z" fill="#324558"/>
<path d="M1.33325 7.99992C1.33325 6.41093 1.88917 4.95177 2.81713 3.80635L3.55984 5.04421C3.55984 5.04422 3.55985 5.0442 3.55984 5.04421L5.03035 7.49512C5.16366 7.7173 5.00362 7.99996 4.74452 7.99996H2.66659C2.66661 10.9455 5.05441 13.3333 7.99992 13.3333C9.10629 13.3333 10.134 12.9964 10.986 12.4196L11.6729 13.5644C10.6197 14.261 9.35717 14.6666 7.99992 14.6666C4.31803 14.6666 1.33327 11.6818 1.33325 7.99992C1.33325 7.99993 1.33325 7.99991 1.33325 7.99992Z" fill="#324558"/>
</svg>
