<svg width="48" height="48" viewBox="0 0 48 48" fill="none" xmlns="http://www.w3.org/2000/svg">
<path d="M23.0802 3.84083C23.6511 3.51969 24.3482 3.51969 24.9191 3.84083L30.5454 7.00561C31.1359 7.33779 31.5013 7.96265 31.5013 8.64019V14.8859C31.5013 15.5635 31.1359 16.1883 30.5454 16.5205L24.9191 19.6853C24.3482 20.0064 23.6511 20.0064 23.0802 19.6853L17.4539 16.5205C16.8634 16.1883 16.4979 15.5635 16.4979 14.8859V8.64019C16.4979 7.96265 16.8634 7.33779 17.4539 7.00561L23.0802 3.84083Z" fill="#B6C2CD"/>
<path d="M10.8899 22.5951C11.4608 22.274 12.1579 22.274 12.7288 22.5951L18.3551 25.7599C18.9456 26.0921 19.3111 26.7169 19.3111 27.3945V33.6402C19.3111 34.3178 18.9456 34.9426 18.3551 35.2748L12.7288 38.4396C12.1579 38.7607 11.4608 38.7607 10.8899 38.4396L5.2636 35.2748C4.67307 34.9426 4.30762 34.3178 4.30762 33.6402V27.3945C4.30762 26.7169 4.67307 26.0921 5.2636 25.7599L10.8899 22.5951Z" fill="#B6C2CD"/>
<path d="M37.1094 22.5951C36.5385 22.274 35.8414 22.274 35.2705 22.5951L29.6442 25.7599C29.0536 26.0921 28.6882 26.7169 28.6882 27.3945V33.6402C28.6882 34.3178 29.0536 34.9426 29.6442 35.2748L35.2705 38.4396C35.8414 38.7607 36.5385 38.7607 37.1094 38.4396L42.7357 35.2748C43.3262 34.9426 43.6916 34.3178 43.6916 33.6402V27.3945C43.6916 26.7169 43.3262 26.0921 42.7357 25.7599L37.1094 22.5951Z" fill="#B6C2CD"/>
<path d="M13.6847 10.2898L8.33283 13.2806C7.29491 13.8606 6.65186 14.9566 6.65186 16.1456V21.7515L9.465 20.1691V16.1456C9.465 15.9757 9.55686 15.8191 9.70514 15.7363L13.6847 13.5124V10.2898Z" fill="#324558"/>
<path d="M34.3144 13.5124V10.2898L39.6663 13.2806C40.7042 13.8606 41.3473 14.9566 41.3473 16.1456V21.7515L38.5342 20.1691V16.1456C38.5342 15.9757 38.4423 15.8191 38.294 15.7363L34.3144 13.5124Z" fill="#324558"/>
<path d="M24.2283 40.031L28.3081 37.7511L31.182 39.3676L25.6006 42.4867C24.6057 43.0427 23.3935 43.0427 22.3985 42.4867L16.8172 39.3676L19.6911 37.7511L23.7709 40.0309C23.913 40.1104 24.0862 40.1104 24.2283 40.031Z" fill="#324558"/>
<path d="M23.9996 22.8201L19.5157 20.3744L18.1686 22.844L22.593 25.2573V33.7995H25.4061V25.2573L29.8306 22.844L28.4835 20.3744L23.9996 22.8201Z" fill="#324558"/>
</svg>
