<svg xmlns="http://www.w3.org/2000/svg" width="83" height="21" viewBox="0 0 83 21">
    <g fill="none" fill-rule="evenodd">
        <path fill="#4B9FD5" d="M80.27 18.161h-1.012c0-8.143-6.728-14.798-15.039-14.798V2.318c8.853 0 16.072 7.151 16.072 15.843h-.021z"/>
        <path fill="#4B9FD5" d="M80.974 12.712c-1.22-5.113-5.361-9.409-10.589-10.89l.235-.831c5.502 1.601 9.885 6.112 11.152 11.561l-.798.16zm1.146-4.785a15.365 15.365 0 0 0-6.012-6.715l.336-.603c2.741 1.648 4.999 4.182 6.266 7.043l-.59.275z"/>
        <path fill="#212B36" d="M0 17.779c.603.329 1.541.603 2.587.603 2.259 0 3.411-1.099 3.411-2.587-.02-1.152-.663-1.977-2.144-2.473-.979-.335-1.267-.549-1.267-.938-.02-.382.328-.603.932-.603.656 0 1.38.221 1.709.436l.429-1.703a5.61 5.61 0 0 0-2.246-.496c-1.95 0-3.19 1.153-3.19 2.641-.04.938.603 1.816 2.252 2.366.905.328 1.159.496 1.159.938-.006.442-.328.657-1.045.657-.751 0-1.709-.329-2.145-.603L0 17.779zm10.851-5.945c1.119 0 1.588 1.153 1.588 2.366-.013 1.435-.61 2.366-1.595 2.366-1.052 0-1.602-.992-1.602-2.366-.013-1.152.442-2.366 1.602-2.366h.007zm.08-1.816c-2.567 0-4.269 1.649-4.269 4.236.013 2.587 1.809 4.128 4.122 4.128 2.131 0 4.182-1.374 4.182-4.289.013-2.366-1.595-4.075-4.015-4.075h-.02zm4.819 8.143h2.473v-4.564c0-.221-.007-.442.1-.61.155-.435.55-.931 1.267-.931.871 0 1.213.717 1.213 1.702l.02 4.403h2.467v-4.678c0-2.366-1.22-3.411-2.822-3.411-1.354 0-2.145.771-2.473 1.267h-.054l-.114-1.1h-2.144c.033.718.053 1.542.053 2.534l.014 5.388zm12.995-2.862c0 .114-.02.275-.074.389-.14.55-.663.932-1.266.932-.543 0-.992-.329-.992-.932.02-.938 1.045-1.267 2.312-1.267l.02.878zm2.386-1.816c0-1.87-.811-3.465-3.452-3.465a7.104 7.104 0 0 0-3.136.717l.476 1.595c.522-.328 1.394-.603 2.218-.603 1.2 0 1.434.603 1.434 1.046l-.006.107c-2.815 0-4.672.992-4.672 3.029.007 1.26.992 2.473 2.587 2.473.925 0 1.763-.382 2.252-.992h.054l.147.771h2.232c-.1-.435-.121-1.153-.121-1.923l-.013-2.755zm1.213 4.678h2.466v-4.014c0-.168.021-.389.021-.55.194-.771.831-1.267 1.709-1.267.288 0 .496.054.656.054l.02-2.312c-.174 0-.294-.054-.509-.054-.791 0-1.763.496-2.151 1.649h-.067l-.101-1.428h-2.111c.047.657.081 1.428.081 2.587l-.014 5.335zm21.38-2.198c0 .824.04 1.595.04 2.198H52.49l-.08-1.32h-.033c-.383.663-1.254 1.541-2.688 1.541-1.233 0-2.748-.717-2.748-3.518v-4.739h1.468v4.464c0 1.535.456 2.58 1.776 2.58.999 0 1.655-.71 1.93-1.374.094-.221.161-.442.161-.717l-.013-4.953h1.461v5.838zm2.58-.938c0 .167.047.328.047.496.308 1.045 1.153 1.762 2.198 1.762 1.548 0 2.48-1.266 2.48-3.136-.02-1.595-.824-2.976-2.426-2.976-.985 0-1.924.663-2.199 1.816-.046.168-.107.335-.107.61l.007 1.428zm-1.508 3.19c.033-.55.067-1.32.067-2.031V6.439h1.441v5.067h.033c.516-.885 1.441-1.488 2.762-1.488 1.977 0 3.411 1.649 3.357 4.129.014 2.861-1.816 4.289-3.572 4.289-1.179 0-2.091-.436-2.701-1.541h-.06l-.067 1.32h-1.26zm14.155-4.839c.013-.938-.382-2.366-2.038-2.366-1.467 0-2.144 1.374-2.252 2.366h4.29zm-4.29 1.045c.034 1.984 1.321 2.809 2.748 2.809a5.548 5.548 0 0 0 2.259-.443l.228 1.046c-.516.221-1.388.496-2.648.496-2.506 0-3.967-1.595-3.967-4.021-.014-2.42 1.434-4.343 3.746-4.343 2.634 0 3.358 2.312 3.358 3.793-.027.275-.06.496-.06.663h-5.664zM43.543 16.62a2.952 2.952 0 0 1-4.142-.771 3.004 3.004 0 0 1 .771-4.122c1.381-.938 3.244-.556 4.182.771.898 1.374.55 3.244-.824 4.122h.013zm1.837-4.839c-1.314-1.93-3.941-2.42-5.925-1.099-1.91 1.32-2.419 3.961-1.099 5.884 1.166 1.709 3.358 2.312 5.227 1.542l1.622 2.64 1.307-.878-1.642-2.701c1.421-1.374 1.682-3.626.53-5.388h-.02z"/>
    </g>
</svg>
