<svg width="14" height="14" viewBox="0 0 14 14" fill="none" xmlns="http://www.w3.org/2000/svg">
<path d="M6.99992 10.3333C8.84087 10.3333 10.3333 8.84087 10.3333 6.99992C10.3333 5.15897 8.84087 3.66659 6.99992 3.66659C5.15897 3.66659 3.66659 5.15897 3.66659 6.99992C3.66659 8.84087 5.15897 10.3333 6.99992 10.3333Z" fill="#324558"/>
<path fill-rule="evenodd" clip-rule="evenodd" d="M13.6666 6.99992C13.6666 10.6818 10.6818 13.6666 6.99992 13.6666C3.31802 13.6666 0.333252 10.6818 0.333252 6.99992C0.333252 3.31802 3.31802 0.333252 6.99992 0.333252C10.6818 0.333252 13.6666 3.31802 13.6666 6.99992ZM12.3333 6.99992C12.3333 9.94544 9.94544 12.3333 6.99992 12.3333C4.0544 12.3333 1.66659 9.94544 1.66659 6.99992C1.66659 4.0544 4.0544 1.66659 6.99992 1.66659C9.94544 1.66659 12.3333 4.0544 12.3333 6.99992Z" fill="#324558"/>
</svg>
