<svg width="40" height="40" viewBox="0 0 40 40" fill="none" xmlns="http://www.w3.org/2000/svg">
<path d="M5.00016 3.33325C4.07969 3.33325 3.3335 4.07944 3.3335 4.99992V9.99992C3.3335 10.9204 4.07969 11.6666 5.00016 11.6666H9.16683V32.4999C9.16683 33.4204 9.91302 34.1666 10.8335 34.1666H21.6668V30.8333H12.5002V21.6666H21.6668V18.3333H12.5002V11.6666H16.6668C17.5873 11.6666 18.3335 10.9204 18.3335 9.99992V4.99992C18.3335 4.07944 17.5873 3.33325 16.6668 3.33325H5.00016Z" fill="#324558"/>
<path d="M23.3332 15.8333C22.4127 15.8333 21.6665 16.5794 21.6665 17.4999V22.4999C21.6665 23.4204 22.4127 24.1666 23.3332 24.1666H34.9998C35.9203 24.1666 36.6665 23.4204 36.6665 22.4999V17.4999C36.6665 16.5794 35.9203 15.8333 34.9998 15.8333H23.3332Z" fill="#B6C2CD"/>
<path d="M23.3332 28.3333C22.4127 28.3333 21.6665 29.0794 21.6665 29.9999V34.9999C21.6665 35.9204 22.4127 36.6666 23.3332 36.6666H34.9998C35.9203 36.6666 36.6665 35.9204 36.6665 34.9999V29.9999C36.6665 29.0794 35.9203 28.3333 34.9998 28.3333H23.3332Z" fill="#B6C2CD"/>
</svg>
