<svg width="40" height="40" viewBox="0 0 40 40" fill="none" xmlns="http://www.w3.org/2000/svg">
<path fill-rule="evenodd" clip-rule="evenodd" d="M20.0002 10.9601C13.5697 10.9601 8.35439 9.25957 8.33356 7.15932H8.3335V19.2861C11.1151 21.1261 15.3619 22.0971 20.0002 22.0971C24.6384 22.0971 28.8852 21.1261 31.6668 19.2861L31.6668 7.15932C31.6459 9.25957 26.4306 10.9601 20.0002 10.9601ZM8.3335 33.8556C11.1151 35.6956 15.3619 36.6667 20.0002 36.6667C24.6384 36.6667 28.8852 35.6956 31.6668 33.8556V22.2856C28.8852 24.1256 24.6384 25.0966 20.0002 25.0966C15.3619 25.0966 11.1151 24.1256 8.3335 22.2856V33.8556Z" fill="#CCD3DB"/>
<ellipse cx="20.0002" cy="7.14669" rx="11.6667" ry="3.81336" fill="#36435C"/>
</svg>
