<?xml version="1.0" encoding="UTF-8"?>
<!DOCTYPE svg PUBLIC "-//W3C//DTD SVG 1.1//EN" "http://www.w3.org/Graphics/SVG/1.1/DTD/svg11.dtd">
<svg xmlns="http://www.w3.org/2000/svg" version="1.1" width="120px" height="120px" style="shape-rendering:geometricPrecision; text-rendering:geometricPrecision; image-rendering:optimizeQuality; fill-rule:evenodd; clip-rule:evenodd" xmlns:xlink="http://www.w3.org/1999/xlink">
<g><path style="opacity:0.971" fill="#b6c2cd" d="M 49.5,9.5 C 74.9074,6.53456 93.574,16.2012 105.5,38.5C 94.5202,39.4988 83.5202,39.8321 72.5,39.5C 73.0507,34.2604 75.0507,29.5937 78.5,25.5C 57.5915,15.5166 40.0915,19.85 26,38.5C 15.1335,60.0909 19.3002,78.2576 38.5,93C 58.3696,103.208 75.8696,100.041 91,83.5C 97.4262,74.7938 99.9262,65.1272 98.5,54.5C 102.167,54.5 105.833,54.5 109.5,54.5C 110.567,81.2162 98.567,99.0495 73.5,108C 46.0292,113.679 25.8625,104.179 13,79.5C 4.23223,53.1398 11.0656,31.9731 33.5,16C 38.7441,13.315 44.0775,11.1484 49.5,9.5 Z"/></g>
<g><path style="opacity:0.948" fill="#324557" d="M 48.5,40.5 C 57.5919,45.0751 66.5919,49.9085 75.5,55C 80.8333,58 80.8333,61 75.5,64C 66.7058,68.6329 58.0391,73.4662 49.5,78.5C 48.5224,78.0233 47.6891,77.3567 47,76.5C 46.3333,65.1667 46.3333,53.8333 47,42.5C 47.7172,41.9558 48.2172,41.2891 48.5,40.5 Z"/></g>
</svg>
