<?xml version="1.0" encoding="UTF-8"?>
<!DOCTYPE svg PUBLIC "-//W3C//DTD SVG 1.1//EN" "http://www.w3.org/Graphics/SVG/1.1/DTD/svg11.dtd">
<svg xmlns="http://www.w3.org/2000/svg" version="1.1" width="120px" height="120px" style="shape-rendering:geometricPrecision; text-rendering:geometricPrecision; image-rendering:optimizeQuality; fill-rule:evenodd; clip-rule:evenodd" xmlns:xlink="http://www.w3.org/1999/xlink">
<g><path style="opacity:0.999" fill="#b5c1cc" d="M 54.5,51.5 C 48.021,52.4907 41.3543,52.824 34.5,52.5C 34.5,57.1667 34.5,61.8333 34.5,66.5C 41.3543,66.176 48.021,66.5093 54.5,67.5C 54.5,79.8333 54.5,92.1667 54.5,104.5C 41.8289,104.667 29.1623,104.5 16.5,104C 16,103.5 15.5,103 15,102.5C 14.3333,73.8333 14.3333,45.1667 15,16.5C 15.5,16 16,15.5 16.5,15C 29.1623,14.5001 41.8289,14.3334 54.5,14.5C 54.5,26.8333 54.5,39.1667 54.5,51.5 Z"/></g>
<g><path style="opacity:0.998" fill="#b6c2cc" d="M 89.5,14.5 C 93.8461,14.3343 98.1794,14.501 102.5,15C 103,15.5 103.5,16 104,16.5C 104.667,45.1667 104.667,73.8333 104,102.5C 103.5,103 103,103.5 102.5,104C 98.1794,104.499 93.8461,104.666 89.5,104.5C 89.5,74.5 89.5,44.5 89.5,14.5 Z"/></g>
<g><path style="opacity:0.964" fill="#324558" d="M 54.5,67.5 C 48.021,66.5093 41.3543,66.176 34.5,66.5C 34.5,61.8333 34.5,57.1667 34.5,52.5C 41.3543,52.824 48.021,52.4907 54.5,51.5C 56.8333,51.5 59.1667,51.5 61.5,51.5C 61.3341,46.4889 61.5007,41.4889 62,36.5C 69.7465,43.7424 76.9132,51.4091 83.5,59.5C 76.9132,67.5909 69.7465,75.2576 62,82.5C 61.5007,77.5111 61.3341,72.5111 61.5,67.5C 59.1667,67.5 56.8333,67.5 54.5,67.5 Z"/></g>
</svg>
