<?xml version="1.0" encoding="UTF-8"?>
<!DOCTYPE svg PUBLIC "-//W3C//DTD SVG 1.1//EN" "http://www.w3.org/Graphics/SVG/1.1/DTD/svg11.dtd">
<svg xmlns="http://www.w3.org/2000/svg" version="1.1" width="120px" height="120px" style="shape-rendering:geometricPrecision; text-rendering:geometricPrecision; image-rendering:optimizeQuality; fill-rule:evenodd; clip-rule:evenodd" xmlns:xlink="http://www.w3.org/1999/xlink">
<g><path style="opacity:0.977" fill="#324558" d="M 69.5,54.5 C 69.7839,57.7766 69.4505,60.9433 68.5,64C 62.1754,64.4995 55.8421,64.6662 49.5,64.5C 40.4938,64.6664 31.4938,64.4998 22.5,64C 21.9781,63.4387 21.6448,62.772 21.5,62C 35.9186,42.5046 50.5853,23.1713 65.5,4C 66.549,3.50776 67.549,3.67443 68.5,4.5C 69.4995,21.1533 69.8328,37.82 69.5,54.5 Z"/></g>
<g><path style="opacity:0.996" fill="#b6c1cc" d="M 69.5,54.5 C 78.5062,54.3336 87.5062,54.5002 96.5,55C 97.0219,55.5613 97.3552,56.228 97.5,57C 83.0814,76.4954 68.4147,95.8287 53.5,115C 52.451,115.492 51.451,115.326 50.5,114.5C 49.5005,97.8467 49.1672,81.18 49.5,64.5C 55.8421,64.6662 62.1754,64.4995 68.5,64C 69.4505,60.9433 69.7839,57.7766 69.5,54.5 Z"/></g>
</svg>
