<svg width="48" height="48" viewBox="0 0 48 48" fill="none" xmlns="http://www.w3.org/2000/svg">
    <rect width="18.294" height="18.4312" transform="matrix(0.866025 -0.5 2.20305e-08 1 9.11004 14.8218)"
          stroke="#A5EAE3" stroke-width="0.6" stroke-dasharray="1.8 1.8"/>
    <path d="M40.7968 33.1156L24.9538 42.2626L8.90965 32.9995" stroke="#A5EAE3" stroke-width="0.6"
          stroke-dasharray="1.8 1.8"/>
    <path d="M9.00373 14.4517L25.1458 24.2871" stroke="#A5EAE3" stroke-width="0.6" stroke-dasharray="1.8 1.8"/>
    <mask id="path-4-inside-1_14176_514037" fill="white">
        <rect width="10.2972" height="10.2972" rx="0.6"/>
    </mask>
    <rect width="10.2972" height="10.2972" rx="0.6" transform="matrix(-0.866025 -0.5 -2.20305e-08 1 15.1465 27.0332)"
          fill="url(#paint0_linear_14176_514037)" stroke="#119E8F" stroke-width="3.6"
          mask="url(#path-4-inside-1_14176_514037)"/>
    <path d="M24.8533 24.1138L24.8065 42.6548" stroke="#A5EAE3" stroke-width="0.6" stroke-dasharray="1.8 1.8"/>
    <mask id="path-6-inside-2_14176_514037" fill="white">
        <rect width="20.3517" height="20.3517" rx="0.6"/>
    </mask>
    <rect width="20.3517" height="20.3517" rx="0.6" transform="matrix(-0.866025 -0.5 -2.20305e-08 1 41.7708 14.3757)"
          fill="url(#paint1_linear_14176_514037)" stroke="#119E8F" stroke-width="3.6"
          mask="url(#path-6-inside-2_14176_514037)"/>
    <circle cx="9.15016" cy="14.7019" r="1.5374" fill="url(#paint2_linear_14176_514037)"/>
    <circle cx="24.9535" cy="42.2627" r="1.5374" fill="url(#paint3_linear_14176_514037)"/>
    <defs>
        <linearGradient id="paint0_linear_14176_514037" x1="5.14864" y1="10.2972" x2="5.14864" y2="-0.235953"
                        gradientUnits="userSpaceOnUse">
            <stop stop-color="#16D2BF"/>
            <stop offset="1" stop-color="white"/>
        </linearGradient>
        <linearGradient id="paint1_linear_14176_514037" x1="10.1759" y1="20.3516" x2="10.1759" y2="-0.466341"
                        gradientUnits="userSpaceOnUse">
            <stop stop-color="#16D2BF"/>
            <stop offset="1" stop-color="white"/>
        </linearGradient>
        <linearGradient id="paint2_linear_14176_514037" x1="8.20959" y1="14.0543" x2="8.20959" y2="16.2393"
                        gradientUnits="userSpaceOnUse">
            <stop stop-color="#36D6C4"/>
            <stop offset="1" stop-color="#15BEAC"/>
        </linearGradient>
        <linearGradient id="paint3_linear_14176_514037" x1="24.013" y1="41.6151" x2="24.013" y2="43.8001"
                        gradientUnits="userSpaceOnUse">
            <stop stop-color="#36D6C4"/>
            <stop offset="1" stop-color="#15BEAC"/>
        </linearGradient>
    </defs>
</svg>
