<svg width="473" height="300" viewBox="0 0 473 300" fill="none" xmlns="http://www.w3.org/2000/svg">
    <path d="M351.734 165.547L169.006 271.704C166.962 272.891 164.434 272.878 162.403 271.668L6.87132 179.052C4.02667 177.358 4.04894 173.231 6.9117 171.568L93.5499 121.236L101.884 116.394"
          stroke="#B6C3D7" stroke-opacity="0.2" stroke-width="2.17067"/>
    <path d="M154.287 184.422L300.248 271.34C302.28 272.549 304.807 272.563 306.851 271.375L465.275 179.339C468.138 177.676 468.16 173.549 465.315 171.855L397.031 131.193"
          stroke="#B6C3D7" stroke-opacity="0.2" stroke-width="2.17067"/>
    <path d="M363.443 169.569L235.22 244.061L106.019 169.569L234.243 95.0776L363.443 169.569Z"
          fill="url(#paint0_linear_14176_516577)"/>
    <path d="M363.467 169.568V189.852L235.243 264.343V244.06L363.467 169.568Z" fill="url(#paint1_linear_14176_516577)"/>
    <path d="M235.216 244.175V264.352L106.015 189.86V169.684L235.216 244.175Z" fill="url(#paint2_linear_14176_516577)"/>
    <path d="M409.381 227.044C409.562 227.148 409.562 227.409 409.382 227.514L380.56 244.258C380.476 244.307 380.372 244.307 380.288 244.259L351.234 227.507C351.053 227.403 351.053 227.142 351.233 227.038L380.055 210.293L379.648 209.592L380.055 210.293C380.139 210.245 380.243 210.244 380.327 210.293L409.381 227.044Z"
          fill="#EFF4F9" stroke="white" stroke-width="1.628"/>
    <path d="M402.991 217.903L381.393 231.031L357.623 217.903L380.221 204.774L402.991 217.903Z" fill="white"/>
    <path d="M402.991 207.048L380.393 220.176L357.622 207.048L380.221 193.919L402.991 207.048Z"
          fill="url(#paint3_linear_14176_516577)"/>
    <path d="M402.996 217.902V226.503L380.398 239.631V231.03L402.996 217.902Z" fill="url(#paint4_linear_14176_516577)"/>
    <path d="M402.996 207.047V215.648L380.398 228.776V220.175L402.996 207.047Z"
          fill="url(#paint5_linear_14176_516577)"/>
    <path d="M380.393 231.05V239.633L357.623 226.504V217.922L380.393 231.05Z" fill="url(#paint6_linear_14176_516577)"/>
    <path d="M380.393 220.195V228.778L357.623 215.649V207.067L380.393 220.195Z"
          fill="url(#paint7_linear_14176_516577)"/>
    <path d="M328.261 70.0397C328.623 70.2481 328.623 70.7695 328.263 70.9791L313.25 79.7005C313.082 79.7981 312.875 79.7984 312.707 79.7014L297.568 70.9729C297.206 70.7645 297.205 70.2431 297.566 70.0335L312.578 61.3121C312.746 61.2145 312.954 61.2142 313.122 61.3112L328.261 70.0397Z"
          fill="#EFF4F9" stroke="white" stroke-width="1.08533"/>
    <path d="M325.489 65.3102L312.962 72.5877L300.339 65.3102L312.866 58.0327L325.489 65.3102Z" fill="white"/>
    <path d="M325.488 59.2926L312.961 66.5701L300.339 59.2926L312.866 52.0151L325.488 59.2926Z"
          fill="url(#paint8_linear_14176_516577)"/>
    <path d="M325.491 65.3105V70.0783L312.964 77.3558V72.588L325.491 65.3105Z" fill="url(#paint9_linear_14176_516577)"/>
    <path d="M325.491 59.2935V64.0613L312.964 71.3387V66.5709L325.491 59.2935Z"
          fill="url(#paint10_linear_14176_516577)"/>
    <path d="M312.962 72.599V77.3564L300.339 70.0789V65.3215L312.962 72.599Z" fill="url(#paint11_linear_14176_516577)"/>
    <path d="M312.962 66.5822V71.3396L300.339 64.0621V59.3047L312.962 66.5822Z"
          fill="url(#paint12_linear_14176_516577)"/>
    <path d="M310.205 161.855C310.205 187.292 276.395 207.912 234.689 207.912C192.983 207.912 159.173 187.292 159.173 161.855C159.173 155.071 159.173 139.602 159.173 139.602C159.173 139.602 203.083 139.602 233.667 139.602C264.25 139.602 310.205 139.602 310.205 139.602C310.205 139.602 310.205 155.071 310.205 161.855Z"
          fill="url(#paint13_linear_14176_516577)"/>
    <ellipse cx="234.689" cy="141.125" rx="75.5156" ry="46.0574" fill="url(#paint14_linear_14176_516577)"/>
    <mask id="mask0_14176_516577" style="mask-type:alpha" maskUnits="userSpaceOnUse" x="159" y="95" width="152"
          height="93">
        <ellipse cx="234.689" cy="141.125" rx="75.5156" ry="46.0574" fill="url(#paint15_linear_14176_516577)"/>
    </mask>
    <g mask="url(#mask0_14176_516577)">
        <path fill-rule="evenodd" clip-rule="evenodd"
              d="M270.388 175.544C342.818 171.532 366.678 103.292 366.678 77.855V55.6023C366.678 55.6023 308.251 108.447 268.195 108.447H178.36C178.36 108.447 177.575 110.018 176.506 112.377H232.448H295.972V130.846C295.972 151.958 267.912 169.072 233.297 169.072C199.491 169.072 171.936 152.748 170.667 132.318C171.812 157.12 199.496 179.47 270.388 175.544Z"
              fill="url(#paint16_linear_14176_516577)"/>
    </g>
    <path d="M295.977 135.229C295.977 156.34 267.916 173.455 233.302 173.455C198.687 173.455 170.626 156.34 170.626 135.229C170.626 129.599 170.626 116.76 170.626 116.76C170.626 116.76 207.07 116.76 232.453 116.76C257.837 116.76 295.977 116.76 295.977 116.76C295.977 116.76 295.977 129.599 295.977 135.229Z"
          fill="url(#paint17_linear_14176_516577)"/>
    <path d="M295.977 132.782C295.977 153.894 267.916 171.009 233.302 171.009C198.687 171.009 170.626 153.894 170.626 132.782C170.626 127.152 170.626 114.314 170.626 114.314C170.626 114.314 207.07 114.314 232.453 114.314C257.837 114.314 295.977 114.314 295.977 114.314C295.977 114.314 295.977 127.152 295.977 132.782Z"
          fill="url(#paint18_linear_14176_516577)"/>
    <ellipse cx="233.302" cy="118.024" rx="62.6754" ry="38.2261" fill="url(#paint19_linear_14176_516577)"/>
    <ellipse cx="234.689" cy="118.025" rx="52.3312" ry="31.9171" fill="#D9DFE6"/>
    <mask id="mask1_14176_516577" style="mask-type:alpha" maskUnits="userSpaceOnUse" x="182" y="86" width="106"
          height="64">
        <ellipse cx="234.689" cy="118.025" rx="52.3312" ry="31.9171" fill="#BAC7DA"/>
    </mask>
    <g mask="url(#mask1_14176_516577)">
        <path d="M285.337 119.552C285.337 137.051 262.856 149.942 235.125 149.942C207.393 149.942 184.912 137.051 184.912 119.552C184.912 102.054 207.393 91.8254 235.125 91.8254C262.856 91.8254 285.337 102.054 285.337 119.552Z"
              fill="url(#paint20_linear_14176_516577)"/>
    </g>
    <path d="M273.358 121.18V121.154C273.358 121.077 273.358 120.999 273.358 120.948C273.358 120.845 273.358 120.767 273.358 120.664C273.358 120.638 273.358 120.638 273.358 120.612C273.358 120.535 273.358 120.458 273.332 120.38C273.332 120.303 273.332 120.225 273.306 120.122C273.306 120.096 273.306 120.071 273.306 120.071C273.306 119.993 273.281 119.916 273.281 119.838C273.281 119.761 273.255 119.684 273.255 119.606C273.255 119.58 273.255 119.555 273.255 119.529C273.255 119.451 273.229 119.374 273.229 119.271C273.229 119.194 273.203 119.142 273.203 119.065C273.203 119.039 273.203 119.013 273.177 118.987C273.152 118.91 273.152 118.807 273.126 118.729C273.126 118.652 273.1 118.6 273.1 118.523C273.1 118.497 273.074 118.471 273.074 118.42C273.048 118.316 273.048 118.239 273.023 118.136C272.997 118.084 272.997 118.007 272.997 117.955C272.997 117.929 272.971 117.878 272.971 117.852C272.945 117.749 272.919 117.672 272.894 117.568C272.868 117.517 272.868 117.439 272.842 117.388C272.842 117.362 272.816 117.31 272.816 117.285C272.79 117.181 272.765 117.104 272.739 117.001C272.713 116.949 272.713 116.872 272.687 116.82C272.687 116.794 272.661 116.743 272.661 116.717C272.636 116.614 272.61 116.536 272.584 116.433C272.558 116.382 272.558 116.304 272.532 116.253C272.532 116.227 272.507 116.175 272.507 116.15C272.481 116.046 272.455 115.969 272.429 115.866C272.403 115.814 272.378 115.737 272.378 115.685C272.378 115.659 272.352 115.608 272.352 115.582C272.326 115.505 272.3 115.401 272.249 115.324C272.223 115.272 272.197 115.195 272.197 115.143C272.171 115.092 272.171 115.066 272.145 115.014C272.12 114.937 272.094 114.86 272.042 114.756C272.017 114.705 271.991 114.653 271.991 114.602C271.965 114.55 271.965 114.499 271.939 114.473C271.913 114.395 271.888 114.318 271.836 114.241C271.81 114.189 271.81 114.137 271.784 114.112C271.759 114.06 271.733 114.008 271.707 113.957C271.681 113.879 271.63 113.802 271.604 113.725C271.578 113.699 271.578 113.647 271.552 113.621C271.526 113.57 271.501 113.492 271.475 113.441C271.449 113.363 271.397 113.286 271.372 113.183C271.346 113.157 271.346 113.131 271.32 113.08C271.294 113.028 271.268 112.951 271.243 112.899C271.191 112.796 271.165 112.719 271.114 112.615C271.088 112.59 271.088 112.564 271.062 112.538C271.036 112.486 271.01 112.435 270.985 112.383C270.933 112.254 270.856 112.151 270.804 112.022C270.778 111.996 270.778 111.945 270.752 111.919C270.727 111.893 270.727 111.867 270.701 111.841C270.572 111.583 270.417 111.326 270.262 111.068V111.042C270.237 111.016 270.237 110.99 270.211 110.964C270.108 110.784 270.004 110.603 269.875 110.423C269.824 110.371 269.798 110.294 269.746 110.242C269.643 110.061 269.514 109.881 269.411 109.726C269.385 109.7 269.359 109.675 269.359 109.623C269.359 109.623 269.359 109.597 269.334 109.597C269.153 109.313 268.947 109.03 268.74 108.746C268.715 108.72 268.715 108.694 268.689 108.668C268.663 108.643 268.663 108.643 268.637 108.617C268.508 108.462 268.405 108.307 268.276 108.153C268.25 108.127 268.25 108.101 268.224 108.101C268.095 107.92 267.966 107.766 267.812 107.611C267.812 107.611 267.812 107.611 267.812 107.585C267.76 107.533 267.734 107.482 267.683 107.43C267.605 107.327 267.502 107.224 267.425 107.121L267.399 107.095C267.347 107.043 267.296 106.992 267.244 106.94C267.167 106.837 267.089 106.759 266.986 106.656L266.96 106.63C266.909 106.579 266.857 106.527 266.806 106.476C266.728 106.398 266.651 106.295 266.548 106.218C266.522 106.192 266.522 106.192 266.496 106.166C266.444 106.115 266.393 106.089 266.367 106.037C266.29 105.96 266.186 105.857 266.109 105.779C266.083 105.753 266.057 105.728 266.057 105.728C266.006 105.676 265.98 105.65 265.928 105.599C265.851 105.521 265.748 105.444 265.671 105.341C265.645 105.315 265.619 105.289 265.593 105.263C265.516 105.186 265.438 105.108 265.335 105.031C265.361 104.747 265.387 104.464 265.387 104.18V104.154C265.387 103.896 265.413 103.638 265.413 103.354C265.413 103.329 265.413 103.329 265.413 103.303C265.413 103.045 265.413 102.761 265.413 102.503C265.413 102.451 265.413 102.4 265.413 102.348C265.413 102.245 265.413 102.142 265.387 102.013C265.387 101.884 265.387 101.755 265.361 101.626C265.361 101.523 265.335 101.42 265.335 101.342C265.335 101.239 265.309 101.11 265.309 101.007C265.309 100.929 265.309 100.852 265.284 100.775C265.258 100.62 265.258 100.439 265.232 100.284C265.232 100.181 265.206 100.104 265.206 100.001C265.206 99.9749 265.206 99.9491 265.206 99.8975C265.18 99.588 265.129 99.3042 265.077 98.9947V98.9689C265.077 98.9173 265.051 98.8915 265.051 98.8399C265 98.5819 264.974 98.3497 264.922 98.0918C264.922 98.0402 264.897 98.0144 264.897 97.9628C264.871 97.8338 264.845 97.7306 264.819 97.6016C264.793 97.4469 264.768 97.3179 264.742 97.1631C264.716 97.0857 264.716 97.0083 264.69 96.9309C264.664 96.8019 264.639 96.6729 264.587 96.544C264.561 96.4408 264.535 96.3376 264.51 96.2344C264.484 96.1054 264.458 96.0022 264.406 95.8732C264.381 95.7443 264.329 95.6153 264.303 95.4863C264.277 95.4347 264.277 95.3573 264.252 95.3057C264.2 95.1251 264.149 94.9704 264.097 94.7898C264.071 94.6866 264.045 94.5576 263.994 94.4544C263.994 94.4286 263.968 94.4028 263.968 94.3512C263.865 94.0417 263.787 93.7321 263.684 93.4226C263.684 93.3968 263.658 93.371 263.658 93.3452C263.555 93.0614 263.478 92.8034 263.375 92.5197C263.349 92.4681 263.349 92.4423 263.323 92.3907C263.297 92.2875 263.246 92.1843 263.22 92.0811C263.168 91.9263 263.117 91.7974 263.065 91.6426C263.039 91.5394 262.988 91.462 262.962 91.3588C262.91 91.2556 262.859 91.1266 262.833 91.0235C262.807 90.9461 262.755 90.8687 262.73 90.7655C262.652 90.6107 262.601 90.4301 262.523 90.2754C262.472 90.198 262.446 90.0948 262.42 90.0174C262.394 89.9916 262.394 89.9658 262.369 89.9142C262.24 89.6304 262.111 89.3467 261.982 89.0371C261.982 89.0371 261.982 89.0113 261.956 89.0113C261.93 88.9339 261.878 88.8565 261.853 88.7791C261.749 88.547 261.646 88.3148 261.517 88.1084C261.491 88.0826 261.491 88.031 261.466 88.0052C261.388 87.8247 261.285 87.6441 261.182 87.4635C261.104 87.3087 261.027 87.1797 260.95 87.025C260.924 86.9734 260.898 86.9476 260.872 86.896C260.821 86.8186 260.769 86.7154 260.718 86.638C260.589 86.4058 260.46 86.1737 260.331 85.9157C260.279 85.8125 260.227 85.7351 260.176 85.6319C260.15 85.5803 260.098 85.503 260.073 85.4514C259.995 85.3482 259.944 85.2192 259.866 85.116C259.763 84.9354 259.634 84.7548 259.531 84.5485C259.428 84.3937 259.325 84.2131 259.221 84.0583C259.118 83.8778 258.989 83.6972 258.86 83.5166C258.809 83.465 258.783 83.3876 258.731 83.336C258.628 83.207 258.551 83.0523 258.447 82.9233C258.37 82.8201 258.318 82.7169 258.241 82.6395C258.035 82.3299 257.828 82.0462 257.596 81.7366C257.596 81.7366 257.596 81.7366 257.596 81.7108C257.364 81.3755 257.106 81.0401 256.848 80.7305C256.848 80.7048 256.822 80.7048 256.822 80.679C256.642 80.4468 256.435 80.2146 256.255 79.9824C256.203 79.9309 256.177 79.8793 256.126 79.8277C255.894 79.5439 255.661 79.2859 255.429 79.028C255.429 79.0022 255.403 79.0022 255.403 79.0022C255.326 78.9248 255.249 78.8474 255.197 78.77C255.042 78.6152 254.913 78.4346 254.758 78.2799C254.733 78.2541 254.707 78.2283 254.681 78.2025C254.578 78.0993 254.475 77.9961 254.372 77.8929C254.268 77.7639 254.139 77.6607 254.036 77.5318C253.985 77.4802 253.959 77.4544 253.907 77.4028C253.804 77.2996 253.675 77.1706 253.572 77.0674C253.469 76.9642 253.391 76.8868 253.288 76.7836C253.236 76.7321 253.185 76.6805 253.133 76.6289C253.004 76.5257 252.901 76.3967 252.772 76.2935C252.695 76.2161 252.592 76.1387 252.514 76.0613C252.437 76.0097 252.385 75.9581 252.308 75.8808C252.179 75.7776 252.05 75.6744 251.947 75.5712C251.869 75.5196 251.792 75.4422 251.714 75.3648C251.637 75.2874 251.56 75.2358 251.482 75.1584C251.353 75.0553 251.25 74.9521 251.121 74.8747C251.07 74.8231 250.992 74.7715 250.941 74.7199C250.837 74.6425 250.734 74.5651 250.631 74.4877C250.528 74.4103 250.399 74.3072 250.296 74.2298C250.244 74.204 250.192 74.1524 250.167 74.1266C250.038 74.0234 249.883 73.9202 249.754 73.8428C249.651 73.7654 249.573 73.7138 249.47 73.6364C249.444 73.6106 249.419 73.6106 249.393 73.5848C249.135 73.4043 248.877 73.2495 248.645 73.0947C248.619 73.0947 248.619 73.0689 248.593 73.0689C248.361 72.9141 248.129 72.7851 247.897 72.6562C247.845 72.6304 247.768 72.5788 247.716 72.553C247.535 72.4498 247.355 72.3466 247.2 72.2692C247.174 72.2692 247.174 72.2434 247.148 72.2434C247.123 72.2176 247.097 72.2176 247.071 72.1918C246.865 72.0886 246.684 71.9854 246.478 71.8823C246.452 71.8823 246.426 71.8565 246.4 71.8565C246.4 71.8565 246.375 71.8565 246.375 71.8307C246.168 71.7275 245.962 71.6243 245.755 71.5469C245.73 71.5469 245.704 71.5211 245.704 71.5211C245.678 71.5211 245.652 71.4953 245.626 71.4953C245.42 71.3921 245.188 71.3147 244.982 71.2373C244.775 71.16 244.543 71.0826 244.337 71.0052C244.311 71.0052 244.285 70.9794 244.259 70.9794C244.233 70.9794 244.233 70.9794 244.208 70.9536C244.001 70.8762 243.795 70.8246 243.588 70.7472C243.563 70.7472 243.563 70.7472 243.537 70.7214C243.511 70.7214 243.485 70.7214 243.46 70.6956C243.253 70.644 243.047 70.5666 242.84 70.515H242.815C242.582 70.4634 242.376 70.4118 242.144 70.3603C242.118 70.3603 242.092 70.3603 242.066 70.3345H242.041C241.809 70.2829 241.602 70.2571 241.37 70.2313C241.344 70.2313 241.318 70.2313 241.318 70.2313C241.293 70.2313 241.293 70.2313 241.267 70.2313C241.035 70.2055 240.802 70.1797 240.57 70.1539C240.544 70.1539 240.544 70.1539 240.519 70.1539C240.493 70.1539 240.467 70.1539 240.441 70.1539C240.364 70.1539 240.287 70.1539 240.209 70.1539C240.158 70.1539 240.08 70.1539 240.029 70.1539C239.951 70.1539 239.874 70.1539 239.796 70.1539C239.745 70.1539 239.719 70.1539 239.667 70.1539C239.642 70.1539 239.642 70.1539 239.616 70.1539C239.513 70.1539 239.409 70.1539 239.306 70.1539C239.255 70.1539 239.229 70.1539 239.177 70.1539C239.048 70.1539 238.893 70.1797 238.765 70.1797C238.739 70.1797 238.739 70.1797 238.713 70.1797C238.584 70.2055 238.429 70.2055 238.3 70.2313C238.249 70.2313 238.223 70.2313 238.171 70.2571C237.913 70.1281 237.784 70.1281 237.655 70.1539C237.629 70.1539 237.604 70.1539 237.578 70.1539H237.552C237.371 70.1797 237.165 70.2313 236.985 70.2829C236.959 70.2829 236.933 70.3087 236.881 70.3087C236.701 70.3603 236.52 70.4118 236.34 70.4634C236.314 70.4634 236.314 70.4634 236.288 70.4892C236.262 70.4892 236.236 70.515 236.211 70.515C236.133 70.5408 236.056 70.5666 236.004 70.5924C235.953 70.6182 235.901 70.6182 235.849 70.644C235.772 70.6698 235.695 70.6956 235.643 70.7472C235.592 70.773 235.566 70.7988 235.514 70.7988C235.437 70.8246 235.359 70.8762 235.282 70.902C235.256 70.9278 235.205 70.9278 235.179 70.9536C235.076 71.0052 234.947 71.0826 234.843 71.1342L230.974 73.3785C230.948 73.3527 230.922 73.3269 230.896 73.3011C230.845 73.2495 230.793 73.1979 230.742 73.1463C230.716 73.1205 230.69 73.0947 230.664 73.0689C230.587 72.9915 230.51 72.9141 230.432 72.8625C230.381 72.8109 230.329 72.7851 230.303 72.7336L230.277 72.7078C230.148 72.5788 229.994 72.4756 229.865 72.3466C229.839 72.3208 229.839 72.3208 229.813 72.295C229.684 72.1918 229.581 72.0886 229.452 72.0112C229.426 71.9854 229.4 71.9854 229.4 71.9597C229.349 71.9339 229.297 71.8823 229.246 71.8565C229.168 71.8049 229.117 71.7533 229.039 71.7017C228.988 71.6759 228.962 71.6501 228.91 71.5985C228.859 71.5727 228.807 71.5211 228.755 71.4953C228.73 71.4695 228.678 71.4437 228.652 71.4179C228.575 71.3663 228.472 71.2889 228.394 71.2373C228.368 71.2115 228.317 71.1857 228.291 71.16L228.265 71.1342C228.136 71.0568 228.007 70.9794 227.878 70.902C227.852 70.9278 227.801 70.9278 227.775 70.902C227.672 70.8504 227.569 70.7988 227.491 70.7472C227.466 70.7214 227.414 70.7214 227.388 70.6956C227.337 70.6698 227.285 70.644 227.233 70.6182C227.182 70.5924 227.156 70.5666 227.104 70.5666C227.053 70.5408 226.975 70.515 226.924 70.4892C226.872 70.4634 226.846 70.4376 226.795 70.4376C226.769 70.4376 226.769 70.4118 226.743 70.4118C226.614 70.3603 226.485 70.3087 226.382 70.2571C226.253 70.2055 226.124 70.1539 226.021 70.1281C225.995 70.1281 225.995 70.1281 225.969 70.1023C225.918 70.0765 225.892 70.0765 225.84 70.0507C225.789 70.0249 225.711 69.9991 225.66 69.9991C225.634 69.9991 225.608 69.9733 225.557 69.9733C225.505 69.9475 225.453 69.9475 225.402 69.9217C225.35 69.9217 225.324 69.8959 225.273 69.8959C225.221 69.8959 225.195 69.8701 225.144 69.8701C225.092 69.8701 225.041 69.8443 224.989 69.8443C224.963 69.8443 224.937 69.8185 224.912 69.8185C224.86 69.8185 224.808 69.7927 224.757 69.7927C224.705 69.7927 224.628 69.7669 224.576 69.7669C224.55 69.7669 224.525 69.7669 224.499 69.7669C224.447 69.7669 224.396 69.7669 224.344 69.7411C224.267 69.7411 224.215 69.7153 224.138 69.7153C224.112 69.7153 224.086 69.7153 224.086 69.7153C224.035 69.7153 224.009 69.7153 223.957 69.7153C223.88 69.7153 223.802 69.7153 223.725 69.7153C223.699 69.7153 223.673 69.7153 223.648 69.7153C223.622 69.7153 223.57 69.7153 223.544 69.7153C223.441 69.7153 223.338 69.7153 223.261 69.7411C223.235 69.7411 223.209 69.7411 223.183 69.7411C223.157 69.7411 223.132 69.7411 223.132 69.7411C222.977 69.7669 222.848 69.7669 222.693 69.7927H222.667C222.642 69.7927 222.616 69.8185 222.59 69.8185C222.513 69.8443 222.409 69.8701 222.332 69.8959C222.28 69.8959 222.255 69.9217 222.203 69.9475C222.151 69.9733 222.1 69.9733 222.048 69.9991C222.022 69.9991 222.022 69.9991 221.997 70.0249C221.919 70.0507 221.842 70.1023 221.764 70.1281C221.713 70.1539 221.687 70.1539 221.635 70.1797C221.506 70.2313 221.403 70.2829 221.3 70.3603L206.648 78.7184C206.751 78.641 206.88 78.5894 206.983 78.5378C207.009 78.512 207.06 78.512 207.112 78.4862C207.189 78.4604 207.267 78.4088 207.344 78.383C207.421 78.3572 207.473 78.3315 207.55 78.3057C207.602 78.2799 207.628 78.2799 207.679 78.2541C207.757 78.2283 207.86 78.2025 207.937 78.2025C207.963 78.2025 207.989 78.1767 208.015 78.1767C208.041 78.1767 208.041 78.1767 208.066 78.1767C208.195 78.1509 208.35 78.1251 208.505 78.1251C208.557 78.1251 208.608 78.1251 208.66 78.0993C208.763 78.0993 208.84 78.0993 208.943 78.0735C208.995 78.0735 209.047 78.0735 209.098 78.0735C209.176 78.0735 209.253 78.0735 209.33 78.0735C209.382 78.0735 209.459 78.0735 209.511 78.0735C209.588 78.0735 209.64 78.0993 209.717 78.0993C209.795 78.0993 209.872 78.1251 209.924 78.1251C209.975 78.1251 210.053 78.1509 210.104 78.1509C210.182 78.1767 210.259 78.1767 210.336 78.2025C210.388 78.2025 210.44 78.2283 210.491 78.2283C210.569 78.2541 210.672 78.2799 210.749 78.2799C210.801 78.3057 210.852 78.3057 210.904 78.3315C211.007 78.3572 211.085 78.383 211.188 78.4088C211.239 78.4346 211.265 78.4346 211.317 78.4604C211.601 78.5636 211.884 78.6668 212.168 78.7958C212.22 78.8216 212.245 78.8474 212.297 78.8474C212.4 78.899 212.503 78.9506 212.607 79.0022C212.658 79.028 212.71 79.0538 212.761 79.0796C212.89 79.1569 213.019 79.2343 213.174 79.3117C213.355 79.4149 213.509 79.5181 213.69 79.6213C213.716 79.6471 213.767 79.6729 213.793 79.6987C213.922 79.7761 214.051 79.8535 214.18 79.9566C214.232 79.9824 214.283 80.034 214.335 80.0598C214.438 80.1372 214.567 80.2146 214.67 80.3178C214.722 80.3436 214.774 80.3952 214.825 80.421C214.954 80.5242 215.109 80.6532 215.238 80.7563C215.264 80.7821 215.264 80.7821 215.289 80.8079C215.444 80.9369 215.599 81.0659 215.754 81.2207C215.805 81.2723 215.857 81.2981 215.883 81.3497C215.986 81.4529 216.089 81.556 216.192 81.6592C216.244 81.7108 216.296 81.7624 216.347 81.814C216.45 81.9172 216.528 82.0204 216.631 82.0978C216.682 82.1494 216.734 82.201 216.786 82.2526C216.915 82.3815 217.044 82.5363 217.173 82.6911L224.473 78.4346C224.499 78.4346 224.525 78.4346 224.55 78.4346C224.654 78.4346 224.757 78.4346 224.86 78.4346C224.912 78.4346 224.989 78.4346 225.041 78.4346C225.118 78.4346 225.195 78.4346 225.273 78.4346C225.324 78.4346 225.402 78.4346 225.453 78.4346C225.531 78.4346 225.608 78.4346 225.686 78.4346C225.737 78.4346 225.789 78.4346 225.815 78.4346C226.047 78.4604 226.279 78.4862 226.511 78.512C226.537 78.512 226.588 78.512 226.614 78.5378C226.846 78.5636 227.053 78.6152 227.285 78.641C227.311 78.641 227.362 78.6668 227.388 78.6668C227.62 78.7184 227.827 78.77 228.059 78.8216H228.085C228.291 78.8732 228.497 78.9248 228.704 79.0022C228.73 79.0022 228.781 79.028 228.807 79.028C229.013 79.0796 229.22 79.1569 229.426 79.2343C229.478 79.2601 229.503 79.2601 229.555 79.2859C229.761 79.3633 229.968 79.4407 230.2 79.5181C230.406 79.5955 230.613 79.6987 230.845 79.7761C230.896 79.8019 230.948 79.8277 230.974 79.8277C231.18 79.9309 231.387 80.0082 231.593 80.1114C231.619 80.1372 231.67 80.1372 231.696 80.163C231.877 80.2662 232.083 80.3694 232.29 80.4726C232.341 80.4984 232.367 80.5242 232.419 80.55C232.599 80.6532 232.754 80.7305 232.934 80.8337C233.218 81.0143 233.528 81.1691 233.812 81.3497C233.837 81.3497 233.837 81.3755 233.863 81.3755C234.147 81.556 234.431 81.7366 234.689 81.943C234.792 82.0204 234.869 82.072 234.972 82.1494C235.153 82.2784 235.334 82.4073 235.514 82.5621C235.617 82.6395 235.746 82.7427 235.849 82.8201C236.004 82.9491 236.185 83.0781 236.34 83.207C236.469 83.3102 236.572 83.4134 236.701 83.4908C236.856 83.6198 237.01 83.7488 237.165 83.8778C237.294 83.9809 237.423 84.0841 237.526 84.1873C237.681 84.3163 237.836 84.4711 237.991 84.6001C238.12 84.7033 238.223 84.8322 238.352 84.9354C238.507 85.0902 238.661 85.2192 238.816 85.374C238.919 85.4772 239.048 85.6061 239.151 85.7093C239.306 85.8641 239.461 86.0189 239.616 86.1995C239.719 86.3026 239.822 86.4058 239.925 86.509C240.106 86.6896 240.287 86.896 240.467 87.1023C240.544 87.1797 240.622 87.2571 240.673 87.3345C240.931 87.6183 241.164 87.902 241.396 88.1858C241.447 88.2374 241.473 88.289 241.525 88.3406C241.731 88.5728 241.938 88.8307 242.118 89.0887C242.376 89.4241 242.608 89.7336 242.866 90.069C242.866 90.069 242.866 90.069 242.892 90.0948C243.098 90.3785 243.331 90.6881 243.537 90.9977C243.614 91.1008 243.666 91.1782 243.743 91.2814C243.872 91.4878 244.027 91.6684 244.156 91.8747C244.285 92.0553 244.388 92.2359 244.517 92.4165C244.62 92.5713 244.724 92.7518 244.827 92.9066C244.93 93.0872 245.059 93.2678 245.162 93.4741C245.265 93.6547 245.368 93.8353 245.472 94.0159C245.523 94.1191 245.575 94.1965 245.626 94.2996C245.755 94.5318 245.884 94.764 246.013 95.022C246.065 95.0993 246.117 95.2025 246.142 95.2799C246.246 95.4605 246.349 95.6411 246.426 95.8217C246.529 96.0022 246.607 96.1828 246.71 96.3634C246.839 96.6214 246.968 96.8793 247.097 97.1373C247.123 97.2147 247.174 97.2921 247.2 97.3695C247.355 97.7048 247.51 98.0402 247.639 98.3497C247.69 98.4271 247.716 98.5303 247.742 98.6077C247.845 98.8399 247.948 99.0978 248.051 99.3558C248.103 99.459 248.155 99.588 248.18 99.6912C248.284 99.9233 248.361 100.156 248.464 100.413C248.49 100.517 248.541 100.62 248.567 100.723C248.67 101.033 248.799 101.342 248.903 101.678C248.903 101.703 248.928 101.729 248.928 101.755C249.032 102.09 249.161 102.451 249.264 102.787C249.29 102.89 249.341 103.019 249.367 103.122C249.444 103.354 249.496 103.586 249.573 103.819C249.599 103.948 249.651 104.077 249.677 104.206C249.728 104.438 249.78 104.644 249.831 104.876C249.857 105.005 249.883 105.134 249.934 105.263C249.986 105.495 250.038 105.728 250.089 105.934C250.115 106.063 250.141 106.166 250.167 106.295C250.218 106.605 250.27 106.888 250.321 107.172C250.321 107.224 250.347 107.25 250.347 107.301C250.399 107.637 250.45 107.972 250.476 108.307C250.476 108.41 250.502 108.488 250.502 108.591C250.528 108.823 250.554 109.081 250.579 109.313C250.579 109.417 250.605 109.546 250.605 109.649C250.631 109.881 250.631 110.113 250.657 110.319C250.657 110.423 250.657 110.526 250.683 110.655C250.683 110.964 250.708 111.3 250.708 111.609C250.708 111.893 250.708 112.177 250.683 112.435V112.461C250.683 112.744 250.657 113.028 250.631 113.312C250.734 113.415 250.863 113.518 250.966 113.621C251.044 113.699 251.147 113.776 251.224 113.879C251.276 113.931 251.353 114.008 251.405 114.06C251.482 114.137 251.585 114.241 251.663 114.318C251.714 114.37 251.792 114.447 251.843 114.499C251.921 114.576 251.998 114.679 252.101 114.756C252.153 114.808 252.23 114.885 252.282 114.937C252.359 115.014 252.437 115.118 252.54 115.221C252.592 115.272 252.643 115.35 252.695 115.401C252.772 115.505 252.875 115.608 252.953 115.711C253.004 115.763 253.056 115.814 253.107 115.892C253.236 116.046 253.391 116.227 253.52 116.382C253.546 116.407 253.546 116.433 253.572 116.459C253.701 116.614 253.804 116.769 253.933 116.923C253.959 116.975 253.985 117.001 254.036 117.052C254.243 117.336 254.449 117.62 254.63 117.904C254.655 117.929 254.681 117.981 254.707 118.007C254.81 118.187 254.939 118.342 255.042 118.523C255.094 118.574 255.12 118.652 255.171 118.703C255.274 118.884 255.403 119.065 255.507 119.245C255.532 119.271 255.558 119.323 255.584 119.348C255.739 119.606 255.868 119.864 256.023 120.122C256.048 120.2 256.1 120.251 256.126 120.329C256.177 120.458 256.255 120.561 256.306 120.69C256.358 120.767 256.384 120.845 256.435 120.922C256.487 121.025 256.538 121.102 256.564 121.206C256.616 121.309 256.642 121.386 256.693 121.489C256.719 121.567 256.771 121.644 256.796 121.747C256.848 121.851 256.874 121.954 256.925 122.057C256.951 122.134 257.003 122.212 257.029 122.289C257.08 122.392 257.106 122.496 257.158 122.599C257.183 122.676 257.235 122.753 257.261 122.831C257.312 122.934 257.338 123.037 257.39 123.14C257.416 123.218 257.441 123.295 257.493 123.398C257.519 123.502 257.57 123.605 257.596 123.708C257.622 123.785 257.648 123.889 257.699 123.966C257.725 124.069 257.777 124.172 257.803 124.25C257.828 124.353 257.854 124.43 257.88 124.533C257.906 124.637 257.931 124.714 257.957 124.817C257.983 124.92 258.009 124.998 258.035 125.101C258.06 125.204 258.086 125.282 258.112 125.385C258.138 125.488 258.164 125.565 258.189 125.669C258.215 125.772 258.241 125.849 258.267 125.952C258.293 126.055 258.318 126.133 258.344 126.236C258.37 126.339 258.396 126.417 258.396 126.52C258.422 126.623 258.422 126.7 258.447 126.804C258.473 126.907 258.473 126.984 258.499 127.087C258.525 127.165 258.525 127.268 258.551 127.345C258.576 127.448 258.576 127.552 258.602 127.655C258.602 127.732 258.628 127.835 258.628 127.913C258.654 128.016 258.654 128.119 258.654 128.222C258.654 128.3 258.68 128.377 258.68 128.455C258.68 128.558 258.705 128.661 258.705 128.764C258.705 128.842 258.731 128.919 258.731 128.996C258.731 129.099 258.731 129.203 258.757 129.306C258.757 129.383 258.757 129.461 258.757 129.512C258.757 129.693 258.757 129.848 258.757 130.028C258.757 130.235 258.757 130.415 258.731 130.621C258.731 130.673 258.731 130.725 258.731 130.776C258.731 130.905 258.705 131.034 258.705 131.163C258.705 131.241 258.68 131.318 258.68 131.395C258.68 131.499 258.654 131.602 258.628 131.731C258.628 131.808 258.602 131.886 258.602 131.963C258.576 132.066 258.576 132.169 258.551 132.247C258.525 132.324 258.525 132.427 258.499 132.505C258.473 132.582 258.473 132.685 258.447 132.763C258.422 132.866 258.396 132.969 258.37 133.046C258.344 133.124 258.318 133.201 258.293 133.279C258.267 133.408 258.215 133.511 258.189 133.614C258.164 133.666 258.138 133.743 258.138 133.794C258.06 133.975 257.983 134.156 257.906 134.336C257.854 134.465 257.777 134.594 257.699 134.723C257.622 134.852 257.545 134.981 257.467 135.11C257.441 135.136 257.441 135.162 257.416 135.188C257.364 135.291 257.287 135.368 257.235 135.445C257.209 135.471 257.183 135.523 257.158 135.549C257.106 135.626 257.029 135.703 256.977 135.781C256.951 135.807 256.925 135.832 256.9 135.858C256.822 135.961 256.719 136.039 256.642 136.142C256.616 136.142 256.616 136.168 256.59 136.168C256.513 136.245 256.435 136.323 256.332 136.4C256.306 136.426 256.28 136.452 256.229 136.477C256.152 136.529 256.074 136.581 255.997 136.658C255.971 136.684 255.945 136.71 255.894 136.735C255.79 136.813 255.687 136.864 255.584 136.942L270.133 128.48C270.237 128.429 270.34 128.351 270.443 128.274C270.469 128.248 270.494 128.222 270.546 128.197C270.623 128.145 270.701 128.093 270.778 128.016C270.804 127.99 270.83 127.964 270.881 127.939C270.959 127.861 271.036 127.784 271.139 127.706C271.165 127.706 271.165 127.681 271.191 127.681C271.294 127.603 271.372 127.5 271.449 127.397C271.475 127.371 271.501 127.345 271.526 127.32C271.578 127.242 271.655 127.165 271.707 127.087C271.733 127.062 271.759 127.01 271.784 126.984C271.836 126.907 271.913 126.804 271.965 126.726C271.991 126.7 271.991 126.675 272.017 126.649C272.017 126.649 272.017 126.623 272.042 126.623C272.197 126.391 272.326 126.133 272.455 125.875C272.455 125.875 272.455 125.875 272.455 125.849C272.532 125.669 272.61 125.488 272.687 125.307C272.687 125.282 272.713 125.282 272.713 125.256C272.739 125.204 272.739 125.153 272.765 125.127C272.816 125.024 272.842 124.895 272.868 124.791C272.868 124.766 272.894 124.74 272.894 124.688C272.894 124.637 272.919 124.585 272.919 124.559C272.945 124.456 272.971 124.353 272.997 124.275C272.997 124.224 273.023 124.198 273.023 124.146C273.023 124.095 273.048 124.043 273.048 124.018C273.074 123.94 273.074 123.837 273.1 123.76C273.1 123.708 273.126 123.682 273.126 123.631C273.126 123.579 273.152 123.527 273.152 123.476C273.152 123.398 273.177 123.321 273.177 123.244C273.177 123.192 273.177 123.166 273.203 123.115C273.203 123.037 273.229 122.986 273.229 122.908C273.229 122.831 273.255 122.753 273.255 122.676C273.255 122.65 273.255 122.624 273.255 122.599C273.255 122.496 273.281 122.392 273.281 122.289C273.281 122.238 273.281 122.186 273.281 122.134C273.281 122.109 273.281 122.109 273.281 122.083C273.281 121.902 273.281 121.747 273.281 121.567V121.541C273.384 121.489 273.358 121.335 273.358 121.18Z"
          fill="#14BAA9"/>
    <path d="M233.035 80.8903C242.889 86.5914 250.861 100.367 250.809 111.692C250.809 112.285 250.783 112.853 250.732 113.394C255.401 117.47 258.832 124.306 258.806 130.111C258.78 136.972 253.93 139.733 247.971 136.276L207.909 113.162C201.95 109.705 197.126 101.373 197.152 94.511C197.177 89.2227 200.067 86.3593 204.143 86.9268C204.014 86.1529 203.962 85.379 203.962 84.6309C203.988 78.775 208.141 76.4017 213.223 79.3425C214.642 80.168 216.009 81.3289 217.196 82.6703C220.24 77.9237 226.173 76.9434 233.035 80.8903Z"
          fill="#16D2BF"/>
    <path opacity="0.4" fill-rule="evenodd" clip-rule="evenodd"
          d="M295.891 1.02197H170.69V116.246H170.693C170.649 116.836 170.627 117.428 170.627 118.024C170.627 139.136 198.687 156.25 233.302 156.25C267.917 156.25 295.978 139.136 295.978 118.024C295.978 117.346 295.949 116.671 295.891 116.001V1.02197Z"
          fill="url(#paint21_linear_14176_516577)"/>
    <path opacity="0.5" fill-rule="evenodd" clip-rule="evenodd"
          d="M295.891 1.02197H170.69V116.246H170.693C170.649 116.836 170.627 117.428 170.627 118.024C170.627 139.136 198.687 156.25 233.302 156.25C267.917 156.25 295.978 139.136 295.978 118.024C295.978 117.346 295.949 116.671 295.891 116.001V1.02197Z"
          fill="url(#paint22_linear_14176_516577)"/>
    <ellipse cx="124.49" cy="168.713" rx="4.87934" ry="3.12423" fill="#1DB5A5"/>
    <ellipse cx="124.49" cy="165.589" rx="4.87934" ry="3.12423" fill="#65D6CA"/>
    <path d="M129.369 143.758H119.611V165.589C119.611 165.589 119.611 165.589 119.611 165.589C119.611 167.314 121.795 168.713 124.49 168.713C127.185 168.713 129.369 167.314 129.369 165.589C129.369 165.577 129.369 165.566 129.369 165.554V143.758Z"
          fill="url(#paint23_linear_14176_516577)"/>
    <path opacity="0.4"
          d="M129.369 143.758H119.611V165.589C119.611 165.589 119.611 165.589 119.611 165.589C119.611 167.314 121.795 168.713 124.49 168.713C127.185 168.713 129.369 167.314 129.369 165.589C129.369 165.577 129.369 165.566 129.369 165.554V143.758Z"
          fill="url(#paint24_linear_14176_516577)"/>
    <ellipse cx="235.252" cy="229.844" rx="4.87934" ry="3.12423" fill="#1DB5A5"/>
    <ellipse cx="235.252" cy="226.721" rx="4.87934" ry="3.12423" fill="#65D6CA"/>
    <path d="M240.131 204.889H230.373V226.72C230.373 226.72 230.373 226.72 230.373 226.72C230.373 228.446 232.558 229.845 235.252 229.845C237.947 229.845 240.132 228.446 240.132 226.72C240.132 226.709 240.132 226.697 240.131 226.686V204.889Z"
          fill="url(#paint25_linear_14176_516577)"/>
    <path opacity="0.4"
          d="M240.131 204.889H230.373V226.72C230.373 226.72 230.373 226.72 230.373 226.72C230.373 228.446 232.558 229.845 235.252 229.845C237.947 229.845 240.132 228.446 240.132 226.72C240.132 226.709 240.132 226.697 240.131 226.686V204.889Z"
          fill="url(#paint26_linear_14176_516577)"/>
    <ellipse cx="346.851" cy="167.167" rx="4.87934" ry="3.12423" fill="#1DB5A5"/>
    <ellipse cx="346.851" cy="164.042" rx="4.87934" ry="3.12423" fill="#65D6CA"/>
    <path d="M351.731 142.211H341.972V164.042C341.972 164.042 341.972 164.042 341.972 164.042C341.972 165.768 344.157 167.167 346.852 167.167C349.547 167.167 351.731 165.768 351.731 164.042C351.731 164.031 351.731 164.019 351.731 164.008V142.211Z"
          fill="url(#paint27_linear_14176_516577)"/>
    <path opacity="0.4"
          d="M351.731 142.211H341.972V164.042C341.972 164.042 341.972 164.042 341.972 164.042C341.972 165.768 344.157 167.167 346.852 167.167C349.547 167.167 351.731 165.768 351.731 164.042C351.731 164.031 351.731 164.019 351.731 164.008V142.211Z"
          fill="url(#paint28_linear_14176_516577)"/>
    <path d="M440.913 131.912C441.094 132.016 441.094 132.277 440.914 132.381L397.313 157.712C397.229 157.76 397.125 157.761 397.041 157.712L353.095 132.375C352.914 132.271 352.914 132.01 353.094 131.905L396.695 106.575C396.779 106.526 396.883 106.526 396.967 106.574L440.913 131.912Z"
          fill="#EFF4F9" stroke="white" stroke-width="1.628"/>
    <path d="M430.503 124.945L397.126 144.336L363.496 124.945L396.872 105.555L430.503 124.945Z" fill="white"/>
    <path d="M430.498 116.036L397.121 135.426L363.491 116.036L396.867 96.6455L430.498 116.036Z" fill="white"/>
    <path d="M430.51 124.946L430.51 131.339L397.133 150.729L397.134 144.336L430.51 124.946Z"
          fill="url(#paint29_linear_14176_516577)"/>
    <path d="M430.502 116.034L430.502 122.428L397.126 141.818L397.126 135.424L430.502 116.034Z"
          fill="url(#paint30_linear_14176_516577)"/>
    <path d="M397.126 144.365V150.73L363.496 131.34V124.975L397.126 144.365Z" fill="url(#paint31_linear_14176_516577)"/>
    <path d="M397.12 135.455V141.82L363.49 122.43V116.065L397.12 135.455Z" fill="url(#paint32_linear_14176_516577)"/>
    <path d="M405.598 114.018L405.568 126.204L384.384 114.018L384.384 101.832L405.598 114.018Z" fill="#65E9DB"/>
    <path fill-rule="evenodd" clip-rule="evenodd"
          d="M387.492 100.248L384.386 101.832L405.597 114.016L405.596 114.016L405.566 126.206L408.695 124.157V112.409L408.662 112.426L387.492 100.248Z"
          fill="#14BAA9"/>
    <path opacity="0.4" d="M430.622 116.035L397.246 135.425L363.615 116.035V63.8162H430.622V116.035Z"
          fill="url(#paint33_linear_14176_516577)"/>
    <path d="M392.395 101.444L392.37 111.805L374.359 101.444L374.358 91.0833L392.395 101.444Z" fill="#A3FBF2"/>
    <path d="M374.361 91.0814L377.002 89.7344L395.013 100.095L392.397 101.442L374.361 91.0814Z"
          fill="url(#paint34_linear_14176_516577)"/>
    <path d="M392.393 101.44L395.028 100.074V110.062L392.368 111.804L392.393 101.44Z" fill="#37D9CA"/>
    <path d="M378.195 96.4127L378.186 100.247L376.933 99.4223L376.933 95.5881L378.195 96.4127Z" fill="white"
          fill-opacity="0.3"/>
    <path d="M380.47 97.6722L380.461 101.506L379.208 100.682L379.208 96.8477L380.47 97.6722Z" fill="white"
          fill-opacity="0.3"/>
    <path d="M387.283 101.677L387.273 105.511L386.021 104.686L386.021 100.852L387.283 101.677Z" fill="white"
          fill-opacity="0.3"/>
    <path d="M382.744 99.0106L382.734 102.845L381.482 102.02L381.482 98.186L382.744 99.0106Z" fill="white"
          fill-opacity="0.3"/>
    <path d="M389.551 105.608L389.541 106.885L388.289 106.061L388.289 104.784L389.551 105.608Z" fill="white"
          fill-opacity="0.3"/>
    <path d="M385.013 102.064L385.013 104.159L383.761 103.335L383.751 101.239L385.013 102.064Z" fill="white"
          fill-opacity="0.3"/>
    <path d="M384.684 103.33L384.659 113.69L366.648 103.33L366.648 92.969L384.684 103.33Z"
          fill="url(#paint35_linear_14176_516577)"/>
    <g opacity="0.3">
        <ellipse cx="400.311" cy="104.267" rx="3.29147" ry="1.98566" fill="url(#paint36_linear_14176_516577)"/>
        <path d="M403.584 98.8232C403.584 98.8207 403.584 98.8182 403.584 98.8157C403.584 97.7191 402.11 96.8301 400.292 96.8301C398.474 96.8301 397.001 97.7191 397.001 98.8157V104.267H403.584V98.8232Z"
              fill="url(#paint37_linear_14176_516577)"/>
        <ellipse cx="400.31" cy="98.8155" rx="3.29147" ry="1.98566" fill="url(#paint38_linear_14176_516577)"/>
    </g>
    <g opacity="0.3">
        <ellipse cx="409.788" cy="109.015" rx="3.29147" ry="1.98566" fill="url(#paint39_linear_14176_516577)"/>
        <path d="M413.062 103.571C413.062 103.569 413.062 103.567 413.062 103.564C413.062 102.467 411.589 101.578 409.771 101.578C407.953 101.578 406.48 102.467 406.48 103.564V109.016H413.062V103.571Z"
              fill="url(#paint40_linear_14176_516577)"/>
        <ellipse cx="409.789" cy="103.564" rx="3.29147" ry="1.98566" fill="url(#paint41_linear_14176_516577)"/>
    </g>
    <g opacity="0.3">
        <ellipse cx="419.273" cy="113.69" rx="3.29147" ry="1.98566" fill="url(#paint42_linear_14176_516577)"/>
        <path d="M422.542 108.246C422.542 108.244 422.542 108.241 422.542 108.239C422.542 107.142 421.068 106.253 419.251 106.253C417.433 106.253 415.959 107.142 415.959 108.239V113.69H422.542V108.246Z"
              fill="url(#paint43_linear_14176_516577)"/>
        <ellipse cx="419.272" cy="108.239" rx="3.29147" ry="1.98566" fill="url(#paint44_linear_14176_516577)"/>
    </g>
    <path d="M152.253 111.434C152.433 111.538 152.434 111.799 152.254 111.903L106.332 138.582C106.248 138.63 106.145 138.63 106.061 138.582L59.7771 111.897C59.5964 111.793 59.5959 111.532 59.7763 111.427L105.698 84.7491C105.781 84.7003 105.885 84.7001 105.969 84.7487L152.253 111.434Z"
          fill="#EFF5FB" stroke="white" stroke-width="1.628"/>
    <path d="M141.212 104.103L106.144 124.476L70.8085 104.103L105.877 83.7297L141.212 104.103Z" fill="#F9FBFD"/>
    <path d="M141.205 94.7401L106.137 115.113L70.8013 94.7401L105.869 74.3672L141.205 94.7401Z" fill="white"/>
    <path d="M141.221 104.102L141.221 110.819L106.153 131.192L106.153 124.475L141.221 104.102Z"
          fill="url(#paint45_linear_14176_516577)"/>
    <path d="M141.34 94.7402L141.34 101.458L106.272 121.831L106.272 115.113L141.34 94.7402Z"
          fill="url(#paint46_linear_14176_516577)"/>
    <path d="M106.144 124.507V131.194L70.8085 110.821V104.134L106.144 124.507Z"
          fill="url(#paint47_linear_14176_516577)"/>
    <path d="M106.268 115.144V121.831L70.9321 101.459V94.7712L106.268 115.144Z"
          fill="url(#paint48_linear_14176_516577)"/>
    <g opacity="0.7">
        <path d="M117.911 87.1583L117.891 95.5838L103.208 87.117L103.228 78.6914L117.911 87.1583Z" fill="#16D2BF"/>
        <path fill-rule="evenodd" clip-rule="evenodd"
              d="M107.6 76.1736L103.23 78.693L117.911 87.1589L117.891 95.5841L122.26 93.044L122.302 84.6207L122.303 84.6198L122.302 84.6189L122.302 84.6185L122.302 84.6187L107.6 76.1736Z"
              fill="#14BAA9"/>
        <path d="M111.58 77.5573L111.517 99.4472L96.8344 91.001L96.8965 69.1111L111.58 77.5573Z" fill="#16D2BF"/>
        <path fill-rule="evenodd" clip-rule="evenodd"
              d="M101.27 66.5701L96.9005 69.1101L111.584 77.5563L115.974 75.0369L101.27 66.5701ZM115.971 75.0389L111.58 77.5584L111.518 99.4483L115.908 96.9082L115.971 75.0389Z"
              fill="#14BAA9"/>
        <path d="M104.745 86.9535L104.683 103.784L90.0002 95.3378L90.0416 78.5073L104.745 86.9535Z" fill="#16D2BF"/>
        <path fill-rule="evenodd" clip-rule="evenodd"
              d="M94.4355 75.9666L90.045 78.5066L104.746 86.9511L104.746 86.9513L104.683 103.782L109.074 101.262L109.115 84.4147L109.119 84.4128L94.4355 75.9666Z"
              fill="#14BAA9"/>
    </g>
    <path opacity="0.4" d="M141.34 94.7403L106.272 115.113L70.9362 94.7403V39.8748H141.34V94.7403Z"
          fill="url(#paint49_linear_14176_516577)"/>
    <path opacity="0.4" d="M141.34 94.7403L106.2 115.146L70.9362 94.7403V39.8748H141.34V94.7403Z"
          fill="url(#paint50_linear_14176_516577)"/>
    <defs>
        <linearGradient id="paint0_linear_14176_516577" x1="345.701" y1="138.622" x2="138.003" y2="243.949"
                        gradientUnits="userSpaceOnUse">
            <stop stop-color="#EFF4F9"/>
            <stop offset="1" stop-color="white"/>
        </linearGradient>
        <linearGradient id="paint1_linear_14176_516577" x1="409.274" y1="143.316" x2="279.313" y2="282.81"
                        gradientUnits="userSpaceOnUse">
            <stop stop-color="#F2F9FF"/>
            <stop offset="1" stop-color="#B5C3D6"/>
        </linearGradient>
        <linearGradient id="paint2_linear_14176_516577" x1="47.4047" y1="140.855" x2="230.47" y2="278.967"
                        gradientUnits="userSpaceOnUse">
            <stop stop-color="#EFF4F9"/>
            <stop offset="1" stop-color="#B8C5D8"/>
        </linearGradient>
        <linearGradient id="paint3_linear_14176_516577" x1="399.864" y1="201.593" x2="363.259" y2="220.156"
                        gradientUnits="userSpaceOnUse">
            <stop stop-color="#EFF4F9"/>
            <stop offset="1" stop-color="white"/>
        </linearGradient>
        <linearGradient id="paint4_linear_14176_516577" x1="409.862" y1="209.754" x2="381.699" y2="235.855"
                        gradientUnits="userSpaceOnUse">
            <stop stop-color="#F2F9FF"/>
            <stop offset="1" stop-color="#C0CBDD"/>
        </linearGradient>
        <linearGradient id="paint5_linear_14176_516577" x1="409.862" y1="198.899" x2="381.699" y2="225.001"
                        gradientUnits="userSpaceOnUse">
            <stop stop-color="#F2F9FF"/>
            <stop offset="1" stop-color="#C0CBDD"/>
        </linearGradient>
        <linearGradient id="paint6_linear_14176_516577" x1="333.29" y1="213.251" x2="383.481" y2="236.592"
                        gradientUnits="userSpaceOnUse">
            <stop stop-color="#EFF4F9"/>
            <stop offset="1" stop-color="#BDC9DB"/>
        </linearGradient>
        <linearGradient id="paint7_linear_14176_516577" x1="333.29" y1="202.396" x2="383.481" y2="225.737"
                        gradientUnits="userSpaceOnUse">
            <stop stop-color="#EFF4F9"/>
            <stop offset="1" stop-color="#BDC9DB"/>
        </linearGradient>
        <linearGradient id="paint8_linear_14176_516577" x1="323.755" y1="56.2692" x2="303.464" y2="66.5591"
                        gradientUnits="userSpaceOnUse">
            <stop stop-color="#EFF4F9"/>
            <stop offset="1" stop-color="white"/>
        </linearGradient>
        <linearGradient id="paint9_linear_14176_516577" x1="329.297" y1="60.7941" x2="313.685" y2="75.2628"
                        gradientUnits="userSpaceOnUse">
            <stop stop-color="#F2F9FF"/>
            <stop offset="1" stop-color="#C0CBDD"/>
        </linearGradient>
        <linearGradient id="paint10_linear_14176_516577" x1="329.297" y1="54.777" x2="313.685" y2="69.2457"
                        gradientUnits="userSpaceOnUse">
            <stop stop-color="#F2F9FF"/>
            <stop offset="1" stop-color="#C0CBDD"/>
        </linearGradient>
        <linearGradient id="paint11_linear_14176_516577" x1="286.851" y1="62.7322" x2="314.673" y2="75.6709"
                        gradientUnits="userSpaceOnUse">
            <stop stop-color="#EFF4F9"/>
            <stop offset="1" stop-color="#BDC9DB"/>
        </linearGradient>
        <linearGradient id="paint12_linear_14176_516577" x1="286.851" y1="56.7153" x2="314.673" y2="69.6541"
                        gradientUnits="userSpaceOnUse">
            <stop stop-color="#EFF4F9"/>
            <stop offset="1" stop-color="#BDC9DB"/>
        </linearGradient>
        <linearGradient id="paint13_linear_14176_516577" x1="320.449" y1="161.91" x2="155.222" y2="139.602"
                        gradientUnits="userSpaceOnUse">
            <stop stop-color="#B1BFD3"/>
            <stop offset="1" stop-color="#E2E7EE"/>
        </linearGradient>
        <linearGradient id="paint14_linear_14176_516577" x1="310.205" y1="141.125" x2="159.173" y2="141.125"
                        gradientUnits="userSpaceOnUse">
            <stop stop-color="#F2F6FB"/>
            <stop offset="1" stop-color="#FDFEFF"/>
        </linearGradient>
        <linearGradient id="paint15_linear_14176_516577" x1="310.205" y1="141.125" x2="159.173" y2="141.125"
                        gradientUnits="userSpaceOnUse">
            <stop stop-color="#F2F6FB"/>
            <stop offset="1" stop-color="#FDFEFF"/>
        </linearGradient>
        <linearGradient id="paint16_linear_14176_516577" x1="220.595" y1="167.493" x2="315.614" y2="108.208"
                        gradientUnits="userSpaceOnUse">
            <stop stop-color="#B6C3D7"/>
            <stop offset="1" stop-color="#EFF4F9"/>
        </linearGradient>
        <linearGradient id="paint17_linear_14176_516577" x1="163.706" y1="132.813" x2="295.977" y2="130.471"
                        gradientUnits="userSpaceOnUse">
            <stop stop-color="#EFF5FB"/>
            <stop offset="1" stop-color="#F6F9FD"/>
        </linearGradient>
        <linearGradient id="paint18_linear_14176_516577" x1="163.706" y1="130.367" x2="295.977" y2="128.025"
                        gradientUnits="userSpaceOnUse">
            <stop offset="0.124346" stop-color="#EEF4FA"/>
            <stop offset="1" stop-color="#B8C5D8"/>
        </linearGradient>
        <linearGradient id="paint19_linear_14176_516577" x1="301.353" y1="98.7381" x2="182.911" y2="166.601"
                        gradientUnits="userSpaceOnUse">
            <stop stop-color="#EFF4F9"/>
            <stop offset="1" stop-color="white"/>
        </linearGradient>
        <linearGradient id="paint20_linear_14176_516577" x1="186.639" y1="118.304" x2="287.45" y2="124.442"
                        gradientUnits="userSpaceOnUse">
            <stop stop-color="#FDFEFF"/>
            <stop offset="1" stop-color="#E5EAF1"/>
        </linearGradient>
        <linearGradient id="paint21_linear_14176_516577" x1="233.302" y1="1.02197" x2="233.302" y2="156.25"
                        gradientUnits="userSpaceOnUse">
            <stop stop-color="white" stop-opacity="0"/>
            <stop offset="1" stop-color="#5CD2C5" stop-opacity="0.58"/>
        </linearGradient>
        <linearGradient id="paint22_linear_14176_516577" x1="233.302" y1="1.02197" x2="233.302" y2="156.25"
                        gradientUnits="userSpaceOnUse">
            <stop stop-color="white" stop-opacity="0"/>
            <stop offset="1" stop-color="#5CD2C5" stop-opacity="0.58"/>
        </linearGradient>
        <linearGradient id="paint23_linear_14176_516577" x1="124.49" y1="168.713" x2="124.49" y2="143.758"
                        gradientUnits="userSpaceOnUse">
            <stop stop-color="#119E8F" stop-opacity="0.31"/>
            <stop offset="1" stop-color="#119E8F" stop-opacity="0"/>
        </linearGradient>
        <linearGradient id="paint24_linear_14176_516577" x1="124.49" y1="168.713" x2="124.49" y2="143.758"
                        gradientUnits="userSpaceOnUse">
            <stop stop-color="#119E8F" stop-opacity="0.31"/>
            <stop offset="1" stop-color="#119E8F" stop-opacity="0"/>
        </linearGradient>
        <linearGradient id="paint25_linear_14176_516577" x1="235.252" y1="229.845" x2="235.252" y2="204.889"
                        gradientUnits="userSpaceOnUse">
            <stop stop-color="#119E8F" stop-opacity="0.31"/>
            <stop offset="1" stop-color="#119E8F" stop-opacity="0"/>
        </linearGradient>
        <linearGradient id="paint26_linear_14176_516577" x1="235.252" y1="229.845" x2="235.252" y2="204.889"
                        gradientUnits="userSpaceOnUse">
            <stop stop-color="#119E8F" stop-opacity="0.31"/>
            <stop offset="1" stop-color="#119E8F" stop-opacity="0"/>
        </linearGradient>
        <linearGradient id="paint27_linear_14176_516577" x1="346.852" y1="167.167" x2="346.852" y2="142.211"
                        gradientUnits="userSpaceOnUse">
            <stop stop-color="#119E8F" stop-opacity="0.31"/>
            <stop offset="1" stop-color="#119E8F" stop-opacity="0"/>
        </linearGradient>
        <linearGradient id="paint28_linear_14176_516577" x1="346.852" y1="167.167" x2="346.852" y2="142.211"
                        gradientUnits="userSpaceOnUse">
            <stop stop-color="#119E8F" stop-opacity="0.31"/>
            <stop offset="1" stop-color="#119E8F" stop-opacity="0"/>
        </linearGradient>
        <linearGradient id="paint29_linear_14176_516577" x1="440.65" y1="115.278" x2="407.476" y2="153.548"
                        gradientUnits="userSpaceOnUse">
            <stop stop-color="#F2F9FF"/>
            <stop offset="1" stop-color="#C0CBDD"/>
        </linearGradient>
        <linearGradient id="paint30_linear_14176_516577" x1="440.642" y1="106.367" x2="407.468" y2="144.637"
                        gradientUnits="userSpaceOnUse">
            <stop stop-color="#F2F9FF"/>
            <stop offset="1" stop-color="#C0CBDD"/>
        </linearGradient>
        <linearGradient id="paint31_linear_14176_516577" x1="327.557" y1="119.434" x2="395.082" y2="158.531"
                        gradientUnits="userSpaceOnUse">
            <stop stop-color="#EFF4F9"/>
            <stop offset="1" stop-color="#BDC9DB"/>
        </linearGradient>
        <linearGradient id="paint32_linear_14176_516577" x1="327.551" y1="110.524" x2="395.076" y2="149.621"
                        gradientUnits="userSpaceOnUse">
            <stop stop-color="#EFF4F9"/>
            <stop offset="1" stop-color="#BDC9DB"/>
        </linearGradient>
        <linearGradient id="paint33_linear_14176_516577" x1="397.118" y1="63.8162" x2="397.118" y2="135.425"
                        gradientUnits="userSpaceOnUse">
            <stop stop-color="white" stop-opacity="0"/>
            <stop offset="1" stop-color="#5CD2C5" stop-opacity="0.58"/>
        </linearGradient>
        <linearGradient id="paint34_linear_14176_516577" x1="374.361" y1="89.7344" x2="384.687" y2="101.442"
                        gradientUnits="userSpaceOnUse">
            <stop stop-color="#F9FBFD"/>
            <stop offset="1" stop-color="#F9FBFD"/>
        </linearGradient>
        <linearGradient id="paint35_linear_14176_516577" x1="375.666" y1="92.969" x2="375.666" y2="113.69"
                        gradientUnits="userSpaceOnUse">
            <stop stop-color="#65E9DB"/>
            <stop offset="1" stop-color="#65E9DB" stop-opacity="0"/>
        </linearGradient>
        <linearGradient id="paint36_linear_14176_516577" x1="400.311" y1="106.253" x2="400.311" y2="102.281"
                        gradientUnits="userSpaceOnUse">
            <stop stop-color="#65E9DB" stop-opacity="0.47"/>
            <stop offset="1" stop-color="#65E9DB" stop-opacity="0"/>
        </linearGradient>
        <linearGradient id="paint37_linear_14176_516577" x1="400.292" y1="98.0508" x2="400.449" y2="104.267"
                        gradientUnits="userSpaceOnUse">
            <stop stop-color="#65E9DB"/>
            <stop offset="1" stop-color="#65E9DB" stop-opacity="0"/>
        </linearGradient>
        <linearGradient id="paint38_linear_14176_516577" x1="400.31" y1="96.8298" x2="400.31" y2="100.801"
                        gradientUnits="userSpaceOnUse">
            <stop stop-color="#2FDDCB"/>
            <stop offset="1" stop-color="#39E7D5" stop-opacity="0"/>
        </linearGradient>
        <linearGradient id="paint39_linear_14176_516577" x1="409.788" y1="111.001" x2="409.788" y2="107.029"
                        gradientUnits="userSpaceOnUse">
            <stop stop-color="#65E9DB" stop-opacity="0.47"/>
            <stop offset="1" stop-color="#65E9DB" stop-opacity="0"/>
        </linearGradient>
        <linearGradient id="paint40_linear_14176_516577" x1="409.771" y1="102.799" x2="409.928" y2="109.016"
                        gradientUnits="userSpaceOnUse">
            <stop stop-color="#65E9DB"/>
            <stop offset="1" stop-color="#65E9DB" stop-opacity="0"/>
        </linearGradient>
        <linearGradient id="paint41_linear_14176_516577" x1="409.789" y1="101.578" x2="409.789" y2="105.549"
                        gradientUnits="userSpaceOnUse">
            <stop stop-color="#2FDDCB"/>
            <stop offset="1" stop-color="#39E7D5" stop-opacity="0"/>
        </linearGradient>
        <linearGradient id="paint42_linear_14176_516577" x1="419.273" y1="115.676" x2="419.273" y2="111.705"
                        gradientUnits="userSpaceOnUse">
            <stop stop-color="#65E9DB" stop-opacity="0.47"/>
            <stop offset="1" stop-color="#65E9DB" stop-opacity="0"/>
        </linearGradient>
        <linearGradient id="paint43_linear_14176_516577" x1="419.251" y1="107.474" x2="419.407" y2="113.69"
                        gradientUnits="userSpaceOnUse">
            <stop stop-color="#65E9DB"/>
            <stop offset="1" stop-color="#65E9DB" stop-opacity="0"/>
        </linearGradient>
        <linearGradient id="paint44_linear_14176_516577" x1="419.272" y1="106.253" x2="419.272" y2="110.224"
                        gradientUnits="userSpaceOnUse">
            <stop stop-color="#2FDDCB"/>
            <stop offset="1" stop-color="#39E7D5" stop-opacity="0"/>
        </linearGradient>
        <linearGradient id="paint45_linear_14176_516577" x1="151.875" y1="93.9438" x2="117.019" y2="134.154"
                        gradientUnits="userSpaceOnUse">
            <stop stop-color="#F2F9FF"/>
            <stop offset="1" stop-color="#C0CBDD"/>
        </linearGradient>
        <linearGradient id="paint46_linear_14176_516577" x1="151.995" y1="84.5824" x2="117.139" y2="124.793"
                        gradientUnits="userSpaceOnUse">
            <stop stop-color="#F2F9FF"/>
            <stop offset="1" stop-color="#C0CBDD"/>
        </linearGradient>
        <linearGradient id="paint47_linear_14176_516577" x1="33.0481" y1="98.3117" x2="103.996" y2="139.39"
                        gradientUnits="userSpaceOnUse">
            <stop stop-color="#EFF4F9"/>
            <stop offset="1" stop-color="#BDC9DB"/>
        </linearGradient>
        <linearGradient id="paint48_linear_14176_516577" x1="33.1717" y1="88.9491" x2="104.12" y2="130.028"
                        gradientUnits="userSpaceOnUse">
            <stop stop-color="#EFF4F9"/>
            <stop offset="1" stop-color="#BDC9DB"/>
        </linearGradient>
        <linearGradient id="paint49_linear_14176_516577" x1="106.138" y1="39.8748" x2="106.138" y2="115.113"
                        gradientUnits="userSpaceOnUse">
            <stop stop-color="white" stop-opacity="0"/>
            <stop offset="1" stop-color="#5CD2C5" stop-opacity="0.58"/>
        </linearGradient>
        <linearGradient id="paint50_linear_14176_516577" x1="106.138" y1="39.8748" x2="106.138" y2="115.113"
                        gradientUnits="userSpaceOnUse">
            <stop stop-color="white" stop-opacity="0"/>
            <stop offset="1" stop-color="#5CD2C5" stop-opacity="0.58"/>
        </linearGradient>
    </defs>
</svg>
