<svg width="150" height="30" viewBox="0 0 150 30" fill="none" xmlns="http://www.w3.org/2000/svg">
    <path d="M20.5283 22.5303L25.3616 23.5954L27.9284 27.5736H20.5283V22.5303Z" fill="#119E8F"/>
    <path fill-rule="evenodd" clip-rule="evenodd"
          d="M35.7246 19.7744C35.7246 24.0815 32.2329 27.5732 27.9258 27.5732C23.6186 27.5732 20.127 24.0815 20.127 19.7744V11.9756H27.9258C32.2329 11.9756 35.7246 15.4672 35.7246 19.7744ZM27.9258 23.7996C30.1488 23.7996 31.9509 21.9974 31.9509 19.7744C31.9509 17.5513 30.1488 15.7492 27.9258 15.7492H23.9006V19.7744C23.9006 21.9974 25.7027 23.7996 27.9258 23.7996ZM20.127 14.9461L20.127 11.9756H19.499C19.8968 12.8861 20.1163 13.8905 20.1229 14.9461H20.127Z"
          fill="#FFA419"/>
    <path fill-rule="evenodd" clip-rule="evenodd"
          d="M20.1299 11.9796H24.7928C23.4407 6.49179 18.4851 2.42188 12.5787 2.42188C5.63168 2.42188 0 8.05229 0 14.9978C0 21.9432 5.63168 27.5737 12.5787 27.5737L27.9286 27.5737V27.5737C25.3335 27.5737 23.0344 26.3064 21.6167 24.357V24.3737C21.2088 23.8138 20.8736 23.1975 20.6251 22.5387H20.1259V22.5433H12.5787C8.41049 22.5433 5.03148 19.1651 5.03148 14.9978C5.03148 10.8305 8.41049 7.45223 12.5787 7.45223C15.674 7.45223 18.3341 9.31519 19.4985 11.9808H20.1299V11.9796Z"
          fill="#119E8F"/>
    <path d="M47.8242 5.36382V1.16138H44.937V12.5176H47.8242V8.58783L47.9204 8.45951L50.8236 12.5176H54.4647L49.9896 6.64701L54.4807 1.16138H50.9038L47.8242 5.36382Z"
          fill="#404F68"/>
    <path d="M58.7333 1.16138H55.8301V8.71615C55.8141 14.0414 64.8766 14.0414 64.8926 8.71615V1.16138H61.9894V8.71615C61.9734 10.5447 58.7333 10.5447 58.7333 8.71615V1.16138Z"
          fill="#404F68"/>
    <path d="M75.5346 4.62599C75.5987 2.4606 74.0108 1.16138 71.8454 1.16138H67.2901V12.5176H71.9256C74.4439 12.5176 75.6789 11.4108 75.9677 9.5823C76.112 8.71615 75.9195 7.25652 74.3637 6.47057C75.1817 6.05353 75.5185 5.13926 75.5346 4.62599ZM70.1773 5.60442V3.58339H71.8454C73.289 3.58339 73.2409 5.60442 71.8454 5.60442H70.1773ZM70.1773 9.99934V7.67356H71.8454C73.5456 7.67356 73.5777 9.99934 71.8454 9.99934H70.1773Z"
          fill="#404F68"/>
    <path d="M80.8999 3.85607H85.9044V1.16138H77.9967V12.5176H85.9044V9.80686H80.8999V8.10663H85.5034V5.62046H80.8999V3.85607Z"
          fill="#404F68"/>
    <path d="M87.5784 10.6249C88.6371 11.9883 90.0807 12.678 91.444 12.678C93.5292 12.678 95.839 11.475 95.9352 9.27754C96.0635 6.48661 94.0425 5.78085 92.0215 5.41194C91.1393 5.21946 90.5458 4.89866 90.5137 4.35331C90.5619 3.03804 92.5989 2.98992 93.7859 4.25707L95.6625 2.81348C94.4916 1.38593 93.1603 1.00098 91.7809 1.00098C89.6957 1.00098 87.6747 2.17189 87.6747 4.40143C87.6747 6.56681 89.3428 7.72168 91.1714 8.01039C92.1017 8.13871 93.1443 8.50763 93.1122 9.14923C93.032 10.3683 90.5298 10.3041 89.3909 8.92467L87.5784 10.6249Z"
          fill="#404F68"/>
    <path d="M97.8749 12.5176H100.746V9.19734H102.43C105.173 9.19734 106.569 7.19236 106.569 5.17134C106.569 3.16636 105.189 1.16138 102.414 1.16138H97.8749V12.5176ZM100.746 6.64701V3.84003H102.414C104.147 3.82399 104.147 6.66305 102.414 6.64701H100.746Z"
          fill="#404F68"/>
    <path d="M111.375 8.23495H114.647V12.5176H117.534V1.16138H114.647V5.46006H111.375V1.16138H108.488V12.5176H111.375V8.23495Z"
          fill="#404F68"/>
    <path d="M122.928 3.85607H127.932V1.16138H120.024V12.5176H127.932V9.80686H122.928V8.10663H127.531V5.62046H122.928V3.85607Z"
          fill="#404F68"/>
    <path d="M136.198 12.5176H139.775L136.68 8.61991C138.059 8.18683 138.909 6.99988 138.909 4.89866C138.845 2.23605 137.033 1.16138 134.691 1.16138H130.151V12.5176H133.055V8.90863H133.568L136.198 12.5176ZM133.055 6.43849V3.84003H134.739C136.551 3.84003 136.551 6.43849 134.739 6.43849H133.055Z"
          fill="#404F68"/>
    <path d="M144.122 3.85607H149.126V1.16138H141.218V12.5176H149.126V9.80686H144.122V8.10663H148.725V5.62046H144.122V3.85607Z"
          fill="#404F68"/>
    <path d="M50.9996 25.2638C50.374 26.8357 47.8077 26.4508 47.8077 25.0874V21.1736C47.8077 19.7621 50.342 19.4413 51.1119 20.8528L53.4537 19.9065C52.5394 17.8855 50.8552 17.292 49.4598 17.292C47.1821 17.292 44.9365 18.6073 44.9365 21.1736V25.0874C44.9365 27.6698 47.1821 28.969 49.4116 28.969C50.8392 28.969 52.5555 28.2633 53.5018 26.4187L50.9996 25.2638Z"
          fill="#119E8F"/>
    <path d="M56.9212 28.8086H64.4278V25.9696H59.8083V17.4524H56.9212V28.8086Z" fill="#119E8F"/>
    <path d="M67.5773 25.0713C67.5773 27.6698 69.9351 28.969 72.293 28.969C74.6509 28.969 76.9927 27.6698 76.9927 25.0713V21.1897C76.9927 18.5912 74.6348 17.292 72.277 17.292C69.9191 17.292 67.5773 18.5752 67.5773 21.1897V25.0713ZM70.4484 21.1897C70.4484 20.3556 71.3466 19.9065 72.2449 19.9065C73.1752 19.9065 74.1215 20.3075 74.1215 21.1897V25.0713C74.1215 25.8894 73.2073 26.3064 72.293 26.3064C71.3787 26.3064 70.4484 25.9054 70.4484 25.0713V21.1897Z"
          fill="#119E8F"/>
    <path d="M83.7324 17.4524H80.8292V25.0072C80.8132 30.3324 89.8757 30.3324 89.8917 25.0072V17.4524H86.9885V25.0072C86.9725 26.8357 83.7324 26.8357 83.7324 25.0072V17.4524Z"
          fill="#119E8F"/>
    <path d="M93.9681 17.4524V28.8086H98.2186C100.496 28.8246 102.63 27.6858 102.63 25.0713V21.2538C102.63 18.6073 100.496 17.4524 98.2186 17.4524H93.9681ZM96.8553 26.1139V20.131H98.3149C99.2773 20.131 99.7424 20.5962 99.7424 21.334V24.8788C99.7424 25.6167 99.2933 26.1139 98.3149 26.1139H96.8553Z"
          fill="#119E8F"/>
</svg>
