<svg width="20" height="20" viewBox="0 0 20 20" fill="none" xmlns="http://www.w3.org/2000/svg">
    <path d="M9.35181 9.16772H11.0185L10.6481 10.8344H8.98144L9.35181 9.16772Z" fill="inherit"/>
    <path fill-rule="evenodd" clip-rule="evenodd"
          d="M18.3333 10.0011C18.3333 14.6034 14.6023 18.3344 9.99996 18.3344H2.67251C2.3013 18.3344 2.11539 17.8856 2.37788 17.6231L4.10738 15.8936C2.59936 14.3856 1.66663 12.3022 1.66663 10.0011C1.66663 5.39869 5.39759 1.66772 9.99996 1.66772C14.6023 1.66772 18.3333 5.39869 18.3333 10.0011ZM9.99996 6.25106H8.74996L8.37959 7.91772H7.08329V9.16772H8.10181L7.73144 10.8344H6.24996V12.0844H7.45366L7.08329 13.7511H8.33329L8.70366 12.0844H10.3703L9.99996 13.7511H11.25L11.6203 12.0844H12.9166V10.8344H11.8981L12.2685 9.16772H13.75V7.91772H12.5463L12.9166 6.25106H11.6666L11.2963 7.91772H9.62959L9.99996 6.25106Z"
          fill="inherit"/>
    <path fill-rule="evenodd" clip-rule="evenodd"
          d="M8.75 6.25098H10L9.62963 7.91764H11.2963L11.6667 6.25098H12.9167L12.5463 7.91764H13.75V9.16764H12.2685L11.8981 10.8343H12.9167V12.0843H11.6204L11.25 13.751H10L10.3704 12.0843H8.7037L8.33333 13.751H7.08333L7.4537 12.0843H6.25V10.8343H7.73148L8.10185 9.16764H7.08333V7.91764H8.37963L8.75 6.25098ZM10.6481 10.8343L11.0185 9.16764H9.35185L8.98148 10.8343H10.6481Z"
          fill="currentColor"/>
</svg>
