<svg xmlns="http://www.w3.org/2000/svg" width="24" height="24" viewBox="0 0 24 24">
    <g fill="none" fill-rule="evenodd">
        <path fill="#324558" d="M5.143 3C3.96 3 3 3.96 3 5.143V9h4.714A1.29 1.29 0 0 1 9 7.714h6A1.29 1.29 0 0 1 16.286 9H21V5.143C21 3.96 20.04 3 18.857 3H5.143z"/>
        <path fill="#B6C2CD" d="M3 9.857v4.286h4.714V9.857zM16.286 9.857v4.286H21V9.857z"/>
        <path fill="#324558" d="M3 15v3.857C3 20.04 3.96 21 5.143 21h13.714C20.04 21 21 20.04 21 18.857V15h-4.714A1.29 1.29 0 0 1 15 16.286H9A1.29 1.29 0 0 1 7.714 15H3z"/>
    </g>
</svg>
