<svg xmlns="http://www.w3.org/2000/svg" width="417" height="278" viewBox="0 0 417 278">
    <defs>
        <linearGradient id="a" x1="50.01%" x2="50.01%" y1="100.007%" y2=".009%">
            <stop offset="0%" stop-color="gray" stop-opacity=".25"/>
            <stop offset="54%" stop-color="gray" stop-opacity=".12"/>
            <stop offset="100%" stop-color="gray" stop-opacity=".1"/>
        </linearGradient>
    </defs>
    <g fill="none" fill-rule="nonzero">
        <path fill="#4A5974" d="M406.22 258.506c-4.39 3.632-9.693 6.22-15.418 8.137-.833.284-1.678.55-2.535.796a94.258 94.258 0 0 1-6.759 1.725c-1.126.25-2.26.482-3.393.697-1.929.37-3.865.7-5.79 1.003-7.142 1.12-14.332 1.948-21.558 2.577a375.8 375.8 0 0 1-6.687.53l-.89.064-1.598.107-.982.064c-1.493.1-2.986.187-4.475.27-5.969.335-11.945.578-17.922.797-4.391.152-8.739.28-13.107.399l-8.883.259-2.295.067-1.006.028c-2.63.08-5.262.156-7.897.227l-.743.02-2.315.068-4.392.12-1.31.035-1.197.032c-27.879.749-55.777 1.294-83.64 1.06-2.23-.016-4.46-.04-6.687-.072-20.688-.267-41.353-.988-61.981-2.39-7.25-.494-14.548-1.091-21.806-1.916a325.947 325.947 0 0 1-6.688-.824c-17.83-2.39-35.22-6.42-50.798-13.94-11.734-5.676-22.565-13.749-27.108-24.49-4.588-10.842-2.16-23.017 3.078-33.643 5.238-10.627 13.119-20.15 19.914-30.135a127.048 127.048 0 0 0 6.543-10.697c.12-.224.244-.45.36-.674 1.024-1.92 1.99-3.863 2.898-5.83a95.855 95.855 0 0 0 2.395-5.68c.221-.57.433-1.14.635-1.709.024-.063.048-.127.068-.19.02-.065.052-.144.076-.216a73.599 73.599 0 0 0 3.01-11.1l.096-.526c.044-.25.088-.498.128-.749.04-.25.075-.466.111-.7.555-3.537.762-7.118.62-10.694v-.399a45.276 45.276 0 0 0-.6-5.468 8.429 8.429 0 0 0-.08-.458 42.743 42.743 0 0 0-2.231-7.938c0-.048-.036-.1-.056-.147-.3-.761-.619-1.514-.97-2.267-.056-.127-.12-.258-.18-.398-.116-.243-.231-.486-.355-.725a39.754 39.754 0 0 0-1.877-3.39c-.798-1.325-1.704-2.624-2.635-3.898l-.131-.18-.108-.15c-1.222-1.662-2.5-3.295-3.745-4.944a92.983 92.983 0 0 1-2.835-3.899l-.16-.239a39.706 39.706 0 0 1-2.906-4.99 28.264 28.264 0 0 1-.483-1.068 29.247 29.247 0 0 1-.746-1.9c-3.066-8.642-2.136-18.081-.663-27.083 2.184-13.374 6.248-27.788 18.828-36.136 10.983-7.292 25.846-8.145 39.923-6.372 2.256.278 4.488.625 6.688 1.023l1.197.227c17.806 3.405 34.646 9.435 51.278 15.892 3.885 1.51 7.761 3.043 11.634 4.568a2378.83 2378.83 0 0 0 9.082 3.557 543.395 543.395 0 0 0 17.267 6.372 325.024 325.024 0 0 0 10.843 3.549 225.61 225.61 0 0 0 7.77 2.25c12.376 3.362 25.072 5.692 38.067 6.142 9.898.347 19.801-.568 29.467-2.725a98.637 98.637 0 0 0 6.687-1.756 87.169 87.169 0 0 0 9.023-3.262c7.43-3.186 14.109-7.392 19.395-12.745l.044-.044c7.829-7.922 19.307-11.948 31.332-12.621a65.687 65.687 0 0 1 6.687-.036 66.508 66.508 0 0 1 24.226 5.655c19.02 8.603 31.32 26.817 30.393 45.006-1.345 26.478-26.932 46.803-42.199 69.967a76.576 76.576 0 0 0-3.058 5.038 62.13 62.13 0 0 0-1.014 1.9c-3.76 7.328-6.02 15.242-4.79 22.845a24.347 24.347 0 0 0 1.608 5.628c1.753 4.166 4.523 7.699 7.94 10.841a54.271 54.271 0 0 0 4.883 3.96c14.245 10.33 34.878 16.847 43.992 30.962 7.626 11.706 4.807 27.577-6.503 36.949z" opacity=".1"/>
        <path fill="#4A5974" d="M349.95 208.491v-61.553h8.35a62.37 62.37 0 0 1 1.015-1.905h-9.364V80.32h32.746c-.072-.636-.152-1.279-.232-1.906h-32.514v-59.42a65.528 65.528 0 0 0-6.69.036v59.372h-59.81V47.8a98.45 98.45 0 0 1-6.688 1.762v28.841h-85.376l-.203-.363 18.026-31.906a225.206 225.206 0 0 1-7.771-2.257l-10.846 19.195V40.3a362.718 362.718 0 0 1-6.69-2.397V65.18l-19.667-34.81c-3.874-1.53-7.751-3.067-11.637-4.581l29.551 52.27-.207.363h-81.85V9.602c-2.2-.399-4.432-.747-6.689-1.026v69.826h-58.12c.224.64.475 1.274.747 1.906h57.373v64.713H51.37a67.272 67.272 0 0 1-.703 1.905h42.73v61.565H33.23c.187.634.38 1.27.58 1.906h59.593v62.987a292.63 292.63 0 0 1 6.69 1.854v-64.841h83.814v67.174c2.228.032 4.458.056 6.689.072v-67.246h86.166v66.1l4.393-.12 2.316-.069v-65.911h59.774v63.619c2.23-.16 4.46-.337 6.689-.532v-63.087h26.157c-.072-.635-.14-1.27-.208-1.906H349.95zm-166.046 0h-83.81v-61.553h83.814l-.004 61.553zm0-63.458h-83.81V80.32h82.616l1.198 1.73-.004 62.983zm92.859 63.458h-86.17v-61.553h86.17v61.553zm0-63.458h-86.17V80.32h86.17v64.713zm66.483 63.458h-59.794v-61.553h59.794v61.553zm0-63.458h-59.794V80.32h59.794v64.713z" opacity=".1"/>
        <path fill="#4A5974" d="M317.304 38.754c.05 1.314-.956 2.42-2.25 2.475h-4.54a2.438 2.438 0 0 1 1.721 2.392c.05 1.313-.956 2.42-2.25 2.474H294.21a2.134 2.134 0 0 1-1.56-.693c7.559-3.3 14.354-7.654 19.731-13.197l.045-.046h.496a2.15 2.15 0 0 1 1.588.722 2.611 2.611 0 0 1 0 3.456h.532c1.276.047 2.28 1.12 2.262 2.417zM146.845 58.849h-.512c.407-.47.63-1.08.628-1.71.049-1.31-.935-2.415-2.2-2.468h-15.417c-1.264.053-2.248 1.157-2.199 2.467-.049 1.31.935 2.414 2.2 2.467h.515a2.598 2.598 0 0 0-.63 1.711c-.021 1.097.667 2.073 1.682 2.385h-4.438c-1.208.136-2.124 1.193-2.124 2.453 0 1.26.916 2.317 2.124 2.453h15.418c1.264-.054 2.248-1.158 2.199-2.468.03-1.097-.653-2.08-1.667-2.397h4.437c1.217-.126 2.144-1.188 2.144-2.455 0-1.267-.927-2.328-2.144-2.455l-.016.017zM338.746 155.327h-.516c.408-.469.632-1.08.627-1.71.05-1.31-.934-2.414-2.199-2.468h-15.415c-1.263.056-2.246 1.158-2.199 2.467-.047 1.31.936 2.412 2.199 2.468h.516c-.407.47-.63 1.08-.627 1.71-.023 1.097.667 2.073 1.683 2.381h-4.438c-1.217.127-2.143 1.188-2.143 2.455 0 1.267.926 2.328 2.143 2.455h15.416c1.263-.056 2.246-1.158 2.199-2.467.021-1.096-.668-2.072-1.683-2.381h4.437c1.217-.127 2.143-1.188 2.143-2.455 0-1.267-.926-2.328-2.143-2.455z" opacity=".1"/>
        <ellipse cx="58.959" cy="122.742" fill="#000" opacity=".1" rx="32.159" ry="42.343" transform="rotate(-8.2 58.959 122.742)"/>
        <ellipse cx="60.031" cy="122.742" fill="#3A3768" rx="32.159" ry="42.343" transform="rotate(-8.2 60.03 122.742)"/>
        <path fill="#4A5974" d="M89.949 128.436a45.617 45.617 0 0 1-2.2 11.57 34.289 34.289 0 0 1-6.638 11.891c-3.626 4.13-8.235 6.863-13.464 7.625-.863.123-1.734.19-2.606.201-14.14.193-27.345-14.448-30.193-34.14-3.01-20.893 6.76-39.615 21.85-41.762 4.492-.646 8.943.245 13.064 2.372 5.934 3.05 11.183 8.66 14.857 15.908a50.732 50.732 0 0 1 4.879 15.652c.519 3.536.67 7.116.451 10.683z"/>
        <path fill="#4A5974" d="M67.207 122.506L65.39 140.43s5.808-.59 7.504-3.735l-5.354-14.488-.334.3z"/>
        <path fill="#000" d="M67.207 122.506L65.39 140.43s5.808-.59 7.504-3.735l-5.354-14.488-.334.3zM40.742 121.797l9.811-.663s1.02 7.482 4.118 11.692l-6.966 7.603s-7.225-11.554-6.963-18.632z" opacity=".2"/>
        <path fill="#FFF" d="M42.657 145.141l22.664-24.304.731.682-22.663 24.304zM34.336 123.278l-.033-.472 32.128-2.744.032.467z" opacity=".3"/>
        <path fill="#000" d="M83.614 101.687l-2.71 3.367c-6.704-13.141-12.297-13.88-12.297-13.88l.541-5.416c5.786 3.058 10.897 8.674 14.466 15.93zM53.22 106.126l12.17 13.554-.852.382-14.155-5.923s1.135-4.818 2.836-8.013z" opacity=".2"/>
        <path fill="#FFF" d="M35.544 106.864l.366-.93 29.931 11.76-.366.93z" opacity=".3"/>
        <path fill="#000" d="M68.607 120.38l10.268-1.39s.723 4.065.34 5.253a.868.868 0 0 1-.045.107l-10.563-3.97zM45.023 97.734s4.164-6.076 9.35-7.688l4.586 11.076s-4.47 1.67-6.035 5.004l-7.9-8.392z" opacity=".2"/>
        <path fill="#FFF" d="M67.483 116.846l-.35-.043c-.078 0-.164-.024-.221-.26L52.527 83.768l.375-.154 13.92 31.723c0-1.765.22-5.695.984-14.455.673-7.734 1.456-15.554 1.465-15.633l.408.04c-1.167 11.636-2.726 29.08-2.416 31.046l.22.51zM41.329 93.044l.717-.697 24.653 25.37-.717.697z" opacity=".3"/>
        <path fill="#000" d="M76.11 109.978l4.053-4.924s3.85 10.182 3.417 13.21l-4.813.726s-1.73-8.738-2.656-9.012z" opacity=".2"/>
        <path fill="#FFF" d="M67.95 117.825l14.95-16.832.748.664-14.95 16.832z" opacity=".3"/>
        <path fill="#FFF" d="M80.212 118.58l-.024-.215c0-.065 0-.125-.028-.186-.028-.06 0-.166-.032-.25a26.796 26.796 0 0 0-2.665-8.467 7.855 7.855 0 0 0-.137-.254.886.886 0 0 0-.065-.121c-2.166-4.041-5.274-7.06-8.74-8.487a4.657 4.657 0 0 0-.403-.153 11.33 11.33 0 0 0-5.636-.643c-.708.101-1.404.273-2.077.513a.976.976 0 0 0-.153.053l-.23.085a13.204 13.204 0 0 0-5.95 4.898l-.044.064-.117.174a15.164 15.164 0 0 0-.998 1.693 21.535 21.535 0 0 0-1.973 5.553 7.21 7.21 0 0 0-.085.404 26.616 26.616 0 0 0-.314 7.888l.024.238c0 .053 0 .11.02.162.029.222.057.445.089.667a26.088 26.088 0 0 0 4.066 10.838c.024.04.053.077.08.117.029.04.101.15.158.223.137.202.278.404.427.59 2.818 3.762 6.59 6.158 10.543 6.441.174 0 .35.02.528.024h.402c.475-.004.948-.04 1.418-.109a11.691 11.691 0 0 0 6.397-3.233c.104-.097.21-.198.31-.303a17.555 17.555 0 0 0 3.764-5.956l.161-.404a24.097 24.097 0 0 0 1.345-6.014l.036-.424a27.465 27.465 0 0 0-.097-5.407zm-1.574 11.536c-.048.142-.1.283-.153.405a17.298 17.298 0 0 1-3.623 5.863c-.1.105-.201.21-.306.307a11.318 11.318 0 0 1-6.289 3.209c-.438.065-.88.1-1.324.105h-.403c-4.134-.085-8.096-2.586-11.007-6.595l-.25-.352a25.635 25.635 0 0 1-4.179-10.94c-.031-.213-.06-.427-.084-.637 0-.138-.032-.271-.044-.404a26.214 26.214 0 0 1 .374-8.11 21.094 21.094 0 0 1 1.953-5.517l.266-.489c.189-.335.402-.663.591-.974.06-.093.121-.186.186-.275a12.858 12.858 0 0 1 5.866-4.89l.378-.14a10.652 10.652 0 0 1 4.247-.563c1.118.085 2.218.333 3.265.736l.403.158c3.374 1.422 6.39 4.412 8.49 8.385.07.125.133.254.198.384a26.541 26.541 0 0 1 2.536 8.211l.036.247v.15c0 .048.02.165.029.25.209 1.72.25 3.456.124 5.184v.13l-.024.295a23.478 23.478 0 0 1-1.256 5.867z" opacity=".3"/>
        <path fill="#000" d="M88.974 128.047a43.135 43.135 0 0 1-2.232 11.31l-4.2-4.076c1.145-1.655 1.849-8.787 1.849-8.787l.24.16c.213.436 2.536 1.005 4.343 1.393z" opacity=".2"/>
        <path fill="#FFF" d="M69.574 121.693l.705-.709 17.48 17.389-.705.709zM88.828 128.638l-20.221-8.64 19.843-3.152.06.412-18.417 2.924 18.881 8.068z" opacity=".3"/>
        <path fill="#000" d="M80.398 151.152c-3.627 3.958-8.239 6.578-13.471 7.309-.864.117-1.735.181-2.608.192l.846-8.078s7.752.112 12.242-5.858l2.991 6.435z" opacity=".2"/>
        <path fill="#FFF" d="M67.981 122.416l.923-.386 12.001 28.677-.922.386z" opacity=".3"/>
        <path fill="#FFF" d="M64.689 158.767l3.15-36.31.997.086-3.151 36.31z" opacity=".3"/>
        <path fill="#FFF" d="M84.437 118.275c0-.132-.028-.264-.049-.4a42.103 42.103 0 0 0-3.56-12.653v-.035l-.169-.355c-2.942-6.16-7.245-10.97-12.138-13.61a7.002 7.002 0 0 0-.297-.16l-.084-.043a17.294 17.294 0 0 0-10.437-1.894c-.998.143-1.98.38-2.934.706l-.378.135a18.999 18.999 0 0 0-8.176 6.121 23.789 23.789 0 0 0-1.377 1.91 31.943 31.943 0 0 0-4.492 11.565 41.55 41.55 0 0 0-.357 12.689c0 .13.032.262.052.398.02.136.048.379.076.57.045.307.093.618.145.921v.028c.197 1.197.441 2.357.73 3.497a.115.115 0 0 0 0 .036 38.558 38.558 0 0 0 6.154 13.367 30.927 30.927 0 0 0 2.569 3.074 26.87 26.87 0 0 0 1.654 1.595c3.64 3.242 7.707 5.085 11.83 5.376.48.032.967.044 1.448.032h.169c.079.004.158.004.237 0 .537-.02 1.073-.068 1.605-.144 3.95-.566 7.527-2.544 10.437-5.722.036-.036.068-.076.1-.112l.197-.215a25.51 25.51 0 0 0 3.56-5.272 30.66 30.66 0 0 0 1.783-4.223 36.314 36.314 0 0 0 1.782-8.553c0-.064 0-.124.02-.188.02-.063 0-.151.02-.227.083-1.085.126-2.181.128-3.29.011-1.645-.072-3.289-.248-4.924zm-.277 8.461a35.86 35.86 0 0 1-1.71 8.398 6.929 6.929 0 0 1-.145.399 30.425 30.425 0 0 1-1.678 3.932 25.078 25.078 0 0 1-3.673 5.371c-2.89 3.19-6.422 5.184-10.34 5.738-.506.072-1.011.12-1.517.144h-.402c-4.572.096-9.14-1.783-13.17-5.42-.51-.458-1.011-.948-1.505-1.463a31.418 31.418 0 0 1-2.585-3.094l-.116-.168-.12-.167c-3.409-4.785-5.74-10.767-6.684-17.279-.028-.179-.052-.358-.076-.538 0-.068 0-.135-.029-.207-.028-.072 0-.124-.02-.188-.51-4.029-.422-8.11.261-12.114l.073-.399a31.533 31.533 0 0 1 4.547-11.624 22.984 22.984 0 0 1 1.204-1.667 18.645 18.645 0 0 1 8.093-6.085l.269-.095.112-.04c.922-.314 1.87-.54 2.834-.678a15.98 15.98 0 0 1 3.348-.12c2.443.192 4.82.889 6.976 2.046l.08.04.302.163a25.539 25.539 0 0 1 7.225 6.09 34.659 34.659 0 0 1 4.68 7.416c.02.036.037.076.053.112l.132.28a41.915 41.915 0 0 1 3.324 11.404c.048.327.092.65.132.977 0 .08 0 .155.028.235.028.08 0 .108 0 .163a41.96 41.96 0 0 1 .157 7.976c-.024.167-.044.321-.06.462z" opacity=".3"/>
        <ellipse cx="67.535" cy="120.598" fill="#4A5974" rx="2.144" ry="2.68" transform="rotate(-8.2 67.535 120.598)"/>
        <ellipse cx="67.535" cy="120.598" fill="#000" opacity=".2" rx="2.144" ry="2.68" transform="rotate(-8.2 67.535 120.598)"/>
        <circle cx="267.995" cy="18.224" r="5.36" fill="#4A5974" opacity=".1"/>
        <circle cx="19.296" cy="76.111" r="5.36" fill="#4A5974" opacity=".1"/>
        <circle cx="398.776" cy="114.702" r="5.36" fill="#4A5974" opacity=".1"/>
        <circle cx="377.337" cy="146.861" r="5.36" fill="#4A5974" opacity=".1"/>
        <circle cx="283.539" cy="10.184" r="2.68" fill="#4A5974" opacity=".1"/>
        <circle cx="2.68" cy="63.783" r="2.68" fill="#4A5974" opacity=".1"/>
        <circle cx="396.096" cy="178.485" r="2.68" fill="#4A5974" opacity=".1"/>
        <circle cx="297.474" cy="1.608" r="1.608" fill="#4A5974" opacity=".1"/>
        <circle cx="13.4" cy="101.302" r="1.608" fill="#4A5974" opacity=".1"/>
        <path fill="url(#a)" d="M386.27 255.69s-2.988-12.823-4.977-28.413c-1.99-15.59-17.416-41.497-17.416-41.497a19.25 19.25 0 0 0-.212-.398 70.754 70.754 0 0 0-8.582-12.696c-6.792-8-12.952-11.596-13.26-11.772-.487-.741-1.01-1.558-1.562-2.431-2.07-3.265-4.53-7.37-6.88-11.804 0-.103-.036-.203-.056-.307-1.047-6.314-1.087-12.955 2.062-18.408 1.554-2.69 3.795-4.907 5.505-7.498 2.797-4.225 4.067-9.268 5.094-14.243.723-3.48 1.347-7.028 1.163-10.571v-.16c0-.247-.032-.494-.056-.741-.587-6.426-3.963-12.198-7.256-17.727-1.734-2.91-3.555-5.912-6.348-7.793-5.81-3.91-12.929-1.463-19.138-3.703-6.596-2.392-12.625-4.62-19.804-5.354-2.545-.259-5.342-.323-7.403 1.196-2.166 1.595-2.885 4.505-4.323 6.805-2.745 4.384-7.923 6.378-12.294 9.136-3.32 2.077-6.504 5.397-7.191 9.053v-.032a8.043 8.043 0 0 0-.128 1.196v.195a7.228 7.228 0 0 0 .295 2.18c.248.128.5.24.756.351-.16.26-.32.519-.472.798l-.336.593a38.731 38.731 0 0 0-2.65 31.756 38.849 38.849 0 0 0 22.072 23.031c.235.574.479 1.168.719 1.782a90.086 90.086 0 0 1 6.392 32.52v1.526c-3.596 4.545-7.323 10.181-7.191 14.08.215 6.53-8.51 21.72-10.864 25.691l-.471.797c-2.35-1.698-5.142-3.225-6.496-2.152l-1.135-.726c-5.737-3.675-15.981-10.484-19.845-14.553-5.473-5.784-16.172-11.066-16.172-11.066s-8.459-10.061-7.96-13.832c.249-1.878-3.147-16.866-7.354-27.864 3.072.323 6.228.71 7.191.829l.236.207.331.052c11.63 10.197 14.176 5.653 14.176 5.653.95-.642 1.274-2.576 1.366-3.317v-.175h.06v-.148c.024-.044.046-.089.064-.135l.028-.052.02-.04c0-.032.028-.068.044-.104.067-.126.12-.26.156-.398h-.032c.153-.834.234-1.68.243-2.528a2.872 2.872 0 0 0-2.253-2.814c0-.02 0-.04-.02-.064-1.51-4.48-12.493 2.165-13.708 2.918l-.295.032c-2.202-.438-5.594-1.24-8.466-1.933-3.896-9.456-8.315-14.75-11.147-3.113l-2.605-.447a2.401 2.401 0 0 0-1.862.439c-.367.27-.67.614-.89 1.012l-11.304-1.786-2.664.092 2.257 1.088.168.08 11.302 1.838a2.446 2.446 0 0 0 2.098 2.108l2.537.367c-4.53 26.385 5.593 34.995 5.593 34.995s12.19 11.927 12.19 14.75c0 2.39 23.796 30.8 31.027 39.375a596.717 596.717 0 0 0 2.062 2.44c2.84 3.256 16.5 14.382 22.857 19.508.623 5.182 1.199 10.365 1.53 13.207l1.199-.032 5.685-.156 3.06-.091c2.637-.072 5.272-.148 7.903-.228l1.007-.027 2.297-.072c2.965-.085 5.928-.173 8.89-.263 4.37-.132 8.741-.26 13.116-.399 5.993-.211 11.962-.454 17.935-.797 1.49-.084 2.985-.172 4.479-.271l.983-.068 1.598-.108c9.772-.69 19.505-1.682 29.165-3.213 1.926-.306 3.864-.641 5.794-1.02a98.65 98.65 0 0 0 3.396-.706 94.425 94.425 0 0 0 6.764-1.75c-.943-6.736-1.786-11.68-1.786-11.68z"/>
        <path fill="#4A5974" d="M221.548 155.437l-1.482-.053s-10.057-1.28-13.277-1.359a2.17 2.17 0 0 0-.969.078l.714-2.954.872.221c3.066.777 13.226 3.33 14.86 3.388 1.933.065-.718.679-.718.679zM220.828 154.244s12.007-7.118 13.577-2.748c1.57 4.37-2.523 5.013-2.523 5.013l-11.054-2.265z"/>
        <path fill="#000" d="M220.828 154.244s12.007-7.118 13.577-2.748c1.57 4.37-2.523 5.013-2.523 5.013l-11.054-2.265z" opacity=".2"/>
        <path fill="#4A5974" d="M233.906 160.882s-2.525 4.508-14.15-5.747l.16-.21.482-.627s15.046-6.976 15.437-.162c-.005.886-.1 1.77-.281 2.637a1.371 1.371 0 0 1-.24.52l-.054.052s0 .107-.031.288c-.075.727-.392 2.614-1.323 3.25z"/>
        <path fill="#000" d="M234.38 160.844s-2.61 4.683-14.624-5.97l.166-.218.279-.291 15.634 2.752-.056.053s0 .11-.033.3c-.076.754-.404 2.714-1.367 3.374z" opacity=".1"/>
        <path fill="#000" d="M236.587 157.581l-16.02-2.412-.811-.645 1.467-.159 15.684 2.378a1.065 1.065 0 0 1-.3.55s.005.114-.02.288z" opacity=".1"/>
        <path fill="#000" d="M235.503 157.581l-16.01-2.41-.81-.642 1.463-.164 15.69 2.386c-.041.209-.147.4-.304.552 0 0-.004.107-.029.278z" opacity=".1"/>
        <path fill="#4C4C56" d="M235.528 157.581l-16.034-2.41-.81-.642 1.463-.164 15.688 2.386a1.12 1.12 0 0 1-.303.552s.02.103-.004.278z"/>
        <path fill="#000" d="M206.475 154.28a.942.942 0 0 0-.655.085l.482-3.216.59.24a18.83 18.83 0 0 1-.417 2.891z" opacity=".1"/>
        <path fill="#D1D9EC" d="M206.704 150.624l-8.665-1.58a2.232 2.232 0 0 0-1.818.459c-.724.504-1.15 1.381-1.12 2.31.103 1.191.961 2.146 2.064 2.297l8.688 1.327s1.569-4.12.851-4.813z"/>
        <path fill="#000" d="M181.165 148.034l2.722-.1 11.736 1.893c.174.027.33.126.43.274.102.148.14.333.108.51a.65.65 0 0 1-.738.53l-11.947-1.978-2.311-1.13z" opacity=".1"/>
        <path fill="#DFE6F5" d="M181.165 148.03l2.72-.097 11.743 1.895a.646.646 0 0 1 .425.274c.1.146.14.328.11.505a.65.65 0 0 1-.735.534l-11.956-1.987-2.307-1.124z"/>
        <path fill="#FDC2CC" d="M267.995 223.283l-17.472 21.128s-.77-.89-2.068-2.415c-7.255-8.474-31.128-36.54-31.128-38.92 0-2.794-12.23-14.594-12.23-14.594s-10.982-9.181-4.994-37.795c5.988-28.613 20.218 27.352 19.72 31.08-.496 3.729 7.985 13.673 7.985 13.673s10.734 5.22 16.226 10.937c3.863 4.024 14.153 10.754 19.909 14.37a242.731 242.731 0 0 0 4.052 2.536z"/>
        <path fill="#000" d="M267.995 223.34l-17.253 21.071s-.76-.887-2.043-2.408c.277-5.9 12.666-18.918 14.859-20.897.129-.116.276-.21.435-.278a304.282 304.282 0 0 0 4.002 2.512z" opacity=".1"/>
        <path fill="#5F5D7E" d="M275.323 226.448s-7.994-7.435-10.49-5.202c-2.494 2.233-18.235 18.587-14.488 22.802 3.746 4.215 26.226 21.803 26.226 21.803l-1.248-39.403z"/>
        <path fill="#000" d="M275.323 226.448s-7.994-7.435-10.49-5.202c-2.494 2.233-18.235 18.587-14.488 22.802 3.746 4.215 26.226 21.803 26.226 21.803l-1.248-39.403z" opacity=".1"/>
        <path fill="#FDC2CC" d="M345.177 166.946s-7.762 7.479-17.485 15.591l-.367.303-.566.47c-15.51 12.806-35.497 26.625-37.557 14.799a16.417 16.417 0 0 1-.027-4.658c.023-.227.055-.463.087-.702.032-.239.064-.462.088-.689.387-2.98.602-5.98.643-8.985v-1.506a87.932 87.932 0 0 0-6.386-32.087 93.154 93.154 0 0 0-.718-1.758c-3.193-7.602-6.318-12.04-6.318-12.04s4.617-2.79 11.02-6.376a356.532 356.532 0 0 1 7.626-4.124c14.767-7.73 32.523-15.46 30.065-6.375-1.162 4.299-.084 10.005 2.055 15.978.12.33.24.653.363.98a98.108 98.108 0 0 0 4.79 10.555l.12.23c2.566 4.91 5.332 9.496 7.622 13.062.551.86 1.074 1.666 1.56 2.39 2.008 3.069 3.385 4.942 3.385 4.942z"/>
        <path fill="#000" d="M328.026 136.043c-.117.174-.241.347-.366.517-3.753 5.126-8.098 8.178-13.262 9.898-3.56 1.19-7.523 1.752-11.963 1.93a93.01 93.01 0 0 1-3.4.06c-2.686.005-5.37-.15-8.037-.464-1.403-.222-2.87.726-4.288 1.42-1.057.513-2.09.889-3.054.533a94.709 94.709 0 0 0-.724-1.78c-3.215-7.702-6.361-12.199-6.361-12.199s4.65-2.826 11.095-6.459a358.296 358.296 0 0 1 7.68-4.178c14.869-7.83 32.748-15.662 30.273-6.458-1.17 4.355-.085 10.136 2.07 16.187.092.335.212.662.337.993z" opacity=".1"/>
        <path fill="#FDC2CC" d="M334.458 112.022c0 .582 0 1.157-.04 1.731-.786 17.377-13.256 32.008-30.29 35.538a38.302 38.302 0 0 1-13.756.307 37.471 37.471 0 0 1-7.74-2.086A38.084 38.084 0 0 1 263.2 93.415l.335-.586c8.672-14.84 26.214-22.027 42.805-17.537 16.592 4.49 28.115 19.542 28.119 36.73z"/>
        <path fill="#000" d="M345.177 166.747s-59.949 58.63-55.507 25.948c.503-3.726.75-7.483.736-11.243a98.545 98.545 0 0 1 6.62-7.469l8.423-6.158a46.796 46.796 0 0 1 30.014-9.12c1.62.042 3.23.266 4.802.67 2.825 4.475 4.912 7.372 4.912 7.372z" opacity=".1"/>
        <path fill="#5F5D7E" d="M388.057 267.46a93.824 93.824 0 0 1-6.744 1.726c-1.124.251-2.255.482-3.386.697-1.924.37-3.856.702-5.776 1.005-9.616 1.51-19.32 2.49-29.078 3.188l-1.594.107-.98.064c-1.49.1-2.979.188-4.465.271-5.955.335-11.918.578-17.881.797-4.382.152-8.72.28-13.077.399l-8.863.259-2.29.068-1.004.028c-2.624.08-5.25.155-7.88.227l-3.05.087-5.669.156-1.195.032c-.319-2.814-.904-7.927-1.526-13.032l-.143-1.196c-.685-5.631-1.394-11.04-1.804-13.088-.992-4.962 0-25.562 0-25.562l.107-.171.47-.797c2.346-3.918 11.046-18.91 10.83-25.355-.127-3.846 3.586-9.41 7.17-13.893.47-.582.937-1.147 1.395-1.685 2.856-3.36 5.302-5.751 5.302-5.751l8.464-6.13a47.469 47.469 0 0 1 30.182-9.062c3.187.163 5.728.61 6.373 1.57.275.155 6.45 3.702 13.221 11.617a69.88 69.88 0 0 1 8.556 12.53c.072.128.144.259.211.399 0 0 15.38 25.561 17.364 40.949 1.984 15.387 4.963 28.04 4.963 28.04s.849 4.859 1.797 11.506z"/>
        <path fill="#000" d="M338.716 254.1c-1.355 2.207-.056 13.459 1.387 20.64-1.495.1-2.99.188-4.48.272-5.976.337-11.96.581-17.944.801-4.396.153-8.75.28-13.122.401l-8.894.26-2.298.069-1.007.028c.467-1.695.56-3.466-.684-4.256-2.738-1.747-7.966-12.978-7.966-12.978s-4.477 1.001-4.976-35.662a53.098 53.098 0 0 1 2.226-16.61 40.981 40.981 0 0 1 1.883-4.944 38.646 38.646 0 0 1 6.18-9.572c8.553-9.705 19.321-12.021 19.321-12.021a32.027 32.027 0 0 1 5.664-.433h.048a29.297 29.297 0 0 1 12.99 3.206 33.804 33.804 0 0 1 4.921 3.009 39.446 39.446 0 0 1 4.125 3.534c13.958 13.624 17.26 34.897 8.638 52.42-2.75 5.613-5.24 10.577-6.012 11.836z" opacity=".1"/>
        <path fill="#000" d="M341.92 256.208c-1.227 2.002-.28 11.375.98 18.457l-1.6.108-.983.064c-1.495.1-2.99.188-4.48.272-5.975.337-11.959.58-17.942.801-4.396.152-8.749.28-13.121.4l-8.893.26c0-.912-.28-1.7-1.003-2.161a6.2 6.2 0 0 1-1.327-1.301c-.116-.14-.236-.293-.356-.449-2.77-3.683-6.279-11.21-6.279-11.21s-4.48.997-4.98-35.632c-.16-11.94 2.926-20.675 7.159-27.029 8.769-13.156 22.457-16.103 22.457-16.103a30.242 30.242 0 0 1 15.148 1.238 30.75 30.75 0 0 1 5.484 2.558 38.004 38.004 0 0 1 6.486 4.928l.64.613c13.957 13.612 17.254 34.868 8.633 52.375-2.762 5.594-5.252 10.554-6.023 11.811z" opacity=".1"/>
        <path fill="#5F5D7E" d="M339.78 254.127c-1.351 2.204-.064 13.396 1.375 20.576l-.984.064c-1.495.1-2.99.189-4.48.273-5.977.337-11.96.581-17.944.801-4.397.153-8.75.28-13.123.401l-8.894.26-2.299.069c.352-1.295.484-2.629-.032-3.535a1.935 1.935 0 0 0-.355-.448 1.564 1.564 0 0 0-.308-.245c-2.738-1.747-7.967-12.979-7.967-12.979s-4.477 1.002-4.976-35.663c-.184-13.728 3.917-23.241 9.121-29.74 8.706-10.888 20.498-13.428 20.498-13.428a32.428 32.428 0 0 1 4.67-.433h.047a29.367 29.367 0 0 1 13.359 2.885 36.316 36.316 0 0 1 9.677 6.9c.464.453.92.914 1.355 1.383 12.792 13.66 15.622 34.1 7.283 51.038-2.762 5.598-5.252 10.563-6.023 11.82z"/>
        <path fill="#000" d="M308.73 229.404s-24.472 17.742-22.385 20.183c2.087 2.441 22.385-20.183 22.385-20.183zM344.105 234.763s-8.057-6.111-7.473-3.742c.583 2.37 7.473 3.742 7.473 3.742zM335.53 274.743c-5.938.317-11.883.548-17.829.756-10.179-1.134-20.763-2.802-20.763-2.802.918-.51 33.393-1.126 38.592 2.046zM381.625 268.39c-1.203.244-2.415.468-3.627.677a391.994 391.994 0 0 1-.661-12.864 114.463 114.463 0 0 1 4.288 12.188zM284.075 276.484l-2.968.087c-2.362-6.573-4.392-14.368-5.22-17.678-.257-1.022-.388-1.618-.388-1.618l.368.79c1.22 2.591 5.264 11.239 8.208 18.419zM331.95 125.375a37.611 37.611 0 0 1-4.873 8.894c.12.33.239.651.362.977a97.779 97.779 0 0 0 4.777 10.522l.12.23c.207 1.59.493 3.178.824 4.727-6.051.318-12.108.457-18.172.417-2.636 0-5.31-.075-7.823-.861a13.549 13.549 0 0 1-2.961-1.343 14.875 14.875 0 0 1-2.11-1.545 17.861 17.861 0 0 1-5.804-11.384c-.363-3.413.155-6.948-.836-10.233a11.186 11.186 0 0 0-.398-1.076 11.891 11.891 0 0 0-9.284-7.047 2.549 2.549 0 0 0-1.727.235 2.88 2.88 0 0 0-.936 1.445l-4.104 10.682c-2.922.73-4.984-3.079-4.741-6.074.243-2.995 1.592-6.061.593-8.898-.306-.877-.828-1.676-1.05-2.574-.889-3.539 2.925-6.68 2.957-10.327.024-3-2.548-5.422-5.279-6.67-2.504-1.143-5.27-1.636-7.778-2.752 8.66-14.761 26.157-21.904 42.702-17.432 16.546 4.472 28.038 19.45 28.049 36.554 0 .58 0 1.152-.04 1.724a37.586 37.586 0 0 1-2.468 11.809z" opacity=".1"/>
        <path fill="#865A61" d="M293.854 62.316c-2.533-.256-5.317-.32-7.368 1.203-2.156 1.604-2.871 4.474-4.303 6.756-2.732 4.362-7.885 6.354-12.235 9.069-4.35 2.714-8.47 7.561-7.015 12.508 2.68 1.363 5.722 1.84 8.45 3.1 2.728 1.258 5.297 3.704 5.273 6.731-.032 3.68-3.841 6.852-2.955 10.424.223.906.744 1.712 1.05 2.598.99 2.863-.35 5.958-.592 8.98-.243 3.024 1.817 6.868 4.736 6.13l4.127-10.78a2.91 2.91 0 0 1 .935-1.46 2.523 2.523 0 0 1 1.725-.236c4.51.636 8.258 3.824 9.64 8.199.99 3.315.472 6.884.834 10.328.664 6.35 4.828 12.492 10.872 14.405 2.509.802 5.17.854 7.814.87 6.052.045 12.103-.095 18.152-.421-1.491-7.072-2.1-14.886 1.515-21.125 1.547-2.67 3.778-4.871 5.48-7.445 2.783-4.194 4.048-9.201 5.07-14.136.795-3.741 1.443-7.566 1.093-11.37-.584-6.38-3.944-12.112-7.221-17.597-1.726-2.89-3.54-5.874-6.319-7.742-5.781-3.88-12.867-1.447-19.047-3.676C307 65.267 301 63.046 293.854 62.316z"/>
        <g fill="#000" opacity=".1">
            <path d="M275.374 116.074a8.09 8.09 0 0 0-.26-3.774c-.28-.792-.73-1.525-.982-2.325a4.937 4.937 0 0 0-.068 2.53c.223.896.747 1.692 1.05 2.567.115.326.202.661.26 1.002zM276.844 100.823c.115-.453.177-.918.184-1.386.024-2.986-2.553-5.406-5.293-6.65-2.74-1.243-5.796-1.714-8.489-3.06a6.802 6.802 0 0 1-.164-.67 7.206 7.206 0 0 0 .164 3.442c2.693 1.346 5.748 1.818 8.489 3.061 2.305 1.046 4.482 2.923 5.109 5.263zM315.388 148.29c-2.64 0-5.325-.075-7.845-.86-6.072-1.889-10.255-7.956-10.922-14.228-.363-3.402.156-6.923-.839-10.202-1.39-4.326-5.162-7.475-9.699-8.098a2.572 2.572 0 0 0-1.733.233 2.841 2.841 0 0 0-.939 1.442l-4.118 10.649c-2.357.586-4.155-1.75-4.646-4.242-.044.321-.088.642-.112.959-.248 2.986 1.826 6.783 4.758 6.055l4.146-10.65a2.841 2.841 0 0 1 .939-1.44 2.572 2.572 0 0 1 1.733-.234c4.53.628 8.296 3.777 9.683 8.098.995 3.28.476 6.8.84 10.202.666 6.273 4.849 12.34 10.92 14.229 2.521.792 5.194.843 7.846.859a313.54 313.54 0 0 0 18.24-.396 75.972 75.972 0 0 1-.532-2.748c-5.904.287-11.81.411-17.72.372zM345.747 105.69c-1.03 4.875-2.304 9.821-5.093 13.964-1.71 2.542-3.95 4.716-5.504 7.354-2.221 3.766-2.853 8.114-2.669 12.522.152-3.441.915-6.776 2.669-9.75 1.554-2.638 3.795-4.812 5.504-7.354 2.797-4.142 4.063-9.089 5.093-13.964.727-3.441 1.359-6.954 1.159-10.458a50.743 50.743 0 0 1-1.159 7.686z"/>
        </g>
    </g>
</svg>
