<svg xmlns="http://www.w3.org/2000/svg" width="32" height="32" viewBox="0 0 32 32">
    <g fill="none" fill-rule="evenodd">
        <circle cx="16" cy="16" r="12" fill="#EFF4F9" fill-rule="nonzero"/>
        <path fill="#B6C2CD" d="M11.333 21.89v-2.551c0-1.005.643-1.896 1.596-2.214l1.904-.635h2.334l1.904.635a2.333 2.333 0 0 1 1.596 2.214v2.55a24.227 24.227 0 0 1-4.667.435c-1.682 0-3.27-.157-4.667-.434z"/>
        <path fill="#324558" d="M16 9.66a2.309 2.309 0 0 1 2.295 2.563l-.149 1.348a2.16 2.16 0 0 1-4.292 0l-.149-1.348A2.309 2.309 0 0 1 16 9.66z"/>
    </g>
</svg>
