<svg width="48" height="48" viewBox="0 0 48 48" fill="none" xmlns="http://www.w3.org/2000/svg">
<path d="M24 4C17.9408 4 12.7807 7.84922 10.8315 13.2358C6.35124 14.2263 3 18.2218 3 23C3 27.2327 5.62977 30.8513 9.34459 32.3108L10 31V23H38V31L38.6554 32.3108C42.3702 30.8513 45 27.2327 45 23C45 18.2218 41.6488 14.2263 37.1685 13.2358C35.2193 7.84922 30.0592 4 24 4Z" fill="rgba(255, 255, 255, 0.4)"></path>
<path d="M17.5 32.2576V26H14.5V32.2576C14.5 32.3423 14.4785 32.4256 14.4374 32.4997L12.4838 36.029C12.3252 36.0098 12.1637 36 12 36C9.79086 36 8 37.7909 8 40C8 42.2091 9.79086 44 12 44C14.2091 44 16 42.2091 16 40C16 39.0458 15.6659 38.1697 15.1083 37.4822L17.0621 33.9527C17.3493 33.4338 17.5 32.8506 17.5 32.2576Z" fill="rgba(255, 255, 255, 0.9)"></path>
<path d="M30.5 32.2576V26H33.5V32.2576C33.5 32.3423 33.5215 32.4256 33.5626 32.4997L35.5162 36.029C35.6748 36.0098 35.8363 36 36 36C38.2091 36 40 37.7909 40 40C40 42.2091 38.2091 44 36 44C33.7909 44 32 42.2091 32 40C32 39.0458 32.3341 38.1697 32.8917 37.4822L30.9379 33.9527C30.6507 33.4338 30.5 32.8506 30.5 32.2576Z" fill="rgba(255, 255, 255, 0.9)"></path>
<path d="M24 44C26.2091 44 28 42.2091 28 40C28 38.3213 26.9659 36.8841 25.5 36.2908V26H22.5V36.2908C21.0341 36.8841 20 38.3213 20 40C20 42.2091 21.7909 44 24 44Z" fill="rgba(255, 255, 255, 0.9)"></path>
</svg>
