<svg width="40" height="40" viewBox="0 0 40 40" fill="none" xmlns="http://www.w3.org/2000/svg">
    <path d="M32 5C33.6571 5 35 6.34286 35 7.99972V32.0001C35 33.6569 33.6571 35.0002 32 35.0002H8.00001C6.34321 35.0002 5 33.657 5 32.0002V7.99966C5 6.34286 6.34321 5 8.00001 5H31.9999H32ZM27.8357 22.6866V14.6739H21.2666V11.5098H19.2687V14.675H12.7178V22.6866H19.2687V28.8673H21.2666V22.6866H27.8357ZM21.2658 20.7991V16.5624H25.8937V20.7991H21.2658ZM14.6591 20.7991V16.5624H19.2687V20.7991H14.6592H14.6591Z" fill="#36435C"/>
</svg>
