<svg xmlns="http://www.w3.org/2000/svg" width="232" height="194" viewBox="0 0 232 194">
    <defs>
        <linearGradient id="a" x1="34.534%" x2="81.514%" y1="55.487%" y2="46.395%">
            <stop offset="0%" stop-color="#FFF" stop-opacity="0"/>
            <stop offset="100%" stop-color="#250F49" stop-opacity=".537"/>
        </linearGradient>
        <linearGradient id="b" x1="100%" x2="0%" y1="50%" y2="50%">
            <stop offset="0%" stop-color="#611989"/>
            <stop offset="100%" stop-color="#46146C"/>
        </linearGradient>
        <linearGradient id="c" x1="3.458%" x2="123.711%" y1="23.789%" y2="86.961%">
            <stop offset="0%" stop-color="#4D8BFF"/>
            <stop offset="100%" stop-color="#FF6985"/>
        </linearGradient>
    </defs>
    <g fill="none" fill-rule="evenodd">
        <path fill="url(#a)" d="M34.776 209.999l23.23 2.574-31.548 17.445-25.163-5.107z" transform="translate(-15 -36)"/>
        <path fill="url(#b)" d="M17.692 93.011c40.076-26.853 72.844-38.433 96.394-38.636 21.953-.189 33.152 8.936 38.956 23.751.49 1.252.323 5.195-.503 11.829 34.364-12.315 58.907-6.53 73.628 17.353 16.972 27.536 11.617 52.787-16.066 75.754 11.395-4.537 19.966-2.439 25.713 6.295 7.014 10.659-1.528 21.063-25.624 31.213L17.097 108.094c.343-10.007.54-15.035.595-15.083z" transform="rotate(-60 88.965 132.462)"/>
        <path fill="url(#c)" d="M22.143 105.137c45.45-31.884 80.766-47.84 105.95-47.866 17.983-.019 26.833 6.989 31.039 20.106 1.826 5.696.592 12.162-3.702 19.399 39.972-17.085 66.686-12.433 80.144 13.955 13.457 26.389 6.513 50.736-20.832 73.04 13.538-4.573 22.892-2.394 28.06 6.538 4.073 10.784-4.916 21.853-26.967 33.207L22.143 105.137z" transform="rotate(-60 94.272 135.384)"/>
    </g>
</svg>
