<svg viewBox="0 0 24 24" fill="none" xmlns="http://www.w3.org/2000/svg">
<path d="M8.5 8.78415L10.5231 9.18385C10.6813 8.43239 11.2329 8 12.0406 8C12.7454 8 13.3143 8.40252 13.4136 9.1413C13.489 9.70147 13.3577 9.96203 12.7835 10.5276C12.7598 10.5509 12.6975 10.6116 12.6344 10.673C12.571 10.7348 12.5067 10.7974 12.4801 10.8236C11.4287 11.8581 10.936 12.7622 10.936 14.2481H13.0007C13.0007 13.3705 13.2455 12.9213 13.9515 12.2267C13.9734 12.2051 14.0298 12.1502 14.0891 12.0924C14.1561 12.0271 14.2268 11.9583 14.2556 11.93C15.2308 10.9695 15.634 10.169 15.4611 8.88301C15.2165 7.06389 13.7128 6 12.0406 6C10.2554 6 8.8551 7.09772 8.5 8.78415Z" fill="#36435C"/>
<path d="M12 17.75C12.5523 17.75 13 17.3023 13 16.75C13 16.1977 12.5523 15.75 12 15.75C11.4477 15.75 11 16.1977 11 16.75C11 17.3023 11.4477 17.75 12 17.75Z" fill="#36435C"/>
<path fill-rule="evenodd" clip-rule="evenodd" d="M12 22C17.5228 22 22 17.5228 22 12C22 6.47715 17.5228 2 12 2C6.47715 2 2 6.47715 2 12C2 17.5228 6.47715 22 12 22ZM10.5231 9.18385L8.5 8.78415C8.8551 7.09772 10.2554 6 12.0406 6C13.7128 6 15.2165 7.06389 15.4611 8.88301C15.634 10.169 15.2308 10.9695 14.2556 11.93C14.2268 11.9583 14.1561 12.0271 14.0891 12.0924L14.0885 12.093C14.0294 12.1505 13.9733 12.2052 13.9515 12.2267C13.2455 12.9213 13.0007 13.3705 13.0007 14.2481H10.936C10.936 12.7622 11.4287 11.8581 12.4801 10.8236C12.5067 10.7974 12.571 10.7348 12.6344 10.673C12.6974 10.6117 12.7598 10.5509 12.7835 10.5276C13.3577 9.96203 13.489 9.70147 13.4136 9.1413C13.3143 8.40252 12.7454 8 12.0406 8C11.2329 8 10.6813 8.43239 10.5231 9.18385ZM13 16.75C13 17.3023 12.5523 17.75 12 17.75C11.4477 17.75 11 17.3023 11 16.75C11 16.1977 11.4477 15.75 12 15.75C12.5523 15.75 13 16.1977 13 16.75Z" fill="#CCD3DB"/>
</svg>
