<svg width="320" height="180" viewBox="0 0 320 180" fill="none" xmlns="http://www.w3.org/2000/svg">
<g clip-path="url(#clip0_9434_144076)">
<rect width="320" height="180" fill="white" fill-opacity="0.01"/>
<path fill-rule="evenodd" clip-rule="evenodd" d="M122.727 58.1818C122.727 47.8852 126.903 38.5638 133.652 31.8182H47.2728V52.7273H23.6365V70.9091H47.2728V131.128V159.091H89.8956H110V154.464C104.448 157.234 97.7847 159.091 89.8956 159.091C61.9407 159.091 49.5917 135.775 47.2728 131.128C49.5917 126.48 61.9407 104.545 89.8956 104.545C97.7847 104.545 104.448 106.292 110 108.905V68.1818H122.727V58.1818ZM47.2728 70.9091H70.9092V52.7273H47.2728V70.9091Z" fill="#EFF4F9"/>
<path d="M179.091 68.1818V58.1818C179.091 47.6382 170.544 39.0909 160 39.0909C149.457 39.0909 140.909 47.6382 140.909 58.1818V68.1818H179.091Z" fill="#EFF4F9"/>
<path fill-rule="evenodd" clip-rule="evenodd" d="M210 68.1818H197.273V58.1818C197.273 47.8852 193.098 38.5638 186.348 31.8182H272.727V70.9091H249.091V89.0909H272.727V159.091L230.909 95.4545L210 127.273V68.1818ZM230 44.5454C227.49 44.5454 225.455 46.5805 225.455 49.0909C225.455 51.6013 227.49 53.6364 230 53.6364C232.511 53.6364 234.546 51.6013 234.546 49.0909C234.546 46.5805 232.511 44.5454 230 44.5454ZM242.727 44.5454C240.217 44.5454 238.182 46.5805 238.182 49.0909C238.182 51.6013 240.217 53.6364 242.727 53.6364C245.238 53.6364 247.273 51.6013 247.273 49.0909C247.273 46.5805 245.238 44.5454 242.727 44.5454ZM255.455 44.5454C252.944 44.5454 250.909 46.5805 250.909 49.0909C250.909 51.6013 252.944 53.6364 255.455 53.6364C257.965 53.6364 260 51.6013 260 49.0909C260 46.5805 257.965 44.5454 255.455 44.5454Z" fill="#EFF4F9"/>
<path d="M272.727 89.0909V70.9091H296.364V89.0909H272.727Z" fill="#EFF4F9"/>
<path fill-rule="evenodd" clip-rule="evenodd" d="M210 127.273V159.091H272.727L230.909 95.4545L210 127.273ZM233.552 137.273H228.004L226.364 117.273H235.455L233.552 137.273ZM230.909 140.909L227.273 143.182V147.727L230.909 150L234.545 147.727V143.182L230.909 140.909Z" fill="#A2D8BB"/>
<path fill-rule="evenodd" clip-rule="evenodd" d="M47.2727 131.128C49.5915 126.48 61.9406 104.545 89.8955 104.545C117.85 104.545 130.408 126.48 132.727 131.128C130.408 135.775 117.85 159.091 89.8955 159.091C61.9406 159.091 49.5915 135.775 47.2727 131.128ZM103.636 118.182C102.367 118.182 101.158 118.442 100.061 118.912C97.2856 116.745 93.7935 115.455 90 115.455C80.9626 115.455 73.6363 122.781 73.6363 131.818C73.6363 140.856 80.9626 148.182 90 148.182C97.5539 148.182 103.912 143.063 105.796 136.105C109.774 135.136 112.727 131.549 112.727 127.273C112.727 122.252 108.657 118.182 103.636 118.182Z" fill="#A2D8BB"/>
<path d="M230 44.5455C227.49 44.5455 225.455 46.5805 225.455 49.0909C225.455 51.6013 227.49 53.6364 230 53.6364C232.51 53.6364 234.546 51.6013 234.546 49.0909C234.546 46.5805 232.51 44.5455 230 44.5455Z" fill="#D8DEE5"/>
<path d="M70.9092 52.7273H47.2728V70.9091H70.9092V52.7273Z" fill="#D8DEE5"/>
<path d="M47.2728 100H23.6365V118.182H47.2728V100Z" fill="#D8DEE5"/>
<path d="M272.727 89.0909H249.091V70.9091H272.727V89.0909Z" fill="#D8DEE5"/>
<path d="M238.182 49.0909C238.182 46.5805 240.217 44.5455 242.727 44.5455C245.238 44.5455 247.273 46.5805 247.273 49.0909C247.273 51.6013 245.238 53.6364 242.727 53.6364C240.217 53.6364 238.182 51.6013 238.182 49.0909Z" fill="#D8DEE5"/>
<path d="M255.455 44.5455C252.944 44.5455 250.909 46.5805 250.909 49.0909C250.909 51.6013 252.944 53.6364 255.455 53.6364C257.965 53.6364 260 51.6013 260 49.0909C260 46.5805 257.965 44.5455 255.455 44.5455Z" fill="#D8DEE5"/>
<path fill-rule="evenodd" clip-rule="evenodd" d="M110 68.1818V108.905C124.123 115.549 131.063 127.792 132.727 131.128C131.063 134.463 124.123 147.418 110 154.464V159.091H189.091L210 127.273V68.1818H110ZM166.364 118.427V130H153.636V118.427C149.311 116.141 146.364 111.596 146.364 106.364C146.364 98.8325 152.469 92.7273 160 92.7273C167.531 92.7273 173.636 98.8325 173.636 106.364C173.636 111.596 170.689 116.141 166.364 118.427Z" fill="#55BC8A"/>
<path d="M94.5454 127.273C94.5454 123.521 96.8176 120.301 100.061 118.912C103.897 121.907 106.364 126.574 106.364 131.818C106.364 133.302 106.166 134.739 105.796 136.105C105.104 136.274 104.381 136.364 103.636 136.364C98.6155 136.364 94.5454 132.293 94.5454 127.273Z" fill="#55BC8A"/>
<path d="M160 20.9091C139.415 20.9091 122.727 37.5967 122.727 58.1818V68.1818H140.909V58.1818C140.909 47.6382 149.456 39.0909 160 39.0909C170.544 39.0909 179.091 47.6382 179.091 58.1818V68.1818H197.273V58.1818C197.273 37.5967 180.585 20.9091 160 20.9091Z" fill="#242E42"/>
<path d="M100.061 118.912C101.158 118.442 102.367 118.182 103.636 118.182C108.657 118.182 112.727 122.252 112.727 127.273C112.727 131.549 109.774 135.136 105.796 136.105C106.166 134.739 106.364 133.302 106.364 131.818C106.364 126.574 103.897 121.907 100.061 118.912Z" fill="#242E42"/>
<path d="M210 159.091H189.091L210 127.273V159.091Z" fill="#242E42"/>
<path d="M166.364 130V106.364H153.636V130H166.364Z" fill="#242E42"/>
<path d="M153.636 118.427V106.364H166.364V118.427C170.689 116.141 173.636 111.596 173.636 106.364C173.636 98.8325 167.531 92.7273 160 92.7273C152.469 92.7273 146.364 98.8325 146.364 106.364C146.364 111.596 149.311 116.141 153.636 118.427Z" fill="white"/>
<path d="M226.364 117.273H235.455L233.553 137.273H228.005L226.364 117.273Z" fill="white"/>
<path d="M227.273 143.182L230.909 140.909L234.546 143.182V147.727L230.909 150L227.273 147.727V143.182Z" fill="white"/>
<path d="M73.6365 131.818C73.6365 122.781 80.9627 115.455 90.0001 115.455C93.7937 115.455 97.2857 116.745 100.061 118.912C96.8178 120.301 94.5456 123.521 94.5456 127.273C94.5456 132.293 98.6157 136.364 103.636 136.364C104.381 136.364 105.104 136.274 105.796 136.105C105.813 136.045 105.829 135.985 105.844 135.924C104.023 142.974 97.6194 148.182 90.0001 148.182C80.9627 148.182 73.6365 140.856 73.6365 131.818Z" fill="white"/>
</g>
<defs>
<clipPath id="clip0_9434_144076">
<rect width="320" height="180" fill="white"/>
</clipPath>
</defs>
</svg>
