<svg width="320" height="180" viewBox="0 0 320 180" fill="none" xmlns="http://www.w3.org/2000/svg">
<g clip-path="url(#clip0_9434_143692)">
<rect width="320" height="180" fill="white" fill-opacity="0.01"/>
<path fill-rule="evenodd" clip-rule="evenodd" d="M265.455 45.4545C265.455 37.4213 271.967 30.9091 280 30.9091C288.033 30.9091 294.545 37.4213 294.545 45.4545V65.4545H280V80H294.545V149.091H268.83V127.454L279.091 127.483V109.301H268.83V47.2727H265.455V45.4545ZM285.455 84.5455V99.0909H270.909V84.5455H285.455Z" fill="#EFF4F9"/>
<path d="M294.545 80V65.4545H305.19V49.2231C305.19 45.1335 308.505 41.8182 312.595 41.8182C316.685 41.8182 320 45.1335 320 49.2231V80H294.545Z" fill="#EFF4F9"/>
<path d="M7.27273 81.8182C3.25611 81.8182 0 85.0743 0 89.0909V120H25.4545V149.091H54.5455V127.273H36.3636V120H25.4545V105.455H40V107.025L54.5455 83.7068V65.4545C54.5455 57.4213 48.0332 50.9091 40 50.9091C31.9668 50.9091 25.4545 57.4213 25.4545 65.4545V105.455H14.5455V89.0909C14.5455 85.0743 11.2893 81.8182 7.27273 81.8182Z" fill="#EFF4F9"/>
<path d="M40 107.025V105.455H25.4545V120H36.3636V112.854L40 107.025Z" fill="#D8DEE5"/>
<path d="M294.545 65.4545V80H280V65.4545H294.545Z" fill="#D8DEE5"/>
<path d="M285.455 84.5454V99.0909H270.909V84.5454H285.455Z" fill="#D8DEE5"/>
<path d="M181.726 99.8488L202.406 111.76C200.171 118.882 196.281 125.271 191.185 130.476L170.161 118.366C176.577 114.492 181.04 107.712 181.726 99.8488Z" fill="#181D28"/>
<path d="M159.233 121.772C158.735 121.803 158.233 121.818 157.727 121.818C148.784 121.818 140.979 116.945 136.822 109.709C135.948 111.435 135.455 113.387 135.455 115.455C135.455 122.484 141.153 128.182 148.182 128.182C152.912 128.182 157.039 125.602 159.233 121.772Z" fill="#181D28"/>
<path d="M229.337 127.273H204.545V112.993L229.337 127.273Z" fill="#181D28"/>
<path d="M77.2728 127.273L77.2727 47.2727H100.649V109.301H110.909V127.483L100.649 127.454V149.091H77.2728L77.2564 127.388L77.2728 127.273Z" fill="#A2D8BB"/>
<path d="M268.83 127.454L279.091 127.483V109.301H268.83V47.2727H245.455V127.273L245.438 127.388L245.455 149.091H268.83V127.454Z" fill="#A2D8BB"/>
<path d="M136.822 109.709C138.922 105.566 143.22 102.727 148.182 102.727C155.211 102.727 160.909 108.425 160.909 115.455C160.909 117.754 160.299 119.91 159.233 121.772C158.735 121.803 158.233 121.818 157.727 121.818C148.784 121.818 140.979 116.945 136.822 109.709Z" fill="#A2D8BB"/>
<path d="M191.185 130.476L223.182 148.906L234.072 130L229.337 127.273H204.545V112.993L202.406 111.76C200.171 118.882 196.281 125.271 191.185 130.476Z" fill="#A2D8BB"/>
<path d="M77.2727 127.273V47.2727L36.3636 112.854V127.273H77.2727Z" fill="#55BC8A"/>
<path d="M245.455 47.2727V127.273L229.337 127.273L204.545 112.993V112.854L245.455 47.2727Z" fill="#55BC8A"/>
<path d="M191.185 130.476C182.687 139.158 170.836 144.545 157.727 144.545C131.87 144.545 110.909 123.584 110.909 97.7273C110.909 71.8703 131.87 50.9091 157.727 50.9091C183.584 50.9091 204.545 71.8703 204.545 97.7273C204.545 102.616 203.796 107.33 202.406 111.76L181.726 99.8489C181.787 99.1498 181.818 98.4422 181.818 97.7273C181.818 84.4222 171.032 73.6364 157.727 73.6364C144.422 73.6364 133.636 84.4222 133.636 97.7273C133.636 102.089 134.795 106.18 136.822 109.709C135.948 111.435 135.455 113.387 135.455 115.455C135.455 122.484 141.153 128.182 148.182 128.182C152.912 128.182 157.039 125.602 159.233 121.772L159.209 121.773C163.2 121.531 166.928 120.318 170.161 118.366L191.185 130.476Z" fill="#55BC8A"/>
</g>
<defs>
<clipPath id="clip0_9434_143692">
<rect width="320" height="180" fill="white"/>
</clipPath>
</defs>
</svg>
