<?xml version="1.0" encoding="UTF-8"?>
<svg width="149px" height="84px" viewBox="0 0 149 84" version="1.1" xmlns="http://www.w3.org/2000/svg" xmlns:xlink="http://www.w3.org/1999/xlink">
    <!-- Generator: Sketch 51.3 (57544) - http://www.bohemiancoding.com/sketch -->
    <title>Combined Shape</title>
    <desc>Created with Sketch.</desc>
    <defs></defs>
    <g id="租户管理/镜像仓库" stroke="none" stroke-width="1" fill="none" fill-rule="evenodd" opacity="0.05">
        <g transform="translate(-1271.000000, -88.000000)" fill="#FFFFFF" fill-rule="nonzero" id="Group-10">
            <g transform="translate(260.000000, 88.000000)">
                <g id="Group-8">
                    <g id="Combined-Shape">
                        <path d="M1086,84 C1044.57864,84 1011,50.4213562 1011,9 C1011,-32.4213562 1044.57864,-66 1086,-66 C1127.42136,-66 1161,-32.4213562 1161,9 C1161,50.4213562 1127.42136,84 1086,84 Z M1076,39 C1098.09139,39 1116,21.09139 1116,-1 C1116,-23.09139 1098.09139,-41 1076,-41 C1053.90861,-41 1036,-23.09139 1036,-1 C1036,21.09139 1053.90861,39 1076,39 Z" transform="translate(1086.000000, 9.000000) scale(-1, 1) translate(-1086.000000, -9.000000) "></path>
                    </g>
                </g>
            </g>
        </g>
    </g>
</svg>