<svg width="48" height="48" viewBox="0 0 48 48" fill="none" xmlns="http://www.w3.org/2000/svg">
<g clip-path="url(#clip0_13162_163191)">
<path d="M24 7C15.6544 7 8.88889 13.7655 8.88889 22.1111V32.3529L7 38H25.3479C25.1204 37.037 25 36.0325 25 35C25 27.8203 30.8203 22 38 22C38.3742 22 38.7448 22.0158 39.111 22.0468C39.0763 13.7308 32.3242 7 24 7Z" fill="#CCD3DB"/>
<path d="M21 5C21 3.34315 22.3431 2 24 2C25.6569 2 27 3.34315 27 5V7.29778C26.0304 7.10248 25.0272 7 24 7C22.9728 7 21.9696 7.10248 21 7.29778V5Z" fill="#36435C"/>
<path d="M17.0709 38C17.0242 38.3266 17 38.6605 17 39C17 42.866 20.134 46 24 46C25.8352 46 27.5054 45.2938 28.7538 44.1383C27.1056 42.4707 25.9052 40.3596 25.3479 38H17.0709Z" fill="#36435C"/>
<path fill-rule="evenodd" clip-rule="evenodd" d="M35.1258 27.5234L35.6267 25H40.3733L40.8742 27.5234C41.7095 27.8338 42.4818 28.2674 43.16 28.8145L45.6267 27.9785L48 32.0215L46.0262 33.707C46.0962 34.129 46.1415 34.5586 46.1415 35C46.1415 35.4414 46.0962 35.871 46.0262 36.293L48 37.9785L45.6267 42.0215L43.16 41.1856C42.4818 41.7326 41.7095 42.1662 40.8742 42.4766L40.3733 45H35.6267L35.1258 42.4766C34.2905 42.1662 33.5182 41.7326 32.84 41.1856L30.3733 42.0215L28 37.9785L29.9738 36.293C29.9038 35.871 29.8585 35.4414 29.8585 35C29.8585 34.5586 29.9038 34.129 29.9738 33.707L28 32.0215L30.3733 27.9785L32.84 28.8145C33.5182 28.2674 34.2905 27.8338 35.1258 27.5234ZM38 38.3332C39.841 38.3332 41.3334 36.8408 41.3334 34.9998C41.3334 33.1589 39.841 31.6665 38 31.6665C36.1591 31.6665 34.6667 33.1589 34.6667 34.9998C34.6667 36.8408 36.1591 38.3332 38 38.3332Z" fill="#36435C"/>
</g>
<defs>
<clipPath id="clip0_13162_163191">
<rect width="48" height="48" fill="white"/>
</clipPath>
</defs>
</svg>
