<svg xmlns="http://www.w3.org/2000/svg" width="20" height="20" viewBox="0 0 20 20">
    <g fill="none" fill-rule="evenodd">
        <path fill="#324558" d="M16.617 11.255a.526.526 0 0 1-.158.381.506.506 0 0 1-.374.161h-1.86c0 .966-.185 1.785-.555 2.457l1.726 1.77a.526.526 0 0 1 .158.382.526.526 0 0 1-.158.381.489.489 0 0 1-.373.161.489.489 0 0 1-.374-.16l-1.644-1.67c-.027.028-.069.065-.124.11a5.002 5.002 0 0 1-.349.242 3.787 3.787 0 0 1-1.22.555c-.272.073-.54.11-.806.11v-7.59H9.444v7.59c-.282 0-.564-.038-.843-.115-.28-.076-.52-.169-.722-.28a6.777 6.777 0 0 1-.548-.33 2.967 2.967 0 0 1-.361-.275l-.125-.118-1.52 1.753a.533.533 0 0 1-.755.042.548.548 0 0 1-.17-.376.547.547 0 0 1 .129-.394l1.677-1.923c-.321-.644-.482-1.418-.482-2.322h-1.86a.506.506 0 0 1-.373-.16.526.526 0 0 1-.158-.382c0-.147.053-.274.158-.381a.506.506 0 0 1 .374-.161h1.86v-2.49L4.287 6.756a.526.526 0 0 1-.158-.381c0-.147.053-.274.158-.382a.506.506 0 0 1 .374-.16c.144 0 .268.053.373.16L6.472 7.46h7.007l1.436-1.466a.505.505 0 0 1 .373-.16c.144 0 .269.053.374.16a.526.526 0 0 1 .158.382.526.526 0 0 1-.158.38l-1.436 1.466v2.491h1.86c.143 0 .268.054.373.161a.526.526 0 0 1 .158.381z"/>
        <path fill="#B6C2CD" d="M12.813 6.044H7.5c0-.75.259-1.39.776-1.919a2.535 2.535 0 0 1 1.88-.792c.737 0 1.364.264 1.881.792a2.64 2.64 0 0 1 .776 1.92z"/>
    </g>
</svg>
