<svg width="288" height="170" viewBox="0 0 288 170" fill="none" xmlns="http://www.w3.org/2000/svg">
<g clip-path="url(#clip0_5034_104558)">
<g clip-path="url(#clip1_5034_104558)">
<path fill-rule="evenodd" clip-rule="evenodd" d="M204.204 127.626C206.701 128.194 208.677 129.335 209.661 130.776L240.655 176.151C242.07 178.222 241.225 180.579 238.497 182.154L202.825 202.749C151.665 232.287 85.1023 222.191 62.4435 214.12C61.93 213.937 61.4625 213.726 61.0423 213.488C60.5887 213.231 60.1902 212.942 59.8483 212.622C45.87 199.54 28.3827 161.11 79.5433 131.572L115.215 110.977C117.943 109.402 122.025 108.914 125.613 109.732L204.204 127.626ZM135.138 176.583C146.281 180.383 160.874 179.519 170.448 173.991C181.796 167.439 181.796 156.817 170.448 150.265C159.1 143.714 140.702 143.714 129.354 150.265C119.78 155.793 118.284 164.218 124.865 170.652L93.3968 188.819L103.67 194.751L113.944 188.819L125.93 195.739L136.203 189.808L124.217 182.888L135.138 176.583Z" fill="#D0D7DE"/>
<path d="M45.2532 85.7702L61.4074 90.6614L60.5761 213.205C51.6361 205.818 45.2534 193.005 45.2534 182.444L45.2532 85.7702Z" fill="url(#paint0_linear_5034_104558)"/>
<path d="M45.2532 82.8861L61.7376 90.852L60.8877 132.597L57.2124 130.348C50.5504 126.271 45.2534 116.91 45.2533 109.214L45.2532 82.8861Z" fill="url(#paint1_linear_5034_104558)"/>
<rect width="36.3307" height="89.4906" transform="matrix(0.866025 -0.5 2.20305e-08 1 93.4417 95.2302)" fill="url(#paint2_linear_5034_104558)"/>
<rect width="12.0112" height="89.4906" transform="matrix(0.866025 0.5 -2.20305e-08 1 124.792 77.0662)" fill="url(#paint3_linear_5034_104558)"/>
<rect width="12.0112" height="89.6175" transform="matrix(0.866025 0.5 -2.20305e-08 1 124.792 76.9375)" fill="url(#paint4_linear_5034_104558)" fill-opacity="0.91"/>
<rect width="13.9129" height="89.4906" transform="matrix(0.866025 0.5 -2.20305e-08 1 124.262 89.2626)" fill="url(#paint5_linear_5034_104558)"/>
<path d="M61.067 119.85L241.641 86.17L241.641 180.337C182.754 224.978 110.33 232.104 60.3617 213.121L61.067 119.85Z" fill="url(#paint6_linear_5034_104558)"/>
<path d="M61.067 119.85L241.641 86.1699L241.641 99.6112C182.754 144.252 110.33 151.377 60.3617 132.395L61.067 119.85Z" fill="url(#paint7_linear_5034_104558)"/>
<path fill-rule="evenodd" clip-rule="evenodd" d="M204.204 34.0277C206.701 34.5961 208.677 35.7371 209.661 37.1784L240.655 82.5527C242.07 84.6246 241.225 86.9814 238.497 88.5562L202.825 109.151C151.665 138.689 85.1023 128.593 62.4435 120.522C61.93 120.339 61.4625 120.128 61.0423 119.89C60.5887 119.633 60.1902 119.344 59.8483 119.024C45.87 105.942 28.3827 67.512 79.5433 37.9744L115.215 17.3793C117.943 15.8045 122.025 15.3166 125.613 16.1337L204.204 34.0277ZM135.138 82.985C146.281 86.7846 160.874 85.9207 170.448 80.393C181.796 73.8414 181.796 63.2191 170.448 56.6674C159.1 50.1157 140.702 50.1157 129.354 56.6674C119.78 62.195 118.284 70.6202 124.865 77.0536L93.3968 95.2216L103.67 101.153L113.944 95.2216L125.93 102.142L136.203 96.2102L124.217 89.2902L135.138 82.985Z" fill="url(#paint8_linear_5034_104558)"/>
<path fill-rule="evenodd" clip-rule="evenodd" d="M191.267 42.0799C193.302 42.5432 194.913 43.4731 195.715 44.6479L220.977 81.6313C222.13 83.32 221.442 85.241 219.218 86.5247L190.143 103.311C148.444 127.387 94.1902 119.157 75.7217 112.579C75.3031 112.43 74.9221 112.258 74.5796 112.064C74.2099 111.854 73.885 111.619 73.6063 111.358C62.213 100.695 47.9596 69.372 89.6592 45.2967L118.734 28.5102C120.958 27.2266 124.285 26.8289 127.21 27.4949L191.267 42.0799ZM134.973 81.9837C144.056 85.0807 155.95 84.3764 163.753 79.871C173.003 74.531 173.003 65.873 163.753 60.5329C154.504 55.1928 139.508 55.1928 130.259 60.5329C122.455 65.0383 121.235 71.9054 126.6 77.1492L100.951 91.9574L109.325 96.7919L117.698 91.9574L127.468 97.5977L135.841 92.7632L126.072 87.1229L134.973 81.9837Z" fill="url(#paint9_linear_5034_104558)"/>
<ellipse cx="149.826" cy="68.5112" rx="29.1127" ry="16.7385" fill="url(#paint10_linear_5034_104558)"/>
<path d="M172.449 80.316C162.277 86.1889 146.773 87.1068 134.934 83.0699L123.331 89.7688L136.065 97.1211L125.15 103.423L112.416 96.0707L101.5 102.373L90.5852 96.0707L124.019 76.768C117.026 69.9327 118.616 60.9813 128.788 55.1084C140.845 48.1475 160.393 48.1475 172.449 55.1084C184.506 62.0693 184.506 73.3551 172.449 80.316Z" fill="#79879C"/>
<path d="M134.917 74.9504L181.477 59.0022L181.528 67.4194C181.533 68.2815 181.485 69.1106 181.3 69.8364C177.538 84.6424 150.106 88.9367 134.917 83.1056L134.917 74.9504Z" fill="url(#paint11_linear_5034_104558)"/>
<path d="M123.37 81.5914L134.917 74.9246L134.917 83.0798L123.37 89.7466L123.37 81.5914Z" fill="url(#paint12_linear_5034_104558)"/>
<path d="M119.732 59.6357L124.034 68.628L124.034 76.7832C120.73 73.1038 119.849 71.1098 119.732 67.7455L119.732 59.6357Z" fill="url(#paint13_linear_5034_104558)"/>
<path d="M172.449 72.1876C162.277 78.0604 146.773 78.9784 134.934 74.9415L123.331 81.6404L136.065 88.9926L125.15 95.2945L112.416 87.9423L101.5 94.2442L90.5852 87.9423L124.019 68.6396C117.026 61.8043 118.616 52.8529 128.788 46.98C140.845 40.0191 160.393 40.0191 172.449 46.98C184.506 53.9409 184.506 65.2267 172.449 72.1876Z" fill="#36435C"/>
<path d="M90.598 87.9337L101.497 94.2264L101.497 102.382L90.598 96.0889L90.598 87.9337Z" fill="url(#paint14_linear_5034_104558)"/>
<path d="M112.396 87.9337L125.122 95.2807L125.122 103.436L112.396 96.0889L112.396 87.9337Z" fill="url(#paint15_linear_5034_104558)"/>
<path d="M101.497 94.2268L112.396 87.9341L112.396 96.0893L101.497 102.382L101.497 94.2268Z" fill="url(#paint16_linear_5034_104558)"/>
<path d="M125.03 95.3391L135.929 89.0464L135.929 97.2016L125.03 103.494L125.03 95.3391Z" fill="url(#paint17_linear_5034_104558)"/>
<circle cx="9.65477" cy="9.65477" r="9.65477" transform="matrix(0.866025 0.5 -0.866025 0.5 150.553 48.9226)" fill="url(#paint18_linear_5034_104558)"/>
</g>
</g>
<defs>
<linearGradient id="paint0_linear_5034_104558" x1="43.9423" y1="81.5673" x2="57.4372" y2="213.815" gradientUnits="userSpaceOnUse">
<stop stop-color="#F9FBFD"/>
<stop offset="1" stop-color="#EFF4F9"/>
</linearGradient>
<linearGradient id="paint1_linear_5034_104558" x1="43.9155" y1="80.9084" x2="29.5233" y2="122.687" gradientUnits="userSpaceOnUse">
<stop stop-color="#D8DEE5"/>
<stop offset="1" stop-color="#EFF4F9"/>
</linearGradient>
<linearGradient id="paint2_linear_5034_104558" x1="18.1654" y1="-12.5013" x2="-0.251665" y2="24.3328" gradientUnits="userSpaceOnUse">
<stop stop-color="#EFF4F9"/>
<stop offset="1" stop-color="#ABB4BE"/>
</linearGradient>
<linearGradient id="paint3_linear_5034_104558" x1="6.00559" y1="-0.0070971" x2="37.7873" y2="63.5563" gradientUnits="userSpaceOnUse">
<stop stop-color="#D8DEE5"/>
<stop offset="0.180886" stop-color="#ABB4BE"/>
</linearGradient>
<linearGradient id="paint4_linear_5034_104558" x1="4.10443" y1="0.725273" x2="36.7271" y2="63.6267" gradientUnits="userSpaceOnUse">
<stop offset="0.0192809" stop-color="#B5BEC7"/>
<stop offset="0.180886" stop-color="#79879C"/>
</linearGradient>
<linearGradient id="paint5_linear_5034_104558" x1="6.95647" y1="-0.00709701" x2="19.0639" y2="28.0418" gradientUnits="userSpaceOnUse">
<stop stop-color="#D8DEE5"/>
<stop offset="0.180886" stop-color="#B3BBC5"/>
</linearGradient>
<linearGradient id="paint6_linear_5034_104558" x1="73.7213" y1="117.599" x2="85.4634" y2="207.702" gradientUnits="userSpaceOnUse">
<stop stop-color="#EFF2F7"/>
<stop offset="1" stop-color="#F1F8FF"/>
</linearGradient>
<linearGradient id="paint7_linear_5034_104558" x1="63.6439" y1="108.168" x2="116.798" y2="184.325" gradientUnits="userSpaceOnUse">
<stop stop-color="#E3E9EF"/>
<stop offset="1" stop-color="#D8DEE5"/>
</linearGradient>
<linearGradient id="paint8_linear_5034_104558" x1="207.5" y1="35.2757" x2="39.2612" y2="220.189" gradientUnits="userSpaceOnUse">
<stop stop-color="#EFF4F9"/>
<stop offset="1" stop-color="white"/>
</linearGradient>
<linearGradient id="paint9_linear_5034_104558" x1="193.953" y1="43.0971" x2="56.8264" y2="193.815" gradientUnits="userSpaceOnUse">
<stop stop-color="white" stop-opacity="0.83"/>
<stop offset="1" stop-color="white" stop-opacity="0"/>
</linearGradient>
<linearGradient id="paint10_linear_5034_104558" x1="149.826" y1="51.7727" x2="151.404" y2="85.2495" gradientUnits="userSpaceOnUse">
<stop stop-color="#EFF4F9"/>
<stop offset="1" stop-color="#ABB4BE"/>
</linearGradient>
<linearGradient id="paint11_linear_5034_104558" x1="134.917" y1="79.2564" x2="159.607" y2="48.9864" gradientUnits="userSpaceOnUse">
<stop stop-color="#465470"/>
<stop offset="1" stop-color="#465571"/>
</linearGradient>
<linearGradient id="paint12_linear_5034_104558" x1="123.37" y1="84.8485" x2="134.105" y2="84.2086" gradientUnits="userSpaceOnUse">
<stop stop-color="#4A5974"/>
<stop offset="1" stop-color="#242E42"/>
</linearGradient>
<linearGradient id="paint13_linear_5034_104558" x1="119.732" y1="73.1926" x2="126.711" y2="67.9069" gradientUnits="userSpaceOnUse">
<stop stop-color="#465470"/>
<stop offset="1" stop-color="#465571"/>
</linearGradient>
<linearGradient id="paint14_linear_5034_104558" x1="90.598" y1="87.9337" x2="134.254" y2="92.0942" gradientUnits="userSpaceOnUse">
<stop stop-color="#4A5974"/>
<stop offset="0.242601" stop-color="#36435C"/>
</linearGradient>
<linearGradient id="paint15_linear_5034_104558" x1="112.396" y1="87.9337" x2="163.661" y2="93.691" gradientUnits="userSpaceOnUse">
<stop stop-color="#4A5974"/>
<stop offset="0.242601" stop-color="#36435C"/>
</linearGradient>
<linearGradient id="paint16_linear_5034_104558" x1="101.497" y1="97.4839" x2="111.614" y2="96.9158" gradientUnits="userSpaceOnUse">
<stop stop-color="#4A5974"/>
<stop offset="1" stop-color="#242E42"/>
</linearGradient>
<linearGradient id="paint17_linear_5034_104558" x1="125.03" y1="98.5962" x2="135.147" y2="98.0281" gradientUnits="userSpaceOnUse">
<stop stop-color="#4A5974"/>
<stop offset="1" stop-color="#242E42"/>
</linearGradient>
<linearGradient id="paint18_linear_5034_104558" x1="3.0363" y1="2.38269" x2="50.8075" y2="47.0983" gradientUnits="userSpaceOnUse">
<stop stop-color="#5F708A"/>
<stop offset="0.296016" stop-color="#181D28"/>
</linearGradient>
<clipPath id="clip0_5034_104558">
<rect width="248" height="248" fill="white" transform="translate(20 -19)"/>
</clipPath>
<clipPath id="clip1_5034_104558">
<rect width="205.622" height="248.328" fill="white" transform="translate(41.1889 -5.83105)"/>
</clipPath>
</defs>
</svg>
