<svg width="288" height="170" viewBox="0 0 288 170" fill="none" xmlns="http://www.w3.org/2000/svg">
<g clip-path="url(#clip0_5034_112179)">
<g clip-path="url(#clip1_5034_112179)">
<path fill-rule="evenodd" clip-rule="evenodd" d="M221.785 158.524L239.682 168.857L123.346 236.023L105.449 225.691L137.765 207.033L110.919 191.534L78.6041 210.191L60.7073 199.859L177.043 132.693L194.939 143.025L207.866 135.562L234.711 151.061L221.785 158.524Z" fill="#CCD3DB"/>
<rect width="134.33" height="117.752" transform="matrix(0.866025 -0.5 2.20305e-08 1 60.7072 82.1392)" fill="url(#paint0_linear_5034_112179)"/>
<rect width="14.9118" height="137.917" transform="matrix(0.866025 -0.5 2.20305e-08 1 218.539 38.6362)" fill="url(#paint1_linear_5034_112179)"/>
<rect width="37.3569" height="117.752" transform="matrix(0.866025 -0.5 2.20305e-08 1 69.5337 86.5137)" fill="url(#paint2_linear_5034_112179)"/>
<path fill-rule="evenodd" clip-rule="evenodd" d="M110.676 105.862L137.501 121.35L105.186 140.007L78.3602 124.519L110.676 105.862Z" fill="url(#paint3_linear_5034_112179)"/>
<rect width="134.33" height="127.62" transform="matrix(0.866025 -0.5 2.20305e-08 1 123.344 118.274)" fill="url(#paint4_linear_5034_112179)"/>
<path d="M168.591 144.507L219.937 106.336L219.937 225.303C219.937 229.341 217.101 234.252 213.604 236.272L168.591 262.26L168.591 144.507Z" fill="url(#paint5_linear_5034_112179)"/>
<path d="M168.591 137.726L219.937 106.336L219.937 128.564C219.937 130.564 218.533 132.996 216.801 133.996L168.591 161.83L168.591 137.726Z" fill="url(#paint6_linear_5034_112179)"/>
<path d="M168.591 141.389L219.937 106.873L219.937 119.788C219.937 122.188 218.252 125.106 216.174 126.306L168.591 153.778L168.591 141.389Z" fill="url(#paint7_linear_5034_112179)"/>
<rect width="20.3839" height="117.794" transform="matrix(0.866025 0.5 -2.20305e-08 1 60.7072 82.0975)" fill="url(#paint8_linear_5034_112179)"/>
<rect width="20.754" height="117.767" transform="matrix(0.866025 0.5 -2.20305e-08 1 105.368 107.883)" fill="url(#paint9_linear_5034_112179)"/>
<path fill-rule="evenodd" clip-rule="evenodd" d="M210.598 94.0188C223.091 101.232 223.091 112.926 210.598 120.139L168.588 144.393L123.346 118.273L165.356 94.0188C177.849 86.8059 198.104 86.8059 210.598 94.0188ZM178.282 112.671C183.636 115.762 192.317 115.762 197.671 112.671C203.026 109.58 203.026 104.568 197.671 101.477C192.317 98.3856 183.636 98.3856 178.282 101.477C172.928 104.568 172.928 109.58 178.282 112.671Z" fill="#36435C"/>
<rect width="52.2339" height="101.415" transform="matrix(0.866025 0.5 -2.20305e-08 1 123.355 134.735)" fill="url(#paint10_linear_5034_112179)"/>
<rect width="52.2339" height="8.0821" transform="matrix(0.866025 0.5 -2.20305e-08 1 123.355 127.629)" fill="url(#paint11_linear_5034_112179)"/>
<path d="M123.355 118.244L168.593 144.362L168.593 153.851L123.355 127.733L123.355 118.244Z" fill="url(#paint12_linear_5034_112179)"/>
<rect width="85.8827" height="117.632" transform="matrix(0.866025 0.5 -2.20305e-08 1 48.9892 75.4904)" fill="url(#paint13_linear_5034_112179)"/>
<rect width="85.8827" height="17.4189" transform="matrix(0.866025 0.5 -2.20305e-08 1 48.9892 75.3466)" fill="url(#paint14_linear_5034_112179)"/>
<circle cx="11.2403" cy="11.2403" r="11.2403" transform="matrix(0.866025 0.5 -0.866025 0.5 187.977 95.8114)" fill="url(#paint15_linear_5034_112179)"/>
<path fill-rule="evenodd" clip-rule="evenodd" d="M218.399 38.8161L239.681 51.1032L123.346 118.269L102.064 105.982L134.38 87.325L102.457 68.8944L70.1414 87.5517L48.8595 75.2646L165.195 8.09841L186.477 20.3855L199.403 12.9226L231.326 31.3532L218.399 38.8161Z" fill="url(#paint16_linear_5034_112179)"/>
<path d="M214.104 36.3361L209.808 38.8161L214.104 41.2961L231.09 51.1032L123.346 113.309L110.655 105.982L138.675 89.805L142.97 87.325L138.675 84.845L106.752 66.4144L102.457 63.9344L98.1612 66.4144L70.1414 82.5917L57.4505 75.2646L165.195 13.0584L182.181 22.8655L186.477 25.3455L190.772 22.8655L199.403 17.8826L222.735 31.3532L214.104 36.3361Z" fill="url(#paint17_linear_5034_112179)" stroke="url(#paint18_linear_5034_112179)" stroke-width="9.92"/>
<rect width="9.57662" height="47.8139" transform="matrix(0.866025 0.5 -0.866025 0.5 167.081 33.2627)" fill="url(#paint19_linear_5034_112179)"/>
<rect width="9.57662" height="47.8139" transform="matrix(0.866025 0.5 -0.866025 0.5 183.638 44.9482)" fill="url(#paint20_linear_5034_112179)"/>
</g>
</g>
<defs>
<linearGradient id="paint0_linear_5034_112179" x1="5.3836e-06" y1="2.92656" x2="-12.5681" y2="151.079" gradientUnits="userSpaceOnUse">
<stop stop-color="#C1C9D1"/>
<stop offset="1" stop-color="#D8DEE5"/>
</linearGradient>
<linearGradient id="paint1_linear_5034_112179" x1="-2.18124e-06" y1="46.0454" x2="37.7414" y2="100.165" gradientUnits="userSpaceOnUse">
<stop stop-color="#CDD4DC"/>
<stop offset="1" stop-color="#EAEBED"/>
<stop offset="1" stop-color="#92989E"/>
</linearGradient>
<linearGradient id="paint2_linear_5034_112179" x1="9.96546" y1="-0.163022" x2="-33.6113" y2="97.952" gradientUnits="userSpaceOnUse">
<stop stop-color="#E3E9EF"/>
<stop offset="0.328142" stop-color="#C1C9D1"/>
</linearGradient>
<linearGradient id="paint3_linear_5034_112179" x1="101.04" y1="111.426" x2="108.837" y2="131.531" gradientUnits="userSpaceOnUse">
<stop stop-color="#D1D7DF"/>
<stop offset="1" stop-color="#E3E9EF"/>
</linearGradient>
<linearGradient id="paint4_linear_5034_112179" x1="-1.92238e-06" y1="31.5689" x2="12.2631" y2="113.84" gradientUnits="userSpaceOnUse">
<stop stop-color="#D1D7DF"/>
<stop offset="1" stop-color="#E3E9EF"/>
</linearGradient>
<linearGradient id="paint5_linear_5034_112179" x1="168.591" y1="173.635" x2="207.307" y2="214.948" gradientUnits="userSpaceOnUse">
<stop stop-color="#D1D7DF"/>
<stop offset="1" stop-color="white"/>
</linearGradient>
<linearGradient id="paint6_linear_5034_112179" x1="168.591" y1="143.688" x2="175.853" y2="154.844" gradientUnits="userSpaceOnUse">
<stop stop-color="#D1D7DF"/>
<stop offset="1" stop-color="#E3E9EF"/>
</linearGradient>
<linearGradient id="paint7_linear_5034_112179" x1="168.591" y1="143.411" x2="217.552" y2="137.039" gradientUnits="userSpaceOnUse">
<stop stop-color="#4A5974"/>
<stop offset="1" stop-color="#242E42"/>
</linearGradient>
<linearGradient id="paint8_linear_5034_112179" x1="-2.9171e-07" y1="29.1383" x2="38.6264" y2="71.7412" gradientUnits="userSpaceOnUse">
<stop stop-color="#EFF4F9"/>
<stop offset="1" stop-color="#E3E9EF"/>
</linearGradient>
<linearGradient id="paint9_linear_5034_112179" x1="-2.97006e-07" y1="29.1316" x2="38.5424" y2="72.4236" gradientUnits="userSpaceOnUse">
<stop stop-color="#EFF4F9"/>
<stop offset="1" stop-color="#E3E9EF"/>
</linearGradient>
<linearGradient id="paint10_linear_5034_112179" x1="-7.47509e-07" y1="25.0867" x2="18.6292" y2="86.2423" gradientUnits="userSpaceOnUse">
<stop stop-color="#EFF4F9"/>
<stop offset="1" stop-color="white"/>
</linearGradient>
<linearGradient id="paint11_linear_5034_112179" x1="-7.47509e-07" y1="1.99924" x2="0.129217" y2="7.32204" gradientUnits="userSpaceOnUse">
<stop stop-color="#EFF4F9"/>
<stop offset="1" stop-color="#E3E9EF"/>
</linearGradient>
<linearGradient id="paint12_linear_5034_112179" x1="123.355" y1="118.244" x2="307.426" y2="191.117" gradientUnits="userSpaceOnUse">
<stop stop-color="#4A5974"/>
<stop offset="0.242601" stop-color="#36435C"/>
</linearGradient>
<linearGradient id="paint13_linear_5034_112179" x1="-6.44611e-07" y1="29.0982" x2="13.8285" y2="115.376" gradientUnits="userSpaceOnUse">
<stop stop-color="#EFF4F9"/>
<stop offset="1" stop-color="white"/>
</linearGradient>
<linearGradient id="paint14_linear_5034_112179" x1="-1.22905e-06" y1="4.30885" x2="0.364901" y2="15.7759" gradientUnits="userSpaceOnUse">
<stop stop-color="#EFF4F9"/>
<stop offset="1" stop-color="#E3E9EF"/>
</linearGradient>
<linearGradient id="paint15_linear_5034_112179" x1="3.53492" y1="2.77397" x2="59.1511" y2="54.8328" gradientUnits="userSpaceOnUse">
<stop stop-color="#5F708A"/>
<stop offset="0.296016" stop-color="#181D28"/>
</linearGradient>
<linearGradient id="paint16_linear_5034_112179" x1="215.364" y1="22.1379" x2="44.8957" y2="172.063" gradientUnits="userSpaceOnUse">
<stop stop-color="#EFF4F9"/>
<stop offset="1" stop-color="white"/>
</linearGradient>
<linearGradient id="paint17_linear_5034_112179" x1="215.364" y1="22.1379" x2="44.8957" y2="172.063" gradientUnits="userSpaceOnUse">
<stop stop-color="white"/>
<stop offset="1" stop-color="white" stop-opacity="0"/>
</linearGradient>
<linearGradient id="paint18_linear_5034_112179" x1="215.364" y1="22.1379" x2="95.3708" y2="104.644" gradientUnits="userSpaceOnUse">
<stop stop-color="#F1F6FB" stop-opacity="0.7"/>
<stop offset="1" stop-color="#FCFDFE"/>
</linearGradient>
<linearGradient id="paint19_linear_5034_112179" x1="-0.329525" y1="17.6881" x2="25.4966" y2="17.097" gradientUnits="userSpaceOnUse">
<stop stop-color="#E3E9EF"/>
<stop offset="0.328142" stop-color="#C1C9D1"/>
</linearGradient>
<linearGradient id="paint20_linear_5034_112179" x1="-0.329525" y1="17.6881" x2="25.4966" y2="17.097" gradientUnits="userSpaceOnUse">
<stop stop-color="#E3E9EF"/>
<stop offset="0.328142" stop-color="#C1C9D1"/>
</linearGradient>
<clipPath id="clip0_5034_112179">
<rect width="248" height="248" fill="white" transform="translate(20 -19)"/>
</clipPath>
<clipPath id="clip1_5034_112179">
<rect width="191.779" height="263.29" fill="white" transform="translate(48.1105 0.636108)"/>
</clipPath>
</defs>
</svg>
