<?xml version="1.0" encoding="UTF-8"?>
<svg width="28px" height="28px" viewBox="0 0 28 28" version="1.1" xmlns="http://www.w3.org/2000/svg" xmlns:xlink="http://www.w3.org/1999/xlink">
    <!-- Generator: Sketch 54 (76480) - https://sketchapp.com -->
    <title>头像</title>
    <desc>Created with Sketch.</desc>
    <g id="工作台" stroke="none" stroke-width="1" fill="none" fill-rule="evenodd">
        <g id="工作台/-Dashboard--普通用户(包括租户管理员)Dashboard" transform="translate(-20.000000, -100.000000)" fill-rule="nonzero">
            <g id="头像" transform="translate(20.000000, 100.000000)">
                <path d="M0,14 C-7.45314098e-08,19.0017182 2.66838483,23.6234965 6.99999994,26.1243556 C11.331615,28.6252148 16.668385,28.6252148 21.0000001,26.1243556 C25.3316152,23.6234965 28.0000001,19.0017182 28,14 C28,6.26801346 21.7319865,5.04101261e-16 14,0 C6.2680135,-1.00820252e-15 5.04101265e-16,6.26801346 0,14 Z" id="路径" fill="#FFFFFF"></path>
                <path d="M19.4669136,5.77430775 C19.4669136,5.77430775 19.823071,7.29645062 19.4669136,7.9989781 C19.4669136,7.9989781 20.0605093,8.58441765 19.9417901,11.1603517 C19.9417901,11.1603517 20.0605093,13.6191979 20.1792284,13.9704616 C20.2979475,14.3217254 20.4166667,15.2584287 20.4166667,15.4926045 C20.4166667,15.7267803 19.4669136,15.7267803 19.4669136,15.7267803 C19.4669136,15.7267803 19.1107562,18.3027144 18.3984413,19.1223298 C17.6861265,19.9419451 15.7866203,19.0052418 15.7866203,19.0052419 L15.549182,20.176121 C15.549182,20.176121 15.9290832,22.1783243 15.0743054,22.1666155 C13.1391835,22.1549067 9.04337321,20.1058683 9.37578681,19.9419452 L10.0881016,18.4198023 L10.4442591,18.5368902 C10.4442591,18.5368902 10.6816973,17.1318353 10.6816973,16.8976595 C10.6816973,16.8976595 7.00140402,12.5654067 8.54475283,8.58441765 C9.20957999,6.87493414 10.7648007,5.61038468 12.8186418,5.30595612 C14.4332221,5.0600715 16.4989351,5.69234623 17.8048456,5.89139567 C18.7071111,6.03190117 19.3481944,5.65721986 19.4669136,5.77430775 L19.4669136,5.77430775 Z" id="路径" fill="#FBE4D4"></path>
                <path d="M19.3479241,8.00346401 C19.7003312,7.29979012 19.3479241,5.77516334 19.3479241,5.77516334 C19.230455,5.65788435 18.5961221,6.03317711 17.7033574,5.89244233 C16.4111979,5.69306807 14.3672364,5.05976157 12.7696574,5.30604743 C10.7374429,5.61097278 9.19859831,6.87758578 8.54077165,8.58985891 C7.01367402,12.5773443 10.6552145,16.9166666 10.6552145,16.9166667 L11.2425598,14.453808 C9.83293119,13.5155762 10.4202764,11.7563915 11.3600288,11.5218335 C12.2997812,11.2872755 12.5347193,13.8674131 12.5347193,13.8674131 C13.3570026,13.7501341 13.9443479,9.9972067 13.9443479,9.9972067 C14.5199462,9.93856722 16.3524633,10.0441183 17.5858883,9.64536975 C18.6078691,9.3169886 19.112986,8.47257992 19.1129859,8.47257995 C19.347924,8.47257995 19.8178002,11.1699965 19.8178002,11.1699965 C19.9352693,8.58985891 19.347924,8.00346401 19.3479241,8.00346401 L19.3479241,8.00346401 Z" id="路径" fill="#284778"></path>
                <path d="M6.41666667,21.7227642 C8.3704594,23.4528455 10.9755164,24.5 13.8292379,24.5 C15.1199252,24.5 16.3514067,24.2837398 17.5,23.896748 C17.4171118,23.5325203 17.215812,22.8609756 16.8487357,22.2235772 C16.232995,21.1650407 15.2501781,20.1861789 15.1909722,20.0609756 L15.4277956,21.6544716 L9.03356481,19.8333333 L6.41666667,21.7227642 L6.41666667,21.7227642 Z" id="路径" fill="#5579A7"></path>
                <polygon id="路径" fill="#284778" points="15.4153005 22.2047101 16.3333333 23.1177536 15.3005464 20.3786232 15.1857923 21.8623188 10.0218579 18.6666667 9.33333333 20.1503623 15.5300546 23.9166667"></polygon>
            </g>
        </g>
    </g>
</svg>