<svg xmlns="http://www.w3.org/2000/svg" width="20" height="20" viewBox="0 0 20 20">
    <path fill="#324558" fill-rule="nonzero" d="M10 2.502a7.5 7.5 0 0 0-2.371 14.616c.375.069.513-.164.513-.361 0-.18-.008-.77-.01-1.396-2.088.453-2.527-.885-2.527-.885-.341-.867-.833-1.098-.833-1.098-.68-.466.052-.456.052-.456.753.053 1.15.773 1.15.773.669 1.146 1.754.815 2.182.623.067-.484.261-.815.476-1.003-1.666-.19-3.417-.832-3.417-3.706 0-.819.293-1.488.772-2.013-.078-.19-.334-.952.072-1.985 0 0 .63-.201 2.064.77A7.193 7.193 0 0 1 10 6.127c.637.003 1.28.086 1.878.252 1.432-.97 2.06-.769 2.06-.769.408 1.033.153 1.797.075 1.985.48.525.771 1.194.771 2.013 0 2.88-1.755 3.514-3.424 3.7.269.232.509.689.509 1.388 0 1.003-.009 1.811-.009 2.058 0 .2.135.433.516.36A7.5 7.5 0 0 0 10 2.5L10 2.502z"/>
</svg>
