<svg width="24" height="24" viewBox="0 0 24 24" fill="none" xmlns="http://www.w3.org/2000/svg">
<path d="M4 3C3.44772 3 3 3.44772 3 4V8H8V3H4Z" fill="#CCD3DB"/>
<path d="M14.5 3H9.5V8H14.5V3Z" fill="#CCD3DB"/>
<path d="M16 3H20C20.5523 3 21 3.44772 21 4V8H16V3Z" fill="#CCD3DB"/>
<path d="M8 16H3V20C3 20.5523 3.44772 21 4 21H8V16Z" fill="#CCD3DB"/>
<path d="M9.5 16H14.5V21H9.5V16Z" fill="#CCD3DB"/>
<path d="M21 16H16V21H20C20.5523 21 21 20.5523 21 20V16Z" fill="#CCD3DB"/>
<path d="M3 9.5H8V14.5H3V9.5Z" fill="#36435C"/>
<path d="M9.5 9.5H14.5V14.5H9.5V9.5Z" fill="#36435C"/>
<path d="M21 9.5H16V14.5H21V9.5Z" fill="#36435C"/>
</svg>
