<svg xmlns="http://www.w3.org/2000/svg" width="213" height="120" viewBox="0 0 213 120">
    <defs>
        <linearGradient id="a" x1="49.977%" x2="49.977%" y1="100%" y2="-.008%">
            <stop offset="0%" stop-color="gray" stop-opacity=".25"/>
            <stop offset="54%" stop-color="gray" stop-opacity=".12"/>
            <stop offset="100%" stop-color="gray" stop-opacity=".1"/>
        </linearGradient>
        <linearGradient id="b" x1="49.992%" x2="49.992%" y1="100.014%" y2="-.019%">
            <stop offset="0%" stop-color="gray" stop-opacity=".25"/>
            <stop offset="54%" stop-color="gray" stop-opacity=".12"/>
            <stop offset="100%" stop-color="gray" stop-opacity=".1"/>
        </linearGradient>
    </defs>
    <g fill="none" fill-rule="evenodd">
        <path fill="#5F708A" d="M118.37 16.528c-12.267-.07-24.024-3.205-35.265-6.675-11.24-3.471-22.38-7.338-34.394-9.037C40.984-.272 32.179-.239 26.065 3.475c-5.882 3.574-7.668 9.541-8.57 15.06-.681 4.151-1.034 8.513 1.198 12.332 1.548 2.65 4.236 4.845 6.121 7.374 6.556 8.8 2.35 19.948-4.306 28.857-3.132 4.18-6.766 8.183-9.146 12.607-2.38 4.424-3.408 9.457-1.126 13.856 2.263 4.361 7.482 7.552 13.104 9.75 11.42 4.462 24.775 5.494 37.782 5.946 28.798 1.002 57.69-.435 86.503-1.87 10.665-.532 21.375-1.069 31.837-2.74 5.81-.932 11.798-2.336 15.956-5.47 5.285-3.982 6.46-10.532 2.74-15.269-6.232-7.95-22.978-9.557-27.406-18.143-2.439-4.727-.184-10.113 3.086-14.63 7.012-9.693 18.947-18.338 19.323-29.23.258-7.482-5.76-14.822-14.868-18.139-9.56-3.488-22.657-2.705-29.493 3.598-7.032 6.49-19.592 9.227-30.43 9.164z" opacity=".1"/>
        <path stroke="#535461" stroke-width="2" d="M111.394 47.95s-5.379-9.532-13.483-12.279a16.59 16.59 0 0 1-8.4-6.284 27.85 27.85 0 0 1-2.479-4.457"/>
        <path fill="#5F708A" d="M81.939 23.168c.922.897 5.223 1.823 5.223 1.823s-1.056-4.27-1.978-5.167a2.33 2.33 0 0 0-3.245 3.344zM84.38 30.9c1.262.251 5.377-1.31 5.377-1.31s-3.224-3.014-4.479-3.264a2.331 2.331 0 0 0-.898 4.574zM93.228 39.257c1.216-.42 3.98-3.842 3.98-3.842s-4.287-.98-5.503-.56a2.33 2.33 0 1 0 1.523 4.402zM101.356 44.077c1.268-.21 4.57-3.116 4.57-3.116s-4.06-1.692-5.33-1.482a2.33 2.33 0 0 0 .76 4.598zM93.332 26.25c0 1.287-2.328 5.019-2.328 5.019s-2.331-3.73-2.331-5.018a2.33 2.33 0 1 1 4.659 0v-.002zM102.765 32.005c-.391 1.229-3.719 4.093-3.719 4.093s-1.108-4.258-.724-5.481a2.33 2.33 0 1 1 4.447 1.391l-.004-.003zM111.165 38.856c-.17 1.276-2.977 4.665-2.977 4.665s-1.81-4.01-1.64-5.285a2.33 2.33 0 1 1 4.617.62z"/>
        <path fill="#000" d="M81.939 23.168c.922.897 5.223 1.823 5.223 1.823s-1.056-4.27-1.978-5.167a2.33 2.33 0 0 0-3.245 3.344zM84.38 30.9c1.262.251 5.377-1.31 5.377-1.31s-3.224-3.014-4.479-3.264a2.331 2.331 0 0 0-.898 4.574zM93.228 39.257c1.216-.42 3.98-3.842 3.98-3.842s-4.287-.98-5.503-.56a2.33 2.33 0 1 0 1.523 4.402zM101.356 44.077c1.268-.21 4.57-3.116 4.57-3.116s-4.06-1.692-5.33-1.482a2.33 2.33 0 0 0 .76 4.598zM93.332 26.25c0 1.287-2.328 5.019-2.328 5.019s-2.331-3.73-2.331-5.018a2.33 2.33 0 1 1 4.659 0v-.002zM102.765 32.005c-.391 1.229-3.719 4.093-3.719 4.093s-1.108-4.258-.724-5.481a2.33 2.33 0 1 1 4.447 1.391l-.004-.003zM111.165 38.856c-.17 1.276-2.977 4.665-2.977 4.665s-1.81-4.01-1.64-5.285a2.33 2.33 0 1 1 4.617.62z" opacity=".25"/>
        <path stroke="#535461" stroke-width="2" d="M111.087 47.761s-1.057-10.896-7.35-16.69a16.585 16.585 0 0 1-5.135-9.148 27.85 27.85 0 0 1-.458-5.08"/>
        <path fill="#5F708A" d="M94.199 13.167c.48 1.194 4.037 3.784 4.037 3.784s.765-4.332.283-5.527a2.33 2.33 0 1 0-4.32 1.743zM93.29 21.218c1.054.74 5.445.98 5.445.98s-1.711-4.053-2.762-4.793a2.33 2.33 0 0 0-2.682 3.811v.002zM98 32.453c1.283.108 5.196-1.903 5.196-1.903s-3.524-2.633-4.806-2.74A2.33 2.33 0 0 0 98 32.452H98zM103.478 40.15c1.245.323 5.442-.996 5.442-.996s-3.028-3.191-4.273-3.524a2.33 2.33 0 1 0-1.175 4.502l.006.018zM103.368 20.602c-.52 1.174-4.161 3.645-4.161 3.645s-.621-4.354-.1-5.53a2.33 2.33 0 0 1 4.261 1.885zM109.658 29.687c-.85.965-5.062 2.231-5.062 2.231s.71-4.34 1.566-5.307a2.33 2.33 0 0 1 3.502 3.076h-.006zM114.562 39.353c-.674 1.097-4.612 3.058-4.612 3.058s-.034-4.399.64-5.497a2.331 2.331 0 0 1 3.972 2.44z"/>
        <path fill="#5F708A" d="M161.796 117.044c.578 1.175-3.508 2.437-8.568 2.801-4.534.327-8.261-.205-8.733-1.16-.472-.956 2.416-2.115 6.852-2.637 4.95-.58 9.872-.167 10.45.996z" opacity=".1"/>
        <path fill="#FFF" d="M42.822 54.92l62.365-22.087v76.304l-62.365-1.3z"/>
        <path fill="#5F708A" d="M42.822 54.92l62.365-22.087v76.304l-62.365-1.3z" opacity=".2"/>
        <path fill="#FFF" d="M0 67.521l35.58-12.6v52.917H0z"/>
        <path fill="#5F708A" d="M0 67.521l35.58-12.6v52.917H0z" opacity=".2"/>
        <path fill="#FFF" d="M105.187 32.833L167.55 54.92v52.918l-62.363 1.3z"/>
        <path fill="#5F708A" d="M105.187 32.833L167.55 54.92v52.918l-62.363 1.3z" opacity=".5"/>
        <path fill="#FFF" d="M211.016 67.68l-36.027-12.76v52.918h36.027z"/>
        <path fill="#5F708A" d="M211.016 67.68l-36.027-12.76v52.918h36.027z" opacity=".5"/>
        <path fill="#FFF" d="M20.733 76.708c-.253 0-.458.345-.458.77v9.576a5.677 5.677 0 0 1-.648 2.715c-.41.718-1.036 1.175-1.635 1.175h-.391c-.588 0-1.163-.439-1.613-1.212a5.536 5.536 0 0 1-.711-2.735V74.641a3.72 3.72 0 0 1 .509-1.946c.327-.517.756-.803 1.206-.803.45 0 .863.286 1.174.799.33.599.497 1.274.482 1.958v11.538c0 .841-.392 1.585-.854 1.585-.391 0-.83-.634-.83-1.585v-6.59c0-.422-.205-.769-.458-.769-.252 0-.46.347-.46.77v6.58c0 1.75.752 3.07 1.748 3.07.486 0 .934-.301 1.257-.851a4.446 4.446 0 0 0 .515-2.218V74.64a5.986 5.986 0 0 0-.765-3.044c-.486-.813-1.134-1.257-1.825-1.257-.69 0-1.339.444-1.83 1.257a5.965 5.965 0 0 0-.764 3.05V87c0 1.415.36 2.852.96 3.843.599.99 1.41 1.566 2.24 1.566h.4c.813 0 1.627-.576 2.234-1.582a6.48 6.48 0 0 0 .703-1.703 8.222 8.222 0 0 0 .262-2.075v-9.592c0-.425-.196-.77-.456-.77l.008.02z"/>
        <path fill="#5F708A" d="M108.374 98.03s1.16 1.52-.536 3.811c-1.698 2.293-3.1 4.23-2.532 5.656 0 0 2.56-4.258 4.644-4.307 2.083-.049.714-2.6-1.576-5.16z"/>
        <path fill="#000" d="M108.374 98.03c.1.147.18.308.237.478 2.032 2.388 3.114 4.616 1.16 4.672-1.82.053-4.003 3.307-4.525 4.129.016.066.036.132.06.196 0 0 2.56-4.258 4.644-4.307 2.083-.049.714-2.607-1.576-5.168z" opacity=".1"/>
        <path fill="#FFD037" d="M110.531 99.966c0 .534-.06.967-.135.967-.074 0-.133-.433-.133-.967s.074-.284.149-.284c.074 0 .12-.25.12.284z"/>
        <path fill="#FFD037" d="M111.271 100.604c-.468.255-.877.41-.912.345-.035-.065.315-.325.783-.587.468-.263.284-.069.319 0 .035.068.28-.014-.19.242z"/>
        <path fill="#5F708A" d="M102.24 98.03s-1.16 1.52.537 3.811c1.697 2.293 3.095 4.23 2.53 5.656 0 0-2.56-4.258-4.644-4.307-2.085-.049-.715-2.6 1.578-5.16z"/>
        <path fill="#000" d="M102.24 98.03c-.1.147-.18.308-.236.478-2.034 2.388-3.117 4.616-1.16 4.672 1.818.053 4.002 3.307 4.525 4.129a1.627 1.627 0 0 1-.063.196s-2.558-4.258-4.643-4.307c-2.085-.049-.715-2.607 1.578-5.168z" opacity=".1"/>
        <path fill="#FFD037" d="M100.084 99.966c0 .534.058.967.133.967.074 0 .135-.433.135-.967s-.077-.284-.15-.284c-.071 0-.118-.25-.118.284z"/>
        <path fill="#FFD037" d="M99.342 100.604c.47.255.879.41.914.345.035-.065-.315-.325-.783-.587-.468-.263-.284-.069-.32 0-.035.068-.287-.014.189.242z"/>
        <ellipse cx="105.306" cy="117.248" fill="#5F708A" opacity=".1" rx="12.137" ry="1.862"/>
        <path fill="#444053" d="M111.555 105.451l-.059.474-.082.67-.033.277-.082.672-.036.278-.08.67-.93 7.614c-.082.68-1.192 1.21-2.533 1.21h-4.825c-1.341 0-2.45-.53-2.533-1.21l-.93-7.615-.083-.67-.033-.277-.082-.672-.035-.278-.08-.669-.06-.474c-.046-.391.555-.71 1.314-.71h9.87c.76 0 1.359.325 1.312.71z"/>
        <path fill="#9D9CB5" d="M111.496 105.925l-.082.67H99.199l-.08-.67zM111.38 106.874l-.081.67H99.316l-.082-.67zM111.263 107.824l-.08.67H99.432l-.083-.67z"/>
        <path fill="#FFF" fill-rule="nonzero" d="M81.71 64.101l-1.87 2.484a.143.143 0 0 1-.145.061l-1.932-.462a.208.208 0 0 1-.133-.176l-.345-2.559a.274.274 0 0 1 .046-.195l1.865-2.48a.534.534 0 0 0-.043-.668 2.018 2.018 0 0 0-1.323-.588.37.37 0 0 0-.083 0c-.52.04-1.636.425-2.497 1.637-.836 1.175-1.711 3.34-.936 5.76.092.29.196.677-.114 1.086-.309.409-8.31 10.375-8.31 10.375-.75.855-.695 2.437 0 3.357.3.426.782.687 1.302.705.509-.01.975-.283 1.231-.723 0 0 7.467-10.531 7.83-11.01a.587.587 0 0 1 .463-.28.64.64 0 0 1 .356.13 2.35 2.35 0 0 0 1.349.41c1.116 0 2.288-.686 3.005-1.633a5.908 5.908 0 0 0 1.231-3.312 3.641 3.641 0 0 0-.444-1.886.288.288 0 0 0-.503-.043v.01zM67.615 80.535a.495.495 0 0 1-.828 0 .979.979 0 0 1 0-1.096.495.495 0 0 1 .828 0c.224.33.225.765.002 1.096h-.002zM147.898 68.903c-.517-5.974-4.567-10.63-9.495-10.63-3.261 0-6.133 2.034-7.857 5.141a3.749 3.749 0 0 0-1.713-.42c-2.49 0-4.503 2.74-4.548 5.829-2.545 1.01-4.22 4.11-4.22 7.364 0 3.988 2.591 7.508 5.786 7.508h21.033c3.196 0 5.788-3.524 5.788-7.508 0-3.55-2.063-6.681-4.774-7.284zm-4.752-1.37l-8.513 10.669c-.11.135-.392.436-.74.436a1.043 1.043 0 0 1-.744-.452l-3.572-4.454a.374.374 0 0 1 0-.452l1.133-1.413a.229.229 0 0 1 .178-.096.227.227 0 0 1 .178.096l2.829 3.524 7.768-9.763a.235.235 0 0 1 .178-.096c.071 0 .138.036.178.096l1.114 1.439c.112.13.118.323.013.46v.006z"/>
        <ellipse cx="199.454" cy="75.782" fill="#FFF" rx="1.936" ry="2.582"/>
        <path fill="#FFF" d="M199.454 79.36a2.05 2.05 0 0 1-.628-.101l-1.91 2.597a.127.127 0 0 0 0 .151l3.036 4.307a.873.873 0 0 1 0 .99.478.478 0 0 1-.372.196.472.472 0 0 1-.37-.196l-3.025-4.306a.07.07 0 0 0-.117 0L195.33 84c-.617.834-1.435.709-2.316.715-.88.005-1.736-.496-2.363-1.341l-.708-.964a.07.07 0 0 0-.118 0l-3.024 4.307a.478.478 0 0 1-.372.196.472.472 0 0 1-.37-.196.873.873 0 0 1 0-.99l3.036-4.307a.149.149 0 0 0 0-.15l-4.344-5.897c-.053-.07-.137-.022-.137.074v11.8c0 .948.587 1.723 1.29 1.723l14.196.588c.711 0 1.29-.783 1.29-1.723v-9.579c-.487.68-1.172 1.105-1.936 1.105z"/>
        <path fill="#FFF" d="M196.773 75.782c-.003-.59.11-1.175.33-1.723l-11.203-.587a1.09 1.09 0 0 0-.799.378l6.33 8.594c.35.533.938.861 1.575.88.587 0 1.16.277 1.578-.293l3.246-4.408c-.644-.656-1.057-1.684-1.057-2.84z"/>
        <path fill="#5F708A" d="M212.566 106.733s-2.288-.137-2.018 1.465a.392.392 0 0 0 .196.413s0-.12.235-.079c.082.014.165.018.248.012a.53.53 0 0 0 .304-.125s.642-.266.892-1.318c0 0 .186-.229.179-.287l-.392.164c.074.16.084.343.028.511 0 0-.012-.501-.087-.49-.015 0-.195.099-.195.099s.227.483.056.835c0 0 .065-.587-.127-.8l-.272.158s.266.5.086.909c0 0 .047-.627-.143-.871l-.246.195s.25.496.098.834c0 0-.02-.73-.151-.783-.094.08-.177.17-.249.268 0 0 .17.359.065.547 0 0-.065-.486-.118-.488a1.59 1.59 0 0 0-.237.542c.011-.204.076-.401.186-.573a.644.644 0 0 0-.328.17s.033-.227.391-.249c.065-.094.14-.18.223-.258a1.398 1.398 0 0 0-.556.065s.196-.216.62-.118l.244-.196a2.016 2.016 0 0 0-.65 0s.223-.195.714-.05l.266-.159a2.425 2.425 0 0 0-.62-.055.951.951 0 0 1 .697.012l.195-.084s-.285-.057-.368-.065c-.082-.008-.088-.033-.088-.033a.99.99 0 0 1 .535.06c.134-.047.264-.107.387-.178z"/>
        <ellipse cx="210.991" cy="108.75" fill="#5F708A" opacity=".1" rx="1.619" ry="1"/>
        <path fill="#5F708A" d="M177.322 106.8s-2.76-.166-2.435 1.762a.472.472 0 0 0 .244.497s0-.143.284-.094c.1.017.2.021.3.014a.623.623 0 0 0 .368-.15s.783-.322 1.077-1.59c0 0 .225-.277.215-.349l-.466.196c.089.193.1.413.033.614 0 0-.013-.602-.104-.587-.017 0-.242.116-.242.116s.274.587.068 1.012c0 0 .079-.723-.154-.979l-.327.196s.319.605.103 1.1c0 0 .055-.758-.172-1.053l-.297.233s.301.587.117 1.004c0 0-.023-.881-.182-.948a1.797 1.797 0 0 0-.3.323s.196.433.079.662c0 0-.078-.587-.143-.587-.135.199-.232.421-.286.656.013-.247.09-.486.223-.693a.783.783 0 0 0-.391.195s.04-.276.462-.3c.077-.114.168-.219.27-.312a1.687 1.687 0 0 0-.672.078s.224-.26.748-.143l.294-.239a2.447 2.447 0 0 0-.783 0s.268-.229.863-.062l.32-.196a2.87 2.87 0 0 0-.75-.065s.295-.16.843.012l.227-.102s-.342-.066-.444-.078c-.102-.012-.106-.04-.106-.04.218-.035.442-.01.646.073.162-.044.32-.103.47-.176z"/>
        <ellipse cx="175.421" cy="109.235" fill="#5F708A" opacity=".1" rx="1.954" ry="1"/>
        <path fill="url(#a)" fill-rule="nonzero" d="M160.005 87.502s.225-.217.151-.364a.339.339 0 0 1 0-.292s-.505-1.985-.693-2.184a1.523 1.523 0 0 1-.28-.494.256.256 0 0 0 .027-.125 1 1 0 0 0-.195-.554 1.359 1.359 0 0 1-.233-.832.979.979 0 0 0-.678-.6c.065-.422.153-.843.18-1.265.089-1.326-.405-2.612-.89-3.853a4.062 4.062 0 0 0-.425-.875 2.545 2.545 0 0 0-1.828-.998 1.787 1.787 0 0 0-.783.076 2.431 2.431 0 0 0-.676.452c-.21.176-.419.356-.613.548l-.023.024-.069.072-.027.028-.065.072-.023.025c-.027.034-.057.067-.084.102l-.075.098-.023.033-.051.073-.023.037c-.018.025-.032.05-.047.076l-.022.036c-.02.037-.041.074-.06.113l-.071.157v.021l-.041.104c-.053.125-.104.25-.169.37l-.011.02-.141.17a1.323 1.323 0 0 0-.16.274l-.015.031c0 .014-.01.03-.015.043l-.014.036a.391.391 0 0 1-.014.045v.037l-.011.043v.039c0 .014 0 .03-.01.043V78.646a.477.477 0 0 0 0 .053.215.215 0 0 0 0 .035.413.413 0 0 0 0 .049v.085.034l.012.051v.032l.017.054s0 .018.01.026.02.055.031.08c.06.131.134.256.22.372.056.078.115.155.174.233l.084.118a1.703 1.703 0 0 1 .094 1.932l-.07.107a.574.574 0 0 0-.08.196.419.419 0 0 0 .11.335l-.173.045c-.143.039-.241.07-.241.07a2.03 2.03 0 0 0-.356 0 .979.979 0 0 0-.43.274s-.747.09-.992-.127c-.244-.217-1.102-.292-1.102-.292s-.243-.473-.505-.62c-.262-.147-.896-.419-.916-.564a1.33 1.33 0 0 0-.243-.419 2.153 2.153 0 0 0-.391-.047l-.041-.07-.523-.903s-.656-.765-1.01-.838c-.354-.072.499.813.54.854a.562.562 0 0 0-.783.13c-.278.308.46 1.035.918 1.436l.075.065c.003.04.009.08.017.12.206 1.074 1.345 2.004 1.345 2.004s.131.6.562.747c.342.116 2.183.95 3.142 1.116-.08.208-.174.69.223 1.398 0 0 .094 1.257-.112 1.421-.205.165-.195 1.985-.195 1.985s-.783 3.17 0 3.843a.61.61 0 0 0 .166.102c0 .049.014.1.02.152.035.318.047.646-.038.783-.195.31.065 1.148.065 1.148s-.756 4.28-.419 5.792a17.32 17.32 0 0 1 .298 3.426s-.112 1.329.468 2.132c.063.19.1.387.111.587.038.384.14.759.3 1.11.13.254.391 1.331.168 1.62-.223.29.243 3.464.243 3.464s-.374.979 0 1.493l.011.014a2.545 2.545 0 0 1-.655-.094c-.42-.14-.106.392.391.756-.217.493-.515 1.155-.614 1.37-.433.074-1.29.196-1.794.076-.69-.162.3.948 1.234 1.15.659.123 1.33.171 2 .144l.603-.665c.487.065.98.084 1.47.055l-.052.618h.354v-.642c.223-.021.454-.05.693-.094 0 0 .014-.677-.03-1.317l.218.02.033-.355.77.139.69-5.677s.077-2.112.245-3.297c.168-1.184-.356-5.156-.356-5.156s-.037-.196-.075-.564c-.037-.368 0-2.515 0-2.515s.28-1.175.226-1.275c-.055-.1.017-.6.017-.6 1.175-2.395-.27-4.558-.773-5.2a.155.155 0 0 0 .049-.104.098.098 0 0 0 0-.04 4.385 4.385 0 0 0-.282-.588l.294-.374.174.256s.317-.71.636-.978c.32-.269 1.85-2.823 1.85-2.823s.356-.239.168-.439c-.188-.2-.088-.174-.088-.174zm-4.71 20.148a.505.505 0 0 0-.133-.218s-.055-.391-.074-.894c.111.391.225.675.225.675l-.018.437zm.881 9.312v-.104h.028l-.028.104zm.231-25.915v-.023a.29.29 0 0 1 .122-.26.137.137 0 0 0 .064-.128.462.462 0 0 0-.09-.227c.037.028.153.09.231-.137a.347.347 0 0 0 .018-.11.918.918 0 0 0-.221-.512l.845-1.782c.093.028.187.05.282.065-.221.685-.403 1.501-.403 1.501l-.654 1.44a.276.276 0 0 1 .114.081l-.308.092z"/>
        <path fill="#444053" d="M153.594 115.844s-1.098.135-1.632-.049c-.535-.184.164.783.886 1.02.51.15 1.036.239 1.566.266l.848-.798.9.07-.156.883.28.025.107-1.155-2.799-.262z"/>
        <path fill="#000" d="M153.594 115.844s-1.098.135-1.632-.049c-.535-.184.164.783.886 1.02.51.15 1.036.239 1.566.266l.848-.798.9.07-.156.883.28.025.107-1.155-2.799-.262z" opacity=".1"/>
        <path fill="#444053" d="M152.008 117.862s-1.319.288-1.986.126c-.668-.163.29.94 1.192 1.137a8.345 8.345 0 0 0 1.932.145l.94-1.065 1.1-.018-.09 1.09h.344v-1.415h-3.432z"/>
        <path fill="#000" d="M152.008 117.862s-1.319.288-1.986.126c-.668-.163.29.94 1.192 1.137a8.345 8.345 0 0 0 1.932.145l.94-1.065 1.1-.018-.09 1.09h.344v-1.415h-3.432z" opacity=".1"/>
        <path fill="#444053" d="M156.883 92.78s2.257 2.51.904 5.344c0 0-.072.507-.02.597.054.09-.215 1.265-.215 1.265s-.037 2.13 0 2.492c.038.362.073.558.073.558s.505 3.936.342 5.11c-.162 1.175-.235 3.27-.235 3.27l-.667 5.634-3.467-.65 1.566-7.73.055-1.37s-.65-1.678-.362-2.528c.288-.85-.073-11.665-.073-11.665l2.099-.327z"/>
        <path fill="#000" d="M156.883 92.78s2.257 2.51.904 5.344c0 0-.072.507-.02.597.054.09-.215 1.265-.215 1.265s-.037 2.13 0 2.492c.038.362.073.558.073.558s.505 3.936.342 5.11c-.162 1.175-.235 3.27-.235 3.27l-.667 5.634-3.467-.65 1.566-7.73.055-1.37s-.65-1.678-.362-2.528c.288-.85-.073-11.665-.073-11.665l2.099-.327z" opacity=".02"/>
        <path fill="#444053" d="M155.223 104.915c-.392.757-.145 2.6-.145 2.6.523.452.235 4.388.235 4.388s.36 3.882.587 4.335c.227.452.196 2.31.196 2.31-2.655.487-4.389-.56-4.389-.56s.85-1.933.867-2.023c.01-.05.124.087.157.128l-.157-.218c-.362-.505 0-1.48 0-1.48s-.452-3.132-.235-3.431c.218-.3-.035-1.355-.162-1.607a3.54 3.54 0 0 1-.29-1.103 2.245 2.245 0 0 0-.108-.577c-.56-.795-.452-2.112-.452-2.112a17.458 17.458 0 0 0-.288-3.395c-.324-1.5.406-5.743.406-5.743s-.243-.83-.063-1.138c.082-.137.07-.462.035-.783a7.733 7.733 0 0 0-.125-.755l4.931-.87c.104.173.196.34.286.5 1.63 3.012.53 4.13.53 4.13l-1.047 3.215s-.372 3.43-.77 4.189z"/>
        <path fill="#EFB7B9" d="M147.414 81.35l-.705.587s-.139-.11-.323-.276c-.442-.392-1.155-1.118-.886-1.423a.532.532 0 0 1 .755-.128c-.039-.043-.857-.918-.52-.847.336.07.978.83.978.83l.505.894.196.362zM156.848 91.102l-.83.253.63 1.1.722-.938z"/>
        <circle cx="154.898" cy="78.39" r="2.365" fill="#EFB7B9"/>
        <path fill="#EFB7B9" d="M153.506 79.253s2.153 3.412.11 3.702c-2.044.29 2.74 2.364 2.74 2.364l1.788-1.804s-1.86-3.215-1.567-4.442c.294-1.228-3.071.18-3.071.18z"/>
        <path fill="#000" d="M156.515 93.38c-.477.146-.963.26-1.455.34 0 0-2.662 1.174-3.631.782a7.733 7.733 0 0 0-.125-.755l4.92-.865c.109.172.205.338.29.499z" opacity=".1"/>
        <path fill="#FF6484" d="M158.964 84.454l-.482.997-.542 1.12-.078.16-.644 1.392-.819 1.762s.29.342.196.614c-.094.272-.217.143-.233.127.014.022.196.257.033.36a.343.343 0 0 0-.107.343s.667 1.102.795 1.5c.127.397-2.023.74-2.023.74s-3.052 1.354-3.811.685c-.76-.67 0-3.81 0-3.81s0-1.805.196-1.967c.195-.162.107-1.41.107-1.41-.522-.957-.162-1.499-.162-1.499l-.145-2.455s.235-.252.415-.27c.115-.012.23-.012.345 0 0 0 .094-.033.233-.07.29-.083.769-.196.94-.112.252.127 1.878-.196 1.878-.196.7-.102 1.406-.168 2.113-.196.241-.014.483.013.716.079a.96.96 0 0 1 .691.609c-.027.293.05.587.217.83.294.47.17.667.17.667z"/>
        <path fill="#000" d="M147.414 81.35l-.705.587s-.139-.11-.323-.276c-.056-.61.462-.69.828-.674l.2.362z" opacity=".1"/>
        <path fill="#FF6484" d="M151.556 83.101l-.307.018s-.722.09-.957-.127-1.065-.288-1.065-.288-.235-.47-.488-.615c-.252-.144-.867-.415-.885-.56a1.304 1.304 0 0 0-.234-.414s-1.355-.325-1.155.74c.2 1.064 1.3 1.986 1.3 1.986s.127.588.542.74c.415.153 3.104 1.41 3.539 1.085.435-.325-.29-2.565-.29-2.565z"/>
        <path fill="#000" d="M158.797 83.78a1.259 1.259 0 0 1-.217-.83.96.96 0 0 0-.69-.608 1.852 1.852 0 0 0-.351-.069.96.96 0 0 1 .68.605c-.027.294.05.588.218.83.288.47.163.67.163.67l-.482.994-.544 1.124-.076.16-.644 1.392-.819 1.762s.288.343.196.615c-.092.272-.215.143-.233.127.016.022.196.256.035.36a.346.346 0 0 0-.11.343s.67 1.102.795 1.5c.126.397-2.022.74-2.022.74s-2.12.939-3.265.867c.979.381 3.627-.795 3.627-.795s2.154-.343 2.023-.74c-.132-.398-.795-1.5-.795-1.5a.343.343 0 0 1 .107-.342c.157-.104-.02-.339-.033-.36.016.015.149.125.233-.128.084-.252-.196-.614-.196-.614l.819-1.762.644-1.392.078-.16.542-1.12.482-.997s.125-.201-.165-.671z" opacity=".1"/>
        <path fill="#FF6484" d="M158.635 84.184l.325.27c.059.179.151.345.272.49.18.195.668 2.165.668 2.165a.35.35 0 0 0 0 .29c.072.144-.145.362-.145.362s-.108-.038.072.162-.162.433-.162.433-1.48 2.527-1.788 2.799c-.307.272-.614.979-.614.979s-.642-1.01-.795-1.03l.632-1.427s.433-1.985.758-2.35c.325-.363-.163-1.606-.163-1.606l.94-1.537z"/>
        <path fill="#000" d="M158.842 87.866c-.27.325-.747.392-1.174.347-.063 0-.123-.016-.186-.028a2.856 2.856 0 0 1-1.17-.505.564.564 0 0 0-.197-.115.423.423 0 0 0-.426.229c-.092.147-.135.319-.23.466-.207.28-.537.442-.886.434a3.132 3.132 0 0 1-1.006-.195c.288-.308.508-.673.646-1.071.059-.265.076-.537.05-.807-.078-1.278-.522-2.625-1.565-3.369-.18-.129-.392-.282-.459-.475.29-.083.77-.196.94-.112.253.127 1.88-.196 1.88-.196.7-.102 1.405-.168 2.112-.196.241-.014.483.013.716.079a4.502 4.502 0 0 0-.059 1.617c.075.332.194.652.357.951.094.178.195.356.291.534.276.494.539.99.588 1.545.041.307-.038.618-.222.867zM155.272 90.411c.138-.036.28-.049.423-.037a.783.783 0 0 1 .317.184h-.928c-.239 0-.6.014-.783-.155.16-.162.736.035.97.008z" opacity=".1"/>
        <path fill="#925978" d="M152.055 78.112a1.398 1.398 0 0 0-.16 1.358c.149.35.435.623.61.96.27.53.248 1.162-.058 1.673a.803.803 0 0 0-.145.3c-.043.276.243.473.47.634 1.041.744 1.486 2.09 1.566 3.369.027.27.01.542-.049.806a2.974 2.974 0 0 1-.646 1.071c.323.12.662.186 1.006.196.349.006.679-.157.887-.437.094-.144.137-.317.23-.465a.42.42 0 0 1 .426-.23.587.587 0 0 1 .196.116c.398.293.865.476 1.356.532.421.05.899-.021 1.175-.346.184-.251.263-.564.221-.873-.094-1.094-1.02-1.958-1.233-3.03-.175-.872.139-1.762.195-2.647.087-1.312-.391-2.59-.859-3.817a4.256 4.256 0 0 0-.411-.87 2.435 2.435 0 0 0-1.762-.978 1.67 1.67 0 0 0-.761.076c-.242.11-.463.261-.654.446-.447.392-.907.783-1.175 1.328-.105.219-.174.454-.291.665"/>
        <g fill="#000" opacity=".1">
            <path d="M152.482 77.634c.116-.213.196-.448.29-.666a2.74 2.74 0 0 1 .376-.565c-.27.25-.495.545-.664.873-.102.213-.17.44-.282.648l.143-.122c-.036.05-.07.103-.1.157.092-.099.172-.208.237-.325zM158.036 87.69a2.848 2.848 0 0 1-1.357-.534.66.66 0 0 0-.195-.116.429.429 0 0 0-.427.231.899.899 0 0 0-.051.096.3.3 0 0 1 .196-.018.587.587 0 0 1 .195.116c.398.293.866.476 1.357.532.42.05.899-.021 1.175-.346a.783.783 0 0 0 .09-.135 1.51 1.51 0 0 1-.983.174zM154.933 88.172a3.175 3.175 0 0 1-1.004-.196c.287-.309.507-.674.644-1.073.06-.264.077-.535.05-.804-.077-1.279-.52-2.628-1.565-3.37-.227-.162-.511-.36-.47-.636a.871.871 0 0 1 .147-.3c.306-.51.328-1.14.058-1.671-.176-.337-.462-.61-.612-.96-.16-.39-.137-.831.062-1.203a1.9 1.9 0 0 1-.158.149c-.04.056-.084.11-.131.16a1.4 1.4 0 0 0-.061 1.202c.149.35.435.623.61.96.27.53.248 1.162-.058 1.673a.803.803 0 0 0-.145.3c-.043.276.243.473.47.634 1.041.744 1.486 2.09 1.566 3.369.027.27.01.542-.049.806a2.974 2.974 0 0 1-.646 1.071c.323.12.663.186 1.006.196.349.006.68-.157.887-.437a.892.892 0 0 0 .033-.058c-.19.12-.41.184-.634.188z"/>
        </g>
        <path fill="url(#b)" d="M13.907 111.498a2.762 2.762 0 0 1-1.14-.417l-.035-.025a.378.378 0 0 0 .059-.135.662.662 0 0 1-.075-.302.693.693 0 0 0-.058-.29v-.489a.9.9 0 0 1-.165-.562c-.013-.405-.03-2.394-.03-2.394a.932.932 0 0 1-.013-.317c.014-.23.014-.317.014-.317a.873.873 0 0 1-.043-.419.538.538 0 0 0-.106-.374l.223-1.096s.124-3.782-.237-4.923v-.014c.03-.734-.416-1.958-.164-2.811.253-.854.284-1.038.284-1.038s-1.116-2.797-1.398-3.46a8.59 8.59 0 0 0-.587-1.246 4.953 4.953 0 0 0-.053-.07l-.03-.036a.758.758 0 0 0 .108-.332c.016-.196-.013-.443.137-.588.058-.046.12-.088.184-.123a.732.732 0 0 0 .325-.705 1.188 1.188 0 0 0-.295-.573 1.613 1.613 0 0 0-.485-1.464v-.09a.924.924 0 0 0-.179-.557l.041.03-.07-.06a.523.523 0 0 0-.116-.09 2.185 2.185 0 0 0-2.27-.118 1.245 1.245 0 0 0-.443.391c-.233.36-.174.824-.296 1.233-.12.41-.391.711-.62 1.052-.23.34-.419.744-.333 1.141.063.29.266.548.262.842a.664.664 0 0 1-.587.618h-.088c.291.176.62.281.96.306 0 .027-.016.053-.022.08a42.334 42.334 0 0 0-.511 2.35s.164 1.326-.178 2.364c-.343 1.037-.298 3.173-.298 3.173s.952-.491 1.012-.174c.06.317 0 .403 0 .403.138.073.279.138.423.196v.127l-.043.568a.628.628 0 0 0 .053.344c.082.159 0 .588 0 .588s-.07.043 0 .246a.836.836 0 0 1-.055.49s-.084 1.08-.1 1.311a4.557 4.557 0 0 1-.297.88s.254.316 0 .361c-.255.045-.282.431-.282.431s-.298.247-.298.333c-.899 1-1.483 2.244-1.677 3.574 0 0-.314.288-.269.562.026.155-.025.208-.074.225.055 0 .115.043.088.178-.043.231-.162.72-.162.72h.021c-.245.283-.599.755-.654 1.175v.051l-.137.3 1.175.519.104-.159s.52.587 1.115.72c.103.023.207.035.312.036a2.78 2.78 0 0 0 .967-.196s.43-.533-.686-.634c0 0-.653-.75-.587-1.067.021-.134.035-.268.041-.404v-.086l.077.012.013-.243a.196.196 0 0 0 .045-.145c0-.1-.09-.115 0-.172.09-.057.088 0 .088-.143s-.058-.101.075-.246-.014-.404-.014-.404a.734.734 0 0 0 .292-.52c-.014-.302.996-2.22 1.204-2.293.207-.072.223-.448.223-.448s.284.059.372 0c.14-.156.264-.325.372-.505 0 0 1.13-2.854 1.145-3.935l.074-.244s.431.561.37.965c-.06.403.331.693.331.693v1.225c.043.213.067.43.07.648-.013.196.177.403.104.578a.979.979 0 0 0 0 .475s-.015.403 0 .519c.016.115-.058 1.44.33 2.018 0 0 .162.417 0 .691-.163.274.146.548.146.548s-.196.318 0 .549a.699.699 0 0 1 .14.51c-.08.294-.136.678 0 .946l.034.413 1.14-.088v-.23c.49.121 1 .153 1.501.095.392-.036.752-.232.995-.542 0 0 .458-.793-.79-.49z"/>
        <path fill="#FF6484" d="M14.482 111.995a1.37 1.37 0 0 1-.967.537 3.939 3.939 0 0 1-1.45-.096v.23l-1.1.087-.034-.411c-.127-.27-.068-.662.01-.955.035-.14.08-.275.135-.408 0 0 .947-.804 1.263-.195a.979.979 0 0 0 .278.317c.33.22.706.361 1.1.415 1.21-.31.765.48.765.48z"/>
        <path fill="#000" d="M11.558 111.207s0 .745.544.732c.544-.014.618-.298.446-.49a2.306 2.306 0 0 1-.301-.444l-.69.202z" opacity=".1"/>
        <path fill="#FF6484" d="M6.86 113.46a2.615 2.615 0 0 1-.932.195 1.546 1.546 0 0 1-.302-.033c-.573-.129-1.077-.718-1.077-.718l-.1.158-1.135-.516.13-.302v-.053c.052-.41.39-.883.63-1.163.135-.156.24-.258.24-.258l1.37.196v.391c-.004.135-.017.27-.038.404-.057.315.573 1.06.573 1.06 1.057.102.64.639.64.639z"/>
        <path fill="#444053" d="M4.132 110.124a.135.135 0 0 1-.07 0 .196.196 0 0 1 .07 0z"/>
        <path fill="#000" d="M5.67 110.977v.392l-1.604-.256s0-.032.018-.083c.125-.158.23-.26.23-.26l1.355.207zM12.62 111.093c-.242.562-1.685.429-1.685.429a.646.646 0 0 0 .01-.137c.035-.139.08-.275.135-.408 0 0 .947-.804 1.263-.195.069.122.164.228.278.311z" opacity=".1"/>
        <path fill="#444053" d="M12.644 110.934c-.143.644-1.709.502-1.709.502a.732.732 0 0 0-.13-.545c-.195-.23 0-.546 0-.546s-.3-.272-.142-.546c.159-.274 0-.689 0-.689-.372-.574-.301-1.895-.317-2.009-.016-.113 0-.516 0-.516a.998.998 0 0 1 0-.474c.07-.172-.114-.374-.098-.574a3.764 3.764 0 0 0-.06-.64v-1.22a.82.82 0 0 1-.318-.688c.057-.404-.36-.962-.36-.962l-.07.243c-.016 1.077-1.107 3.915-1.107 3.915a3.373 3.373 0 0 1-.358.501c-.086.06-.358 0-.358 0s-.016.374-.215.445c-.2.07-1.175 1.98-1.163 2.282a.74.74 0 0 1-.288.533s.143.258.014.401c-.13.143-.07.1-.07.245s0 .086-.087.143c-.086.057 0 .072 0 .172a.208.208 0 0 1-.043.143l-.014.24-1.68-.267s.114-.49.157-.719c.026-.135-.033-.17-.086-.178.047-.018.096-.07.073-.223-.043-.274.258-.56.258-.56a6.877 6.877 0 0 1 1.594-3.575c0-.086.285-.33.285-.33s.03-.392.274-.431c.245-.04 0-.358 0-.358.124-.282.22-.575.286-.875l.096-1.306a.855.855 0 0 0 .053-.488c-.067-.195 0-.244 0-.244s.082-.43 0-.588a.648.648 0 0 1-.049-.344l.04-.564.06-.842s4.463-.761 4.95-.144a.744.744 0 0 1 .116.252c.349 1.135.23 4.894.23 4.894l-.216 1.09c.079.108.115.24.102.372a.895.895 0 0 0 .043.417s0 .086-.016.315a.953.953 0 0 0 .016.318s.013 1.979.027 2.382a.924.924 0 0 0 .159.56v.487c.038.091.058.19.056.288-.002.105.02.21.065.305z"/>
        <path fill="#000" d="M5.928 113.652a1.547 1.547 0 0 1-.302-.034c-.573-.129-1.077-.718-1.077-.718l-.1.158-1.135-.516.13-.302v-.053l1.174.588s.94.456 1.31.877zM13.515 112.532a3.939 3.939 0 0 1-1.45-.096v.23l-1.1.087-.034-.411c.349 0 .91.014 1.153 0 .484-.002.965.062 1.431.19zM4.694 109.754a.444.444 0 0 1 .169.022c.056.034.11.073.16.115.038.02.074.044.108.07.04.042.059.102.1.143.078.077.195.061.305.096.012 0 .024 0 .026.022a.03.03 0 0 1-.018.027.172.172 0 0 1-.167 0 .642.642 0 0 1-.137-.105.916.916 0 0 0-.27-.167c-.135-.055-.37-.068-.456-.196a.392.392 0 0 1 .18-.027zM4.579 110.055c.03.009.059.02.086.036l.147.074a.542.542 0 0 1-.3-.066.62.62 0 0 1-.096-.045.452.452 0 0 1 .163.001zM4.775 110.308a.374.374 0 0 1 .094 0c.056.02.108.052.152.092a.601.601 0 0 0 .38.131.166.166 0 0 1-.082.014h-.31a.356.356 0 0 1-.101 0 .497.497 0 0 1-.128-.047c-.052-.024-.27-.086-.272-.159-.002-.072.214-.031.267-.031zM11.794 110.674c.095.008.19.008.284 0a.552.552 0 0 0 .282-.09c.082-.063.065-.13-.039-.133a.946.946 0 0 0-.417.137c-.02.02-.09.088-.11.086zM12.145 110.83c0 .036-.045.055-.078.067a.86.86 0 0 1-.253.057c-.022 0-.082 0-.074-.033.007-.034.098-.024.12-.028a2.07 2.07 0 0 0 .285-.062zM11.28 110.77c.119-.013.239.011.344.068a.12.12 0 0 1-.117.063.491.491 0 0 1-.135-.035.793.793 0 0 0-.226-.033.587.587 0 0 1-.101 0c-.102-.018-.069-.057 0-.067.078-.003.156-.002.235.004zM7.335 105.134a.89.89 0 0 0-.49-.16.699.699 0 0 1 .49.16zM7.202 104.555c.13 0 .256.036.366.103l-.121-.035a1.202 1.202 0 0 0-.247-.05h-.143c-.047 0-.11-.014-.164-.016.096 0 .203-.006.309-.002zM7.642 104.83c.042 0 .09.026.098.067a1.82 1.82 0 0 0-.319-.117c-.06-.02-.246-.102-.29-.045.155.045.333.06.511.096zM8.034 103.556c.188-.063.357-.172.493-.317a.392.392 0 0 1-.182.321.979.979 0 0 1-.36.135c-.127.023-.252.06-.37.112-.057.027-.233.196-.29.196-.056 0 .043-.124.069-.143.197-.132.413-.234.64-.304zM11.558 105.418c-.061-.022-.803.121-.758-.022.03-.088.27-.054.329-.052.146.004.29.029.429.074z" opacity=".1"/>
        <path fill="#FBBEBE" d="M10.75 88.258a1.64 1.64 0 1 1 0 0z"/>
        <path stroke="#5F708A" d="M9.96 88.931s-.53 1.55-.229 1.866c.302.315-2.167.503-2.167.503s1.032-1.852.932-2.312c-.1-.46 1.464-.057 1.464-.057z"/>
        <path fill="#000" d="M12.17 99.502a.979.979 0 0 1 0 .108c-.03.732-1.335 2.21-1.636 1.957-.302-.252-2.35-.732-2.35-.732s-.3-.473-.616-.473a1.619 1.619 0 0 1-.52-.134l.06-.841s4.463-.762 4.95-.145a.744.744 0 0 1 .112.26z" opacity=".1"/>
        <path fill="#65617D" d="M12.17 99.48c-.013.367-.348.92-.718 1.351-.37.431-.767.736-.918.615a1.45 1.45 0 0 0-.357-.168c-.679-.249-1.996-.564-1.996-.564s-.302-.474-.617-.474-.92-.315-.92-.315.059-.086 0-.401c-.059-.316-.979.172-.979.172s-.043-2.124.286-3.158c.329-1.033.172-2.349.172-2.349s.237-1.3.494-2.33c.154-.616.317-1.135.44-1.215.33-.215 2.052 0 2.052 0 .331.004.663.033.99.086a.448.448 0 0 1 .208.169l.05.072c.226.396.418.81.574 1.24.274.659 1.35 3.443 1.35 3.443s-.028.195-.273 1.033c-.245.838.192 2.061.162 2.794z"/>
        <path fill="#FBBEBE" d="M10.937 100.326l.515.505s.474 1.635-.143 1.49c-.617-.145-1.132-1.043-1.132-1.043l.76-.952z"/>
        <path fill="#000" d="M12.243 95.777c-1.222-.014-1.537-1.723-1.537-1.723s-.086-1.693-.245-2.008a3.261 3.261 0 0 1-.143-.952c.226.397.418.811.574 1.24.274.66 1.35 3.443 1.35 3.443z" opacity=".1"/>
        <path fill="#65617D" d="M12.286 95.648c-1.222-.014-1.537-1.723-1.537-1.723s-.086-1.693-.245-2.009a3.261 3.261 0 0 1-.142-.95c.225.395.417.81.573 1.238.274.66 1.35 3.444 1.35 3.444z"/>
        <path fill="#000" d="M10.1 91.435s-.36-.979-.946 0a4.962 4.962 0 0 0-.603 2.21l-.102 2.698a1.6 1.6 0 0 1 .18.56c0 .195.352.782.352.782s.087 1.134.415 1.322l.318.932s.013.616.229.861a.72.72 0 0 1 .101.62l1.277-.446s-.145.053 0-.333c.145-.385-.086-.888-.086-.888s-.819-1.78-.92-2.038c-.102-.259-.243-.56-.196-.861.047-.302.012-3.503.086-3.99.074-.487-.106-1.43-.106-1.43z" opacity=".1"/>
        <path fill="#FF6484" d="M10.232 91.3s-.358-.979-.947 0a4.994 4.994 0 0 0-.603 2.21l-.1 2.698c.094.174.155.363.18.56 0 .195.35.782.35.782s.087 1.134.418 1.32l.315.934s.015.616.23.86a.72.72 0 0 1 .102.621l1.275-.446s-.143.053 0-.335c.143-.387-.09-.892-.09-.892s-.816-1.78-.918-2.038c-.102-.259-.243-.56-.196-.861.047-.302.012-3.503.084-3.992.073-.49-.1-1.421-.1-1.421z"/>
        <path fill="#000" d="M10.258 99.739a.5.5 0 0 1 .156.047c.04.02.073.05.112.072.045.026.095.04.147.04a1.691 1.691 0 0 1-.173 0 .272.272 0 0 1-.105-.014.435.435 0 0 1-.09-.057.546.546 0 0 0-.114-.065c-.031-.011-.064-.015-.076-.047a.887.887 0 0 1 .143.024zM10.743 100.125c.055 0 .108-.012.163-.016.079-.003.158.001.237.012a.65.65 0 0 1-.374.066.215.215 0 0 0-.112 0c-.04.016-.157.15-.166.032-.01-.118.186-.092.252-.094zM10.084 86.535l-.21-.153a.444.444 0 0 1 .182.121l.067.061-.04-.029zM10.31 90.893a.513.513 0 0 1-.176.213.354.354 0 0 1-.154.059.587.587 0 0 1-.231-.024 2.788 2.788 0 0 1-.282-.092 5.125 5.125 0 0 0-.554-.195.885.885 0 0 0-.826.168c-.182.184-.225.47-.405.654-.243.246-.639.23-.98.182l-.08-.012c.155-.617.318-1.135.441-1.216.33-.215 2.052 0 2.052 0 .331.005.662.034.99.086a.448.448 0 0 1 .206.177zM7.478 88.258a1.635 1.635 0 0 1 2.778-1.175c0 .284-.057.587.023.852.1.25.246.478.431.673a1.637 1.637 0 0 1-3.232-.35z" opacity=".1"/>
        <path fill="#444053" d="M10.123 86.478a2.04 2.04 0 0 0-2.373-.266 1.218 1.218 0 0 0-.427.392c-.225.358-.168.822-.285 1.227-.118.405-.378.709-.6 1.047-.22.339-.405.74-.32 1.136.06.287.258.546.254.84a.65.65 0 0 1-.63.618c.29.179.619.285.959.31.342.048.738.064.979-.183.18-.184.223-.47.405-.653a.885.885 0 0 1 .826-.169c.286.067.55.196.836.28a.587.587 0 0 0 .23.024c.246-.034.392-.306.408-.552.016-.196-.014-.44.131-.588.056-.046.115-.088.178-.123a.74.74 0 0 0 .315-.703c-.068-.485-.587-.783-.732-1.26-.08-.275-.02-.568-.023-.852-.004-.284-.114-.61-.382-.707"/>
        <path fill="#000" d="M10.984 89.115c-.067-.485-.587-.783-.732-1.26-.08-.275-.018-.568-.024-.852a.922.922 0 0 0-.172-.554l.041.03a1.011 1.011 0 0 0-.068-.061.548.548 0 0 0-.112-.09l-.074-.051.039.037-.041-.03a.918.918 0 0 1 .172.554c0 .284-.057.588.024.85.139.472.665.783.732 1.263a.742.742 0 0 1-.315.703 1.151 1.151 0 0 0-.179.123c-.144.145-.115.391-.13.587-.02.247-.161.519-.406.552a.626.626 0 0 1-.233-.023c-.284-.075-.55-.214-.836-.28a.88.88 0 0 0-.826.168c-.18.182-.225.47-.405.654-.243.245-.638.23-.979.182a2.999 2.999 0 0 1-.658-.15.425.425 0 0 1-.086 0c.29.177.62.284.96.309.342.048.737.064.978-.183.18-.184.225-.47.405-.653a.885.885 0 0 1 .826-.169c.286.067.553.196.836.28a.587.587 0 0 0 .233.024c.245-.034.392-.306.406-.552.015-.196-.014-.44.13-.588.056-.046.116-.088.179-.123a.74.74 0 0 0 .315-.697z" opacity=".1"/>
        <path fill="#5F708A" d="M17.284 112.495c.313 1.043-3.898 1.718-8.857 1.527-4.445-.17-7.932-.989-8.188-1.845-.257-.855 2.774-1.552 7.167-1.566 4.9 0 9.564.84 9.878 1.884z" opacity=".1"/>
    </g>
</svg>
