<svg xmlns="http://www.w3.org/2000/svg" width="103" height="20" viewBox="0 0 103 20">
    <g fill="none" fill-rule="nonzero">
        <path fill="#242E42" d="M38.088 13.752h-1.872v-8.24l-3.264 8.24h-.8l-3.28-8.24v8.24H27V3.08h2.64l2.912 7.328 2.896-7.328h2.64v10.672zm5.728.192c-2.464 0-3.968-1.856-3.968-4.064 0-2.224 1.504-4.048 3.968-4.048s3.968 1.824 3.968 4.048c0 2.208-1.504 4.064-3.968 4.064zm0-1.488c1.44 0 2.224-1.2 2.224-2.576 0-1.36-.784-2.56-2.224-2.56-1.424 0-2.224 1.2-2.224 2.56 0 1.376.8 2.576 2.224 2.576zm12.592 1.296h-1.68V8.92c0-1.216-.624-1.6-1.568-1.6-.848 0-1.584.512-1.984 1.024v5.408h-1.68V6.024h1.68v1.04c.512-.608 1.52-1.232 2.736-1.232 1.664 0 2.496.896 2.496 2.48v5.44zm3.024-8.672c-.576 0-1.04-.464-1.04-1.04 0-.576.464-1.04 1.04-1.04.576 0 1.04.464 1.04 1.04 0 .576-.464 1.04-1.04 1.04zm.832 8.672h-1.68V6.024h1.68v7.728zm4.512.192c-1.312 0-1.984-.704-1.984-2V7.48h-1.28V6.024h1.28V3.912h1.68v2.112h1.568V7.48h-1.568v4.048c0 .528.256.928.736.928.32 0 .608-.144.736-.288l.4 1.28c-.304.272-.8.496-1.568.496zm6.272 0c-2.464 0-3.968-1.856-3.968-4.064 0-2.224 1.504-4.048 3.968-4.048s3.968 1.824 3.968 4.048c0 2.208-1.504 4.064-3.968 4.064zm0-1.488c1.44 0 2.224-1.2 2.224-2.576 0-1.36-.784-2.56-2.224-2.56-1.424 0-2.224 1.2-2.224 2.56 0 1.376.8 2.576 2.224 2.576zm7.36 1.296h-1.68V6.024h1.68v1.12c.592-.736 1.52-1.312 2.512-1.312v1.664a2.319 2.319 0 0 0-.512-.048c-.72 0-1.664.48-2 1.04v5.264zm4.72-8.672c-.576 0-1.04-.464-1.04-1.04 0-.576.464-1.04 1.04-1.04.576 0 1.04.464 1.04 1.04 0 .576-.464 1.04-1.04 1.04zm.832 8.672h-1.68V6.024h1.68v7.728zm9.088 0h-1.68V8.92c0-1.216-.624-1.6-1.568-1.6-.848 0-1.584.512-1.984 1.024v5.408h-1.68V6.024h1.68v1.04c.512-.608 1.52-1.232 2.736-1.232 1.664 0 2.496.896 2.496 2.48v5.44zm5.328 3.136c-1.312 0-2.288-.288-3.248-1.152l.784-1.216c.64.72 1.44.992 2.464.992 1.104 0 2.288-.512 2.288-2.16v-.88c-.592.784-1.472 1.296-2.48 1.296-1.968 0-3.424-1.424-3.424-3.968 0-2.512 1.424-3.968 3.424-3.968.976 0 1.856.432 2.48 1.264V6.024h1.68v7.328c0 2.784-2.08 3.536-3.968 3.536zm.304-4.624c.784 0 1.6-.464 1.984-1.024V8.344c-.384-.56-1.2-1.024-1.984-1.024-1.344 0-2.192.992-2.192 2.48s.848 2.464 2.192 2.464z"/>
        <path fill="#F5A623" d="M9.99.02C4.473.02 0 4.491 0 10.01 0 15.526 4.473 20 9.99 20c5.518 0 9.99-4.473 9.99-9.99 0-5.518-4.473-9.99-9.99-9.99zm0 18.697c-1.57 0-2.842-1.049-2.842-2.342h5.685c0 1.293-1.273 2.342-2.843 2.342zm4.695-3.117h-9.39v-1.703h9.39V15.6zm-.033-2.58h-9.33c-.031-.035-.063-.07-.093-.107-.961-1.167-1.188-1.776-1.407-2.397-.004-.02 1.165.239 1.994.425 0 0 .427.099 1.05.213-.598-.702-.954-1.595-.954-2.507 0-2.003 1.536-3.753.982-5.167.54.044 1.116 1.138 1.155 2.85.573-.793.813-2.24.813-3.127 0-.919.606-1.986 1.211-2.022-.54.89.14 1.652.744 3.543.226.71.197 1.907.372 2.665.058-1.575.33-3.873 1.328-4.666-.44.999.065 2.249.412 2.85.558.97.896 1.704.896 3.094 0 .931-.344 1.808-.924 2.494.66-.124 1.116-.235 1.116-.235l2.142-.418s-.311 1.28-1.507 2.512z"/>
    </g>
</svg>
