<svg width="41" height="40" viewBox="0 0 41 40" fill="none" xmlns="http://www.w3.org/2000/svg">
<path fill-rule="evenodd" clip-rule="evenodd" d="M3.66699 6.66667C3.66699 5.74619 4.41318 5 5.33366 5H35.3337C36.2541 5 37.0003 5.74619 37.0003 6.66667V26.6667C37.0003 27.5871 36.2541 28.3333 35.3337 28.3333H5.33366C4.41318 28.3333 3.66699 27.5871 3.66699 26.6667V6.66667ZM17.0624 8.23527L21.4246 20.0133L25.3867 13.2779L27.6371 17.4945H33.667V19.9945H26.1376L25.2807 18.3889L20.9093 25.8201L16.9382 15.0981L14.9205 19.9945H7.00033V17.4945H13.2468L17.0624 8.23527Z" fill="#CCD3DB"/>
<path d="M21.4243 20.0134L17.0621 8.23535L13.2465 17.4946H7V19.9946H14.9202L16.9379 15.0982L20.909 25.8202L25.2803 18.389L26.1373 19.9946H33.6667V17.4946H27.6368L25.3863 13.278L21.4243 20.0134Z" fill="#36435C"/>
<path d="M22.8333 28.3334H17.8333V31.6518C17.5951 31.7553 15.9839 32.4196 13.6956 32.4967C13.2246 32.5126 12.8333 32.8875 12.8333 33.3587V34.9963H17.8333V35.0001H22.8333V34.9963H27.8333V33.3587C27.8333 32.8875 27.4421 32.5126 26.9711 32.4967C24.6827 32.4196 23.0716 31.7553 22.8333 31.6518V28.3334Z" fill="#36435C"/>
</svg>
