<svg width="24" height="24" viewBox="0 0 24 24" fill="none" xmlns="http://www.w3.org/2000/svg">
<path d="M3 17.5933C3 14.5944 5.5 12.5 10 12.5C14.5 12.5 17 14.5944 17 17.5933V22H3V17.5933Z" fill="#B6C2CD"/>
<path d="M13.5 5.56258C13.5 3.59502 11.9331 2 10.0002 2C9.87173 2 9.74341 2.00719 9.61577 2.02155C7.69455 2.23765 6.30919 3.9982 6.52148 5.95386L6.74735 8.03461C6.93058 9.72255 8.33184 11 10.0002 11C11.6685 11 13.0697 9.72255 13.253 8.03461L13.4788 5.95386C13.4929 5.82393 13.5 5.69331 13.5 5.56258Z" fill="#324558"/>
<path d="M23 5H16V7H23V5Z" fill="#324558"/>
<path d="M17 11H23V13H17V11Z" fill="#324558"/>
<path d="M23 17H19V19H23V17Z" fill="#324558"/>
</svg>
