<svg xmlns="http://www.w3.org/2000/svg" width="96" height="117" viewBox="0 0 96 117">
    <defs>
        <linearGradient id="a" x1="50.462%" x2="49.19%" y1="95.258%" y2="6.073%">
            <stop offset="0%" stop-color="#C8C8C8"/>
            <stop offset="100%" stop-color="#C8C8C8"/>
        </linearGradient>
        <linearGradient id="b" x1="49.132%" x2="46.192%" y1="99.042%" y2="11.361%">
            <stop offset="0%" stop-color="#D4D4D7"/>
            <stop offset="100%" stop-color="#E8E8E8"/>
        </linearGradient>
        <linearGradient id="c" x1="12.001%" x2="89.218%" y1="43.347%" y2="56.083%">
            <stop offset="0%" stop-color="#FFF"/>
            <stop offset="100%" stop-color="#FDFCFD"/>
        </linearGradient>
        <linearGradient id="d" x1="36.173%" x2="61.494%" y1="8.434%" y2="70.649%">
            <stop offset="0%" stop-color="#D0D0D0"/>
            <stop offset="100%" stop-color="#C8C8C8"/>
        </linearGradient>
    </defs>
    <g fill="none" fill-rule="evenodd">
        <path fill="url(#a)" d="M23.457 35.675l19.794 7.66 2.77 81.834-17.376 8.576z" transform="translate(0 -17)"/>
        <path fill="url(#b)" d="M0 2.61l78.974 34.04.434 27.857L24.13 39.055l4.54 94.51-22.08-17.162z" transform="translate(0 -17)"/>
        <path fill="url(#c)" d="M19.707.218l76.128 31.925-17.113 4.57L0 2.603z" transform="translate(0 -17)"/>
        <path fill="url(#d)" d="M78.803 36.708L95.8 32.195v27.03l-16.395 5.294z" opacity=".2" transform="translate(0 -17)"/>
    </g>
</svg>
