<svg width="56" height="56" viewBox="0 0 56 56" fill="none" xmlns="http://www.w3.org/2000/svg">
<g id="&#231;&#188;&#150;&#231;&#187;&#132; 84">
<g id="&#233;&#161;&#181;&#233;&#157;&#162; 1">
<g id="&#231;&#188;&#150;&#231;&#187;&#132;">
<path id="&#232;&#183;&#175;&#229;&#190;&#132;" d="M30.019 20.9462V6.78468C30.019 4.00415 32.2731 1.75001 35.0536 1.75001C36.3936 1.74292 37.6811 2.27018 38.6311 3.21513C39.5811 4.16008 40.1152 5.44475 40.1152 6.78468V20.9462C40.1152 23.7267 37.8611 25.9809 35.0806 25.9809C33.7407 25.9879 32.4532 25.4607 31.5032 24.5157C30.5531 23.5708 30.019 22.2861 30.019 20.9462Z" fill="#2FB67C"/>
<path id="&#232;&#183;&#175;&#229;&#190;&#132;_2" d="M49.2151 30.0191H35.0536C32.2731 30.0191 30.019 32.2732 30.019 35.0537C30.019 37.8342 32.2731 40.0883 35.0536 40.0883H49.2151C51.9957 40.0883 54.2497 37.8342 54.2497 35.0537C54.2497 32.2732 51.9957 30.0191 49.2151 30.0191Z" fill="#ECB12F"/>
<path id="&#232;&#183;&#175;&#229;&#190;&#132;_3" d="M20.946 30.0192C19.6061 30.0121 18.3186 30.5393 17.3686 31.4843C16.4186 32.4292 15.8845 33.7139 15.8845 35.0538V49.2153C15.8845 51.9959 18.1385 54.25 20.9191 54.25C23.6996 54.25 25.9537 51.9959 25.9537 49.2153V35.0538C25.9537 32.2838 23.716 30.0341 20.946 30.0192Z" fill="#DE1F59"/>
<path id="&#232;&#183;&#175;&#229;&#190;&#132;_4" d="M20.9461 15.885H6.78455C4.00402 15.885 1.74995 18.1391 1.74995 20.9196C1.74995 23.7001 4.00402 25.9542 6.78455 25.9542H20.9461C23.7266 25.9542 25.9807 23.7001 25.9807 20.9196C25.9807 18.1391 23.7266 15.885 20.9461 15.885Z" fill="#36C5EE"/>
<path id="&#232;&#183;&#175;&#229;&#190;&#132;_5" d="M20.946 1.75001C19.6061 1.74292 18.3186 2.27018 17.3686 3.21513C16.4186 4.16008 15.8844 5.44474 15.8844 6.78468C15.8773 8.1246 16.4046 9.4121 17.3495 10.3621C18.2945 11.3121 19.5791 11.8462 20.9191 11.8462H24.6345C25.3779 11.8462 25.9806 11.2435 25.9806 10.5001V6.78468C25.9806 4.00415 23.7265 1.75001 20.946 1.75001Z" fill="#36C5EE"/>
<path id="&#232;&#183;&#175;&#229;&#190;&#132;_6" d="M49.2151 15.8841C47.8752 15.877 46.5877 16.4043 45.6377 17.3492C44.6877 18.2942 44.1536 19.5788 44.1536 20.9188V24.6341C44.1536 25.3776 44.7563 25.9803 45.4998 25.9803H49.2151C51.9957 25.9803 54.2498 23.7262 54.2498 20.9457C54.2569 19.6058 53.7296 18.3183 52.7847 17.3683C51.8397 16.4183 50.5551 15.8841 49.2151 15.8841Z" fill="#2FB67C"/>
<path id="&#232;&#183;&#175;&#229;&#190;&#132;_7" d="M35.0806 44.1542H31.3652C31.0082 44.1542 30.6658 44.296 30.4133 44.5485C30.1609 44.8009 30.019 45.1433 30.019 45.5003V49.2157C30.019 51.9962 32.2731 54.2503 35.0536 54.2503C37.8342 54.2503 40.0883 51.9962 40.0883 49.2157C40.0954 47.8804 39.5718 46.597 38.6327 45.6478C37.6936 44.6986 36.4158 44.1613 35.0806 44.1542Z" fill="#ECB12F"/>
<path id="&#232;&#183;&#175;&#229;&#190;&#132;_8" d="M10.4998 30.0191H6.78445C4.00392 30.0191 1.74978 32.2732 1.74978 35.0537C1.74269 36.3936 2.26995 37.6811 3.2149 38.6311C4.15985 39.5811 5.44452 40.1153 6.78445 40.1153C8.12437 40.1224 9.41187 39.5951 10.3619 38.6502C11.3119 37.7052 11.846 36.4206 11.846 35.0806V31.3653C11.846 30.6218 11.2433 30.0191 10.4998 30.0191Z" fill="#DE1F59"/>
</g>
</g>
</g>
</svg>
