<svg xmlns="http://www.w3.org/2000/svg" width="20" height="20" viewBox="0 0 20 20">
    <path fill="#F5A623" fill-rule="nonzero" d="M17.827 8.645l-3.68 3.591.87 5.05a.387.387 0 0 1-.142.355c-.053.053-.142.07-.213.07-.053 0-.107-.017-.16-.035l-4.533-2.4-4.534 2.382a.321.321 0 0 1-.373-.035c-.107-.071-.16-.213-.142-.356l.871-5.049-3.68-3.573c-.089-.089-.124-.231-.089-.373a.37.37 0 0 1 .285-.25l5.066-.71L9.65 2.707a.336.336 0 0 1 .32-.195c.142 0 .266.07.32.195l2.275 4.605 5.067.729a.321.321 0 0 1 .284.249.36.36 0 0 1-.088.355z"/>
</svg>
