<svg width="240" height="200" viewBox="0 0 240 200" fill="none" xmlns="http://www.w3.org/2000/svg">
    <path opacity="0.5" fill-rule="evenodd" clip-rule="evenodd"
          d="M199.075 140.509L115.937 92.3916L40.8052 135.876L123.943 183.993L199.075 140.509ZM115.937 91.9536L40.0485 135.876L123.943 184.431L199.832 140.509L115.937 91.9536Z"
          fill="#14B09F"/>
    <path opacity="0.5" fill-rule="evenodd" clip-rule="evenodd"
          d="M159.026 137.108L75.8887 88.9907L0.756843 132.475L83.8947 180.592L159.026 137.108ZM75.8887 88.5527L0.000121618 132.475L83.8947 181.03L159.783 137.108L75.8887 88.5527Z"
          fill="url(#paint0_linear_14028_4848)"/>
    <path opacity="0.5" fill-rule="evenodd" clip-rule="evenodd"
          d="M239.243 133.985L156.105 85.8677L80.9736 129.352L164.111 177.469L239.243 133.985ZM156.105 85.4297L80.2169 129.352L164.111 177.907L240 133.985L156.105 85.4297Z"
          fill="url(#paint1_linear_14028_4848)"/>
    <path d="M123.731 69.1875L202.547 114.771L123.731 160.354L44.9154 114.771L123.731 69.1875Z"
          fill="url(#paint2_linear_14028_4848)"/>
    <path d="M124.582 76.8975L191.213 115.434L124.687 153.909L58.0554 115.373L124.582 76.8975Z" fill="#0E645B"/>
    <path d="M124.492 76.6929L191.507 115.451L187.932 117.519L120.916 78.7608L124.492 76.6929Z" fill="#42BDB1"/>
    <path d="M124.492 76.6929L127.977 78.7086L61.0965 117.389L57.6112 115.373L124.492 76.6929Z" fill="#42BDB1"/>
    <path d="M44.8936 114.779L123.76 160.36L123.76 173.887L44.8936 126.423L44.8936 114.779Z"
          fill="url(#paint3_linear_14028_4848)"/>
    <path d="M63.1748 128.762L102.509 152.508L102.509 157.943L63.1748 134.125L63.1748 128.762Z"
          fill="url(#paint4_linear_14028_4848)" fill-opacity="0.59"/>
    <path d="M54.7374 123.793L56.4636 124.928L56.4635 131.48L54.7373 130.491L54.7374 123.793Z" fill="#FDDA50"/>
    <path d="M112.628 158.886L114.355 160.021L114.355 166.573L112.628 165.585L112.628 158.886Z" fill="#FDDA50"/>
    <path d="M51.4835 121.594L53.2097 122.729L53.2096 129.281L51.4834 128.292L51.4835 121.594Z" fill="#FDDA50"/>
    <path d="M109.375 156.703L111.101 157.838L111.101 164.39L109.375 163.402L109.375 156.703Z" fill="#FDDA50"/>
    <path d="M202.54 114.807L123.771 160.359L123.723 173.885L202.498 126.45L202.54 114.807Z"
          fill="url(#paint5_linear_14028_4848)"/>
    <path d="M186.407 127.601L184.242 129.145L184.242 134.829L186.407 133.352L186.407 127.601Z" fill="#FDDA50"/>
    <path d="M190.244 125.475L188.079 127.019L188.079 132.704L190.244 131.226L190.244 125.475Z" fill="#FDDA50"/>
    <path d="M193.847 123.423L191.682 124.967L191.682 130.651L193.847 129.174L193.847 123.423Z" fill="#FDDA50"/>
    <path d="M197.423 121.253L195.257 122.798L195.257 128.482L197.422 127.005L197.423 121.253Z" fill="#FDDA50"/>
    <rect width="16.5829" height="9.85665" transform="matrix(0.865651 0.500649 -2.19924e-08 1 71.2329 106.745)"
          fill="url(#paint6_linear_14028_4848)"/>
    <rect width="16.5829" height="9.85665" transform="matrix(-0.865651 0.500649 2.19924e-08 1 99.9443 106.745)"
          fill="url(#paint7_linear_14028_4848)"/>
    <rect width="16.5779" height="16.6656" transform="matrix(0.865651 0.500649 -0.865651 0.500649 85.6475 98.4033)"
          fill="url(#paint8_linear_14028_4848)"/>
    <rect width="16.5829" height="9.85665" transform="matrix(0.865651 0.500649 -2.19924e-08 1 71.2905 94.7407)"
          fill="url(#paint9_linear_14028_4848)"/>
    <rect width="16.5829" height="9.85665" transform="matrix(-0.865651 0.500649 2.19924e-08 1 100.001 94.7407)"
          fill="url(#paint10_linear_14028_4848)"/>
    <rect width="16.5779" height="16.6656" transform="matrix(0.865651 0.500649 -0.865651 0.500649 85.7046 86.3994)"
          fill="url(#paint11_linear_14028_4848)"/>
    <rect width="16.5829" height="9.85665" transform="matrix(0.865651 0.500649 -2.19924e-08 1 149.191 106.745)"
          fill="url(#paint12_linear_14028_4848)"/>
    <rect width="16.5829" height="9.85665" transform="matrix(-0.865651 0.500649 2.19924e-08 1 177.902 106.745)"
          fill="url(#paint13_linear_14028_4848)"/>
    <rect width="16.5779" height="16.6656" transform="matrix(0.865651 0.500649 -0.865651 0.500649 163.635 98.4048)"
          fill="url(#paint14_linear_14028_4848)"/>
    <rect width="16.5829" height="9.85665" transform="matrix(0.865651 0.500649 -2.19924e-08 1 149.281 94.7407)"
          fill="url(#paint15_linear_14028_4848)"/>
    <rect width="16.5829" height="9.85665" transform="matrix(-0.865651 0.500649 2.19924e-08 1 177.992 94.7407)"
          fill="url(#paint16_linear_14028_4848)"/>
    <rect width="16.5779" height="16.6656" transform="matrix(0.865651 0.500649 -0.865651 0.500649 163.694 86.3994)"
          fill="url(#paint17_linear_14028_4848)"/>
    <rect width="32.9513" height="11.7679" transform="matrix(0.865651 0.500649 -2.19924e-08 1 95.6655 121.242)"
          fill="url(#paint18_linear_14028_4848)"/>
    <rect opacity="0.3" width="2.18374" height="5.5914"
          transform="matrix(0.865651 0.500649 -2.19924e-08 1 97.7451 125.625)" fill="white"/>
    <rect opacity="0.3" width="2.18374" height="5.5914"
          transform="matrix(0.865651 0.500649 -2.19924e-08 1 100.558 127.238)" fill="white"/>
    <rect opacity="0.3" width="2.18374" height="5.5914"
          transform="matrix(0.865651 0.500649 -2.19924e-08 1 103.37 128.688)" fill="white"/>
    <rect width="32.9513" height="11.7688" transform="matrix(-0.865651 0.500649 2.19924e-08 1 152.737 121.242)"
          fill="url(#paint19_linear_14028_4848)"/>
    <rect width="6.87604" height="4.503" transform="matrix(-0.865651 0.500649 2.19924e-08 1 132.168 136.458)"
          fill="#5DCFC4"/>
    <rect width="32.9414" height="33.1157" transform="matrix(0.865651 0.500649 -0.865651 0.500649 124.347 104.663)"
          fill="url(#paint20_linear_14028_4848)"/>
    <ellipse rx="1.19314" ry="1.19468" transform="matrix(0.865651 -0.500649 2.19924e-08 1 135.076 137.495)"
             fill="#FDDA50"/>
    <ellipse rx="1.19314" ry="1.19468" transform="matrix(0.865651 -0.500649 2.19924e-08 1 137.537 136.059)"
             fill="#FDDA50"/>
    <ellipse rx="1.19314" ry="1.19468" transform="matrix(0.865651 -0.500649 2.19924e-08 1 139.998 134.476)"
             fill="#FDDA50"/>
    <rect width="32.9513" height="11.7679" transform="matrix(0.865651 0.500649 -2.19924e-08 1 95.666 107.434)"
          fill="url(#paint21_linear_14028_4848)"/>
    <rect opacity="0.3" width="2.18374" height="5.5914"
          transform="matrix(0.865651 0.500649 -2.19924e-08 1 97.7451 111.816)" fill="white"/>
    <rect opacity="0.3" width="2.18374" height="5.5914"
          transform="matrix(0.865651 0.500649 -2.19924e-08 1 100.558 113.43)" fill="white"/>
    <rect opacity="0.3" width="2.18374" height="5.5914"
          transform="matrix(0.865651 0.500649 -2.19924e-08 1 103.371 114.881)" fill="white"/>
    <rect width="32.9513" height="11.7688" transform="matrix(-0.865651 0.500649 2.19924e-08 1 152.737 107.434)"
          fill="url(#paint22_linear_14028_4848)"/>
    <rect width="6.87604" height="4.503" transform="matrix(-0.865651 0.500649 2.19924e-08 1 132.169 122.649)"
          fill="#5DCFC4"/>
    <rect width="32.9414" height="33.1157" transform="matrix(0.865651 0.500649 -0.865651 0.500649 124.347 90.8535)"
          fill="url(#paint23_linear_14028_4848)"/>
    <ellipse rx="1.19314" ry="1.19468" transform="matrix(0.865651 -0.500649 2.19924e-08 1 135.077 123.701)"
             fill="#FDDA50"/>
    <ellipse rx="1.19314" ry="1.19468" transform="matrix(0.865651 -0.500649 2.19924e-08 1 137.538 122.265)"
             fill="#FDDA50"/>
    <ellipse rx="1.19314" ry="1.19468" transform="matrix(0.865651 -0.500649 2.19924e-08 1 139.999 120.681)"
             fill="#FDDA50"/>
    <rect width="32.9513" height="11.7679" transform="matrix(0.865651 0.500649 -2.19924e-08 1 95.7832 92.979)"
          fill="url(#paint24_linear_14028_4848)"/>
    <rect opacity="0.3" width="2.18374" height="5.5914"
          transform="matrix(0.865651 0.500649 -2.19924e-08 1 97.8325 97.3633)" fill="white"/>
    <rect opacity="0.3" width="2.18374" height="5.5914"
          transform="matrix(0.865651 0.500649 -2.19924e-08 1 100.645 98.96)" fill="white"/>
    <rect opacity="0.3" width="2.18374" height="5.5914"
          transform="matrix(0.865651 0.500649 -2.19924e-08 1 103.458 100.426)" fill="white"/>
    <rect width="32.9513" height="11.7688" transform="matrix(-0.865651 0.500649 2.19924e-08 1 152.823 92.979)"
          fill="url(#paint25_linear_14028_4848)"/>
    <rect width="6.87604" height="4.503" transform="matrix(-0.865651 0.500649 2.19924e-08 1 132.286 108.196)"
          fill="#5DCFC4"/>
    <rect width="32.9414" height="33.1157" transform="matrix(0.865651 0.500649 -0.865651 0.500649 124.435 76.3999)"
          fill="url(#paint26_linear_14028_4848)"/>
    <ellipse rx="1.19314" ry="1.19468" transform="matrix(0.865651 -0.500649 2.19924e-08 1 135.164 109.232)"
             fill="#FDDA50"/>
    <ellipse rx="1.19314" ry="1.19468" transform="matrix(0.865651 -0.500649 2.19924e-08 1 137.625 107.797)"
             fill="#FDDA50"/>
    <ellipse rx="1.19314" ry="1.19468" transform="matrix(0.865651 -0.500649 2.19924e-08 1 140.086 106.213)"
             fill="#FDDA50"/>
    <path d="M58.0578 61.289L124.751 100.29L124.751 153.915L57.6367 115.392L58.0578 61.289Z"
          fill="url(#paint27_linear_14028_4848)" fill-opacity="0.4"/>
    <path d="M191.436 60.8124L124.424 99.7407L124.743 153.912L191.436 115.387L191.436 60.8124Z"
          fill="url(#paint28_linear_14028_4848)" fill-opacity="0.4"/>
    <rect width="77.0211" height="77.4288" transform="matrix(0.865651 0.500649 -0.865651 0.500649 124.552 22.5713)"
          fill="url(#paint29_linear_14028_4848)" fill-opacity="0.4"/>
    <path d="M136.197 44.1367L157.349 52.041L157.519 55.3205L128.769 58.9214L146.323 64.9644L146.493 68.242L88.1921 72.6809L88.0242 69.4381L116.034 61.655L98.846 52.3144L98.7101 49.6903C98.7101 49.6903 123.107 47.2576 136.197 44.1367Z"
          fill="#14BAA9"/>
    <path d="M135.684 40.8534L157.333 52.0346L128.256 55.6382L146.297 64.9558L88 69.4297L115.521 58.3717L98.6826 49.6753L135.684 40.8534Z"
          fill="#BEFFF8"/>
    <defs>
        <linearGradient id="paint0_linear_14028_4848" x1="2.76622" y1="131.316" x2="102.523" y2="125.511"
                        gradientUnits="userSpaceOnUse">
            <stop stop-color="#14B09F"/>
            <stop offset="1" stop-color="#14B09F" stop-opacity="0"/>
        </linearGradient>
        <linearGradient id="paint1_linear_14028_4848" x1="198.053" y1="109.708" x2="159.968" y2="175.51"
                        gradientUnits="userSpaceOnUse">
            <stop stop-color="#14B09F"/>
            <stop offset="1" stop-color="#14B09F" stop-opacity="0"/>
        </linearGradient>
        <linearGradient id="paint2_linear_14028_4848" x1="158.899" y1="88.6974" x2="122.559" y2="157.68"
                        gradientUnits="userSpaceOnUse">
            <stop stop-color="#0BA797"/>
            <stop offset="0.878635" stop-color="#0AA796"/>
        </linearGradient>
        <linearGradient id="paint3_linear_14028_4848" x1="84.5562" y1="151.267" x2="91.5666" y2="139.046"
                        gradientUnits="userSpaceOnUse">
            <stop stop-color="#119E8F"/>
            <stop offset="1" stop-color="#71E7DB"/>
        </linearGradient>
        <linearGradient id="paint4_linear_14028_4848" x1="82.8418" y1="140.137" x2="80.054" y2="144.957"
                        gradientUnits="userSpaceOnUse">
            <stop stop-color="#5BDCCF"/>
        </linearGradient>
        <linearGradient id="paint5_linear_14028_4848" x1="123.722" y1="167.794" x2="162.965" y2="99.01"
                        gradientUnits="userSpaceOnUse">
            <stop stop-color="#16A293"/>
            <stop offset="1" stop-color="#59D5C8"/>
        </linearGradient>
        <linearGradient id="paint6_linear_14028_4848" x1="16.5829" y1="0.88972" x2="4.71078" y2="-5.80861"
                        gradientUnits="userSpaceOnUse">
            <stop stop-color="#14BAA9"/>
            <stop offset="1" stop-color="#1ABBAB"/>
        </linearGradient>
        <linearGradient id="paint7_linear_14028_4848" x1="16.5829" y1="0.88972" x2="4.71078" y2="-5.80861"
                        gradientUnits="userSpaceOnUse">
            <stop stop-color="#14BAA9"/>
            <stop offset="1" stop-color="#1ABBAB"/>
        </linearGradient>
        <linearGradient id="paint8_linear_14028_4848" x1="8.28895" y1="0" x2="8.28895" y2="16.6656"
                        gradientUnits="userSpaceOnUse">
            <stop stop-color="#A0FFF5"/>
            <stop offset="1" stop-color="#67FFF0"/>
        </linearGradient>
        <linearGradient id="paint9_linear_14028_4848" x1="16.5829" y1="0.88972" x2="4.71078" y2="-5.80861"
                        gradientUnits="userSpaceOnUse">
            <stop stop-color="#14BAA9"/>
            <stop offset="1" stop-color="#1ABBAB"/>
        </linearGradient>
        <linearGradient id="paint10_linear_14028_4848" x1="16.5829" y1="0.88972" x2="4.71078" y2="-5.80861"
                        gradientUnits="userSpaceOnUse">
            <stop stop-color="#14BAA9"/>
            <stop offset="1" stop-color="#1ABBAB"/>
        </linearGradient>
        <linearGradient id="paint11_linear_14028_4848" x1="8.28895" y1="0" x2="8.28895" y2="16.6656"
                        gradientUnits="userSpaceOnUse">
            <stop stop-color="#A0FFF5"/>
            <stop offset="1" stop-color="#67FFF0"/>
        </linearGradient>
        <linearGradient id="paint12_linear_14028_4848" x1="16.5829" y1="0.88972" x2="4.71078" y2="-5.80861"
                        gradientUnits="userSpaceOnUse">
            <stop stop-color="#14BAA9"/>
            <stop offset="1" stop-color="#1ABBAB"/>
        </linearGradient>
        <linearGradient id="paint13_linear_14028_4848" x1="16.5829" y1="0.88972" x2="4.71078" y2="-5.80861"
                        gradientUnits="userSpaceOnUse">
            <stop stop-color="#14BAA9"/>
            <stop offset="1" stop-color="#1ABBAB"/>
        </linearGradient>
        <linearGradient id="paint14_linear_14028_4848" x1="8.28895" y1="0" x2="8.28895" y2="16.6656"
                        gradientUnits="userSpaceOnUse">
            <stop stop-color="#A0FFF5"/>
            <stop offset="1" stop-color="#67FFF0"/>
        </linearGradient>
        <linearGradient id="paint15_linear_14028_4848" x1="16.5829" y1="0.88972" x2="4.71078" y2="-5.80861"
                        gradientUnits="userSpaceOnUse">
            <stop stop-color="#14BAA9"/>
            <stop offset="1" stop-color="#1ABBAB"/>
        </linearGradient>
        <linearGradient id="paint16_linear_14028_4848" x1="16.5829" y1="0.88972" x2="4.71078" y2="-5.80861"
                        gradientUnits="userSpaceOnUse">
            <stop stop-color="#14BAA9"/>
            <stop offset="1" stop-color="#1ABBAB"/>
        </linearGradient>
        <linearGradient id="paint17_linear_14028_4848" x1="8.28895" y1="0" x2="8.28895" y2="16.6656"
                        gradientUnits="userSpaceOnUse">
            <stop stop-color="#A0FFF5"/>
            <stop offset="1" stop-color="#67FFF0"/>
        </linearGradient>
        <linearGradient id="paint18_linear_14028_4848" x1="32.9513" y1="1.06224" x2="16.4244" y2="-14.4572"
                        gradientUnits="userSpaceOnUse">
            <stop stop-color="#14BAA9"/>
            <stop offset="1" stop-color="#1ABBAB"/>
        </linearGradient>
        <linearGradient id="paint19_linear_14028_4848" x1="32.9513" y1="1.06232" x2="16.4231" y2="-14.457"
                        gradientUnits="userSpaceOnUse">
            <stop stop-color="#14BAA9"/>
            <stop offset="1" stop-color="#1ABBAB"/>
        </linearGradient>
        <linearGradient id="paint20_linear_14028_4848" x1="16.4707" y1="0" x2="16.4707" y2="33.1157"
                        gradientUnits="userSpaceOnUse">
            <stop stop-color="#A0FFF5"/>
            <stop offset="1" stop-color="#67FFF0"/>
        </linearGradient>
        <linearGradient id="paint21_linear_14028_4848" x1="32.9513" y1="1.06224" x2="16.4244" y2="-14.4572"
                        gradientUnits="userSpaceOnUse">
            <stop stop-color="#14BAA9"/>
            <stop offset="1" stop-color="#1ABBAB"/>
        </linearGradient>
        <linearGradient id="paint22_linear_14028_4848" x1="32.9513" y1="1.06232" x2="16.4231" y2="-14.457"
                        gradientUnits="userSpaceOnUse">
            <stop stop-color="#14BAA9"/>
            <stop offset="1" stop-color="#1ABBAB"/>
        </linearGradient>
        <linearGradient id="paint23_linear_14028_4848" x1="16.4707" y1="0" x2="16.4707" y2="33.1157"
                        gradientUnits="userSpaceOnUse">
            <stop stop-color="#A0FFF5"/>
            <stop offset="1" stop-color="#67FFF0"/>
        </linearGradient>
        <linearGradient id="paint24_linear_14028_4848" x1="32.9513" y1="1.06224" x2="16.4244" y2="-14.4572"
                        gradientUnits="userSpaceOnUse">
            <stop stop-color="#14BAA9"/>
            <stop offset="1" stop-color="#1ABBAB"/>
        </linearGradient>
        <linearGradient id="paint25_linear_14028_4848" x1="32.9513" y1="1.06232" x2="16.4231" y2="-14.457"
                        gradientUnits="userSpaceOnUse">
            <stop stop-color="#14BAA9"/>
            <stop offset="1" stop-color="#1ABBAB"/>
        </linearGradient>
        <linearGradient id="paint26_linear_14028_4848" x1="16.4707" y1="0" x2="16.4707" y2="33.1157"
                        gradientUnits="userSpaceOnUse">
            <stop stop-color="#A0FFF5"/>
            <stop offset="1" stop-color="#67FFF0"/>
        </linearGradient>
        <linearGradient id="paint27_linear_14028_4848" x1="91.4045" y1="83.0142" x2="68.9134" y2="117.536"
                        gradientUnits="userSpaceOnUse">
            <stop stop-color="#43DCCA" stop-opacity="0"/>
            <stop offset="1" stop-color="#43DCCA" stop-opacity="0.6"/>
        </linearGradient>
        <linearGradient id="paint28_linear_14028_4848" x1="158.09" y1="82.5376" x2="180.797" y2="117.393"
                        gradientUnits="userSpaceOnUse">
            <stop stop-color="#43DCCA" stop-opacity="0"/>
            <stop offset="1" stop-color="#43DCCA" stop-opacity="0.6"/>
        </linearGradient>
        <linearGradient id="paint29_linear_14028_4848" x1="38.5106" y1="0" x2="38.5106" y2="77.4288"
                        gradientUnits="userSpaceOnUse">
            <stop stop-color="#43DCCA" stop-opacity="0"/>
            <stop offset="1" stop-color="#43DCCA" stop-opacity="0.6"/>
        </linearGradient>
    </defs>
</svg>
