<svg width="240" height="200" viewBox="0 0 240 200" fill="none" xmlns="http://www.w3.org/2000/svg">
    <path opacity="0.5" fill-rule="evenodd" clip-rule="evenodd"
          d="M194.273 137.638L114.601 91.6053L42.6002 133.205L122.273 179.238L194.273 137.638ZM114.601 91.1863L41.875 133.205L122.273 179.657L194.998 137.638L114.601 91.1863Z"
          fill="#14B09F"/>
    <path opacity="0.5" fill-rule="evenodd" clip-rule="evenodd"
          d="M155.898 134.383L76.2256 88.3504L4.22516 129.95L83.8979 175.983L155.898 134.383ZM76.2256 87.9314L3.49998 129.95L83.8979 176.402L156.623 134.383L76.2256 87.9314Z"
          fill="url(#paint0_linear_14028_3481)"/>
    <path opacity="0.5" fill-rule="evenodd" clip-rule="evenodd"
          d="M232.774 131.395L153.102 85.3621L81.1011 126.962L160.774 172.994L232.774 131.395ZM153.102 84.9431L80.376 126.962L160.774 173.413L233.499 131.395L153.102 84.9431Z"
          fill="url(#paint1_linear_14028_3481)"/>
    <path d="M122.055 69.4114L197.586 113.019L122.055 156.627L46.5236 113.019L122.055 69.4114Z"
          fill="url(#paint2_linear_14028_3481)"/>
    <path fill-rule="evenodd" clip-rule="evenodd"
          d="M179.286 117.565L122.045 84.5167L64.9208 117.497L122.162 150.545L179.286 117.565ZM122.045 84.0979L64.1955 117.497L122.162 150.964L180.011 117.565L122.045 84.0979Z"
          fill="white" fill-opacity="0.3"/>
    <g filter="url(#filter0_f_14028_3481)">
        <path d="M122.05 87.0496L174.419 117.561L122.081 148.784L69.892 117.561L122.05 87.0496Z" fill="#0E6C53"
              fill-opacity="0.7"/>
    </g>
    <path d="M122.788 73.7688L191.913 113.678L188.225 115.808L119.1 75.8982L122.788 73.7688Z" fill="#16A192"/>
    <path d="M122.788 73.7688L126.383 75.8444L57.397 115.673L53.802 113.598L122.788 73.7688Z" fill="#16A192"/>
    <path d="M46.5244 113.029L122.103 156.635L122.103 169.576L46.5244 124.169L46.5244 113.029Z"
          fill="url(#paint3_linear_14028_3481)"/>
    <path d="M64.0234 126.399L101.718 149.116L101.718 154.316L64.0234 131.529L64.0234 126.399Z"
          fill="url(#paint4_linear_14028_3481)" fill-opacity="0.59"/>
    <path d="M55.9532 121.648L57.6074 122.734L57.6074 129.002L55.9531 128.056L55.9532 121.648Z" fill="#FDDA50"/>
    <path d="M111.429 155.225L113.083 156.311L113.083 162.579L111.429 161.634L111.429 155.225Z" fill="#FDDA50"/>
    <path d="M52.835 119.55L54.4893 120.636L54.4892 126.904L52.835 125.958L52.835 119.55Z" fill="#FDDA50"/>
    <path d="M108.311 153.127L109.965 154.213L109.965 160.481L108.311 159.535L108.311 153.127Z" fill="#FDDA50"/>
    <path d="M197.586 113.049L122.1 156.627L122.054 169.568L197.546 124.188L197.586 113.049Z"
          fill="url(#paint5_linear_14028_3481)"/>
    <rect width="52.4409" height="6.88937" transform="matrix(0.866025 -0.5 -7.98551e-09 1 138.987 149.68)"
          fill="#0E645B"/>
    <rect width="55.842" height="43.5536" rx="4" transform="matrix(-0.866025 -0.5 -0.866025 0.5 229.269 156.33)"
          fill="#16A192"/>
    <rect width="54.7245" height="42.5879" rx="3.5" transform="matrix(-0.866025 -0.5 -0.866025 0.5 228.213 155.703)"
          fill="#E3FFFC"/>
    <rect width="4.11851" height="32.0198" rx="0.5" transform="matrix(0.866025 0.5 -0.866025 0.5 182.133 133.942)"
          fill="#14BAA9"/>
    <rect width="4.11851" height="17.645" rx="0.5" transform="matrix(0.866025 0.5 -0.866025 0.5 188.536 137.743)"
          fill="#14BAA9"/>
    <rect width="4.11851" height="28.3403" rx="0.5" transform="matrix(0.866025 0.5 -0.866025 0.5 195.119 141.376)"
          fill="#83EDE2"/>
    <rect width="4.11851" height="28.3403" rx="0.5" transform="matrix(0.866025 0.5 -0.866025 0.5 200.804 145.241)"
          fill="#83EDE2"/>
    <circle r="7.20307" transform="matrix(0.866025 -0.5 0.866025 0.5 201.717 159.872)" fill="#14BAA9"/>
    <path fill-rule="evenodd" clip-rule="evenodd"
          d="M203.269 157.104L203.269 161.582L198.881 161.582L198.881 160.993L202.249 160.993L202.249 157.104L203.269 157.104Z"
          fill="#C1F6F1" stroke="#C1F6F1" stroke-width="0.75" stroke-linecap="square"/>
    <rect width="46.9275" height="36.5201" rx="3.5" transform="matrix(-0.866025 -0.5 -0.866025 0.5 225.375 150.445)"
          fill="url(#paint6_linear_14028_3481)"/>
    <path d="M122.121 75.968L174.861 106.417L122.025 136.922L69.2851 106.473L122.121 75.968Z"
          fill="url(#paint7_linear_14028_3481)"/>
    <path d="M122.113 83.0598L162.578 106.422L122.034 129.83L81.5691 106.468L122.113 83.0598Z" stroke="white"
          stroke-opacity="0.2" stroke-width="3.5"/>
    <path d="M78.7033 107.711L67.999 31.0022L176.542 31.0022L165.709 107.711L121.774 131.177L78.7033 107.711Z"
          fill="url(#paint8_linear_14028_3481)" fill-opacity="0.5"/>
    <path d="M78.7033 107.711L67.999 31.0022L176.542 31.0022L165.709 107.711L121.774 131.177L78.7033 107.711Z"
          fill="url(#paint9_linear_14028_3481)" fill-opacity="0.4"/>
    <path d="M69.3535 106.545L122.127 136.982L122.127 145.359L69.3535 114.559L69.3535 106.545Z"
          fill="url(#paint10_linear_14028_3481)"/>
    <path d="M174.844 106.427L122.136 136.986L122.125 145.365L174.835 113.716L174.844 106.427Z"
          fill="url(#paint11_linear_14028_3481)"/>
    <circle r="15.8813" transform="matrix(0.866025 0.5 -0.866025 0.5 122.055 107.362)" fill="#16A192"/>
    <path fill-rule="evenodd" clip-rule="evenodd"
          d="M141.037 104.788C140.067 103.401 138.609 102.102 136.662 100.977C128.909 96.5011 116.339 96.5011 108.586 100.977C104.855 103.131 102.92 105.929 102.779 108.751C101.999 105.399 103.84 101.883 108.302 99.3067C115.898 94.9212 128.213 94.9212 135.809 99.3067C138.517 100.87 140.259 102.779 141.037 104.788Z"
          fill="#0E645B"/>
    <path d="M100.958 34.295L125.762 39.9811L150.541 64.3754L150.541 82.0821C150.541 100.693 133.021 113.525 118.218 110.862C103.411 96.4301 100.958 72.0625 100.958 53.447L91.7826 37.7609L100.958 34.295Z"
          fill="#14BAA9"/>
    <mask id="mask0_14028_3481" style="mask-type:alpha" maskUnits="userSpaceOnUse" x="91" y="34" width="60" height="78">
        <path d="M100.958 34.295L125.762 39.9811L150.541 64.3754L150.541 82.0821C150.541 100.693 133.021 113.525 118.218 110.862C103.411 96.4301 100.958 72.0625 100.958 53.447L91.7826 37.7609L100.958 34.295Z"
              fill="#119E8F"/>
    </mask>
    <g mask="url(#mask0_14028_3481)">
        <path d="M88.3374 38.1686L100.951 34.2846L125.758 39.9794L150.545 64.3778L134.076 67.8646L88.3374 38.1686Z"
              fill="#40C9BB"/>
    </g>
    <g clip-path="url(#clip0_14028_3481)">
        <path d="M91.7766 37.7817L116.58 43.4678L141.36 66.4086L141.36 84.1152C141.36 102.726 131.375 113.484 116.572 110.821C101.765 96.3888 91.7766 74.0956 91.7766 55.4802L91.7766 37.7817Z"
              fill="#64E8DB"/>
        <path d="M94.6897 42.9627L116.212 47.8966L137.714 67.8026L137.714 83.1668C137.714 99.3157 129.049 108.65 116.205 106.339C103.357 93.8166 94.6897 74.4727 94.6897 58.3199L94.6897 42.9627Z"
              stroke="white" stroke-opacity="0.2" stroke-width="1.99268"/>
        <path d="M115.73 86.5754C121.368 89.8304 125.938 87.1917 125.938 80.6816C125.938 74.1715 121.368 66.2553 115.73 63.0002C110.092 59.7452 105.522 62.3839 105.522 68.894C105.522 75.4041 110.092 83.3203 115.73 86.5754Z"
              stroke="#D2FAF6" stroke-width="2.6569"/>
        <path d="M123.195 88.6201L127.614 97.1248" stroke="#D2FAF6" stroke-width="2.6569" stroke-linecap="square"/>
    </g>
    <defs>
        <filter id="filter0_f_14028_3481" x="66.8921" y="84.0496" width="110.527" height="67.7346"
                filterUnits="userSpaceOnUse" color-interpolation-filters="sRGB">
            <feFlood flood-opacity="0" result="BackgroundImageFix"/>
            <feBlend mode="normal" in="SourceGraphic" in2="BackgroundImageFix" result="shape"/>
            <feGaussianBlur stdDeviation="1.5" result="effect1_foregroundBlur_14028_3481"/>
        </filter>
        <linearGradient id="paint0_linear_14028_3481" x1="6.15079" y1="128.842" x2="101.749" y2="123.269"
                        gradientUnits="userSpaceOnUse">
            <stop stop-color="#14B09F"/>
            <stop offset="1" stop-color="#14B09F" stop-opacity="0"/>
        </linearGradient>
        <linearGradient id="paint1_linear_14028_3481" x1="193.301" y1="108.169" x2="156.898" y2="171.174"
                        gradientUnits="userSpaceOnUse">
            <stop stop-color="#14B09F"/>
            <stop offset="1" stop-color="#14B09F" stop-opacity="0"/>
        </linearGradient>
        <linearGradient id="paint2_linear_14028_3481" x1="155.757" y1="88.0759" x2="121.025" y2="154.119"
                        gradientUnits="userSpaceOnUse">
            <stop stop-color="#0AA796"/>
            <stop offset="1" stop-color="#46DFCD"/>
        </linearGradient>
        <linearGradient id="paint3_linear_14028_3481" x1="84.5339" y1="147.936" x2="91.2347" y2="136.235"
                        gradientUnits="userSpaceOnUse">
            <stop stop-color="#119E8F"/>
            <stop offset="1" stop-color="#71E7DB"/>
        </linearGradient>
        <linearGradient id="paint4_linear_14028_3481" x1="82.8707" y1="137.281" x2="80.206" y2="141.896"
                        gradientUnits="userSpaceOnUse">
            <stop stop-color="#5BDCCF"/>
        </linearGradient>
        <linearGradient id="paint5_linear_14028_3481" x1="122.054" y1="163.74" x2="159.562" y2="97.8812"
                        gradientUnits="userSpaceOnUse">
            <stop stop-color="#16A293"/>
            <stop offset="1" stop-color="#59D5C8"/>
        </linearGradient>
        <linearGradient id="paint6_linear_14028_3481" x1="53.7738" y1="10.6068" x2="27.1899" y2="-21.5289"
                        gradientUnits="userSpaceOnUse">
            <stop stop-color="#43DCCA" stop-opacity="0"/>
            <stop offset="1" stop-color="#43DCCA" stop-opacity="0.5"/>
        </linearGradient>
        <linearGradient id="paint7_linear_14028_3481" x1="112.451" y1="82.6023" x2="115.209" y2="118.371"
                        gradientUnits="userSpaceOnUse">
            <stop offset="0.122767" stop-color="#0AA796"/>
            <stop offset="1" stop-color="#46DFCD"/>
        </linearGradient>
        <linearGradient id="paint8_linear_14028_3481" x1="122.271" y1="31.0022" x2="122.271" y2="131.177"
                        gradientUnits="userSpaceOnUse">
            <stop stop-color="#43DCCA" stop-opacity="0"/>
            <stop offset="1" stop-color="#43DCCA" stop-opacity="0.6"/>
        </linearGradient>
        <linearGradient id="paint9_linear_14028_3481" x1="122.271" y1="31.0022" x2="122.271" y2="131.177"
                        gradientUnits="userSpaceOnUse">
            <stop stop-color="#43DCCA" stop-opacity="0"/>
            <stop offset="1" stop-color="#43DCCA" stop-opacity="0.6"/>
        </linearGradient>
        <linearGradient id="paint10_linear_14028_3481" x1="97.1398" y1="122.389" x2="85.3685" y2="142.264"
                        gradientUnits="userSpaceOnUse">
            <stop stop-color="#ED9918"/>
            <stop offset="1" stop-color="#FFA419" stop-opacity="0.29"/>
        </linearGradient>
        <linearGradient id="paint11_linear_14028_3481" x1="122.094" y1="144.561" x2="172.943" y2="101.2"
                        gradientUnits="userSpaceOnUse">
            <stop stop-color="#DC8E17"/>
            <stop offset="1" stop-color="#FFA419" stop-opacity="0.29"/>
        </linearGradient>
        <clipPath id="clip0_14028_3481">
            <rect width="80.829" height="80.829" fill="white"
                  transform="matrix(0.866025 0.5 -2.20305e-08 1 81.5675 16.501)"/>
        </clipPath>
    </defs>
</svg>
