<?xml version="1.0" encoding="UTF-8"?>
<svg width="123px" height="80px" viewBox="0 0 123 80" version="1.1" xmlns="http://www.w3.org/2000/svg" xmlns:xlink="http://www.w3.org/1999/xlink" preserveAspectRatio="none">
    <!-- Generator: Sketch 57.1 (83088) - https://sketch.com -->
    <title>编组 10</title>
    <desc>Created with Sketch.</desc>
    <g id="存储卷/存储卷" stroke="none" stroke-width="1" fill="none" fill-rule="evenodd">
        <g id="编组-10">
            <g id="编组-8">
                <path d="M122.076923,0 C122.629208,-1.01453063e-16 123.076923,0.44771525 123.076923,1 L123.076923,79 C123.076923,79.5522847 122.629208,80 122.076923,80 L1,80 C0.44771525,80 -1.13619202e-13,79.5522847 -1.13686838e-13,79 L-1.13686838e-13,1 C-1.13754473e-13,0.44771525 0.44771525,1.01453063e-16 1,0 L122.076923,0 Z M109.988666,3.07692308 L65.1817201,3.07692308 L65.1761551,3.76383749 C64.8093377,26.3880702 46.3549068,44.6153846 23.6432585,44.6153846 L23.6432585,44.6153846 L3.07826862,44.6153846 L3.07640006,70.4076633 C3.89317171,69.6758377 4.97220605,69.2307692 6.1551917,69.2307692 C8.70419824,69.2307692 10.7705763,71.2971473 10.7705763,73.8461538 C10.7705763,75.028801 10.3257625,76.1075564 9.59431033,76.9242443 L9.59431033,76.9242443 L109.988666,76.9230769 L109.988666,3.07692308 Z" id="形状结合" fill="#242E42" fill-rule="nonzero"></path>
                <circle id="椭圆形备份" fill="#4A5974" cx="116.923077" cy="6.15384615" r="3.07692308"></circle>
                <circle id="椭圆形备份-2" fill="#4A5974" cx="116.923077" cy="73.8461538" r="3.07692308"></circle>
                <circle id="椭圆形备份-3" fill="#4A5974" cx="6.15384615" cy="73.8461538" r="3.07692308"></circle>
                <g id="编组-5" transform="translate(113.846154, 20.000000)" fill-rule="nonzero">
                    <polygon id="矩形" fill="#C1C9D1" points="0 0 9.23076923 0 9.23076923 36.9230769 0 28.021823"></polygon>
                    <rect id="矩形" fill="#36435C" x="3.07692308" y="4.61538462" width="6.15384615" height="3.07692308"></rect>
                    <rect id="矩形备份-8" fill="#36435C" x="3.07692308" y="10.7692308" width="6.15384615" height="3.07692308"></rect>
                    <rect id="矩形备份-9" fill="#36435C" x="3.07692308" y="16.9230769" width="6.15384615" height="3.07692308"></rect>
                    <rect id="矩形备份-10" fill="#36435C" x="3.07692308" y="23.0769231" width="6.15384615" height="3.07692308"></rect>
                </g>
                <g id="编组-7" transform="translate(3.076923, 3.076923)" fill-rule="nonzero">
                    <path d="M0,0 L58.4615385,0 C58.4615385,21.2417211 41.2417211,38.4615385 20,38.4615385 L0,38.4615385 L0,38.4615385 L0,0 Z" id="矩形" fill="#C1C9D1"></path>
                    <rect id="矩形" fill="#36435C" x="3.07692308" y="4.61538462" width="6.15384615" height="3.07692308"></rect>
                    <rect id="矩形备份-2" fill="#36435C" x="3.07692308" y="10.7692308" width="6.15384615" height="3.07692308"></rect>
                    <rect id="矩形备份-4" fill="#36435C" x="3.07692308" y="16.9230769" width="6.15384615" height="3.07692308"></rect>
                    <rect id="矩形备份-6" fill="#36435C" x="3.07692308" y="23.0769231" width="6.15384615" height="3.07692308"></rect>
                    <rect id="矩形备份" fill="#36435C" x="12.3076923" y="4.61538462" width="27.6923077" height="3.07692308"></rect>
                    <rect id="矩形备份-3" fill="#36435C" x="12.3076923" y="10.7692308" width="27.6923077" height="3.07692308"></rect>
                    <rect id="矩形备份-5" fill="#36435C" x="12.3076923" y="16.9230769" width="27.6923077" height="3.07692308"></rect>
                    <rect id="矩形备份-7" fill="#36435C" x="12.3076923" y="23.0769231" width="27.6923077" height="3.07692308"></rect>
                </g>
            </g>
        </g>
    </g>
</svg>