<svg width="24" height="24" viewBox="0 0 24 24" fill="none" xmlns="http://www.w3.org/2000/svg">
<path d="M12 4C9.87365 4 7.94105 4.82957 6.50823 6.18272L5.45967 4.43513C7.21305 2.91789 9.49935 2 12 2C17.5229 2 22 6.47715 22 12C22 13.878 21.4823 15.6351 20.5819 17.1364L17.9544 12.7572C17.7544 12.424 17.9945 12 18.3831 12H20C20 7.5817 16.4183 4 12 4Z" fill="#CCD3DB"/>
<path d="M3.41656 6.86622L3.41818 6.86353L6.04565 11.2427C6.24561 11.5759 6.00555 11.9999 5.61691 11.9999H4C4 16.4182 7.5817 19.9999 12 19.9999C14.1264 19.9999 16.059 19.1704 17.4917 17.8172L18.5403 19.5648C16.7869 21.082 14.5007 21.9999 12 21.9999C6.47715 21.9999 2 17.5228 2 11.9999C2 10.274 2.43722 8.65029 3.20694 7.23334C3.27429 7.10934 3.34419 6.98696 3.41656 6.86622Z" fill="#CCD3DB"/>
<path fill-rule="evenodd" clip-rule="evenodd" d="M10.7066 8.63555L10.932 7.5H13.068L13.2934 8.63555C13.6692 8.7752 14.0168 8.97035 14.322 9.2165L15.432 8.84035L16.5 10.6596L15.6118 11.4181C15.6433 11.608 15.6637 11.8014 15.6637 12C15.6637 12.1986 15.6433 12.392 15.6118 12.5819L16.5 13.3404L15.432 15.1596L14.322 14.7835C14.0168 15.0296 13.6692 15.2248 13.2934 15.3645L13.068 16.5H10.932L10.7066 15.3645C10.3308 15.2248 9.9832 15.0296 9.678 14.7835L8.568 15.1596L7.5 13.3404L8.3882 12.5819C8.3567 12.392 8.3363 12.1986 8.3363 12C8.3363 11.8014 8.3567 11.608 8.3882 11.4181L7.5 10.6596L8.568 8.84035L9.678 9.2165C9.9832 8.97035 10.3308 8.7752 10.7066 8.63555ZM12 13.6875C12.932 13.6875 13.6875 12.932 13.6875 12C13.6875 11.068 12.932 10.3125 12 10.3125C11.068 10.3125 10.3125 11.068 10.3125 12C10.3125 12.932 11.068 13.6875 12 13.6875Z" fill="#36435C"/>
</svg>
