<svg xmlns="http://www.w3.org/2000/svg" width="300" height="156" viewBox="0 0 300 156">
    <defs>
        <linearGradient id="89y5zydoka" x1="4.083%" x2="100%" y1="100%" y2="100%">
            <stop offset="0%" stop-color="#242E42"/>
            <stop offset="33.628%" stop-color="#1A2633"/>
            <stop offset="100%" stop-color="#326E93"/>
        </linearGradient>
        <linearGradient id="x6xrrah4bb" x1="4.083%" x2="100%" y1="100%" y2="100%">
            <stop offset="0%" stop-color="#326E93"/>
            <stop offset="100%" stop-color="#3B747A"/>
            <stop offset="100%" stop-color="#326E93"/>
        </linearGradient>
    </defs>
    <g fill="none" fill-rule="evenodd">
        <g>
            <g>
                <g>
                    <g fill-rule="nonzero" transform="translate(-107 -240) translate(75 208) translate(32 32) translate(4)">
                        <circle cx="22" cy="22" r="22" fill="#242E42" opacity=".4"/>
                        <circle cx="22" cy="22" r="16" fill="#242E42"/>
                        <g fill="#FFF" opacity=".9">
                            <path d="M12 3.002c-4.97 0-9 4.03-9 9 0 3.976 2.578 7.349 6.154 8.539.45.083.616-.196.616-.433 0-.215-.01-.924-.013-1.675-2.504.544-3.031-1.062-3.031-1.062-.41-1.04-1-1.317-1-1.317-.816-.56.063-.547.063-.547.903.063 1.379.927 1.379.927.803 1.376 2.106.977 2.619.748.08-.582.314-.979.571-1.204-1.999-.227-4.1-.999-4.1-4.448 0-.982.352-1.785.927-2.415-.094-.227-.402-1.142.086-2.381 0 0 .756-.242 2.476.922.718-.199 1.487-.3 2.252-.303.765.004 1.536.104 2.255.303 1.718-1.164 2.472-.922 2.472-.922.49 1.24.183 2.155.09 2.381.576.63.925 1.433.925 2.415 0 3.457-2.106 4.218-4.11 4.44.324.28.612.827.612 1.666 0 1.204-.01 2.174-.01 2.47 0 .24.161.52.618.432C18.425 19.346 21 15.974 21 11.999 21 7.03 16.97 3 12 3v.002z" transform="translate(10 10)"/>
                        </g>
                    </g>
                    <g transform="translate(-107 -240) translate(75 208) translate(32 32) translate(256 84)">
                        <circle cx="22" cy="22" r="22" fill="#3B747A" fill-rule="nonzero" opacity=".2"/>
                        <circle cx="22" cy="22" r="16" fill="#3B747A" fill-rule="nonzero"/>
                        <g fill="#FFF" opacity=".9">
                            <g>
                                <path d="M4.014 11.28c-.569 0-1.086-.453-1.086-1.007 0-.554.466-1.007 1.086-1.007.621 0 1.087.453 1.087 1.007 0 .554-.517 1.008-1.087 1.008zm13.348-5.489c-.104-.805-.621-1.46-1.294-1.964l-.258-.201-.207.252c-.414.453-.57 1.259-.518 1.863.052.453.207.906.466 1.259-.207.1-.466.201-.673.302-.465.151-.93.202-1.396.202H.082l-.051.302c-.103.957.052 1.964.466 2.87l.207.353v.05C1.945 13.094 4.17 14 6.6 14c4.656 0 8.484-1.964 10.295-6.194 1.19.05 2.38-.252 2.949-1.36L20 6.194l-.259-.15c-.672-.404-1.603-.454-2.38-.253zm-6.674-.805H8.67V6.95h2.018V4.986zm0-2.468H8.67v1.964h2.018V2.518zm0-2.518H8.67v1.964h2.018V0zm2.483 4.986h-2.017V6.95h2.017V4.986zm-7.501 0H3.652V6.95H5.67V4.986zm2.535 0H6.187V6.95h2.018V4.986zm-5.018 0H1.169V6.95h2.018V4.986zm5.018-2.468H6.187v1.964h2.018V2.518zm-2.535 0H3.652v1.964H5.67V2.518z" transform="translate(10 10) translate(2 5)"/>
                            </g>
                        </g>
                    </g>
                    <g transform="translate(-107 -240) translate(75 208) translate(32 32) translate(88)">
                        <circle cx="22" cy="22" r="22" fill="#FFF"/>
                        <circle cx="22" cy="22" r="16" fill="#326E93" fill-rule="nonzero"/>
                        <g fill="#FFF">
                            <g>
                                <path d="M10.45 3.859c-.325.221-.77.136-.992-.19-.222-.326-.137-.771.189-.993.326-.222.771-.137.993.19.222.325.137.77-.19.993m.443-1.166c-.317-.466-.952-.587-1.418-.27-.466.317-.587.952-.27 1.418.28.413.81.555 1.251.362l.395.642.314-.213-.395-.641c.34-.34.404-.885.123-1.298" opacity=".9" transform="translate(10 10) translate(2 10)"/>
                                <path d="M19.28 4.228h-.243c0-1.966-1.622-3.566-3.616-3.566V.418c2.128 0 3.86 1.709 3.86 3.81" opacity=".4" transform="translate(10 10) translate(2 10)"/>
                                <path d="M19.45 2.916C19.156 1.683 18.156.654 16.903.294l.056-.196c1.323.38 2.378 1.467 2.687 2.771l-.198.047zm.274-1.157C19.422 1.1 18.907.526 18.276.142l.084-.14c.66.402 1.196 1.001 1.512 1.689l-.148.068z" opacity=".4" transform="translate(10 10) translate(2 10)"/>
                                <path d="M.004 4.123c.147.08.374.14.628.14.555 0 .837-.267.837-.632-.004-.282-.155-.468-.524-.595-.238-.08-.313-.131-.313-.222 0-.096.083-.155.23-.155.162 0 .333.063.42.107l.104-.413c-.12-.06-.318-.115-.544-.115-.48 0-.79.274-.79.64-.004.225.15.444.556.579.222.071.281.123.281.222 0 .1-.075.159-.257.159-.18 0-.41-.076-.52-.143l-.108.428zm2.532.143c.516 0 1.02-.325 1.02-1.032 0-.587-.397-.996-.988-.996-.627 0-1.04.401-1.04 1.028s.437 1 1.004 1h.004zm.008-.432c-.254 0-.393-.25-.393-.58 0-.29.112-.583.397-.583.274 0 .385.294.385.58 0 .349-.147.583-.385.583h-.004zm1.187.389h.603v-1.12c0-.055.004-.11.02-.15.044-.111.143-.227.31-.227.218 0 .305.171.305.421v1.076h.603V3.076c0-.572-.297-.838-.694-.838-.326 0-.52.187-.6.314h-.011l-.028-.27h-.524c.008.175.016.377.016.619v1.322zm3.742-1.147c0-.457-.202-.838-.849-.838-.353 0-.619.1-.754.175l.111.385c.127-.076.337-.143.536-.143.298 0 .353.147.353.25v.024c-.686 0-1.139.238-1.139.742 0 .31.234.595.627.595.23 0 .429-.083.556-.238h.012l.035.195h.544c-.024-.108-.032-.286-.032-.469v-.678zm-.583.44c0 .036-.004.072-.012.103-.04.123-.167.223-.313.223-.135 0-.239-.076-.239-.23 0-.23.246-.306.564-.306v.21zm.865.707h.603v-.98c0-.052.004-.096.012-.136.04-.19.19-.305.413-.305.067 0 .115.008.163.016V2.25c-.044-.008-.072-.012-.127-.012-.19 0-.425.12-.524.405h-.016l-.024-.361H7.74c.012.167.016.353.016.639v1.302zM12.883 2.313h-.349v1.174c0 .068-.012.131-.032.179-.063.159-.226.321-.46.321-.313 0-.428-.25-.428-.615v-1.06h-.35v1.124c0 .67.361.841.663.841.341 0 .548-.202.635-.357h.008l.02.313h.31c-.013-.15-.017-.325-.017-.527V2.313zm.381 1.424c0 .17-.004.365-.015.496h.301l.02-.317h.008c.147.254.365.361.643.361.428 0 .865-.341.865-1.032 0-.58-.333-.976-.81-.976-.31 0-.531.135-.654.35h-.008V1.415h-.35v2.321zm.35-.619c0-.055.008-.103.02-.147.067-.262.29-.428.527-.428.373 0 .572.33.572.718 0 .44-.214.738-.584.738-.25 0-.456-.166-.523-.409-.008-.04-.012-.083-.012-.127v-.345zm3.254.218c.008-.04.012-.09.012-.162 0-.353-.163-.905-.79-.905-.56 0-.905.456-.905 1.036 0 .575.357.968.945.968.305 0 .52-.067.643-.123l-.064-.25c-.127.056-.282.1-.532.1-.349 0-.646-.195-.654-.664h1.345zm-1.341-.25c.027-.242.178-.567.535-.567.39 0 .484.345.48.567h-1.015z" opacity=".9" transform="translate(10 10) translate(2 10)"/>
                            </g>
                        </g>
                    </g>
                    <g transform="translate(-107 -240) translate(75 208) translate(32 32) translate(172)">
                        <circle cx="22" cy="22" r="22" fill="#FFF"/>
                        <circle cx="22" cy="22" r="16" fill="#326E93" fill-rule="nonzero"/>
                        <g fill="#FFF">
                            <path d="M12 3c4.97 0 9 4.03 9 9s-4.03 9-9 9-9-4.03-9-9 4.03-9 9-9zm4.64 5.034l-6.295 5.845-2.818-2.819-1.415 1.414 4.182 4.182L18 9.5l-1.36-1.466z" opacity=".4" transform="translate(10 10)"/>
                            <path d="M10.345 13.879L7.527 11.06 6.112 12.474 10.294 16.656 18 9.5 16.639 8.034z" opacity=".9" transform="translate(10 10)"/>
                        </g>
                    </g>
                    <g transform="translate(-107 -240) translate(75 208) translate(32 32) translate(172 84)">
                        <circle cx="22" cy="22" r="22" fill="#FFF"/>
                        <circle cx="22" cy="22" r="16" fill="#326E93" fill-rule="nonzero"/>
                        <g fill="#FFF">
                            <path d="M19 3c1.105 0 2 .895 2 2v14c0 1.105-.895 2-2 2H5c-1.105 0-2-.895-2-2V5c0-1.105.895-2 2-2h14zm-7.203 11l-.208.104L7 16.4l4.797 2.398 4.8-2.398-4.8-2.399zm0-9L7 7.399l3.86 1.93V7.344h1.875v1.985l3.86-1.93L11.797 5z" opacity=".4" transform="translate(10 10)"/>
                            <path d="M11.329 7.816L12.266 7.816 12.266 11.643 12.792 11.118 13.454 11.78 11.797 13.438 10.14 11.78 10.803 11.118 11.329 11.643z" opacity=".9" transform="translate(10 10)"/>
                        </g>
                    </g>
                    <path fill="url(#89y5zydoka)" fill-rule="nonzero" d="M75.273 16L84 20.5 75.273 25 75.273 21 52 21 52 20 75.273 20z" transform="translate(-107 -240) translate(75 208) translate(32 32)"/>
                    <path fill="#326E93" fill-rule="nonzero" d="M159.273 16L168 20.5 159.273 25 159.273 21 136 21 136 20 159.273 20z" transform="translate(-107 -240) translate(75 208) translate(32 32)"/>
                    <path fill="url(#x6xrrah4bb)" fill-rule="nonzero" d="M243.273 101L252 105.5 243.273 110 243.273 106 220 106 220 105 243.273 105z" transform="translate(-107 -240) translate(75 208) translate(32 32)"/>
                    <path fill="#326E93" fill-rule="nonzero" d="M201.273 59.5L210 64 201.273 68.5 201.273 64.5 178 64.5 178 63.5 201.273 63.5z" transform="translate(-107 -240) translate(75 208) translate(32 32) rotate(90 194 64)"/>
                    <text fill="#36435C" font-family="PingFangSC-Semibold, PingFang SC" font-size="12" font-weight="500" transform="translate(-107 -240) translate(75 208) translate(32 32)">
                        <tspan x="0" y="65">拉取代码</tspan>
                    </text>
                    <text fill="#36435C" font-family="PingFangSC-Semibold, PingFang SC" font-size="12" font-weight="500" transform="translate(-107 -240) translate(75 208) translate(32 32)">
                        <tspan x="88" y="65">代码检查</tspan>
                    </text>
                    <text fill="#36435C" font-family="PingFangSC-Semibold, PingFang SC" font-size="12" font-weight="500" transform="translate(-107 -240) translate(75 208) translate(32 32)">
                        <tspan x="228" y="24">单元测试</tspan>
                    </text>
                    <text fill="#36435C" font-family="PingFangSC-Semibold, PingFang SC" font-size="12" font-weight="500" transform="translate(-107 -240) translate(75 208) translate(32 32)">
                        <tspan x="172" y="149">镜像构建</tspan>
                    </text>
                    <text fill="#36435C" font-family="PingFangSC-Semibold, PingFang SC" font-size="12" font-weight="500" transform="translate(-107 -240) translate(75 208) translate(32 32)">
                        <tspan x="266" y="149">推送</tspan>
                    </text>
                </g>
            </g>
        </g>
    </g>
</svg>
