<svg width="24" height="24" viewBox="0 0 24 24" fill="none" xmlns="http://www.w3.org/2000/svg">
<path d="M2.73486 12C2.73486 10.2516 3.24048 8.67794 4.04725 7.58129C3.88847 7.52861 3.73562 7.5 3.59091 7.5C1.88385 7.5 0.5 9.51472 0.5 12C0.5 14.4853 1.88385 16.5 3.59091 16.5C3.73562 16.5 3.88847 16.4714 4.04725 16.4187C3.24048 15.3221 2.73486 13.7484 2.73486 12Z" fill="#36435C"/>
<path d="M20.4092 16.5C20.2638 16.5 20.1102 16.4711 19.9507 16.418C20.7571 15.3214 21.2625 13.748 21.2625 12C21.2625 10.252 20.7571 8.67864 19.9507 7.58202C20.1102 7.52888 20.2638 7.50002 20.4092 7.50002C22.1162 7.50002 23.5001 9.51473 23.5001 12C23.5001 14.4853 22.1162 16.5 20.4092 16.5Z" fill="#36435C"/>
<path d="M12 14.677C10.1185 17.0215 7.3472 20 5.40914 20C3.60647 20 2.00976 18.6958 1.02686 16.6905C1.72054 17.51 2.60002 18 3.55687 18C5.79735 18 9.5226 12.6924 10 12C10.2236 11.6756 10.9814 10.5922 12 9.323C13.8815 6.97854 16.6529 4 18.5909 4C20.3936 4 21.9903 5.30422 22.9732 7.30947C22.2795 6.48995 21.4 6 20.4432 6C18.2027 6 14.4775 11.3075 14 12C13.8533 12.2128 13.4763 12.7527 12.9466 13.4576C12.6692 13.8266 12.35 14.2409 12 14.677Z" fill="#CCD3DB"/>
<path d="M9.06695 10.7177C9.4386 10.1946 10.0623 9.34085 10.8301 8.38418L11.0207 8.14665C9.2407 6.09007 7.0326 4 5.40915 4C3.60647 4 2.00976 5.30422 1.02686 7.30947C1.72053 6.48994 2.60002 6 3.55687 6C5.22082 6 7.70375 8.92743 9.06695 10.7177Z" fill="#CCD3DB"/>
<path d="M14.9331 13.2822C16.2963 15.0725 18.7792 18 20.4432 18C21.4001 18 22.2795 17.5101 22.9732 16.6906C21.9903 18.6958 20.3936 20 18.5909 20C16.9557 20 14.7272 17.8796 12.9406 15.8087L12.9793 15.8534L13.1699 15.6158C13.9377 14.6591 14.5615 13.8053 14.9331 13.2822Z" fill="#CCD3DB"/>
</svg>
