<svg width="24" height="24" viewBox="0 0 24 24" fill="none" xmlns="http://www.w3.org/2000/svg">
<path d="M2 12C2 6.47715 6.47715 2 12 2V2C17.5228 2 22 6.47715 22 12V12C22 17.5228 17.5228 22 12 22V22C6.47715 22 2 17.5228 2 12V12Z" fill="#36435C"/>
<path fill-rule="evenodd" clip-rule="evenodd" d="M17.425 10.3016C16.3833 10.3016 15.5205 11.0829 15.3734 12.0981H13.6094C13.5859 11.6117 13.4154 11.166 13.1395 10.805L14.0123 9.92032C14.1143 9.96947 14.228 9.99828 14.3467 9.99828C14.7714 9.99828 15.1159 9.64915 15.1159 9.21868C15.1159 8.7882 14.7714 8.43908 14.3467 8.43908C13.922 8.43908 13.5776 8.7882 13.5776 9.21868C13.5776 9.36782 13.6177 9.5051 13.6896 9.62373L12.8402 10.4847C12.4907 10.1728 12.0443 9.96947 11.5544 9.92371V7.85099C12.168 7.77134 12.6412 7.24087 12.6412 6.59855C12.6412 5.90199 12.0828 5.33594 11.3956 5.33594C10.7083 5.33594 10.1515 5.90199 10.1515 6.59855C10.1515 7.2002 10.5662 7.70185 11.1213 7.82896V9.92201C10.613 9.97286 10.1532 10.1949 9.79874 10.5304L9.3523 10.0779C9.54793 9.83558 9.66665 9.52713 9.66665 9.19156C9.66665 8.42044 9.04799 7.79337 8.2872 7.79337C7.52642 7.79337 6.90776 8.42044 6.90776 9.19156C6.90776 9.96269 7.52642 10.5898 8.2872 10.5898C8.55975 10.5898 8.81223 10.5101 9.02625 10.3711L9.51115 10.8626C9.26034 11.2134 9.10484 11.6371 9.08477 12.0981H6.97798C6.88602 11.4931 6.36936 11.0304 5.74735 11.0304C5.05847 11.0304 4.5 11.5965 4.5 12.293C4.5 12.9896 5.05847 13.5556 5.74568 13.5556C6.35096 13.5556 6.85425 13.1184 6.96795 12.5388H9.10484C9.16838 12.9896 9.36233 13.398 9.64491 13.7234L8.77043 14.6098C8.66341 14.5522 8.54303 14.5199 8.41261 14.5199C7.98791 14.5199 7.64346 14.8691 7.64346 15.2995C7.64346 15.73 7.98791 16.0791 8.41261 16.0791C8.83731 16.0791 9.18175 15.73 9.18175 15.2995C9.18175 15.1606 9.14497 15.0284 9.08143 14.9165L9.96093 14.0251C10.2887 14.281 10.6866 14.4488 11.1197 14.4928V17.0096C10.5645 17.1367 10.1499 17.64 10.1499 18.24C10.1499 18.9365 10.7083 19.5026 11.3956 19.5026C12.0828 19.5026 12.6412 18.9365 12.6412 18.24C12.6412 17.5977 12.168 17.0672 11.5544 16.9875V14.4945C11.9707 14.4555 12.3536 14.303 12.673 14.0691L13.5191 14.9267C13.4187 15.0928 13.3602 15.2877 13.3602 15.4961C13.3602 16.0995 13.8434 16.5893 14.4387 16.5893C15.0339 16.5893 15.5172 16.0995 15.5172 15.4961C15.5172 14.8928 15.0356 14.403 14.4404 14.403C14.2079 14.403 13.9939 14.4776 13.8184 14.6047L13.0024 13.7776C13.3117 13.4438 13.5224 13.015 13.591 12.5388H15.3583C15.4269 13.6353 16.3281 14.5047 17.4267 14.5047C18.5703 14.5047 19.5 13.5624 19.5 12.4032C19.5 11.2439 18.5687 10.3016 17.425 10.3016ZM8.24999 9.91882C7.79117 9.91882 7.41666 9.54431 7.41666 9.08549C7.41666 8.62666 7.79117 8.25215 8.24999 8.25215C8.70882 8.25215 9.08333 8.62666 9.08333 9.08549C9.08333 9.54431 8.70882 9.91882 8.24999 9.91882ZM14.0833 14.9197C14.3129 14.9197 14.5 15.1068 14.5 15.3364C14.5 15.566 14.3129 15.7531 14.0833 15.7531C13.8537 15.7531 13.6667 15.566 13.6667 15.3364C13.6667 15.1068 13.8537 14.9197 14.0833 14.9197ZM17.4167 13.6697C16.7271 13.6697 16.1667 13.1093 16.1667 12.4197C16.1667 11.7301 16.7271 11.1697 17.4167 11.1697C18.1062 11.1697 18.6667 11.7301 18.6667 12.4197C18.6667 13.1093 18.1062 13.6697 17.4167 13.6697Z" fill="white"/>
</svg>
