<svg width="24" height="24" viewBox="0 0 24 24" fill="none" xmlns="http://www.w3.org/2000/svg">
<path d="M19.6112 12.0513C19.6083 12.0142 19.6063 11.9795 19.6044 11.9467C19.5997 11.8671 19.5957 11.7979 19.5818 11.7287C19.4059 10.7611 18.5165 10.2138 17.5879 10.4288C16.679 10.634 16.0925 11.2107 15.8775 12.1295C15.7016 12.8918 16.073 13.664 16.7767 13.9767C17.3143 14.2113 17.8518 14.182 18.3699 13.9181C19.142 13.5174 19.5623 12.8918 19.6112 12.0513Z" fill="#324558"/>
<path fill-rule="evenodd" clip-rule="evenodd" d="M12 22C17.5228 22 22 17.5228 22 12C22 6.47715 17.5228 2 12 2C6.7096 2 2.37872 6.10821 2.02354 11.3085H6.27948C6.31857 11.3085 6.33812 11.3378 6.32835 11.3671L6.25016 11.6017C6.24038 11.6408 6.20129 11.6603 6.16219 11.6603L2.00537 11.6691C2.0018 11.779 2 11.8893 2 12C2 17.5228 6.47715 22 12 22ZM13.1373 10.8333L13.1379 10.8332C13.4251 10.7569 13.7072 10.682 14.0498 10.595C14.167 10.5657 14.2061 10.5168 14.1475 10.4288C13.9032 9.86194 13.5317 9.39279 13.0137 9.0507C12.222 8.51313 11.3424 8.40561 10.4236 8.57177C9.29961 8.77703 8.38085 9.35369 7.6869 10.2627C7.04182 11.1032 6.72905 12.0611 6.85611 13.1264C6.96362 14.0257 7.37413 14.7489 8.09741 15.2963C8.87932 15.8827 9.76876 16.0684 10.7266 15.9414C11.8897 15.785 12.8085 15.2083 13.5122 14.2798C13.6717 14.0695 13.8084 13.8484 13.9227 13.6175C14.0874 14.2127 14.4189 14.7239 14.9001 15.1398C15.5843 15.7263 16.3955 15.9804 17.285 15.9999C17.3721 15.9899 17.4604 15.9821 17.5494 15.9743C17.72 15.9593 17.8935 15.9441 18.0669 15.912C18.9759 15.7263 19.7675 15.3158 20.4126 14.6609C21.3216 13.7422 21.7028 12.667 21.5366 11.3475C21.4096 10.4092 20.9307 9.69573 20.1585 9.16793C19.3082 8.59127 18.3699 8.49353 17.3729 8.66946C16.2098 8.87471 15.3497 9.36341 14.6362 10.3017C14.3305 10.7019 14.1012 11.1248 13.96 11.5724H10.8146C10.668 11.5724 10.5995 11.6701 10.5702 11.7288C10.4334 11.9829 10.1988 12.4911 10.0718 12.7941C10.0033 12.9603 10.0522 13.0874 10.2575 13.0874H12.1438C12.1186 13.1227 12.0946 13.1568 12.0715 13.1897C12.005 13.2841 11.9452 13.3693 11.8799 13.449C11.4401 13.9475 10.883 14.182 10.2184 14.0941C9.44622 13.9866 8.90865 13.3415 8.89887 12.5596C8.8891 11.7679 9.23119 11.1326 9.89582 10.7025C10.4529 10.3409 11.0491 10.2529 11.6649 10.5559C11.8702 10.6536 11.9777 10.7611 12.1243 10.9273C12.2465 11.0683 12.2602 11.0647 12.3916 11.0294L12.4077 11.025C12.6763 10.9557 12.9085 10.8941 13.1373 10.8333ZM2.9856 10.7221C2.96606 10.7514 2.97583 10.7709 3.01493 10.7709L6.55311 10.7807C6.58243 10.7807 6.6313 10.7514 6.65085 10.7221L6.81701 10.4679C6.83655 10.4386 6.82678 10.4093 6.78768 10.4093H3.29837C3.25928 10.4093 3.21041 10.4289 3.19086 10.4582L2.9856 10.7221ZM3.90439 12.5694C3.8653 12.5694 3.85552 12.5401 3.87507 12.5108L4.01191 12.2664C4.03145 12.2371 4.07055 12.2078 4.10964 12.2078H6.06444C6.10354 12.2078 6.12309 12.2371 6.12309 12.2762L6.10354 12.5108C6.10354 12.5499 6.06444 12.5792 6.03512 12.5792L3.90439 12.5694Z" fill="#324558"/>
</svg>
