<svg xmlns="http://www.w3.org/2000/svg" width="200" height="201" viewBox="0 0 200 201">
    <g fill="none" fill-rule="evenodd" >
        <g>
            <g>
                <g>
                    <g>
                        <path fill="#B6C2CD" d="M173 25c1.105 0 2 .895 2 2v146c0 1.105-.895 2-2 2H27c-1.105 0-2-.895-2-2V27c0-1.105.895-2 2-2h146zm-74.689 91.667l-39.978 19.989 39.978 19.989 39.994-19.99-39.994-19.988zm0-75L58.333 61.656 90.5 77.738v-16.54h15.625v16.54l32.165-16.082-39.978-19.99z" transform="translate(-929 -288) translate(75 208) translate(880) translate(-26 80)"/>
                        <path fill="#324558" d="M94.405 65.135L102.218 65.135 102.218 97.026 106.597 92.646 112.121 98.17 98.311 111.979 84.502 98.17 90.026 92.646 94.405 97.026z" transform="translate(-929 -288) translate(75 208) translate(880) translate(-26 80)"/>
                    </g>
                </g>
            </g>
        </g>
    </g>
</svg>
