<svg width="24" height="24" viewBox="0 0 24 24" fill="none" xmlns="http://www.w3.org/2000/svg">
<path d="M11.9957 23C11.7108 23 11.4217 22.9214 11.1708 22.773L8.547 21.1796C8.15577 20.9526 8.34714 20.874 8.47471 20.8303C8.99776 20.6426 9.10407 20.6033 9.66115 20.2759C9.72068 20.241 9.79722 20.2541 9.85676 20.2934L11.8724 21.5201C11.9447 21.5637 12.0468 21.5637 12.1148 21.5201L19.9691 16.8665C20.0414 16.8228 20.0882 16.7355 20.0882 16.6482V7.34091C20.0882 7.24923 20.0414 7.16629 19.9649 7.11827L12.1148 2.46899C12.0425 2.42534 11.9447 2.42534 11.8724 2.46899L4.02663 7.12263C3.95009 7.16629 3.90331 7.2536 3.90331 7.34527V16.6482C3.90331 16.7355 3.95009 16.8228 4.02663 16.8621L6.17838 18.1368C7.34781 18.7349 8.06222 18.032 8.06222 17.3205V8.13543C8.06222 8.00446 8.16428 7.90406 8.29185 7.90406H9.28693C9.41025 7.90406 9.51656 8.00446 9.51656 8.13543V17.3248C9.51656 18.9226 8.66607 19.8394 7.19047 19.8394C6.73545 19.8394 6.37825 19.8394 5.38317 19.333L3.32498 18.115C2.81468 17.8138 2.5 17.2506 2.5 16.6438V7.34091C2.5 6.73847 2.81468 6.17095 3.32498 5.86973L11.1708 1.21609C11.6683 0.927969 12.3274 0.927969 12.8207 1.21609L20.675 5.87409C21.1853 6.17531 21.5 6.73847 21.5 7.34527V16.6482C21.5 17.2506 21.1853 17.8138 20.675 18.1194L12.8207 22.773C12.5698 22.9214 12.2849 23 11.9957 23ZM18.3362 13.8281C18.3362 12.0862 17.188 11.6235 14.7769 11.2961C12.3359 10.9643 12.0893 10.794 12.0893 10.209C12.0893 9.72448 12.2977 9.07838 14.105 9.07838C15.7167 9.07838 16.312 9.43635 16.5586 10.5539C16.5799 10.6587 16.6735 10.7373 16.7798 10.7373H17.8004C17.8641 10.7373 17.9237 10.7111 17.9662 10.6631C18.0087 10.615 18.03 10.5496 18.0257 10.4841C17.8684 8.55888 16.6224 7.66395 14.105 7.66395C11.8639 7.66395 10.5286 8.6331 10.5286 10.2614C10.5286 12.0251 11.8597 12.514 14.0072 12.7323C16.5799 12.9899 16.7798 13.3784 16.7798 13.8979C16.7798 14.7972 16.0739 15.1814 14.4197 15.1814C12.3402 15.1814 11.8852 14.6444 11.7321 13.5836C11.7151 13.4701 11.6215 13.3871 11.5067 13.3871H10.4904C10.3628 13.3871 10.265 13.4919 10.265 13.6185C10.265 14.9762 10.9837 16.5958 14.4239 16.5958C16.9073 16.5914 18.3362 15.583 18.3362 13.8281Z" fill="#324558"/>
</svg>
