<svg xmlns="http://www.w3.org/2000/svg" width="44" height="44" viewBox="0 0 44 44">
    <g fill="none" fill-rule="evenodd" opacity=".9">
        <g fill="#FFF">
            <g>
                <g>
                    <g>
                        <g>
                            <path d="M33.655 18.107c-2.273 0-4.156 1.705-4.477 3.92H25.33c-.05-1.062-.423-2.034-1.025-2.822l1.905-1.93c.222.107.47.17.73.17.926 0 1.677-.762 1.677-1.7 0-.94-.751-1.702-1.678-1.702-.926 0-1.678.762-1.678 1.701 0 .326.088.625.245.884l-1.854 1.878c-.762-.68-1.736-1.124-2.805-1.224V12.76c1.339-.174 2.371-1.331 2.371-2.732 0-1.52-1.218-2.755-2.718-2.755-1.499 0-2.714 1.235-2.714 2.755 0 1.312.905 2.407 2.116 2.684v4.567c-1.109.11-2.112.595-2.886 1.327l-.974-.987c.427-.529.686-1.202.686-1.934 0-1.682-1.35-3.05-3.01-3.05-1.66 0-3.01 1.368-3.01 3.05 0 1.682 1.35 3.05 3.01 3.05.595 0 1.146-.173 1.613-.476l1.058 1.072c-.547.765-.887 1.69-.93 2.696H10.86c-.2-1.32-1.328-2.33-2.685-2.33-1.503 0-2.721 1.235-2.721 2.755 0 1.52 1.218 2.755 2.717 2.755 1.321 0 2.42-.954 2.667-2.219h4.662c.14.984.562 1.875 1.179 2.585l-1.908 1.934c-.234-.126-.496-.196-.78-.196-.927 0-1.679.761-1.679 1.7 0 .94.752 1.701 1.678 1.701.927 0 1.678-.761 1.678-1.7 0-.304-.08-.592-.219-.836l1.92-1.945c.714.558 1.583.924 2.527 1.02v5.491c-1.21.278-2.115 1.376-2.115 2.685 0 1.52 1.218 2.755 2.717 2.755 1.5 0 2.718-1.235 2.718-2.755 0-1.401-1.032-2.559-2.371-2.733v-5.439c.908-.085 1.744-.418 2.44-.928l1.846 1.871c-.218.362-.346.788-.346 1.242 0 1.317 1.054 2.385 2.353 2.385 1.299 0 2.353-1.068 2.353-2.385 0-1.316-1.05-2.385-2.35-2.385-.506 0-.973.163-1.356.44l-1.78-1.804c.674-.728 1.134-1.664 1.283-2.703h3.856c.15 2.392 2.116 4.29 4.513 4.29 2.495 0 4.524-2.057 4.524-4.586 0-2.53-2.032-4.585-4.527-4.585zm-20.019-.834c-1 0-1.818-.817-1.818-1.818 0-1.002.817-1.819 1.818-1.819 1.001 0 1.819.817 1.819 1.819 0 1-.818 1.818-1.819 1.818zm12.728 10.909c.5 0 .909.408.909.909 0 .5-.408.909-.91.909-.5 0-.908-.408-.908-.91 0-.5.408-.908.909-.908zm7.272-2.727c-1.504 0-2.727-1.223-2.727-2.728 0-1.504 1.223-2.727 2.727-2.727 1.505 0 2.728 1.223 2.728 2.727 0 1.505-1.223 2.728-2.728 2.728z" transform="translate(-1133 -296) translate(75 208) translate(880) translate(160 70) translate(18.182 18.182)"/>
                        </g>
                    </g>
                </g>
            </g>
        </g>
    </g>
</svg>
