<svg xmlns="http://www.w3.org/2000/svg" width="32" height="33" viewBox="0 0 32 33">
    <g fill="none" fill-rule="evenodd">
        <g fill="#324558">
            <g>
                <g>
                    <g>
                        <path d="M24.68 13.278c-1.667 0-3.047 1.25-3.283 2.875h-2.822c-.037-.778-.31-1.492-.752-2.07l1.397-1.415c.163.079.345.125.535.125.68 0 1.23-.559 1.23-1.247 0-.689-.55-1.248-1.23-1.248-.68 0-1.23.559-1.23 1.248 0 .238.063.458.178.648l-1.359 1.377c-.559-.499-1.273-.824-2.057-.897V9.357c.982-.127 1.739-.976 1.739-2.003 0-1.115-.894-2.02-1.993-2.02-1.1 0-1.99.905-1.99 2.02 0 .962.663 1.765 1.551 1.968v3.35c-.813.08-1.549.436-2.116.973l-.714-.724c.313-.388.503-.882.503-1.419 0-1.233-.99-2.237-2.207-2.237-1.218 0-2.208 1.004-2.208 2.237 0 1.234.99 2.237 2.208 2.237.436 0 .84-.127 1.182-.35l.776.787c-.401.561-.65 1.24-.682 1.977H7.965c-.147-.968-.974-1.709-1.97-1.709-1.101 0-1.995.906-1.995 2.02 0 1.115.894 2.02 1.993 2.02.969 0 1.774-.699 1.956-1.626h3.419c.101.721.412 1.375.864 1.895l-1.4 1.418c-.17-.092-.363-.143-.572-.143-.68 0-1.23.558-1.23 1.247 0 .689.55 1.247 1.23 1.247.68 0 1.23-.558 1.23-1.247 0-.222-.058-.434-.16-.613l1.407-1.426c.525.41 1.162.678 1.854.748v4.027c-.888.204-1.551 1.009-1.551 1.969 0 1.114.893 2.02 1.993 2.02s1.993-.906 1.993-2.02c0-1.028-.757-1.877-1.739-2.004v-3.989c.666-.062 1.279-.306 1.79-.68l1.353 1.372c-.16.265-.254.577-.254.91 0 .966.774 1.75 1.726 1.75s1.725-.784 1.725-1.75c0-.965-.77-1.748-1.722-1.748-.372 0-.715.119-.996.322l-1.305-1.323c.495-.534.832-1.22.942-1.982h2.827c.11 1.754 1.552 3.145 3.31 3.145 1.83 0 3.317-1.507 3.317-3.362 0-1.855-1.49-3.363-3.32-3.363zM10 12.667c-.734 0-1.333-.6-1.333-1.334C8.667 10.6 9.266 10 10 10s1.333.6 1.333 1.333c0 .734-.599 1.334-1.333 1.334zm9.333 8c.368 0 .667.299.667.666 0 .368-.3.667-.667.667-.367 0-.666-.3-.666-.667 0-.367.299-.666.666-.666zm5.334-2c-1.104 0-2-.897-2-2 0-1.104.896-2 2-2 1.103 0 2 .896 2 2 0 1.103-.897 2-2 2z" transform="translate(-40 -33) translate(20 20) translate(20 10) translate(0 4)"/>
                    </g>
                </g>
            </g>
        </g>
    </g>
</svg>
