<svg 
  xmlns="http://www.w3.org/2000/svg" 
  xmlns:xlink="http://www.w3.org/1999/xlink" 
  style="position: absolute; width: 0px; height: 0px; overflow: hidden;"
  aria-hidden="true"
>
  <symbol id="exclamation" viewBox="0 0 24 24">
    <g fill-rule="evenodd">
      <polygon points="12 3 22 20.32 2 20.32"></polygon>
      <circle cx="12" cy="18.001" r="1" fill="currentColor"></circle>
      <polygon points="11 9 13 9 12.8 16 11.2 16" fill="currentColor"></polygon>
    </g>
  </symbol>
  <symbol id="eye-closed" viewBox="0 0 24 24">
    <g fill-rule="evenodd">
      <path d="M13.333065 13.222309L12 16.7299494 10.6655137 13.2185693C11.1130834 13.2535928 11.5588836 13.2711182 11.9975443 13.2711182 12.4373452 13.2711182 12.8843227 13.2549811 13.333065 13.222309zM17.5643078 12.3711942L17.3761553 16.2057707 14.8380528 13.0500341C15.7832563 12.9013101 16.7091884 12.6762935 17.5643078 12.3711942zM20.8026778 10.3999202L21.9208813 13.8027765 18.6694282 11.9110768C19.5111391 11.5039152 20.2437224 11.0017773 20.8026778 10.3999202zM9.18059394 13.0380757L6.63287347 16.2057707 6.44261129 12.3281977C7.30154603 12.6441274 8.23157859 12.8808409 9.18059394 13.0380757zM5.38931653 11.882152L2.08814752 13.8027765 3.2198929 10.3587103C3.78947403 10.9591049 4.53468936 11.46703 5.38931653 11.882152z"></path>
      <path d="M2.03447947,7.54418945 C4.53125,10.2414185 8.20117187,10.6718229 12,10.6718229 C15.7988281,10.6718229 19.3653564,10.3216461 21.9606091,7.54418945 C21.9606091,11.5129939 16.5881348,13.2711182 11.9975443,13.2711182 C7.4069538,13.2711182 2.03447947,11.3518066 2.03447947,7.54418945 Z" fill="currentColor"></path>
    </g>
  </symbol>
  <symbol id="eye" viewBox="0 0 24 24">
    <g fill-rule="evenodd">
      <path d="M2,12 C4.66666667,7.33333333 8,5 12,5 C16,5 19.3333333,7.33333333 22,12 C19.3333333,16.6666667 16,19 12,19 C8,19 4.66666667,16.6666667 2,12 Z M12,16.5 C14.4852814,16.5 16.5,14.4852814 16.5,12 C16.5,9.51471863 14.4852814,7.5 12,7.5 C9.51471863,7.5 7.5,9.51471863 7.5,12 C7.5,14.4852814 9.51471863,16.5 12,16.5 Z"></path>
      <circle cx="12" cy="12" r="4.5" fill="currentColor"></circle>
    </g>
  </symbol>
  <symbol id="loading" viewBox="0 0 48 48">
    <defs>
      <linearGradient id="spinner-a" x1="4.167%" x2="4.167%" y1="0%" y2="100%">
        <stop offset="0%" stop-color="#E4EBF1"></stop>
        <stop offset="100%" stop-color="#86919C"></stop>
      </linearGradient>
      <linearGradient id="spinner-b" x1="95.833%" x2="95.833%" y1="0%" y2="100%">
        <stop offset="0%" stop-color="#324558"></stop>
        <stop offset="100%" stop-color="#86919C"></stop>
      </linearGradient>
    </defs>
    <g fill-rule="evenodd" fill="none">
      <path d="M24,0 C37.254834,-2.4348735e-15 48,10.745166 48,24 C48,37.254834 37.254834,48 24,48 C10.745166,48 1.623249e-15,37.254834 0,24 C-1.623249e-15,10.745166 10.745166,2.4348735e-15 24,0 Z" transform="rotate(265.09 24 24)">
      <animateTransform attributeType="xml" attributeName="transform" type="rotate" from="0 24 24" to="360 24 24" dur="1.2s" repeatCount="indefinite"></animateTransform>
      </path>
      <path fill="url(#spinner-a)" d="M24,48 L24,46 C36.1502645,46 46,36.1502645 46,24 C46,12.1554065 36.6396211,2.49704654 24.9125246,2.01858157 L24.9954814,0.0202708022 C37.7886803,0.542235439 48,11.078627 48,24 C48,37.254834 37.254834,48 24,48 Z" transform="rotate(265.09 24 24)">
      <animateTransform attributeType="xml" attributeName="transform" type="rotate" from="0 24 24" to="360 24 24" dur="1.2s" repeatCount="indefinite"></animateTransform>
      </path>
      <path fill="url(#spinner-b)" d="M24,46 L24,48 C10.745166,48 0,37.254834 0,24.0000001 C0,11.0786271 10.2113197,0.542235649 23.0045134,0.0202712255 L23.0874754,2.01858177 C11.3603789,2.49704674 2,12.1554066 2,24.0000001 C2,36.1502645 11.8497355,46 24,46 Z" transform="rotate(265.09 24 24)">
      <animateTransform attributeType="xml" attributeName="transform" type="rotate" from="0 24 24" to="360 24 24" dur="1.2s" repeatCount="indefinite"></animateTransform>
      </path>
    </g>
  </symbol>
</svg>