<svg viewBox="0 0 24 24" fill="none" xmlns="http://www.w3.org/2000/svg">
<path d="M14.865 6.6857C14.865 5.5085 15.1962 4.3577 15.831 3.3785C14.8511 3.40474 13.8906 3.65819 13.0254 4.1189C12.6983 4.28838 12.3353 4.37685 11.967 4.37685C11.5986 4.37685 11.2356 4.28838 10.9086 4.1189C9.94914 3.61905 8.8824 3.36039 7.80057 3.3653C4.29297 3.3653 2.40057 6.5405 2.40057 9.5177C2.40057 13.5917 5.43177 17.2841 11.3982 20.4857C11.769 20.6837 12.219 20.6837 12.5898 20.4857C16.8762 18.1829 19.6542 15.6161 20.8722 12.8381C19.2666 12.7975 17.7404 12.1317 16.6184 10.9826C15.4964 9.83345 14.8673 8.29174 14.865 6.6857V6.6857Z" fill="url(#paint0_linear_1269_151403)"/>
<path d="M16.1082 3.36523H15.8442C15.4077 4.04439 15.1093 4.80292 14.9661 5.59746C14.8229 6.392 14.8377 7.20696 15.0097 7.99577C15.1817 8.78458 15.5074 9.53177 15.9683 10.1946C16.4292 10.8575 17.0162 11.423 17.6958 11.8588C18.6476 12.473 19.7527 12.8077 20.8854 12.8248C21.3474 11.7664 21.5994 10.6288 21.5994 9.47684C21.5994 6.47443 19.5354 3.36523 16.1082 3.36523V3.36523Z" fill="#FF7E00"/>
<path d="M16.1082 3.36523H15.8442C15.4077 4.04439 15.1093 4.80292 14.9661 5.59746C14.8229 6.392 14.8377 7.20696 15.0097 7.99577C15.1817 8.78458 15.5074 9.53177 15.9683 10.1946C16.4292 10.8575 17.0162 11.423 17.6958 11.8588C18.6476 12.473 19.7527 12.8077 20.8854 12.8248C21.3474 11.7664 21.5994 10.6288 21.5994 9.47684C21.5994 6.47443 19.5354 3.36523 16.1082 3.36523V3.36523Z" fill="url(#paint1_linear_1269_151403)"/>
<defs>
<linearGradient id="paint0_linear_1269_151403" x1="9.44343" y1="7.3839" x2="9.44343" y2="20.6342" gradientUnits="userSpaceOnUse">
<stop stop-color="#67DAA2"/>
<stop offset="1" stop-color="#329DCE"/>
</linearGradient>
<linearGradient id="paint1_linear_1269_151403" x1="22.8774" y1="6.52748" x2="13.7304" y2="9.58641" gradientUnits="userSpaceOnUse">
<stop stop-color="#67DAA2"/>
<stop offset="1" stop-color="#329DCE"/>
</linearGradient>
</defs>
</svg>
