<svg viewBox="0 0 24 24" fill="none" xmlns="http://www.w3.org/2000/svg">
<path fill-rule="evenodd" clip-rule="evenodd" d="M11.6667 2C17.1895 2 21.6667 6.47715 21.6667 12C21.6667 17.5228 17.1895 22 11.6667 22C6.14384 22 1.66669 17.5228 1.66669 12C1.66669 6.47715 6.14384 2 11.6667 2ZM11.6667 5.33333C7.98479 5.33333 5.00002 8.3181 5.00002 12C5.00002 15.6819 7.98479 18.6667 11.6667 18.6667C15.3486 18.6667 18.3334 15.6819 18.3334 12C18.3334 8.3181 15.3486 5.33333 11.6667 5.33333Z" fill="#FFE1BE"/>
<path fill-rule="evenodd" clip-rule="evenodd" d="M11.6667 2C17.1895 2 21.6667 6.47715 21.6667 12H18.3333C18.3333 8.3181 15.3486 5.33333 11.6667 5.33333V2Z" fill="#F5A623"/>
</svg>
