<svg width="24" height="24" viewBox="0 0 24 24" fill="none" xmlns="http://www.w3.org/2000/svg">
<path d="M10.5858 12.0001L7.29289 8.70718L8.70711 7.29297L12 10.5859L15.2929 7.293L16.7071 8.70721L13.4142 12.0001L16.7071 15.293L15.2929 16.7072L12 13.4143L8.70711 16.7072L7.29289 15.293L10.5858 12.0001Z" fill="white"/>
<path fill-rule="evenodd" clip-rule="evenodd" d="M12 22C17.5228 22 22 17.5228 22 12C22 6.47715 17.5228 2 12 2C6.47715 2 2 6.47715 2 12C2 17.5228 6.47715 22 12 22ZM7.29291 8.70712L10.5858 12L7.29291 15.2929L8.70712 16.7071L12 13.4142L15.2929 16.7071L16.7071 15.2929L13.4142 12L16.7071 8.70715L15.2929 7.29294L12 10.5858L8.70712 7.29291L7.29291 8.70712Z" fill="#CA2621"/>
</svg>
