<svg xmlns="http://www.w3.org/2000/svg" width="351" height="192" viewBox="0 0 351 192">
    <g fill="none" fill-rule="nonzero">
        <path fill="#EFF4F9" d="M86.529 28.641c11.46-7.446 26.748-4.294 34.347 7.008l.228.345 41.722 64.272a25.013 25.013 0 0 1 1.42 24.748l-.12.24-12.772 25.027a24.53 24.53 0 0 0-2.645 12.452c.711 13.39 12.03 23.697 25.375 23.204l.405-.018 28.05-1.492a24.992 24.992 0 0 1 22.142 11.127l.147.224 41.721 64.27a25.011 25.011 0 0 1 3.998 12.29c.726 13.652-9.637 25.328-23.22 26.272l-.412.025-118.92 6.33a24.992 24.992 0 0 1-22.144-11.128l-.147-.223-80.672-124.272a25.013 25.013 0 0 1-1.42-24.748l.121-.24L77.88 38.245a25.001 25.001 0 0 1 8.649-9.602zm176.944-9.25c11.578-7.521 27.058-4.23 34.576 7.352l48.918 75.356a25.011 25.011 0 0 1 3.996 12.272c.743 13.79-9.828 25.57-23.613 26.314l-89.921 4.85a24.987 24.987 0 0 1-12.727-2.705c-12.29-6.288-17.158-21.353-10.873-33.648l41.004-80.205a25.001 25.001 0 0 1 8.64-9.586zM141.444-3.01L231.726-8l-41.28 80.478L141.445-3.01z" opacity=".9"/>
        <path fill="#E3E9EF" d="M48.737 120.084l-30.191-17.433c-5.952-3.436-13.526-1.335-16.919 4.694A12.692 12.692 0 0 0 0 113.567v34.868C0 155.375 5.553 161 12.403 161a12.28 12.28 0 0 0 6.143-1.65l30.191-17.434c5.952-3.437 8.025-11.11 4.633-17.138a12.485 12.485 0 0 0-4.633-4.694z" opacity=".6"/>
    </g>
</svg>
