<svg width="189" height="175" viewBox="0 0 189 175" fill="none" xmlns="http://www.w3.org/2000/svg">
<circle cx="96.9249" cy="77.7308" r="64.7308" fill="#F9FBFD"/>
<g filter="url(#filter0_d)">
<path d="M29.9112 55.175C27.199 56.5666 26.1284 59.8933 27.52 62.6055L60.4559 125.358C61.8475 128.07 65.1742 129.141 67.8864 127.749L131.59 95.0644C134.303 93.6728 135.373 90.3461 133.982 87.6339L110.283 42.8863L104.345 45.933C97.3317 49.5315 88.729 46.763 85.1306 39.7494L79.8888 29.533L29.9112 55.175Z" fill="white"/>
<path d="M79.8883 29.5324L110.787 43.8679L104.849 46.9146C97.8351 50.513 89.2324 47.7446 85.634 40.731L79.8883 29.5324Z" fill="#D8DEE5"/>
<rect x="40.8203" y="64.1281" width="36.5073" height="2.75976" rx="1" transform="rotate(-27.161 40.8203 64.1281)" fill="#D8DEE5"/>
<rect x="71.8845" y="124.673" width="17.3176" height="2.75976" transform="rotate(-27.161 71.8845 124.673)" fill="#D8DEE5"/>
<rect x="89.7782" y="115.492" width="12.2541" height="2.75976" transform="rotate(-27.161 89.7782 115.492)" fill="#D8DEE5"/>
<rect x="44.1316" y="70.5825" width="17.3176" height="2.75976" rx="1" transform="rotate(-27.161 44.1316 70.5825)" fill="#D8DEE5"/>
<path d="M52.3553 87.1491L105.594 59.8339" stroke="#E3E9EF" stroke-width="3.21144" stroke-linecap="round"/>
<path d="M60.8033 102.182L114.042 74.8671" stroke="#E3E9EF" stroke-width="3.21144"/>
<path d="M64.8347 110.039L118.073 82.7241" stroke="#E3E9EF" stroke-width="3.21144"/>
</g>
<g filter="url(#filter1_d)">
<path d="M93.6342 20.0711C90.6243 18.8854 87.2231 20.3642 86.0374 23.3741L59.1221 93.6033C57.9364 96.6132 59.4151 100.014 62.425 101.2L133.121 129.05C136.131 130.236 139.532 128.757 140.718 125.747L159.762 75.4986L152.359 72.5823C145.025 69.6931 141.421 61.4053 144.311 54.0711L149.097 41.9201L93.6342 20.0711Z" fill="white"/>
<path d="M149.097 41.9205L159.333 76.589L151.93 73.6727C144.595 70.7834 140.992 62.4957 143.881 55.1615L149.097 41.9205Z" fill="#E3E9EF"/>
<rect x="94.1467" y="35.0397" width="38.7428" height="2.92875" transform="rotate(21.5014 94.1467 35.0397)" fill="#D8DEE5"/>
<rect x="67.677" y="102.231" width="18.3781" height="2.92875" transform="rotate(21.5014 67.677 102.231)" fill="#D8DEE5"/>
<rect x="87.536" y="110.054" width="13.0045" height="2.92875" transform="rotate(21.5014 87.536 110.054)" fill="#D8DEE5"/>
<rect x="91.3242" y="42.203" width="18.3781" height="2.92875" transform="rotate(21.5014 91.3242 42.203)" fill="#D8DEE5"/>
<path d="M83.8884 60.3678L142.971 83.6424" stroke="#E3E9EF" stroke-width="3.21144" stroke-linecap="round"/>
<path d="M80.9888 67.858L140.071 91.1327" stroke="#E3E9EF" stroke-width="3.21144" stroke-linecap="round"/>
<path d="M77.8313 77.6357L136.913 100.91" stroke="#E3E9EF" stroke-width="3.21144"/>
<path d="M74.3962 86.3553L133.478 109.63" stroke="#E3E9EF" stroke-width="3.21144"/>
</g>
<g filter="url(#filter2_d)">
<path d="M61.1251 24.809C58.0768 24.809 55.6056 27.2802 55.6056 30.3285V126.348C55.6056 129.396 58.0768 131.868 61.1251 131.868H132.725C135.773 131.868 138.244 129.396 138.244 126.348L138.244 50.5648H131.57C123.687 50.5648 117.297 44.1745 117.297 36.2917V24.809H61.1251Z" fill="white"/>
<path d="M117.298 24.809L138.245 51.6687H131.571C123.688 51.6687 117.298 45.2784 117.298 37.3956V24.809Z" fill="#E3E9EF"/>
<rect x="66.7449" y="37.7555" width="36.5073" height="2.75976" rx="1" fill="#D8DEE5"/>
<rect x="66.7449" y="111.876" width="17.3176" height="2.75976" rx="1" fill="#E3E9EF"/>
<rect x="86.8573" y="111.876" width="12.2541" height="2.75976" rx="1" fill="#E3E9EF"/>
<rect x="66.7449" y="45.0099" width="17.3176" height="2.75976" rx="1" fill="#D8DEE5"/>
<rect x="67.7449" y="69.0379" width="59.0262" height="34.4989" rx="2" stroke="#E3E9EF" stroke-width="2"/>
<path d="M67.1525 77.4236H126.99" stroke="#E3E9EF" stroke-width="2"/>
<path d="M67.1525 86.2547H126.99" stroke="#E3E9EF" stroke-width="2"/>
<path d="M67.1525 95.0859H126.99" stroke="#E3E9EF" stroke-width="2"/>
</g>
<path d="M93.6791 54.5591C85.2758 60.004 79.6829 63.1016 72.4177 64.8257C71.0255 65.1561 70.0687 66.4713 70.2797 67.8865C74.1537 93.8725 80.043 104.732 95.4465 115.049C96.3372 115.645 97.505 115.63 98.3836 115.015C114.417 103.806 120.669 93.3522 123.681 67.6408C123.835 66.3286 122.989 65.1085 121.721 64.7388C113.485 62.3383 108.036 59.3827 100.209 54.5022C98.207 53.2536 95.6595 53.2759 93.6791 54.5591Z" fill="url(#paint0_linear)"/>
<mask id="mask0" style="mask-type:alpha" maskUnits="userSpaceOnUse" x="76" y="60" width="41" height="48">
<path d="M96.9252 60.6407C88.5277 66.1739 83.9362 68.9149 76.8857 70.2248C79.8464 91.4972 84.2969 99.6911 96.9252 107.814C109.983 98.961 114.742 91.1337 116.965 70.2248C109.031 68.1286 104.675 65.5502 96.9252 60.6407Z" fill="#EFF4F9"/>
</mask>
<g mask="url(#mask0)">
<rect x="66.4124" y="60.6406" width="30.5131" height="23.5876" fill="url(#paint1_linear)"/>
<rect x="66.4124" y="84.2272" width="30.5131" height="23.5876" fill="url(#paint2_linear)"/>
<path d="M66.4124 84.2274L76.2837 81.2953L110.7 111.705L66.4124 107.815V84.2274Z" fill="url(#paint3_linear)" fill-opacity="0.07"/>
<rect x="96.5924" y="60.6406" width="30.5131" height="23.5876" fill="url(#paint4_linear)"/>
<path d="M96.5924 60.6406H127.105V84.2282L118.341 79.3963L96.5924 60.6406Z" fill="white" fill-opacity="0.09"/>
<rect x="96.5924" y="84.2272" width="30.5131" height="23.5876" fill="url(#paint5_linear)"/>
</g>
<circle cx="141.865" cy="123.254" r="8.38697" fill="#329DCE"/>
<mask id="mask1" style="mask-type:alpha" maskUnits="userSpaceOnUse" x="133" y="114" width="18" height="18">
<circle cx="141.865" cy="123.254" r="8.38697" fill="#329DCE"/>
</mask>
<g mask="url(#mask1)">
<rect x="142.333" y="123.722" width="3.74492" height="3.74492" rx="0.5" fill="white" fill-opacity="0.4"/>
<path fill-rule="evenodd" clip-rule="evenodd" d="M141.444 127.043V123.254V119.465C141.444 119.23 141.255 119.041 141.023 119.041H138.072C137.84 119.041 137.652 119.23 137.652 119.465V127.043C137.652 127.277 137.84 127.467 138.072 127.467H141.023C141.256 127.467 141.444 127.277 141.444 127.043ZM142.707 119.041C142.474 119.041 142.286 119.229 142.286 119.461V122.412C142.286 122.524 142.33 122.631 142.409 122.71C142.488 122.788 142.595 122.833 142.707 122.833H145.657C145.89 122.833 146.078 122.644 146.078 122.412V119.461C146.078 119.229 145.89 119.041 145.657 119.041H142.707Z" fill="white" fill-opacity="0.9"/>
</g>
<circle cx="136.192" cy="28.2796" r="8.42054" fill="#4A5974"/>
<mask id="mask2" style="mask-type:alpha" maskUnits="userSpaceOnUse" x="127" y="19" width="18" height="18">
<circle cx="136.192" cy="28.2796" r="8.42054" fill="#4A5974"/>
</mask>
<g mask="url(#mask2)">
<path d="M133.891 30.1155L124.927 21.3726L118.036 23.6116L117.362 27.9297L126.277 36.1928L133.891 30.1155Z" fill="url(#paint6_linear)"/>
</g>
<path d="M134.988 29.959C134.988 30.1259 134.962 30.2974 134.909 30.4734C134.857 30.6494 134.767 30.8083 134.64 30.9501C134.512 31.0919 134.361 31.163 134.185 31.1636C134.01 31.1641 133.859 31.0929 133.731 30.9501C133.604 30.8072 133.514 30.6483 133.462 30.4734C133.409 30.2984 133.383 30.127 133.383 29.959C133.383 29.791 133.409 29.6195 133.462 29.4445C133.514 29.2696 133.604 29.1107 133.731 28.9678C133.859 28.825 134.01 28.7538 134.185 28.7543C134.361 28.7549 134.512 28.826 134.64 28.9678C134.767 29.1096 134.857 29.2685 134.909 29.4445C134.962 29.6205 134.988 29.792 134.988 29.959ZM139.001 29.959C139.001 30.1259 138.974 30.2974 138.922 30.4734C138.87 30.6494 138.78 30.8083 138.652 30.9501C138.525 31.0919 138.374 31.163 138.198 31.1636C138.023 31.1641 137.871 31.0929 137.744 30.9501C137.617 30.8072 137.527 30.6483 137.474 30.4734C137.422 30.2984 137.396 30.127 137.396 29.959C137.396 29.791 137.422 29.6195 137.474 29.4445C137.527 29.2696 137.617 29.1107 137.744 28.9678C137.871 28.825 138.023 28.7538 138.198 28.7543C138.374 28.7549 138.525 28.826 138.652 28.9678C138.78 29.1096 138.87 29.2685 138.922 29.4445C138.974 29.6205 139.001 29.792 139.001 29.959ZM140.004 29.959C140.004 29.4576 139.86 29.0312 139.571 28.6797C139.283 28.3282 138.892 28.1527 138.399 28.1532C138.228 28.1532 137.82 28.1971 137.177 28.2849C136.88 28.3309 136.551 28.3539 136.192 28.3539C135.832 28.3539 135.504 28.3309 135.207 28.2849C134.572 28.1971 134.165 28.1532 133.985 28.1532C133.492 28.1532 133.101 28.3287 132.812 28.6797C132.524 29.0307 132.38 29.4571 132.38 29.959C132.38 30.3271 132.447 30.6478 132.58 30.9212C132.714 31.1946 132.883 31.4099 133.088 31.5672C133.293 31.7245 133.548 31.85 133.853 31.9436C134.158 32.0373 134.451 32.0988 134.731 32.1282C135.012 32.1576 135.323 32.1724 135.665 32.1724H136.719C137.062 32.1724 137.373 32.1576 137.653 32.1282C137.933 32.0988 138.226 32.0373 138.531 31.9436C138.837 31.85 139.092 31.7245 139.296 31.5672C139.5 31.4099 139.67 31.1946 139.804 30.9212C139.938 30.6478 140.005 30.3271 140.005 29.959H140.004ZM141.408 28.8555C141.408 29.7206 141.281 30.4124 141.025 30.9308C140.867 31.2529 140.646 31.5309 140.364 31.7647C140.082 31.9985 139.787 32.1782 139.48 32.304C139.172 32.4297 138.817 32.529 138.414 32.6017C138.011 32.6745 137.653 32.7205 137.339 32.7398C137.025 32.759 136.675 32.7684 136.291 32.7678C135.965 32.7678 135.669 32.7617 135.401 32.7494C135.134 32.7371 134.826 32.7109 134.477 32.6707C134.128 32.6306 133.809 32.568 133.521 32.4829C133.233 32.3979 132.946 32.2903 132.662 32.1603C132.378 32.0303 132.125 31.861 131.904 31.6523C131.682 31.4437 131.503 31.2034 131.365 30.9316C131.106 30.4175 130.976 29.7257 130.976 28.8563C130.976 27.8654 131.26 27.0377 131.828 26.3732C131.715 26.0303 131.659 25.675 131.659 25.3074C131.659 24.8227 131.766 24.3671 131.978 23.9407C132.43 23.9407 132.827 24.0234 133.169 24.1887C133.512 24.354 133.907 24.6122 134.355 24.9631C134.969 24.8171 135.615 24.744 136.292 24.744C136.911 24.744 137.496 24.8109 138.047 24.9447C138.486 24.6017 138.877 24.3489 139.22 24.1863C139.563 24.0236 139.958 23.942 140.405 23.9415C140.618 24.3679 140.725 24.8235 140.725 25.3082C140.725 25.6721 140.668 26.0233 140.555 26.362C141.123 27.0308 141.407 27.8625 141.407 28.8571L141.408 28.8555Z" fill="white"/>
<circle cx="40.337" cy="98.9997" r="8.8145" fill="#F5A623"/>
<mask id="mask3" style="mask-type:alpha" maskUnits="userSpaceOnUse" x="31" y="90" width="19" height="18">
<circle cx="40.337" cy="98.9997" r="8.8145" fill="#F5A623"/>
</mask>
<g mask="url(#mask3)">
</g>
<g clip-path="url(#clip0)">
<path d="M42.9729 97.3422C42.9257 97.2949 42.8885 97.2385 42.8635 97.1765C42.8385 97.1145 42.8262 97.0482 42.8273 96.9813C42.8284 96.9145 42.8429 96.8485 42.8699 96.7874C42.8969 96.7263 42.9359 96.6712 42.9846 96.6254C43.0333 96.5796 43.0907 96.544 43.1533 96.5207C43.216 96.4975 43.2827 96.487 43.3495 96.49C43.4163 96.493 43.4818 96.5093 43.5421 96.538C43.6025 96.5668 43.6565 96.6073 43.7009 96.6572L45.7009 98.7822C45.7881 98.875 45.8366 98.9975 45.8366 99.1247C45.8366 99.252 45.7881 99.3745 45.7009 99.4672L43.7009 101.592C43.6091 101.685 43.4849 101.737 43.3547 101.739C43.2245 101.742 43.0987 101.693 43.0039 101.604C42.9091 101.514 42.8528 101.392 42.847 101.262C42.8412 101.132 42.8864 101.005 42.9729 100.907L44.6504 99.1247L42.9729 97.3422ZM37.7009 97.3422L36.0234 99.1247L37.7009 100.907C37.7874 101.005 37.8325 101.132 37.8268 101.262C37.821 101.392 37.7647 101.514 37.6699 101.604C37.5751 101.693 37.4492 101.742 37.3191 101.739C37.1889 101.737 37.0647 101.685 36.9729 101.592L34.9729 99.4672C34.8857 99.3745 34.8372 99.252 34.8372 99.1247C34.8372 98.9975 34.8857 98.875 34.9729 98.7822L36.9729 96.6572C37.0647 96.565 37.1889 96.5122 37.3191 96.5101C37.4492 96.5079 37.5751 96.5566 37.6699 96.6458C37.7647 96.735 37.821 96.8577 37.8268 96.9877C37.8325 97.1178 37.7874 97.245 37.7009 97.3422Z" fill="white" fill-opacity="0.9"/>
<path d="M41.3721 95.1361C41.6941 95.2223 41.8119 95.4264 41.7257 95.7484L39.9139 102.51C39.8277 102.832 39.6235 102.95 39.3016 102.863C38.9796 102.777 38.8617 102.573 38.948 102.251L40.7597 95.4896C40.846 95.1676 41.0501 95.0498 41.3721 95.1361Z" fill="white" fill-opacity="0.4"/>
</g>
<defs>
<filter id="filter0_d" x="-1.63599" y="15.2593" width="164.774" height="155.919" filterUnits="userSpaceOnUse" color-interpolation-filters="sRGB">
<feFlood flood-opacity="0" result="BackgroundImageFix"/>
<feColorMatrix in="SourceAlpha" type="matrix" values="0 0 0 0 0 0 0 0 0 0 0 0 0 0 0 0 0 0 127 0" result="hardAlpha"/>
<feOffset dy="14.2731"/>
<feGaussianBlur stdDeviation="14.2731"/>
<feColorMatrix type="matrix" values="0 0 0 0 0.141176 0 0 0 0 0.180392 0 0 0 0 0.258824 0 0 0 0.08 0"/>
<feBlend mode="normal" in2="BackgroundImageFix" result="effect1_dropShadow"/>
<feBlend mode="normal" in="SourceGraphic" in2="effect1_dropShadow" result="shape"/>
</filter>
<filter id="filter1_d" x="30.1667" y="5.38885" width="158.141" height="166.889" filterUnits="userSpaceOnUse" color-interpolation-filters="sRGB">
<feFlood flood-opacity="0" result="BackgroundImageFix"/>
<feColorMatrix in="SourceAlpha" type="matrix" values="0 0 0 0 0 0 0 0 0 0 0 0 0 0 0 0 0 0 127 0" result="hardAlpha"/>
<feOffset dy="14.2731"/>
<feGaussianBlur stdDeviation="14.2731"/>
<feColorMatrix type="matrix" values="0 0 0 0 0.141176 0 0 0 0 0.180392 0 0 0 0 0.258824 0 0 0 0.08 0"/>
<feBlend mode="normal" in2="BackgroundImageFix" result="effect1_dropShadow"/>
<feBlend mode="normal" in="SourceGraphic" in2="effect1_dropShadow" result="shape"/>
</filter>
<filter id="filter2_d" x="27.0594" y="10.5359" width="139.732" height="164.151" filterUnits="userSpaceOnUse" color-interpolation-filters="sRGB">
<feFlood flood-opacity="0" result="BackgroundImageFix"/>
<feColorMatrix in="SourceAlpha" type="matrix" values="0 0 0 0 0 0 0 0 0 0 0 0 0 0 0 0 0 0 127 0" result="hardAlpha"/>
<feOffset dy="14.2731"/>
<feGaussianBlur stdDeviation="14.2731"/>
<feColorMatrix type="matrix" values="0 0 0 0 0.141176 0 0 0 0 0.180392 0 0 0 0 0.258824 0 0 0 0.08 0"/>
<feBlend mode="normal" in2="BackgroundImageFix" result="effect1_dropShadow"/>
<feBlend mode="normal" in="SourceGraphic" in2="effect1_dropShadow" result="shape"/>
</filter>
<linearGradient id="paint0_linear" x1="96.9255" y1="52.4352" x2="96.9255" y2="116.019" gradientUnits="userSpaceOnUse">
<stop offset="0.296875" stop-color="#7ED0A8"/>
<stop offset="1" stop-color="#43AB79"/>
</linearGradient>
<linearGradient id="paint1_linear" x1="96.9254" y1="84.2282" x2="71.0342" y2="65.2659" gradientUnits="userSpaceOnUse">
<stop stop-color="#F5F8FF"/>
<stop offset="1" stop-color="#AEDDC6"/>
</linearGradient>
<linearGradient id="paint2_linear" x1="87.8729" y1="107.815" x2="93.4686" y2="84.2272" gradientUnits="userSpaceOnUse">
<stop stop-color="#9FDBBE"/>
<stop offset="1" stop-color="#40B77D"/>
</linearGradient>
<linearGradient id="paint3_linear" x1="79.8811" y1="83.8881" x2="96.9099" y2="104.961" gradientUnits="userSpaceOnUse">
<stop stop-color="white"/>
<stop offset="1" stop-color="white" stop-opacity="0"/>
</linearGradient>
<linearGradient id="paint4_linear" x1="118.053" y1="84.2282" x2="96.5924" y2="62.465" gradientUnits="userSpaceOnUse">
<stop stop-color="#9FDBBE"/>
<stop offset="1" stop-color="#40B77D"/>
</linearGradient>
<linearGradient id="paint5_linear" x1="96.5924" y1="85.7002" x2="116.228" y2="107.815" gradientUnits="userSpaceOnUse">
<stop stop-color="#F5F8FF"/>
<stop offset="1" stop-color="#AEDDC6"/>
</linearGradient>
<linearGradient id="paint6_linear" x1="120.783" y1="24.8911" x2="131.029" y2="31.6858" gradientUnits="userSpaceOnUse">
<stop stop-color="#0F1D37"/>
<stop offset="0.50536" stop-color="#404E68" stop-opacity="0"/>
<stop offset="1" stop-color="#999DA3" stop-opacity="0"/>
</linearGradient>
<clipPath id="clip0">
<rect width="12" height="12" fill="white" transform="translate(34.3369 92.9998)"/>
</clipPath>
</defs>
</svg>
