<svg width="40" height="40" viewBox="0 0 40 40" fill="none" xmlns="http://www.w3.org/2000/svg">
<path fill-rule="evenodd" clip-rule="evenodd" d="M4.88889 4H12.5207C13.3126 4 13.7092 4.95746 13.1492 5.51743L10.5905 8.07621L16.1142 13.6H11.0859L8.0763 10.5904L5.51743 13.1492C4.95746 13.7092 4 13.3126 4 12.5207V4.88889C4 4.39797 4.39797 4 4.88889 4ZM11.8859 25.6L8.0763 29.4096L5.51743 26.8508C4.95746 26.2908 4 26.6874 4 27.4793V35.1111C4 35.602 4.39797 36 4.88889 36H12.5207C13.3126 36 13.7092 35.0425 13.1492 34.4826L10.5905 31.9238L16.9142 25.6H11.8859ZM23.0858 25.6L29.4095 31.9238L26.8508 34.4826C26.2908 35.0425 26.6874 36 27.4793 36H35.1111C35.602 36 36 35.602 36 35.1111V27.4793C36 26.6874 35.0425 26.2908 34.4826 26.8508L31.9237 29.4096L28.1141 25.6H23.0858ZM28.9141 13.6L31.9237 10.5904L34.4826 13.1492C35.0425 13.7092 36 13.3126 36 12.5207V4.88889C36 4.39797 35.602 4 35.1111 4H27.4793C26.6874 4 26.2908 4.95746 26.8508 5.51743L29.4095 8.07621L23.8858 13.6H28.9141Z" fill="#B6C2CD"/>
<path fill-rule="evenodd" clip-rule="evenodd" d="M8 15.9999C8 15.1162 8.71634 14.3999 9.6 14.3999H30.4C31.2837 14.3999 32 15.1162 32 15.9999V23.4999C32 24.2179 31.403 24.7999 30.6667 24.7999H9.33333C8.59695 24.7999 8 24.2179 8 23.4999V15.9999ZM16 18.2999H12V20.8999H16V18.2999ZM17.3333 18.2999H21.3333V20.8999H17.3333V18.2999Z" fill="#324558"/>
</svg>
