<svg xmlns="http://www.w3.org/2000/svg" width="40" height="40" viewBox="0 0 40 40">
    <path fill="#242E42" fill-rule="nonzero" d="M22.777 6.01a2.794 2.794 0 0 0-2.794 2.795c0 .256.023.507.087.743l-2.969 2.401a2.777 2.777 0 0 0-1.31-.35c-.919 0-1.717.45-2.226 1.136l-2.053-.437a2.796 2.796 0 0 0-5.501.699 2.794 2.794 0 0 0 2.794 2.794c.986 0 1.86-.495 2.358-1.266l1.878.393a2.798 2.798 0 0 0 5.545-.524c0-.255-.023-.507-.088-.742l2.97-2.358c.387.204.841.306 1.31.306.454 0 .886-.113 1.266-.306l4.453 3.711c-.074.251-.13.511-.13.786a2.794 2.794 0 1 0 1.527-2.488L25.441 9.59c.074-.25.13-.51.13-.786a2.794 2.794 0 0 0-2.794-2.794zm-2.794 13.973v13.972h5.589V19.983h-5.589zm6.986 4.192v9.78h5.589v-9.78h-5.589zM6.011 25.572v8.383H11.6v-8.383H6.01zm6.986 1.397v6.986h5.589v-6.986h-5.59z"/>
</svg>
