<svg width="41" height="40" viewBox="0 0 41 40" fill="none" xmlns="http://www.w3.org/2000/svg">
<path fill-rule="evenodd" clip-rule="evenodd" d="M20.4999 33.3333C27.8637 33.3333 33.8333 27.3637 33.8333 19.9999C33.8333 12.6361 27.8637 6.66659 20.4999 6.66659C13.1361 6.66659 7.16659 12.6361 7.16659 19.9999C7.16659 27.3637 13.1361 33.3333 20.4999 33.3333ZM20.4999 36.6666C29.7047 36.6666 37.1666 29.2047 37.1666 19.9999C37.1666 10.7952 29.7047 3.33325 20.4999 3.33325C11.2952 3.33325 3.83325 10.7952 3.83325 19.9999C3.83325 29.2047 11.2952 36.6666 20.4999 36.6666Z" fill="#B6C2CD"/>
<path d="M20.5001 30.8334C26.4832 30.8334 31.3334 25.9832 31.3334 20.0001C31.3334 14.017 26.4832 9.16675 20.5001 9.16675V20.0001H9.66675C9.66675 25.9832 14.517 30.8334 20.5001 30.8334Z" fill="#324558"/>
</svg>
