<svg xmlns="http://www.w3.org/2000/svg" width="146" height="274" viewBox="0 0 146 274">
    <defs>
        <linearGradient id="a" x1="-57.866%" x2="64.209%" y1="-95.953%" y2="69.729%">
            <stop offset="0%" stop-color="#7AB5F9"/>
            <stop offset="100%" stop-color="#1C2D42"/>
        </linearGradient>
        <linearGradient id="b" x1="46.789%" x2="50.423%" y1="-95.953%" y2="69.729%">
            <stop offset="0%" stop-color="#7AB5F9"/>
            <stop offset="100%" stop-color="#1C2D42"/>
        </linearGradient>
        <linearGradient id="c" x1="46.327%" x2="55.13%" y1="5.395%" y2="127.268%">
            <stop offset="0%" stop-color="#7AB5F9" stop-opacity="0"/>
            <stop offset="24.989%" stop-color="#6FA5E3"/>
            <stop offset="100%" stop-color="#1C2D42"/>
        </linearGradient>
    </defs>
    <g fill="none" fill-rule="evenodd">
        <path fill="url(#a)" d="M137.5 160c33.413 0 60.5 27.087 60.5 60.5S170.913 281 137.5 281 77 253.913 77 220.5s27.087-60.5 60.5-60.5zm0 26.889c-18.563 0-33.611 15.048-33.611 33.611 0 18.563 15.048 33.611 33.611 33.611 18.563 0 33.611-15.048 33.611-33.611 0-18.563-15.048-33.611-33.611-33.611z" opacity=".434" transform="translate(-79 -27)"/>
        <path fill="url(#b)" d="M61.877 45.566l44.423.025.147 258.292-44.423-.026z" opacity=".487" transform="rotate(-30 -5.72 308.64)"/>
        <path fill="url(#b)" d="M130.553 91.29l44.423.025.147 258.292-44.423-.026z" opacity=".487" transform="rotate(150 116.955 196.364)"/>
        <path stroke="url(#c)" stroke-linecap="square" d="M109.971 133.519l71.449 263.632" transform="rotate(-15 3.653 551.867)"/>
        <path stroke="url(#c)" stroke-linecap="square" d="M106.477 5l71.449 263.633" transform="rotate(165 104.479 118.116)"/>
    </g>
</svg>
