<svg xmlns="http://www.w3.org/2000/svg" width="16" height="16" viewBox="0 0 16 16">
    <g fill="none" fill-rule="evenodd">
        <g fill="#FFF">
            <g>
                <g>
                    <g>
                        <g>
                            <path d="M5.874 6.556L8.09 2.721c-.333-.193-.448-.62-.255-.953.192-.333.619-.447.952-.255l3.622 2.091c.333.193.447.619.255.952-.193.334-.619.448-.952.256L9.496 8.647c.618.863.714 2.041.149 3.02l-6.46-3.73c.565-.978 1.634-1.485 2.69-1.38z" opacity=".9" transform="translate(-1060 -607) translate(960 281) translate(88 282) translate(0 36) translate(12 8)"/>
                            <path d="M5.444 9.242L7.385 10.362 3.627 14.631z" opacity=".4" transform="translate(-1060 -607) translate(960 281) translate(88 282) translate(0 36) translate(12 8)"/>
                        </g>
                    </g>
                </g>
            </g>
        </g>
    </g>
</svg>
