<?xml version="1.0" encoding="UTF-8"?>
<svg width="18px" height="18px" viewBox="0 0 18 18" version="1.1" xmlns="http://www.w3.org/2000/svg" xmlns:xlink="http://www.w3.org/1999/xlink">
    <!-- Generator: Sketch 52.1 (67048) - http://www.bohemiancoding.com/sketch -->
    <title>Glyph/004.Company/007.Git/Black</title>
    <desc>Created with Sketch.</desc>
    <g id="PIPELINE/pipeline" stroke="none" stroke-width="1" fill="currentColor" fill-rule="evenodd">
        <g id="Glyph/004.Company/007.Git/Black" transform="translate(-3.000000, -3.000000)" fill="#324558">
            <g id="git-(1)" transform="translate(3.000000, 3.000000)">
                <path d="M17.6440039,8.19043902 L9.79242146,0.339418537 C9.34061268,-0.112952195 8.60726634,-0.112952195 8.15433366,0.339418537 L6.33024,2.1635122 L7.70308683,3.53635902 C7.92337171,3.43127415 8.16950634,3.37170732 8.42968976,3.37170732 C9.36084293,3.37170732 10.1155434,4.1264078 10.1155434,5.05756098 C10.1155434,5.31774439 10.0565385,5.56444098 9.95089171,5.7841639 L12.1981346,8.03140683 C12.4184195,7.92632195 12.6645541,7.86675512 12.9247376,7.86675512 C13.8558907,7.86675512 14.6105912,8.62145561 14.6105912,9.55260878 C14.6105912,10.483762 13.8558907,11.2384624 12.9247376,11.2384624 C11.9935844,11.2384624 11.2388839,10.483762 11.2388839,9.55260878 C11.2388839,9.29242537 11.2978888,9.04572878 11.4035356,8.82600585 L9.15629268,6.57876293 C9.10290732,6.60461268 9.0478361,6.62709073 8.99164098,6.64675902 L8.99164098,11.335118 C9.64631415,11.566642 10.1155434,12.1904078 10.1155434,12.924878 C10.1155434,13.8560312 9.36084293,14.6107317 8.42968976,14.6107317 C7.49853659,14.6107317 6.7438361,13.8560312 6.7438361,12.924878 C6.7438361,12.1909698 7.21306537,11.566642 7.86773854,11.335118 L7.86773854,6.64675902 C7.21306537,6.41523512 6.7438361,5.79146927 6.7438361,5.05699902 C6.7438361,4.79681561 6.80284098,4.55011902 6.9084878,4.3303961 L5.53564098,2.95754927 L0.339278049,8.15335024 C-0.113092683,8.60628293 -0.113092683,9.33906732 0.339278049,9.79143805 L8.19142244,17.6424585 C8.64323122,18.0948293 9.37657756,18.0948293 9.82951024,17.6424585 L17.6440039,9.82796488 C18.0963746,9.37559415 18.0963746,8.64168585 17.6440039,8.18987707 L17.6440039,8.19043902 Z" id="Shape"></path>
            </g>
        </g>
    </g>
</svg>
