<svg xmlns="http://www.w3.org/2000/svg" width="24" height="24" viewBox="0 0 24 24">
    <g fill="none" fill-rule="evenodd">
        <path fill="#B6C2CD" d="M16.02 16.687c.202.167.415.398.608.674.486.695.664 1.41.396 1.597-.267.187-.879-.224-1.365-.918a3.49 3.49 0 0 1-.403-.745 5.901 5.901 0 0 1-2.693.967c.055.233.087.509.087.803 0 .848-.264 1.536-.591 1.536-.327 0-.592-.688-.592-1.536 0-.288.03-.557.084-.788a5.903 5.903 0 0 1-2.722-.883c-.088.206-.21.427-.364.646-.486.694-1.097 1.105-1.365.918-.268-.187-.09-.902.396-1.597.162-.231.338-.43.51-.588a5.94 5.94 0 0 1-.902-1.022l.777-.54a4.964 4.964 0 0 0 4.085 2.134c1.652 0 3.167-.81 4.09-2.142l.777.54c-.24.345-.513.661-.814.944zm-.07-8.667a5.93 5.93 0 0 1 1.077 1.307l-.81.491a4.967 4.967 0 0 0-4.251-2.392c-1.71 0-3.27.868-4.18 2.276l-.794-.514c.303-.47.668-.89 1.08-1.25a3.466 3.466 0 0 1-.576-.646c-.486-.695-.664-1.41-.396-1.597.268-.187.879.224 1.365.918.177.253.313.509.402.74a5.904 5.904 0 0 1 2.714-.861 3.408 3.408 0 0 1-.114-.905c0-.848.265-1.535.592-1.535.327 0 .591.687.591 1.535 0 .345-.043.663-.117.92a5.904 5.904 0 0 1 2.689.946c.085-.257.234-.55.437-.84.486-.694 1.098-1.105 1.365-.918.268.187.09.902-.396 1.597a3.294 3.294 0 0 1-.678.728z"/>
        <path fill="#324558" d="M4.08 10.304h1.14v1.603h1.285v-1.603h1.14v4.306h-1.14V12.9H5.22v1.71H4.08v-4.306zm4.519 0h2.782v.954H9.738v.675h1.405v.954H9.738v.769h1.71v.954h-2.85v-4.306zm3.683 0h1.14v3.352h1.63v.954h-2.77v-4.306zm3.511 0h1.18l.675 1.788.239.703h.026l.239-.703.649-1.788h1.18v4.306h-1.06v-1.272c0-.11.005-.232.016-.365.01-.132.023-.268.036-.407.014-.14.029-.275.047-.407l.046-.358h-.026l-.358 1.007-.596 1.45h-.424l-.597-1.45-.344-1.007h-.027l.047.358c.017.132.033.268.046.407l.037.407c.01.133.016.254.016.365v1.272h-1.047v-4.306z"/>
    </g>
</svg>
