<svg width="24" height="24" viewBox="0 0 24 24" fill="none" xmlns="http://www.w3.org/2000/svg">
<path fill-rule="evenodd" clip-rule="evenodd" d="M5.29065 18.5174H7.93599V19.8401C7.93599 20.5706 8.52817 21.1627 9.25866 21.1627H19.84C20.5705 21.1627 21.1627 20.5706 21.1627 19.8401V7.93603H17.1947C16.4642 7.93603 15.872 7.34385 15.872 6.61335V2.64534H9.25866C8.52817 2.64534 7.93599 3.23752 7.93599 3.96801V10.5814H5.29065V2.64534C5.29065 1.18436 6.47501 0 7.93599 0H18.1964L23.808 5.61162V21.1627C23.808 22.6237 22.6237 23.8081 21.1627 23.8081H7.93599C6.47501 23.8081 5.29065 22.6237 5.29065 21.1627V18.5174Z" fill="#324558"/>
<path fill-rule="evenodd" clip-rule="evenodd" d="M1 10.5815C0.447715 10.5815 0 11.0293 0 11.5815V17.5176C0 18.0699 0.447715 18.5176 1 18.5176H19C19.5523 18.5176 20 18.0698 20 17.5176V11.5815C20 11.0293 19.5523 10.5815 19 10.5815H1ZM8.64805 16.9917C8.27566 17.2717 7.77436 17.4116 7.14415 17.4116C6.70665 17.4116 6.30821 17.3315 5.94883 17.1714C5.58946 17.0112 5.31537 16.7918 5.12657 16.5132C4.93777 16.2345 4.84337 15.9116 4.84337 15.5444H6.01915C6.01915 16.172 6.39415 16.4858 7.14415 16.4858C7.42279 16.4858 7.64024 16.4292 7.79649 16.3159C7.95274 16.2026 8.03087 16.0444 8.03087 15.8413C8.03087 15.62 7.95274 15.45 7.79649 15.3315C7.64024 15.2131 7.35899 15.0881 6.95274 14.9565C6.54649 14.825 6.22488 14.6955 5.9879 14.5679C5.34206 14.2189 5.01915 13.7489 5.01915 13.1577C5.01915 12.8504 5.10574 12.5763 5.27891 12.3355C5.45209 12.0946 5.70079 11.9064 6.02501 11.771C6.34923 11.6356 6.71316 11.5679 7.1168 11.5679C7.52305 11.5679 7.88503 11.6414 8.20274 11.7886C8.52045 11.9357 8.76719 12.1434 8.94297 12.4116C9.11876 12.6799 9.20665 12.9845 9.20665 13.3257H8.03477C8.03477 13.0653 7.95274 12.8628 7.78868 12.7183C7.62462 12.5737 7.39415 12.5015 7.09727 12.5015C6.81081 12.5015 6.58816 12.562 6.4293 12.6831C6.27045 12.8042 6.19102 12.9637 6.19102 13.1616C6.19102 13.3465 6.28412 13.5015 6.47032 13.6265C6.65652 13.7515 6.93061 13.8687 7.29258 13.978C7.95925 14.1786 8.44493 14.4273 8.74962 14.7241C9.0543 15.021 9.20665 15.3908 9.20665 15.8335C9.20665 16.3257 9.02045 16.7118 8.64805 16.9917ZM3.55977 17.1851C3.26811 17.3361 2.93868 17.4116 2.57149 17.4116C1.96993 17.4116 1.50118 17.2586 1.16524 16.9526C0.829304 16.6467 0.661335 16.2137 0.661335 15.6538H1.84102C1.84102 15.9325 1.89962 16.1382 2.0168 16.271C2.13399 16.4038 2.31889 16.4702 2.57149 16.4702C2.79545 16.4702 2.97384 16.3934 3.10665 16.2398C3.23946 16.0861 3.30587 15.8674 3.30587 15.5835V11.646H4.47774V15.5835C4.47774 15.9455 4.39766 16.2651 4.23751 16.5425C4.07735 16.8198 3.85144 17.034 3.55977 17.1851ZM11.8574 17.4116C12.334 17.4116 12.7565 17.297 13.125 17.0679C13.4935 16.8387 13.7767 16.5132 13.9746 16.0913C14.1725 15.6694 14.2715 15.1786 14.2715 14.6187V14.3648C14.2715 13.8075 14.1706 13.3159 13.9688 12.8901C13.7669 12.4644 13.4818 12.1375 13.1133 11.9097C12.7448 11.6818 12.3236 11.5679 11.8496 11.5679C11.3757 11.5679 10.9544 11.6818 10.5859 11.9097C10.2175 12.1375 9.9323 12.4644 9.73048 12.8901C9.52865 13.3159 9.42774 13.8088 9.42774 14.3687V14.6499C9.43035 15.1968 9.53321 15.6805 9.73634 16.1011C9.93946 16.5217 10.2259 16.8452 10.5957 17.0718C10.9655 17.2983 11.3861 17.4116 11.8574 17.4116ZM10.9356 15.9702C11.1491 16.2905 11.4564 16.4507 11.8574 16.4507C12.2507 16.4507 12.5527 16.2964 12.7637 15.9878C12.9746 15.6792 13.0814 15.2293 13.084 14.6382V14.3608C13.084 13.7645 12.9772 13.3114 12.7637 13.0015C12.5501 12.6916 12.2454 12.5366 11.8496 12.5366C11.4564 12.5366 11.153 12.6896 10.9395 12.9956C10.7259 13.3016 10.6178 13.7502 10.6152 14.3413V14.6187C10.6152 15.1994 10.722 15.6499 10.9356 15.9702ZM15.8949 17.3335V13.5913L18.1762 17.3335H19.3481V11.646H18.1801V15.396L15.8949 11.646H14.7231V17.3335H15.8949Z" fill="#B6C2CD"/>
<path fill-rule="evenodd" clip-rule="evenodd" d="M2.57153 17.4116C2.93872 17.4116 3.26815 17.3361 3.55981 17.1851C3.85148 17.034 4.07739 16.8198 4.23755 16.5425C4.3977 16.2651 4.47778 15.9455 4.47778 15.5835V11.646H3.30591V15.5835C3.30591 15.8674 3.2395 16.0861 3.10669 16.2397C2.97388 16.3934 2.79549 16.4702 2.57153 16.4702C2.31893 16.4702 2.13403 16.4038 2.01685 16.271C1.89966 16.1382 1.84106 15.9325 1.84106 15.6538H0.661377C0.661377 16.2137 0.829346 16.6466 1.16528 16.9526C1.50122 17.2586 1.96997 17.4116 2.57153 17.4116ZM7.14419 17.4116C7.7744 17.4116 8.2757 17.2716 8.64809 16.9917C9.02049 16.7118 9.20669 16.3257 9.20669 15.8335C9.20669 15.3908 9.05434 15.021 8.74966 14.7241C8.44497 14.4272 7.95929 14.1785 7.29263 13.978C6.93065 13.8687 6.65656 13.7515 6.47036 13.6265C6.28416 13.5015 6.19106 13.3465 6.19106 13.1616C6.19106 12.9637 6.27049 12.8042 6.42935 12.6831C6.5882 12.562 6.81086 12.5015 7.09731 12.5015C7.39419 12.5015 7.62466 12.5737 7.78872 12.7183C7.95278 12.8628 8.03481 13.0653 8.03481 13.3257H9.20669C9.20669 12.9845 9.1188 12.6799 8.94302 12.4116C8.76724 12.1434 8.52049 11.9357 8.20278 11.7886C7.88507 11.6414 7.5231 11.5679 7.11685 11.5679C6.7132 11.5679 6.34927 11.6356 6.02505 11.771C5.70083 11.9064 5.45213 12.0946 5.27895 12.3354C5.10578 12.5763 5.01919 12.8504 5.01919 13.1577C5.01919 13.7489 5.34211 14.2189 5.98794 14.5679C6.22492 14.6955 6.54653 14.825 6.95278 14.9565C7.35903 15.0881 7.64028 15.2131 7.79653 15.3315C7.95278 15.45 8.03091 15.62 8.03091 15.8413C8.03091 16.0444 7.95278 16.2026 7.79653 16.3159C7.64028 16.4292 7.42283 16.4858 7.14419 16.4858C6.39419 16.4858 6.01919 16.172 6.01919 15.5444H4.84341C4.84341 15.9116 4.93781 16.2345 5.12661 16.5132C5.31541 16.7918 5.5895 17.0112 5.94888 17.1714C6.30825 17.3315 6.70669 17.4116 7.14419 17.4116ZM11.8575 17.4116C12.334 17.4116 12.7566 17.297 13.125 17.0679C13.4935 16.8387 13.7767 16.5132 13.9747 16.0913C14.1726 15.6694 14.2715 15.1785 14.2715 14.6187V14.3647C14.2715 13.8075 14.1706 13.3159 13.9688 12.8901C13.767 12.4644 13.4818 12.1375 13.1133 11.9097C12.7448 11.6818 12.3236 11.5679 11.8497 11.5679C11.3757 11.5679 10.9545 11.6818 10.586 11.9097C10.2175 12.1375 9.93234 12.4644 9.73052 12.8901C9.52869 13.3159 9.42778 13.8088 9.42778 14.3687V14.6499C9.43039 15.1968 9.53325 15.6805 9.73638 16.1011C9.9395 16.5216 10.226 16.8452 10.5958 17.0718C10.9655 17.2983 11.3861 17.4116 11.8575 17.4116ZM11.8575 16.4507C11.4564 16.4507 11.1491 16.2905 10.9356 15.9702C10.7221 15.6499 10.6153 15.1994 10.6153 14.6187V14.3413C10.6179 13.7502 10.726 13.3016 10.9395 12.9956C11.153 12.6896 11.4564 12.5366 11.8497 12.5366C12.2455 12.5366 12.5502 12.6916 12.7637 13.0015C12.9773 13.3114 13.084 13.7645 13.084 14.3608V14.6382C13.0814 15.2293 12.9747 15.6792 12.7637 15.9878C12.5528 16.2964 12.2507 16.4507 11.8575 16.4507ZM15.895 17.3335V13.5913L18.1762 17.3335H19.3481V11.646H18.1801V15.396L15.895 11.646H14.7231V17.3335H15.895Z" fill="#324558"/>
</svg>
