<svg xmlns="http://www.w3.org/2000/svg" width="26" height="40" viewBox="0 0 26 40">
    <path fill="#231F20" fill-rule="nonzero" d="M9.057 3.472c-.453-.453-1.057-.68-1.736-.68-.68 0-1.283.302-1.66.68-.453.453-.68 1.056-.68 1.736 0 .679.302 1.283.68 1.735.452.453 1.056.68 1.66.68.679 0 1.283-.302 1.736-.68.452-.452.679-1.056.679-1.735 0-.68-.302-1.283-.68-1.736zM7.32 36.982c.679 0 1.283-.303 1.736-.68.452-.453.679-1.057.679-1.736 0-.68-.302-1.283-.68-1.736-.452-.453-1.056-.68-1.735-.68-.68 0-1.283.303-1.66.68-.453.453-.68 1.057-.68 1.736 0 .68.302 1.283.68 1.736.377.377.98.68 1.66.68zm13.132-7.397a2.152 2.152 0 0 0 1.434-1.132l.075-.076c.302-.528.378-1.207.227-1.735-.151-.604-.529-1.133-1.132-1.51-.529-.302-1.208-.377-1.812-.226a2.152 2.152 0 0 0-1.434 1.132 2.71 2.71 0 0 0-.226 1.887c.15.603.528 1.132 1.132 1.509.453.226 1.132.302 1.736.15zM9.81 17.358c-.603-.603-1.51-1.056-2.49-1.056-.981 0-1.812.377-2.49 1.056-.605.604-.982 1.51-.982 2.491 0 .981.377 1.887.981 2.49.604.604 1.51 1.057 2.49 1.057.982 0 1.812-.377 2.491-1.056.604-.68.981-1.51.981-2.49 0-.982-.377-1.812-.98-2.492zm-1.434-4.15c1.434.226 2.642.905 3.623 1.886.15.151.302.302.453.529l2.415-1.434c-.302-.981-.302-2.038-.076-3.02C15.17 9.888 16 8.68 17.208 8h.075c1.208-.68 2.642-.83 3.925-.528a5.407 5.407 0 0 1 3.17 2.49c.679 1.283.83 2.717.528 4-.378 1.283-1.208 2.49-2.415 3.17l-.302.226c-1.132.529-2.415.68-3.547.302-.982-.226-1.812-.83-2.491-1.585l-2.415 1.434c.302.755.453 1.51.453 2.416 0 .83-.151 1.66-.453 2.415l2.415 1.434c.68-.755 1.585-1.283 2.49-1.585a4.829 4.829 0 0 1 3.925.528h.076c1.207.755 1.962 1.887 2.34 3.17.376 1.283.226 2.717-.53 4l-.075.075c-.754 1.208-1.811 2.038-3.094 2.415a4.829 4.829 0 0 1-3.925-.528 5.581 5.581 0 0 1-2.415-3.17c-.226-.98-.226-2.037.076-3.019l-2.566-1.51-.453.454c-.981.98-2.189 1.66-3.623 1.887v2.792a5.41 5.41 0 0 1 2.566 1.434c.906.981 1.51 2.264 1.51 3.698 0 1.434-.604 2.793-1.51 3.698-.98.981-2.264 1.51-3.698 1.51-1.434 0-2.717-.604-3.698-1.51-.905-.98-1.51-2.264-1.51-3.698 0-1.434.605-2.792 1.51-3.698a5.41 5.41 0 0 1 2.566-1.434v-2.792c-1.434-.227-2.641-.906-3.622-1.887a6.8 6.8 0 0 1-1.963-4.755c0-1.887.755-3.547 1.963-4.755.98-.98 2.188-1.66 3.622-1.886v-2.793a5.41 5.41 0 0 1-2.566-1.434C2.642 8 2.037 6.717 2.037 5.283c0-1.434.605-2.792 1.51-3.698C4.453.604 5.811 0 7.245 0c1.434 0 2.717.604 3.698 1.585.906.981 1.51 2.264 1.51 3.698 0 1.434-.604 2.792-1.51 3.698a5.41 5.41 0 0 1-2.566 1.434v2.793zm13.51-1.887c-.378-.604-.906-.981-1.434-1.132-.604-.151-1.283-.076-1.811.226-.604.302-.982.906-1.133 1.51a2.76 2.76 0 0 0 .227 1.886c.302.604.83.981 1.434 1.132.604.151 1.283.076 1.811-.226.528-.377.906-.906 1.057-1.434.226-.68.15-1.358-.151-1.962z"/>
</svg>
