<svg xmlns="http://www.w3.org/2000/svg" width="40" height="40" viewBox="0 0 40 40">
    <path fill="#FFF" fill-rule="evenodd" d="M5.728 28.852l.062.041c.781.435 1.67.559 2.487.332H8.3c.812-.227 1.552-.763 2.015-1.545.452-.805.553-1.71.326-2.534l-.068-.224 5.575-5.551c.62.227 1.31.236 1.923.073l.236-.073 2.103 2.092c-.227.636-.25 1.315-.095 1.935.225.823.747 1.565 1.552 2.017.785.453 1.67.554 2.496.34l.024-.01c.817-.218 1.55-.742 1.999-1.544.483-.802.554-1.69.342-2.532l-.071-.206 4.939-4.922c.65.205 1.322.205 1.947.062.813-.227 1.557-.763 2.01-1.546v-.02c.46-.793.55-1.686.325-2.51-.214-.816-.737-1.544-1.545-2.007-.79-.465-1.685-.56-2.522-.34-.8.228-1.537.76-1.997 1.555-.463.792-.553 1.695-.33 2.51l.067.226-4.944 4.932c-.628-.215-1.276-.235-1.908-.084l-.028.011-.238.073-2.065-2.08c.22-.647.22-1.316.063-1.943-.23-.815-.77-1.557-1.546-2.01-.809-.464-1.71-.554-2.525-.35-.823.225-1.561.76-2.02 1.565-.451.795-.544 1.71-.315 2.512l.048.227-5.526 5.56c-.647-.23-1.296-.249-1.926-.085l-.026.012c-.828.215-1.57.75-2.021 1.532-.45.803-.554 1.711-.34 2.514.216.823.726 1.544 1.494 1.995zM31.28 12.65l.046-.105c.237-.339.566-.576.941-.681.38-.1.779-.079 1.137.127l.099.04c.357.228.605.577.716.947.077.373.067.782-.133 1.154l-.049.088c-.238.345-.557.59-.946.695-.38.105-.787.06-1.136-.124l-.115-.053c-.334-.236-.583-.566-.692-.934v-.023c-.094-.36-.068-.762.132-1.131zM22.138 21.8l.046-.074c.223-.368.548-.616.938-.697l.02-.02c.382-.092.806-.063 1.173.152l.048.032c.342.204.585.554.695.936.099.404.064.835-.162 1.206-.213.368-.559.64-.969.73l-.015.01c-.375.082-.769.052-1.13-.123l-.09-.062c-.352-.225-.577-.565-.69-.95-.089-.366-.061-.781.136-1.14zm-6.296-6.364v.011c.227-.368.57-.638.972-.739.403-.103.836-.062 1.193.164.38.207.646.555.739.967.116.382.054.812-.158 1.196-.201.36-.558.615-.96.72-.385.113-.814.061-1.199-.144-.377-.226-.62-.576-.739-.966-.1-.394-.063-.826.152-1.209zm-9.768 9.794c.227-.385.57-.64.972-.742h.017c.383-.103.804-.043 1.174.145.37.226.62.572.745.965.1.395.058.823-.17 1.206v-.01c-.217.392-.556.64-.95.74l-.036.012c-.39.09-.805.04-1.17-.176H6.62c-.342-.225-.606-.566-.696-.949-.123-.4-.069-.834.15-1.191z"/>
</svg>
