<svg xmlns="http://www.w3.org/2000/svg" width="16" height="16" viewBox="0 0 16 16">
    <g fill="none" fill-rule="evenodd">
        <g>
            <g>
                <g>
                    <path fill="#324558" d="M10.404 9.461l3.493 3.493-.943.943-3.493-3.493c.358-.267.676-.585.943-.943z" transform="translate(-360 -319) translate(342 311) translate(18 8)"/>
                    <path fill="#B6C2CD" d="M6.667 2c2.577 0 4.666 2.09 4.666 4.667s-2.089 4.666-4.666 4.666C4.089 11.333 2 9.244 2 6.667 2 4.089 4.09 2 6.667 2zm0 1.333c-1.841 0-3.334 1.493-3.334 3.334C3.333 8.507 4.826 10 6.667 10 8.507 10 10 8.508 10 6.667c0-1.841-1.492-3.334-3.333-3.334z" transform="translate(-360 -319) translate(342 311) translate(18 8)"/>
                </g>
            </g>
        </g>
    </g>
</svg>
