<svg xmlns="http://www.w3.org/2000/svg" width="16" height="16" viewBox="0 0 16 16">
    <g fill="none" fill-rule="evenodd">
        <g>
            <g>
                <g>
                    <g transform="translate(-1244 -840) translate(32 828) translate(1212 10) translate(0 2)">
                        <path fill="#B6C2CD" d="M8 2c3.314 0 6 2.686 6 6s-2.686 6-6 6-6-2.686-6-6 2.686-6 6-6zm.001 8.422c-.483 0-.874.391-.874.874s.391.875.874.875.874-.392.874-.875-.391-.874-.874-.874zm.046-6.493c-1.153 0-2.057.732-2.287 1.856l1.307.267c.102-.501.458-.79.98-.79.455 0 .822.269.886.761.049.374-.036.548-.407.925l-.096.097-.1.1c-.678.69-.997 1.292-.997 2.283h1.334c0-.585.158-.885.614-1.348l.096-.097.1-.1c.63-.64.89-1.174.779-2.032-.158-1.213-1.13-1.922-2.21-1.922z"/>
                        <circle cx="8.001" cy="11.296" r="1" fill="#324558"/>
                        <path fill="#324558" fill-rule="nonzero" d="M7.067 6.052L5.76 5.785C5.99 4.661 6.894 3.93 8.047 3.93c1.08 0 2.05.71 2.209 1.922.111.858-.15 1.391-.779 2.032l-.196.197c-.456.463-.614.763-.614 1.348H7.333c0-.99.319-1.593.998-2.283l.195-.197c.371-.377.456-.551.407-.925-.064-.492-.431-.76-.886-.76-.522 0-.878.288-.98.789z"/>
                    </g>
                </g>
            </g>
        </g>
    </g>
</svg>
