<svg xmlns="http://www.w3.org/2000/svg" width="16" height="16" viewBox="0 0 16 16">
    <g fill="none" fill-rule="evenodd">
        <g>
            <g>
                <g>
                    <path fill="#324558" d="M8 12.667c2.577 0 4.667-2.09 4.667-4.667 0-.37-.043-.729-.124-1.074 1.226.349 2.124 1.477 2.124 2.815 0 1.616-1.31 2.926-2.926 2.926H8z" transform="translate(-925 -286) translate(917 237) translate(8 49)"/>
                    <path fill="#B6C2CD" d="M8 12.667H4.261c-1.617 0-2.928-1.311-2.928-2.928 0-1.339.899-2.468 2.125-2.817C3.945 4.864 5.794 3.333 8 3.333c2.577 0 4.667 2.09 4.667 4.667S10.577 12.667 8 12.667z" transform="translate(-925 -286) translate(917 237) translate(8 49)"/>
                </g>
            </g>
        </g>
    </g>
</svg>
