<?xml version="1.0" encoding="UTF-8"?>
<svg width="200px" height="40px" viewBox="0 0 200 40" version="1.1" xmlns="http://www.w3.org/2000/svg" xmlns:xlink="http://www.w3.org/1999/xlink">
    <!-- Generator: Sketch 54 (76480) - https://sketchapp.com -->
    <title>logo</title>
    <desc>Created with Sketch.</desc>
    <g id="页面1" stroke="none" stroke-width="1" fill="none" fill-rule="evenodd">
        <g id="logo" fill-rule="nonzero">
            <g id="编组" transform="translate(46.117459, 9.245647)" fill="#FFFFFF">
                <path d="M98.133608,0.166117647 L96.4087718,0.166117647 C96.0317511,0.166117647 95.7177864,0.488184706 95.7177864,0.874036315 L95.7177864,9.11167619 L90.1653812,9.11167619 L90.1653812,0.874036315 C90.1653812,0.488184706 89.882944,0.166117647 89.4752715,0.166117647 L87.7495595,0.166117647 C87.3729765,0.166117647 87.0590118,0.488184706 87.0590118,0.874036315 L87.0590118,20.6342204 C87.0590118,21.0209704 87.3729765,21.3425882 87.7495595,21.3425882 L89.4752715,21.3425882 C89.882944,21.3425882 90.1653812,21.0209704 90.1653812,20.6342204 L90.1653812,12.2977594 L95.7177864,12.2977594 L95.7177864,20.6342204 C95.7177864,21.0209704 96.0317511,21.3425882 96.4087718,21.3425882 L98.133608,21.3425882 C98.5417186,21.3425882 98.8237176,21.0209704 98.8237176,20.6342204 L98.8237176,0.874036315 C98.8237176,0.488184706 98.5417186,0.166117647 98.133608,0.166117647" id="Fill-5"></path>
                <path d="M56.0001882,18.8644237 C56.0001882,18.4781229 55.6814184,18.1560559 55.2995162,18.1560559 L47.3889501,18.156505 L47.3889501,12.3471699 L55.2995162,12.3471699 C55.6814184,12.3471699 55.9997435,12.0578936 55.9997435,11.6392513 L55.9997435,9.86945459 C55.9997435,9.48270461 55.6809736,9.16108678 55.299072,9.16108678 L47.3889501,9.16108678 L47.3889501,3.35220084 L55.299072,3.35220084 C55.6809736,3.35220084 55.9997435,3.06247524 55.9997435,2.64428217 L55.9997435,0.874485501 C55.9997435,0.48773552 55.6809736,0.166117647 55.299072,0.166117647 L46.6896119,0.166117647 C46.6891673,0.166117647 46.6887227,0.166117647 46.6882782,0.166117647 L44.9365987,0.166117647 C44.5538079,0.166117647 44.2354824,0.48773552 44.2354824,0.874036315 L44.2354824,20.6342204 C44.2354824,21.0205212 44.5538079,21.3425882 44.9365987,21.3425882 L45.6955116,21.3425882 L45.6968454,21.3425882 L55.2995162,21.3425882 C55.6814184,21.3425882 56.0001882,21.0528626 56.0001882,20.6342204 L56.0001882,18.8644237 Z" id="Fill-7"></path>
                <path d="M113.411953,18.8644237 C113.411953,18.4781229 113.093183,18.1560559 112.711281,18.1560559 L104.800715,18.156505 L104.800715,12.3471699 L112.710837,12.3471699 C113.092738,12.3471699 113.411508,12.0578936 113.411508,11.6392513 L113.411508,9.86945459 C113.411508,9.48270461 113.092738,9.16108678 112.710837,9.16108678 L104.800715,9.16108678 L104.800715,3.35220084 L112.710837,3.35220084 C113.092738,3.35220084 113.411508,3.06247524 113.411508,2.64428217 L113.411508,0.874485501 C113.411508,0.48773552 113.092738,0.166117647 112.710837,0.166117647 L104.101376,0.166117647 C104.100932,0.166117647 104.100488,0.166117647 104.100043,0.166117647 L102.348363,0.166117647 C101.965573,0.166117647 101.647247,0.48773552 101.647247,0.874036315 L101.647247,20.6342204 C101.647247,21.0205212 101.965573,21.3425882 102.348363,21.3425882 L103.107276,21.3425882 L103.10861,21.3425882 L112.711281,21.3425882 C113.093183,21.3425882 113.411953,21.0528626 113.411953,20.6342204 L113.411953,18.8644237 Z" id="Fill-9"></path>
                <path d="M143.5296,18.8644237 C143.5296,18.4781229 143.21083,18.1560559 142.828928,18.1560559 L134.918362,18.156505 L134.918362,12.3471699 L142.828928,12.3471699 C143.21083,12.3471699 143.529155,12.0578936 143.529155,11.6392513 L143.529155,9.86945459 C143.529155,9.48270461 143.210385,9.16108678 142.828484,9.16108678 L134.918362,9.16108678 L134.918362,3.35220084 L142.828484,3.35220084 C143.210385,3.35220084 143.529155,3.06247524 143.529155,2.64428217 L143.529155,0.874485501 C143.529155,0.48773552 143.210385,0.166117647 142.828484,0.166117647 L134.219024,0.166117647 C134.218579,0.166117647 134.218135,0.166117647 134.21769,0.166117647 L132.46601,0.166117647 C132.083664,0.166117647 131.764894,0.48773552 131.764894,0.874036315 L131.764894,20.6342204 C131.764894,21.0205212 132.083664,21.3425882 132.46601,21.3425882 L133.224923,21.3425882 L133.226257,21.3425882 L142.828928,21.3425882 C143.21083,21.3425882 143.5296,21.0528626 143.5296,20.6342204 L143.5296,18.8644237 Z" id="Fill-11"></path>
                <path d="M61.3963139,5.70586174 L61.3963139,6.92279656 C61.3963139,7.85166466 62.2748456,8.39569016 63.2787553,8.81218847 L67.4507845,10.6052567 C69.01956,11.3102739 70.1178353,12.5584121 70.1178353,14.479912 L70.1178353,16.753242 C70.1178353,18.6426339 66.2271313,21.8131765 64.1564014,21.8131765 C62.7453454,21.8131765 60.6121478,20.7884368 58.9498932,19.8595688 C58.5728729,19.6678258 58.3221172,19.2187673 58.5418607,18.7068497 L59.0752711,17.6178944 C59.2945718,17.1697404 59.7650715,17.0734167 60.1731035,17.2977198 C61.5216918,18.0022848 63.3097675,18.866937 64.1564014,18.866937 C65.0978433,18.866937 67.0746508,17.2339561 67.0746508,16.305088 L67.0746508,14.8964103 C67.0746508,13.8074549 66.2590296,13.1992136 65.1297416,12.7510596 L61.2394809,11.0855185 C59.733616,10.4451694 58.3531294,9.13236306 58.3531294,7.33929487 L58.3531294,5.25770776 C58.3531294,3.17612064 62.4626913,0.166117647 64.4394984,0.166117647 C65.7570748,0.166117647 67.890272,1.15874935 69.3022141,1.92753016 C69.7412584,2.15183327 69.8666362,2.66420307 69.6779049,3.04814125 L69.1763929,4.13709666 C69.01956,4.52103485 68.5176047,4.64946647 68.0785605,4.45681904 C67.0117402,3.94490146 65.2236645,3.11235706 64.4394984,3.11235706 C63.5295115,3.11235706 61.3963139,4.64946647 61.3963139,5.70586174" id="Fill-13"></path>
                <path d="M122.565902,2.93400776 L119.432923,2.93400776 L119.432923,10.014542 L122.597907,10.014542 C123.922323,10.014542 125.472584,7.66529412 125.472584,6.40981656 C125.472584,5.1871296 123.85741,2.93400776 122.565902,2.93400776 M122.436525,12.7819829 L119.432923,12.7819829 L119.432923,20.6351188 C119.432923,21.0533118 119.142165,21.3425882 118.689574,21.3425882 L116.978381,21.3425882 C116.590704,21.3425882 116.235482,21.0533118 116.235482,20.6351188 L116.235482,1.64663791 C116.235482,0.906826965 117.107758,0.166117647 117.8182,0.166117647 L122.986036,0.166117647 C125.343208,0.166117647 128.470776,3.82968659 128.470776,6.24316819 C128.470776,7.85260508 127.055302,10.2714769 125.537497,11.2053367 C126.764543,11.8485724 128.443729,13.5545845 128.443729,15.13168 L128.443729,20.6351188 C128.443729,21.0209704 128.121416,21.3425882 127.733287,21.3425882 L125.957181,21.3425882 C125.569504,21.3425882 125.246739,21.0209704 125.246739,20.6351188 L125.246739,15.6141068 C125.246739,14.4875459 123.664472,12.7819829 122.436525,12.7819829" id="Fill-15"></path>
                <path d="M79.1002376,2.93400776 L76.0525976,2.93400776 L76.0525976,10.014542 L79.131376,10.014542 C80.4203407,10.014542 81.7483379,7.66529412 81.7483379,6.40981656 C81.7483379,5.1871296 80.3567478,2.93400776 79.1002376,2.93400776 M78.9748056,12.7819829 L76.0525976,12.7819829 L76.0525976,20.6351188 C76.0525976,21.0533118 75.76928,21.3425882 75.3293915,21.3425882 L73.6641322,21.3425882 C73.28696,21.3425882 72.9413647,21.0533118 72.9413647,20.6351188 L72.9413647,1.64663791 C72.9413647,0.906826965 73.7900024,0.166117647 74.4811925,0.166117647 L79.5089873,0.166117647 C81.8022824,0.166117647 84.7060706,3.94378008 84.7060706,6.35726169 C84.7060706,7.96669859 83.5420993,10.1313306 82.1974362,11.3832147 C81.5365073,11.9986008 80.4865652,12.7819829 78.9748056,12.7819829" id="Fill-17"></path>
                <path d="M20.4631858,21.8131765 C18.4171688,21.8131765 14.5884235,19.1009886 14.5884235,16.7605449 L14.5884235,1.05275951 C14.5884235,0.662837049 14.9280528,0.340173943 15.3023824,0.340173943 L16.9424057,0.340173943 C17.3431943,0.340173943 17.6528945,0.662837049 17.6528945,1.05275951 L17.6528945,16.3397195 C17.6528945,17.477675 19.5019872,18.8569462 20.4631858,18.8569462 C21.4243843,18.8569462 23.2860559,17.3031642 23.2860559,16.1652088 L23.2860559,0.878703214 C23.2860559,0.488326296 23.5645259,0.166117647 23.9388554,0.166117647 L25.6391705,0.166117647 C26.0135001,0.166117647 26.3531294,0.488326296 26.3531294,0.878703214 L26.3531294,16.5864886 C26.3531294,18.8569462 22.507034,21.8131765 20.4631858,21.8131765" id="Fill-19"></path>
                <path d="M35.3683368,18.5750886 L32.3590916,18.5750886 L32.3590916,11.4944042 L35.4001926,11.4944042 C36.7183918,11.4944042 38.2618246,13.7201728 38.2618246,14.9752279 C38.2618246,16.1983899 36.6542317,18.5750886 35.3683368,18.5750886 L35.3683368,18.5750886 Z M32.3590916,2.93361728 L35.3683368,2.93361728 C36.6542317,2.93361728 38.2618246,4.77711972 38.2618246,6.00028179 C38.2618246,7.2553368 36.7183918,9.30502042 35.4001926,9.30502042 L32.3590916,9.30502042 L32.3590916,2.93361728 Z M38.4713546,10.4001615 C39.9362697,9.43438904 41.4119529,7.55809525 41.4119529,6.00028179 C41.4119529,3.58674899 38.1330556,0.166117647 35.7864994,0.166117647 L30.7514987,0.166117647 C30.0448398,0.166117647 29.1766588,0.906393478 29.1766588,1.64622011 L29.1766588,9.40519125 L29.1766588,19.8620366 L29.1766588,20.6351038 C29.1766588,21.0537549 29.5302126,21.3425882 29.9160708,21.3425882 L30.7514987,21.3425882 L31.6196796,21.3425882 L35.8950781,21.3425882 C38.2416344,21.3425882 41.4119529,17.3892098 41.4119529,14.9752279 C41.4119529,13.4183128 39.9362697,11.3767147 38.4713546,10.4001615 L38.4713546,10.4001615 Z" id="Fill-21"></path>
                <path d="M4.66326179,10.8715907 L11.5888339,2.7570281 C11.8383481,2.46460738 11.8299126,2.03204032 11.5169099,1.75848546 L10.1925313,0.601829012 C9.90350334,0.348936744 9.45464424,0.38217658 9.20513007,0.674597299 L3.1493057,7.77040391 L3.1493057,0.874485501 C3.1493057,0.488184706 2.86294157,0.166117647 2.44960048,0.166117647 L0.699893454,0.166117647 C0.318074616,0.166117647 0.000188235294,0.488184706 0.000188235294,0.874485501 L0.000188235294,20.6351188 C0.000188235294,21.0209704 0.318074616,21.3425882 0.699893454,21.3425882 L2.44960048,21.3425882 C2.86294157,21.3425882 3.1493057,21.0209704 3.1493057,20.6351188 L3.1493057,13.9727776 L9.20513007,21.0690334 C9.45464424,21.3610049 9.90350334,21.3942448 10.1925313,21.1418016 L11.5169099,19.9851452 C11.8299126,19.7111412 11.8383481,19.2785741 11.5888339,18.9866026 L4.66326179,10.8715907 Z" id="Fill-23"></path>
            </g>
            <polygon id="Fill-1" fill="#00A971" points="30.1174588 32.3042435 21.1762824 27.128 21.1762824 37.4809412"></polygon>
            <polygon id="Fill-2" fill="#00A971" points="30.1174588 7.83388235 21.1762824 2.65741176 21.1762824 13.0103529"></polygon>
            <polygon id="Fill-3" fill="#00A971" points="8.78955233 20.0693978 16.9409882 15.3202906 16.9409882 0.304470588 -0.000188235294 10.1740964 -0.000188235294 29.9646992 16.9409882 39.8338824 16.9409882 24.818505"></polygon>
            <polygon id="Fill-4" fill="#00A971" points="16.9409882 20.0691765 34.3527529 29.9515294 34.3527529 10.1868235"></polygon>
        </g>
    </g>
</svg>