<svg xmlns="http://www.w3.org/2000/svg" xmlns:xlink="http://www.w3.org/1999/xlink" width="708" height="468" viewBox="0 0 708 468">
    <defs>
        <path id="a" d="M0 0h733v468H0z"/>
    </defs>
    <g fill="none" fill-rule="evenodd">
        <mask id="b" fill="#fff">
            <use xlink:href="#a"/>
        </mask>
        <g mask="url(#b)" opacity=".3">
            <path stroke="#CFD9DF" d="M591.679 439.598c1.217.37 2.269.905 3.047 1.552 2.422 2.007 1.659 4.568-1.712 5.718L375.8 518.164c-1.15.364-2.467.555-3.82.555-4.286 0-7.877-1.876-8.022-4.19l-8.913-142.586c-.046-.731.237-1.45.82-2.084 1.843-2.008 6.18-2.702 9.696-1.552l226.118 71.29zM521.058 54.943c.987.37 1.848.906 2.494 1.552 2.012 2.007 1.496 4.568-1.16 5.719l-172.874 71.293c-.923.363-1.984.554-3.078.554-3.46 0-6.383-1.876-6.528-4.19L331-12.715c-.046-.73.17-1.45.623-2.083 1.433-2.008 4.858-2.703 7.657-1.552l181.779 71.293zM230.44-54.913a6.966 6.966 0 0 1 2.767-.561c3.054 0 5.53 1.876 5.529 4.19l-.088 225.733c0 1.497-1.228 2.881-3.221 3.63L42.142 247.69c-1.063.368-1.972.898-2.635 1.535-2.087 2.005-1.282 4.567 1.806 5.724l193.774 69.619c2.167.748 3.503 2.131 3.502 3.629l-.087 225.733c0 .735-.366 1.457-1.059 2.094-2.186 2.004-7.027 2.692-10.806 1.535L-226.79 407.666c-2.082-.749-3.135-2.132-2.762-3.63l76.013-305.42c.373-1.497 1.883-2.88 3.962-3.629l380.018-149.9zm19.078 309.867c-1.028-.369-1.883-.899-2.477-1.537-1.863-2.005-.77-4.567 2.434-5.723l373.82-147.582c.842-.367 1.851-.56 2.927-.56 3.386 0 6.598 1.875 7.174 4.19l73.461 295.164c.183.734.026 1.456-.455 2.093-1.519 2.005-5.82 2.693-9.6 1.537L249.518 254.954z"/>
        </g>
        <g fill="#55BC8A" transform="translate(350 361)">
            <circle cx="10" cy="10" r="10" fill-opacity=".1"/>
            <circle cx="10.417" cy="10.417" r="7.083"/>
        </g>
        <g fill="#55BC8A" transform="translate(239 242)">
            <circle cx="10" cy="10" r="10" fill-opacity=".1"/>
            <circle cx="10.417" cy="10.417" r="7.083"/>
        </g>
    </g>
</svg>
