<svg xmlns="http://www.w3.org/2000/svg" width="150" height="32" viewBox="0 0 150 32">
    <g fill="none" fill-rule="nonzero">
        <path fill="#5628B4" d="M138.892 13.423l4.698-7.1H147L140.597 16 147 25.677h-3.41l-4.698-7.1-4.698 7.1h-3.41L137.187 16l-6.403-9.677h3.41l4.698 7.1zm-21.834 4.512h-4.112v7.742h-3.243V6.323H117.047a5.628 5.628 0 0 1 5.629 5.628v.356a5.625 5.625 0 0 1-2.722 4.82l4.622 8.583h-3.331l-4.187-7.775zm-14.166-8.39v16.132h-3.243V9.544h-5.314V6.301h13.87v3.243h-5.313zm10.054.004v5.483h3.745a2.742 2.742 0 0 0 0-5.483h-3.745zm12.324-3.226h3.244v19.354h-3.244V6.323zM11.757 23.742c3.713 0 6.81-3.423 6.81-7.742s-3.097-7.742-6.81-7.742c-3.713 0-6.811 3.423-6.811 7.742s3.098 7.742 6.81 7.742zm0 1.935C6.92 25.677 3 21.345 3 16s3.92-9.677 8.757-9.677c4.836 0 8.757 4.332 8.757 9.677s-3.921 9.677-8.757 9.677zM25.703 6.323h5.513c2.866 0 5.19 2.31 5.19 5.16v1.291c0 2.85-2.324 5.161-5.19 5.161h-5.513v7.742h-1.946V6.323h1.946zm0 1.935V16h5.513a3.235 3.235 0 0 0 3.243-3.226v-1.29a3.235 3.235 0 0 0-3.243-3.226h-5.513zM77.595 6.323h4.54c2.866 0 5.19 2.31 5.19 5.16v1.614c0 2.85-2.324 5.161-5.19 5.161h-4.54v7.42H74.35V6.322h3.244zm0 3.225v5.484h4.54a1.94 1.94 0 0 0 1.946-1.935v-1.613a1.94 1.94 0 0 0-1.946-1.936h-4.54zM51.324 8.258H41.27v6.452h10.054v1.935H41.27v7.097h10.054v1.935h-12V6.323h12zM68.19 12.69V6.323h1.945v19.354H68.19V14.862L57.162 9.273v16.404h-1.946V6.323h1.946V7.1zM89.27 6.323h3.244v12.903l-3.244-1.613z"/>
        <path fill="#F7B236" d="M92.514 25.677H89.27v-4.516l3.244 1.533z"/>
    </g>
</svg>
