<svg xmlns="http://www.w3.org/2000/svg" width="274" height="200" viewBox="0 0 274 200">
    <g fill="none" fill-rule="evenodd">
        <path fill="#D8DEE5" fill-rule="nonzero" d="M47.85 0L33.579 23.319c8.015 5.204 10.426 15.842 5.438 23.992-4.987 8.15-15.56 10.847-23.843 6.082L0 78.187l146.386 89.536 47.85-78.187L47.85 0z"/>
        <circle cx="25.937" cy="38.04" r="11.527" fill="#D8DEE5" fill-rule="nonzero"/>
        <ellipse cx="132.853" cy="189.337" fill="#D8DEE5" fill-rule="nonzero" rx="40.634" ry="2.594"/>
        <ellipse cx="63.977" cy="198.847" fill="#D8DEE5" fill-rule="nonzero" rx="19.02" ry="1.153"/>
        <ellipse cx="213.545" cy="182.997" fill="#D8DEE5" fill-rule="nonzero" rx="40.634" ry="2.594"/>
        <path stroke="#2F2E41" stroke-width="2" d="M1.729 178.674L273.199 178.674"/>
        <path fill="#36435C" fill-rule="nonzero" d="M48.991 47.262H244.38V178.674H48.991z"/>
        <path stroke="#2F2E41" stroke-width="2" d="M48.991 56.484L244.38 56.484"/>
        <circle cx="54.755" cy="51.873" r="2.305" fill="#009688" fill-rule="nonzero"/>
        <circle cx="62.248" cy="51.873" r="2.305" fill="#009688" fill-rule="nonzero"/>
        <circle cx="69.164" cy="51.873" r="2.305" fill="#009688" fill-rule="nonzero"/>
        <path fill="#326E93" fill-rule="nonzero" d="M61.095 65.706H225.936V97.983H61.095z"/>
        <path stroke="#009688" stroke-width="2" d="M61.095 97.983L225.937 65.706M225.937 97.983L61.095 65.706" opacity=".3"/>
        <path fill="#3B747A" fill-rule="nonzero" d="M61.095 118.156H100.288V169.453H61.095zM186.744 118.156H225.937V169.453H186.744zM123.919 118.156H163.112V169.453H123.919z"/>
        <path stroke="#009688" stroke-width="2" d="M61.095 118.156L100.288 169.452M100.288 118.156L61.095 169.452M123.919 118.156L163.112 169.452M163.112 118.156L123.919 169.452M186.744 118.156L225.937 169.452M225.937 118.156L186.744 169.452" opacity=".3"/>
        <path fill="#C7DEEF" fill-rule="nonzero" d="M82.997 65.706H247.83800000000002V97.983H82.997z"/>
        <path fill="#55BC8A" fill-rule="nonzero" d="M194.236 130.259H233.42899999999997V181.55599999999998H194.236z"/>
        <path fill="#242E42" fill-rule="nonzero" d="M200 137.176H227.666V140.634H200zM200 144.092H227.666V147.55H200zM200 151.009H227.666V154.46699999999998H200zM200 157.925H227.666V161.383H200zM200 164.841H227.666V168.299H200zM200 171.758H227.666V175.216H200z"/>
        <path fill="#C7DEEF" fill-rule="nonzero" d="M70.893 125.072H110.086V176.369H70.893z"/>
        <path fill="#242E42" fill-rule="nonzero" d="M76.657 141.787H104.323V145.245H76.657zM76.657 148.703H104.323V152.161H76.657zM76.657 155.62H104.323V159.078H76.657zM173.487 84.636c0 6.048-3.612 8.16-8.07 8.16-.102 0-.205-.002-.308-.004-.207-.004-.411-.014-.613-.028-4.022-.283-7.147-2.504-7.147-8.128 0-5.822 7.474-13.167 8.035-13.71l.001-.001.033-.032s8.069 7.694 8.069 13.743z"/>
        <path fill="#009688" fill-rule="nonzero" d="M165.275 91.873l3.018-4.104-3.025 4.555-.008.471c-.211-.004-.42-.014-.627-.028l.325-6.051-.002-.047.005-.01.03-.57-3.031-4.568L165 85.66l.007.122.246-4.573-2.596-4.719 2.628 3.917.256-9.48v-.033.032L165.5 78.4l2.584-2.963-2.595 3.607-.068 4.094 2.413-3.929-2.423 4.532-.038 2.276 3.503-5.469-3.516 6.263-.085 5.062z"/>
        <circle cx="21.902" cy="90.49" r="6.34" fill="#242E42" fill-rule="nonzero"/>
        <path fill="#A0616A" fill-rule="nonzero" d="M18.745 94.524s.094 4.006-.283 4.103c-.377.098 5.18 1.661 5.18 1.661l.565-5.47-5.462-.294zM62.947 127.901s4.052 0 4.144-.487c.092-.486.92 3.99.92 3.99l-1.657.584s-3.13-1.46-3.407-1.46c-.276 0 0-2.627 0-2.627z"/>
        <path fill="#242E42" fill-rule="nonzero" d="M67.363 129.565s-.737-2.579-1.657-2.674c0 0 3.13-2.102 3.221-2.77.093-.67 1.197-2.389 1.657-1.816.46.573.46 9.649-.368 10.604-.828.955-4.51-1.343-4.51-1.343s2.301-1.045 1.657-2z"/>
        <path fill="#A0616A" fill-rule="nonzero" d="M15.733 165.418L14.986 169.464 18.444 170.029 18.444 165.418z"/>
        <path fill="#242E42" fill-rule="nonzero" d="M16.126 169.232s-.539-1.756-.898-1.479c-.36.277-.899 2.033-.809 2.495.09.462.719 4.066.45 4.713-.27.647 1.347 3.974 3.413 3.697 2.067-.277 1.887-2.126 1.887-2.126l-.719-2.864-.27-4.529s-2.335-.37-3.054.093z"/>
        <circle cx="19.885" cy="83.862" r="2.594" fill="#242E42" fill-rule="nonzero"/>
        <path fill="#242E42" fill-rule="nonzero" d="M16.106 82.709c0-1.328 1.009-2.441 2.338-2.58-.09-.009-.181-.014-.272-.014-1.442 0-2.61 1.161-2.61 2.594 0 1.432 1.168 2.594 2.61 2.594.09 0 .181-.005.272-.014-1.33-.139-2.338-1.252-2.338-2.58z"/>
        <circle cx="21.902" cy="93.372" r="4.035" fill="#A0616A" fill-rule="nonzero"/>
        <path fill="#242E42" fill-rule="nonzero" d="M13.833 120.95s.19 4.698.946 7.141c.757 2.443 3.486 19.844 2.918 21.16-.568 1.315-3.486 15.865-2.823 16.71.662.846 3.784.564 3.784.564l4.243-17.65s-.837-19.468 6.164-19.938c7.002-.47 18.45-.752 18.45-.752s7.38 2.161 10.69 2.067c3.312-.094 5.204.846 5.204.846l.568-3.853-14.665-3.195s-13.435-4.604-20.814-3.383c-7.38 1.222-14.665.282-14.665.282z"/>
        <path fill="#FAE7E5" fill-rule="nonzero" d="M19.508 97.126s-1.13-.666-1.412 0c-.283.665-2.26 1.236-3.013.665-.754-.57-2.637.19-2.637.19l-2.071 6.18s1.035 5.323 1.977 8.27c.942 2.947 1.318 9.03.942 9.6-.377.571 7.532 2.853 11.393 1.427 3.86-1.426 4.708-3.042 4.708-3.042s-4.237-6.084-2.825-8.936c1.412-2.852.283-6.084.283-6.084l.564-3.232-3.2-1.806s-.19-1.711-.943-1.711c-.753 0-3.766-1.521-3.766-1.521z"/>
        <path fill="#FAE7E5" fill-rule="nonzero" d="M25.887 102.594h1.378c.777.726 1.125 1.802.919 2.846-.368 1.745-2.025 7.528-2.025 7.528l-1.375-3.58 1.103-6.794z"/>
        <path fill="#A0616A" fill-rule="nonzero" d="M30.141 117.58s2.916 3.194.773 4.87c-2.144 1.676-2.672-3.845-2.672-3.845l1.9-1.026z"/>
        <path fill="#FAE7E5" fill-rule="nonzero" d="M26.077 111.24l.656 2.596 1.125 2.04s3.842 2.505 3.842 3.432c0 0-1.687-2.133-3.842 0l-1.921-4.59.14-3.479z"/>
        <ellipse cx="22.767" cy="89.049" fill="#242E42" fill-rule="nonzero" rx="4.323" ry="2.594"/>
        <path fill="#A0616A" fill-rule="nonzero" d="M13.833 89.652s3.133-1.65 4.406-.459c1.274 1.192-3.819 3.026-3.819 3.026l-.587-2.567z"/>
        <path fill="#FAE7E5" fill-rule="nonzero" d="M12.876 98.645l-.653-.466s-.746-1.117-1.398-.744c-.653.372-4.475-1.396-4.475-1.396s1.398.651 1.398-.466.187-.93 1.119-.93c.932 0 .932.465 1.305-.187.373-.651.187-1.024.84-.651.652.372 1.397.093 1.584-.187.186-.279 3.542-.744 3.542-.744s-1.305-3.817-1.584-4.096c-.28-.279-7.458 2.886-7.458 2.886s-9.043 2.513-6.712 5.398c2.33 2.886 10.72 7.26 10.72 7.26l1.772-5.677z"/>
        <path fill="#55BC8A" fill-rule="nonzero" d="M115.274 137.752H154.46699999999998V189.049H115.274z"/>
        <path fill="#242E42" fill-rule="nonzero" d="M125.648 145.821H143.515V163.688H125.648zM119.308 167.147H150.43200000000002V169.452H119.308zM119.308 172.911H150.43200000000002V175.216H119.308zM119.308 178.674H150.43200000000002V180.979H119.308z"/>
        <path fill="#479E88" fill-rule="nonzero" d="M70.317 193.694c0 3.82-2.322 5.153-5.187 5.153-.067 0-.133 0-.2-.002-.132-.003-.263-.009-.393-.018-2.586-.178-4.595-1.58-4.595-5.133 0-3.677 4.805-8.316 5.166-8.66l.022-.02s5.187 4.86 5.187 8.68z"/>
        <path fill="#3F3D56" fill-rule="nonzero" d="M65.035 198.265l2.011-2.593-2.016 2.878-.006.297c-.14-.003-.28-.009-.418-.017l.217-3.823-.001-.03.003-.005.02-.36-2.02-2.885 2.027 2.613.005.077.164-2.888-1.731-2.98 1.752 2.473.17-5.987v-.02.02l-.028 4.72 1.723-1.871-1.73 2.278-.045 2.586 1.609-2.482-1.616 2.862-.025 1.438 2.335-3.454-2.344 3.956-.056 3.197z"/>
    </g>
</svg>
