<svg xmlns="http://www.w3.org/2000/svg" width="41" height="40" viewBox="0 0 41 40">
    <path fill="#242E42" d="M20.5 4c-8.836 0-16 7.163-16 16 0 8.836 7.164 16 16 16s16-7.164 16-16c0-8.837-7.164-16-16-16zm0 29.946c-2.514 0-4.552-1.68-4.552-3.751h9.104c0 2.07-2.038 3.75-4.552 3.75zm7.52-4.993H12.98v-2.727h15.04v2.727zm-.055-4.13H13.023c-.05-.058-.1-.114-.148-.173-1.54-1.869-1.902-2.845-2.254-3.84-.006-.032 1.866.383 3.194.682 0 0 .683.158 1.682.34-.959-1.124-1.528-2.553-1.528-4.014 0-3.208 2.46-6.01 1.572-8.276.864.07 1.788 1.823 1.85 4.564.918-1.27 1.303-3.587 1.303-5.007 0-1.472.969-3.18 1.939-3.239-.865 1.425.223 2.646 1.19 5.675.364 1.138.317 3.053.597 4.268.093-2.523.527-6.203 2.127-7.474-.706 1.6.105 3.603.659 4.565.894 1.553 1.436 2.73 1.436 4.955 0 1.492-.55 2.897-1.48 3.995 1.057-.198 1.786-.377 1.786-.377l3.432-.67s-.499 2.05-2.415 4.025z"/>
</svg>
