<svg width="21" height="20" viewBox="0 0 21 20" fill="none" xmlns="http://www.w3.org/2000/svg">
    <path d="M5.65143 12.2276C5.6498 12.6891 5.46567 13.1312 5.13924 13.4575C4.8128 13.7838 4.37056 13.9677 3.90903 13.9691C3.44735 13.9677 3.00497 13.7837 2.67851 13.4572C2.35205 13.1307 2.16803 12.6884 2.16663 12.2267C2.16663 11.2673 2.94969 10.4834 3.90903 10.4834H5.65232V12.2267L5.65143 12.2276ZM6.53017 12.2276C6.53017 11.2682 7.31323 10.4843 8.27257 10.4843C9.23191 10.4843 10.0159 11.2682 10.0159 12.2276V16.592C10.0145 17.0538 9.83031 17.4963 9.50366 17.8228C9.17701 18.1493 8.73441 18.3332 8.27257 18.3344C7.81089 18.333 7.36851 18.149 7.04205 17.8225C6.71559 17.496 6.53157 17.0537 6.53017 16.592V12.2276ZM8.27257 5.15253C7.81104 5.1509 7.36889 4.96677 7.04262 4.64033C6.71635 4.3139 6.53245 3.87166 6.53105 3.41013C6.53105 2.45079 7.31412 1.66772 8.27346 1.66772C9.2328 1.66772 10.0167 2.45079 10.0167 3.41013V5.15342H8.27257V5.15253ZM8.27257 6.03126C9.23191 6.03126 10.0159 6.81433 10.0159 7.77367C10.0147 8.23566 9.83065 8.67839 9.50397 9.00507C9.17729 9.33175 8.73456 9.51579 8.27257 9.51696H3.90903C3.44719 9.51556 3.00469 9.33141 2.6782 9.00476C2.35172 8.67811 2.16779 8.23551 2.16663 7.77367C2.16663 6.81433 2.94969 6.03126 3.90903 6.03126H8.27346H8.27257ZM15.3476 7.77367C15.3476 6.81433 16.1315 6.03126 17.0909 6.03126C18.0502 6.03126 18.8333 6.81433 18.8333 7.77367C18.8321 8.23551 18.6482 8.67811 18.3217 9.00476C17.9952 9.33141 17.5527 9.51556 17.0909 9.51696H15.3476V7.77367ZM14.4689 7.77367C14.4677 8.23551 14.2838 8.67811 13.9573 9.00476C13.6308 9.33141 13.1883 9.51556 12.7265 9.51696C12.2645 9.51579 11.8217 9.33175 11.4951 9.00507C11.1684 8.67839 10.9843 8.23566 10.9832 7.77367V3.41013C10.9832 2.45079 11.7671 1.66772 12.7265 1.66772C13.6858 1.66772 14.4689 2.45079 14.4689 3.41013V7.77455V7.77367ZM12.7265 14.8487C13.6858 14.8487 14.4689 15.6326 14.4689 16.592C14.4675 17.0537 14.2834 17.496 13.957 17.8225C13.6305 18.149 13.1881 18.333 12.7265 18.3344C12.2646 18.3332 11.822 18.1493 11.4954 17.8228C11.1687 17.4963 10.9846 17.0538 10.9832 16.592V14.8487H12.7265ZM12.7265 13.97C12.2646 13.9688 11.822 13.7849 11.4954 13.4584C11.1687 13.1319 10.9846 12.6894 10.9832 12.2276C10.9832 11.2682 11.7671 10.4843 12.7265 10.4843H17.0909C18.0502 10.4843 18.8333 11.2682 18.8333 12.2276C18.8319 12.6892 18.6479 13.1316 18.3214 13.4581C17.9949 13.7845 17.5526 13.9686 17.0909 13.97H12.7265Z"
          fill="currentColor"/>
</svg>
