<svg xmlns="http://www.w3.org/2000/svg" width="20" height="20" viewBox="0 0 20 20">
    <g fill="none" fill-rule="nonzero">
        <path fill="#DFA22F" d="M12.373 2.99a1.425 1.425 0 1 0-2.71.88l3.684 11.336a1.425 1.425 0 0 0 1.733.883c.756-.217 1.217-1.02.976-1.763L12.373 2.99"/>
        <path fill="#3CB187" d="M6.664 4.845a1.425 1.425 0 0 0-2.71.88l3.684 11.336a1.425 1.425 0 0 0 1.733.883c.757-.218 1.218-1.02.976-1.764L6.664 4.845"/>
        <path fill="#CE1E5B" d="M17.01 12.378a1.425 1.425 0 1 0-.88-2.71L4.794 13.352a1.425 1.425 0 0 0-.883 1.733c.217.756 1.02 1.217 1.763.976l11.336-3.683"/>
        <path fill="#392538" d="M7.157 15.58l2.709-.88-.88-2.71-2.71.88.88 2.71"/>
        <path fill="#BB242A" d="M12.865 13.724l2.71-.88-.88-2.71-2.71.88.88 2.71"/>
        <path fill="#72C5CD" d="M15.155 6.67a1.425 1.425 0 0 0-.88-2.711L2.939 7.643a1.424 1.424 0 0 0-.883 1.733c.218.756 1.02 1.218 1.764.976L15.155 6.67"/>
        <path fill="#248C73" d="M5.301 9.87l2.71-.88-.88-2.71-2.71.882.88 2.709"/>
        <path fill="#62803A" d="M11.01 8.016l2.71-.88-.88-2.71-2.71.88.88 2.71"/>
    </g>
</svg>
