<svg width="40" height="40" viewBox="0 0 40 40" fill="none" xmlns="http://www.w3.org/2000/svg">
<path fill-rule="evenodd" clip-rule="evenodd" d="M27.3775 10.8545C27.5886 11.2142 27.8485 11.5532 28.1572 11.8619C28.4589 12.1637 28.7896 12.4188 29.1403 12.6272L26.7525 15.0151C28.618 17.8487 28.3043 21.6955 25.8115 24.1883C23.3187 26.6811 19.4718 26.9948 16.6383 25.1293L14.08 27.6876C14.6622 28.5952 14.9999 29.6748 14.9999 30.8332C14.9999 34.0549 12.3882 36.6666 9.16658 36.6666C5.94492 36.6666 3.33325 34.0549 3.33325 30.8332C3.33325 27.6116 5.94492 24.9999 9.16658 24.9999C10.325 24.9999 11.4046 25.3376 12.3122 25.9198L14.8141 23.4179C12.6541 20.5568 12.8777 16.4687 15.4848 13.8616C18.0919 11.2545 22.18 11.0309 25.0411 13.1909L27.3775 10.8545ZM6.66658 30.8332C6.66658 32.2139 7.78587 33.3332 9.16658 33.3332C10.5473 33.3332 11.6666 32.2139 11.6666 30.8332C11.6666 29.4525 10.5473 28.3332 9.16658 28.3332C7.78587 28.3332 6.66658 29.4525 6.66658 30.8332Z" fill="#324558"/>
<path fill-rule="evenodd" clip-rule="evenodd" d="M27.3851 10.8671C27.5948 11.2221 27.8523 11.5569 28.1573 11.862C28.4591 12.1637 28.7898 12.4188 29.1405 12.6272C31.0594 13.768 33.5775 13.5129 35.2284 11.862C37.181 9.90933 37.181 6.7435 35.2284 4.79088C33.2758 2.83826 30.11 2.83826 28.1573 4.79088C26.5134 6.43481 26.2535 8.93867 27.3777 10.8545C27.3801 10.8587 27.3826 10.8629 27.3851 10.8671ZM30.5144 7.14791C29.8635 7.79878 29.8635 8.85405 30.5144 9.50493C31.1652 10.1558 32.2205 10.1558 32.8714 9.50493C33.5223 8.85405 33.5223 7.79878 32.8714 7.14791C32.2205 6.49703 31.1652 6.49703 30.5144 7.14791Z" fill="#B6C2CD"/>
<path d="M15.8205 13.5462L13.9837 11.9286C14.3941 10.7575 14.1312 9.40294 13.195 8.46675C11.8932 7.165 9.7827 7.165 8.48095 8.46675C7.1792 9.7685 7.1792 11.879 8.48095 13.1808C9.5228 14.2226 11.0827 14.4307 12.3315 13.8048L14.2529 15.4969C14.5768 14.9104 14.9875 14.3591 15.4849 13.8616C15.5943 13.7523 15.7062 13.6471 15.8205 13.5462Z" fill="#B6C2CD"/>
<path d="M24.9559 24.9224C25.2551 24.7033 25.5413 24.4586 25.8116 24.1883C26.1448 23.8552 26.439 23.4979 26.6943 23.122L28.8592 25.0286C29.6596 24.4845 30.626 24.1666 31.6667 24.1666C34.4282 24.1666 36.6667 26.4051 36.6667 29.1666C36.6667 31.928 34.4282 34.1666 31.6667 34.1666C28.9053 34.1666 26.6667 31.928 26.6667 29.1666C26.6667 28.3524 26.8613 27.5837 27.2065 26.9044L24.9559 24.9224Z" fill="#B6C2CD"/>
</svg>
