<svg width="48" height="48" viewBox="0 0 48 48" fill="none" xmlns="http://www.w3.org/2000/svg">
    <ellipse cx="24.0001" cy="25.7541" rx="15.2093" ry="8.96891" stroke="#A5EAE3" stroke-width="0.6"
             stroke-dasharray="1.8 1.8"/>
    <path d="M24.0012 8.08496L24.0016 40.276" stroke="#A5EAE3" stroke-width="0.6" stroke-dasharray="1.8 1.8"/>
    <ellipse cx="24.0001" cy="33.1964" rx="15.2093" ry="8.96891" stroke="#A5EAE3" stroke-width="0.6"
             stroke-dasharray="1.8 1.8"/>
    <mask id="path-4-inside-1_13999_497032" fill="white">
        <path fill-rule="evenodd" clip-rule="evenodd"
              d="M39.2691 31.9898C39.1018 31.4677 38.3724 31.5647 38.1438 32.063C36.3875 35.8921 30.7214 38.6954 24.0028 38.6954C17.2839 38.6954 11.6176 35.8918 9.86156 32.0624C9.63302 31.5641 8.90356 31.467 8.73621 31.9891C8.56546 32.5218 8.47621 33.071 8.47621 33.6323C8.47621 38.5857 15.4276 42.6012 24.0025 42.6012C32.5775 42.6012 39.5289 38.5857 39.5289 33.6323C39.5289 33.0713 39.4397 32.5223 39.2691 31.9898Z"/>
    </mask>
    <path fill-rule="evenodd" clip-rule="evenodd"
          d="M39.2691 31.9898C39.1018 31.4677 38.3724 31.5647 38.1438 32.063C36.3875 35.8921 30.7214 38.6954 24.0028 38.6954C17.2839 38.6954 11.6176 35.8918 9.86156 32.0624C9.63302 31.5641 8.90356 31.467 8.73621 31.9891C8.56546 32.5218 8.47621 33.071 8.47621 33.6323C8.47621 38.5857 15.4276 42.6012 24.0025 42.6012C32.5775 42.6012 39.5289 38.5857 39.5289 33.6323C39.5289 33.0713 39.4397 32.5223 39.2691 31.9898Z"
          fill="url(#paint0_linear_13999_497032)"/>
    <path d="M38.1438 32.0632L37.053 31.5629L38.1438 32.0632ZM39.2691 31.99L38.1263 32.3561L39.2691 31.99ZM37.053 31.5629C36.3287 33.1421 34.7323 34.6295 32.418 35.732C30.1191 36.8272 27.2018 37.4957 24.0028 37.4957V39.8957C27.5223 39.8957 30.7974 39.1625 33.4502 37.8987C36.0877 36.6422 38.2025 34.8135 39.2345 32.5635L37.053 31.5629ZM24.0028 37.4957C20.8036 37.4957 17.8862 36.8271 15.5872 35.7318C13.2729 34.6292 11.6765 33.1417 10.9523 31.5625L8.77076 32.5628C9.8026 34.813 11.9174 36.6419 14.555 37.8985C17.2079 39.1624 20.4831 39.8957 24.0028 39.8957V37.4957ZM9.6762 33.6325C9.6762 33.2002 9.74469 32.7744 9.87893 32.3556L7.59346 31.623C7.3862 32.2696 7.2762 32.9423 7.2762 33.6325H9.6762ZM24.0025 41.4014C19.8874 41.4014 16.2206 40.4353 13.624 38.9354C10.9958 37.4172 9.6762 35.4993 9.6762 33.6325H7.2762C7.2762 36.7191 9.43224 39.2856 12.4235 41.0136C15.4463 42.7597 19.5428 43.8014 24.0025 43.8014V41.4014ZM38.3289 33.6325C38.3289 35.4993 37.0092 37.4172 34.3811 38.9354C31.7845 40.4353 28.1177 41.4014 24.0025 41.4014V43.8014C28.4623 43.8014 32.5587 42.7597 35.5815 41.0136C38.5728 39.2856 40.7289 36.7191 40.7289 33.6325H38.3289ZM38.1263 32.3561C38.2604 32.7747 38.3289 33.2003 38.3289 33.6325H40.7289C40.7289 32.9426 40.619 32.2702 40.4119 31.6239L38.1263 32.3561ZM10.9523 31.5625C10.649 30.9009 10.0209 30.5067 9.38574 30.4483C8.69892 30.3852 7.87912 30.7318 7.59346 31.623L9.87893 32.3556C9.83496 32.4927 9.72964 32.6437 9.56182 32.743C9.40786 32.8342 9.26171 32.847 9.1661 32.8382C8.99467 32.8225 8.84557 32.726 8.77076 32.5628L10.9523 31.5625ZM39.2345 32.5635C39.1597 32.7267 39.0106 32.8232 38.8391 32.8389C38.7435 32.8477 38.5973 32.8348 38.4434 32.7436C38.2756 32.6442 38.1703 32.4933 38.1263 32.3561L40.4119 31.6239C40.1263 30.7326 39.3066 30.3859 38.6197 30.449C37.9846 30.5073 37.3565 30.9014 37.053 31.5629L39.2345 32.5635Z"
          fill="#119E8F" mask="url(#path-4-inside-1_13999_497032)"/>
    <mask id="path-6-inside-2_13999_497032" fill="white">
        <path fill-rule="evenodd" clip-rule="evenodd"
              d="M39.2694 24.7112C39.1021 24.1891 38.3727 24.2861 38.1441 24.7845C36.3879 28.6137 30.7217 31.4171 24.003 31.4171C17.2843 31.4171 11.6181 28.6136 9.86189 24.7844C9.63333 24.286 8.90389 24.1889 8.73656 24.7111C8.56586 25.2437 8.47663 25.7929 8.47663 26.354C8.47663 31.3074 15.428 35.323 24.003 35.323C32.5779 35.323 39.5293 31.3074 39.5293 26.354C39.5293 25.7929 39.4401 25.2438 39.2694 24.7112Z"/>
    </mask>
    <path fill-rule="evenodd" clip-rule="evenodd"
          d="M39.2694 24.7112C39.1021 24.1891 38.3727 24.2861 38.1441 24.7845C36.3879 28.6137 30.7217 31.4171 24.003 31.4171C17.2843 31.4171 11.6181 28.6136 9.86189 24.7844C9.63333 24.286 8.90389 24.1889 8.73656 24.7111C8.56586 25.2437 8.47663 25.7929 8.47663 26.354C8.47663 31.3074 15.428 35.323 24.003 35.323C32.5779 35.323 39.5293 31.3074 39.5293 26.354C39.5293 25.7929 39.4401 25.2438 39.2694 24.7112Z"
          fill="url(#paint1_linear_13999_497032)"/>
    <path d="M38.1441 24.7844L37.0534 24.2841L38.1441 24.7844ZM39.2695 24.7111L38.1267 25.0773L39.2695 24.7111ZM37.0534 24.2841C36.3291 25.8633 34.7327 27.3508 32.4184 28.4533C30.1195 29.5485 27.2021 30.217 24.0031 30.217V32.617C27.5227 32.617 30.7978 31.8838 33.4506 30.62C36.0881 29.3635 38.2029 27.5347 39.2349 25.2847L37.0534 24.2841ZM24.0031 30.217C20.804 30.217 17.8866 29.5485 15.5877 28.4533C13.2734 27.3507 11.677 25.8632 10.9527 24.284L8.77119 25.2845C9.8031 27.5346 11.9179 29.3634 14.5554 30.62C17.2083 31.8838 20.4834 32.617 24.0031 32.617V30.217ZM9.67668 26.354C9.67668 25.9217 9.74516 25.496 9.87936 25.0772L7.59386 24.3448C7.38666 24.9913 7.27668 25.6639 7.27668 26.354H9.67668ZM24.003 34.1229C19.8878 34.1229 16.2211 33.1568 13.6245 31.6568C10.9963 30.1387 9.67668 28.2208 9.67668 26.354H7.27668C7.27668 29.4406 9.43272 32.0071 12.424 33.735C15.4468 35.4812 19.5432 36.5229 24.003 36.5229V34.1229ZM38.3294 26.354C38.3294 28.2208 37.0097 30.1387 34.3816 31.6568C31.785 33.1568 28.1182 34.1229 24.003 34.1229V36.5229C28.4628 36.5229 32.5592 35.4812 35.582 33.735C38.5733 32.0071 40.7294 29.4406 40.7294 26.354H38.3294ZM38.1267 25.0773C38.2609 25.496 38.3294 25.9217 38.3294 26.354H40.7294C40.7294 25.6639 40.6194 24.9914 40.4122 24.3449L38.1267 25.0773ZM10.9527 24.284C10.6493 23.6225 10.0212 23.2283 9.38608 23.17C8.69926 23.1069 7.87948 23.4535 7.59386 24.3448L9.87936 25.0772C9.8354 25.2144 9.73008 25.3653 9.56227 25.4647C9.40831 25.5558 9.26217 25.5687 9.16655 25.5599C8.99511 25.5442 8.84601 25.4477 8.77119 25.2845L10.9527 24.284ZM39.2349 25.2847C39.1601 25.4478 39.011 25.5443 38.8395 25.56C38.7439 25.5688 38.5978 25.5559 38.4438 25.4648C38.276 25.3654 38.1707 25.2145 38.1267 25.0773L40.4122 24.3449C40.1266 23.4537 39.3069 23.107 38.62 23.1701C37.9849 23.2284 37.3568 23.6226 37.0534 24.2841L39.2349 25.2847Z"
          fill="#119E8F" mask="url(#path-6-inside-2_13999_497032)"/>
    <path d="M38.6262 16.1017C38.6262 18.121 37.202 20.12 34.5284 21.6644C31.8786 23.1951 28.1581 24.1706 23.9998 24.1706C19.8416 24.1706 16.1211 23.1951 13.4712 21.6644C10.7977 20.12 9.37351 18.121 9.37351 16.1017C9.37351 14.0824 10.7977 12.0835 13.4712 10.5391C16.1211 9.00834 19.8416 8.03281 23.9998 8.03281C28.1581 8.03281 31.8786 9.00834 34.5284 10.5391C37.202 12.0835 38.6262 14.0824 38.6262 16.1017Z"
          stroke="#119E8F" stroke-width="1.8"/>
    <circle cx="9.2898" cy="16.1018" r="2.09742" fill="url(#paint2_linear_13999_497032)"/>
    <circle cx="24.0025" cy="24.7048" r="2.09742" fill="url(#paint3_linear_13999_497032)"/>
    <circle cx="24.0025" cy="7.49854" r="2.09742" fill="url(#paint4_linear_13999_497032)"/>
    <circle cx="38.7106" cy="16.1018" r="2.09742" fill="url(#paint5_linear_13999_497032)"/>
    <defs>
        <linearGradient id="paint0_linear_13999_497032" x1="24.0026" y1="42.6012" x2="24.0026" y2="31.7636"
                        gradientUnits="userSpaceOnUse">
            <stop stop-color="#16D2BF"/>
            <stop offset="1" stop-color="white"/>
        </linearGradient>
        <linearGradient id="paint1_linear_13999_497032" x1="24.0031" y1="35.3229" x2="24.0031" y2="24.4853"
                        gradientUnits="userSpaceOnUse">
            <stop stop-color="#16D2BF"/>
            <stop offset="1" stop-color="white"/>
        </linearGradient>
        <linearGradient id="paint2_linear_13999_497032" x1="8.00662" y1="15.2183" x2="8.00662" y2="18.1992"
                        gradientUnits="userSpaceOnUse">
            <stop stop-color="#36D6C4"/>
            <stop offset="1" stop-color="#15BEAC"/>
        </linearGradient>
        <linearGradient id="paint3_linear_13999_497032" x1="22.7193" y1="23.8213" x2="22.7193" y2="26.8023"
                        gradientUnits="userSpaceOnUse">
            <stop stop-color="#36D6C4"/>
            <stop offset="1" stop-color="#15BEAC"/>
        </linearGradient>
        <linearGradient id="paint4_linear_13999_497032" x1="22.7193" y1="6.61501" x2="22.7193" y2="9.59596"
                        gradientUnits="userSpaceOnUse">
            <stop stop-color="#36D6C4"/>
            <stop offset="1" stop-color="#15BEAC"/>
        </linearGradient>
        <linearGradient id="paint5_linear_13999_497032" x1="37.4274" y1="15.2183" x2="37.4274" y2="18.1992"
                        gradientUnits="userSpaceOnUse">
            <stop stop-color="#36D6C4"/>
            <stop offset="1" stop-color="#15BEAC"/>
        </linearGradient>
    </defs>
</svg>
