<svg width="48" height="48" viewBox="0 0 48 48" fill="none" xmlns="http://www.w3.org/2000/svg">
    <ellipse cx="24" cy="25.7531" rx="15.2093" ry="8.96891" stroke="#A5EAE3" stroke-width="0.6"
             stroke-dasharray="1.8 1.8"/>
    <path d="M24.0013 8.08398L24.0016 40.275" stroke="#A5EAE3" stroke-width="0.6" stroke-dasharray="1.8 1.8"/>
    <ellipse cx="24" cy="33.1955" rx="15.2093" ry="8.96891" stroke="#A5EAE3" stroke-width="0.6"
             stroke-dasharray="1.8 1.8"/>
    <mask id="path-4-inside-1_14176_514100" fill="white">
        <path fill-rule="evenodd" clip-rule="evenodd"
              d="M39.2691 31.989C39.1018 31.4669 38.3724 31.5639 38.1438 32.0623C36.3874 35.8913 30.7214 38.6947 24.0028 38.6947C17.2839 38.6947 11.6176 35.891 9.86156 32.0617C9.63301 31.5633 8.90356 31.4662 8.73621 31.9883C8.56546 32.521 8.47621 33.0702 8.47621 33.6315C8.47621 38.5849 15.4276 42.6004 24.0025 42.6004C32.5775 42.6004 39.5289 38.5849 39.5289 33.6315C39.5289 33.0705 39.4397 32.5215 39.2691 31.989Z"/>
    </mask>
    <path fill-rule="evenodd" clip-rule="evenodd"
          d="M39.2691 31.989C39.1018 31.4669 38.3724 31.5639 38.1438 32.0623C36.3874 35.8913 30.7214 38.6947 24.0028 38.6947C17.2839 38.6947 11.6176 35.891 9.86156 32.0617C9.63301 31.5633 8.90356 31.4662 8.73621 31.9883C8.56546 32.521 8.47621 33.0702 8.47621 33.6315C8.47621 38.5849 15.4276 42.6004 24.0025 42.6004C32.5775 42.6004 39.5289 38.5849 39.5289 33.6315C39.5289 33.0705 39.4397 32.5215 39.2691 31.989Z"
          fill="url(#paint0_linear_14176_514100)"/>
    <path d="M38.1438 32.0623L37.0531 31.562L38.1438 32.0623ZM39.2691 31.989L38.1263 32.3552L39.2691 31.989ZM37.0531 31.562C36.3287 33.1411 34.7323 34.6285 32.418 35.731C30.1191 36.8262 27.2018 37.4947 24.0028 37.4947V39.8947C27.5224 39.8947 30.7974 39.1615 33.4502 37.8977C36.0877 36.6413 38.2025 34.8125 39.2345 32.5626L37.0531 31.562ZM24.0028 37.4947C20.8036 37.4947 17.8862 36.8261 15.5872 35.7309C13.2729 34.6283 11.6765 33.1407 10.9523 31.5615L8.77078 32.5619C9.80261 34.812 11.9174 36.6409 14.555 37.8975C17.2079 39.1614 20.4831 39.8947 24.0028 39.8947V37.4947ZM9.67621 33.6315C9.67621 33.1992 9.74471 32.7734 9.87894 32.3546L7.59347 31.622C7.38622 32.2686 7.27621 32.9413 7.27621 33.6315H9.67621ZM24.0025 41.4004C19.8874 41.4004 16.2206 40.4343 13.624 38.9344C10.9959 37.4162 9.67621 35.4983 9.67621 33.6315H7.27621C7.27621 36.7181 9.43225 39.2846 12.4235 41.0126C15.4464 42.7587 19.5428 43.8004 24.0025 43.8004V41.4004ZM38.3289 33.6315C38.3289 35.4983 37.0092 37.4162 34.3811 38.9344C31.7845 40.4343 28.1177 41.4004 24.0025 41.4004V43.8004C28.4623 43.8004 32.5587 42.7587 35.5816 41.0126C38.5728 39.2846 40.7289 36.7181 40.7289 33.6315H38.3289ZM38.1263 32.3552C38.2604 32.7738 38.3289 33.1994 38.3289 33.6315H40.7289C40.7289 32.9416 40.619 32.2692 40.4119 31.6229L38.1263 32.3552ZM10.9523 31.5615C10.649 30.9 10.0209 30.5057 9.38576 30.4473C8.69894 30.3842 7.87913 30.7308 7.59347 31.622L9.87894 32.3546C9.83498 32.4917 9.72965 32.6427 9.56183 32.742C9.40787 32.8332 9.26173 32.8461 9.16612 32.8373C8.99469 32.8215 8.84559 32.725 8.77078 32.5619L10.9523 31.5615ZM39.2345 32.5626C39.1597 32.7257 39.0106 32.8222 38.8391 32.8379C38.7435 32.8467 38.5974 32.8338 38.4434 32.7426C38.2756 32.6433 38.1703 32.4923 38.1263 32.3552L40.4119 31.6229C40.1264 30.7316 39.3066 30.3849 38.6198 30.448C37.9846 30.5063 37.3565 30.9005 37.0531 31.562L39.2345 32.5626Z"
          fill="#119E8F" mask="url(#path-4-inside-1_14176_514100)"/>
    <mask id="path-6-inside-2_14176_514100" fill="white">
        <path fill-rule="evenodd" clip-rule="evenodd"
              d="M39.2694 24.7101C39.1021 24.188 38.3727 24.2851 38.1441 24.7834C36.3879 28.6126 30.7217 31.416 24.003 31.416C17.2843 31.416 11.6181 28.6126 9.8619 24.7833C9.63334 24.2849 8.9039 24.1879 8.73656 24.71C8.56586 25.2426 8.47664 25.7918 8.47664 26.353C8.47664 31.3064 15.428 35.3219 24.003 35.3219C32.5779 35.3219 39.5293 31.3064 39.5293 26.353C39.5293 25.7918 39.4401 25.2427 39.2694 24.7101Z"/>
    </mask>
    <path fill-rule="evenodd" clip-rule="evenodd"
          d="M39.2694 24.7101C39.1021 24.188 38.3727 24.2851 38.1441 24.7834C36.3879 28.6126 30.7217 31.416 24.003 31.416C17.2843 31.416 11.6181 28.6126 9.8619 24.7833C9.63334 24.2849 8.9039 24.1879 8.73656 24.71C8.56586 25.2426 8.47664 25.7918 8.47664 26.353C8.47664 31.3064 15.428 35.3219 24.003 35.3219C32.5779 35.3219 39.5293 31.3064 39.5293 26.353C39.5293 25.7918 39.4401 25.2427 39.2694 24.7101Z"
          fill="url(#paint1_linear_14176_514100)"/>
    <path d="M38.1441 24.7834L37.0533 24.2832L38.1441 24.7834ZM39.2694 24.7101L38.1267 25.0763L39.2694 24.7101ZM37.0533 24.2832C36.3291 25.8623 34.7327 27.3498 32.4184 28.4523C30.1194 29.5475 27.2021 30.216 24.003 30.216V32.616C27.5226 32.616 30.7977 31.8828 33.4506 30.619C36.0881 29.3625 38.2029 27.5337 39.2348 25.2837L37.0533 24.2832ZM24.003 30.216C20.8039 30.216 17.8866 29.5475 15.5876 28.4523C13.2733 27.3498 11.6769 25.8623 10.9527 24.2831L8.77114 25.2836C9.80306 27.5336 11.9179 29.3625 14.5554 30.619C17.2083 31.8828 20.4834 32.616 24.003 32.616V30.216ZM9.67664 26.353C9.67664 25.9207 9.74511 25.495 9.87931 25.0762L7.59382 24.3438C7.38661 24.9903 7.27664 25.6629 7.27664 26.353H9.67664ZM24.003 34.1219C19.8878 34.1219 16.221 33.1558 13.6244 31.6559C10.9963 30.1377 9.67664 28.2198 9.67664 26.353H7.27664C7.27664 29.4396 9.43268 32.0061 12.424 33.7341C15.4468 35.4802 19.5432 36.5219 24.003 36.5219V34.1219ZM38.3293 26.353C38.3293 28.2198 37.0097 30.1377 34.3815 31.6559C31.7849 33.1558 28.1182 34.1219 24.003 34.1219V36.5219C28.4628 36.5219 32.5592 35.4802 35.582 33.7341C38.5733 32.0061 40.7293 29.4396 40.7293 26.353H38.3293ZM38.1267 25.0763C38.2608 25.495 38.3293 25.9208 38.3293 26.353H40.7293C40.7293 25.6629 40.6194 24.9904 40.4122 24.3439L38.1267 25.0763ZM10.9527 24.2831C10.6493 23.6216 10.0212 23.2274 9.38603 23.169C8.69921 23.1059 7.87943 23.4526 7.59382 24.3438L9.87931 25.0762C9.83536 25.2134 9.73004 25.3643 9.56222 25.4637C9.40827 25.5548 9.26212 25.5677 9.16651 25.5589C8.99507 25.5432 8.84596 25.4467 8.77114 25.2836L10.9527 24.2831ZM39.2348 25.2837C39.16 25.4468 39.0109 25.5433 38.8395 25.5591C38.7439 25.5679 38.5977 25.555 38.4437 25.4638C38.2759 25.3644 38.1706 25.2135 38.1267 25.0763L40.4122 24.3439C40.1266 23.4527 39.3068 23.1061 38.62 23.1691C37.9849 23.2275 37.3567 23.6217 37.0533 24.2832L39.2348 25.2837Z"
          fill="#119E8F" mask="url(#path-6-inside-2_14176_514100)"/>
    <path d="M38.6262 16.1007C38.6262 18.12 37.202 20.119 34.5284 21.6634C31.8785 23.1941 28.1581 24.1697 23.9998 24.1697C19.8416 24.1697 16.1211 23.1941 13.4712 21.6634C10.7977 20.119 9.3735 18.12 9.3735 16.1007C9.3735 14.0815 10.7977 12.0825 13.4712 10.5381C16.1211 9.00736 19.8416 8.03184 23.9998 8.03184C28.1581 8.03184 31.8785 9.00736 34.5284 10.5381C37.202 12.0825 38.6262 14.0815 38.6262 16.1007Z"
          stroke="#119E8F" stroke-width="1.8"/>
    <circle cx="9.2898" cy="16.1008" r="2.09742" fill="url(#paint2_linear_14176_514100)"/>
    <circle cx="24.0025" cy="24.7039" r="2.09742" fill="url(#paint3_linear_14176_514100)"/>
    <circle cx="24.0025" cy="7.49757" r="2.09742" fill="url(#paint4_linear_14176_514100)"/>
    <circle cx="38.7106" cy="16.1008" r="2.09742" fill="url(#paint5_linear_14176_514100)"/>
    <defs>
        <linearGradient id="paint0_linear_14176_514100" x1="24.0026" y1="42.6002" x2="24.0026" y2="31.7626"
                        gradientUnits="userSpaceOnUse">
            <stop stop-color="#16D2BF"/>
            <stop offset="1" stop-color="white"/>
        </linearGradient>
        <linearGradient id="paint1_linear_14176_514100" x1="24.003" y1="35.3219" x2="24.003" y2="24.4843"
                        gradientUnits="userSpaceOnUse">
            <stop stop-color="#16D2BF"/>
            <stop offset="1" stop-color="white"/>
        </linearGradient>
        <linearGradient id="paint2_linear_14176_514100" x1="8.00662" y1="15.2173" x2="8.00662" y2="18.1983"
                        gradientUnits="userSpaceOnUse">
            <stop stop-color="#36D6C4"/>
            <stop offset="1" stop-color="#15BEAC"/>
        </linearGradient>
        <linearGradient id="paint3_linear_14176_514100" x1="22.7193" y1="23.8203" x2="22.7193" y2="26.8013"
                        gradientUnits="userSpaceOnUse">
            <stop stop-color="#36D6C4"/>
            <stop offset="1" stop-color="#15BEAC"/>
        </linearGradient>
        <linearGradient id="paint4_linear_14176_514100" x1="22.7193" y1="6.61403" x2="22.7193" y2="9.59499"
                        gradientUnits="userSpaceOnUse">
            <stop stop-color="#36D6C4"/>
            <stop offset="1" stop-color="#15BEAC"/>
        </linearGradient>
        <linearGradient id="paint5_linear_14176_514100" x1="37.4274" y1="15.2173" x2="37.4274" y2="18.1983"
                        gradientUnits="userSpaceOnUse">
            <stop stop-color="#36D6C4"/>
            <stop offset="1" stop-color="#15BEAC"/>
        </linearGradient>
    </defs>
</svg>
