<svg width="154" height="32" viewBox="0 0 154 32" fill="none" xmlns="http://www.w3.org/2000/svg">
    <path d="M24.4038 25.9464L17.3301 21.8611V30.0273L24.4038 25.9464Z" fill="#443D4E"/>
    <path d="M24.4038 6.0599L17.3301 1.97461V10.1409L24.4038 6.0599Z" fill="#00A971"/>
    <path d="M7.18165 16.001L13.8408 12.1575V0.000976562L0 7.99018V24.0118L13.8408 32.001V19.8444L7.18165 16.001Z"
          fill="#00A971"/>
    <path d="M13.8882 16.0009L27.7074 23.9815V8.02466L13.8882 16.0009Z" fill="#00A971"/>
    <path d="M116.66 1.31372H115.247C114.941 1.31372 114.682 1.56851 114.682 1.87944V8.45218H110.139V1.87944C110.139 1.57283 109.91 1.31372 109.573 1.31372H108.161C107.854 1.31372 107.595 1.56851 107.595 1.87944V17.6462C107.595 17.9529 107.85 18.212 108.161 18.212H109.573C109.905 18.212 110.139 17.9572 110.139 17.6462V10.9958H114.682V17.6462C114.682 17.9529 114.937 18.212 115.247 18.212H116.66C116.992 18.212 117.225 17.9572 117.225 17.6462V1.87944C117.225 1.57283 116.996 1.31372 116.66 1.31372Z"
          fill="#443D4E"/>
    <path d="M82.6084 16.2341C82.6084 15.9275 82.3536 15.6684 82.0427 15.6684H75.6643V11.0346H82.0427C82.3493 11.0346 82.6084 10.8014 82.6084 10.4689V9.05677C82.6084 8.75016 82.3536 8.49105 82.0427 8.49105H75.6643V3.85731H82.0383C82.345 3.85731 82.6041 3.62411 82.6041 3.29159V1.87944C82.6041 1.57283 82.3493 1.31372 82.0383 1.31372H75.0985H73.6864C73.3798 1.31372 73.1207 1.56851 73.1207 1.87944V17.6462C73.1207 17.9529 73.3755 18.212 73.6864 18.212H74.2996H82.0383C82.345 18.212 82.6041 17.9788 82.6041 17.6462V16.2341H82.6084Z"
          fill="#443D4E"/>
    <path d="M129.321 16.2341C129.321 15.9275 129.067 15.6684 128.756 15.6684H122.377V11.0346H128.756C129.062 11.0346 129.321 10.8014 129.321 10.4689V9.05677C129.321 8.75016 129.067 8.49105 128.756 8.49105H122.377V3.85731H128.751C129.058 3.85731 129.317 3.62411 129.317 3.29159V1.87944C129.317 1.57283 129.062 1.31372 128.751 1.31372H121.812H120.399C120.093 1.31372 119.834 1.56851 119.834 1.87944V17.6462C119.834 17.9529 120.089 18.212 120.399 18.212H121.013H128.751C129.058 18.212 129.317 17.9788 129.317 17.6462V16.2341H129.321Z"
          fill="#443D4E"/>
    <path d="M153.388 16.2341C153.388 15.9275 153.134 15.6684 152.823 15.6684H146.444V11.0346H152.823C153.129 11.0346 153.388 10.8014 153.388 10.4689V9.05677C153.388 8.75016 153.134 8.49105 152.823 8.49105H146.444V3.85731H152.818C153.125 3.85731 153.384 3.62411 153.384 3.29159V1.87944C153.384 1.57283 153.129 1.31372 152.818 1.31372H145.878H144.466C144.16 1.31372 143.901 1.56851 143.901 1.87944V17.6462C143.901 17.9529 144.155 18.212 144.466 18.212H145.08H152.818C153.125 18.212 153.384 17.9788 153.384 17.6462V16.2341H153.388Z"
          fill="#443D4E"/>
    <path d="M87.2249 5.56321V6.52624C87.2249 7.26038 87.9374 7.69223 88.7493 8.02475L92.1263 9.44553C93.396 10.0026 94.2813 10.9916 94.2813 12.516V14.3168C94.2813 15.8153 91.1331 18.3287 89.4575 18.3287C88.3174 18.3287 86.59 17.5168 85.247 16.7826C84.9404 16.6315 84.7374 16.2731 84.9188 15.8671L85.3506 15.0034C85.5277 14.6493 85.9077 14.5716 86.2402 14.7486C87.3328 15.3057 88.7795 15.9924 89.4618 15.9924C90.2219 15.9924 91.8241 14.6968 91.8241 13.9627V12.8442C91.8241 11.9805 91.1633 11.5011 90.2521 11.1427L87.1039 9.82124C85.8861 9.31166 84.7676 8.27091 84.7676 6.85012V5.20046C84.7676 3.5508 88.0929 1.16699 89.6907 1.16699C90.7574 1.16699 92.4805 1.95296 93.6249 2.56186C93.979 2.73892 94.0826 3.14486 93.9272 3.45147L93.5212 4.31517C93.396 4.61746 92.99 4.72111 92.6316 4.56996C91.7679 4.16402 90.3212 3.50329 89.6864 3.50329C88.9523 3.50329 87.2249 4.72111 87.2249 5.5589V5.56321Z"
          fill="#443D4E"/>
    <path d="M136.68 11.3801H134.292V17.6462C134.292 17.9788 134.059 18.212 133.7 18.212H132.34C132.033 18.212 131.748 17.9831 131.748 17.6462V2.49699C131.748 1.90535 132.444 1.31372 133.005 1.31372H137.112C138.986 1.31372 141.474 4.23734 141.474 6.16338C141.474 7.44597 140.347 9.37634 139.142 10.1234C140.118 10.6373 141.452 11.9977 141.452 13.2543V17.6462C141.452 17.9529 141.197 18.212 140.886 18.212H139.474C139.168 18.212 138.908 17.9572 138.908 17.6462V13.6387C138.908 12.7404 137.652 11.3801 136.676 11.3801H136.68ZM136.784 3.52479H134.292V9.17337H136.81C137.863 9.17337 139.094 7.29915 139.094 6.29726C139.094 5.29537 137.812 3.52479 136.784 3.52479Z"
          fill="#443D4E"/>
    <path d="M101.191 11.3801H98.8027V17.6462C98.8027 17.9788 98.5695 18.212 98.2111 18.212H96.8507C96.5441 18.212 96.2591 17.9831 96.2591 17.6462V2.49699C96.2591 1.90535 96.9544 1.31372 97.5158 1.31372H101.623C103.497 1.31372 105.868 4.32803 105.868 6.25407C105.868 7.53666 104.918 9.26406 103.816 10.2659C103.277 10.7583 102.417 11.3801 101.182 11.3801H101.191ZM101.294 3.52479H98.8027V9.17337H101.32C102.374 9.17337 103.458 7.29915 103.458 6.29726C103.458 5.29537 102.322 3.52479 101.294 3.52479Z"
          fill="#443D4E"/>
    <path d="M53.8818 18.3588C52.1933 18.3588 49.0278 16.2212 49.0278 14.3729V1.98744C49.0278 1.68082 49.3085 1.42603 49.6195 1.42603H50.9755C51.308 1.42603 51.5628 1.68082 51.5628 1.98744V14.0447C51.5628 14.9429 53.0915 16.0312 53.8861 16.0312C54.6807 16.0312 56.2181 14.8047 56.2181 13.9065V1.84925C56.2181 1.54263 56.447 1.28784 56.7579 1.28784H58.1614C58.4724 1.28784 58.7531 1.54263 58.7531 1.84925V14.2347C58.7531 16.0268 55.5747 18.3588 53.8861 18.3588H53.8818Z"
          fill="#443D4E"/>
    <path d="M68.5992 9.47998C69.7695 8.71129 70.9485 7.21278 70.9485 5.96905C70.9485 4.04301 68.3271 1.31372 66.4529 1.31372H62.4324C61.8667 1.31372 61.1757 1.90535 61.1757 2.49699V17.6462C61.1757 17.9788 61.4564 18.212 61.7674 18.212H66.5436C68.4178 18.212 70.9485 15.0595 70.9485 13.1334C70.9485 11.8897 69.7695 10.2616 68.5992 9.4843V9.47998ZM63.715 3.52479H66.1204C67.1482 3.52479 68.4308 4.99739 68.4308 5.97337C68.4308 6.94935 67.2 8.61197 66.1463 8.61197H63.715V3.52479ZM66.1204 16.0052H63.715V10.3566H66.1463C67.2 10.3566 68.4308 12.1315 68.4308 13.1334C68.4308 14.1353 67.1482 16.0052 66.1204 16.0052Z"
          fill="#443D4E"/>
    <path d="M41.1768 9.85569L46.7692 3.38228C46.9722 3.14908 46.9636 2.8036 46.7088 2.58767L45.6421 1.66352C45.4089 1.46055 45.0462 1.48646 44.8432 1.71966L39.9547 7.3812V1.87944C39.9547 1.57283 39.7258 1.31372 39.3889 1.31372H37.9768C37.6702 1.31372 37.4111 1.56851 37.4111 1.87944V17.6462C37.4111 17.9529 37.6659 18.212 37.9768 18.212H39.3889C39.7215 18.212 39.9547 17.9572 39.9547 17.6462V12.3302L44.8432 17.9917C45.0462 18.2249 45.4046 18.2508 45.6421 18.0479L46.7088 17.1237C46.9636 16.9035 46.9679 16.5623 46.7692 16.3291L41.1768 9.85569Z"
          fill="#443D4E"/>
    <path d="M37.6011 30.2261V22.8933H42.4032V23.7052H38.5123V26.0674H42.3255V26.8793H38.5123V29.4056H42.4032V30.2175H37.6011V30.2261Z"
          fill="#85818C"/>
    <path d="M55.1946 30.2261L50.9193 24.3789V30.2261H50.0081V22.8933H50.9409L55.1601 28.6196V22.8933H56.0713V30.2261H55.1903H55.1946Z"
          fill="#85818C"/>
    <path d="M65.7533 30.2259V23.7093H63.4343V22.8975H68.9965V23.7093H66.6645V30.2259H65.7533Z" fill="#85818C"/>
    <path d="M76.3552 30.2261V22.8933H81.1573V23.7052H77.2664V26.0674H81.0796V26.8793H77.2664V29.4056H81.1573V30.2175H76.3552V30.2261Z"
          fill="#85818C"/>
    <path d="M93.0073 30.2261L91.1503 27.3154H89.6777V30.2261H88.7665V22.8933H91.7117C93.0505 22.8933 94.0178 23.7527 94.0178 25.1044C94.0178 26.4561 93.1066 27.147 92.1047 27.2377L94.0826 30.2261H93.0073ZM93.0721 25.1044C93.0721 24.2666 92.4675 23.7095 91.5995 23.7095H89.6777V26.5122H91.5995C92.4675 26.5122 93.0721 25.9292 93.0721 25.1044Z"
          fill="#85818C"/>
    <path d="M101.61 30.2261V22.8933H104.555C106.028 22.8933 106.852 23.9038 106.852 25.1044C106.852 26.3049 106.019 27.3154 104.555 27.3154H102.521V30.2261H101.61ZM105.907 25.1044C105.907 24.2795 105.315 23.7095 104.443 23.7095H102.521V26.4992H104.443C105.311 26.4992 105.907 25.9292 105.907 25.1044Z"
          fill="#85818C"/>
    <path d="M118.456 30.2261L116.599 27.3154H115.127V30.2261H114.215V22.8933H117.161C118.499 22.8933 119.467 23.7527 119.467 25.1044C119.467 26.4561 118.555 27.147 117.554 27.2377L119.531 30.2261H118.456ZM118.521 25.1044C118.521 24.2666 117.916 23.7095 117.048 23.7095H115.127V26.5122H117.048C117.916 26.5122 118.521 25.9292 118.521 25.1044Z"
          fill="#85818C"/>
    <path d="M127.059 30.2261V22.8933H127.97V30.2261H127.059Z" fill="#85818C"/>
    <path d="M135.398 29.1939L135.946 28.49C136.417 29.0384 137.211 29.5437 138.243 29.5437C139.552 29.5437 139.971 28.8398 139.971 28.2697C139.971 26.3782 135.631 27.4319 135.631 24.8193C135.631 23.6101 136.706 22.7766 138.157 22.7766C139.267 22.7766 140.135 23.161 140.753 23.8087L140.204 24.4781C139.656 23.8606 138.887 23.5971 138.084 23.5971C137.216 23.5971 136.577 24.0722 136.577 24.7631C136.577 26.4128 140.917 25.467 140.917 28.2049C140.917 29.2587 140.191 30.3599 138.213 30.3599C136.948 30.3599 136.002 29.8762 135.398 29.1939Z"
          fill="#85818C"/>
    <path d="M148.431 30.2261V22.8933H153.233V23.7052H149.342V26.0674H153.155V26.8793H149.342V29.4056H153.233V30.2175H148.431V30.2261Z"
          fill="#85818C"/>
</svg>
