<svg width="240" height="200" viewBox="0 0 240 200" fill="none" xmlns="http://www.w3.org/2000/svg">
    <path opacity="0.5" fill-rule="evenodd" clip-rule="evenodd"
          d="M199.075 140.321L115.937 92.2036L40.8052 135.688L123.943 183.805L199.075 140.321ZM115.937 91.7656L40.0485 135.688L123.943 184.243L199.832 140.321L115.937 91.7656Z"
          fill="#14B09F"/>
    <path opacity="0.5" fill-rule="evenodd" clip-rule="evenodd"
          d="M159.026 136.92L75.8885 88.8027L0.756721 132.287L83.8945 180.405L159.026 136.92ZM75.8885 88.3647L-1.79113e-06 132.287L83.8945 180.842L159.783 136.92L75.8885 88.3647Z"
          fill="url(#paint0_linear_14028_4799)"/>
    <path opacity="0.5" fill-rule="evenodd" clip-rule="evenodd"
          d="M239.243 133.798L156.105 85.6802L80.9736 129.164L164.111 177.282L239.243 133.798ZM156.105 85.2422L80.2169 129.164L164.111 177.72L240 133.798L156.105 85.2422Z"
          fill="url(#paint1_linear_14028_4799)"/>
    <path d="M136.191 55.4609L227.029 108.377L123.725 168.393L33.123 115.198L136.191 55.4609Z"
          fill="url(#paint2_linear_14028_4799)"/>
    <path d="M124.969 172.284L226.507 113.229C226.833 113.04 227.015 112.784 227.015 112.516L227.015 108.342L124.883 167.367C124.196 167.764 123.08 167.762 122.396 167.363L33.1161 115.167L33.1161 119.304C33.1161 119.569 33.2963 119.824 33.6179 120.013L122.474 172.28C123.159 172.683 124.281 172.685 124.969 172.284Z"
          fill="url(#paint3_linear_14028_4799)"/>
    <path fill-rule="evenodd" clip-rule="evenodd"
          d="M201.434 104.211L135.445 66.1117L56.8697 111.478L122.859 149.577L201.434 104.211ZM135.445 64.8291L54.6483 111.478L122.859 150.86L203.655 104.211L135.445 64.8291Z"
          fill="white" fill-opacity="0.3"/>
    <path d="M133.317 75.4756L184.768 105.181L123.823 140.368L72.3736 110.676L133.317 75.4756Z"
          fill="url(#paint4_linear_14028_4799)"/>
    <path d="M131.2 81.2299L178.651 108.643L123.789 140.32L76.2962 112.915L131.2 81.2299Z"
          fill="url(#paint5_linear_14028_4799)"/>
    <g opacity="0.9">
        <rect width="58.1851" height="66.1332" transform="matrix(0.866022 0.500007 -0.866022 0.500007 128.631 61.9548)"
              fill="url(#paint6_linear_14028_4799)"/>
        <path d="M122.434 126.145L178.501 94.1164C178.833 93.9264 179.021 93.6674 179.021 93.3971L179.021 91.0475L121.818 123.93L71.3617 95.0201L71.3617 97.2871C71.3617 97.5576 71.5493 97.8168 71.8825 98.0069L121.201 126.145C121.543 126.34 122.092 126.34 122.434 126.145Z"
              fill="url(#paint7_linear_14028_4799)"/>
    </g>
    <g opacity="0.6">
        <path d="M68.8262 23L98.0745 94.3918L123.855 109.289L153.163 92.3666L177.244 23H68.8262Z"
              fill="url(#paint8_linear_14028_4799)" fill-opacity="0.4"/>
    </g>
    <rect x="-2.13239e-08" y="0.35776" width="42.3462" height="48.2284"
          transform="matrix(0.866022 0.500007 -0.866022 0.500007 128.306 70.5439)" stroke="white" stroke-opacity="0.1"
          stroke-width="0.71551"/>
    <rect width="29.7861" height="33.8549" transform="matrix(0.866022 0.500007 -0.866022 0.500007 127.356 77.3901)"
          fill="url(#paint9_linear_14028_4799)"/>
    <path d="M121.945 124.042L129.086 62.0605L71.4659 95.1169L121.945 124.042Z" fill="url(#paint10_linear_14028_4799)"
          fill-opacity="0.7"/>
    <rect width="43.7314" height="49.7051" transform="matrix(0.866022 0.500007 -0.866022 0.500007 127.247 33.4253)"
          fill="url(#paint11_linear_14028_4799)"/>
    <rect width="37.869" height="43.0419" transform="matrix(0.866022 0.500007 -0.866022 0.500007 125.971 36.6182)"
          fill="url(#paint12_linear_14028_4799)"/>
    <path fill-rule="evenodd" clip-rule="evenodd"
          d="M134.039 49.3471L139.727 52.6314L126.137 60.4779L132.718 60.4779L132.718 65.1227L120.651 65.1225L112.606 65.1225L112.606 60.4778L112.606 53.5108L120.65 53.5108L120.65 57.0768L134.039 49.3471Z"
          fill="url(#paint13_linear_14028_4799)" fill-opacity="0.8"/>
    <path d="M90.4752 59.1667L88.7112 58.1401L125.998 36.6182V39.0567L90.4752 59.1667Z"
          fill="url(#paint14_linear_14028_4799)"/>
    <path d="M157.101 56.5911L158.865 55.5646L126.057 36.6182V39.0632L157.101 56.5911Z"
          fill="url(#paint15_linear_14028_4799)"/>
    <path d="M122.824 81.9292L164.918 57.6132C165.082 57.5184 165.174 57.3897 165.174 57.2556L165.174 55.2608L122.202 80.1392L84.2817 58.2941L84.2817 60.0392C84.2817 60.1728 84.3732 60.301 84.5363 60.3958L121.582 81.9281C121.924 82.1269 122.481 82.1273 122.824 81.9292Z"
          fill="url(#paint16_linear_14028_4799)"/>
    <defs>
        <linearGradient id="paint0_linear_14028_4799" x1="2.7661" y1="131.128" x2="102.523" y2="125.323"
                        gradientUnits="userSpaceOnUse">
            <stop stop-color="#14B09F"/>
            <stop offset="1" stop-color="#14B09F" stop-opacity="0"/>
        </linearGradient>
        <linearGradient id="paint1_linear_14028_4799" x1="198.053" y1="109.52" x2="159.968" y2="175.322"
                        gradientUnits="userSpaceOnUse">
            <stop stop-color="#14B09F"/>
            <stop offset="1" stop-color="#14B09F" stop-opacity="0"/>
        </linearGradient>
        <linearGradient id="paint2_linear_14028_4799" x1="177.161" y1="78.023" x2="129.955" y2="168.935"
                        gradientUnits="userSpaceOnUse">
            <stop stop-color="#0AA796"/>
            <stop offset="1" stop-color="#46DFCD"/>
        </linearGradient>
        <linearGradient id="paint3_linear_14028_4799" x1="75.874" y1="145.878" x2="136.578" y2="34.0328"
                        gradientUnits="userSpaceOnUse">
            <stop stop-color="#119E8F"/>
            <stop offset="1" stop-color="#71E7DB"/>
        </linearGradient>
        <linearGradient id="paint4_linear_14028_4799" x1="160.748" y1="90.25" x2="117.818" y2="116.868"
                        gradientUnits="userSpaceOnUse">
            <stop stop-color="#16A091"/>
            <stop offset="1" stop-color="#4BECDB"/>
        </linearGradient>
        <linearGradient id="paint5_linear_14028_4799" x1="154.836" y1="94.8758" x2="127.429" y2="142.345"
                        gradientUnits="userSpaceOnUse">
            <stop stop-color="#C6F9F3"/>
            <stop offset="1" stop-color="#B0FFF6"/>
        </linearGradient>
        <linearGradient id="paint6_linear_14028_4799" x1="29.0926" y1="0" x2="29.0926" y2="66.1332"
                        gradientUnits="userSpaceOnUse">
            <stop stop-color="#242E42"/>
            <stop offset="1" stop-color="#404F68"/>
        </linearGradient>
        <linearGradient id="paint7_linear_14028_4799" x1="155.055" y1="77.2165" x2="125.227" y2="128.879"
                        gradientUnits="userSpaceOnUse">
            <stop stop-color="#36435A"/>
            <stop offset="1" stop-color="#5C7195"/>
        </linearGradient>
        <linearGradient id="paint8_linear_14028_4799" x1="120.322" y1="23.2594" x2="120.322" y2="109.289"
                        gradientUnits="userSpaceOnUse">
            <stop stop-color="#43DCCA" stop-opacity="0"/>
            <stop offset="1" stop-color="#43DCCA" stop-opacity="0.6"/>
        </linearGradient>
        <linearGradient id="paint9_linear_14028_4799" x1="14.8931" y1="0" x2="14.8931" y2="33.8549"
                        gradientUnits="userSpaceOnUse">
            <stop stop-color="#C6F8FF"/>
            <stop offset="1" stop-color="#DFF9F7"/>
        </linearGradient>
        <linearGradient id="paint10_linear_14028_4799" x1="124.319" y1="92.8598" x2="72.2547" y2="92.8598"
                        gradientUnits="userSpaceOnUse">
            <stop stop-color="white" stop-opacity="0.27"/>
            <stop offset="1" stop-color="white" stop-opacity="0"/>
        </linearGradient>
        <linearGradient id="paint11_linear_14028_4799" x1="18.8331" y1="-36.4711" x2="21.9762" y2="49.7011"
                        gradientUnits="userSpaceOnUse">
            <stop stop-color="#47E3D1"/>
            <stop offset="1" stop-color="#24D2BE"/>
        </linearGradient>
        <linearGradient id="paint12_linear_14028_4799" x1="18.7224" y1="-2.58945" x2="18.9355" y2="43.0419"
                        gradientUnits="userSpaceOnUse">
            <stop stop-color="#63F4E4"/>
            <stop offset="1" stop-color="#15B7A4"/>
        </linearGradient>
        <linearGradient id="paint13_linear_14028_4799" x1="136.984" y1="51.0476" x2="124.795" y2="72.1598"
                        gradientUnits="userSpaceOnUse">
            <stop stop-color="#57EBDA" stop-opacity="0.72"/>
            <stop offset="1" stop-color="#57EBDA" stop-opacity="0.86"/>
        </linearGradient>
        <linearGradient id="paint14_linear_14028_4799" x1="125.998" y1="37.1422" x2="67.4924" y2="71.3922"
                        gradientUnits="userSpaceOnUse">
            <stop stop-color="#32C7B6"/>
            <stop offset="1" stop-color="#98FFF3"/>
        </linearGradient>
        <linearGradient id="paint15_linear_14028_4799" x1="161.157" y1="59.0791" x2="116.102" y2="26.149"
                        gradientUnits="userSpaceOnUse">
            <stop stop-color="#0FCAB6"/>
            <stop offset="1" stop-color="#98FFF3"/>
        </linearGradient>
        <linearGradient id="paint16_linear_14028_4799" x1="147.283" y1="44.9597" x2="124.865" y2="83.7885"
                        gradientUnits="userSpaceOnUse">
            <stop stop-color="#A0FFE8"/>
            <stop offset="1" stop-color="#17B3A2"/>
        </linearGradient>
    </defs>
</svg>
