<svg width="446" height="239" viewBox="0 0 446 239" fill="none" xmlns="http://www.w3.org/2000/svg">
    <path d="M347.045 162.34L166.797 267.056C164.753 268.243 162.225 268.23 160.194 267.02L6.8643 175.715C4.01965 174.021 4.04192 169.895 6.90468 168.231L92.3026 118.619L100.526 113.842"
          stroke="#B6C3D7" stroke-opacity="0.2" stroke-width="2.17067"/>
    <path d="M152.23 180.964L296.201 266.696C298.233 267.905 300.76 267.919 302.804 266.731L458.986 175.997C461.849 174.334 461.871 170.207 459.027 168.513L391.737 128.444"
          stroke="#B6C3D7" stroke-opacity="0.2" stroke-width="2.17067"/>
    <path d="M358.597 166.309L232.083 239.807L104.605 166.309L231.119 92.8101L358.597 166.309Z"
          fill="url(#paint0_linear_13999_497055)"/>
    <path d="M358.62 166.308V186.32L232.107 259.819V239.806L358.62 166.308Z" fill="url(#paint1_linear_13999_497055)"/>
    <path d="M232.079 239.919V259.827L104.602 186.329V166.421L232.079 239.919Z"
          fill="url(#paint2_linear_13999_497055)"/>
    <path d="M403.896 223.484L375.487 239.988C375.403 240.037 375.299 240.037 375.215 239.989L346.578 223.477C346.397 223.373 346.396 223.112 346.577 223.008L374.986 206.503C375.07 206.454 375.173 206.454 375.258 206.503L403.895 223.014C404.076 223.118 404.076 223.379 403.896 223.484Z"
          fill="#EFF4F9" stroke="white" stroke-width="1.628"/>
    <path d="M397.618 213.997L375.321 226.95L352.854 213.997L375.151 201.044L397.618 213.997Z" fill="white"/>
    <path d="M397.617 203.287L375.321 216.24L352.854 203.287L375.151 190.333L397.617 203.287Z"
          fill="url(#paint3_linear_13999_497055)"/>
    <path d="M397.623 213.997V222.483L375.326 235.436V226.95L397.623 213.997Z" fill="url(#paint4_linear_13999_497055)"/>
    <path d="M397.623 203.286V211.772L375.326 224.726V216.24L397.623 203.286Z" fill="url(#paint5_linear_13999_497055)"/>
    <path d="M375.321 226.97V235.438L352.854 222.484V214.017L375.321 226.97Z" fill="url(#paint6_linear_13999_497055)"/>
    <path d="M375.321 216.26V224.727L352.854 211.774V203.306L375.321 216.26Z" fill="url(#paint7_linear_13999_497055)"/>
    <path d="M323.86 69.0394L309.077 77.6277C308.909 77.7253 308.702 77.7257 308.534 77.6286L293.625 69.0332C293.264 68.8248 293.263 68.3034 293.624 68.0938L308.407 59.5055C308.575 59.4079 308.782 59.4075 308.951 59.5046L323.859 68.1C324.22 68.3084 324.221 68.8298 323.86 69.0394Z"
          fill="#EFF4F9" stroke="white" stroke-width="1.08533"/>
    <path d="M321.148 63.4397L308.789 70.6202L296.335 63.4397L308.695 56.2593L321.148 63.4397Z" fill="white"/>
    <path d="M321.148 57.5022L308.788 64.6827L296.334 57.5022L308.694 50.3218L321.148 57.5022Z"
          fill="url(#paint8_linear_13999_497055)"/>
    <path d="M321.151 63.4395V68.1437L308.791 75.3241V70.6199L321.151 63.4395Z"
          fill="url(#paint9_linear_13999_497055)"/>
    <path d="M321.151 57.5024V62.2067L308.791 69.3871V64.6829L321.151 57.5024Z"
          fill="url(#paint10_linear_13999_497055)"/>
    <path d="M308.789 70.6309V75.3249L296.335 68.1444V63.4504L308.789 70.6309Z"
          fill="url(#paint11_linear_13999_497055)"/>
    <path d="M308.789 64.6941V69.3881L296.335 62.2076V57.5137L308.789 64.6941Z"
          fill="url(#paint12_linear_13999_497055)"/>
    <path d="M306.069 158.697C306.069 183.794 272.71 204.14 231.56 204.14C190.41 204.14 157.051 183.794 157.051 158.697C157.051 152.004 157.051 136.741 157.051 136.741C157.051 136.741 200.375 136.741 230.551 136.741C260.727 136.741 306.069 136.741 306.069 136.741C306.069 136.741 306.069 152.004 306.069 158.697Z"
          fill="url(#paint13_linear_13999_497055)"/>
    <ellipse cx="231.56" cy="138.243" rx="74.5087" ry="45.4433" fill="url(#paint14_linear_13999_497055)"/>
    <mask id="mask0_13999_497055" style="mask-type:alpha" maskUnits="userSpaceOnUse" x="157" y="92" width="150"
          height="92">
        <ellipse cx="231.56" cy="138.243" rx="74.5087" ry="45.4433" fill="url(#paint15_linear_13999_497055)"/>
    </mask>
    <g mask="url(#mask0_13999_497055)">
        <path fill-rule="evenodd" clip-rule="evenodd"
              d="M266.782 172.203C338.247 168.245 361.788 100.915 361.788 75.8171V53.8612C361.788 53.8612 304.14 106.002 264.618 106.002H175.981C175.981 106.002 175.207 107.551 174.152 109.879H229.349H292.026V128.102C292.026 148.932 264.339 165.818 230.186 165.818C196.817 165.818 169.621 149.698 168.39 129.529C169.502 154.01 196.812 176.079 266.782 172.203Z"
              fill="url(#paint16_linear_13999_497055)"/>
    </g>
    <path d="M292.031 132.426C292.031 153.256 264.344 170.142 230.191 170.142C196.038 170.142 168.351 153.256 168.351 132.426C168.351 126.871 168.351 114.203 168.351 114.203C168.351 114.203 204.309 114.203 229.354 114.203C254.399 114.203 292.031 114.203 292.031 114.203C292.031 114.203 292.031 126.871 292.031 132.426Z"
          fill="url(#paint17_linear_13999_497055)"/>
    <path d="M292.031 130.012C292.031 150.842 264.344 167.728 230.191 167.728C196.038 167.728 168.351 150.842 168.351 130.012C168.351 124.457 168.351 111.789 168.351 111.789C168.351 111.789 204.309 111.789 229.354 111.789C254.399 111.789 292.031 111.789 292.031 111.789C292.031 111.789 292.031 124.457 292.031 130.012Z"
          fill="url(#paint18_linear_13999_497055)"/>
    <ellipse cx="230.191" cy="115.451" rx="61.8398" ry="37.7164" fill="url(#paint19_linear_13999_497055)"/>
    <ellipse cx="231.559" cy="115.451" rx="51.6335" ry="31.4916" fill="#D9DFE6"/>
    <mask id="mask1_13999_497055" style="mask-type:alpha" maskUnits="userSpaceOnUse" x="179" y="83" width="105"
          height="64">
        <ellipse cx="231.559" cy="115.451" rx="51.6335" ry="31.4916" fill="#BAC7DA"/>
    </mask>
    <g mask="url(#mask1_13999_497055)">
        <path d="M281.532 116.958C281.532 134.223 259.351 146.943 231.99 146.943C204.628 146.943 182.447 134.223 182.447 116.958C182.447 99.693 204.628 89.6008 231.99 89.6008C259.351 89.6008 281.532 99.693 281.532 116.958Z"
              fill="url(#paint20_linear_13999_497055)"/>
    </g>
    <path d="M269.714 118.564V118.539C269.714 118.462 269.714 118.386 269.714 118.335C269.714 118.233 269.714 118.157 269.714 118.055C269.714 118.029 269.714 118.029 269.714 118.004C269.714 117.928 269.714 117.851 269.688 117.775C269.688 117.699 269.688 117.622 269.663 117.52C269.663 117.495 269.663 117.47 269.663 117.47C269.663 117.393 269.637 117.317 269.637 117.24C269.637 117.164 269.612 117.088 269.612 117.011C269.612 116.986 269.612 116.96 269.612 116.935C269.612 116.859 269.586 116.782 269.586 116.68C269.586 116.604 269.561 116.553 269.561 116.477C269.561 116.451 269.561 116.426 269.535 116.4C269.51 116.324 269.51 116.222 269.484 116.146C269.484 116.07 269.459 116.019 269.459 115.942C269.459 115.917 269.434 115.891 269.434 115.841C269.408 115.739 269.408 115.662 269.383 115.561C269.357 115.51 269.357 115.433 269.357 115.382C269.357 115.357 269.332 115.306 269.332 115.281C269.306 115.179 269.281 115.102 269.255 115.001C269.23 114.95 269.23 114.873 269.204 114.822C269.204 114.797 269.179 114.746 269.179 114.721C269.154 114.619 269.128 114.542 269.103 114.441C269.077 114.39 269.077 114.313 269.052 114.262C269.052 114.237 269.026 114.186 269.026 114.161C269.001 114.059 268.975 113.982 268.95 113.881C268.924 113.83 268.924 113.753 268.899 113.702C268.899 113.677 268.874 113.626 268.874 113.601C268.848 113.499 268.823 113.423 268.797 113.321C268.772 113.27 268.746 113.193 268.746 113.143C268.746 113.117 268.721 113.066 268.721 113.041C268.695 112.964 268.67 112.863 268.619 112.786C268.594 112.735 268.568 112.659 268.568 112.608C268.543 112.557 268.543 112.532 268.517 112.481C268.492 112.404 268.466 112.328 268.415 112.226C268.39 112.175 268.365 112.124 268.365 112.074C268.339 112.023 268.339 111.972 268.314 111.946C268.288 111.87 268.263 111.794 268.212 111.717C268.186 111.666 268.186 111.615 268.161 111.59C268.135 111.539 268.11 111.488 268.085 111.437C268.059 111.361 268.008 111.284 267.983 111.208C267.957 111.183 267.957 111.132 267.932 111.106C267.906 111.055 267.881 110.979 267.855 110.928C267.83 110.852 267.779 110.775 267.754 110.674C267.728 110.648 267.728 110.623 267.703 110.572C267.677 110.521 267.652 110.445 267.626 110.394C267.575 110.292 267.55 110.215 267.499 110.114C267.474 110.088 267.474 110.063 267.448 110.037C267.423 109.986 267.397 109.935 267.372 109.885C267.321 109.757 267.245 109.656 267.194 109.528C267.168 109.503 267.168 109.452 267.143 109.426C267.117 109.401 267.117 109.376 267.092 109.35C266.965 109.096 266.812 108.841 266.659 108.586V108.561C266.634 108.536 266.634 108.51 266.608 108.485C266.506 108.307 266.405 108.128 266.277 107.95C266.226 107.899 266.201 107.823 266.15 107.772C266.048 107.594 265.921 107.416 265.819 107.263C265.794 107.237 265.768 107.212 265.768 107.161C265.768 107.161 265.768 107.136 265.743 107.136C265.565 106.856 265.361 106.576 265.157 106.296C265.132 106.27 265.132 106.245 265.107 106.219C265.081 106.194 265.081 106.194 265.056 106.168C264.928 106.016 264.827 105.863 264.699 105.71C264.674 105.685 264.674 105.659 264.648 105.659C264.521 105.481 264.394 105.329 264.241 105.176C264.241 105.176 264.241 105.176 264.241 105.15C264.19 105.099 264.165 105.049 264.114 104.998C264.038 104.896 263.936 104.794 263.859 104.692L263.834 104.667C263.783 104.616 263.732 104.565 263.681 104.514C263.605 104.412 263.528 104.336 263.427 104.234L263.401 104.209C263.35 104.158 263.299 104.107 263.248 104.056C263.172 103.98 263.096 103.878 262.994 103.801C262.969 103.776 262.969 103.776 262.943 103.75C262.892 103.7 262.841 103.674 262.816 103.623C262.739 103.547 262.638 103.445 262.561 103.369C262.536 103.343 262.51 103.318 262.51 103.318C262.459 103.267 262.434 103.241 262.383 103.19C262.307 103.114 262.205 103.038 262.129 102.936C262.103 102.911 262.078 102.885 262.052 102.86C261.976 102.783 261.899 102.707 261.798 102.631C261.823 102.351 261.849 102.071 261.849 101.791V101.765C261.849 101.511 261.874 101.256 261.874 100.976C261.874 100.951 261.874 100.951 261.874 100.925C261.874 100.671 261.874 100.391 261.874 100.136C261.874 100.085 261.874 100.034 261.874 99.9834C261.874 99.8816 261.874 99.7798 261.849 99.6526C261.849 99.5253 261.849 99.398 261.823 99.2708C261.823 99.1689 261.798 99.0671 261.798 98.9908C261.798 98.889 261.772 98.7617 261.772 98.6599C261.772 98.5835 261.772 98.5072 261.747 98.4308C261.721 98.2781 261.721 98.0999 261.696 97.9472C261.696 97.8454 261.67 97.769 261.67 97.6672C261.67 97.6418 261.67 97.6163 261.67 97.5654C261.645 97.26 261.594 96.98 261.543 96.6746V96.6491C261.543 96.5982 261.518 96.5728 261.518 96.5219C261.467 96.2673 261.441 96.0383 261.39 95.7837C261.39 95.7328 261.365 95.7074 261.365 95.6565C261.34 95.5292 261.314 95.4274 261.289 95.3001C261.263 95.1474 261.238 95.0201 261.212 94.8674C261.187 94.7911 261.187 94.7147 261.161 94.6384C261.136 94.5111 261.11 94.3838 261.06 94.2566C261.034 94.1547 261.009 94.0529 260.983 93.9511C260.958 93.8239 260.932 93.722 260.881 93.5948C260.856 93.4675 260.805 93.3403 260.78 93.213C260.754 93.1621 260.754 93.0857 260.729 93.0348C260.678 92.8567 260.627 92.7039 260.576 92.5258C260.551 92.424 260.525 92.2967 260.474 92.1949C260.474 92.1694 260.449 92.144 260.449 92.0931C260.347 91.7876 260.271 91.4822 260.169 91.1768C260.169 91.1513 260.143 91.1259 260.143 91.1004C260.041 90.8204 259.965 90.5659 259.863 90.2859C259.838 90.235 259.838 90.2096 259.812 90.1587C259.787 90.0568 259.736 89.955 259.711 89.8532C259.66 89.7005 259.609 89.5732 259.558 89.4205C259.532 89.3187 259.481 89.2424 259.456 89.1405C259.405 89.0387 259.354 88.9115 259.329 88.8097C259.303 88.7333 259.252 88.6569 259.227 88.5551C259.151 88.4024 259.1 88.2242 259.023 88.0715C258.972 87.9952 258.947 87.8934 258.922 87.817C258.896 87.7915 258.896 87.7661 258.871 87.7152C258.743 87.4352 258.616 87.1552 258.489 86.8498C258.489 86.8498 258.489 86.8243 258.463 86.8243C258.438 86.748 258.387 86.6716 258.362 86.5953C258.26 86.3662 258.158 86.1371 258.031 85.9335C258.005 85.908 258.005 85.8571 257.98 85.8317C257.903 85.6535 257.802 85.4753 257.7 85.2972C257.623 85.1445 257.547 85.0172 257.471 84.8645C257.445 84.8136 257.42 84.7881 257.394 84.7372C257.343 84.6609 257.293 84.559 257.242 84.4827C257.114 84.2536 256.987 84.0245 256.86 83.77C256.809 83.6682 256.758 83.5918 256.707 83.49C256.682 83.4391 256.631 83.3628 256.605 83.3119C256.529 83.21 256.478 83.0828 256.402 82.981C256.3 82.8028 256.173 82.6246 256.071 82.421C255.969 82.2683 255.867 82.0901 255.765 81.9374C255.664 81.7592 255.536 81.5811 255.409 81.4029C255.358 81.352 255.333 81.2756 255.282 81.2247C255.18 81.0975 255.104 80.9447 255.002 80.8175C254.925 80.7157 254.875 80.6139 254.798 80.5375C254.595 80.2321 254.391 79.9521 254.162 79.6467C254.162 79.6467 254.162 79.6467 254.162 79.6212C253.933 79.2903 253.678 78.9594 253.424 78.654C253.424 78.6285 253.398 78.6285 253.398 78.6031C253.22 78.374 253.016 78.1449 252.838 77.9159C252.787 77.865 252.762 77.814 252.711 77.7631C252.482 77.4832 252.253 77.2286 252.024 76.9741C252.024 76.9487 251.998 76.9487 251.998 76.9487C251.922 76.8723 251.846 76.7959 251.795 76.7196C251.642 76.5669 251.515 76.3887 251.362 76.236C251.337 76.2105 251.311 76.1851 251.286 76.1596C251.184 76.0578 251.082 75.956 250.98 75.8542C250.878 75.7269 250.751 75.6251 250.649 75.4978C250.598 75.4469 250.573 75.4215 250.522 75.3706C250.42 75.2688 250.293 75.1415 250.191 75.0397C250.089 74.9379 250.013 74.8615 249.911 74.7597C249.86 74.7088 249.809 74.6579 249.759 74.607C249.631 74.5052 249.529 74.3779 249.402 74.2761C249.326 74.1998 249.224 74.1234 249.148 74.047C249.071 73.9961 249.02 73.9452 248.944 73.8689C248.817 73.7671 248.689 73.6652 248.588 73.5634C248.511 73.5125 248.435 73.4362 248.359 73.3598C248.282 73.2835 248.206 73.2325 248.13 73.1562C248.002 73.0544 247.9 72.9526 247.773 72.8762C247.722 72.8253 247.646 72.7744 247.595 72.7235C247.493 72.6471 247.391 72.5708 247.29 72.4944C247.188 72.4181 247.061 72.3162 246.959 72.2399C246.908 72.2144 246.857 72.1635 246.831 72.1381C246.704 72.0363 246.551 71.9345 246.424 71.8581C246.322 71.7817 246.246 71.7308 246.144 71.6545C246.119 71.629 246.093 71.629 246.068 71.6036C245.813 71.4254 245.559 71.2727 245.33 71.12C245.304 71.12 245.304 71.0945 245.279 71.0945C245.05 70.9418 244.821 70.8145 244.592 70.6873C244.541 70.6618 244.464 70.6109 244.413 70.5855C244.235 70.4836 244.057 70.3818 243.904 70.3055C243.879 70.3055 243.879 70.28 243.853 70.28C243.828 70.2546 243.803 70.2546 243.777 70.2291C243.573 70.1273 243.395 70.0255 243.192 69.9237C243.166 69.9237 243.141 69.8982 243.115 69.8982C243.115 69.8982 243.09 69.8982 243.09 69.8728C242.886 69.771 242.683 69.6692 242.479 69.5928C242.454 69.5928 242.428 69.5673 242.428 69.5673C242.403 69.5673 242.377 69.5419 242.352 69.5419C242.148 69.4401 241.919 69.3637 241.715 69.2874C241.512 69.211 241.283 69.1346 241.079 69.0583C241.054 69.0583 241.028 69.0328 241.003 69.0328C240.977 69.0328 240.977 69.0328 240.952 69.0074C240.748 68.931 240.545 68.8801 240.341 68.8038C240.316 68.8038 240.316 68.8038 240.29 68.7783C240.265 68.7783 240.239 68.7783 240.214 68.7529C240.01 68.7019 239.806 68.6256 239.603 68.5747H239.577C239.348 68.5238 239.145 68.4729 238.916 68.422C238.89 68.422 238.865 68.422 238.839 68.3965H238.814C238.585 68.3456 238.381 68.3202 238.152 68.2947C238.127 68.2947 238.101 68.2947 238.101 68.2947C238.076 68.2947 238.076 68.2947 238.05 68.2947C237.821 68.2692 237.592 68.2438 237.363 68.2183C237.338 68.2183 237.338 68.2183 237.312 68.2183C237.287 68.2183 237.261 68.2183 237.236 68.2183C237.159 68.2183 237.083 68.2183 237.007 68.2183C236.956 68.2183 236.879 68.2183 236.828 68.2183C236.752 68.2183 236.676 68.2183 236.599 68.2183C236.549 68.2183 236.523 68.2183 236.472 68.2183C236.447 68.2183 236.447 68.2183 236.421 68.2183C236.319 68.2183 236.218 68.2183 236.116 68.2183C236.065 68.2183 236.039 68.2183 235.989 68.2183C235.861 68.2183 235.709 68.2438 235.581 68.2438C235.556 68.2438 235.556 68.2438 235.53 68.2438C235.403 68.2692 235.25 68.2692 235.123 68.2947C235.072 68.2947 235.047 68.2947 234.996 68.3202C234.741 68.1929 234.614 68.1929 234.487 68.2183C234.461 68.2183 234.436 68.2183 234.41 68.2183H234.385C234.207 68.2438 234.003 68.2947 233.825 68.3456C233.8 68.3456 233.774 68.3711 233.723 68.3711C233.545 68.422 233.367 68.4729 233.189 68.5238C233.163 68.5238 233.163 68.5238 233.138 68.5492C233.112 68.5492 233.087 68.5747 233.061 68.5747C232.985 68.6001 232.909 68.6256 232.858 68.651C232.807 68.6765 232.756 68.6765 232.705 68.7019C232.629 68.7274 232.552 68.7529 232.502 68.8038C232.451 68.8292 232.425 68.8547 232.374 68.8547C232.298 68.8801 232.222 68.931 232.145 68.9565C232.12 68.9819 232.069 68.9819 232.043 69.0074C231.942 69.0583 231.814 69.1346 231.712 69.1855L227.895 71.3999C227.869 71.3745 227.844 71.349 227.818 71.3236C227.767 71.2727 227.716 71.2218 227.665 71.1709C227.64 71.1454 227.615 71.12 227.589 71.0945C227.513 71.0182 227.436 70.9418 227.36 70.8909C227.309 70.84 227.258 70.8145 227.233 70.7636L227.207 70.7382C227.08 70.6109 226.927 70.5091 226.8 70.3818C226.775 70.3564 226.775 70.3564 226.749 70.3309C226.622 70.2291 226.52 70.1273 226.393 70.0509C226.367 70.0255 226.342 70.0255 226.342 70C226.291 69.9746 226.24 69.9237 226.189 69.8982C226.113 69.8473 226.062 69.7964 225.986 69.7455C225.935 69.7201 225.909 69.6946 225.858 69.6437C225.807 69.6182 225.757 69.5673 225.706 69.5419C225.68 69.5164 225.629 69.491 225.604 69.4655C225.527 69.4146 225.426 69.3383 225.349 69.2874C225.324 69.2619 225.273 69.2365 225.247 69.211L225.222 69.1855C225.095 69.1092 224.967 69.0328 224.84 68.9565C224.815 68.9819 224.764 68.9819 224.738 68.9565C224.637 68.9056 224.535 68.8547 224.458 68.8038C224.433 68.7783 224.382 68.7783 224.357 68.7529C224.306 68.7274 224.255 68.7019 224.204 68.6765C224.153 68.651 224.128 68.6256 224.077 68.6256C224.026 68.6001 223.949 68.5747 223.898 68.5492C223.848 68.5238 223.822 68.4983 223.771 68.4983C223.746 68.4983 223.746 68.4729 223.72 68.4729C223.593 68.422 223.466 68.3711 223.364 68.3202C223.237 68.2692 223.109 68.2183 223.008 68.1929C222.982 68.1929 222.982 68.1929 222.957 68.1674C222.906 68.142 222.88 68.142 222.829 68.1165C222.779 68.0911 222.702 68.0656 222.651 68.0656C222.626 68.0656 222.6 68.0402 222.549 68.0402C222.499 68.0147 222.448 68.0147 222.397 67.9893C222.346 67.9893 222.32 67.9638 222.269 67.9638C222.219 67.9638 222.193 67.9384 222.142 67.9384C222.091 67.9384 222.04 67.9129 221.99 67.9129C221.964 67.9129 221.939 67.8875 221.913 67.8875C221.862 67.8875 221.811 67.862 221.76 67.862C221.71 67.862 221.633 67.8366 221.582 67.8366C221.557 67.8366 221.531 67.8366 221.506 67.8366C221.455 67.8366 221.404 67.8366 221.353 67.8111C221.277 67.8111 221.226 67.7856 221.15 67.7856C221.124 67.7856 221.099 67.7856 221.099 67.7856C221.048 67.7856 221.022 67.7856 220.971 67.7856C220.895 67.7856 220.819 67.7856 220.742 67.7856C220.717 67.7856 220.691 67.7856 220.666 67.7856C220.641 67.7856 220.59 67.7856 220.564 67.7856C220.462 67.7856 220.361 67.7856 220.284 67.8111C220.259 67.8111 220.233 67.8111 220.208 67.8111C220.182 67.8111 220.157 67.8111 220.157 67.8111C220.004 67.8366 219.877 67.8366 219.724 67.862H219.699C219.673 67.862 219.648 67.8875 219.622 67.8875C219.546 67.9129 219.444 67.9384 219.368 67.9638C219.317 67.9638 219.292 67.9893 219.241 68.0147C219.19 68.0402 219.139 68.0402 219.088 68.0656C219.062 68.0656 219.062 68.0656 219.037 68.0911C218.961 68.1165 218.884 68.1674 218.808 68.1929C218.757 68.2183 218.732 68.2183 218.681 68.2438C218.553 68.2947 218.452 68.3456 218.35 68.422L203.893 76.6687C203.994 76.5923 204.122 76.5414 204.223 76.4905C204.249 76.4651 204.3 76.465 204.351 76.4396C204.427 76.4141 204.503 76.3632 204.58 76.3378C204.656 76.3123 204.707 76.2869 204.783 76.2614C204.834 76.236 204.86 76.236 204.911 76.2105C204.987 76.1851 205.089 76.1596 205.165 76.1596C205.191 76.1596 205.216 76.1342 205.242 76.1342C205.267 76.1342 205.267 76.1342 205.292 76.1342C205.42 76.1087 205.572 76.0833 205.725 76.0833C205.776 76.0833 205.827 76.0833 205.878 76.0578C205.98 76.0578 206.056 76.0578 206.158 76.0324C206.209 76.0324 206.26 76.0324 206.311 76.0324C206.387 76.0324 206.463 76.0324 206.54 76.0324C206.591 76.0324 206.667 76.0324 206.718 76.0324C206.794 76.0324 206.845 76.0578 206.921 76.0578C206.998 76.0578 207.074 76.0833 207.125 76.0833C207.176 76.0833 207.252 76.1087 207.303 76.1087C207.38 76.1342 207.456 76.1342 207.532 76.1596C207.583 76.1596 207.634 76.1851 207.685 76.1851C207.761 76.2105 207.863 76.236 207.94 76.236C207.99 76.2614 208.041 76.2614 208.092 76.2869C208.194 76.3123 208.27 76.3378 208.372 76.3632C208.423 76.3887 208.449 76.3887 208.5 76.4141C208.78 76.516 209.059 76.6178 209.339 76.745C209.39 76.7705 209.416 76.7959 209.467 76.7959C209.569 76.8468 209.67 76.8977 209.772 76.9487C209.823 76.9741 209.874 76.9996 209.925 77.025C210.052 77.1014 210.179 77.1777 210.332 77.2541C210.51 77.3559 210.663 77.4577 210.841 77.5595C210.867 77.585 210.918 77.6104 210.943 77.6359C211.07 77.7122 211.198 77.7886 211.325 77.8904C211.376 77.9159 211.427 77.9668 211.478 77.9922C211.579 78.0686 211.707 78.1449 211.808 78.2467C211.859 78.2722 211.91 78.3231 211.961 78.3486C212.088 78.4504 212.241 78.5776 212.368 78.6794C212.394 78.7049 212.394 78.7049 212.419 78.7303C212.572 78.8576 212.725 78.9849 212.877 79.1376C212.928 79.1885 212.979 79.214 213.005 79.2649C213.106 79.3667 213.208 79.4685 213.31 79.5703C213.361 79.6212 213.412 79.6721 213.463 79.723C213.565 79.8248 213.641 79.9266 213.743 80.003C213.794 80.0539 213.845 80.1048 213.896 80.1557C214.023 80.283 214.15 80.4357 214.277 80.5884L221.48 76.3887C221.506 76.3887 221.531 76.3887 221.557 76.3887C221.659 76.3887 221.76 76.3887 221.862 76.3887C221.913 76.3887 221.99 76.3887 222.04 76.3887C222.117 76.3887 222.193 76.3887 222.269 76.3887C222.32 76.3887 222.397 76.3887 222.448 76.3887C222.524 76.3887 222.6 76.3887 222.677 76.3887C222.728 76.3887 222.779 76.3887 222.804 76.3887C223.033 76.4141 223.262 76.4396 223.491 76.4651C223.517 76.4651 223.568 76.4651 223.593 76.4905C223.822 76.516 224.026 76.5669 224.255 76.5923C224.28 76.5923 224.331 76.6178 224.357 76.6178C224.586 76.6687 224.789 76.7196 225.018 76.7705H225.044C225.247 76.8214 225.451 76.8723 225.655 76.9487C225.68 76.9487 225.731 76.9741 225.757 76.9741C225.96 77.025 226.164 77.1014 226.367 77.1777C226.418 77.2032 226.444 77.2032 226.495 77.2286C226.698 77.305 226.902 77.3814 227.131 77.4577C227.335 77.5341 227.538 77.6359 227.767 77.7122C227.818 77.7377 227.869 77.7631 227.895 77.7631C228.098 77.865 228.302 77.9413 228.505 78.0431C228.531 78.0686 228.582 78.0686 228.607 78.094C228.785 78.1958 228.989 78.2977 229.193 78.3995C229.244 78.4249 229.269 78.4504 229.32 78.4758C229.498 78.5776 229.651 78.654 229.829 78.7558C230.109 78.934 230.414 79.0867 230.694 79.2649C230.72 79.2649 230.72 79.2903 230.745 79.2903C231.025 79.4685 231.305 79.6467 231.56 79.8503C231.662 79.9266 231.738 79.9775 231.84 80.0539C232.018 80.1812 232.196 80.3084 232.374 80.4611C232.476 80.5375 232.603 80.6393 232.705 80.7157C232.858 80.8429 233.036 80.9702 233.189 81.0975C233.316 81.1993 233.418 81.3011 233.545 81.3774C233.698 81.5047 233.851 81.632 234.003 81.7592C234.131 81.861 234.258 81.9629 234.36 82.0647C234.512 82.1919 234.665 82.3446 234.818 82.4719C234.945 82.5737 235.047 82.701 235.174 82.8028C235.327 82.9555 235.479 83.0828 235.632 83.2355C235.734 83.3373 235.861 83.4646 235.963 83.5664C236.116 83.7191 236.269 83.8718 236.421 84.05C236.523 84.1518 236.625 84.2536 236.727 84.3554C236.905 84.5336 237.083 84.7372 237.261 84.9408C237.338 85.0172 237.414 85.0935 237.465 85.1699C237.719 85.4499 237.948 85.7299 238.177 86.0099C238.228 86.0608 238.254 86.1117 238.305 86.1626C238.508 86.3916 238.712 86.6462 238.89 86.9007C239.145 87.2316 239.374 87.537 239.628 87.8679C239.628 87.8679 239.628 87.8679 239.654 87.8934C239.857 88.1733 240.086 88.4788 240.29 88.7842C240.366 88.886 240.417 88.9624 240.494 89.0642C240.621 89.2678 240.774 89.446 240.901 89.6496C241.028 89.8278 241.13 90.0059 241.257 90.1841C241.359 90.3368 241.461 90.515 241.563 90.6677C241.665 90.8459 241.792 91.0241 241.894 91.2277C241.995 91.4058 242.097 91.584 242.199 91.7622C242.25 91.864 242.301 91.9404 242.352 92.0422C242.479 92.2712 242.606 92.5003 242.734 92.7548C242.784 92.8312 242.835 92.933 242.861 93.0094C242.963 93.1875 243.064 93.3657 243.141 93.5439C243.243 93.722 243.319 93.9002 243.421 94.0784C243.548 94.3329 243.675 94.5874 243.803 94.842C243.828 94.9183 243.879 94.9947 243.904 95.071C244.057 95.4019 244.21 95.7328 244.337 96.0383C244.388 96.1146 244.413 96.2164 244.439 96.2928C244.541 96.5219 244.643 96.7764 244.744 97.0309C244.795 97.1327 244.846 97.26 244.872 97.3618C244.973 97.5909 245.05 97.82 245.152 98.0745C245.177 98.1763 245.228 98.2781 245.253 98.3799C245.355 98.6853 245.482 98.9908 245.584 99.3217C245.584 99.3471 245.61 99.3726 245.61 99.398C245.712 99.7289 245.839 100.085 245.941 100.416C245.966 100.518 246.017 100.645 246.042 100.747C246.119 100.976 246.17 101.205 246.246 101.434C246.271 101.562 246.322 101.689 246.348 101.816C246.399 102.045 246.45 102.249 246.501 102.478C246.526 102.605 246.551 102.732 246.602 102.86C246.653 103.089 246.704 103.318 246.755 103.521C246.781 103.649 246.806 103.75 246.831 103.878C246.882 104.183 246.933 104.463 246.984 104.743C246.984 104.794 247.01 104.819 247.01 104.87C247.061 105.201 247.111 105.532 247.137 105.863C247.137 105.965 247.162 106.041 247.162 106.143C247.188 106.372 247.213 106.627 247.239 106.856C247.239 106.958 247.264 107.085 247.264 107.187C247.29 107.416 247.29 107.645 247.315 107.848C247.315 107.95 247.315 108.052 247.34 108.179C247.34 108.485 247.366 108.816 247.366 109.121C247.366 109.401 247.366 109.681 247.34 109.935V109.961C247.34 110.241 247.315 110.521 247.29 110.801C247.391 110.903 247.519 111.005 247.62 111.106C247.697 111.183 247.799 111.259 247.875 111.361C247.926 111.412 248.002 111.488 248.053 111.539C248.13 111.615 248.231 111.717 248.308 111.794C248.359 111.844 248.435 111.921 248.486 111.972C248.562 112.048 248.639 112.15 248.74 112.226C248.791 112.277 248.868 112.354 248.919 112.404C248.995 112.481 249.071 112.583 249.173 112.684C249.224 112.735 249.275 112.812 249.326 112.863C249.402 112.964 249.504 113.066 249.58 113.168C249.631 113.219 249.682 113.27 249.733 113.346C249.86 113.499 250.013 113.677 250.14 113.83C250.166 113.855 250.166 113.881 250.191 113.906C250.318 114.059 250.42 114.212 250.548 114.364C250.573 114.415 250.598 114.441 250.649 114.492C250.853 114.772 251.057 115.051 251.235 115.331C251.26 115.357 251.286 115.408 251.311 115.433C251.413 115.611 251.54 115.764 251.642 115.942C251.693 115.993 251.718 116.07 251.769 116.121C251.871 116.299 251.998 116.477 252.1 116.655C252.126 116.68 252.151 116.731 252.177 116.757C252.329 117.011 252.457 117.266 252.609 117.52C252.635 117.597 252.686 117.648 252.711 117.724C252.762 117.851 252.838 117.953 252.889 118.08C252.94 118.157 252.966 118.233 253.016 118.309C253.067 118.411 253.118 118.488 253.144 118.589C253.195 118.691 253.22 118.768 253.271 118.869C253.296 118.946 253.347 119.022 253.373 119.124C253.424 119.226 253.449 119.328 253.5 119.429C253.526 119.506 253.576 119.582 253.602 119.658C253.653 119.76 253.678 119.862 253.729 119.964C253.755 120.04 253.806 120.117 253.831 120.193C253.882 120.295 253.907 120.397 253.958 120.498C253.984 120.575 254.009 120.651 254.06 120.753C254.085 120.855 254.136 120.957 254.162 121.058C254.187 121.135 254.213 121.237 254.264 121.313C254.289 121.415 254.34 121.517 254.365 121.593C254.391 121.695 254.416 121.771 254.442 121.873C254.467 121.975 254.493 122.051 254.518 122.153C254.544 122.255 254.569 122.331 254.595 122.433C254.62 122.535 254.645 122.611 254.671 122.713C254.696 122.815 254.722 122.891 254.747 122.993C254.773 123.095 254.798 123.171 254.824 123.273C254.849 123.375 254.875 123.451 254.9 123.553C254.925 123.655 254.951 123.731 254.951 123.833C254.976 123.935 254.976 124.011 255.002 124.113C255.027 124.215 255.027 124.291 255.053 124.393C255.078 124.469 255.078 124.571 255.104 124.647C255.129 124.749 255.129 124.851 255.155 124.953C255.155 125.029 255.18 125.131 255.18 125.207C255.205 125.309 255.205 125.411 255.205 125.513C255.205 125.589 255.231 125.665 255.231 125.742C255.231 125.843 255.256 125.945 255.256 126.047C255.256 126.123 255.282 126.2 255.282 126.276C255.282 126.378 255.282 126.48 255.307 126.582C255.307 126.658 255.307 126.734 255.307 126.785C255.307 126.963 255.307 127.116 255.307 127.294C255.307 127.498 255.307 127.676 255.282 127.88C255.282 127.931 255.282 127.982 255.282 128.032C255.282 128.16 255.256 128.287 255.256 128.414C255.256 128.491 255.231 128.567 255.231 128.643C255.231 128.745 255.205 128.847 255.18 128.974C255.18 129.051 255.155 129.127 255.155 129.203C255.129 129.305 255.129 129.407 255.104 129.483C255.078 129.56 255.078 129.661 255.053 129.738C255.027 129.814 255.027 129.916 255.002 129.992C254.976 130.094 254.951 130.196 254.925 130.272C254.9 130.349 254.875 130.425 254.849 130.501C254.824 130.629 254.773 130.73 254.747 130.832C254.722 130.883 254.696 130.959 254.696 131.01C254.62 131.189 254.544 131.367 254.467 131.545C254.416 131.672 254.34 131.799 254.264 131.927C254.187 132.054 254.111 132.181 254.035 132.308C254.009 132.334 254.009 132.359 253.984 132.385C253.933 132.487 253.856 132.563 253.806 132.639C253.78 132.665 253.755 132.716 253.729 132.741C253.678 132.818 253.602 132.894 253.551 132.97C253.526 132.996 253.5 133.021 253.475 133.047C253.398 133.148 253.296 133.225 253.22 133.327C253.195 133.327 253.195 133.352 253.169 133.352C253.093 133.428 253.016 133.505 252.915 133.581C252.889 133.607 252.864 133.632 252.813 133.657C252.736 133.708 252.66 133.759 252.584 133.836C252.558 133.861 252.533 133.887 252.482 133.912C252.38 133.988 252.278 134.039 252.177 134.116L266.532 125.767C266.634 125.716 266.736 125.64 266.837 125.564C266.863 125.538 266.888 125.513 266.939 125.487C267.016 125.436 267.092 125.385 267.168 125.309C267.194 125.284 267.219 125.258 267.27 125.233C267.346 125.156 267.423 125.08 267.525 125.004C267.55 125.004 267.55 124.978 267.575 124.978C267.677 124.902 267.754 124.8 267.83 124.698C267.855 124.673 267.881 124.647 267.906 124.622C267.957 124.545 268.034 124.469 268.085 124.393C268.11 124.367 268.135 124.316 268.161 124.291C268.212 124.215 268.288 124.113 268.339 124.036C268.365 124.011 268.365 123.985 268.39 123.96C268.39 123.96 268.39 123.935 268.415 123.935C268.568 123.705 268.695 123.451 268.823 123.196C268.823 123.196 268.823 123.196 268.823 123.171C268.899 122.993 268.975 122.815 269.052 122.636C269.052 122.611 269.077 122.611 269.077 122.586C269.103 122.535 269.103 122.484 269.128 122.458C269.179 122.356 269.204 122.229 269.23 122.127C269.23 122.102 269.255 122.076 269.255 122.026C269.255 121.975 269.281 121.924 269.281 121.898C269.306 121.796 269.332 121.695 269.357 121.618C269.357 121.567 269.383 121.542 269.383 121.491C269.383 121.44 269.408 121.389 269.408 121.364C269.434 121.287 269.434 121.186 269.459 121.109C269.459 121.058 269.484 121.033 269.484 120.982C269.484 120.931 269.51 120.88 269.51 120.829C269.51 120.753 269.535 120.677 269.535 120.6C269.535 120.549 269.535 120.524 269.561 120.473C269.561 120.397 269.586 120.346 269.586 120.269C269.586 120.193 269.612 120.117 269.612 120.04C269.612 120.015 269.612 119.989 269.612 119.964C269.612 119.862 269.637 119.76 269.637 119.658C269.637 119.608 269.637 119.557 269.637 119.506C269.637 119.48 269.637 119.48 269.637 119.455C269.637 119.277 269.637 119.124 269.637 118.946V118.92C269.739 118.869 269.714 118.717 269.714 118.564Z"
          fill="#14BAA9"/>
    <path d="M229.928 78.8119C239.651 84.4369 247.516 98.0287 247.465 109.203C247.465 109.788 247.439 110.348 247.388 110.882C251.995 114.904 255.38 121.649 255.355 127.376C255.33 134.146 250.544 136.87 244.665 133.459L205.137 110.653C199.257 107.243 194.497 99.0214 194.523 92.2509C194.548 87.0331 197.399 84.2079 201.421 84.7678C201.293 84.0042 201.242 83.2406 201.242 82.5025C201.268 76.7247 205.366 74.3831 210.38 77.2847C211.78 78.0992 213.129 79.2446 214.3 80.5681C217.303 75.8848 223.157 74.9176 229.928 78.8119Z"
          fill="#16D2BF"/>
    <path opacity="0.4" fill-rule="evenodd" clip-rule="evenodd"
          d="M291.947 0.008315H168.415V113.696H168.417C168.374 114.278 168.352 114.863 168.352 115.451C168.352 136.281 196.038 153.167 230.191 153.167C264.345 153.167 292.031 136.281 292.031 115.451C292.031 114.785 292.003 114.123 291.947 113.465V0.008315Z"
          fill="url(#paint21_linear_13999_497055)"/>
    <path opacity="0.5" fill-rule="evenodd" clip-rule="evenodd"
          d="M291.947 0.008315H168.415V113.696H168.417C168.374 114.278 168.352 114.863 168.352 115.451C168.352 136.281 196.038 153.167 230.191 153.167C264.345 153.167 292.031 136.281 292.031 115.451C292.031 114.785 292.003 114.123 291.947 113.465V0.008315Z"
          fill="url(#paint22_linear_13999_497055)"/>
    <ellipse cx="122.83" cy="165.463" rx="4.81428" ry="3.08258" fill="#1DB5A5"/>
    <ellipse cx="122.83" cy="162.381" rx="4.81428" ry="3.08258" fill="#65D6CA"/>
    <path d="M127.644 140.841H118.016V162.381C118.016 162.381 118.016 162.381 118.016 162.381C118.016 164.083 120.171 165.463 122.83 165.463C125.489 165.463 127.644 164.083 127.644 162.381C127.644 162.37 127.644 162.358 127.644 162.347V140.841Z"
          fill="url(#paint23_linear_13999_497055)"/>
    <path opacity="0.4"
          d="M127.644 140.841H118.016V162.381C118.016 162.381 118.016 162.381 118.016 162.381C118.016 164.083 120.171 165.463 122.83 165.463C125.489 165.463 127.644 164.083 127.644 162.381C127.644 162.37 127.644 162.358 127.644 162.347V140.841Z"
          fill="url(#paint24_linear_13999_497055)"/>
    <ellipse cx="232.115" cy="225.78" rx="4.81428" ry="3.08258" fill="#1DB5A5"/>
    <ellipse cx="232.115" cy="222.698" rx="4.81428" ry="3.08258" fill="#65D6CA"/>
    <path d="M236.93 201.157H227.302V222.698C227.302 222.698 227.302 222.698 227.302 222.698C227.302 224.4 229.457 225.78 232.116 225.78C234.775 225.78 236.93 224.4 236.93 222.698C236.93 222.686 236.93 222.675 236.93 222.664V201.157Z"
          fill="url(#paint25_linear_13999_497055)"/>
    <path opacity="0.4"
          d="M236.93 201.157H227.302V222.698C227.302 222.698 227.302 222.698 227.302 222.698C227.302 224.4 229.457 225.78 232.116 225.78C234.775 225.78 236.93 224.4 236.93 222.698C236.93 222.686 236.93 222.675 236.93 222.664V201.157Z"
          fill="url(#paint26_linear_13999_497055)"/>
    <ellipse cx="342.226" cy="163.938" rx="4.81428" ry="3.08258" fill="#1DB5A5"/>
    <ellipse cx="342.226" cy="160.855" rx="4.81428" ry="3.08258" fill="#65D6CA"/>
    <path d="M347.041 139.314H337.413V160.855C337.413 160.855 337.413 160.855 337.413 160.855C337.413 162.557 339.568 163.937 342.227 163.937C344.886 163.937 347.041 162.557 347.041 160.855C347.041 160.843 347.041 160.832 347.041 160.821V139.314Z"
          fill="url(#paint27_linear_13999_497055)"/>
    <path opacity="0.4"
          d="M347.041 139.314H337.413V160.855C337.413 160.855 337.413 160.855 337.413 160.855C337.413 162.557 339.568 163.937 342.227 163.937C344.886 163.937 347.041 162.557 347.041 160.855C347.041 160.843 347.041 160.832 347.041 160.821V139.314Z"
          fill="url(#paint28_linear_13999_497055)"/>
    <path d="M435.008 129.62L392.017 154.595C391.933 154.644 391.829 154.644 391.745 154.596L348.414 129.613C348.233 129.509 348.233 129.248 348.413 129.143L391.404 104.168C391.488 104.119 391.592 104.119 391.676 104.167L435.007 129.15C435.188 129.254 435.188 129.515 435.008 129.62Z"
          fill="#EFF4F9" stroke="white" stroke-width="1.628"/>
    <path d="M424.762 122.28L391.831 141.411L358.649 122.28L391.58 103.148L424.762 122.28Z" fill="white"/>
    <path d="M424.758 113.488L391.826 132.619L358.644 113.488L391.575 94.3564L424.758 113.488Z" fill="white"/>
    <path d="M424.77 122.28L424.77 128.588L391.838 147.719L391.838 141.411L424.77 122.28Z"
          fill="url(#paint29_linear_13999_497055)"/>
    <path d="M424.762 113.488L424.762 119.796L391.831 138.927L391.831 132.619L424.762 113.488Z"
          fill="url(#paint30_linear_13999_497055)"/>
    <path d="M391.831 141.441V147.72L358.649 128.589V122.309L391.831 141.441Z"
          fill="url(#paint31_linear_13999_497055)"/>
    <path d="M391.825 132.649V138.928L358.643 119.797V113.517L391.825 132.649Z"
          fill="url(#paint32_linear_13999_497055)"/>
    <path d="M400.19 111.498L400.16 123.522L379.259 111.498L379.259 99.4749L400.19 111.498Z" fill="#65E9DB"/>
    <path fill-rule="evenodd" clip-rule="evenodd"
          d="M382.325 97.9106L379.26 99.4738L400.189 111.496L400.189 111.496L400.159 123.523L403.246 121.501V109.91L403.214 109.926L382.325 97.9106Z"
          fill="#14BAA9"/>
    <path opacity="0.4" d="M424.88 113.488L391.949 132.619L358.766 113.488V61.9656H424.88V113.488Z"
          fill="url(#paint33_linear_13999_497055)"/>
    <path d="M387.163 99.0909L387.138 109.313L369.367 99.0909L369.367 88.8684L387.163 99.0909Z" fill="#A3FBF2"/>
    <path d="M369.369 88.8671L371.975 87.5381L389.746 97.7606L387.165 99.0896L369.369 88.8671Z"
          fill="url(#paint34_linear_13999_497055)"/>
    <path d="M387.161 99.0882L389.761 97.74V107.595L387.136 109.314L387.161 99.0882Z" fill="#37D9CA"/>
    <path d="M373.153 94.1273L373.143 97.9103L371.908 97.0968L371.907 93.3137L373.153 94.1273Z" fill="white"
          fill-opacity="0.3"/>
    <path d="M375.398 95.3702L375.388 99.1532L374.152 98.3397L374.152 94.5566L375.398 95.3702Z" fill="white"
          fill-opacity="0.3"/>
    <path d="M382.119 99.3209L382.11 103.104L380.874 102.29L380.874 98.5073L382.119 99.3209Z" fill="white"
          fill-opacity="0.3"/>
    <path d="M377.641 96.69L377.631 100.473L376.396 99.6595L376.396 95.8765L377.641 96.69Z" fill="white"
          fill-opacity="0.3"/>
    <path d="M384.357 103.2L384.347 104.46L383.112 103.646L383.112 102.386L384.357 103.2Z" fill="white"
          fill-opacity="0.3"/>
    <path d="M379.88 99.7029L379.88 101.771L378.644 100.957L378.635 98.8894L379.88 99.7029Z" fill="white"
          fill-opacity="0.3"/>
    <path d="M379.555 100.952L379.53 111.175L361.759 100.952L361.759 90.7297L379.555 100.952Z"
          fill="url(#paint35_linear_13999_497055)"/>
    <g opacity="0.3">
        <ellipse cx="394.973" cy="101.877" rx="3.24759" ry="1.95918" fill="url(#paint36_linear_13999_497055)"/>
        <path d="M398.203 96.5056C398.203 96.5031 398.203 96.5007 398.203 96.4982C398.203 95.4162 396.749 94.5391 394.955 94.5391C393.162 94.5391 391.708 95.4162 391.708 96.4982V101.877H398.203V96.5056Z"
              fill="url(#paint37_linear_13999_497055)"/>
        <ellipse cx="394.973" cy="96.498" rx="3.24759" ry="1.95918" fill="url(#paint38_linear_13999_497055)"/>
    </g>
    <g opacity="0.3">
        <ellipse cx="404.324" cy="106.562" rx="3.24759" ry="1.95918" fill="url(#paint39_linear_13999_497055)"/>
        <path d="M407.555 101.19C407.555 101.188 407.555 101.186 407.555 101.183C407.555 100.101 406.101 99.2239 404.307 99.2239C402.514 99.2239 401.06 100.101 401.06 101.183V106.562H407.555V101.19Z"
              fill="url(#paint40_linear_13999_497055)"/>
        <ellipse cx="404.325" cy="101.183" rx="3.24759" ry="1.95918" fill="url(#paint41_linear_13999_497055)"/>
    </g>
    <g opacity="0.3">
        <ellipse cx="413.682" cy="111.175" rx="3.24759" ry="1.95918" fill="url(#paint42_linear_13999_497055)"/>
        <path d="M416.908 105.803C416.908 105.8 416.908 105.798 416.908 105.795C416.908 104.713 415.454 103.836 413.661 103.836C411.867 103.836 410.413 104.713 410.413 105.795V111.174H416.908V105.803Z"
              fill="url(#paint43_linear_13999_497055)"/>
        <ellipse cx="413.682" cy="105.795" rx="3.24759" ry="1.95918" fill="url(#paint44_linear_13999_497055)"/>
    </g>
    <path d="M150.196 109.415L104.916 135.72C104.832 135.769 104.729 135.769 104.644 135.721L59.007 109.408C58.8263 109.304 58.8259 109.043 59.0062 108.938L104.286 82.6329C104.37 82.5841 104.474 82.5839 104.558 82.6325L150.196 108.945C150.376 109.049 150.377 109.31 150.196 109.415Z"
          fill="#EFF5FB" stroke="white" stroke-width="1.628"/>
    <path d="M139.329 101.715L104.728 121.816L69.8641 101.715L104.465 81.6135L139.329 101.715Z" fill="#F9FBFD"/>
    <path d="M139.322 92.4773L104.722 112.579L69.8573 92.4773L104.458 72.376L139.322 92.4773Z" fill="white"/>
    <path d="M139.338 101.714L139.338 108.342L104.737 128.443L104.737 121.815L139.338 101.714Z"
          fill="url(#paint45_linear_13999_497055)"/>
    <path d="M139.456 92.4766L139.456 99.1047L104.855 119.206L104.855 112.578L139.456 92.4766Z"
          fill="url(#paint46_linear_13999_497055)"/>
    <path d="M104.728 121.846V128.445L69.8641 108.343V101.745L104.728 121.846Z"
          fill="url(#paint47_linear_13999_497055)"/>
    <path d="M104.85 112.609V119.207L69.9862 99.1057V92.5076L104.85 112.609Z" fill="url(#paint48_linear_13999_497055)"/>
    <g opacity="0.7">
        <path d="M116.339 84.9965L116.319 93.3098L101.831 84.9558L101.852 76.6426L116.339 84.9965Z" fill="#16D2BF"/>
        <path fill-rule="evenodd" clip-rule="evenodd"
              d="M106.165 74.158L101.854 76.6438L116.339 84.9967L116.319 93.3098L120.63 90.8036L120.671 82.4926L120.673 82.4915L120.671 82.4905V82.4904L120.671 82.4904L106.165 74.158Z"
              fill="#14BAA9"/>
        <path d="M110.092 75.523L110.031 97.1211L95.5433 88.7875L95.6046 67.1895L110.092 75.523Z" fill="#16D2BF"/>
        <path fill-rule="evenodd" clip-rule="evenodd"
              d="M99.9199 64.6826L95.6084 67.1888L110.096 75.5223L110.092 75.5241L110.031 97.1221L114.363 94.6159L114.424 73.0385L114.428 73.0366L99.9199 64.6826Z"
              fill="#14BAA9"/>
        <path d="M103.349 84.794L103.287 101.4L88.8 93.0665L88.8409 76.4604L103.349 84.794Z" fill="#16D2BF"/>
        <path fill-rule="evenodd" clip-rule="evenodd"
              d="M93.1767 73.9539L88.8448 76.46L103.35 84.7919L103.349 84.7924L103.288 101.398L107.619 98.9126L107.66 82.2896L107.664 82.2874L93.1767 73.9539Z"
              fill="#14BAA9"/>
    </g>
    <path opacity="0.4" d="M139.455 92.4775L104.855 112.579L69.9904 92.4775V38.3435H139.455V92.4775Z"
          fill="url(#paint49_linear_13999_497055)"/>
    <path opacity="0.4" d="M139.455 92.4775L104.784 112.611L69.9904 92.4775V38.3435H139.455V92.4775Z"
          fill="url(#paint50_linear_13999_497055)"/>
    <defs>
        <linearGradient id="paint0_linear_13999_497055" x1="341.091" y1="135.774" x2="136.163" y2="239.696"
                        gradientUnits="userSpaceOnUse">
            <stop stop-color="#EFF4F9"/>
            <stop offset="1" stop-color="white"/>
        </linearGradient>
        <linearGradient id="paint1_linear_13999_497055" x1="403.817" y1="140.406" x2="275.589" y2="278.039"
                        gradientUnits="userSpaceOnUse">
            <stop stop-color="#F2F9FF"/>
            <stop offset="1" stop-color="#B5C3D6"/>
        </linearGradient>
        <linearGradient id="paint2_linear_13999_497055" x1="46.7725" y1="137.977" x2="227.397" y2="274.247"
                        gradientUnits="userSpaceOnUse">
            <stop stop-color="#EFF4F9"/>
            <stop offset="1" stop-color="#B8C5D8"/>
        </linearGradient>
        <linearGradient id="paint3_linear_13999_497055" x1="394.532" y1="197.905" x2="358.416" y2="216.22"
                        gradientUnits="userSpaceOnUse">
            <stop stop-color="#EFF4F9"/>
            <stop offset="1" stop-color="white"/>
        </linearGradient>
        <linearGradient id="paint4_linear_13999_497055" x1="404.397" y1="205.958" x2="376.61" y2="231.711"
                        gradientUnits="userSpaceOnUse">
            <stop stop-color="#F2F9FF"/>
            <stop offset="1" stop-color="#C0CBDD"/>
        </linearGradient>
        <linearGradient id="paint5_linear_13999_497055" x1="404.397" y1="195.247" x2="376.61" y2="221"
                        gradientUnits="userSpaceOnUse">
            <stop stop-color="#F2F9FF"/>
            <stop offset="1" stop-color="#C0CBDD"/>
        </linearGradient>
        <linearGradient id="paint6_linear_13999_497055" x1="328.846" y1="209.408" x2="378.368" y2="232.438"
                        gradientUnits="userSpaceOnUse">
            <stop stop-color="#EFF4F9"/>
            <stop offset="1" stop-color="#BDC9DB"/>
        </linearGradient>
        <linearGradient id="paint7_linear_13999_497055" x1="328.846" y1="198.697" x2="378.368" y2="221.727"
                        gradientUnits="userSpaceOnUse">
            <stop stop-color="#EFF4F9"/>
            <stop offset="1" stop-color="#BDC9DB"/>
        </linearGradient>
        <linearGradient id="paint8_linear_13999_497055" x1="319.438" y1="54.5191" x2="299.417" y2="64.6718"
                        gradientUnits="userSpaceOnUse">
            <stop stop-color="#EFF4F9"/>
            <stop offset="1" stop-color="white"/>
        </linearGradient>
        <linearGradient id="paint9_linear_13999_497055" x1="324.906" y1="58.9832" x2="309.503" y2="73.259"
                        gradientUnits="userSpaceOnUse">
            <stop stop-color="#F2F9FF"/>
            <stop offset="1" stop-color="#C0CBDD"/>
        </linearGradient>
        <linearGradient id="paint10_linear_13999_497055" x1="324.906" y1="53.0462" x2="309.503" y2="67.322"
                        gradientUnits="userSpaceOnUse">
            <stop stop-color="#F2F9FF"/>
            <stop offset="1" stop-color="#C0CBDD"/>
        </linearGradient>
        <linearGradient id="paint11_linear_13999_497055" x1="283.026" y1="60.8956" x2="310.478" y2="73.6618"
                        gradientUnits="userSpaceOnUse">
            <stop stop-color="#EFF4F9"/>
            <stop offset="1" stop-color="#BDC9DB"/>
        </linearGradient>
        <linearGradient id="paint12_linear_13999_497055" x1="283.026" y1="54.9588" x2="310.478" y2="67.7251"
                        gradientUnits="userSpaceOnUse">
            <stop stop-color="#EFF4F9"/>
            <stop offset="1" stop-color="#BDC9DB"/>
        </linearGradient>
        <linearGradient id="paint13_linear_13999_497055" x1="316.176" y1="158.751" x2="153.152" y2="136.741"
                        gradientUnits="userSpaceOnUse">
            <stop stop-color="#B1BFD3"/>
            <stop offset="1" stop-color="#E2E7EE"/>
        </linearGradient>
        <linearGradient id="paint14_linear_13999_497055" x1="306.069" y1="138.243" x2="157.051" y2="138.243"
                        gradientUnits="userSpaceOnUse">
            <stop stop-color="#F2F6FB"/>
            <stop offset="1" stop-color="#FDFEFF"/>
        </linearGradient>
        <linearGradient id="paint15_linear_13999_497055" x1="306.069" y1="138.243" x2="157.051" y2="138.243"
                        gradientUnits="userSpaceOnUse">
            <stop stop-color="#F2F6FB"/>
            <stop offset="1" stop-color="#FDFEFF"/>
        </linearGradient>
        <linearGradient id="paint16_linear_13999_497055" x1="217.653" y1="164.26" x2="311.405" y2="105.764"
                        gradientUnits="userSpaceOnUse">
            <stop stop-color="#B6C3D7"/>
            <stop offset="1" stop-color="#EFF4F9"/>
        </linearGradient>
        <linearGradient id="paint17_linear_13999_497055" x1="161.523" y1="130.042" x2="292.031" y2="127.731"
                        gradientUnits="userSpaceOnUse">
            <stop stop-color="#EFF5FB"/>
            <stop offset="1" stop-color="#F6F9FD"/>
        </linearGradient>
        <linearGradient id="paint18_linear_13999_497055" x1="161.523" y1="127.628" x2="292.031" y2="125.317"
                        gradientUnits="userSpaceOnUse">
            <stop offset="0.124346" stop-color="#EEF4FA"/>
            <stop offset="1" stop-color="#B8C5D8"/>
        </linearGradient>
        <linearGradient id="paint19_linear_13999_497055" x1="297.335" y1="96.4214" x2="180.472" y2="163.38"
                        gradientUnits="userSpaceOnUse">
            <stop stop-color="#EFF4F9"/>
            <stop offset="1" stop-color="white"/>
        </linearGradient>
        <linearGradient id="paint20_linear_13999_497055" x1="184.15" y1="115.726" x2="283.618" y2="121.782"
                        gradientUnits="userSpaceOnUse">
            <stop stop-color="#FDFEFF"/>
            <stop offset="1" stop-color="#E5EAF1"/>
        </linearGradient>
        <linearGradient id="paint21_linear_13999_497055" x1="230.191" y1="0.00830078" x2="230.191" y2="153.167"
                        gradientUnits="userSpaceOnUse">
            <stop stop-color="white" stop-opacity="0"/>
            <stop offset="1" stop-color="#5CD2C5" stop-opacity="0.58"/>
        </linearGradient>
        <linearGradient id="paint22_linear_13999_497055" x1="230.191" y1="0.00830078" x2="230.191" y2="153.167"
                        gradientUnits="userSpaceOnUse">
            <stop stop-color="white" stop-opacity="0"/>
            <stop offset="1" stop-color="#5CD2C5" stop-opacity="0.58"/>
        </linearGradient>
        <linearGradient id="paint23_linear_13999_497055" x1="122.83" y1="165.463" x2="122.83" y2="140.841"
                        gradientUnits="userSpaceOnUse">
            <stop stop-color="#119E8F" stop-opacity="0.31"/>
            <stop offset="1" stop-color="#119E8F" stop-opacity="0"/>
        </linearGradient>
        <linearGradient id="paint24_linear_13999_497055" x1="122.83" y1="165.463" x2="122.83" y2="140.841"
                        gradientUnits="userSpaceOnUse">
            <stop stop-color="#119E8F" stop-opacity="0.31"/>
            <stop offset="1" stop-color="#119E8F" stop-opacity="0"/>
        </linearGradient>
        <linearGradient id="paint25_linear_13999_497055" x1="232.116" y1="225.78" x2="232.116" y2="201.157"
                        gradientUnits="userSpaceOnUse">
            <stop stop-color="#119E8F" stop-opacity="0.31"/>
            <stop offset="1" stop-color="#119E8F" stop-opacity="0"/>
        </linearGradient>
        <linearGradient id="paint26_linear_13999_497055" x1="232.116" y1="225.78" x2="232.116" y2="201.157"
                        gradientUnits="userSpaceOnUse">
            <stop stop-color="#119E8F" stop-opacity="0.31"/>
            <stop offset="1" stop-color="#119E8F" stop-opacity="0"/>
        </linearGradient>
        <linearGradient id="paint27_linear_13999_497055" x1="342.227" y1="163.937" x2="342.227" y2="139.314"
                        gradientUnits="userSpaceOnUse">
            <stop stop-color="#119E8F" stop-opacity="0.31"/>
            <stop offset="1" stop-color="#119E8F" stop-opacity="0"/>
        </linearGradient>
        <linearGradient id="paint28_linear_13999_497055" x1="342.227" y1="163.937" x2="342.227" y2="139.314"
                        gradientUnits="userSpaceOnUse">
            <stop stop-color="#119E8F" stop-opacity="0.31"/>
            <stop offset="1" stop-color="#119E8F" stop-opacity="0"/>
        </linearGradient>
        <linearGradient id="paint29_linear_13999_497055" x1="434.775" y1="112.741" x2="402.043" y2="150.501"
                        gradientUnits="userSpaceOnUse">
            <stop stop-color="#F2F9FF"/>
            <stop offset="1" stop-color="#C0CBDD"/>
        </linearGradient>
        <linearGradient id="paint30_linear_13999_497055" x1="434.767" y1="103.949" x2="402.035" y2="141.709"
                        gradientUnits="userSpaceOnUse">
            <stop stop-color="#F2F9FF"/>
            <stop offset="1" stop-color="#C0CBDD"/>
        </linearGradient>
        <linearGradient id="paint31_linear_13999_497055" x1="323.189" y1="116.842" x2="389.814" y2="155.417"
                        gradientUnits="userSpaceOnUse">
            <stop stop-color="#EFF4F9"/>
            <stop offset="1" stop-color="#BDC9DB"/>
        </linearGradient>
        <linearGradient id="paint32_linear_13999_497055" x1="323.184" y1="108.05" x2="389.808" y2="146.625"
                        gradientUnits="userSpaceOnUse">
            <stop stop-color="#EFF4F9"/>
            <stop offset="1" stop-color="#BDC9DB"/>
        </linearGradient>
        <linearGradient id="paint33_linear_13999_497055" x1="391.823" y1="61.9656" x2="391.823" y2="132.619"
                        gradientUnits="userSpaceOnUse">
            <stop stop-color="white" stop-opacity="0"/>
            <stop offset="1" stop-color="#5CD2C5" stop-opacity="0.58"/>
        </linearGradient>
        <linearGradient id="paint34_linear_13999_497055" x1="369.369" y1="87.5381" x2="379.558" y2="99.0896"
                        gradientUnits="userSpaceOnUse">
            <stop stop-color="#F9FBFD"/>
            <stop offset="1" stop-color="#F9FBFD"/>
        </linearGradient>
        <linearGradient id="paint35_linear_13999_497055" x1="370.657" y1="90.7297" x2="370.657" y2="111.175"
                        gradientUnits="userSpaceOnUse">
            <stop stop-color="#65E9DB"/>
            <stop offset="1" stop-color="#65E9DB" stop-opacity="0"/>
        </linearGradient>
        <linearGradient id="paint36_linear_13999_497055" x1="394.973" y1="103.836" x2="394.973" y2="99.918"
                        gradientUnits="userSpaceOnUse">
            <stop stop-color="#65E9DB" stop-opacity="0.47"/>
            <stop offset="1" stop-color="#65E9DB" stop-opacity="0"/>
        </linearGradient>
        <linearGradient id="paint37_linear_13999_497055" x1="394.955" y1="95.7435" x2="395.11" y2="101.877"
                        gradientUnits="userSpaceOnUse">
            <stop stop-color="#65E9DB"/>
            <stop offset="1" stop-color="#65E9DB" stop-opacity="0"/>
        </linearGradient>
        <linearGradient id="paint38_linear_13999_497055" x1="394.973" y1="94.5388" x2="394.973" y2="98.4572"
                        gradientUnits="userSpaceOnUse">
            <stop stop-color="#2FDDCB"/>
            <stop offset="1" stop-color="#39E7D5" stop-opacity="0"/>
        </linearGradient>
        <linearGradient id="paint39_linear_13999_497055" x1="404.324" y1="108.521" x2="404.324" y2="104.603"
                        gradientUnits="userSpaceOnUse">
            <stop stop-color="#65E9DB" stop-opacity="0.47"/>
            <stop offset="1" stop-color="#65E9DB" stop-opacity="0"/>
        </linearGradient>
        <linearGradient id="paint40_linear_13999_497055" x1="404.307" y1="100.428" x2="404.462" y2="106.562"
                        gradientUnits="userSpaceOnUse">
            <stop stop-color="#65E9DB"/>
            <stop offset="1" stop-color="#65E9DB" stop-opacity="0"/>
        </linearGradient>
        <linearGradient id="paint41_linear_13999_497055" x1="404.325" y1="99.2236" x2="404.325" y2="103.142"
                        gradientUnits="userSpaceOnUse">
            <stop stop-color="#2FDDCB"/>
            <stop offset="1" stop-color="#39E7D5" stop-opacity="0"/>
        </linearGradient>
        <linearGradient id="paint42_linear_13999_497055" x1="413.682" y1="113.134" x2="413.682" y2="109.216"
                        gradientUnits="userSpaceOnUse">
            <stop stop-color="#65E9DB" stop-opacity="0.47"/>
            <stop offset="1" stop-color="#65E9DB" stop-opacity="0"/>
        </linearGradient>
        <linearGradient id="paint43_linear_13999_497055" x1="413.661" y1="105.041" x2="413.815" y2="111.174"
                        gradientUnits="userSpaceOnUse">
            <stop stop-color="#65E9DB"/>
            <stop offset="1" stop-color="#65E9DB" stop-opacity="0"/>
        </linearGradient>
        <linearGradient id="paint44_linear_13999_497055" x1="413.682" y1="103.836" x2="413.682" y2="107.755"
                        gradientUnits="userSpaceOnUse">
            <stop stop-color="#2FDDCB"/>
            <stop offset="1" stop-color="#39E7D5" stop-opacity="0"/>
        </linearGradient>
        <linearGradient id="paint45_linear_13999_497055" x1="149.85" y1="91.6915" x2="115.459" y2="131.366"
                        gradientUnits="userSpaceOnUse">
            <stop stop-color="#F2F9FF"/>
            <stop offset="1" stop-color="#C0CBDD"/>
        </linearGradient>
        <linearGradient id="paint46_linear_13999_497055" x1="149.968" y1="82.4542" x2="115.577" y2="122.128"
                        gradientUnits="userSpaceOnUse">
            <stop stop-color="#F2F9FF"/>
            <stop offset="1" stop-color="#C0CBDD"/>
        </linearGradient>
        <linearGradient id="paint47_linear_13999_497055" x1="32.6072" y1="96.0006" x2="102.609" y2="136.532"
                        gradientUnits="userSpaceOnUse">
            <stop stop-color="#EFF4F9"/>
            <stop offset="1" stop-color="#BDC9DB"/>
        </linearGradient>
        <linearGradient id="paint48_linear_13999_497055" x1="32.7293" y1="86.7631" x2="102.731" y2="127.294"
                        gradientUnits="userSpaceOnUse">
            <stop stop-color="#EFF4F9"/>
            <stop offset="1" stop-color="#BDC9DB"/>
        </linearGradient>
        <linearGradient id="paint49_linear_13999_497055" x1="104.723" y1="38.3435" x2="104.723" y2="112.579"
                        gradientUnits="userSpaceOnUse">
            <stop stop-color="white" stop-opacity="0"/>
            <stop offset="1" stop-color="#5CD2C5" stop-opacity="0.58"/>
        </linearGradient>
        <linearGradient id="paint50_linear_13999_497055" x1="104.723" y1="38.3435" x2="104.723" y2="112.579"
                        gradientUnits="userSpaceOnUse">
            <stop stop-color="white" stop-opacity="0"/>
            <stop offset="1" stop-color="#5CD2C5" stop-opacity="0.58"/>
        </linearGradient>
    </defs>
</svg>
