<svg xmlns="http://www.w3.org/2000/svg" width="20" height="20" viewBox="0 0 20 20">
    <g fill="none" fill-rule="evenodd">
        <g>
            <g>
                <g>
                    <g>
                        <g>
                            <path fill="#B6C2CD" d="M15 0v8.167c0 .552-.448 1-1 1H1c-.552 0-1-.448-1-1V0h15zM4.676 2.083l-.51.51 1.992 1.99-1.991 1.991.509.51 2.5-2.5-2.5-2.5zm6.157 4.167H7.5v.833h3.333V6.25z" transform="translate(-44 -95) translate(32 89) translate(12 6) translate(2.5 4.167) translate(0 2.5)"/>
                            <g fill="#324558">
                                <path d="M0 .509L.509 0 3.009 2.5.509 5 0 4.491 1.991 2.5zM3.333 4.167H6.666V5.167H3.333z" transform="translate(-44 -95) translate(32 89) translate(12 6) translate(2.5 4.167) translate(0 2.5) translate(4.167 2.083)"/>
                            </g>
                        </g>
                        <g transform="translate(-44 -95) translate(32 89) translate(12 6) translate(2.5 4.167)">
                            <path fill="#324558" d="M14 0c.552 0 1 .448 1 1v1.5H0V1c0-.552.448-1 1-1h13zm-3.583.833c-.23 0-.417.187-.417.417 0 .23.187.417.417.417.23 0 .416-.187.416-.417 0-.23-.186-.417-.416-.417zm1.666 0c-.23 0-.416.187-.416.417 0 .23.186.417.416.417.23 0 .417-.187.417-.417 0-.23-.187-.417-.417-.417zm1.667 0c-.23 0-.417.187-.417.417 0 .23.187.417.417.417.23 0 .417-.187.417-.417 0-.23-.187-.417-.417-.417z"/>
                            <circle cx="10.417" cy="1.25" r="1" fill="#B6C2CD"/>
                            <circle cx="12.083" cy="1.25" r="1" fill="#B6C2CD"/>
                            <circle cx="13.75" cy="1.25" r="1" fill="#B6C2CD"/>
                        </g>
                    </g>
                </g>
            </g>
        </g>
    </g>
</svg>
