<svg width="25" height="24" viewBox="0 0 25 24" fill="none" xmlns="http://www.w3.org/2000/svg">
<path d="M5.53999 4.80078H11.06C11.18 4.80078 11.3 4.92078 11.3 5.04078L11.66 15.0008L17.18 4.92078C17.18 4.80078 17.3 4.80078 17.42 4.80078H21.86C21.98 4.80078 22.1 4.92078 22.1 5.04078L19.7 18.9608C19.7 19.0808 19.58 19.2008 19.46 19.2008L16.34 19.0808C16.22 19.0808 16.1 18.9608 16.1 18.8408L17.78 10.5608C17.78 10.4408 17.66 10.4408 17.66 10.4408L12.5 18.9608C12.5 19.0808 12.5 19.2008 12.38 19.2008H9.13999C9.01999 19.2008 8.89999 19.0808 8.89999 18.9608L8.05999 11.0408C8.05999 10.9208 7.93999 10.9208 7.93999 11.0408L6.49999 18.9608C6.49999 19.0808 6.37999 19.2008 6.25999 19.2008H3.13999C3.01999 19.2008 2.89999 18.9608 2.89999 18.8408L5.29999 5.04078C5.29999 4.92078 5.41999 4.80078 5.53999 4.80078V4.80078Z" fill="#36435C"/>
</svg>
