<svg xmlns="http://www.w3.org/2000/svg" width="269" height="244" viewBox="0 0 269 244">
    <defs>
        <linearGradient id="a" x1="36.53%" x2="72.712%" y1="68.59%" y2="32.148%">
            <stop offset="0%" stop-color="#FFF" stop-opacity="0"/>
            <stop offset="100%" stop-color="#1750A6"/>
        </linearGradient>
        <linearGradient id="b" x1="50%" x2="72.712%" y1="63.258%" y2="34.471%">
            <stop offset="0%" stop-color="#FFF" stop-opacity="0"/>
            <stop offset="100%" stop-color="#1750A6" stop-opacity=".537"/>
        </linearGradient>
        <linearGradient id="c" x1="50%" x2="72.712%" y1="60.549%" y2="37.644%">
            <stop offset="0%" stop-color="#FFF" stop-opacity="0"/>
            <stop offset="100%" stop-color="#1750A6" stop-opacity=".537"/>
        </linearGradient>
        <linearGradient id="d" x1="50%" x2="72.712%" y1="67.631%" y2="29.349%">
            <stop offset="0%" stop-color="#FFF" stop-opacity="0"/>
            <stop offset="100%" stop-color="#FFF" stop-opacity=".537"/>
        </linearGradient>
        <linearGradient id="e" x1="50%" x2="72.712%" y1="66.377%" y2="30.818%">
            <stop offset="0%" stop-color="#FFF" stop-opacity="0"/>
            <stop offset="100%" stop-color="#1750A6" stop-opacity=".537"/>
        </linearGradient>
        <linearGradient id="f" x1="48.284%" x2="67.881%" y1="72.545%" y2="35.506%">
            <stop offset="0%" stop-color="#FFF" stop-opacity="0"/>
            <stop offset="100%" stop-color="#1750A6" stop-opacity=".537"/>
        </linearGradient>
        <linearGradient id="g" x1="32.221%" x2="63.925%" y1="9.071%" y2="91.011%">
            <stop offset="0%" stop-color="#1DCAF5"/>
            <stop offset="100%" stop-color="#0B8BD5"/>
        </linearGradient>
        <linearGradient id="h" x1="95.554%" x2="7.631%" y1="44.501%" y2="62.323%">
            <stop offset="0%" stop-color="#7BECFA"/>
            <stop offset="100%" stop-color="#36D3F5"/>
        </linearGradient>
        <linearGradient id="i" x1="158.876%" x2="-6.25%" y1="95.674%" y2="27.599%">
            <stop offset="0%" stop-color="#0091E5"/>
            <stop offset="100%" stop-color="#00B8EF"/>
        </linearGradient>
        <linearGradient id="j" x1="95.554%" x2="7.631%" y1="44.481%" y2="62.369%">
            <stop offset="0%" stop-color="#66EBFB"/>
            <stop offset="100%" stop-color="#36D3F5"/>
        </linearGradient>
        <linearGradient id="k" x1="40.159%" x2="58.189%" y1="67.881%" y2="44.726%">
            <stop offset="0%" stop-color="#0B3F8B"/>
            <stop offset="100%" stop-color="#1168D1"/>
        </linearGradient>
        <linearGradient id="l" x1="41.876%" x2="57.963%" y1="29.615%" y2="81.121%">
            <stop offset="0%" stop-color="#00A6F2"/>
            <stop offset="100%" stop-color="#006DE1"/>
        </linearGradient>
        <linearGradient id="m" x1="158.876%" x2="-6.25%" y1="92.244%" y2="29.281%">
            <stop offset="0%" stop-color="#0091E5"/>
            <stop offset="100%" stop-color="#00B8EF"/>
        </linearGradient>
        <linearGradient id="n" x1="100%" x2="-6.25%" y1="78.714%" y2="27.205%">
            <stop offset="0%" stop-color="#0078E5"/>
            <stop offset="100%" stop-color="#00B8EF"/>
        </linearGradient>
        <linearGradient id="o" x1="95.554%" x2="7.631%" y1="44.474%" y2="62.385%">
            <stop offset="0%" stop-color="#66EBFB"/>
            <stop offset="100%" stop-color="#36D3F5"/>
        </linearGradient>
        <linearGradient id="p" x1="95.554%" x2="7.631%" y1="44.501%" y2="62.323%">
            <stop offset="0%" stop-color="#66EBFB"/>
            <stop offset="100%" stop-color="#36D3F5"/>
        </linearGradient>
        <linearGradient id="q" x1="-27.988%" y1="17.554%" y2="76.759%">
            <stop offset="0%" stop-color="#0B7CC3"/>
            <stop offset="100%" stop-color="#00BEF3"/>
        </linearGradient>
    </defs>
    <g fill="none" fill-rule="evenodd">
        <path fill="url(#a)" d="M143.472 5.726l75.85 87.06-117.01 70.926L.232 82.57c41.351-22.67 70.471-38.562 87.36-47.676 16.887-9.114 22.79-12.385 17.708-9.813l38.172-19.355z" opacity=".9" transform="translate(-.06 83.562)"/>
        <path fill="url(#b)" d="M107.422 36.5l25.35 15.176L91.284 79.83 68.345 59.093z" transform="translate(-.06 83.562)"/>
        <path fill="url(#c)" d="M47.39 59.143l19.97 12.533-23.345 12.79L25.15 71.213z" transform="translate(-.06 83.562)"/>
        <path fill="url(#d)" d="M188.742 48.23l17.984 15.306-52.669 37.05-14.838-22.69z" transform="translate(-.06 83.562)"/>
        <path fill="url(#e)" d="M228.27.07l15.872 14.54-41.55 26.58-13.462-20.1z" transform="translate(-.06 83.562)"/>
        <path fill="url(#f)" d="M183.98 80.426l19.572 19.267-34.752 17.84-11.185-22.95z" transform="translate(-.06 -14.206)"/>
        <path fill="#1750A6" d="M182.772 43.566l20.586 11.898V85.66l-20.586-11.152z"/>
        <path fill="url(#g)" d="M24.22 27.803l20.585 11.899v30.144L24.22 58.694z" transform="matrix(-1 0 0 1 248.163 15.763)"/>
        <path fill="url(#h)" d="M7.17 7.341l26.665 7.653 7.95 26.845-27.598-7.264z" transform="rotate(-45 133.074 -183.768)"/>
        <path fill="#007EE5" d="M179.139 40.397L203.4 54.65v4.224L179.14 44.62z"/>
        <path fill="url(#i)" d="M24.22 24.557L48.99 38.943v4.224L24.22 28.78z" transform="matrix(-1 0 0 1 252.349 15.763)"/>
        <g>
            <path fill="#00BFF3" d="M129.34 21.79l25.654 14.854v85.25l-25.654-15.333z"/>
            <path fill="#0091E5" d="M180.648 21.79l-25.654 14.854v85.25l25.654-15.333z"/>
            <path fill="url(#j)" d="M8.934 9.51l33.23 9.553 9.907 33.515-34.392-9.068z" transform="rotate(-45 75.76 -126.723)"/>
            <path fill="url(#k)" d="M4.904 33.146l25.654 14.855v57.061L4.904 89.73z" transform="translate(98.782 32.336)"/>
            <path fill="url(#l)" d="M30.558 33.146l25.654 14.855v57.061L30.558 89.73z" transform="matrix(-1 0 0 1 185.552 32.336)"/>
            <path fill="url(#j)" d="M9.148 9.237l33.23 9.554 9.907 33.515-34.392-9.068z" transform="rotate(-45 119.14 -72.301)"/>
            <g>
                <path fill="#00AEEF" d="M124.813 16.783l30.235 17.042v5.273l-30.235-17.042z"/>
                <path fill="url(#m)" d="M30.235.345L60.952 17.37v5.168L30.235 5.618z" transform="matrix(-1 0 0 1 216 16.516)"/>
            </g>
            <g>
                <path fill="#1750A6" d="M154.994 97.367l25.654 14.855v25l-25.654-15.332z"/>
                <path fill="#007BE2" d="M206.301 97.367l-25.653 14.855v24.936l25.653-15.333z"/>
                <path fill="url(#j)" d="M8.934 9.165l33.23 9.554 9.907 33.515-34.392-9.068z" transform="rotate(-45 180.233 -120.072)"/>
                <path fill="#007EE5" d="M150.467 92.47l30.235 17.795v5.274l-30.235-17.796z"/>
                <path fill="#0063C2" d="M211.518 92.373l-30.87 17.96v5.274l30.87-17.96z"/>
            </g>
            <g>
                <path fill="#00A6F1" d="M99.154 63.113l30.235 17.795v5.274L99.154 68.386z"/>
                <path fill="url(#n)" d="M30.628.12l30.47 17.818v5.273L30.628 5.394z" transform="matrix(-1 0 0 1 190.509 62.98)"/>
            </g>
        </g>
        <g>
            <path fill="#1750A6" d="M172.04 144.231l28.188 16.333v27.488l-28.187-16.858z"/>
            <path fill="#007BE2" d="M228.415 144.231l-28.187 16.333v27.417l28.187-16.859z"/>
            <path fill="url(#o)" d="M10.194 10.077l36.512 10.505 10.885 36.85-37.789-9.971z" transform="rotate(-45 244.022 -114.941)"/>
            <path fill="#007EE5" d="M167.066 138.846l33.222 19.566v5.798l-33.222-19.566z"/>
            <path fill="#0063C2" d="M234.147 138.74l-33.92 19.747v5.798l33.92-19.747z"/>
        </g>
        <g>
            <path fill="#1750A6" d="M223.516 66.543l20.586 11.898v20.026l-20.586-12.282z"/>
            <path fill="#007BE2" d="M264.688 66.543L244.102 78.44v19.974l20.586-12.282z"/>
            <path fill="url(#p)" d="M7.17 7.341l26.665 7.653 7.95 26.845-27.598-7.264z" transform="rotate(-45 180.271 -221.839)"/>
            <g>
                <path fill="#007EE5" d="M219.883 62.62l24.262 14.254v4.224l-24.262-14.254z"/>
                <path fill="url(#i)" d="M24.22.395L48.99 14.78v4.223L24.22 4.618z" transform="matrix(-1 0 0 1 293.093 62.148)"/>
            </g>
        </g>
        <g>
            <path fill="#1750A6" d="M96.756 135.849l20.587 11.898v31.162l-20.587-12.281z"/>
            <path fill="#007BE2" d="M137.929 135.849l-20.586 11.898v31.11l20.586-12.281z"/>
            <path fill="url(#p)" d="M7.17 7.341l26.665 7.653 7.95 26.845-27.598-7.264z" transform="rotate(-45 200.552 -34.174)"/>
            <path fill="#007EE5" d="M93.124 131.926l24.262 14.254v4.224L93.124 136.15z"/>
            <path fill="url(#i)" d="M24.22 24.557L48.99 38.943v4.224L24.22 28.78z" transform="matrix(-1 0 0 1 166.334 107.292)"/>
        </g>
        <g>
            <path fill="#1750A6" d="M46.58 123.419l20.587 11.898v20.026L46.581 143.06z"/>
            <path fill="#007BE2" d="M87.753 123.419l-20.586 11.898v19.974l20.586-12.282z"/>
            <path fill="url(#q)" d="M7.17 7.341l26.665 7.653 7.95 26.845-27.598-7.264z" transform="rotate(-45 160.46 20.178)"/>
            <g>
                <path fill="#007EE5" d="M42.948 119.496l24.263 14.254v4.224L42.948 123.72z"/>
                <path fill="#0063C2" d="M91.94 119.419l-24.773 14.386v4.223l24.772-14.386z"/>
            </g>
        </g>
    </g>
</svg>
